<svg width="20" height="22" viewBox="0 0 20 22" fill="none" xmlns="http://www.w3.org/2000/svg">
<path d="M10.487 0.0185625C11.6867 0 12.8795 0.011 14.0709 0C14.1431 1.40319 14.6478 2.8325 15.6749 3.82456C16.6999 4.84138 18.1499 5.30681 19.5606 5.46425V9.15544C18.2386 9.11213 16.9103 8.83713 15.7106 8.26788C15.1881 8.03138 14.7014 7.72681 14.2249 7.41538C14.2188 10.0939 14.2359 12.7689 14.2078 15.4364C14.1363 16.7179 13.7134 17.9933 12.9682 19.0493C11.7692 20.8072 9.68813 21.9532 7.55069 21.989C6.23963 22.0639 4.92994 21.7064 3.81276 21.0478C1.96132 19.9561 0.658506 17.9575 0.468756 15.8125C0.446756 15.3539 0.439194 14.8961 0.457756 14.4485C0.622756 12.7043 1.48557 11.0358 2.82482 9.90069C4.34282 8.57863 6.46926 7.94888 8.46026 8.3215C8.47882 9.67931 8.42451 11.0358 8.42451 12.3936C7.51494 12.0993 6.45207 12.1818 5.65732 12.7339C5.07707 13.1099 4.63638 13.6861 4.40676 14.3378C4.21701 14.8026 4.27132 15.3189 4.28232 15.8125C4.50026 17.3167 5.94676 18.5811 7.49088 18.4442C8.51457 18.4332 9.49563 17.8393 10.0291 16.9696C10.2017 16.665 10.3949 16.3536 10.4052 15.9954C10.4953 14.3557 10.4595 12.7229 10.4705 11.0832C10.4781 7.38788 10.4595 3.70287 10.4877 0.01925L10.487 0.0185625Z" fill="black"/>
</svg>
