<svg width="26" height="26" viewBox="0 0 26 26" fill="none" xmlns="http://www.w3.org/2000/svg">
<path d="M18.7853 5.91496C18.5282 5.91496 18.2769 5.9912 18.0631 6.13405C17.8493 6.2769 17.6827 6.47993 17.5843 6.71747C17.4859 6.95502 17.4601 7.2164 17.5103 7.46858C17.5605 7.72075 17.6843 7.95239 17.8661 8.1342C18.0479 8.31601 18.2795 8.43982 18.5317 8.48998C18.7839 8.54014 19.0453 8.5144 19.2828 8.416C19.5204 8.31761 19.7234 8.15098 19.8662 7.9372C20.0091 7.72342 20.0853 7.47208 20.0853 7.21496C20.0853 6.87018 19.9484 6.53952 19.7046 6.29572C19.4608 6.05192 19.1301 5.91496 18.7853 5.91496V5.91496ZM23.7687 8.53663C23.7476 7.63778 23.5792 6.74848 23.2703 5.90413C22.9949 5.18169 22.5661 4.52751 22.0137 3.98663C21.4772 3.43134 20.8215 3.00532 20.0962 2.74079C19.254 2.42247 18.3637 2.25027 17.4637 2.23163C16.3153 2.16663 15.947 2.16663 13.0003 2.16663C10.0537 2.16663 9.68533 2.16663 8.53699 2.23163C7.63691 2.25027 6.74661 2.42247 5.90449 2.74079C5.18048 3.008 4.52534 3.43365 3.98699 3.98663C3.4317 4.52307 3.00568 5.17877 2.74116 5.90413C2.42283 6.74625 2.25064 7.63654 2.23199 8.53663C2.16699 9.68496 2.16699 10.0533 2.16699 13C2.16699 15.9466 2.16699 16.315 2.23199 17.4633C2.25064 18.3634 2.42283 19.2537 2.74116 20.0958C3.00568 20.8211 3.4317 21.4769 3.98699 22.0133C4.52534 22.5663 5.18048 22.9919 5.90449 23.2591C6.74661 23.5775 7.63691 23.7496 8.53699 23.7683C9.68533 23.8333 10.0537 23.8333 13.0003 23.8333C15.947 23.8333 16.3153 23.8333 17.4637 23.7683C18.3637 23.7496 19.254 23.5775 20.0962 23.2591C20.8215 22.9946 21.4772 22.5686 22.0137 22.0133C22.5686 21.4744 22.9977 20.8197 23.2703 20.0958C23.5792 19.2514 23.7476 18.3621 23.7687 17.4633C23.7687 16.315 23.8337 15.9466 23.8337 13C23.8337 10.0533 23.8337 9.68496 23.7687 8.53663V8.53663ZM21.8187 17.3333C21.8108 18.021 21.6862 18.7023 21.4503 19.3483C21.2774 19.8198 20.9995 20.2458 20.6378 20.5941C20.2864 20.9522 19.8613 21.2294 19.392 21.4066C18.746 21.6425 18.0647 21.7671 17.377 21.775C16.2937 21.8291 15.8928 21.84 13.0437 21.84C10.1945 21.84 9.79366 21.84 8.71033 21.775C7.99629 21.7883 7.2853 21.6784 6.60866 21.45C6.15992 21.2637 5.75429 20.9871 5.41699 20.6375C5.05742 20.2894 4.78307 19.8631 4.61533 19.3916C4.35084 18.7364 4.20414 18.0396 4.18199 17.3333C4.18199 16.25 4.11699 15.8491 4.11699 13C4.11699 10.1508 4.11699 9.74996 4.18199 8.66663C4.18685 7.9636 4.31519 7.2669 4.56116 6.60829C4.75188 6.15103 5.04461 5.74342 5.41699 5.41663C5.74612 5.04414 6.15289 4.74831 6.60866 4.54996C7.26901 4.31167 7.96499 4.18713 8.66699 4.18163C9.75033 4.18163 10.1512 4.11663 13.0003 4.11663C15.8495 4.11663 16.2503 4.11663 17.3337 4.18163C18.0213 4.18951 18.7027 4.31406 19.3487 4.54996C19.841 4.73267 20.2828 5.02971 20.6378 5.41663C20.9928 5.7494 21.2702 6.15625 21.4503 6.60829C21.6911 7.26797 21.8157 7.96439 21.8187 8.66663C21.8728 9.74996 21.8837 10.1508 21.8837 13C21.8837 15.8491 21.8728 16.25 21.8187 17.3333ZM13.0003 7.44246C11.9016 7.4446 10.8282 7.77236 9.9157 8.38433C9.0032 8.9963 8.29257 9.86501 7.8736 10.8807C7.45462 11.8964 7.34611 13.0135 7.56177 14.0908C7.77743 15.1681 8.30758 16.1574 9.08524 16.9335C9.8629 17.7097 10.8532 18.2379 11.9309 18.4515C13.0087 18.665 14.1255 18.5543 15.1404 18.1334C16.1553 17.7124 17.0226 17.0001 17.6328 16.0864C18.243 15.1727 18.5687 14.0987 18.5687 13C18.5701 12.2688 18.427 11.5446 18.1475 10.869C17.868 10.1934 17.4578 9.57967 16.9403 9.06318C16.4228 8.54669 15.8083 8.13761 15.1321 7.85947C14.4559 7.58132 13.7315 7.4396 13.0003 7.44246V7.44246ZM13.0003 16.6075C12.2868 16.6075 11.5894 16.3959 10.9961 15.9995C10.4029 15.6031 9.94047 15.0397 9.66743 14.3805C9.39439 13.7213 9.32295 12.996 9.46214 12.2962C9.60134 11.5964 9.94492 10.9536 10.4494 10.4491C10.954 9.94455 11.5968 9.60097 12.2965 9.46178C12.9963 9.32258 13.7217 9.39402 14.3809 9.66706C15.04 9.94011 15.6035 10.4025 15.9999 10.9957C16.3963 11.589 16.6078 12.2865 16.6078 13C16.6078 13.4737 16.5145 13.9428 16.3332 14.3805C16.1519 14.8182 15.8862 15.2159 15.5512 15.5508C15.2162 15.8858 14.8185 16.1516 14.3809 16.3329C13.9432 16.5141 13.4741 16.6075 13.0003 16.6075V16.6075Z" fill="black"/>
</svg>
