<svg width="14" height="23" viewBox="0 0 14 23" fill="none" xmlns="http://www.w3.org/2000/svg">
<path d="M13.5417 1.22911C13.5417 1.06887 13.478 0.915202 13.3647 0.801899C13.2514 0.688596 13.0977 0.624943 12.9375 0.624943H9.91667C8.39552 0.549169 6.90622 1.07854 5.77416 2.09739C4.64211 3.11625 3.95932 4.54175 3.875 6.06244V9.32494H0.854167C0.693932 9.32494 0.54026 9.3886 0.426956 9.5019C0.313653 9.6152 0.25 9.76887 0.25 9.92911V13.0708C0.25 13.231 0.313653 13.3847 0.426956 13.498C0.54026 13.6113 0.693932 13.6749 0.854167 13.6749H3.875V21.7708C3.875 21.931 3.93865 22.0847 4.05196 22.198C4.16526 22.3113 4.31893 22.3749 4.47917 22.3749H8.10417C8.2644 22.3749 8.41807 22.3113 8.53138 22.198C8.64468 22.0847 8.70833 21.931 8.70833 21.7708V13.6749H11.8742C12.0085 13.6769 12.1397 13.634 12.2469 13.553C12.3541 13.472 12.4313 13.3576 12.4662 13.2279L13.3362 10.0862C13.3603 9.99692 13.3635 9.90333 13.3457 9.81261C13.3279 9.7219 13.2895 9.63649 13.2334 9.56295C13.1774 9.48941 13.1053 9.42971 13.0225 9.38845C12.9398 9.34719 12.8487 9.32546 12.7562 9.32494H8.70833V6.06244C8.73839 5.76335 8.87885 5.4862 9.10228 5.28511C9.32571 5.08402 9.61607 4.97344 9.91667 4.97494H12.9375C13.0977 4.97494 13.2514 4.91129 13.3647 4.79799C13.478 4.68468 13.5417 4.53101 13.5417 4.37078V1.22911Z" fill="black"/>
</svg>
