<svg width="23" height="24" viewBox="0 0 23 24" fill="none" xmlns="http://www.w3.org/2000/svg">
<path d="M6.55859 14.0524L4.8125 6.64978H19.1748C19.9154 6.64978 20.458 7.27399 20.2782 7.91965L18.7449 13.4282C18.5117 14.2649 17.7199 14.88 16.7644 14.9658L9.01109 15.6625C7.85537 15.7657 6.79861 15.072 6.55859 14.0524V14.0524Z" stroke="#C3937C" stroke-width="1.5" stroke-linecap="round" stroke-linejoin="round"/>
<path d="M4.8118 6.64933L4.07241 3.58447H2.11133" stroke="#C3937C" stroke-width="1.5" stroke-linecap="round" stroke-linejoin="round"/>
<path d="M16.3432 18.6687C15.8671 18.6687 15.4807 19.0552 15.4854 19.5312C15.4854 20.0072 15.8719 20.3937 16.3479 20.3937C16.8239 20.3937 17.2104 20.0072 17.2104 19.5312C17.208 19.0552 16.8215 18.6687 16.3432 18.6687Z" stroke="#C3937C" stroke-width="1.5" stroke-linecap="round" stroke-linejoin="round"/>
<path d="M8.28086 18.6687C7.80419 18.6687 7.4172 19.0546 7.42192 19.53C7.4172 20.0078 7.80655 20.3937 8.28322 20.3937C8.75988 20.3937 9.14687 20.0078 9.14687 19.5324C9.14687 19.0547 8.75988 18.6687 8.28086 18.6687Z" stroke="#C3937C" stroke-width="1.5" stroke-linecap="round" stroke-linejoin="round"/>
</svg>
