<svg width="17" height="15" viewBox="0 0 17 15" fill="none" xmlns="http://www.w3.org/2000/svg">
<path fill-rule="evenodd" clip-rule="evenodd" d="M7.117 0H7.15H9.23372H9.26672C10.3589 -5.60284e-06 11.2244 -1.01328e-05 11.922 0.0569878C12.6354 0.115274 13.239 0.236882 13.7902 0.517719C14.6839 0.973118 15.4106 1.69978 15.866 2.59355C16.1468 3.14472 16.2684 3.74835 16.3267 4.46173C16.3837 5.15935 16.3837 6.02485 16.3837 7.11698V7.15V7.74535V7.77837C16.3837 8.8705 16.3837 9.736 16.3267 10.4336C16.2684 11.147 16.1468 11.7506 15.866 12.3018C15.4106 13.1956 14.6839 13.9222 13.7902 14.3776C13.239 14.6585 12.6354 14.7801 11.922 14.8384C11.2244 14.8954 10.3589 14.8954 9.26676 14.8953H9.26675H9.26674H9.23372H7.15H7.11698H7.11696H7.11695C6.02483 14.8954 5.15934 14.8954 4.46173 14.8384C3.74834 14.7801 3.14472 14.6585 2.59355 14.3776C1.69978 13.9222 0.973118 13.1956 0.517719 12.3018C0.236882 11.7506 0.115274 11.147 0.0569878 10.4336C-1.00434e-05 9.73599 -5.60285e-06 8.87049 0 7.77835V7.77835V7.74535V7.15V7.117V7.11699C-5.60285e-06 6.02485 -1.0043e-05 5.15935 0.0569878 4.46173C0.115274 3.74834 0.236882 3.14472 0.517719 2.59355C0.973118 1.69978 1.69978 0.973118 2.59355 0.517719C3.14472 0.236882 3.74835 0.115274 4.46173 0.0569878C5.15936 -1.00434e-05 6.02485 -5.60285e-06 7.11699 0H7.117ZM4.58388 1.55201C3.96325 1.60271 3.579 1.69909 3.27453 1.85423C2.663 2.16582 2.16582 2.663 1.85423 3.27453C1.78792 3.40468 1.73234 3.5494 1.68648 3.72093H14.6972C14.6514 3.5494 14.5958 3.40468 14.5295 3.27453C14.2179 2.663 13.7207 2.16582 13.1092 1.85423C12.8047 1.69909 12.4205 1.60271 11.7998 1.55201C11.1705 1.50058 10.3662 1.5 9.23372 1.5H7.15C6.01752 1.5 5.21327 1.50058 4.58388 1.55201ZM1.5 7.15C1.5 6.36695 1.50028 5.74083 1.51745 5.22093H14.8663C14.8834 5.74083 14.8837 6.36695 14.8837 7.15V7.74535C14.8837 8.87783 14.8831 9.68208 14.8317 10.3115C14.781 10.9321 14.6846 11.3163 14.5295 11.6208C14.2179 12.2323 13.7207 12.7295 13.1092 13.0411C12.8047 13.1963 12.4205 13.2926 11.7998 13.3433C11.1705 13.3948 10.3662 13.3953 9.23372 13.3953H7.15C6.01752 13.3953 5.21326 13.3948 4.58388 13.3433C3.96325 13.2926 3.579 13.1963 3.27453 13.0411C2.663 12.7295 2.16582 12.2323 1.85423 11.6208C1.69909 11.3163 1.60271 10.9321 1.55201 10.3115C1.50058 9.68208 1.5 8.87783 1.5 7.74535V7.15ZM3.72665 6.69767C3.31244 6.69767 2.97665 7.03346 2.97665 7.44767C2.97665 7.86189 3.31244 8.19767 3.72665 8.19767H6.7034C7.11761 8.19767 7.4534 7.86189 7.4534 7.44767C7.4534 7.03346 7.11761 6.69767 6.7034 6.69767H3.72665Z" fill="white"/>
</svg>
