<svg width="16" height="16" viewBox="0 0 16 16" fill="none" xmlns="http://www.w3.org/2000/svg">
<path d="M15.2258 12.5727V7.66674C15.2258 7.19424 15.2254 6.95786 15.1667 6.73799C15.1147 6.54314 15.0293 6.35875 14.9138 6.19213C14.7834 6.00411 14.6022 5.84819 14.239 5.53704L9.90348 1.82305C9.22912 1.24536 8.89194 0.956664 8.51247 0.846799C8.17811 0.749992 7.82171 0.749992 7.48735 0.846799C7.10817 0.956581 6.77148 1.24501 6.09813 1.82182L1.76121 5.53704C1.398 5.84819 1.21681 6.00411 1.08644 6.19213C0.970909 6.35875 0.884882 6.54314 0.832877 6.73799C0.774194 6.95786 0.774194 7.19424 0.774194 7.66674V12.5727C0.774194 13.3967 0.774194 13.8086 0.911701 14.1336C1.09505 14.567 1.44648 14.9117 1.88911 15.0912C2.22109 15.2258 2.64194 15.2258 3.48364 15.2258C4.32534 15.2258 4.74666 15.2258 5.07863 15.0912C5.52126 14.9117 5.8726 14.567 6.05595 14.1337C6.19346 13.8087 6.19355 13.3967 6.19355 12.5726V11.6883C6.19355 10.7116 7.00232 9.91977 8 9.91977C8.99768 9.91977 9.80645 10.7116 9.80645 11.6883V12.5726C9.80645 13.3967 9.80645 13.8087 9.94396 14.1337C10.1273 14.567 10.4787 14.9117 10.9214 15.0912C11.2533 15.2258 11.6742 15.2258 12.5159 15.2258C13.3576 15.2258 13.7789 15.2258 14.1109 15.0912C14.5535 14.9117 14.9049 14.567 15.0882 14.1336C15.2257 13.8086 15.2258 13.3967 15.2258 12.5727Z" stroke="#6B7280" stroke-width="1.5" stroke-linecap="round" stroke-linejoin="round"/>
</svg>
