<svg width="18" height="18" viewBox="0 0 18 18" fill="none" xmlns="http://www.w3.org/2000/svg">
<path d="M7.5 12.375L9.75 13.125C9.75 13.125 15.375 12 16.125 12C16.875 12 16.875 12.75 16.125 13.5C15.375 14.25 12.75 16.5 10.5 16.5C8.25 16.5 6.75 15.375 5.25 15.375C3.75 15.375 1.5 15.375 1.5 15.375" stroke="#9D9D9D" stroke-width="1.5" stroke-linecap="round" stroke-linejoin="round"/>
<path d="M1.5 10.875C2.25 10.125 3.75 9 5.25 9C6.75 9 10.3125 10.5 10.875 11.25C11.4375 12 9.75 13.125 9.75 13.125" stroke="#9D9D9D" stroke-width="1.5" stroke-linecap="round" stroke-linejoin="round"/>
<path d="M6 6.75V3.75C6 3.33579 6.33578 3 6.75 3H15.75C16.1642 3 16.5 3.33579 16.5 3.75V9.75" stroke="#9D9D9D" stroke-width="1.5" stroke-linecap="round" stroke-linejoin="round"/>
<path d="M13.125 3H9.375V6.375H13.125V3Z" stroke="#9D9D9D" stroke-width="1.5" stroke-linecap="round" stroke-linejoin="round"/>
</svg>
