<svg width="16" height="16" viewBox="0 0 16 16" fill="none" xmlns="http://www.w3.org/2000/svg">
<path d="M13.5306 6.53025L8.5306 11.5302C8.46092 11.6002 8.37813 11.6556 8.28696 11.6935C8.1958 11.7314 8.09806 11.7508 7.99935 11.7508C7.90064 11.7508 7.8029 11.7314 7.71173 11.6935C7.62057 11.6556 7.53778 11.6002 7.4681 11.5302L2.4681 6.53025C2.3272 6.38935 2.24805 6.19825 2.24805 5.999C2.24805 5.79974 2.3272 5.60864 2.4681 5.46775C2.60899 5.32685 2.80009 5.2477 2.99935 5.2477C3.19861 5.2477 3.3897 5.32685 3.5306 5.46775L7.99997 9.93712L12.4693 5.46712C12.6102 5.32623 12.8013 5.24707 13.0006 5.24707C13.1999 5.24707 13.391 5.32623 13.5318 5.46712C13.6727 5.60802 13.7519 5.79911 13.7519 5.99837C13.7519 6.19763 13.6727 6.38873 13.5318 6.52962L13.5306 6.53025Z" fill="#C3937C"/>
</svg>
