<svg width="90" height="83" viewBox="0 0 90 83" fill="none" xmlns="http://www.w3.org/2000/svg">
<path d="M85.3416 82.1153C85.4107 81.8027 85.4314 81.724 85.4748 81.5277C92.1733 51.2265 72.9607 21.1221 42.6471 14.4208C31.7937 12.0058 20.4673 12.8767 10.1121 16.9224C8.0082 17.7443 2.67352 19.411 2.67352 19.411C14.8828 12.5876 29.1771 10.4923 42.8338 13.5243C73.6384 20.3341 93.1657 50.9294 86.3579 81.7246C86.3146 81.9204 86.2704 82.1157 86.2252 82.3106C86.0263 83.1683 85.0758 82.5483 85.3416 82.1153Z" fill="black"/>
<path d="M65.0931 47.3041C64.9044 46.0951 64.9821 44.8384 65.9132 43.9655C66.7134 43.2095 67.7989 42.8544 68.8736 42.7411C71.3794 42.4754 73.7135 43.4832 75.7512 44.8599C78.6241 46.8066 82.6643 52.6869 82.6333 52.7751C83.3403 52.9675 83.9834 52.6998 84.6757 52.9512C84.9794 53.0609 84.9285 54.0333 84.6247 53.9236C82.4157 53.1094 80.1004 52.6197 77.751 52.4696C75.5579 52.3373 73.3646 52.7033 71.1791 52.5218C68.1467 52.2613 65.578 50.4376 65.0931 47.3041ZM66.9001 50.0512C66.9042 50.0407 66.9106 50.0312 66.919 50.0236C66.9273 50.016 66.9373 50.0104 66.9481 50.0073C66.9589 50.0041 66.9704 50.0035 66.9815 50.0055C66.9926 50.0074 67.0031 50.0119 67.0122 50.0186C69.2471 51.8242 72.0038 51.5139 74.6658 51.2908C74.104 51.2355 73.5467 51.1598 72.989 51.0562C70.4397 50.5741 68.0077 49.6033 65.8272 48.1975C65.8842 48.3626 65.9474 48.529 66.0199 48.691C66.2406 49.1855 66.5353 49.6437 66.8938 50.0498L66.9001 50.0512ZM79.1762 49.5173C79.265 49.6101 79.3533 49.7051 79.4412 49.8021C79.3852 49.7143 79.3269 49.6293 79.269 49.5427C79.2598 49.5473 79.2496 49.5494 79.2394 49.5489C79.2291 49.5483 79.2192 49.5452 79.2106 49.5396L79.1762 49.5173ZM80.8828 51.5979C80.7844 51.553 80.6837 51.5132 80.5811 51.4788C80.7422 51.5734 80.9021 51.6661 81.0595 51.7632C80.9995 51.7155 80.9407 51.655 80.8828 51.5979ZM80.4695 51.2934C80.4695 51.2934 80.4617 51.2917 80.457 51.2907L80.4695 51.2934ZM80.436 51.1336C80.3908 51.0859 80.3463 51.035 80.3045 50.9865L80.3696 51.1074C80.3845 51.114 80.4085 51.1242 80.4313 51.1325L80.436 51.1336ZM80.2798 51.2466L80.2626 51.2133C80.122 51.1592 79.983 51.1056 79.8417 51.0546C79.9411 51.1094 80.0424 51.163 80.134 51.216C80.1844 51.2255 80.2298 51.2355 80.2751 51.2455L80.2798 51.2466ZM80.1649 51.0245C80.0697 50.8395 79.9704 50.6651 79.8684 50.4884L79.8408 50.4577C79.4275 49.98 78.9821 49.5309 78.5077 49.1137C74.6294 46.8562 70.2907 45.5047 65.8163 45.1605C65.7906 45.2171 65.7685 45.2729 65.7456 45.3318C68.674 46.2165 71.5479 47.2723 74.3526 48.4936C75.9316 49.1705 77.5419 49.8544 79.0867 50.6566C79.442 50.763 79.8017 50.8868 80.1571 51.0227L80.1649 51.0245ZM79.9762 50.3942C80.2385 50.6915 80.4918 50.9852 80.7672 51.2674C80.8513 51.3024 80.9365 51.3327 81.0203 51.3693C81.0322 51.3754 81.0421 51.3849 81.0487 51.3966C81.0554 51.4082 81.0584 51.4216 81.0576 51.435C81.0567 51.4484 81.0519 51.4613 81.0438 51.472C81.0358 51.4827 81.0247 51.4908 81.0121 51.4954C81.1075 51.5413 81.2002 51.593 81.2895 51.6501C79.7867 49.6785 78.3707 47.5817 76.4682 46.0087C77.8482 47.2868 79.0285 48.7646 79.97 50.3928L79.9762 50.3942ZM80.6585 51.6926L80.6741 51.7256C80.7007 51.7315 80.7258 51.737 80.7523 51.7429C80.7157 51.7233 80.6837 51.7047 80.6532 51.6865L80.6585 51.6926ZM80.4337 51.5593C80.316 51.4907 80.1987 51.4205 80.0788 51.3546C79.5256 51.268 78.964 51.2479 78.406 51.2947C79.1095 51.3711 79.8066 51.4978 80.492 51.6739L80.4337 51.5593ZM65.7747 48.0121C65.7815 48.0108 65.7884 48.0109 65.7951 48.0123C65.8019 48.0138 65.8082 48.0167 65.8138 48.0208C68.4182 49.7196 71.3831 50.7877 74.4728 51.14C74.9339 51.1911 75.3918 51.212 75.8477 51.2193C76.2986 51.1977 76.7464 51.1901 77.1878 51.2041C77.7856 51.1854 78.3836 51.1586 78.9882 51.1463C79.2361 51.1408 79.484 51.1485 79.731 51.1695C79.4911 51.0378 79.2478 50.907 78.9968 50.781C76.8655 50.1098 74.6535 49.7438 72.4827 49.177C70.0526 48.5365 67.7762 47.4677 65.528 46.3756C65.5148 46.9288 65.5965 47.4803 65.7695 48.0061L65.7747 48.0121ZM65.5532 46.2172C68.1325 47.4661 70.711 48.6148 73.5177 49.273C75.1081 49.6459 76.7088 49.9653 78.2737 50.4096C77.0918 49.8205 75.8656 49.2986 74.6647 48.7806C71.7468 47.4936 68.753 46.3861 65.6999 45.4643C65.6216 45.7068 65.5707 45.9573 65.5479 46.2111L65.5532 46.2172ZM65.8793 45.0236C70.1153 45.3583 74.2312 46.5929 77.952 48.645C77.5481 48.3131 77.1294 47.9959 76.6894 47.6789C73.9318 45.6709 70.9655 43.8282 67.4843 43.58C66.7892 43.8452 66.216 44.3569 65.8741 45.0176L65.8793 45.0236ZM67.7982 43.4657C70.6399 43.7431 73.1411 45.0485 75.4886 46.6413C76.593 47.3953 77.7233 48.1731 78.7233 49.0729C78.8629 49.154 79.0014 49.2393 79.1391 49.3287C77.9727 47.6119 76.5277 46.1017 74.8638 44.8605C72.7584 43.5524 70.163 42.6803 67.793 43.4597L67.7982 43.4657ZM81.2304 52.0436C81.0767 51.9966 80.9228 51.9511 80.7678 51.9102C80.8397 52.0671 80.9117 52.224 80.9813 52.3837C81.3394 52.4628 81.4011 52.4584 81.7653 52.5472C81.6093 52.3534 81.4276 52.182 81.2251 52.0376L81.2304 52.0436ZM71.8915 52.0662C74.1064 52.1443 76.3006 51.8342 78.5191 52.0296C79.2855 52.0973 80.048 52.2041 80.8036 52.3493C80.7331 52.1862 80.6606 52.0242 80.5831 51.8628C78.0233 51.2232 75.5504 51.4438 72.8345 51.5992C70.7816 51.7159 68.7525 51.5165 67.078 50.2479C68.2877 51.4826 70.0343 51.9949 71.8863 52.0601L71.8915 52.0662Z" fill="black"/>
<path d="M84.5057 53.5939C84.7565 52.2296 85.0758 50.8739 85.4265 49.5251C85.3956 49.4967 85.3736 49.4599 85.363 49.4193C84.3713 45.7441 82.4919 42.2711 82.0049 38.4649C81.6403 35.6628 82.1156 31.6726 85.093 30.4307C88.0705 29.1888 89.858 31.8234 89.9887 34.4967C90.163 38.0928 88.3016 41.3865 87.2934 44.7376C86.4072 47.6779 86.3064 51.5689 85.7502 54.597C85.6873 54.911 84.4479 53.9074 84.5057 53.5939ZM87.6764 40.6384C87.7035 41.2092 87.6916 41.7811 87.6407 42.3503C88.1323 41.054 88.6303 39.7509 88.9883 38.4283C88.5563 39.1509 88.1065 39.8875 87.6717 40.6374L87.6764 40.6384ZM86.5453 45.51C86.5592 45.4474 86.5824 45.387 86.6006 45.3271C86.8311 44.2401 86.9399 43.1309 86.9249 42.0199C86.6617 42.5355 86.4188 43.0556 86.208 43.5861C86.3735 44.2889 86.4654 45.007 86.4822 45.7288L86.5453 45.51ZM86.923 44.3212C87.0909 43.8288 87.2704 43.3357 87.4546 42.8436C87.5397 42.2862 87.5776 41.7225 87.5679 41.1587C87.5663 41.0551 87.5614 40.9507 87.5566 40.8464C87.3869 41.1466 87.2197 41.4506 87.0603 41.7564C87.0713 42.6134 87.0254 43.4703 86.923 44.3212ZM86.2688 46.4718C86.2688 46.4718 86.2712 46.4609 86.2726 46.4546C86.2822 46.4109 86.2916 46.3687 86.315 46.3296L86.3589 46.1753C86.3903 45.3595 86.3208 44.5429 86.1517 43.7442C86.11 43.8513 86.0702 43.9573 86.0316 44.0652C86.1783 45.1067 86.1897 46.1628 86.0652 47.2072L86.2688 46.4718ZM86.0934 43.5034C86.0444 43.3024 85.9903 43.1019 85.9296 42.9016C85.8915 42.7849 85.8498 42.6692 85.8095 42.5471C85.8739 42.9532 85.9368 43.3589 85.9914 43.7645C86.0236 43.6781 86.0585 43.5875 86.0948 43.4971L86.0934 43.5034ZM85.6184 48.5233C86.0639 47.1463 86.0692 45.7424 85.9315 44.3398C85.5389 45.4535 85.3555 46.6302 85.3906 47.8106C85.4704 48.043 85.5473 48.2813 85.6195 48.5186L85.6184 48.5233ZM85.6502 48.6319L85.6575 48.6581L85.6627 48.6347C85.6582 48.6335 85.6542 48.6308 85.6512 48.6272L85.6502 48.6319ZM84.7907 46.1172C84.6439 44.9043 84.5688 43.686 84.3912 42.4713C84.1049 40.5243 83.1671 38.6087 82.4001 36.7735C82.3998 36.9751 82.4002 37.1735 82.4067 37.3668C82.518 40.3948 83.7296 43.253 84.7917 46.1125L84.7907 46.1172ZM82.4099 36.4101C83.1465 38.2123 84.0602 40.0734 84.4582 41.9828C84.7696 43.5419 84.8038 45.1528 85.0242 46.7377L85.25 47.3778C85.2761 46.2282 85.4964 45.0913 85.9016 44.0151C85.8232 43.3535 85.7175 42.6891 85.6095 42.0275C85.1507 40.9424 84.5499 39.9062 84.1987 38.7646C83.5008 36.461 83.7607 34.0167 84.0954 31.6643C82.8964 32.8371 82.4741 34.7176 82.4092 36.4132L82.4099 36.4101ZM84.9463 31.0426C84.7036 31.1742 84.4758 31.3316 84.2668 31.5121C83.8108 34.836 83.7655 37.7491 85.2462 40.8815C85.3444 41.0901 85.4348 41.297 85.5232 41.5051C85.3985 40.7267 85.2834 39.9487 85.228 39.1758C85.0321 36.3133 85.2935 33.4381 86.0023 30.658C85.6326 30.7336 85.2764 30.8643 84.9456 31.0457L84.9463 31.0426ZM86.1568 30.6265C85.3531 33.7485 85.1182 36.9897 85.4635 40.1951C85.5318 40.7988 85.6261 41.4033 85.7192 42.0058C85.8885 42.4479 86.0318 42.8994 86.1485 43.3582C86.3799 42.8011 86.6403 42.2537 86.9223 41.7127C86.9202 40.5204 86.8658 39.3198 86.9196 38.1267C87.0363 35.7967 87.4441 33.4906 88.1337 31.2619C87.8759 31.0102 87.5629 30.8219 87.2196 30.7122C86.8763 30.6024 86.5122 30.5742 86.1561 30.6297L86.1568 30.6265ZM88.2527 31.3768C87.4313 34.0835 87.0224 36.8985 87.0398 39.7271C87.0426 40.3081 87.0575 40.8786 87.0602 41.4596C87.2169 41.1664 87.3783 40.8742 87.5443 40.583C87.4788 39.9468 87.4558 39.3069 87.4757 38.6677C87.5944 36.9365 88.4679 35.4852 89.3753 34.0513C89.3806 34.0426 89.3876 34.0351 89.396 34.0294C89.4043 34.0236 89.4138 34.0196 89.4237 34.0177C89.2714 33.0152 88.8753 32.0325 88.252 31.3799L88.2527 31.3768ZM89.4504 34.2089C88.1848 36.2243 87.531 37.9504 87.6664 40.3722C88.1444 39.5451 88.6432 38.7356 89.1109 37.9406C89.3537 36.9804 89.484 35.9952 89.4991 35.0049C89.499 34.7399 89.4825 34.475 89.4497 34.212L89.4504 34.2089Z" fill="black"/>
<path d="M56.9281 35.4361C55.4971 34.023 55.3141 32.4988 56.9534 31.1595C59.3337 29.2134 62.6981 30.3982 65.271 31.2604C69.0157 32.5129 72.1891 34.6948 75.2366 37.1571C75.279 37.1873 75.3084 37.2324 75.3188 37.2834C75.3291 37.3344 75.3197 37.3875 75.2923 37.4317C76.4004 37.6128 77.1582 37.1524 78.261 37.906C78.522 38.0834 78.65 39.3888 78.3847 39.2089C74.6437 36.6637 71.0184 38.3362 66.9572 38.486C63.5826 38.6089 59.4319 37.9094 56.9281 35.4361ZM64.6839 37.9228C67.7186 37.6581 70.7575 37.4342 73.8004 37.2511C71.2966 35.8386 68.3233 36.4092 65.5621 36.7693C62.9124 37.1148 60.7116 36.7873 58.2361 35.9367C59.2284 36.5211 60.2912 36.9764 61.3988 37.2917C62.4709 37.6077 63.571 37.8191 64.6839 37.9228ZM74.4927 37.1911C74.3394 37.1424 74.1865 37.0922 74.0326 37.0467C74.0286 37.0537 74.0233 37.0598 74.0169 37.0647C74.0105 37.0696 74.0032 37.0731 73.9954 37.0751C73.9876 37.077 73.9795 37.0774 73.9715 37.0761C73.9636 37.0748 73.956 37.0719 73.9492 37.0676C73.8927 37.0338 73.8371 37.0035 73.7806 36.9697C73.7241 36.9359 73.6978 36.9514 73.6555 36.942C73.7734 37.032 73.8894 37.1232 74.005 37.216C74.0222 37.2198 74.037 37.2346 74.0528 37.2446C74.2056 37.2358 74.3572 37.225 74.5085 37.2159C74.5024 37.2082 74.4971 37.1998 74.4927 37.1911ZM73.2029 36.801C73.2451 36.8103 73.2842 36.8337 73.3244 36.8524C73.3119 36.8497 73.3002 36.8356 73.2891 36.8266C73.2779 36.8176 73.2225 36.8086 73.1951 36.7993L73.2029 36.801ZM57.8462 35.6751C57.8541 35.6701 57.8631 35.667 57.8724 35.6663C57.8817 35.6655 57.8911 35.6669 57.8997 35.6706C59.4965 36.2449 61.0964 36.7904 62.8101 36.8282C64.408 36.8634 65.9884 36.5472 67.5667 36.3518C68.8035 36.1957 70.0611 36.1228 71.2682 36.2864C66.5701 35.131 61.7328 34.6422 56.8987 34.8345C57.1767 35.1512 57.4923 35.4329 57.8384 35.6734L57.8462 35.6751ZM56.7831 34.6974C62.2386 34.4673 67.6963 35.1033 72.9529 36.5818C72.9033 36.5462 72.8557 36.5095 72.8124 36.4753C71.6672 36.032 70.5277 35.5407 69.3807 35.0609C67.8251 34.5936 66.2173 34.3224 64.5945 34.2537C61.8138 34.1308 59.0461 34.4764 56.3108 33.8291C56.4134 34.143 56.5706 34.4364 56.7752 34.6957L56.7831 34.6974ZM56.2414 33.594C56.2463 33.6164 56.255 33.6364 56.2599 33.6588C59.3586 34.4127 62.509 33.8795 65.6474 34.1651C66.5569 34.2476 67.4592 34.3961 68.3472 34.6095C64.5573 33.0274 60.7062 31.6776 56.5435 32.5018C56.5322 32.5036 56.5205 32.5028 56.5095 32.4994C56.4985 32.4961 56.4884 32.4902 56.48 32.4824C56.4716 32.4745 56.4651 32.4648 56.4611 32.454C56.457 32.4432 56.4555 32.4317 56.4566 32.4202C56.2328 32.7694 56.1524 33.1915 56.2322 33.5986L56.2414 33.594ZM56.4758 32.3851C56.4758 32.3851 56.4874 32.3697 56.501 32.3678C61.0296 31.4688 65.1906 33.1231 69.2954 34.8683C70.1787 35.1286 71.0433 35.449 71.883 35.8272C67.9778 33.2091 63.5428 31.4847 58.8945 30.7771C58.8851 30.7759 58.8761 30.7726 58.8682 30.7675C58.8602 30.7623 58.8535 30.7554 58.8487 30.7473C58.8402 30.7499 58.8316 30.7518 58.8228 30.753C58.047 30.9684 56.9621 31.5729 56.4666 32.3897L56.4758 32.3851ZM59.1581 30.6829C64.0367 31.4613 68.6696 33.3563 72.695 36.2198C72.8561 36.2997 73.015 36.3824 73.1731 36.4682C73.4201 36.5605 73.6689 36.6515 73.9169 36.7391C71.1167 34.5676 68.1848 32.703 64.7601 31.6131C63.0346 31.0644 60.9845 30.3227 59.1506 30.6796L59.1581 30.6829ZM74.6819 37.3443L74.6074 37.3475L74.6985 37.3579L74.6819 37.3443ZM70.1645 37.6359C68.6536 37.7391 67.1433 37.8566 65.6337 37.9885C66.584 38.0261 67.5358 37.986 68.4796 37.8684C69.044 37.7932 69.6051 37.7107 70.1571 37.6327L70.1645 37.6359Z" fill="black"/>
<path d="M78.372 39.8225C78.1949 38.7054 78.1325 37.5732 78.1858 36.4435C78.1347 36.4174 78.0943 36.3743 78.0717 36.3215C77.3029 34.5722 76.2962 32.9372 75.0799 31.4632C74.2515 30.4325 73.4925 29.422 72.9819 28.1927C71.8986 25.5924 71.3825 21.5912 73.4391 19.2769C75.2598 17.2284 78.9939 18.2096 80.0229 20.588C81.1105 23.0876 80.1144 26.2578 79.6825 28.805C79.0847 32.3551 79.017 36.601 79.6238 40.1992C79.6758 40.5206 78.4223 40.1369 78.372 39.8225ZM76.7363 32.6212C76.7097 32.5039 76.6778 32.3886 76.649 32.274C76.278 31.4012 76.0198 30.4847 75.8808 29.5467C75.0814 27.0936 74.0063 24.739 72.6761 22.528C72.4836 23.8355 72.5618 25.1685 72.9059 26.4446C72.9193 26.4485 72.9313 26.4563 72.9403 26.467C73.96 27.696 74.8603 29.0192 75.629 30.4189C76.2012 31.4733 76.6216 32.6057 77.2383 33.6371L77.373 33.8587C77.4481 33.9786 77.5275 34.0945 77.6103 34.2096C77.5868 34.1306 77.5648 34.052 77.5451 33.9706C77.279 33.5503 77.0391 33.114 76.8268 32.6642C76.8187 32.6697 76.8093 32.6731 76.7995 32.6741C76.7897 32.6751 76.7798 32.6736 76.7707 32.6698C76.7616 32.666 76.7536 32.66 76.7474 32.6523C76.7412 32.6447 76.737 32.6356 76.7353 32.6259L76.7363 32.6212ZM78.3118 34.7532C78.0289 33.7332 77.7275 32.7075 77.4621 31.675C77.4356 32.4209 77.5072 33.1671 77.6751 33.8944C77.8669 34.2119 78.0748 34.5194 78.298 34.8157L78.3118 34.7532ZM78.281 35.0038C78.2716 35.0017 78.2638 35 78.256 34.9982C78.0967 34.7991 77.9491 34.591 77.8038 34.3802L77.856 34.5377C77.9304 34.6312 77.9981 34.733 78.0804 34.8135C78.0902 34.8243 78.0966 34.8378 78.0988 34.8522C78.101 34.8667 78.0988 34.8815 78.0925 34.8947C78.0863 34.9079 78.0762 34.9189 78.0636 34.9264C78.0511 34.9339 78.0366 34.9375 78.022 34.9367C78.0406 34.9785 78.0558 35.0212 78.0747 35.0615C78.0803 35.0752 78.0816 35.0904 78.0784 35.1049C78.0751 35.1194 78.0676 35.1326 78.0568 35.1427C78.1156 35.2623 78.1686 35.3789 78.23 35.5089L78.281 35.0038ZM75.8207 31.5991C76.0542 31.8933 76.2753 32.1914 76.4903 32.4947C76.2408 31.969 76.0012 31.4357 75.7327 30.914C74.9636 29.4425 74.047 28.0529 72.9971 26.7664C73.0811 27.0539 73.1777 27.3392 73.2868 27.6223C73.8761 29.1559 74.8133 30.3321 75.8197 31.6038L75.8207 31.5991ZM72.6982 22.3837C72.7116 22.3782 72.7267 22.3778 72.7405 22.3826C72.7542 22.3875 72.7657 22.3973 72.7727 22.41C73.9998 24.4414 75.0122 26.5949 75.7937 28.8356C75.6783 27.4805 75.7578 26.134 75.3975 24.8035C74.9938 23.306 74.0901 21.7553 73.3097 20.4188C73.1349 20.7598 72.9963 21.1182 72.8961 21.4881C72.8128 21.791 72.7468 22.0896 72.6971 22.3884L72.6982 22.3837ZM73.3863 20.28C73.3863 20.28 73.3863 20.28 73.3972 20.2824C74.629 22.3892 75.7431 24.6127 75.8602 27.0879C75.9002 28.0861 76.0138 29.08 76.2 30.0615C76.3843 30.6597 76.5474 31.2646 76.6994 31.8753C76.9047 32.4481 77.158 33.0026 77.4565 33.5329C77.3427 32.7977 77.3133 32.052 77.3689 31.3102C77.0581 30.1264 76.8439 28.9195 76.7283 27.7011C76.4737 24.6168 76.5265 21.707 75.6366 18.7068C74.582 18.8328 73.8584 19.4499 73.3852 20.2847L73.3863 20.28ZM75.8354 18.6902C75.8167 18.686 75.7967 18.6947 75.7769 18.6952C76.5565 21.3267 76.7106 23.8937 76.8111 26.6292C76.8799 28.025 77.0797 29.4112 77.408 30.7696C77.4767 29.9765 77.5835 29.1821 77.651 28.4019C77.9252 25.2475 77.9735 22.0908 77.5498 18.9478C76.9998 18.7525 76.4169 18.6671 75.834 18.6964L75.8354 18.6902ZM77.6907 19.015C78.026 21.6939 78.0916 24.3997 77.8865 27.0915C77.8021 28.3713 77.5546 29.7429 77.4699 31.098C77.7103 32.1102 77.9901 33.1148 78.2671 34.117C77.6498 29.7279 80.1049 25.5441 79.7056 21.1556C79.611 20.8723 79.4852 20.6003 79.3304 20.3448C78.9398 19.738 78.3652 19.2721 77.6907 19.015ZM79.7034 25.6538C79.895 24.4387 80.1082 23.0808 79.8792 21.8317C79.9799 25.9165 77.8629 29.8471 78.3864 33.9483C78.5302 32.7784 78.7213 31.6173 78.9001 30.4896C79.1625 28.8721 79.4556 27.2646 79.7107 25.6505L79.7034 25.6538Z" fill="black"/>
<path d="M66.6151 25.8705C66.2113 25.2189 66.6079 24.7754 66.4346 24.001C66.4065 23.982 66.3824 23.9577 66.3635 23.9295C63.9649 20.2532 59.609 17.3885 58.816 12.8146C58.2808 9.71583 60.2263 5.69321 63.9048 6.22114C67.8599 6.78889 68.2164 11.6007 67.5729 14.6603C66.8456 18.1063 65.675 22.6445 67.6924 25.8939C67.8682 26.1672 66.7846 26.1424 66.6151 25.8705ZM66.1541 21.2192C65.5994 18.9653 64.6881 16.7965 64.501 14.4747C64.3086 12.0583 64.7607 9.64986 65.221 7.2859C64.5362 6.85044 63.7231 6.66202 62.9166 6.75189C62.0866 9.41935 62.0122 12.2647 62.7018 14.9721L62.7745 15.2291C62.9854 15.5807 63.1995 15.933 63.4139 16.2837C64.5544 18.1369 65.4837 20.112 66.1846 22.1719C66.1646 21.8543 66.1562 21.536 66.1541 21.2192ZM66.2347 22.7764C65.4605 20.2691 64.2683 18.0497 62.952 15.8209C63.7444 18.2831 65.0902 20.5938 66.2503 22.8913L66.2367 22.7818L66.2347 22.7764ZM59.6817 14.1143C60.6353 16.7301 62.6406 18.721 64.4981 20.7941C63.8782 19.1538 62.998 17.624 61.8914 16.2635C60.9751 15.1412 60.0402 14.0509 59.3293 12.8002C59.4088 13.2466 59.527 13.6852 59.6824 14.1111L59.6817 14.1143ZM59.2657 12.3829C60.0607 13.921 61.2136 15.1825 62.2843 16.534C63.3856 17.925 64.1174 19.3705 64.7388 21.0112C64.742 21.019 64.7436 21.0274 64.7434 21.0358C64.7432 21.0442 64.7413 21.0525 64.7378 21.0602C65.1034 21.4689 65.4584 21.8884 65.7973 22.3141C64.632 20.0548 63.3504 17.7582 62.6534 15.3171L62.4647 14.9984C61.2666 12.999 60.2313 10.9307 60.0479 8.58508C59.3146 9.6837 59.1144 11.0493 59.2671 12.3766L59.2657 12.3829ZM60.7648 7.75334C60.5472 7.94898 60.3494 8.16553 60.1741 8.39985C60.3072 10.7655 61.332 12.8069 62.5127 14.7958L62.4527 14.5629C61.8793 11.9855 61.9855 9.30355 62.7611 6.77983C62.016 6.90084 61.3225 7.23706 60.7662 7.74708L60.7648 7.75334ZM65.3479 7.37954C64.893 9.71189 64.4509 12.0897 64.6408 14.4728C64.8121 16.6141 65.602 18.6199 66.1571 20.6788C66.1628 20.4456 66.1708 20.2162 66.1817 19.9891C65.5298 18.2643 65.2573 16.4194 65.3826 14.58C65.5079 12.7405 66.0281 10.9497 66.9079 9.3294C66.7759 9.03577 66.6187 8.75416 66.4379 8.48776C66.1477 8.05163 65.7785 7.67364 65.3493 7.37328L65.3479 7.37954ZM67.4166 11.7617C66.9691 13.3 66.7139 14.8879 66.6569 16.4891C67.0082 14.9076 67.4377 13.3057 67.418 11.7554L67.4166 11.7617ZM66.5047 17.1997C66.5011 15.2094 66.8025 13.2304 67.3985 11.3314C67.3589 10.7023 67.2188 10.0835 66.9837 9.49863C66.1621 11.0432 65.6687 12.7409 65.5346 14.4853C65.4005 16.2296 65.6284 17.9829 66.2042 19.6351C66.219 19.3974 66.2351 19.1615 66.2528 18.9327C66.3031 18.3501 66.3873 17.7709 66.5051 17.1982L66.5047 17.1997Z" fill="black"/>
<path d="M43.3453 25.997C41.9301 22.6053 45.6849 20.0728 48.6274 19.9085C53.1943 19.6525 57.6521 21.8265 61.7805 23.472C61.8201 23.4868 61.8543 23.5132 61.8786 23.5478C63.1512 23.6521 63.3708 23.3858 64.5412 23.9528C64.829 24.0902 65.6369 25.1245 65.349 24.9871C63.0711 23.8852 60.4556 23.7052 58.0485 24.4848C55.9267 25.1797 54.1289 26.6349 52.1441 27.6158C49.3526 28.9808 44.8337 29.5688 43.3453 25.997ZM46.6883 28.1016C46.8165 28.13 46.9432 28.158 47.0667 28.1853C47.0667 28.1853 47.0667 28.1853 47.0782 28.178C49.6704 27.4833 52.157 26.442 54.4705 25.0824C53.6271 25.3288 52.7888 25.5894 51.9573 25.8712C50.0935 26.5051 48.27 27.2381 46.4746 28.0446C46.5442 28.0632 46.6155 28.0823 46.6867 28.1013L46.6883 28.1016ZM57.6138 24.1067C57.7207 24.068 57.8286 24.0329 57.9367 23.9961C57.5786 23.917 57.2065 23.8347 56.8296 23.7514C56.6127 23.887 56.4074 24.022 56.2203 24.1413C55.936 24.3243 55.651 24.5056 55.3653 24.6851C56.1103 24.4804 56.8593 24.2875 57.6122 24.1064L57.6138 24.1067ZM57.7222 23.2454C58.2658 23.3527 58.8037 23.4875 59.3337 23.6492C59.4768 23.6251 59.6192 23.6041 59.7639 23.5803C59.0884 23.4753 58.4147 23.3624 57.7458 23.2276L57.7222 23.2454ZM57.5187 23.3496C57.3419 23.4449 57.1705 23.5448 57.0039 23.6456C57.4122 23.7277 57.8092 23.8237 58.1954 23.909C58.4729 23.8261 58.7551 23.759 59.0383 23.7019C58.5325 23.5639 58.0276 23.444 57.5172 23.3492L57.5187 23.3496ZM55.0438 24.737C55.451 24.4827 55.9833 24.0856 56.5677 23.7049C54.3602 23.3038 51.9042 23.2183 50.0728 24.343C48.4559 25.3365 47.3071 26.8826 45.5351 27.6352C45.7725 27.7712 46.0217 27.8856 46.2796 27.9769C49.0812 26.7091 51.9725 25.6496 54.93 24.8069C54.9647 24.7834 55.0041 24.761 55.0423 24.7366L55.0438 24.737ZM45.3877 27.5453C47.5481 26.6752 48.8545 24.4754 51.0604 23.7039C52.7798 23.1004 54.8551 23.2313 56.7414 23.5942C56.9033 23.4922 57.0661 23.3938 57.231 23.3007C55.443 22.9968 53.615 23.0147 51.8333 23.3534C49.1216 23.8754 46.6749 25.1723 44.2694 26.4685C44.2562 26.4743 44.2415 26.4757 44.2275 26.4723C44.5411 26.901 44.9345 27.2652 45.3861 27.5449L45.3877 27.5453ZM44.168 26.3854C44.17 26.3778 44.1734 26.3706 44.1782 26.3644C44.183 26.3581 44.1889 26.3529 44.1957 26.3489C46.6155 25.0477 49.0831 23.7308 51.8083 23.2069C53.6681 22.8543 55.5771 22.8489 57.439 23.191L57.4666 23.1774C57.1539 23.1083 56.8411 23.0391 56.5308 22.959C54.9121 22.5356 53.2936 21.9483 51.5989 21.9507C50.6796 22.0656 49.7584 22.2341 48.8463 22.4275C46.9972 23.0467 45.2974 24.1776 43.6959 25.2564C43.6959 25.2564 43.685 25.254 43.6787 25.2526C43.7701 25.6562 43.9343 26.0397 44.1633 26.3844L44.168 26.3854ZM55.5163 22.5331C56.2472 22.7357 56.977 22.9068 57.7112 23.0577C58.0052 22.9136 58.3146 22.8033 58.6335 22.7288C58.0619 22.5024 57.4893 22.2807 56.9131 22.0681C55.4368 21.7741 53.9246 21.704 52.4275 21.8601C53.4707 21.9987 54.5006 22.2231 55.5069 22.531L55.5163 22.5331ZM43.6466 25.116C44.978 24.2201 46.3783 23.2869 47.8789 22.6416C46.4685 22.9675 45.0881 23.3362 43.7795 23.6469C43.7658 23.6487 43.752 23.6456 43.7404 23.6383C43.5865 24.1144 43.5511 24.6209 43.6372 25.1139L43.6466 25.116ZM43.7857 23.5073C45.3583 23.1303 47.0379 22.677 48.7526 22.3101C49.5086 22.0452 50.2969 21.8831 51.0962 21.8281C51.2623 21.819 51.4269 21.816 51.5905 21.8178C53.0898 21.6072 54.6104 21.5971 56.1124 21.7878C55.6981 21.6438 55.2821 21.5075 54.8644 21.3791C54.8611 21.3913 54.8536 21.4019 54.8434 21.4092C54.8331 21.4165 54.8206 21.42 54.808 21.4191C51.4043 21.3766 48.0028 21.3689 44.6632 22.1274C44.6632 22.1274 44.6491 22.1243 44.6428 22.1229C44.4014 22.3849 44.1924 22.675 44.0205 22.987C43.9276 23.1512 43.8466 23.3217 43.7781 23.4974L43.7857 23.5073ZM49.8304 20.4171C48.0337 20.3167 46.0814 20.69 44.7986 21.9524C47.9982 21.2564 51.256 21.2389 54.5162 21.2776C52.9928 20.8072 51.42 20.515 49.8293 20.407L49.8304 20.4171ZM58.9162 22.8519C58.6016 22.904 58.295 22.9966 58.0041 23.1274C58.7769 23.2818 59.5542 23.4159 60.3383 23.5417C60.4232 23.5359 60.5043 23.5325 60.5916 23.5305C60.0299 23.297 59.469 23.067 58.9089 22.8405L58.9162 22.8519ZM56.743 24.4847C56.5818 24.5163 56.4505 24.5463 56.3988 24.5578C55.9227 24.6788 55.4479 24.8083 54.9741 24.9413C54.4037 25.2955 53.8264 25.6368 53.2289 25.9506C51.369 26.917 49.4126 27.6852 47.3919 28.2424C50.812 28.6559 53.7718 25.869 56.7357 24.4733L56.743 24.4847Z" fill="black"/>
<path d="M53.7833 17.8859C53.3552 17.1142 53.8813 16.8862 53.6502 16.0843C53.6172 16.103 53.5797 16.1124 53.5418 16.1115C53.5039 16.1107 53.4669 16.0995 53.4348 16.0793C50.5006 14.4175 48.3047 11.709 47.4331 8.43253C46.8661 6.3087 46.3295 1.60623 48.7566 0.331211C51.9283 -1.33663 53.6183 3.72737 53.8172 5.89932C54.2066 10.184 52.8133 14.15 55.0396 18.1752C55.2024 18.4554 53.9332 18.165 53.7833 17.8859ZM53.4617 15.3344C53.2669 15.1372 53.0807 14.9359 52.9031 14.7305L52.963 14.8749C53.0386 15.0376 53.1216 15.2035 53.2128 15.3695C53.3109 15.4306 53.4096 15.4884 53.5099 15.5467L53.4617 15.3344ZM53.1671 13.1724C52.9664 12.8264 52.7495 12.4948 52.5311 12.1695C52.4257 12.8807 52.493 13.6069 52.7273 14.2867L52.7353 14.3098C52.9465 14.5713 53.1707 14.8258 53.4048 15.0726C53.2831 14.4452 53.2037 13.8104 53.1671 13.1724ZM52.3783 11.9406C52.1815 11.6512 51.9894 11.3628 51.8072 11.0668C51.9113 11.7333 52.0688 12.3903 52.2782 13.0317C52.2742 12.9022 52.2771 12.7726 52.2869 12.6434C52.3073 12.4102 52.3393 12.1763 52.3776 11.9437L52.3783 11.9406ZM48.0104 8.65522C48.4952 10.2542 49.3147 11.7318 50.4143 12.9901C49.1843 9.85905 48.5273 6.42839 47.6583 3.20004C47.5902 3.6342 47.5553 4.07404 47.5286 4.46162C47.4363 5.87702 47.5995 7.2975 48.0104 8.65522ZM48.0675 1.84615C47.8897 2.20785 47.7663 2.59377 47.7011 2.99146C47.7164 2.98814 47.7324 2.99103 47.7456 2.99947C47.7588 3.00792 47.7681 3.02125 47.7715 3.03654C48.6791 6.42424 49.3523 10.0339 50.6881 13.2949C51.1947 13.8386 51.7497 14.335 52.3464 14.778C48.816 11.1023 48.5747 5.6798 49.1485 0.791621C48.6764 1.00674 48.2942 1.37964 48.0675 1.84615ZM49.2956 0.742158C48.6899 5.81181 48.94 11.4838 52.9185 15.1504C52.7689 14.8724 52.6386 14.5845 52.5284 14.2887C51.0748 12.4496 50.1816 10.2312 49.9554 7.89845C49.7291 5.56573 50.1795 3.21732 51.2526 1.13379C50.6307 0.660233 49.9208 0.532815 49.2956 0.742158ZM51.5139 1.33911C51.4664 1.29419 51.416 1.25519 51.3675 1.21495C50.3434 3.21302 49.8978 5.45731 50.0809 7.69507C50.264 9.93284 51.0684 12.0752 52.4037 13.8808C52.3943 13.8492 52.3903 13.8155 52.3824 13.7842C52.0084 12.8089 51.7536 11.792 51.6234 10.7556C51.1968 10.0548 50.9228 9.2719 50.8192 8.45808C50.5788 6.25891 51.3763 4.13509 52.1794 2.12726C51.9851 1.84248 51.7621 1.57837 51.5139 1.33911ZM52.2931 2.26552C51.4117 4.47242 50.5348 6.88855 51.1211 9.28878C51.2302 9.72622 51.3943 10.1481 51.6094 10.5443C51.6019 10.4525 51.5873 10.3624 51.5832 10.2697C51.471 8.2251 52.2012 6.32411 53.1338 4.54655C53.1377 4.5391 53.1431 4.53252 53.1496 4.5272C53.1561 4.52188 53.1637 4.51794 53.1718 4.51561C53.0206 3.71597 52.7199 2.952 52.2853 2.26379L52.2931 2.26552ZM53.2078 4.70882C52.2378 6.5814 51.5143 8.58552 51.7649 10.7312L51.7818 10.848C51.9749 11.176 52.19 11.494 52.4096 11.8065C52.6227 10.5831 53.0377 9.34362 53.3762 8.17577C53.4484 7.01662 53.3893 5.85301 53.2 4.7071L53.2078 4.70882ZM53.3306 8.83457C53.0504 9.83498 52.7767 10.8434 52.5832 11.8597C52.5707 11.9159 52.5691 11.968 52.5611 12.0187C52.7666 12.3134 52.9735 12.6017 53.1646 12.9095C53.1348 12.1574 53.1469 11.4043 53.2008 10.6535C53.2302 10.0829 53.2824 9.4682 53.3228 8.83284L53.3306 8.83457Z" fill="black"/>
<path d="M45.0806 14.7341C44.4941 14.2487 44.9695 13.9456 44.4715 13.3716C44.4376 13.3705 44.4042 13.3631 44.373 13.3498C42.4705 12.4876 40.6429 11.4688 38.9091 10.3041C37.7694 9.52425 36.6695 8.62369 36.0783 7.34375C35.2466 5.54176 35.2903 2.00533 37.513 1.13595C40.0248 0.160006 41.4538 3.05144 41.72 5.03007C42.0223 7.2757 42.5418 9.31034 43.5389 11.121C43.8998 11.4848 44.1779 11.922 44.3544 12.403C44.9543 13.2195 45.6531 13.9588 46.4346 14.6039C46.6806 14.8042 45.3259 14.9376 45.0806 14.7341ZM40.4129 9.06593C40.302 9.00371 40.1866 8.94705 40.0734 8.88761C40.4054 9.32686 40.7643 9.74513 41.148 10.14L41.196 10.1752C41.0249 9.87341 40.8738 9.56294 40.7323 9.25297C40.6251 9.18172 40.5147 9.12452 40.4129 9.06593ZM36.5922 7.25242C36.6148 7.29841 36.6393 7.34317 36.6639 7.38795C36.6743 7.3843 36.6855 7.38362 36.6963 7.386C36.7071 7.38839 36.7169 7.39372 36.7248 7.40142C38.2269 8.96798 40.1664 9.96562 41.9007 11.231C41.7751 11.0573 41.6396 10.8766 41.527 10.6959C41.3707 10.5499 41.2178 10.403 41.0695 10.2505C40.245 9.6576 39.4831 8.98214 38.7958 8.23466C38.0641 7.89421 37.3287 7.57098 36.5922 7.25242ZM38.5337 7.95868C37.5529 6.83469 36.7444 5.57141 36.1347 4.21013C35.9822 5.17546 36.1102 6.16431 36.5037 7.05907C37.1816 7.35321 37.8611 7.64769 38.5337 7.95868ZM43.1087 11.4866C42.6409 11.2529 42.1855 10.9952 41.7443 10.7144C42.2743 11.195 42.8426 11.6315 43.4436 12.0197C43.328 11.8449 43.2166 11.6662 43.1087 11.4866ZM40.5162 9.65932C40.2546 9.35885 40.01 9.05559 39.7797 8.73252C39.568 8.62178 39.3544 8.51226 39.1382 8.40709C39.571 8.85282 40.0312 9.27105 40.5162 9.65932ZM41.4774 10.3636C41.9606 10.6926 42.4627 10.993 42.981 11.2633C42.8748 11.0758 42.7702 10.8888 42.6718 10.7031C42.3644 10.4318 42.0485 10.1472 41.753 9.84419C41.4797 9.67066 41.2068 9.51033 40.942 9.35833C41.1004 9.70415 41.2791 10.0403 41.4771 10.3652L41.4774 10.3636ZM43.6543 12.3204C43.0706 11.9636 42.5149 11.5629 41.9921 11.1217C42.1205 11.2829 42.2496 11.4409 42.3793 11.5959C42.606 11.7722 42.8298 11.9545 43.0453 12.1447C43.2974 12.2726 43.5481 12.4001 43.8013 12.5233L43.6543 12.3204ZM40.409 10.6783C41.0458 11.0699 41.6943 11.4378 42.3532 11.7884L42.2706 11.6948C40.517 10.3235 38.4818 9.32106 36.8754 7.7593L36.8921 7.78759C37.7404 9.06206 39.149 9.90136 40.4153 10.6797L40.409 10.6783ZM36.1748 3.96162C36.8335 5.48687 37.7425 6.89137 38.8644 8.11705C39.1121 8.23573 39.3563 8.35529 39.6045 8.47901C38.2831 6.55257 37.4915 4.31283 37.309 1.98434C37.3111 1.97496 37.3124 1.96872 37.3142 1.96091C36.8703 2.30153 36.5389 2.76731 36.3625 3.29815C36.2875 3.51553 36.2269 3.73764 36.1811 3.96301L36.1748 3.96162ZM37.3817 1.91518C37.3984 1.91531 37.4144 1.92178 37.4264 1.93328C37.4385 1.94478 37.4458 1.96044 37.4467 1.97709C37.6324 4.36594 38.4666 6.659 39.8595 8.60916C40.1196 8.74537 40.3769 8.88747 40.6319 9.03237C39.7208 6.8325 39.5245 4.32997 39.6121 1.89346C39.2817 1.67412 38.893 1.55905 38.4964 1.56317C38.0998 1.56728 37.7136 1.6904 37.3879 1.91656L37.3817 1.91518ZM42.3337 9.99223C41.9542 9.0627 41.6788 8.09405 41.5125 7.10399C41.2267 5.59975 41.3234 3.83416 40.3449 2.57023C40.1751 2.34946 39.9748 2.15393 39.75 1.98952C39.6705 4.44095 39.8835 6.95702 40.8427 9.15441C41.0386 9.26985 41.2338 9.38842 41.4201 9.50995C41.0901 9.16025 40.8147 8.76276 40.6032 8.33093C40.0787 7.18704 40.6235 5.6943 41.0162 4.6007C41.0465 4.5156 41.1923 4.54618 41.1554 4.63147C40.6407 6.06204 40.182 7.55087 41.1682 8.88372C41.4629 9.27285 41.7866 9.63923 42.1363 9.97975C42.229 10.0429 42.3225 10.1094 42.4207 10.1771C42.3996 10.1167 42.3666 10.0585 42.3399 9.99362L42.3337 9.99223Z" fill="black"/>
<path d="M31.0645 22.7608C30.2859 21.8313 30.1296 20.5868 30.4951 19.4528C31.0174 17.8321 32.2262 16.9419 33.7096 16.2485C37.5055 14.4645 41.7375 15.6197 45.6847 16.1415C45.6953 16.1429 45.7057 16.1452 45.716 16.1484C46.5229 15.8218 46.4073 15.4176 47.217 15.108C47.5162 14.9938 48.5936 15.5582 48.2972 15.6747C43.9819 17.3225 39.9711 19.0917 36.6212 22.3449C35.044 23.8783 32.7545 24.7903 31.0645 22.7608ZM31.0178 19.4257C33.0707 18.1073 35.5246 17.7498 37.8736 17.251C39.2144 16.9654 40.8647 16.3777 42.374 16.3982C42.7201 16.3458 43.069 16.3135 43.4188 16.3013C43.2607 16.2745 43.112 16.2498 42.9567 16.2253C41.5421 16.1995 40.1008 16.5318 38.6997 16.6302C37.0605 16.7449 35.4164 16.7553 33.7727 16.7641C32.5688 17.3357 31.475 18.1808 31.0209 19.4264L31.0178 19.4257ZM34.088 16.6141C35.7942 16.6044 37.5025 16.5853 39.2016 16.4445C40.2142 16.3601 41.2304 16.17 42.2291 16.1039C39.7786 15.7261 37.2815 15.4855 34.9491 16.2798C34.6635 16.3774 34.3748 16.489 34.088 16.6141ZM44.2039 16.4224C43.8317 16.422 43.4601 16.4334 43.0926 16.4636C43.1427 16.4747 43.1943 16.4861 43.249 16.4982C43.5403 16.4479 43.8397 16.4728 44.1186 16.5707C44.1405 16.5756 44.1608 16.5801 44.1812 16.5846C44.1933 16.587 44.2044 16.5931 44.213 16.602C44.2215 16.611 44.2272 16.6223 44.2292 16.6345C44.245 16.6436 44.2603 16.6535 44.275 16.6643C44.3628 16.6608 44.4501 16.6588 44.5359 16.6564C44.632 16.6153 44.7283 16.5727 44.8259 16.532C44.6175 16.4876 44.4115 16.4551 44.2039 16.4224ZM44.1316 16.8015L44.1237 16.7997C44.1264 16.7998 44.1291 16.8004 44.1316 16.8015ZM43.8022 16.8074C43.4382 16.822 43.0665 16.8414 42.6903 16.8665C42.4154 16.9802 42.1528 17.1215 41.9066 17.2883C42.2126 17.3141 42.517 17.3562 42.8184 17.4145C43.2014 17.2303 43.5878 17.0529 43.9776 16.8822C43.926 16.856 43.8674 16.8316 43.8069 16.8084L43.8022 16.8074ZM41.719 17.4174C41.1744 17.8281 40.6727 18.2929 40.2216 18.8045C40.9905 18.3384 41.7847 17.9139 42.5938 17.5255C42.3059 17.4743 42.0154 17.4385 41.7236 17.4184L41.719 17.4174ZM39.2868 19.3979C39.4527 19.2854 39.6228 19.1836 39.7908 19.0765C40.3044 18.4633 40.8783 17.903 41.5037 17.4042C41.0622 17.3848 40.6198 17.401 40.1809 17.4528C40.0785 17.5302 39.9813 17.6136 39.8797 17.7026C38.8953 18.6015 38.0966 19.7217 37.4208 20.8871C38.0063 20.3451 38.6316 19.8476 39.2915 19.3989L39.2868 19.3979ZM41.6804 17.2728C41.8749 17.133 42.0792 17.0072 42.2917 16.8964C42.1832 16.9052 42.0746 16.914 41.9579 16.9226C41.3153 17.0249 40.7638 17.1308 40.6971 17.1505C40.6304 17.1702 40.6139 17.178 40.5735 17.1904C40.533 17.2028 40.468 17.2523 40.418 17.2855C40.8394 17.2496 41.263 17.2457 41.6851 17.2738L41.6804 17.2728ZM41.4131 16.835C41.6194 16.792 41.8285 16.7514 42.0374 16.7189C42.2463 16.6864 42.5055 16.6191 42.782 16.5556C42.6745 16.5449 42.5666 16.5358 42.4592 16.5318C42.0561 16.5927 41.6607 16.6971 41.28 16.8433C41.3255 16.8451 41.3724 16.8407 41.4178 16.836L41.4131 16.835ZM36.2529 22.0077C36.5269 21.7404 36.804 21.4737 37.0857 21.2082C37.8251 19.8518 38.7508 18.4613 39.9208 17.4871C39.853 17.4967 39.7846 17.5094 39.7181 17.521C38.9751 17.8677 38.2883 18.3237 37.6805 18.8739C36.1874 20.2046 34.918 21.829 33.7221 23.4254C33.6666 23.4984 33.5633 23.4018 33.6169 23.33C35.1314 21.2942 36.8487 18.9048 39.1197 17.6461C36.2958 18.3563 33.9465 20.4814 32.1904 22.9425C32.138 23.0162 32.0316 22.9189 32.0868 22.8475C33.9849 20.1964 36.5427 17.9519 39.6394 17.3872C39.8887 17.2769 40.1434 17.1794 40.4026 17.0952C36.769 17.6035 33.094 18.8699 31.2429 21.9166C31.1961 21.9948 31.0758 21.9305 31.1179 21.8513C33.062 18.6513 36.9643 17.3877 40.7595 16.9053C41.0505 16.755 41.3562 16.6353 41.6717 16.5479C40.0185 16.6742 38.2223 17.3133 36.8699 17.5996C34.8051 18.0366 32.7508 18.4268 30.965 19.6124C30.965 19.6124 30.9541 19.61 30.9478 19.6086C30.8935 19.7876 30.853 19.9705 30.8269 20.1557C30.7241 20.8294 30.8635 21.5177 31.2204 22.0985C31.5772 22.6792 32.1284 23.1147 32.7761 23.3277C34.2428 23.793 35.2699 22.9675 36.2576 22.0087L36.2529 22.0077Z" fill="black"/>
<path d="M35.5101 12.748C32.7628 11.4652 30.1313 9.8736 27.5445 8.29513C25.7204 7.18365 22.9437 4.62383 25.3689 2.55652C27.3758 0.85253 30.1593 2.40232 31.1879 4.42653C32.2818 6.56353 32.4334 9.17916 33.7199 11.2161C33.7363 11.2436 33.7474 11.2738 33.7527 11.3053C34.4072 11.6533 36.4691 12.2829 37.1394 12.5967C37.4312 12.7382 35.8002 12.8826 35.5101 12.748ZM29.846 9.09411C30.5158 9.48479 31.1872 9.88243 31.8618 10.266C31.6728 10.0623 31.5194 9.82833 31.408 9.57382C31.3324 9.52267 31.2567 9.47155 31.1815 9.41884C30.3498 8.99975 29.5575 8.50689 28.814 7.94623C28.0468 7.58811 27.2568 7.27412 26.4649 6.96135C26.6392 7.11532 26.8228 7.25831 27.0148 7.38948C27.9271 7.9961 28.9005 8.53423 29.846 9.09411ZM32.648 10.1594L32.6046 10.0515C32.5535 10.0304 32.5005 10.0104 32.4541 9.99034C32.4459 9.99862 32.4356 10.0045 32.4243 10.0072C32.413 10.0099 32.4011 10.0094 32.3901 10.0057C32.4011 10.0141 32.4117 10.023 32.4219 10.0324C32.494 10.0697 32.5717 10.1114 32.6491 10.1548L32.648 10.1594ZM30.6671 4.70487C30.4642 5.73385 30.2439 7.11637 30.8134 8.07181C30.9195 8.24499 31.0402 8.40879 31.1742 8.56143C31.1427 7.92908 31.2647 7.29853 31.5296 6.72352C31.2937 6.02979 31.0053 5.35497 30.6671 4.70487ZM31.3715 8.99688C31.3915 9.08762 31.416 9.17731 31.445 9.26559C31.5314 9.32732 31.6197 9.38783 31.7038 9.45234C31.8491 9.53692 31.9791 9.61648 32.1192 9.69499C32.1927 9.726 32.269 9.75926 32.3363 9.78889C32.0198 9.55707 31.7169 9.30729 31.4291 9.04076C31.4065 9.02429 31.3882 9.01041 31.3684 8.99619L31.3715 8.99688ZM30.1856 8.64128C30.0017 8.53833 29.8156 8.43814 29.6275 8.33919C29.893 8.51811 30.1639 8.6873 30.4403 8.84676C30.3518 8.77965 30.2731 8.71307 30.1825 8.64058L30.1856 8.64128ZM26.1978 6.70063C26.9247 6.981 27.6487 7.26729 28.3586 7.57998C27.0706 6.52264 25.9603 5.26596 25.0697 3.85767C24.7962 4.79071 25.3859 5.88503 26.1947 6.69994L26.1978 6.70063ZM25.1288 3.68711C26.1231 5.28379 27.4006 6.6857 28.8984 7.82391C29.1767 7.95263 29.4532 8.08917 29.7252 8.23128C28.0907 6.69963 26.8591 4.78877 26.1397 2.6679C25.6931 2.87865 25.3343 3.23896 25.1256 3.68642L25.1288 3.68711ZM26.3029 2.58266L26.2657 2.6023C26.9549 4.6404 28.1219 6.48414 29.6693 7.97955C29.4415 7.72523 29.2333 7.45397 29.0467 7.1681C28.1136 5.72078 27.6657 3.93316 27.1134 2.31425C26.8323 2.37007 26.559 2.45998 26.2997 2.58197L26.3029 2.58266ZM27.2575 2.28545C27.7611 3.76898 28.1878 5.36998 28.9523 6.73414C29.435 7.57138 30.0842 8.30079 30.86 8.87726C30.9956 8.96133 31.1305 9.04853 31.2648 9.1307C31.242 9.04129 31.2237 8.95077 31.21 8.85953C30.5434 8.31378 29.9462 7.67681 29.5874 6.92535C28.9867 5.66625 29.0147 3.98876 28.9165 2.62271C28.4193 2.31729 27.8293 2.19964 27.253 2.29102L27.2575 2.28545ZM29.0621 2.72865C29.1508 4.00407 29.172 5.49572 29.6457 6.66935C29.9069 7.27368 30.2887 7.81835 30.7679 8.26997C30.6844 8.14492 30.6115 8.01309 30.55 7.87588C30.1299 6.91247 30.3356 5.64803 30.5336 4.65569C30.5349 4.64674 30.538 4.63816 30.5429 4.63055C30.5478 4.62294 30.5543 4.61648 30.5619 4.61162C30.5696 4.60675 30.5781 4.60361 30.5871 4.60239C30.5961 4.60117 30.6052 4.60191 30.6138 4.60456C30.2002 3.84916 29.6874 3.15706 29.0589 2.72796L29.0621 2.72865ZM31.5985 6.924C31.3581 7.49419 31.2647 8.1156 31.3269 8.73127C31.3925 8.79823 31.4608 8.86744 31.5238 8.93874C31.8239 9.16902 32.1302 9.38592 32.4344 9.58268C32.144 8.74467 31.9114 7.87518 31.6433 7.06997L31.5985 6.924ZM32.8528 10.6277C32.6855 10.4596 32.5131 10.2974 32.3355 10.1412C32.1007 10.0089 31.8697 9.87427 31.6456 9.72309C31.9135 10.1942 32.3345 10.5597 32.8386 10.759C32.8521 10.764 32.8632 10.7741 32.8695 10.7871C32.8758 10.8001 32.8768 10.815 32.8723 10.8287L32.9746 10.8858C32.9279 10.8 32.8898 10.7129 32.8497 10.627L32.8528 10.6277Z" fill="black"/>
<path d="M19.7717 20.6792C19.5921 18.0639 22.2529 16.1323 24.3655 15.3009C28.2867 13.7512 28.9715 12.9239 30.6825 12.5513C30.9927 12.4838 32.3622 13.0029 32.0432 13.0734C31.0521 13.3046 30.0735 13.5862 29.1111 13.9171C29.1022 13.9624 29.0793 14.0038 29.0456 14.0354C26.5897 16.3681 26.833 20.4237 24.1427 22.5258C22.3306 23.9417 19.9369 23.0847 19.7717 20.6792ZM24.0809 19.4743C24.2641 18.9723 24.4817 18.4836 24.7322 18.0117C24.9298 17.6373 25.1442 17.283 25.374 16.919C25.0466 17.0794 24.7115 17.23 24.3686 17.364L24.2695 17.4339C22.5724 18.649 20.6417 20.0747 21.0126 22.4257C21.1385 22.5218 21.2778 22.599 21.426 22.6548C21.7895 21.2482 23.0054 20.5038 24.0077 19.5384L24.0809 19.4743ZM27.5689 15.0844L27.487 15.1434C27.3825 15.3389 27.277 15.527 27.1703 15.7078C27.1939 15.6901 27.2199 15.6762 27.2432 15.66C27.3454 15.4646 27.4532 15.2736 27.5689 15.0844ZM27.2369 14.5979C27.0537 14.8328 26.8703 15.0694 26.6895 15.3081C27.1165 14.9943 27.5331 14.6601 27.9532 14.3251C27.714 14.4132 27.4752 14.5041 27.2369 14.5979ZM27.9927 14.4732C27.5918 14.8026 27.1896 15.1383 26.763 15.4506L27.8009 14.7324C27.8629 14.6445 27.9278 14.5588 27.9927 14.4732ZM27.2161 15.3376L26.0595 16.1623C25.981 16.2728 25.9027 16.3818 25.8223 16.4935C26.1892 16.3091 26.5466 16.1063 26.8931 15.8859C27.0067 15.7061 27.1128 15.523 27.2161 15.3376ZM25.728 16.4005L25.1435 16.8189C25.2894 16.7528 25.4364 16.6885 25.5814 16.6189L25.728 16.4005ZM25.6213 16.8016C25.1638 17.4793 24.7699 18.1979 24.4448 18.9482C24.4095 19.0338 24.3773 19.1201 24.3467 19.2068C25.2458 18.2847 26.0424 17.268 26.7227 16.1745C26.3645 16.4002 25.9973 16.6093 25.6213 16.8016ZM20.8568 22.2847C20.6609 20.6184 21.6279 19.3157 22.8905 18.2783C23.1766 18.0448 23.4699 17.8162 23.766 17.5898C22.5011 18.0365 21.1822 18.4532 20.4805 19.6096C20.2198 20.5733 20.251 21.6639 20.8568 22.2847ZM20.6352 19.1618C21.1278 18.5657 21.8081 18.1669 22.5751 17.8577C23.178 17.6156 23.7687 17.3921 24.3489 17.1564C24.9056 16.745 25.4732 16.3442 26.0428 15.9488C25.7611 16.1286 25.4667 16.2876 25.1618 16.4246C23.9351 16.9731 22.6107 17.1475 21.4666 17.8717C21.359 17.9873 21.2508 18.106 21.1543 18.2306C20.9357 18.5133 20.7607 18.8272 20.6352 19.1618ZM21.8607 17.4834C22.6903 17.0619 23.5872 16.8404 24.479 16.531C25.1319 16.2945 25.7504 15.972 26.318 15.5719C26.5356 15.2774 26.7572 14.987 26.9801 14.6985L26.6711 14.8204C25.0132 15.4867 23.2059 16.243 21.8607 17.4834ZM26.3253 17.8015C25.8846 18.2577 25.4977 18.7629 25.1724 19.3074C24.7751 20.0065 24.5976 20.7722 24.4641 21.5542C24.897 21.0079 25.2583 20.4084 25.5391 19.7704C25.8305 19.1201 26.0772 18.4565 26.3253 17.8015ZM24.2854 21.7541C24.5873 19.9731 25.2737 18.7674 26.4517 17.4671C26.6555 16.9384 26.8687 16.4117 27.113 15.9149C27.078 15.9399 27.0417 15.963 27.0054 15.9862C26.4501 16.9194 25.8102 17.7998 25.0939 18.6162C24.8377 18.8994 24.5654 19.1677 24.2783 19.4196C23.9764 20.4217 23.9114 21.5911 23.3976 22.4759C23.7299 22.2837 24.0295 22.0401 24.2854 21.7541ZM22.2544 22.7806C22.5626 22.7783 22.8671 22.7135 23.1494 22.5899C23.6692 21.8408 23.6539 20.8718 23.8993 20.0211C23.9377 19.8919 23.9805 19.7652 24.0232 19.6386C23.0047 20.5365 21.8851 21.4612 21.5704 22.6917C21.7918 22.7574 22.0217 22.79 22.2526 22.7884L22.2544 22.7806Z" fill="black"/>
<path d="M12.0303 22.9795C10.5258 21.5797 11.8682 19.4763 12.9688 18.3556C14.6761 16.6198 16.7428 15.6176 18.9603 14.6897C18.9982 14.6742 19.0395 14.6691 19.08 14.6751C19.5855 14.1098 20.1852 13.6227 20.912 13.421C21.2194 13.3365 22.2871 13.6037 21.9782 13.6879C20.5889 14.0742 18.7773 15.7772 18.092 16.911C17.2547 18.2948 16.7835 19.7809 16.1033 21.2257C15.4399 22.6316 13.5708 24.4169 12.0303 22.9795ZM15.4491 21.4401L15.6042 21.1465C15.8285 20.2945 16.0973 19.4548 16.4096 18.631C16.1128 18.9867 15.816 19.3424 15.5187 19.6931L15.242 20.0024C14.9313 20.8352 14.6873 21.6912 14.5121 22.5625C14.5109 22.5683 14.5086 22.5738 14.5052 22.5787C14.5019 22.5836 14.4976 22.5878 14.4927 22.591C14.8879 22.2785 15.2127 21.886 15.4459 21.4394L15.4491 21.4401ZM17.9313 16.2508L17.9157 16.2474C17.7486 16.3875 17.5811 16.5291 17.4116 16.6654C17.2304 17.0396 17.0586 17.4186 16.8961 17.8024C17.0868 17.5708 17.273 17.3365 17.4598 17.1073C17.6023 16.824 17.7578 16.5409 17.9264 16.2579L17.9313 16.2508ZM17.5178 15.8512C17.5178 15.862 17.5155 15.8727 17.5108 15.8824C17.4044 16.0228 17.3057 16.165 17.2018 16.3158C17.2654 16.2954 17.3317 16.2773 17.3953 16.2569L17.5065 16.1618C17.5739 16.0275 17.6441 15.8955 17.7146 15.7619L17.5178 15.8512ZM12.1911 22.3708C12.4423 21.3303 12.8447 20.3322 13.3856 19.4084C12.6328 19.9945 12.0722 20.7198 11.9913 21.8872C12.0298 22.0601 12.0956 22.2257 12.1862 22.3779L12.1911 22.3708ZM12.3037 22.5219C12.4957 22.7464 12.7628 22.8934 13.0552 22.9356C13.2404 21.0961 14.3074 19.4155 15.6294 17.9683C15.4725 18.0697 15.318 18.1749 15.1568 18.2737C14.6425 18.5895 14.1291 18.8793 13.6671 19.2034C13.0296 20.2286 12.5657 21.3518 12.2941 22.528L12.3037 22.5219ZM16.3554 17.214L16.5647 17.0094C16.6539 16.8652 16.7377 16.7313 16.8284 16.5956C15.8898 16.9389 15.0222 17.4209 14.3551 18.2276C14.2183 18.3941 14.0853 18.5729 13.9556 18.759C14.743 18.2314 15.557 17.7392 16.3506 17.2211L16.3554 17.214ZM17.3346 16.4943L17.1487 16.6598L17.3147 16.5326L17.3346 16.4943ZM16.9766 16.6299L17.1284 16.4996C17.1037 16.5072 17.0803 16.5168 17.0553 16.526C17.0244 16.5618 16.9951 16.598 16.9701 16.6367L16.9766 16.6299ZM17.9222 15.6685L17.7916 15.9183C17.9606 15.7769 18.1274 15.6384 18.2927 15.5061L17.9222 15.6685ZM17.7248 16.1609L17.8436 16.1281C17.9177 16.0675 17.993 16.0087 18.0674 15.9465C18.0761 15.9389 18.0864 15.9335 18.0976 15.9308C18.1087 15.9282 18.1204 15.9283 18.1315 15.9311C18.1844 15.8477 18.2401 15.7666 18.2957 15.6854C18.1032 15.844 17.9108 16.0047 17.7184 16.1677L17.7248 16.1609ZM16.7008 18.2855C16.4163 19.0013 16.162 19.7287 15.9438 20.4707C16.3804 19.5492 16.7486 18.6108 17.1783 17.691C17.013 17.8971 16.8557 18.0968 16.6944 18.2923L16.7008 18.2855ZM16.5964 18.164C16.7717 17.7273 16.9602 17.2952 17.1619 16.8676C16.9481 17.0335 16.733 17.1975 16.514 17.3573C16.0954 18.0559 15.7302 18.7851 15.4216 19.5389C15.8083 19.0882 16.2013 18.6308 16.59 18.1708L16.5964 18.164ZM16.2396 17.5523L16.1714 17.6012C14.6711 19.1352 13.3914 20.9623 13.1968 22.9554C13.2406 22.9651 13.2932 22.9571 13.3425 22.9565C13.4174 22.091 13.8317 21.4039 14.4161 20.7117C14.6509 20.4358 14.8889 20.1605 15.1269 19.8852C15.4339 19.0825 15.8037 18.3053 16.2329 17.5607L16.2396 17.5523ZM14.1154 17.9467C13.3213 18.6384 12.4117 19.4735 12.0647 20.487C11.9715 20.7633 11.9241 21.053 11.9243 21.3445C12.0819 20.5079 12.554 19.7634 13.2437 19.2639C13.3808 19.1631 13.5187 19.0657 13.6567 18.9684C13.8417 18.68 14.0413 18.4013 14.2546 18.1333C14.9669 17.2481 15.9351 16.7489 16.9713 16.3943C17.0715 16.2526 17.1733 16.1111 17.2782 15.9704C16.1361 16.4836 15.0698 17.1509 14.109 17.9535L14.1154 17.9467ZM13.7981 22.9064C14.0336 22.8506 14.2557 22.7487 14.4515 22.6065C14.44 22.6107 14.4275 22.6117 14.4154 22.6095C14.4034 22.6072 14.3921 22.6018 14.3829 22.5937C14.3736 22.5856 14.3667 22.5752 14.3628 22.5636C14.3589 22.5519 14.3582 22.5395 14.3608 22.5274C14.5178 21.7606 14.7285 21.0057 14.9914 20.2684C14.2772 21.0581 13.594 21.871 13.489 22.9544C13.5906 22.9463 13.6916 22.9326 13.7917 22.9131L13.7981 22.9064Z" fill="black"/>
<path d="M21.5237 11.6332C20.2171 11.2968 18.6953 11.0735 17.4976 10.4152C16.4106 9.8126 14.5037 7.88114 15.4127 6.49184C16.4131 4.97848 19.0989 5.47878 20.1542 6.61049C21.5567 8.11567 22.2054 10.2116 23.7414 11.6545C23.7414 11.6545 23.7499 11.6679 23.7551 11.6739C24.5345 11.8577 25.3247 12.0373 26.1147 12.1956C26.4274 12.2647 25.7727 12.9118 25.4593 12.8458C23.959 12.547 23.0131 12.0181 21.5237 11.6332ZM22.6127 11.2329C22.4272 11.0826 22.2352 10.9347 22.0367 10.7891C21.8209 10.7414 21.6051 10.6937 21.3893 10.646C21.5464 10.8063 21.7163 10.9535 21.8972 11.0862C22.1327 11.1437 22.3712 11.1926 22.6127 11.2329ZM22.3893 10.8785L22.3788 10.8664L22.3694 10.8643C22.3694 10.8643 22.3837 10.874 22.3893 10.8785ZM21.1949 10.8801C21.3138 10.9211 21.434 10.9559 21.5543 10.9907C21.4072 10.8642 21.2685 10.7284 21.139 10.5841C20.9279 10.5374 20.7168 10.4908 20.5166 10.4318C20.7314 10.5977 20.9581 10.7475 21.1949 10.8801ZM20.1894 10.3463C20.0007 10.2948 19.8108 10.2413 19.6247 10.1854C19.9271 10.3538 20.2385 10.5053 20.5577 10.6392C20.4297 10.5454 20.307 10.4477 20.1894 10.3463ZM20.9824 10.402C20.8006 10.1797 20.6332 9.94607 20.481 9.70255C19.9346 9.33257 19.3905 8.95981 18.866 8.56515C19.245 9.18286 19.7144 9.74034 20.2586 10.219C20.497 10.2832 20.7392 10.3449 20.9824 10.402ZM21.2139 10.4531C21.3921 10.4925 21.5704 10.5319 21.7486 10.5713C21.4314 10.3373 21.1072 10.1197 20.7821 9.89862C20.9132 10.0959 21.0566 10.2848 21.2114 10.4641L21.2139 10.4531ZM16.8204 9.30153C17.7345 10.1594 18.9198 10.4214 20.093 10.7382C20.4504 10.8352 20.8085 10.9291 21.1666 11.023C21.1586 11.022 21.1508 11.0202 21.1431 11.0178C20.3938 10.7673 19.6798 10.4216 19.0186 9.98915C17.8964 9.59024 16.848 9.0355 15.967 8.15382C16.1759 8.58788 16.4652 8.9784 16.8197 9.30466L16.8204 9.30153ZM15.8669 7.88739C15.877 7.88363 15.888 7.88287 15.8985 7.8852C15.909 7.88753 15.9187 7.89285 15.9263 7.90053C16.6626 8.66275 17.5552 9.25661 18.5428 9.64131C17.4923 8.85537 16.6188 7.85739 15.979 6.71214C15.8699 6.88627 15.8029 7.08341 15.7833 7.28796C15.7637 7.49251 15.7921 7.69883 15.8662 7.89052L15.8669 7.88739ZM16.2826 6.39235C16.2062 6.45334 16.1361 6.52186 16.0734 6.59691C16.7989 7.91453 17.8364 9.0344 19.0951 9.8585C19.3764 9.9584 19.6633 10.0481 19.9531 10.1318C19.4068 9.60098 18.9394 8.9947 18.5651 8.33142C17.7952 7.74533 17.1098 7.05594 16.5283 6.28271C16.52 6.27063 16.5169 6.25578 16.5194 6.24138C16.4354 6.2849 16.3559 6.3365 16.2819 6.39546L16.2826 6.39235ZM16.6237 6.19232C16.6331 6.19439 16.6409 6.19611 16.6482 6.20756C17.1482 6.8792 17.7305 7.48546 18.3814 8.01211C18.0459 7.37142 17.761 6.70547 17.5293 6.02037C17.2181 6.01205 16.9088 6.0718 16.623 6.19544L16.6237 6.19232ZM17.6878 6.03079C17.9483 6.79673 18.2787 7.53712 18.6749 8.24257C19.2003 8.65546 19.7517 9.03967 20.3082 9.42335C19.7648 8.48351 19.3557 7.42581 18.9247 6.51901C18.9192 6.50749 18.9167 6.49479 18.9174 6.48205C18.918 6.4693 18.9218 6.45691 18.9285 6.44602C18.9351 6.43512 18.9444 6.42606 18.9554 6.41963C18.9664 6.4132 18.9789 6.40962 18.9916 6.40921C18.5848 6.20193 18.1419 6.07453 17.6871 6.03392L17.6878 6.03079ZM20.845 8.58295C20.5359 8.09657 20.2587 7.52542 19.8944 7.08095C19.6543 6.80784 19.3624 6.58506 19.0356 6.42549L19.0465 6.42791C19.5146 7.41176 19.9563 8.59635 20.5853 9.59445C21.0948 9.93825 21.604 10.2836 22.0977 10.6469L22.2541 10.6814C21.7422 10.0142 21.2891 9.28935 20.8456 8.57982L20.845 8.58295ZM22.834 11.4113C22.6752 11.3877 22.5172 11.3609 22.3601 11.3295C22.5305 11.3672 22.7001 11.4161 22.8695 11.4585L22.834 11.4113Z" fill="black"/>
<path d="M15.7788 13.865C13.7983 14.1436 11.6648 13.7343 9.8023 13.0636C8.63594 12.6418 6.63327 11.8187 6.3245 10.411C5.90831 8.50253 8.34513 8.08872 9.6169 8.64201C10.827 9.17019 11.7565 10.2478 12.7156 11.1173C13.3903 11.7541 14.1241 12.3252 14.907 12.8231C14.9632 12.8355 15.022 12.837 15.0784 12.8413C15.1349 12.8456 15.1412 12.906 15.1143 12.946C15.7613 13.3136 17.4357 13.2772 18.2074 13.4215C18.5226 13.4797 17.4349 14.282 17.1214 14.2241C16.6801 14.1413 16.2482 14.0146 15.8322 13.8457C15.8152 13.8542 15.7973 13.8607 15.7788 13.865ZM7.00222 9.79358C8.9765 11.2381 11.2536 12.2147 13.6612 12.6493C12.5276 12.0736 11.474 11.3524 10.5272 10.504C9.46591 10.0154 8.35872 9.63339 7.22195 9.36346C7.12398 9.48801 7.0522 9.63106 7.0109 9.78403L7.00222 9.79358ZM14.1199 12.9114L14.0415 12.858C13.9445 12.8366 13.8452 12.8261 13.7491 12.8081C13.8797 12.8403 14.0034 12.8742 14.1272 12.9081L14.1199 12.9114ZM6.97061 9.94399C6.94633 10.1373 6.96273 10.3336 7.01873 10.5202C7.85368 10.8534 8.69295 11.1696 9.53655 11.4687C8.63968 11.0369 7.78336 10.5255 6.97791 9.94069L6.97061 9.94399ZM13.316 12.3042C13.1151 12.1395 12.9153 11.9702 12.7165 11.7962C12.6587 11.7457 12.6033 11.6925 12.5443 11.6401C12.141 11.387 11.7383 11.1242 11.3143 10.8977C11.2205 10.8474 11.1259 10.8003 11.0333 10.7519C11.7455 11.34 12.5123 11.8587 13.3233 12.3008L13.316 12.3042ZM14.8791 13.394C14.872 13.4026 14.8626 13.409 14.8519 13.4125C14.8413 13.4159 14.8299 13.4163 14.8191 13.4135C12.5131 12.8349 10.2072 12.2557 7.90143 11.6761C8.52504 12.1418 9.36732 12.4641 10.1513 12.7014C11.5734 12.8699 12.9847 13.1195 14.3783 13.4489C14.573 13.4509 14.7656 13.4476 14.9593 13.4396C14.9468 13.4221 14.9203 13.4081 14.8927 13.3921L14.8791 13.394ZM13.5643 13.4066C12.7623 13.2359 11.9552 13.0908 11.1429 12.9714C11.2368 12.9921 11.3259 13.0118 11.4119 13.0308C12.1257 13.2095 12.8517 13.3349 13.5841 13.4061L13.5643 13.4066ZM7.63491 11.4647L14.5466 13.1992L14.4775 13.156C11.9618 12.4801 9.4873 11.6594 7.06636 10.698C7.11381 10.8118 7.17211 10.9207 7.24044 11.0234C7.36021 11.1865 7.49932 11.3345 7.65471 11.4642L7.63491 11.4647ZM8.28211 8.84859C7.92032 8.85252 7.57326 8.99234 7.30987 9.24026C8.28985 9.4764 9.2482 9.79464 10.1747 10.1916C9.76784 9.80658 9.36819 9.3887 8.97475 8.94269C8.75674 8.87641 8.52974 8.84449 8.30191 8.84806L8.28211 8.84859ZM10.5264 9.82509C10.1398 9.49925 9.70787 9.23144 9.24409 9.03011C9.66637 9.50362 10.1144 9.95351 10.5863 10.3777C10.6918 10.4273 10.7973 10.4768 10.9024 10.5279C11.2806 10.7164 11.6439 10.9279 12.0004 11.1477C11.5415 10.6938 11.0622 10.2354 10.5462 9.82454L10.5264 9.82509Z" fill="black"/>
<path d="M7.15105 16.7843C5.49096 17.3124 -1.19473 17.6788 0.186498 14.161C0.71796 12.803 2.26878 13.1327 3.27252 13.6743C5.06344 14.6391 6.87128 16.8257 9.1381 16.4465C9.45329 16.3932 9.47507 16.8882 9.16421 16.9441C8.52044 17.0352 7.86402 16.96 7.25745 16.7258C7.22737 16.7538 7.19081 16.7739 7.15105 16.7843ZM1.32288 15.9648C2.74427 16.279 4.16525 16.5357 5.61477 16.4037C5.43492 16.316 5.25988 16.2187 5.09038 16.1123C4.81463 16.0317 4.53749 15.9573 4.26105 15.8798C4.26105 15.8798 4.24612 15.888 4.23517 15.8856C3.20421 15.636 2.13355 15.5967 1.08713 15.77C1.16364 15.8394 1.24274 15.9044 1.32288 15.9648ZM5.7557 16.3152C5.8021 16.3353 5.84884 16.3538 5.89559 16.3723L5.93242 16.369L5.7557 16.3152ZM6.34422 16.4944C6.27386 16.4789 6.20748 16.4527 6.13849 16.4309C6.13779 16.4416 6.13546 16.4522 6.13158 16.4622C6.18162 16.4733 6.22768 16.4949 6.28484 16.5108L6.34422 16.4944ZM5.99969 16.5691C5.95435 16.5591 5.91403 16.5338 5.87197 16.5163C4.43918 16.6914 3.04761 16.4723 1.64622 16.1789C1.72882 16.2265 1.81406 16.2695 1.90153 16.3075C3.16041 16.83 4.64536 16.8419 6.00126 16.5695L5.99969 16.5691ZM0.954787 15.6489C1.63561 15.5272 2.32931 15.4938 3.01872 15.5495C2.18524 15.3357 1.34987 15.1379 0.50723 14.9582C0.600958 15.2214 0.755972 15.4585 0.959482 15.65L0.954787 15.6489ZM0.475086 14.8068C1.85111 15.0962 3.21259 15.4366 4.5651 15.8175C4.53227 15.8103 4.50376 15.7908 4.47265 15.7758C3.27224 15.2038 2.29899 14.3017 1.01212 13.9058C0.952977 13.9339 0.896656 13.9675 0.843923 14.0063C0.716325 14.0944 0.615073 14.2155 0.55094 14.3567C0.486806 14.4979 0.462212 14.6538 0.479781 14.8078L0.475086 14.8068ZM1.2189 13.8236C2.13258 14.142 2.87787 14.6953 3.70439 15.1928C3.89247 15.3065 4.08332 15.4077 4.27797 15.5065C3.69759 15.0159 3.16454 14.4521 2.63501 13.9317C2.20423 13.7808 1.66289 13.6922 1.22359 13.8247L1.2189 13.8236ZM4.23283 14.9391C3.85303 14.6352 3.45212 14.3587 3.03315 14.1116L2.9977 14.0939C3.56859 14.7026 4.18678 15.2652 4.84645 15.7764C5.32211 15.9789 5.80941 16.1529 6.30577 16.2974C5.58297 15.898 4.89157 15.4443 4.23752 14.9401L4.23283 14.9391Z" fill="black"/>
<path d="M6.85466 25.188C5.85019 24.62 5.69114 23.2176 5.9451 22.2097C6.46858 20.1237 8.53813 18.9155 10.0416 17.5822C10.2824 17.0937 10.5595 16.6239 10.8706 16.1769C11.0507 15.9183 11.4915 16.1502 11.3114 16.4087C11.0018 16.8526 10.727 17.3197 10.4892 17.8058C10.483 17.8206 10.4755 17.8349 10.4666 17.8483C10.0601 18.6949 9.75661 19.5872 9.56258 20.506C9.3138 21.6314 9.27389 22.8357 8.85013 23.9143C8.51368 24.7908 7.88989 25.7726 6.85466 25.188ZM8.24645 24.271C8.34007 22.9572 8.82251 21.7244 9.0605 20.4327C9.06258 20.4233 9.06361 20.4187 9.06534 20.4108L9.06707 20.403C9.09022 20.2983 9.11302 20.1951 9.13617 20.0904C8.48585 21.5484 7.94377 23.0286 7.90695 24.6419C8.04098 24.5391 8.15591 24.4136 8.24645 24.271ZM9.37092 19.2734C9.43945 19.0525 9.51509 18.8364 9.59578 18.6198C9.5599 18.6856 9.52593 18.7503 9.48883 18.8142C9.491 18.8245 9.49095 18.8351 9.48868 18.8453C9.48642 18.8556 9.482 18.8652 9.4757 18.8736L9.38482 18.9879C8.94935 19.7114 8.43775 20.3787 8.04174 21.124C7.43633 22.2668 7.21625 23.5746 7.41425 24.8527C7.54206 24.8454 7.66626 24.8077 7.77645 24.7425C7.79791 22.7832 8.55054 21.0184 9.37265 19.2656L9.37092 19.2734ZM8.58635 19.4393C7.79747 20.9454 6.74143 22.1464 6.44534 23.8122C6.4867 23.9359 6.53677 24.0565 6.59515 24.1732C6.85347 22.1515 8.01807 20.5039 9.26453 18.9089L9.31167 18.8291C9.06769 19.0277 8.82528 19.2265 8.58808 19.4315L8.58635 19.4393ZM6.70969 24.3821C6.831 24.5977 7.02997 24.759 7.26606 24.833C7.10569 23.7784 7.22197 22.7003 7.60349 21.7042C7.71124 21.4408 7.83579 21.1847 7.97638 20.9374C7.32956 21.9862 6.83513 23.095 6.71142 24.3743L6.70969 24.3821ZM6.32992 23.2883L6.33921 23.3575C6.72132 22.0223 7.57757 20.9459 8.27749 19.7088C7.8839 20.0598 7.52383 20.4468 7.20194 20.8645C6.67298 21.5509 6.25763 22.3837 6.33164 23.2805L6.32992 23.2883ZM8.88893 21.7801C8.67797 22.4932 8.51725 23.2203 8.40794 23.9559C8.68356 23.3397 8.80279 22.5185 8.89066 21.7723L8.88893 21.7801Z" fill="black"/>
</svg>
