<svg width="160" height="21" viewBox="0 0 160 21" fill="none" xmlns="http://www.w3.org/2000/svg">
<g clip-path="url(#clip0_763_11229)">
<path d="M19.8689 14.6081C18.1342 18.8936 15.4005 20.9322 10.1728 20.9322C3.6357 20.9322 0 17.014 0 12.5682C0 8.12242 3.61215 4.5249 10.6231 4.5249C17.634 4.5249 21.199 7.96212 17.6811 10.7341H17.5855C17.3236 7.96212 15.2799 4.61574 10.6217 4.61574C5.96344 4.61574 3.84769 8.05296 3.84769 11.2377C3.84769 14.9501 6.55646 18.1348 11.7149 18.1348C14.4721 18.1121 17.5619 17.3106 19.7483 14.6054H19.8675L19.8689 14.6081Z" fill="#C3937C"/>
<path d="M19.809 4.36431H24.3716L27.3894 9.72653L36.8957 9.70382C38.7025 6.83969 41.989 1.3292 40.681 0H44.0563L29.386 20.7716L19.8076 4.36565L19.809 4.36431ZM27.485 9.86412L31.6915 17.2422C34.0207 13.8971 35.7083 11.5594 36.825 9.84141L27.485 9.86412Z" fill="#C3937C"/>
<path d="M58.5409 4.36431H63.1036L66.1213 9.72653L75.6276 9.70382C77.4344 6.83969 80.7209 1.3292 79.413 0H82.7882L68.1179 20.7716L58.5396 4.36565L58.5409 4.36431ZM66.2169 9.86412L70.4235 17.2422C72.7526 13.8971 74.4402 11.5594 75.557 9.84141L66.2169 9.86412Z" fill="#C3937C"/>
<path d="M135.751 4.36431H140.314L143.332 9.72653L152.838 9.70382C154.645 6.83969 157.931 1.3292 156.623 0H159.999L145.328 20.7716L135.75 4.36565L135.751 4.36431ZM143.427 9.86412L147.634 17.2422C149.963 13.8971 151.651 11.5594 152.767 9.84141L143.427 9.86412Z" fill="#C3937C"/>
<path d="M58.3469 15.8C58.3469 19.7876 53.1663 21.0019 49.2438 21.0019C42.3992 21.0019 36.4579 18.4357 40.688 14.6778H40.7836C41.2353 17.5192 44.4443 20.9565 49.2438 20.911C53.2606 20.9565 55.7559 19.857 55.7559 18.3448C55.7559 15.9389 53.8785 15.5261 48.8877 14.7927C44.3722 14.1288 40.1657 13.2351 40.1657 9.54538C40.1657 5.85569 44.8239 4.52649 48.5552 4.52649C55.519 4.52649 59.9389 7.9637 56.4224 10.7356H56.3268C56.0649 7.9637 53.546 4.57191 48.5552 4.61733C45.18 4.57191 42.7566 5.78622 42.7566 7.39061C42.7566 9.47592 45.6566 10.0944 49.5777 10.6902C54.4743 11.4236 58.3469 12.1797 58.3469 15.8Z" fill="#C3937C"/>
<path d="M98.419 4.73169V20.7716H98.2528L80.8322 4.86929C80.8322 16.7386 81.2603 18.4111 84.0647 20.7716H80.6895V4.73169H85.8701L98.2528 15.754V4.73169H98.419Z" fill="#C3937C"/>
<path d="M122.281 12.7739C122.281 17.7007 117.218 20.9776 111.23 20.9776C105.241 20.9776 100.202 17.7007 100.202 12.7739C100.202 7.84723 105.265 4.5249 111.23 4.5249C117.195 4.5249 122.281 7.7791 122.281 12.7739ZM118.145 12.7739C118.145 8.30544 115.697 4.61574 111.228 4.61574C106.76 4.61574 104.337 8.30544 104.337 12.7739C104.337 17.2425 106.761 20.8854 111.228 20.8854C115.695 20.8854 118.145 17.2198 118.145 12.7739Z" fill="#C3937C"/>
<path d="M131.145 4.12537L140.724 20.5313H136.161L128.984 7.88319C123.422 16.9338 122.329 18.4006 124.421 20.5313H121.046L131.147 4.12537H131.145Z" fill="#C3937C"/>
</g>
<defs>
<clipPath id="clip0_763_11229">
<rect width="160" height="21" fill="white"/>
</clipPath>
</defs>
</svg>
