<svg width="102" height="51" viewBox="0 0 102 51" fill="none" xmlns="http://www.w3.org/2000/svg">
<path d="M53.1497 10.1743C29.0244 10.1743 8.84938 27.5967 4.29942 50.6467L5.06958 50.6467C9.60959 28.0189 29.4422 10.9367 53.1497 10.9367C69.0447 10.9367 83.1962 18.6134 92.1654 30.493C98.8198 38.3319 102 50.6467 102 50.6467C97.45 27.5967 77.2778 10.1743 53.1497 10.1743Z" fill="black"/>
<path d="M5.90075 48.6378C6.54729 44.1978 10.5232 39.7191 14.5033 37.9026C16.9758 36.7753 19.7609 36.5355 22.4366 36.3618C25.0508 36.1988 27.6722 36.1887 30.2875 36.3316C30.6925 36.3532 30.6911 35.7185 30.2875 35.6969C27.2635 35.5303 24.2318 35.5706 21.2132 35.8176C18.6739 36.0301 16.0806 36.3919 13.7758 37.5507C9.85105 39.5395 5.94622 43.9896 5.29541 48.464C5.23716 48.8632 5.84249 49.0384 5.90075 48.632L5.90075 48.6378Z" fill="black"/>
<path d="M5.85111 49.0959C11.2224 49.3558 16.7813 48.5976 21.5941 46.0502C25.6368 43.9121 28.7387 40.45 30.677 36.3029C30.8475 35.9353 30.3061 35.6122 30.1327 35.9827C28.2386 40.0465 25.2346 43.408 21.2758 45.5016C16.561 47.9973 11.1116 48.7153 5.85111 48.4612C5.44613 48.4411 5.44756 49.0772 5.85111 49.0959Z" fill="black"/>
<path d="M6.10116 48.5043C10.0714 41.5427 17.4974 37.2607 25.2644 36.211C25.5415 36.1737 25.5486 35.7271 25.2644 35.7659C17.3411 36.8371 9.77581 41.1708 5.72035 48.2803C5.69095 48.3313 5.6828 48.392 5.69773 48.4491C5.71265 48.5062 5.74943 48.555 5.79993 48.5847C5.85043 48.6144 5.91054 48.6226 5.96704 48.6075C6.02353 48.5924 6.07176 48.5553 6.10116 48.5043Z" fill="black"/>
<path d="M6.28869 48.8575L17.2941 41.8429C19.0732 40.7099 20.8466 39.5554 22.6342 38.4454C24.6235 37.209 26.8062 36.0703 29.2161 36.5183C29.5003 36.57 29.6111 36.1407 29.3326 36.0875C25.2757 35.3337 21.5173 38.6249 18.3186 40.6625L6.06558 48.4727C5.82686 48.6249 6.04712 49.0097 6.28869 48.8561L6.28869 48.8575Z" fill="black"/>
<path d="M6.60989 48.6206C11.9485 49.4405 17.5741 46.9505 21.7944 43.8087C23.3717 42.6341 24.8168 41.2627 26.3088 39.9804C27.7128 38.7756 29.2702 37.6139 30.4951 36.2153C30.6812 36.0014 30.3714 35.6854 30.1824 35.9008C29.0897 37.1501 27.7099 38.1984 26.4581 39.271C25.1024 40.437 23.7795 41.659 22.3927 42.7848C18.1766 46.2067 12.2554 49.0399 6.72642 48.1912C6.44933 48.1481 6.32996 48.5775 6.60989 48.622L6.60989 48.6206Z" fill="black"/>
<path d="M6.75618 49.0068C11.0504 48.095 15.3232 46.257 18.8345 43.5818C22.3457 40.9066 25.5898 37.2636 30.0872 36.313C30.3714 36.2541 30.2477 35.8247 29.9706 35.8822C25.8185 36.7638 22.6853 39.9172 19.4839 42.5062C15.7281 45.5126 11.3294 47.5911 6.63823 48.576C6.36114 48.6349 6.47909 49.0643 6.75476 49.0068L6.75618 49.0068Z" fill="black"/>
<path d="M5.37785 45.0479C3.37117 40.2772 1.9127 35.2896 1.03108 30.1829C0.566418 27.479 0.297849 24.7047 1.38205 22.1099C2.33837 19.821 4.0137 17.9457 5.64498 16.1234C5.91496 15.8204 5.47163 15.3695 5.20023 15.674C3.57179 17.4948 1.90214 19.3716 0.900358 21.6361C-0.135533 23.9795 -0.141235 26.4638 0.206904 28.9594C0.991283 34.5984 2.64674 40.1283 4.84214 45.3624C4.99987 45.7372 5.54266 45.4141 5.38635 45.0407L5.37785 45.0479Z" fill="black"/>
<path d="M5.29407 15.9468C6.28023 21.1162 7.73816 26.2354 8.25824 31.4838C8.70016 35.9482 8.18292 41.3474 4.65464 44.5151C4.35055 44.788 4.79672 45.2331 5.09938 44.9646C8.48699 41.9232 9.25719 36.8127 8.96873 32.4718C8.59501 26.8285 6.95661 21.3173 5.90083 15.7831C5.8241 15.3825 5.21734 15.5519 5.29407 15.9526L5.29407 15.9468Z" fill="black"/>
<path d="M5.27566 44.0973C3.40565 35.7874 3.5577 27.545 6.41244 19.4821C6.50764 19.2122 6.08277 19.0959 5.98614 19.3644C3.10583 27.4962 2.96231 35.8362 4.84937 44.215C4.91189 44.4936 5.33676 44.3759 5.27566 44.0973Z" fill="black"/>
<path d="M5.14197 44.597C3.93414 38.9049 2.49754 33.2027 2.16504 27.3655C2.04201 25.4423 2.30793 23.5138 2.94657 21.6978C3.55191 19.9014 4.27233 17.9054 5.49152 16.4264C5.67199 16.2081 5.3608 15.8908 5.18034 16.1119C4.07766 17.4503 3.39702 19.1734 2.80021 20.7903C2.11956 22.6355 1.61371 24.4606 1.68192 26.4379C1.89506 32.6283 3.43822 38.6837 4.7171 44.7133C4.77678 45.0005 5.20165 44.8742 5.14339 44.5941L5.14197 44.597Z" fill="black"/>
<path d="M5.39774 43.7555C6.63683 36.369 7.71676 28.7441 6.87838 21.2498C6.84712 20.9626 6.40664 20.9626 6.4379 21.2498C7.27201 28.7053 6.20628 36.29 4.97287 43.6378C4.92598 43.925 5.34943 44.037 5.39916 43.7555L5.39774 43.7555Z" fill="black"/>
<path d="M13.5129 29.6846C12.7044 22.9356 13.2955 13.6335 19.1656 9.15041C19.4853 8.90773 19.1656 8.35488 18.8487 8.60187C12.7769 13.2386 12.0422 22.6628 12.8806 29.6846C12.9289 30.0852 13.5584 30.091 13.5101 29.6846L13.5129 29.6846Z" fill="black"/>
<path d="M18.6924 9.15471C19.2631 12.7509 19.0667 16.4288 18.1163 19.942C17.1659 23.4551 15.4836 26.7225 13.1819 29.5252C12.9247 29.8382 13.368 30.2891 13.6266 29.9746C16.0019 27.0891 17.7374 23.7225 18.7159 20.1018C19.6945 16.481 19.8933 12.6903 19.2992 8.98528C19.2338 8.58178 18.6271 8.75265 18.6924 9.15471Z" fill="black"/>
<path d="M13.9734 28.7369C14.0188 22.0252 14.5261 15.0048 19.1215 9.72337C19.3077 9.50798 18.9979 9.19206 18.8104 9.40889C14.1339 14.7822 13.5797 21.9017 13.5328 28.7369C13.5328 28.7959 13.5561 28.8525 13.5974 28.8943C13.6387 28.936 13.6947 28.9594 13.7531 28.9594C13.8115 28.9594 13.8675 28.936 13.9088 28.8943C13.9501 28.8525 13.9734 28.7959 13.9734 28.7369Z" fill="black"/>
<path d="M14.259 28.4009C15.5337 23.4503 17.2501 18.6268 19.3873 13.9896C19.5067 13.7311 19.1273 13.5057 19.0079 13.7656C16.8524 18.4355 15.1212 23.2937 13.8356 28.2802C13.7631 28.5574 14.188 28.6766 14.2619 28.3994L14.259 28.4009Z" fill="black"/>
<path d="M14.2462 28.3563C14.3144 25.4701 14.8672 22.5867 15.545 19.788C16.2313 16.952 16.966 13.6407 19.1827 11.603C19.393 11.4092 19.0804 11.0961 18.8715 11.2885C16.6818 13.2989 15.9088 16.4968 15.2097 19.2954C14.4736 22.2449 13.8782 25.3021 13.8071 28.3506C13.8 28.6378 14.2334 28.6378 14.2462 28.3506L14.2462 28.3563Z" fill="black"/>
<path d="M12.8153 32.904C15.4414 29.2491 19.1338 26.5165 23.3746 25.0895C25.5444 24.3629 27.7639 24.0686 30.0432 24.0068C32.3636 23.9436 34.6656 23.9494 36.8781 23.1452C37.2546 23.0016 37.0927 22.3914 36.7104 22.5321C34.0333 23.51 31.2255 23.2501 28.4375 23.4439C26.2702 23.5946 24.1383 24.0789 22.1156 24.8799C18.1721 26.4436 14.7558 29.1184 12.2725 32.5867C12.0352 32.9184 12.5794 33.2357 12.8153 32.9083L12.8153 32.904Z" fill="black"/>
<path d="M12.9432 32.9729C17.6196 33.2228 22.5561 33.464 26.9697 31.5973C31.0152 29.8842 34.4426 26.8874 36.9094 23.2486C37.1396 22.9112 36.5939 22.5924 36.3665 22.9284C33.9111 26.5485 30.4084 29.5956 26.3231 31.178C22.0772 32.8222 17.398 32.5752 12.9432 32.3383C12.5382 32.3167 12.5397 32.9514 12.9432 32.9729Z" fill="black"/>
<path d="M13.4519 32.8207C20.355 29.1993 27.8038 25.338 35.6533 24.5783C35.9374 24.5511 35.9374 24.1059 35.6533 24.1332C27.7185 24.9014 20.203 28.7771 13.2303 32.4373C12.9788 32.5694 13.2004 32.9528 13.4519 32.8207Z" fill="black"/>
<path d="M12.9673 32.5824C15.0775 30.1728 18.5091 28.7713 21.3823 27.5077C24.4019 26.178 27.5053 25.0522 30.6286 23.9968C30.8958 23.9063 30.7806 23.4769 30.5107 23.566C27.3518 24.6343 24.2143 25.7773 21.1606 27.1228C18.2476 28.4051 14.8032 29.8138 12.6547 32.2664C12.4686 32.479 12.7783 32.7949 12.9673 32.5809L12.9673 32.5824Z" fill="black"/>
<path d="M14.1624 32.7805C21.3525 31.6131 27.7384 27.4976 34.8149 25.8377C35.0905 25.773 34.974 25.3437 34.6983 25.4069C27.6205 27.0668 21.2346 31.1823 14.0459 32.3497C13.7617 32.3942 13.8853 32.8236 14.1624 32.7805Z" fill="black"/>
<path d="M18.8118 32.8006C23.0349 31.1909 27.3987 29.9847 31.7242 28.6952C31.9956 28.6148 31.8805 28.1855 31.6076 28.2644C27.2808 29.5568 22.9184 30.7601 18.6953 32.3698C18.4324 32.4704 18.5531 32.8997 18.8118 32.8006Z" fill="black"/>
<path d="M23.7866 19.7334C23.3248 16.0358 23.717 12.1544 24.7686 8.58753C25.8258 4.99764 28.9618 2.71877 31.9203 0.754385C32.2571 0.530376 31.9416 -0.0195966 31.602 0.205849C28.7402 2.10562 25.6538 4.31411 24.4019 7.68287C23.0279 11.3776 22.6712 15.842 23.1572 19.7334C23.2083 20.1341 23.8378 20.1384 23.7866 19.7334Z" fill="black"/>
<path d="M23.7839 20.0407C25.3469 18.4439 27.3221 17.3282 28.807 15.6481C29.8184 14.493 30.6276 13.1722 31.1999 11.7423C32.6564 8.15243 32.6734 4.17771 32.1363 0.398269C32.0795 -0.00523512 31.4727 0.16565 31.5296 0.566282C32.061 4.31126 32.0227 8.30609 30.4894 11.8242C29.869 13.2664 28.9908 14.5807 27.899 15.7013C26.4908 17.1372 24.7458 18.1611 23.3391 19.597C23.0549 19.8842 23.4982 20.338 23.7839 20.0465L23.7839 20.0407Z" fill="black"/>
<path d="M36.2557 13.6636C38.13 9.89855 40.1407 5.86208 43.6533 3.38506C47.3962 0.744333 52.1309 0.53181 56.5359 0.665354C56.9409 0.678277 56.9409 0.0421498 56.5359 0.0292263C52.0272 -0.107189 47.166 0.139793 43.3365 2.83508C39.7215 5.38103 37.6412 9.4692 35.7129 13.342C35.5311 13.7067 36.0738 14.0298 36.2557 13.6636Z" fill="black"/>
<path d="M36.1974 13.846C44.2231 11.8055 51.6946 7.26356 56.7916 0.619393C57.036 0.299175 56.5941 -0.153154 56.3469 0.1685C51.3095 6.73657 43.9631 11.2168 36.0269 13.2357C35.6347 13.3348 35.801 13.9537 36.1946 13.8489L36.1974 13.846Z" fill="black"/>
<path d="M28.6619 17.6226C32.9959 15.3423 39.0351 14.6545 43.5964 16.6318C45.2675 17.3497 46.7055 18.4985 48.2529 19.4477C50.2568 20.6551 52.4532 21.501 54.7439 21.9477C55.139 22.0267 55.3123 21.4149 54.9116 21.3345C52.3925 20.8287 49.9912 19.8444 47.8351 18.4339C46.1967 17.3727 44.6266 16.2397 42.7523 15.6395C38.164 14.1677 32.5852 14.8426 28.3436 17.0755C27.9855 17.265 28.3024 17.8135 28.6619 17.6254L28.6619 17.6226Z" fill="black"/>
<path d="M28.0125 17.894C28.8296 18.9365 30.3387 19.5123 31.5067 20.0134C33.8487 20.999 36.2743 21.768 38.7537 22.311C43.9161 23.4798 49.8302 24.1533 54.8718 22.1343C55.2441 21.9907 55.0821 21.3704 54.7041 21.5212C49.7662 23.4999 43.9772 22.8423 38.9213 21.6978C36.6406 21.1959 34.4041 20.5067 32.2343 19.6372C31.0037 19.1361 29.317 18.543 28.4587 17.4474C28.2072 17.1272 27.7653 17.5795 28.0139 17.8968L28.0125 17.894Z" fill="black"/>
<path d="M52.0128 10.6869C58.5223 3.13808 69.1654 3.65071 77.903 6.0344C78.2952 6.14066 78.4614 5.52751 78.0707 5.42125C69.1185 2.98013 58.2211 2.52206 51.5681 10.2375C51.3023 10.5447 51.7457 10.9956 52.0128 10.6869Z" fill="black"/>
<path d="M51.8225 10.7142C57.1654 11.2498 62.5608 11.2038 67.9193 10.9712C71.8554 10.8018 76.1169 9.65012 78.301 6.01141C78.5113 5.66103 77.9685 5.34082 77.7581 5.69119C75.3283 9.73772 70.5353 10.2719 66.315 10.3868C61.4752 10.5189 56.6524 10.562 51.8211 10.0781C51.4175 10.0378 51.4204 10.674 51.8211 10.7142L51.8225 10.7142Z" fill="black"/>
<path d="M46.7865 11.6389C49.4949 19.1547 58.079 20.4729 64.975 20.829C65.38 20.8506 65.3786 20.2144 64.975 20.1943C58.4087 19.854 49.9965 18.6808 47.3961 11.4695C47.254 11.0889 46.6515 11.2526 46.7908 11.6389L46.7865 11.6389Z" fill="black"/>
<path d="M47.1063 11.7394C51.5824 12.1573 56.2517 13.1151 59.8553 16.0028C61.6585 17.4488 63.0127 19.4491 64.9708 20.6998C65.3147 20.9181 65.6301 20.3695 65.2877 20.1513C63.1846 18.8158 61.7466 16.6088 59.7459 15.1254C56.1039 12.4244 51.5198 11.5197 47.1106 11.1048C46.7084 11.0674 46.7113 11.7021 47.1106 11.7394L47.1063 11.7394Z" fill="black"/>
<path d="M71.1164 14.2294C73.4397 13.4253 75.8327 12.5924 78.3123 12.5379C79.9975 12.5005 81.3219 12.9227 82.8267 13.5832C85.4313 14.7248 87.9422 16.0875 90.598 17.1257C90.976 17.2693 91.1394 16.659 90.7657 16.5126C87.891 15.3868 85.1798 13.8661 82.3279 12.6843C78.5481 11.1177 74.6433 12.3383 70.9488 13.6163C70.5679 13.7469 70.7313 14.3615 71.1164 14.2294Z" fill="black"/>
<path d="M71.1208 14.4548C77.1929 17.3605 83.9986 18.3219 90.6265 17.2104C91.0244 17.1429 90.8553 16.5298 90.4588 16.5973C83.9952 17.6748 77.36 16.7361 71.4376 13.9063C71.0739 13.7325 70.7542 14.2796 71.1208 14.4548Z" fill="black"/>
<path d="M66.2041 12.9758C67.5057 17.6125 68.7789 24.9359 74.5879 25.8247C74.9843 25.8851 75.1563 25.2733 74.7556 25.2116C69.2038 24.3629 68.0585 17.2521 66.8109 12.8064C66.7 12.4143 66.0933 12.5809 66.2041 12.9758Z" fill="black"/>
<path d="M66.467 13.1093C70.7469 15.6567 73.8859 20.3868 74.3534 25.4126C74.3903 25.8161 75.0198 25.8204 74.9829 25.4126C74.4926 20.1585 71.2684 15.2303 66.7838 12.5608C66.4343 12.3526 66.1174 12.9011 66.467 13.1093Z" fill="black"/>
<path d="M79.1222 18.8719C79.133 23.3274 80.4796 27.675 82.9844 31.3417C83.2132 31.6763 83.7589 31.3589 83.5287 31.02C81.0808 27.451 79.7641 23.2144 79.7531 18.8719C79.7531 18.4626 79.1222 18.4626 79.1236 18.8719L79.1222 18.8719Z" fill="black"/>
<path d="M79.6253 19.2351C83.56 21.8314 84.9895 26.7394 83.1777 31.1062C83.0214 31.4838 83.6296 31.6476 83.7845 31.2756C84.7179 29.0572 84.8448 26.5765 84.1427 24.2726C83.4405 21.9687 81.9546 19.99 79.9478 18.6866C79.6068 18.4626 79.2913 19.0126 79.6295 19.2351L79.6253 19.2351Z" fill="black"/>
<path d="M85.943 22.8466C90.0055 22.1142 94.4333 23.3075 97.5395 26.0674C97.8422 26.3374 98.2884 25.8893 97.9843 25.6179C94.6976 22.6972 90.0737 21.4537 85.7753 22.2334C85.3774 22.3052 85.5465 22.9184 85.943 22.8466Z" fill="black"/>
<path d="M85.7965 23.1036C87.4597 24.4313 89.3806 25.3907 91.4345 25.9196C93.4884 26.4485 95.6294 26.5351 97.7185 26.1737C98.1164 26.1062 97.9473 25.493 97.5508 25.5605C95.5694 25.8991 93.5398 25.8154 91.5922 25.3149C89.6446 24.8144 87.822 23.9081 86.2413 22.6541C85.9258 22.4043 85.4782 22.8523 85.7965 23.1036Z" fill="black"/>
<path d="M90.1263 28.3836C89.8023 31.9103 90.4559 35.6553 92.8759 38.3448C93.1487 38.6478 93.5863 38.2012 93.3206 37.8954C91.0129 35.3308 90.4474 31.7337 90.7557 28.3836C90.7927 27.9772 90.1632 27.9787 90.1263 28.3836Z" fill="black"/>
<path d="M90.2982 28.589C92.5718 30.9971 93.727 34.5697 92.8389 37.8294C92.7309 38.2242 93.3377 38.3922 93.4443 37.9988C94.3949 34.5195 93.1686 30.7113 90.7444 28.1395C90.4602 27.8423 90.0211 28.2917 90.2996 28.589L90.2982 28.589Z" fill="black"/>
<path d="M23.9003 19.2653C26.2291 13.1139 28.8782 7.09119 31.8365 1.22251C31.9644 0.96835 31.585 0.742906 31.4571 0.998506C28.4843 6.90197 25.8224 12.9601 23.4826 19.1476C23.3817 19.4147 23.8065 19.531 23.9088 19.2653L23.9003 19.2653Z" fill="black"/>
<path d="M23.7497 19.4204C24.4843 16.3288 25.155 13.2113 26.0033 10.1499C26.7934 7.29948 27.7938 3.45111 30.4481 1.79832C30.6897 1.65473 30.468 1.26271 30.2265 1.41349C27.8009 2.92411 26.7692 6.11767 25.9635 8.7225C24.8893 12.1875 24.166 15.7745 23.3262 19.3026C23.2594 19.5812 23.6843 19.7004 23.7525 19.4204L23.7497 19.4204Z" fill="black"/>
<path d="M24.014 18.062C23.6858 13.3779 25.5842 8.95942 26.998 4.59986C27.0861 4.32703 26.6613 4.20929 26.5717 4.48068C25.1437 8.88189 23.2395 13.3362 23.5721 18.062C23.592 18.3491 24.0325 18.3491 24.0111 18.062L24.014 18.062Z" fill="black"/>
<path d="M24.2727 19.1906C27.663 14.0617 30.3826 8.51115 32.3637 2.67713C32.4561 2.40717 32.0298 2.28943 31.9374 2.55939C29.966 8.35428 27.2613 13.8672 23.8905 18.9609C23.7327 19.1993 24.1135 19.4233 24.2713 19.1849L24.2727 19.1906Z" fill="black"/>
<path d="M25.2559 18.2343C28.1343 15.3207 30.4362 11.8789 32.0382 8.09353C32.1476 7.83362 31.7682 7.60675 31.6573 7.86953C30.0727 11.6214 27.7939 15.033 24.9432 17.9212C24.9228 17.942 24.9066 17.9666 24.8956 17.9936C24.8846 18.0207 24.8789 18.0497 24.879 18.079C24.8791 18.1082 24.8848 18.1372 24.896 18.1642C24.9071 18.1912 24.9234 18.2158 24.9439 18.2364C24.9645 18.2571 24.9888 18.2734 25.0156 18.2846C25.0424 18.2957 25.0711 18.3014 25.1 18.3013C25.129 18.3013 25.1577 18.2954 25.1844 18.2842C25.2112 18.2729 25.2354 18.2564 25.2559 18.2357L25.2559 18.2343Z" fill="black"/>
<path d="M36.9448 13.5071C39.8394 11.1004 42.7239 8.67942 45.6341 6.28999C48.4078 4.01256 51.5297 1.08321 55.2058 0.567701C55.49 0.52893 55.3663 0.0995794 55.0878 0.136914C51.6008 0.62514 48.6935 3.23283 46.0448 5.3839C42.8788 7.94995 39.7669 10.5864 36.6322 13.1898C36.4134 13.3721 36.7274 13.6852 36.9448 13.5057L36.9448 13.5071Z" fill="black"/>
<path d="M38.3786 12.41C40.553 10.5478 42.5358 8.46851 44.297 6.20385C46.1144 3.85893 48.0213 1.22538 51.1446 0.724232C51.4288 0.679717 51.3052 0.250366 51.0267 0.293445C48.2487 0.740028 46.2934 2.88535 44.6494 5.01918C42.66 7.60391 40.5285 9.97467 38.0674 12.0941C37.8514 12.2794 38.1641 12.5938 38.3786 12.4086L38.3786 12.41Z" fill="black"/>
<path d="M37.2731 13.128L41.6909 6.7222C43.0266 4.78654 44.3382 2.76614 46.5222 1.72938C46.7794 1.60876 46.5564 1.22393 46.3006 1.34598C44.351 2.27074 43.065 3.97234 41.8558 5.71272C40.1947 8.10359 38.5491 10.506 36.8951 12.9026C36.7331 13.1381 37.114 13.3606 37.276 13.128L37.2731 13.128Z" fill="black"/>
<path d="M38.3587 12.7949C44.7332 9.34858 50.5095 4.94162 56.2531 0.531799C56.4762 0.360921 56.2531 -0.025358 56.03 0.148393C50.2864 4.55678 44.5116 8.96086 38.1357 12.41C37.8856 12.545 38.1086 12.9299 38.3587 12.7949Z" fill="black"/>
<path d="M28.5981 17.9844C32.3139 17.736 36.0127 18.4856 39.5154 19.7076C42.7013 20.8233 45.718 22.3497 49.0161 23.1352C49.2917 23.2012 49.4097 22.7719 49.1326 22.7044C45.7009 21.8859 42.5691 20.2633 39.2383 19.1404C35.8138 17.9916 32.2145 17.2909 28.5981 17.5321C28.3139 17.5508 28.3139 17.9959 28.5981 17.9772L28.5981 17.9844Z" fill="black"/>
<path d="M28.6578 17.7145C33.3228 17.2607 38.0206 18.1725 42.5038 19.4376C46.3503 20.5203 50.204 21.9936 54.2566 21.8787C54.5408 21.8701 54.5408 21.425 54.2566 21.4336C49.9568 21.5542 45.9027 19.8655 41.8089 18.7857C37.5303 17.6556 33.0912 16.8414 28.6578 17.2722C28.3736 17.2995 28.3736 17.7446 28.6578 17.7173L28.6578 17.7145Z" fill="black"/>
<path d="M29.3555 17.3382C35.5225 16.6547 41.5759 17.815 47.6136 18.9896C47.8907 19.0427 48.01 18.6134 47.7315 18.5588C41.6583 17.377 35.5623 16.2038 29.3555 16.8917C29.0713 16.9218 29.0713 17.367 29.3555 17.3368L29.3555 17.3382Z" fill="black"/>
<path d="M31.0493 16.402C35.7925 16.313 40.5215 16.4379 45.1823 17.4187C45.4579 17.4775 45.5773 17.0482 45.2988 16.9879C40.6011 15.9999 35.8323 15.8664 31.0493 15.9554C30.7651 15.9554 30.7651 16.4049 31.0493 16.4006L31.0493 16.402Z" fill="black"/>
<path d="M28.7288 18.207C33.4393 19.1116 37.9467 20.2848 42.238 22.5048C42.4895 22.6355 42.7126 22.2521 42.4611 22.1214C38.1385 19.8856 33.5928 18.6895 28.8468 17.7776C28.5697 17.7245 28.4503 18.1524 28.7288 18.2084L28.7288 18.207Z" fill="black"/>
<path d="M47.497 12.0281C52.1232 15.3019 57.3119 17.6772 62.798 19.0327C63.0737 19.1002 63.1902 18.6722 62.9145 18.6019C57.4659 17.2551 52.3129 14.8954 47.7187 11.6432C47.4856 11.4781 47.2654 11.8644 47.497 12.0266L47.497 12.0281Z" fill="black"/>
<path d="M47.443 12.0597C51.3898 13.7332 55.4901 15.0097 59.6847 15.8707C59.9617 15.9296 60.0797 15.5002 59.8026 15.4399C55.6446 14.5882 51.5791 13.3266 47.6646 11.6734C47.4074 11.5628 47.1829 11.9462 47.443 12.0568L47.443 12.0597Z" fill="black"/>
<path d="M47.8721 11.8356C50.9187 13.2544 54.3348 13.9207 57.6257 14.4706C57.9028 14.5166 58.0222 14.0887 57.7437 14.0398C54.4953 13.497 51.1006 12.8509 48.0938 11.4551C47.838 11.3359 47.6149 11.7193 47.8721 11.84L47.8721 11.8356Z" fill="black"/>
<path d="M47.1573 12.2047C51.1361 15.6137 55.6519 18.4267 60.5599 20.2461C60.8257 20.3451 60.9408 19.9143 60.6765 19.8153C55.8452 18.0189 51.3904 15.2389 47.4685 11.883C47.254 11.6992 46.9414 12.0123 47.1573 12.1975L47.1573 12.2047Z" fill="black"/>
<path d="M52.685 10.6452C56.8201 9.3773 60.8741 7.78769 65.11 6.8773C69.238 5.99131 73.4824 5.97409 77.6842 6.07891C77.9684 6.07891 77.9684 5.64812 77.6842 5.6352C73.5989 5.53181 69.4668 5.54185 65.4454 6.35317C61.0404 7.24203 56.8499 8.90199 52.5685 10.2145C52.2971 10.2977 52.4122 10.7271 52.685 10.6452Z" fill="black"/>
<path d="M53.1809 10.3796C56.3142 9.33421 59.1803 7.65127 62.2751 6.5025C65.5128 5.29383 68.9574 4.75331 72.4053 4.9129C72.6895 4.92726 72.6895 4.48211 72.4053 4.46776C69.0687 4.31457 65.7338 4.80784 62.5806 5.92095C59.3266 7.06972 56.3411 8.85318 53.0672 9.94163C52.8001 10.0307 52.9138 10.4614 53.1838 10.3724L53.1809 10.3796Z" fill="black"/>
<path d="M52.4235 10.6194C54.4595 9.22474 56.5848 7.96791 58.7852 6.85719C61.127 5.66104 63.5341 4.597 66.1857 4.41607C66.4699 4.39597 66.4699 3.95082 66.1857 3.97092C63.7402 4.13893 61.4964 5.02205 59.3124 6.09758C56.8452 7.30018 54.4682 8.68333 52.2005 10.236C51.9688 10.3968 52.1891 10.7831 52.4235 10.6208L52.4235 10.6194Z" fill="black"/>
<path d="M60.8798 7.97007C66.3561 7.05743 71.9058 6.67278 77.4541 6.8213C77.7383 6.8213 77.7383 6.39052 77.4541 6.37616C71.8659 6.23196 66.2768 6.62382 60.7619 7.54647C60.4777 7.59242 60.6013 8.02177 60.8798 7.97726L60.8798 7.97007Z" fill="black"/>
<path d="M56.7959 9.33277C60.5174 9.31411 64.2361 9.14179 67.9477 8.88476C71.0198 8.67223 74.217 8.59756 77.0675 7.28797C77.3247 7.17022 77.1016 6.78683 76.8444 6.90458C73.8064 8.30033 70.288 8.28885 67.0155 8.5028C63.6137 8.72394 60.2062 8.8704 56.7959 8.88763C56.7375 8.88763 56.6814 8.91108 56.6401 8.95282C56.5988 8.99456 56.5756 9.05118 56.5756 9.11021C56.5756 9.16924 56.5988 9.22584 56.6401 9.26758C56.6814 9.30932 56.7375 9.33277 56.7959 9.33277Z" fill="black"/>
<path d="M54.3987 10.2791C61.4112 10.1671 68.5601 10.6538 75.405 8.78279C75.433 8.77506 75.4592 8.76183 75.4821 8.74386C75.5051 8.7259 75.5243 8.70355 75.5387 8.67808C75.553 8.65261 75.5623 8.62452 75.566 8.59543C75.5696 8.56634 75.5675 8.53681 75.5599 8.50852C75.5522 8.48024 75.5392 8.45376 75.5214 8.43059C75.5036 8.40742 75.4815 8.388 75.4563 8.37346C75.4311 8.35893 75.4033 8.34956 75.3745 8.34587C75.3457 8.34219 75.3165 8.34428 75.2885 8.35201C68.482 10.2188 61.3715 9.72049 54.4002 9.83249C54.116 9.83249 54.116 10.2819 54.4002 10.2776L54.3987 10.2791Z" fill="black"/>
<path d="M71.7076 14.3529C77.2849 14.4362 82.7912 14.9445 88.2634 16.076C88.5476 16.1335 88.6584 15.7041 88.3813 15.6452C82.8736 14.5065 77.3247 13.991 71.7076 13.9063C71.4234 13.9063 71.4234 14.3471 71.7076 14.3514L71.7076 14.3529Z" fill="black"/>
<path d="M72.2518 14.1878C76.5276 13.2113 80.7024 13.8044 84.9653 14.5281C85.2495 14.574 85.3618 14.1461 85.0818 14.0973C80.7436 13.3606 76.4863 12.7633 72.1353 13.7584C71.8582 13.8216 71.9762 14.2495 72.2518 14.1892L72.2518 14.1878Z" fill="black"/>
<path d="M72.1268 14.4089C77.9528 16.0114 83.9592 16.9261 90.0097 16.7969C90.2939 16.7969 90.2939 16.346 90.0097 16.3517C83.9962 16.481 78.038 15.572 72.2476 13.9795C72.191 13.9639 72.1307 13.9717 72.0798 14.001C72.0289 14.0304 71.9916 14.0789 71.9762 14.1361C71.9607 14.1932 71.9684 14.2542 71.9974 14.3056C72.0264 14.3571 72.0745 14.3947 72.1311 14.4103L72.1268 14.4089Z" fill="black"/>
<path d="M73.4611 14.0111C76.1154 13.2601 78.973 12.8451 81.7254 13.1639C82.0096 13.1955 82.0096 12.7504 81.7254 12.7188C78.9432 12.3971 76.0273 12.8236 73.3417 13.5803C73.3137 13.5882 73.2875 13.6015 73.2646 13.6195C73.2417 13.6376 73.2226 13.66 73.2083 13.6856C73.1793 13.7371 73.1719 13.7982 73.1875 13.8553C73.2032 13.9124 73.2406 13.961 73.2917 13.9902C73.3427 14.0194 73.4031 14.0269 73.4596 14.0111L73.4611 14.0111Z" fill="black"/>
<path d="M66.8492 13.632C68.4862 14.9244 69.7068 17.1358 70.882 18.8489C72.0187 20.5045 73.8177 22.5479 74.1729 24.5697C74.2227 24.8569 74.6475 24.732 74.5992 24.452C74.2283 22.3468 72.4408 20.3394 71.2642 18.6249C70.0578 16.8658 68.8485 14.6544 67.1633 13.3118C66.9416 13.1366 66.629 13.4554 66.8506 13.6263L66.8492 13.632Z" fill="black"/>
<path d="M66.8124 13.6823C68.9126 17.7202 69.9386 23.2357 74.5042 25.3365C74.7599 25.4543 74.983 25.0708 74.7258 24.9531C70.2398 22.8853 69.2622 17.4359 67.1947 13.4568C67.0625 13.2041 66.6817 13.4281 66.8138 13.6823L66.8124 13.6823Z" fill="black"/>
<path d="M67.4205 14.0269C68.3881 15.9784 69.4098 17.904 70.5637 19.7564C71.6692 21.5183 72.9892 22.9973 74.4116 24.495C74.6092 24.7032 74.9189 24.3873 74.7229 24.1806C73.2323 22.601 71.8681 21.0387 70.7285 19.1791C69.6628 17.4373 68.7078 15.628 67.8013 13.7972C67.6734 13.5416 67.294 13.767 67.4205 14.0226L67.4205 14.0269Z" fill="black"/>
<path d="M86.2399 22.858C89.5081 24.294 92.7849 25.5146 96.3132 26.1607C96.5903 26.211 96.7082 25.7817 96.4297 25.73C92.9398 25.0981 89.7028 23.9034 86.4616 22.4804C86.2044 22.3669 85.9798 22.7504 86.2399 22.8638L86.2399 22.858Z" fill="black"/>
<path d="M86.8325 23.0261C90.3712 23.6929 93.8546 24.6309 97.2525 25.8319C97.5196 25.9267 97.6347 25.4959 97.369 25.4011C93.9709 24.2008 90.4875 23.2628 86.949 22.5953C86.6719 22.5422 86.554 22.9715 86.8325 23.0261Z" fill="black"/>
<path d="M79.7119 19.4836C81.2726 22.9597 82.5412 26.5623 83.5045 30.2532C83.5756 30.5289 84.0004 30.4112 83.9308 30.1341C82.956 26.4074 81.6726 22.7702 80.0942 19.261C79.9777 19.0011 79.5983 19.2265 79.7148 19.4864L79.7119 19.4836Z" fill="black"/>
<path d="M80.225 19.9574C82.0055 22.3181 82.9248 24.9431 83.7902 27.7432C83.8754 28.016 84.3003 27.8997 84.2165 27.6254C83.3369 24.7808 82.4175 22.1329 80.6072 19.7277C80.4367 19.5022 80.0545 19.7277 80.2264 19.9517L80.225 19.9574Z" fill="black"/>
<path d="M79.7347 19.7033C80.5645 23.3635 81.2338 27.5479 83.0271 30.8922C83.1691 31.1435 83.5429 30.9195 83.4079 30.6668C82.6974 29.3357 82.2626 27.8193 81.8547 26.3589C81.2253 24.116 80.6739 21.85 80.1595 19.5783C80.0956 19.2912 79.6721 19.4175 79.7332 19.6961L79.7347 19.7033Z" fill="black"/>
<path d="M90.2683 29.2524C91.3156 32.0281 92.0872 34.8928 92.9071 37.7432C92.9867 38.0175 93.4115 37.8997 93.3334 37.624C92.5135 34.7751 91.7419 31.9089 90.6946 29.1346C90.5937 28.869 90.1674 28.991 90.2683 29.2524Z" fill="black"/>
<path d="M90.5369 29.0097C91.56 31.1995 92.2122 33.543 93.2367 35.7328C93.3575 35.9913 93.7369 35.7659 93.6161 35.5074C92.593 33.3176 91.9408 30.9741 90.9163 28.7842C90.7955 28.5258 90.4147 28.7512 90.5354 29.0097L90.5369 29.0097Z" fill="black"/>
<path d="M90.3707 31.883C91.1863 33.4339 91.7917 35.0421 91.8315 36.8098C91.8386 37.097 92.2791 37.097 92.272 36.8098C92.2265 34.9646 91.6013 33.273 90.7501 31.659C90.6165 31.4063 90.2371 31.6303 90.3707 31.883Z" fill="black"/>
</svg>
