<svg width="95" height="134" viewBox="0 0 95 134" fill="none" xmlns="http://www.w3.org/2000/svg">
<path d="M34.8362 132.937C34.5672 132.613 34.4958 132.534 34.3268 132.33C8.25385 100.928 12.5996 54.1597 44.0142 28.076C55.2524 18.7189 69.0216 12.9193 83.5661 11.417C86.5211 11.1117 93.7627 9.84953 93.7627 9.84953C75.378 9.21966 57.4011 15.3739 43.2563 27.1401C11.3328 53.6462 6.9146 101.178 33.4126 133.092C33.5811 133.295 33.7504 133.497 33.9205 133.697C34.6695 134.581 35.4077 133.284 34.8362 132.937Z" fill="black"/>
<path d="M37.5601 80.0407C37.053 78.5134 36.2057 77.0906 34.5915 76.6302C33.2007 76.2279 31.7175 76.4661 30.3926 76.9805C27.3024 78.1781 25.1795 80.7617 23.6254 83.5982C21.4377 87.6039 20.2527 96.9123 20.342 96.9968C19.6311 97.6473 18.718 97.7214 18.0597 98.4321C17.7706 98.7433 18.4155 99.8497 18.7046 99.5385C20.7977 97.2568 23.2104 95.2904 25.8675 93.7007C28.3524 92.2258 31.1376 91.3335 33.584 89.8057C36.9733 87.6758 38.8793 83.997 37.5601 80.0407ZM37.1007 84.3409C37.0895 84.331 37.0763 84.3239 37.062 84.32C37.0477 84.3161 37.0326 84.3156 37.0181 84.3184C37.0035 84.3213 36.9898 84.3274 36.9779 84.3364C36.9661 84.3454 36.9565 84.357 36.9499 84.3703C35.4234 87.827 32.0129 89.1235 28.7657 90.4651C29.3894 90.0622 29.9955 89.6382 30.5853 89.1814C33.2763 87.083 35.5359 84.4839 37.2395 81.5274C37.2722 81.7547 37.2984 81.9874 37.3112 82.2204C37.3507 82.9317 37.2819 83.6448 37.1072 84.3355L37.1007 84.3409ZM22.4238 91.1061C22.3758 91.2682 22.3296 91.4324 22.2853 91.5987C22.2979 91.4623 22.3149 91.3278 22.3306 91.1917C22.344 91.1915 22.3572 91.1879 22.3689 91.1811C22.3805 91.1743 22.3902 91.1646 22.397 91.153L22.4238 91.1061ZM21.6805 94.5665C21.7685 94.4547 21.8623 94.3476 21.9616 94.2455C21.8301 94.4532 21.6989 94.6579 21.5734 94.8661C21.6148 94.7742 21.6471 94.6681 21.6805 94.5665ZM21.9805 93.9617C21.9805 93.9617 21.9886 93.955 21.9934 93.9509L21.9805 93.9617ZM21.9234 93.7545C21.9476 93.6715 21.9691 93.5853 21.9886 93.5034L21.9853 93.684C21.9718 93.7007 21.9499 93.7271 21.9283 93.7505L21.9234 93.7545ZM22.1741 93.7927L22.1742 93.7433C22.3061 93.5955 22.4363 93.4491 22.5709 93.3045C22.4876 93.4284 22.4013 93.552 22.3262 93.6692C22.273 93.7106 22.226 93.7496 22.179 93.7886L22.1741 93.7927ZM22.1748 93.4637C22.1748 93.1901 22.1858 92.9264 22.1988 92.6584L22.2126 92.6059C22.4084 91.7984 22.659 91.0052 22.9626 90.2318C26.1389 85.2573 30.399 81.0653 35.4241 77.9694C35.4882 78.0202 35.5477 78.072 35.6098 78.1271C32.718 80.9245 29.9928 83.889 27.4482 87.0055C26.0092 88.7476 24.5378 90.5166 23.2142 92.3845C22.8627 92.7229 22.5166 93.0841 22.1829 93.457L22.1748 93.4637ZM22.016 92.6131C21.8883 93.1187 21.7689 93.6146 21.6167 94.1105C21.5394 94.202 21.4581 94.2887 21.3821 94.3819C21.3718 94.3962 21.3659 94.4133 21.3652 94.4309C21.3645 94.4486 21.369 94.466 21.378 94.4812C21.3871 94.4963 21.4004 94.5085 21.4163 94.5162C21.4322 94.5238 21.4501 94.5267 21.4676 94.5244C21.3836 94.6356 21.3064 94.7518 21.2363 94.8723C21.8068 91.6621 22.2006 88.3579 23.4784 85.3731C22.6341 87.6985 22.1434 90.1371 22.0225 92.6077L22.016 92.6131ZM21.9998 94.5422L22.0013 94.5902C21.9738 94.6131 21.9478 94.6346 21.9203 94.6575C21.9514 94.6125 21.9776 94.5715 22.0022 94.5319L21.9998 94.5422ZM22.1824 94.251C22.2787 94.0999 22.3736 93.9472 22.4742 93.798C23.069 93.3637 23.7136 93.0021 24.3943 92.721C23.6176 93.2339 22.8787 93.8017 22.1831 94.4201L22.1824 94.251ZM37.1893 81.279C37.1806 81.2815 37.1725 81.2858 37.1655 81.2916C37.1585 81.2974 37.1528 81.3045 37.1488 81.3126C35.1258 84.867 32.3016 87.9007 28.9006 90.1725C28.3922 90.5098 27.8693 90.8098 27.3405 91.0929C26.8002 91.339 26.2721 91.5997 25.7643 91.8817C25.054 92.2197 24.3385 92.5483 23.6241 92.898C23.331 93.0407 23.0457 93.199 22.7695 93.3722C22.9707 93.0738 23.1765 92.7743 23.3941 92.4759C25.4825 90.4081 27.8488 88.6486 30.0462 86.6791C32.5024 84.4673 34.521 81.8472 36.4926 79.2167C36.8411 79.8558 37.0775 80.5498 37.1917 81.2688L37.1893 81.279ZM36.3678 79.0467C34.1034 82.0598 31.7796 84.9552 28.8937 87.4143C27.2583 88.8078 25.5788 90.1448 24.0163 91.6063C25.0437 90.206 26.1635 88.8576 27.256 87.529C29.8934 84.2676 32.7277 81.1703 35.7431 78.2546C35.9806 78.4911 36.191 78.7533 36.3703 79.0364L36.3678 79.0467ZM35.268 77.8473C30.5159 80.7885 26.446 84.7098 23.3303 89.3491C23.6028 88.7179 23.9014 88.095 24.2251 87.4595C26.2411 83.4514 28.6007 79.511 32.5221 77.1252C33.4947 77.0169 34.473 77.2703 35.2704 77.837L35.268 77.8473ZM32.0863 77.1806C28.9302 79.2155 26.7911 82.2476 25.0047 85.5233C24.1671 87.0698 23.3135 88.6597 22.6858 90.3139C22.5715 90.4927 22.4607 90.6758 22.3536 90.8633C22.6842 88.1535 23.4648 85.5177 24.6634 83.0647C26.338 80.2677 28.8481 77.6855 32.0887 77.1703L32.0863 77.1806ZM21.5423 95.2969C21.6936 95.1494 21.8463 95.0035 22.0029 94.8625C22.0133 95.0892 22.0236 95.316 22.0382 95.5447C21.6671 95.8528 21.5924 95.8848 21.2199 96.2077C21.2856 95.8873 21.3949 95.5774 21.5448 95.2867L21.5423 95.2969ZM32.4766 89.7018C29.9336 91.1264 27.1811 92.0846 24.7044 93.6484C23.8489 94.189 23.0215 94.7728 22.2254 95.3975C22.2097 95.1642 22.1969 94.9313 22.1904 94.6959C24.7988 92.407 27.8233 91.1764 31.0928 89.7233C33.5637 88.624 35.8164 87.1695 37.011 84.678C36.3396 86.85 34.6056 88.5005 32.479 89.6915L32.4766 89.7018Z" fill="black"/>
<path d="M18.6454 99.0814C17.5309 97.6369 16.3414 96.2439 15.1194 94.8777C15.1384 94.8258 15.1421 94.7695 15.13 94.7156C14.0774 89.821 14.1845 84.6284 12.4629 79.8843C11.2026 76.3881 8.24484 72.0081 4.01551 72.3481C-0.213828 72.6881 -0.718226 76.845 0.738149 80.0498C2.69896 84.36 6.85827 87.091 10.0544 90.4029C12.8606 93.3079 15.3207 97.7974 17.7939 101.003C18.0564 101.333 18.9017 99.4132 18.6454 99.0814ZM7.13903 85.84C7.45094 86.5237 7.80917 87.1854 8.2112 87.8203C6.85603 86.6003 5.48926 85.3763 4.27452 84.0452C5.21464 84.6301 6.18415 85.2207 7.1439 85.8359L7.13903 85.84ZM11.3941 90.8558C11.3403 90.7911 11.2768 90.7343 11.2195 90.6752C10.2956 89.5429 9.50068 88.3113 8.84941 87.0031C9.46761 87.4476 10.0647 87.9096 10.6305 88.4031C10.86 89.3245 11.1848 90.2196 11.5997 91.0737L11.3941 90.8558ZM10.237 89.6931C9.74424 89.2183 9.23745 88.7497 8.72581 88.2852C8.29078 87.6845 7.90719 87.0482 7.57908 86.3831C7.51865 86.2609 7.46146 86.1359 7.40429 86.011C7.78343 86.2599 8.16201 86.5148 8.53251 86.7764C9.03548 87.7853 9.6049 88.7596 10.237 89.6931ZM12.2965 91.8142C12.2965 91.8142 12.2871 91.8028 12.2817 91.7963C12.2441 91.751 12.2078 91.7072 12.1569 91.6756L12.0127 91.5217C11.4848 90.5866 11.0746 89.5899 10.7915 88.554C10.9048 88.6542 11.0151 88.7542 11.1252 88.8571C11.5805 90.1634 12.203 91.4052 12.9772 92.5516L12.2965 91.8142ZM10.7147 88.2374C10.6511 87.9728 10.5936 87.7058 10.544 87.435C10.5184 87.2756 10.4975 87.1152 10.4711 86.9482C10.6402 87.4618 10.811 87.9741 10.9912 88.4813C10.9015 88.3997 10.8062 88.3146 10.7093 88.2309L10.7147 88.2374ZM14.2919 93.8216C12.9421 92.4795 12.0909 90.8411 11.4075 89.1179C12.5371 90.1839 13.4598 91.4496 14.1293 92.851C14.1759 93.1709 14.2294 93.4958 14.2878 93.8168L14.2919 93.8216ZM14.3202 93.9678L14.3274 94.0028L14.3072 93.9786C14.3117 93.9744 14.3149 93.9689 14.3161 93.9629L14.3202 93.9678ZM13.8115 90.5097C13.2531 89.003 12.6076 87.5332 12.0841 86.0058C11.2469 83.5567 11.1904 80.752 10.9826 78.1443C11.1043 78.3799 11.2233 78.6122 11.332 78.8421C13.0246 82.45 13.3282 86.5216 13.8075 90.5049L13.8115 90.5097ZM10.7524 77.7252C10.9759 80.2761 11.0277 83.0025 11.7117 85.4749C12.286 87.4855 13.2157 89.3899 13.912 91.3759L14.0332 92.2604C13.3107 90.9317 12.3687 89.7348 11.2471 88.7203C10.9405 87.8994 10.6642 87.0588 10.3922 86.2201C10.2755 84.6751 10.3544 83.1017 10.0779 81.5553C9.50737 78.4415 7.73212 75.7396 5.92473 73.1902C8.03277 73.8398 9.65856 75.7847 10.7551 77.7284L10.7524 77.7252ZM4.55541 72.9753C4.91847 72.9831 5.27962 73.0301 5.63259 73.1153C8.16669 76.7278 9.97322 80.1071 10.1273 84.6614C10.138 84.9644 10.1568 85.2608 10.1786 85.5574C9.85596 84.5719 9.52222 83.593 9.12178 82.6557C7.62782 79.1905 5.5914 75.9855 3.08905 73.1612C3.56687 73.0271 4.06207 72.9655 4.55811 72.9785L4.55541 72.9753ZM2.8894 73.2175C5.70857 76.3844 7.93425 80.0333 9.45994 83.9895C9.74346 84.7365 9.99702 85.5002 10.2509 86.2609C10.319 86.8797 10.4232 87.494 10.5629 88.1007C9.95698 87.5885 9.32297 87.1052 8.6676 86.6423C7.95234 85.2467 7.29325 83.81 6.51215 82.4472C4.97318 79.7928 3.10801 77.3415 0.960097 75.1505C1.11006 74.7009 1.36276 74.2924 1.69813 73.9574C2.03349 73.6224 2.4423 73.3702 2.8921 73.2207L2.8894 73.2175ZM0.890128 75.3564C3.47993 78.0272 5.65256 81.0729 7.33496 84.3911C7.68143 85.0721 8.00744 85.7483 8.3539 86.4294C7.99417 86.1807 7.62957 85.9362 7.26011 85.6956C6.95384 84.9122 6.5955 84.1502 6.18748 83.4146C5.00659 81.4616 3.11151 80.2903 1.18724 79.1597C1.17587 79.1527 1.16315 79.1482 1.14991 79.1465C1.13667 79.1447 1.12321 79.1458 1.11041 79.1496C0.685017 77.8855 0.556746 76.4979 0.89282 75.3596L0.890128 75.3564ZM1.19432 79.3892C3.88747 80.9842 5.69106 82.609 6.99055 85.5226C5.93359 84.8431 4.86309 84.1968 3.83762 83.5486C2.97571 82.572 2.23033 81.4983 1.61654 80.3494C1.45706 80.0394 1.31695 79.7198 1.19701 79.3924L1.19432 79.3892Z" fill="black"/>
<path d="M39.9643 61.2476C40.7871 58.7337 40.0836 56.8412 37.3604 56.2618C33.4055 55.4189 30.1844 58.8295 27.6946 61.3866C24.0695 65.1052 21.672 69.567 19.5905 74.2809C19.559 74.3417 19.5518 74.4121 19.5704 74.478C19.589 74.5439 19.632 74.6002 19.6906 74.6355C18.5038 75.5142 17.3405 75.432 16.5045 76.9772C16.3062 77.3417 16.9423 78.9453 17.1442 78.5751C19.9868 73.347 25.2329 73.1205 30.0723 70.8511C34.0925 68.9634 38.5251 65.647 39.9643 61.2476ZM32.3916 68.824C28.6835 70.3413 24.9951 71.9087 21.3265 73.5263C23.4041 70.3673 27.2246 69.2448 30.6703 68.0038C33.9768 66.8128 36.3532 65.1051 38.7361 62.6203C37.9275 63.901 36.9587 65.0732 35.8532 66.1086C34.7898 67.1235 33.6305 68.0329 32.3916 68.824ZM20.4808 73.8727C20.6307 73.7236 20.7793 73.5729 20.932 73.427C20.9408 73.4328 20.9507 73.4367 20.9611 73.4386C20.9715 73.4404 20.9822 73.4401 20.9925 73.4377C21.0028 73.4353 21.0125 73.4309 21.021 73.4246C21.0295 73.4183 21.0367 73.4104 21.042 73.4013C21.0877 73.3277 21.1345 73.2588 21.1803 73.1853C21.226 73.1117 21.2661 73.114 21.3099 73.0776C21.2262 73.2538 21.1455 73.4303 21.0661 73.6084C21.0483 73.6232 21.0399 73.6493 21.0275 73.6706C20.8434 73.7523 20.6597 73.831 20.4772 73.9113C20.4797 73.8986 20.4809 73.8857 20.4808 73.8727ZM21.7543 72.6402C21.7106 72.6765 21.6789 72.7274 21.6432 72.7735C21.6562 72.7627 21.6613 72.7393 21.6689 72.722C21.6765 72.7048 21.7359 72.6609 21.7624 72.6335L21.7543 72.6402ZM39.0345 62.0797C39.0223 62.0786 39.01 62.0804 38.9986 62.0851C38.9872 62.0898 38.9771 62.0971 38.9692 62.1066C37.4477 63.7394 35.9051 65.3403 33.9239 66.4161C32.0765 67.4191 30.038 68.0007 28.0748 68.7223C26.5346 69.2841 25.0201 69.956 23.707 70.8738C28.5054 66.6947 33.8678 63.2114 39.6365 60.5264C39.502 61.0641 39.3026 61.5834 39.0426 62.073L39.0345 62.0797ZM39.6892 60.2965C33.171 63.3112 27.1717 67.3402 21.9147 72.2334C21.9513 72.162 21.9848 72.0903 22.0149 72.0243C23.0872 70.8165 24.124 69.5561 25.1765 68.3046C26.7142 66.8218 28.4312 65.5368 30.2875 64.4796C33.4652 62.6621 36.9098 61.4001 39.7188 58.9967C39.7878 59.4256 39.7805 59.8633 39.6974 60.2897L39.6892 60.2965ZM39.6585 58.6801C39.6663 58.7092 39.6681 58.7378 39.6759 58.7669C36.506 61.5138 32.501 62.7868 29.0029 65.0098C27.9891 65.6538 27.0233 66.3706 26.1133 67.1546C29.5928 63.0232 33.2838 59.1267 38.6477 57.5847C38.6621 57.58 38.6752 57.572 38.686 57.5615C38.6969 57.5509 38.7052 57.538 38.7103 57.5237C38.7154 57.5095 38.7171 57.4942 38.7153 57.4792C38.7136 57.4642 38.7085 57.4497 38.7003 57.437C39.1722 57.7106 39.5203 58.1558 39.672 58.6798L39.6585 58.6801ZM38.6566 57.4075C38.6566 57.4075 38.6337 57.3965 38.6167 57.4024C32.7799 59.0771 28.9099 63.5163 25.1603 68.028C24.284 68.8642 23.4659 69.7593 22.7116 70.707C25.7023 65.2947 29.8505 60.6086 34.8602 56.983C34.8706 56.976 34.8791 56.9668 34.8853 56.9559C34.8915 56.9451 34.8951 56.933 34.896 56.9206C34.9074 56.9186 34.9187 56.9156 34.9297 56.9117C35.9666 56.6966 37.5991 56.7504 38.6701 57.4073L38.6566 57.4075ZM34.4954 57.0315C29.2589 60.8785 24.982 65.8832 21.9984 71.6549C21.8581 71.8453 21.7221 72.0376 21.5888 72.2331C21.3556 72.4897 21.1194 72.7459 20.8821 72.9977C22.8494 68.7727 25.1556 64.8274 28.5044 61.4914C30.1919 59.8112 32.1428 57.7097 34.5021 57.0232L34.4954 57.0315ZM20.3519 74.1659L20.4409 74.1248L20.3405 74.1917L20.3519 74.1659ZM25.8099 71.7877C27.6389 70.9988 29.4757 70.2271 31.3204 69.4726C30.2318 70.0887 29.0946 70.6146 27.9202 71.0453C27.2149 71.2971 26.509 71.5383 25.8167 71.7793L25.8099 71.7877Z" fill="black"/>
<path d="M17.5284 79.2851C17.0631 77.8722 16.4545 76.5106 15.7121 75.2216C15.7562 75.1604 15.7775 75.0856 15.7721 75.0103C15.6181 72.5019 15.8113 69.984 16.3462 67.5281C16.6945 65.8242 16.9738 64.1856 16.8309 62.4407C16.5325 58.7479 14.7275 53.7583 10.9294 52.2899C7.56727 50.9904 3.79132 54.3855 4.01967 57.7862C4.25252 61.3638 7.32556 64.4714 9.36395 67.1902C12.2 70.9817 14.835 75.9061 16.2913 80.4791C16.424 80.8862 17.6589 79.683 17.5284 79.2851ZM15.1064 69.8793C15.0668 69.7261 15.0347 69.5721 14.9994 69.4208C14.908 68.1768 14.6582 66.9497 14.256 65.7691C13.7143 62.4193 13.5542 59.0187 13.7787 55.6325C14.7908 57.0455 15.5018 58.6515 15.8676 60.3508C15.8543 60.3634 15.8449 60.3797 15.8409 60.3977C15.3882 62.4486 15.1319 64.538 15.0756 66.6374C15.0412 68.2149 15.2311 69.7922 15.1309 71.3695L15.1068 71.7097C15.091 71.8952 15.068 72.0785 15.0404 72.2629C15.0204 72.1563 14.9988 72.0512 14.9728 71.9441C15.031 71.2925 15.0489 70.6379 15.0263 69.9841C15.0392 69.9856 15.0523 69.984 15.0643 69.9792C15.0764 69.9745 15.0871 69.9668 15.0954 69.9569C15.1038 69.947 15.1095 69.9351 15.1121 69.9224C15.1147 69.9097 15.1141 69.8966 15.1104 69.8842L15.1064 69.8793ZM14.5473 73.3209C14.2642 71.9578 13.9992 70.5769 13.6881 69.2098C14.1681 70.0661 14.5335 70.9817 14.7749 71.9332C14.7417 72.42 14.6837 72.9048 14.6011 73.3857L14.5473 73.3209ZM14.7341 73.5953C14.7439 73.5873 14.752 73.5805 14.7601 73.5738C14.8265 73.245 14.8738 72.9129 14.9168 72.5789L14.9506 72.7944C14.9198 72.9486 14.902 73.1084 14.8543 73.252C14.8492 73.2706 14.8498 73.2902 14.856 73.3084C14.8622 73.3267 14.8736 73.3426 14.8889 73.3543C14.9042 73.366 14.9226 73.3728 14.9418 73.374C14.961 73.3752 14.9801 73.3706 14.9967 73.3609C15.0001 73.4211 15.0081 73.4801 15.0101 73.5386C15.0119 73.5581 15.0195 73.5765 15.032 73.5916C15.0445 73.6066 15.0612 73.6175 15.08 73.6228C15.0832 73.7981 15.0915 73.9664 15.0978 74.1554L14.7341 73.5953ZM15.5617 68.133C15.4659 68.6176 15.3867 69.0992 15.3178 69.5833C15.2932 68.8184 15.2524 68.0505 15.2523 67.2789C15.2659 65.0951 15.5013 62.9184 15.9547 60.782C16.0294 61.1688 16.0882 61.5605 16.1311 61.9573C16.3652 64.1054 15.9771 66.0449 15.5658 68.1378L15.5617 68.133ZM13.6661 55.477C13.647 55.4786 13.6291 55.4872 13.616 55.5012C13.6028 55.5151 13.5952 55.5335 13.5947 55.5526C13.3826 58.6668 13.4949 61.7944 13.9299 64.885C13.2491 63.2309 12.3457 61.7043 11.9661 59.9315C11.5368 57.9373 11.6601 55.58 11.7682 53.5473C12.1779 53.8409 12.5557 54.1766 12.8954 54.5488C13.1753 54.8529 13.4321 55.1623 13.6701 55.4819L13.6661 55.477ZM11.5951 53.4311C11.5951 53.4311 11.5951 53.4311 11.5837 53.4405C11.4115 56.6457 11.4471 59.9164 12.8001 62.8813C13.3542 64.0727 13.8196 65.3034 14.1927 66.5632C14.3372 67.3737 14.5106 68.1793 14.7005 68.9849C14.8052 69.7783 14.8428 70.5792 14.813 71.379C14.5035 70.4508 14.089 69.561 13.5774 68.727C13.2283 67.1557 12.7522 65.6153 12.154 64.1211C10.5952 60.361 8.78189 56.9901 8.01664 52.9461C9.3256 52.4585 10.5433 52.7446 11.5991 53.436L11.5951 53.4311ZM7.77405 53.0462C7.79349 53.0301 7.82207 53.0282 7.84555 53.017C8.51797 56.5634 9.88288 59.6581 11.412 62.9174C12.1717 64.591 12.7725 66.3323 13.2063 68.1184C12.6485 67.2324 12.0455 66.3676 11.4969 65.4959C9.27754 61.9723 7.32082 58.31 5.9244 54.3795C6.44991 53.8201 7.0802 53.3693 7.77943 53.0527L7.77405 53.0462ZM5.80005 54.5429C7.02056 57.8774 8.57256 61.0809 10.4327 64.1054C11.3018 65.5511 12.4168 67.0061 13.3316 68.5397C13.6598 69.8681 13.9373 71.2112 14.2166 72.55C12.2965 67.0458 6.90711 63.6312 4.73244 58.2589C4.6725 57.8707 4.65592 57.4769 4.68301 57.085C4.7746 56.1403 5.16602 55.2495 5.80005 54.5429ZM7.44258 63.5177C6.48718 62.2121 5.42043 60.7526 4.93639 59.1541C7.27742 63.9915 12.1191 67.3135 13.9756 72.4246C13.1032 71.143 12.1808 69.9003 11.2929 68.6891C10.0123 66.9556 8.70208 65.2523 7.43205 63.5183L7.44258 63.5177Z" fill="black"/>
<path d="M22.8784 55.8927C22.9583 54.8877 22.2277 54.6078 21.9641 53.5979C21.9855 53.5588 21.9991 53.5159 22.0042 53.4715C22.5962 47.7286 25.9655 41.7567 24.1396 35.9307C22.9001 31.9848 18.2037 28.4519 14.2199 31.2835C9.93666 34.3281 12.4162 40.1697 15.0104 43.3601C17.9352 46.952 22.0358 51.5544 21.6327 56.5685C21.5917 56.9939 22.8439 56.3127 22.8784 55.8927ZM20.6176 50.176C19.9095 47.2064 19.6698 44.1217 18.4909 41.294C17.2613 38.3524 15.2829 35.8082 13.3217 33.3209C13.8604 32.3994 14.6978 31.6897 15.695 31.3093C18.2713 33.929 20.071 37.2115 20.8943 40.7926L20.964 41.137C20.929 41.6751 20.8907 42.2158 20.851 42.755C20.633 45.6087 20.7351 48.4777 21.1554 51.3084C20.9877 50.925 20.8059 50.5478 20.6176 50.176ZM21.4608 52.0455C20.8569 48.6474 20.915 45.3345 21.1126 41.9358C21.6681 45.292 21.4853 48.8042 21.5117 52.1893L21.4616 52.053L21.4608 52.0455ZM23.9096 37.9715C24.3691 41.6045 23.2226 45.1397 22.2982 48.682C22.0359 46.3908 22.1443 44.0721 22.6193 41.815C23.0153 39.951 23.4523 38.1132 23.5307 36.2228C23.7064 36.7926 23.8323 37.3766 23.9069 37.9683L23.9096 37.9715ZM23.3538 35.6965C23.3501 37.9736 22.7612 40.1428 22.3227 42.3677C21.8721 44.6574 21.8865 46.7882 22.1475 49.0808C22.1484 49.0919 22.1516 49.1026 22.1569 49.1124C22.1622 49.1221 22.1694 49.1307 22.1781 49.1375C21.9966 49.8355 21.834 50.5398 21.694 51.2416C21.6966 47.8981 21.813 44.4411 21.1586 41.1669L21.1874 40.6806C21.3849 37.6213 21.3505 34.5795 20.1531 31.7262C21.6719 32.5695 22.7281 34.046 23.3484 35.69L23.3538 35.6965ZM18.8141 31.1851C19.1863 31.2829 19.548 31.417 19.894 31.5856C21.1623 34.432 21.1928 37.4361 21.0093 40.4727L20.9393 40.1642C20.0584 36.805 18.3197 33.7327 15.8936 31.2484C16.8378 30.9414 17.8511 30.9171 18.8087 31.1786L18.8141 31.1851ZM13.2297 33.5068C15.1656 35.9604 17.1138 38.4749 18.3263 41.376C19.415 43.983 19.6987 46.8041 20.2888 49.5459C20.1419 49.2766 19.9944 49.0132 19.845 48.7542C19.569 46.3448 18.7771 44.0233 17.5234 41.9477C16.2696 39.8722 14.5832 38.0912 12.5791 36.726C12.5567 36.3031 12.5711 35.8792 12.6221 35.4588C12.6989 34.7742 12.9031 34.1099 13.2243 33.5003L13.2297 33.5068ZM13.4484 39.8764C14.8977 41.406 16.1519 43.1093 17.1824 44.9473C15.8197 43.3094 14.3531 41.6948 13.443 39.8699L13.4484 39.8764ZM17.7881 45.6868C16.5943 43.3571 15.0505 41.2243 13.2105 39.3624C12.8781 38.6029 12.6695 37.795 12.5924 36.9695C14.4829 38.2812 16.0817 39.9695 17.2886 41.9285C18.4954 43.8876 19.2842 46.0751 19.6055 48.3537C19.4451 48.0846 19.2844 47.8185 19.1258 47.5616C18.7164 46.9106 18.2693 46.284 17.7868 45.6851L17.7881 45.6868Z" fill="black"/>
<path d="M50.166 42.0334C49.7793 37.2153 43.8641 36.5141 40.3242 38.0932C34.8296 40.5428 30.9254 45.7684 27.0881 50.1778C27.0508 50.2189 27.0267 50.2704 27.0191 50.3254C25.5936 51.2134 25.1766 51.0343 24.1493 52.4017C23.8954 52.7356 23.5733 54.4315 23.8272 54.0976C25.8276 51.4378 28.7778 49.653 32.062 49.1156C34.9615 48.6511 37.9397 49.2705 40.8513 49.2229C44.9372 49.1388 50.5755 47.1062 50.166 42.0334ZM47.5236 46.5069C47.3908 46.6172 47.2595 46.7262 47.1315 46.8325C47.1315 46.8325 47.1315 46.8325 47.1137 46.8308C43.6642 47.5789 40.1296 47.858 36.6058 47.6607C37.7403 47.4412 38.8775 47.2413 40.0194 47.0703C42.5806 46.6896 45.1542 46.4492 47.7392 46.3115C47.669 46.3753 47.5971 46.4404 47.5253 46.5055L47.5236 46.5069ZM32.3427 48.4118C32.1944 48.431 32.0471 48.4548 31.8985 48.4769C32.2696 48.1688 32.6553 47.8485 33.0458 47.5243C33.3812 47.5523 33.7025 47.5865 33.9931 47.6134C34.4358 47.6564 34.8782 47.6968 35.3203 47.7347C34.3258 47.9438 33.3339 48.169 32.3444 48.4105L32.3427 48.4118ZM31.6975 47.4698C31.1264 47.9226 30.5786 48.404 30.0561 48.9121C29.8742 48.97 29.6951 49.0312 29.5116 49.0905C30.2382 48.5611 30.9581 48.0235 31.6592 47.4633L31.6975 47.4698ZM31.9981 47.4692C32.2624 47.4742 32.5228 47.4879 32.7784 47.5055C32.3503 47.8473 31.9438 48.1985 31.5436 48.5308C31.1692 48.6008 30.7988 48.6922 30.4332 48.7959C30.9416 48.33 31.4599 47.886 31.9998 47.4679L31.9981 47.4692ZM35.7274 47.6019C35.0982 47.5497 34.2367 47.4057 33.3242 47.3123C35.6642 45.5144 38.4847 43.936 41.3033 44.1489C43.7922 44.3373 46.0662 45.4539 48.5914 45.2673C48.3956 45.5692 48.1731 45.8529 47.9264 46.115C43.8872 46.3189 39.8684 46.8203 35.9027 47.6151C35.8479 47.6086 35.7884 47.606 35.729 47.6005L35.7274 47.6019ZM48.7096 45.0733C45.6595 45.3564 42.8077 43.5703 39.7638 43.996C37.3898 44.3252 35.0417 45.7275 33.0544 47.2873C32.8037 47.2656 32.554 47.2485 32.3052 47.2389C34.2132 45.8072 36.3615 44.7277 38.649 44.0514C42.1341 43.0294 45.776 43.0733 49.3692 43.141C49.3881 43.1399 49.4061 43.1326 49.4205 43.1203C49.3118 43.8104 49.071 44.4731 48.7112 45.072L48.7096 45.0733ZM49.4378 42.9829C49.4309 42.9751 49.4225 42.9689 49.4132 42.9644C49.4038 42.9599 49.3937 42.9574 49.3833 42.9569C45.7704 42.8918 42.0922 42.8372 38.59 43.865C36.203 44.5722 33.9673 45.715 31.9959 47.2358L31.9555 47.2365C32.2795 46.9674 32.6036 46.6983 32.9183 46.4179C34.5563 44.9484 36.0954 43.2873 38.0787 42.27C39.2228 41.8509 40.4016 41.4934 41.5845 41.1707C44.1196 40.7816 46.7881 41.0808 49.3102 41.3785C49.3102 41.3785 49.3215 41.369 49.328 41.3637C49.4641 41.8906 49.5029 42.4379 49.4426 42.9788L49.4378 42.9829ZM33.8483 45.3091C33.1155 45.986 32.3652 46.6254 31.5974 47.2437C31.1668 47.2523 30.7386 47.3095 30.3208 47.4143C30.853 46.8055 31.3891 46.2016 31.935 45.6061C33.4844 44.3737 35.2105 43.3815 37.0552 42.6628C35.9187 43.4527 34.8494 44.3351 33.8581 45.301L33.8483 45.3091ZM49.2833 41.1846C47.1872 40.9383 44.988 40.69 42.8446 40.8386C44.6901 40.3708 46.5263 39.9709 48.2437 39.5466C48.2607 39.5404 48.275 39.5285 48.2842 39.513C48.7507 39.9772 49.097 40.5482 49.2931 41.1765L49.2833 41.1846ZM48.1523 39.3871C46.0865 39.8929 43.8494 40.3738 41.6235 40.9769C40.5799 41.1222 39.5605 41.4071 38.5927 41.8241C38.393 41.9133 38.1987 42.0089 38.0084 42.1095C36.1285 42.7657 34.3442 43.6692 32.7026 44.7963C33.1003 44.3785 33.5048 43.9688 33.916 43.5672C33.9272 43.5794 33.9423 43.5874 33.9587 43.5898C33.9751 43.5921 33.9918 43.5886 34.006 43.58C37.9606 41.4814 41.9337 39.425 46.2956 38.3017C46.2956 38.3017 46.3102 38.2896 46.3167 38.2842C46.7567 38.4452 47.1757 38.6587 47.5646 38.92C47.7721 39.056 47.9695 39.2067 48.1553 39.371L48.1523 39.3871ZM39.2236 39.412C41.2642 38.2131 43.7719 37.4745 46.0319 38.1786C41.8714 39.2906 38.0512 41.2311 34.262 43.2388C35.7603 41.7718 37.4237 40.4834 39.2188 39.3996L39.2236 39.412ZM30.0644 47.7285C30.4637 47.6 30.8779 47.5237 31.2968 47.5016C30.486 48.1473 29.6578 48.7721 28.8167 49.3911C28.7139 49.4354 28.617 49.4803 28.5136 49.5305C29.03 48.9193 29.5475 48.3127 30.066 47.7107L30.0644 47.7285ZM33.5886 48.3297C33.7961 48.2696 33.9676 48.2257 34.0351 48.208C34.6647 48.0629 35.2978 47.9285 35.932 47.7988C36.8122 47.8697 37.6927 47.9213 38.5803 47.9286C41.3369 47.9392 44.0872 47.6598 46.7856 47.0951C43.035 49.6372 37.8963 48.1599 33.5903 48.3119L33.5886 48.3297Z" fill="black"/>
<path d="M33.0775 38.8316C33.1135 37.6715 32.3612 37.7215 32.1487 36.6446C32.1985 36.6466 32.248 36.6351 32.2918 36.6112C32.3356 36.5874 32.3722 36.5521 32.3975 36.5091C34.8284 32.7996 35.7659 28.3104 34.8128 23.9544C34.1975 21.1295 31.9943 15.3075 28.3886 15.2775C23.6757 15.2363 24.7477 22.1754 25.8226 24.8349C27.9463 30.0798 31.963 33.8789 31.7824 39.926C31.7608 40.3517 33.0702 39.2481 33.0775 38.8316ZM31.9176 35.6542C32.0267 35.3064 32.1234 34.9589 32.2074 34.6118L32.2243 34.8167C32.2338 35.0524 32.2366 35.2964 32.2299 35.5455C32.1519 35.6759 32.0713 35.803 31.9891 35.9315L31.9176 35.6542ZM30.9607 32.9487C30.9871 32.4233 31.0413 31.9049 31.1008 31.393C31.6522 32.1613 32.0106 33.051 32.1458 33.987L32.1504 34.0188C32.0608 34.4517 31.9518 34.8842 31.8267 35.3138C31.5913 34.5069 31.302 33.7168 30.9607 32.9487ZM31.1417 31.0334C31.1976 30.5765 31.2487 30.1237 31.2836 29.6678C31.5629 30.5099 31.7743 31.3731 31.9156 32.249C31.8423 32.0952 31.7609 31.9454 31.6716 31.8002C31.5074 31.5398 31.3291 31.2855 31.1444 31.0367L31.1417 31.0334ZM34.2718 24.5623C34.6674 26.7239 34.5986 28.9451 34.0701 31.0785C33.6237 26.6767 32.3269 22.2694 31.3999 17.9711C31.7408 18.4378 32.0464 18.9311 32.3109 19.3683C33.2708 20.9679 33.935 22.7273 34.2718 24.5623ZM30.1064 16.6342C30.532 16.9502 30.9086 17.3271 31.2242 17.753C31.2043 17.7583 31.1873 17.7713 31.177 17.7891C31.1667 17.8069 31.1638 17.8281 31.169 17.8481C32.1469 22.3559 33.5325 26.9823 33.9334 31.5998C33.6683 32.5405 33.3181 33.455 32.8869 34.3322C34.8028 27.9088 31.8209 21.4225 28.2074 16.0518C28.889 16.0191 29.5605 16.2251 30.1064 16.6342ZM28.0057 16.0824C31.7657 21.6462 34.8875 28.4295 32.4421 35.112C32.4497 34.6969 32.4288 34.2818 32.3796 33.8696C32.9723 30.844 32.6815 27.7121 31.5419 24.8481C30.4023 21.984 28.462 19.5089 25.953 17.7184C26.3951 16.7903 27.1486 16.214 28.0057 16.0824ZM25.771 18.1158C25.7995 18.0347 25.8349 17.9587 25.8674 17.8825C28.2677 19.6026 30.1397 21.9588 31.2727 24.6858C32.4056 27.4128 32.7544 30.4023 32.2799 33.3175C32.2718 33.2749 32.2563 33.2331 32.2467 33.1918C32.0969 31.8261 31.7828 30.4836 31.3112 29.1933C31.3882 28.1169 31.2374 27.0365 30.8685 26.0225C29.8259 23.3061 27.6149 21.3026 25.4672 19.438C25.5229 18.9881 25.6247 18.545 25.771 18.1158ZM25.4174 19.6682C27.7766 21.7183 30.2564 24.0159 31.0156 27.1756C31.1513 27.7528 31.2134 28.345 31.2003 28.9378C31.1539 28.8259 31.1167 28.7118 31.0656 28.6009C29.9661 26.1424 27.9679 24.359 25.8074 22.8416C25.7983 22.8353 25.7881 22.8308 25.7772 22.8285C25.7664 22.8263 25.7552 22.8262 25.7443 22.8283C25.4398 21.8022 25.3316 20.7278 25.4255 19.6615L25.4174 19.6682ZM25.8185 23.076C28.08 24.6819 30.1324 26.59 31.131 29.2499L31.1816 29.3967C31.1531 29.8965 31.0931 30.3979 31.0244 30.8955C30.0388 29.593 28.8074 28.3934 27.7085 27.2316C26.9263 25.9195 26.295 24.5232 25.8266 23.0692L25.8185 23.076ZM28.1584 27.9745C29.0882 28.9757 30.0154 29.9901 30.8534 31.0621C30.9018 31.1204 30.9351 31.1803 30.9749 31.2348C30.912 31.703 30.8437 32.1648 30.8055 32.6398C30.3876 31.7424 29.92 30.8689 29.4051 30.0234C29.0273 29.3738 28.5962 28.6864 28.1665 27.9678L28.1584 27.9745Z" fill="black"/>
<path d="M41.3571 29.9073C41.7507 28.9867 41.0123 28.9183 41.2491 27.9473C41.2882 27.9257 41.3228 27.8969 41.3512 27.8625C43.057 25.709 44.581 23.4176 45.9074 21.0119C46.7707 19.414 47.5148 17.6988 47.4357 15.8461C47.3236 13.2383 45.1437 9.12913 42.0212 9.45039C38.4964 9.82117 38.5659 14.0625 39.4456 16.5366C40.4439 19.3446 41.0611 22.0366 40.985 24.7541C40.782 25.3967 40.72 26.0755 40.8031 26.7441C40.5931 28.0602 40.221 29.3452 39.6954 30.57C39.5283 30.9524 41.1927 30.2928 41.3571 29.9073ZM43.4035 20.4692C43.4958 20.3297 43.5966 20.194 43.6931 20.0564C43.5694 20.7699 43.4015 21.475 43.1904 22.1677L43.1555 22.2378C43.1739 21.7819 43.1638 21.3279 43.1425 20.8803C43.2251 20.7324 43.3197 20.5991 43.4035 20.4692ZM46.7798 16.0487C46.781 16.1161 46.7793 16.1832 46.7775 16.2503C46.7631 16.2523 46.7496 16.2583 46.7384 16.2676C46.7273 16.2768 46.7189 16.289 46.7143 16.3028C45.9008 19.0389 44.2333 21.373 42.9669 23.8967C43.0093 23.618 43.0589 23.325 43.0819 23.046C43.1768 22.7811 43.2671 22.5173 43.3488 22.2497C43.956 21.0601 44.4403 19.8116 44.7942 18.5238C45.4448 17.6852 46.1103 16.8645 46.7798 16.0487ZM44.9345 18.0433C45.4049 16.1385 45.5899 14.1745 45.4835 12.2157C46.2429 13.2527 46.6884 14.4862 46.7669 15.7693C46.1512 16.5214 45.5338 17.2747 44.9345 18.0433ZM41.7081 24.9227C42.1145 24.3678 42.4919 23.7923 42.8389 23.1984C42.5084 24.0794 42.1066 24.9319 41.6375 25.7476C41.6674 25.4737 41.6901 25.1977 41.7081 24.9227ZM43.6399 21.2254C43.7649 20.7165 43.8684 20.2147 43.9433 19.6982C44.1242 19.4413 44.308 19.1846 44.4976 18.9315C44.2598 19.7132 43.9733 20.4794 43.6399 21.2254ZM42.9398 22.6276C42.5728 23.3031 42.1665 23.9566 41.7231 24.5846C41.7344 24.3016 41.7442 24.0198 41.7474 23.7435C41.9436 23.2412 42.1418 22.7182 42.3049 22.186C42.52 21.8186 42.7426 21.4668 42.9608 21.1296C42.9837 21.6294 42.9771 22.1301 42.9411 22.6292L42.9398 22.6276ZM41.5721 26.2261C42.0399 25.4575 42.4485 24.6545 42.7943 23.8239C42.7411 24.0896 42.6853 24.3521 42.6269 24.6114C42.4679 24.9541 42.3159 25.302 42.1785 25.6541C41.9606 25.9555 41.7443 26.2555 41.5223 26.552L41.5721 26.2261ZM44.3786 22.3524C43.8697 23.1936 43.3328 24.0143 42.7734 24.8209L42.8136 24.6616C44.0387 22.0025 45.8153 19.6052 46.7538 16.8119L46.7512 16.855C46.5264 18.856 45.3844 20.6854 44.3721 22.3578L44.3786 22.3524ZM45.2869 11.9492C45.4348 14.1293 45.2172 16.3189 44.6431 18.4275C44.4249 18.7154 44.2113 19.0022 43.9956 19.2963C44.3812 16.2481 43.9587 13.1525 42.7704 10.3197C42.7624 10.31 42.757 10.3035 42.7503 10.2954C43.4743 10.4266 44.1423 10.7717 44.6681 11.2863C44.8867 11.4954 45.0913 11.7186 45.2804 11.9546L45.2869 11.9492ZM42.6438 10.2826C42.6244 10.2928 42.6096 10.31 42.6024 10.3307C42.5951 10.3514 42.5961 10.3741 42.605 10.3942C43.8259 13.2994 44.2307 16.483 43.7758 19.602C43.5535 19.9179 43.3382 20.2389 43.1273 20.5618C42.8684 17.4409 41.5916 14.3963 40.0225 11.5998C40.2768 11.1444 40.6621 10.7759 41.1284 10.542C41.5946 10.3081 42.1203 10.2196 42.6373 10.288L42.6438 10.2826ZM41.715 22.7087C41.5992 21.3932 41.3382 20.0947 40.9367 18.8369C40.3654 16.9058 39.1895 14.8994 39.573 12.8323C39.6386 12.4719 39.7552 12.1227 39.9191 11.7951C41.4876 14.614 42.7531 17.6845 42.9542 20.8314C42.7946 21.0844 42.6377 21.3405 42.4929 21.5948C42.6684 20.9872 42.7512 20.3566 42.7385 19.7243C42.6633 18.0709 41.1276 16.6533 40.0102 15.6108C39.9235 15.5295 39.7715 15.653 39.866 15.7306C41.329 17.0936 42.7616 18.5586 42.4105 20.7109C42.3002 21.3433 42.1423 21.9665 41.9382 22.5753C41.8678 22.7049 41.7986 22.839 41.7244 22.9772C41.7127 22.8939 41.7164 22.806 41.7085 22.7141L41.715 22.7087Z" fill="black"/>
<path d="M62.5791 30.8566C62.93 29.301 62.3636 27.7517 61.2536 26.6456C59.6673 25.0648 57.7179 24.7514 55.5658 24.8334C50.053 25.0322 45.7996 28.9305 41.4979 31.9167C41.4863 31.9247 41.4755 31.9337 41.4654 31.9436C40.3252 32.0475 40.2171 31.5051 39.0839 31.6305C38.6653 31.6771 37.7451 32.9856 38.1618 32.9434C44.1999 32.2728 49.9551 31.9274 55.8307 33.7151C58.5981 34.5588 61.8244 34.2472 62.5791 30.8566ZM60.6261 26.9285C57.4318 26.6225 54.347 27.6815 51.2999 28.5122C49.5601 28.9853 47.2765 29.2915 45.5239 30.224C45.0876 30.3711 44.6602 30.5433 44.2437 30.7396C44.4125 30.6131 44.5715 30.4947 44.7384 30.3726C46.3771 29.4909 48.2625 29.0118 49.9602 28.2836C51.9462 27.431 53.8749 26.4535 55.8023 25.4744C57.5542 25.4181 59.342 25.748 60.6229 26.9312L60.6261 26.9285ZM55.3434 25.4887C53.3423 26.5044 51.3331 27.5104 49.2615 28.3685C48.0266 28.8793 46.7238 29.2688 45.5161 29.7926C48.1543 27.8758 50.9296 26.0913 54.1352 25.6162C54.5279 25.5583 54.9327 25.515 55.3434 25.4887ZM43.3985 31.3538C43.8336 31.1293 44.2749 30.9189 44.7229 30.7331C44.671 30.7761 44.6175 30.8205 44.5608 30.8676C44.1899 30.9841 43.8549 31.1936 43.5876 31.4759C43.5649 31.4948 43.5438 31.5123 43.5228 31.5298C43.51 31.5399 43.5008 31.5537 43.4961 31.5693C43.4914 31.5849 43.4916 31.6016 43.4967 31.6171C43.4836 31.6372 43.4717 31.6581 43.461 31.6796C43.3563 31.7282 43.2529 31.7784 43.1511 31.8273C43.0141 31.8371 42.8758 31.8453 42.7372 31.8564C42.9541 31.679 43.1755 31.5171 43.3985 31.3538ZM43.7113 31.7536L43.7194 31.7468C43.7164 31.7486 43.7136 31.7509 43.7113 31.7536ZM44.1 31.5622C44.5345 31.3602 44.9809 31.1592 45.4359 30.962C45.8257 30.9295 46.2179 30.9367 46.6063 30.9836C46.2639 31.1978 45.9333 31.4303 45.6159 31.68C45.0572 31.6951 44.4985 31.7202 43.94 31.7553C43.9846 31.6936 44.0384 31.6298 44.0951 31.5663L44.1 31.5622ZM46.9034 31.0215C47.7875 31.174 48.6538 31.4155 49.4893 31.7423C48.3096 31.66 47.1254 31.6417 45.9454 31.6746C46.2513 31.4414 46.5694 31.2247 46.8985 31.0256L46.9034 31.0215ZM50.9397 31.8734C50.6779 31.8418 50.4178 31.8252 50.1568 31.801C49.187 31.3931 48.1788 31.0834 47.1471 30.8766C47.6517 30.588 48.1788 30.3408 48.7233 30.1371C48.8896 30.166 49.0534 30.205 49.2259 30.2479C50.918 30.7065 52.5263 31.5357 54.0182 32.4917C53.0072 32.2103 51.9765 32.005 50.9348 31.8775L50.9397 31.8734ZM46.8614 30.8292C46.5497 30.7828 46.2351 30.7587 45.92 30.7571C46.0522 30.702 46.1844 30.647 46.3261 30.5868C47.1391 30.3196 47.8478 30.1115 47.9376 30.0944C48.0274 30.0772 48.0515 30.0765 48.1062 30.0666C48.161 30.0567 48.2669 30.0755 48.3453 30.0842C47.8308 30.2959 47.3332 30.5463 46.8566 30.8333L46.8614 30.8292ZM46.9105 30.1563C46.6434 30.2303 46.3744 30.3086 46.1105 30.3964C45.8466 30.4841 45.503 30.5615 45.1415 30.6536C45.2608 30.5765 45.3815 30.5009 45.5046 30.4315C46.0128 30.2601 46.538 30.1442 47.0711 30.0859C47.019 30.1155 46.9615 30.1386 46.9056 30.1604L46.9105 30.1563ZM56.0584 33.0992C55.5771 32.9515 55.0926 32.8064 54.6032 32.6655C52.9222 31.5245 51.0026 30.4556 49.0481 30.0206C49.1331 29.9911 49.2208 29.9648 49.3055 29.9382C50.3831 29.8965 51.4607 30.0163 52.5027 30.2938C55.0497 30.9512 57.5118 32.0866 59.8713 33.2336C59.9801 33.2855 60.0427 33.1103 59.9369 33.0587C56.9404 31.5896 53.494 29.8293 50.0806 29.7243C53.8103 28.8551 57.8367 29.926 61.3718 31.7469C61.4774 31.8015 61.5432 31.6237 61.4358 31.5733C57.6203 29.6158 53.2781 28.5307 49.317 29.7345C48.9591 29.7555 48.6025 29.7949 48.2487 29.8525C52.8038 28.2596 57.8636 27.5283 61.8623 29.9768C61.964 30.0401 62.066 29.8925 61.9691 29.8252C57.7695 27.2534 52.4455 28.1247 47.717 29.8451C47.2864 29.8446 46.8568 29.8886 46.4352 29.9763C48.4446 29.1289 50.9297 28.795 52.6835 28.3157C55.3611 27.5839 57.9983 26.8036 60.8002 27.1151C60.8002 27.1151 60.8115 27.1057 60.818 27.1003C60.9893 27.2769 61.1467 27.4664 61.2888 27.6672C61.8145 28.3932 62.0658 29.282 61.998 30.1759C61.9303 31.0699 61.5479 31.911 60.9188 32.5499C59.4837 33.9768 57.7857 33.6298 56.0535 33.1032L56.0584 33.0992Z" fill="black"/>
<path d="M51.3532 21.8238C53.7937 18.67 55.9129 15.2248 57.9877 11.8218C59.4517 9.424 61.1578 4.75919 57.0775 3.8015C53.7049 3.01695 51.3829 6.50474 51.3985 9.491C51.4057 12.6484 52.8028 15.7984 52.5245 18.9549C52.5219 18.9968 52.5272 19.0388 52.5399 19.0789C51.9839 19.8798 49.9518 21.8572 49.3568 22.6276C49.1008 22.9688 51.095 22.1559 51.3532 21.8238ZM55.7772 14.1415C55.2292 15.0015 54.6834 15.8707 54.1254 16.7253C54.2239 16.3733 54.2624 16.0074 54.2395 15.6427C54.2971 15.5373 54.3548 15.432 54.4111 15.3251C55.1313 14.3344 55.7612 13.2811 56.2932 12.1779C56.9747 11.2974 57.7095 10.4547 58.4473 9.61222C58.3362 9.89717 58.2075 10.1749 58.0619 10.4439C57.3603 11.7024 56.546 12.9176 55.7772 14.1415ZM53.1419 17.0739L53.1277 16.9216C53.1747 16.8661 53.2247 16.8109 53.2669 16.7595C53.2814 16.7642 53.297 16.7648 53.3119 16.7612C53.3267 16.7575 53.3403 16.7498 53.351 16.7389C53.3431 16.7553 53.3361 16.7721 53.3299 16.7893C53.268 16.8762 53.2023 16.9718 53.1379 17.0691L53.1419 17.0739ZM52.175 9.50301C53.0316 10.5842 54.1215 12.0682 54.0307 13.5283C54.0108 13.7947 53.9683 14.0589 53.9035 14.3181C53.5596 13.5597 53.0375 12.8957 52.3815 12.3828C52.2399 11.4295 52.1708 10.4668 52.175 9.50301ZM53.9349 14.9461C53.9661 15.0642 53.9914 15.1838 54.0107 15.3045C53.9468 15.4287 53.88 15.5526 53.8204 15.6787C53.7014 15.8651 53.5973 16.0364 53.4807 16.2125C53.4134 16.293 53.3442 16.3779 53.2834 16.453C53.5139 15.9914 53.7178 15.517 53.894 15.032C53.9105 14.9991 53.9235 14.9719 53.9381 14.9434L53.9349 14.9461ZM55.1076 13.8164C55.2607 13.5853 55.418 13.3561 55.5784 13.1272C55.3756 13.4962 55.1606 13.8571 54.9334 14.21C54.9965 14.0782 55.0485 13.953 55.1108 13.8137L55.1076 13.8164ZM58.6027 9.14655C57.9214 9.91197 57.2472 10.6826 56.6052 11.4756C57.4749 9.4638 58.0169 7.32586 58.2105 5.14299C59.092 6.06944 59.0612 7.70405 58.6059 9.14387L58.6027 9.14655ZM58.0388 4.97907C57.8372 7.44474 57.1872 9.8531 56.1208 12.0857C55.8729 12.4037 55.6318 12.7299 55.3992 13.0598C56.3886 10.2848 56.6785 7.30892 56.2432 4.39575C56.8923 4.37335 57.5287 4.57875 58.0421 4.97637L58.0388 4.97907ZM56.001 4.39428L56.0563 4.39489C56.4772 7.19308 56.2223 10.0516 55.313 12.7318C55.4264 12.2972 55.5065 11.8547 55.5527 11.4081C55.7726 9.15391 55.2202 6.79392 54.8917 4.56829C55.254 4.46435 55.6276 4.40503 56.0043 4.39159L56.001 4.39428ZM54.7058 4.62137C55.0099 6.65932 55.4746 8.78841 55.4017 10.8438C55.3414 12.1134 55.0212 13.3572 54.461 14.4983C54.353 14.6782 54.2478 14.8614 54.1401 15.0383C54.113 14.92 54.0799 14.8032 54.0411 14.6882C54.4921 13.6488 54.807 12.5444 54.7742 11.4497C54.7188 9.61572 53.6762 7.67096 52.9687 6.01441C53.3663 5.35797 53.9855 4.86522 54.7144 4.62518L54.7058 4.62137ZM52.8624 6.22589C53.5263 7.77075 54.3994 9.52786 54.552 11.1854C54.6103 12.0493 54.4916 12.9161 54.2031 13.7327C54.2255 13.5362 54.2314 13.3381 54.2207 13.1407C54.1321 11.7612 53.1304 10.4064 52.3015 9.36517C52.2946 9.35544 52.2858 9.34732 52.2755 9.34136C52.2652 9.33539 52.2537 9.33175 52.2419 9.33065C52.23 9.32955 52.2181 9.33104 52.2069 9.33501C52.1957 9.33898 52.1854 9.34534 52.1769 9.35365C52.2059 8.22132 52.389 7.10326 52.8656 6.22319L52.8624 6.22589ZM52.4216 12.6587C53.046 13.1808 53.5292 13.8512 53.8271 14.6086C53.7908 14.7264 53.7525 14.8485 53.7218 14.9697C53.5095 15.4197 53.2819 15.8577 53.0446 16.2709C52.8797 15.1161 52.6283 13.9594 52.4571 12.8564L52.4216 12.6587ZM53.1843 17.7448C53.2787 17.4475 53.3827 17.154 53.4964 16.8645C53.6914 16.5685 53.8804 16.2719 54.0515 15.9603C54.0217 16.6725 53.7495 17.3532 53.28 17.8897C53.2672 17.9038 53.2603 17.9222 53.2608 17.9412C53.2612 17.9602 53.269 17.9783 53.2825 17.9916L53.1973 18.1199C53.2002 17.9915 53.1924 17.8667 53.1875 17.7421L53.1843 17.7448Z" fill="black"/>
<path d="M74.5317 21.6247C73.1675 18.4584 68.8932 17.8013 65.9223 18.1007C60.404 18.6489 59.1052 18.0936 56.8801 18.6878C56.4768 18.7955 55.1878 20.227 55.6033 20.1174C56.9014 19.7912 58.2153 19.5314 59.5398 19.3391C59.5775 19.3867 59.6292 19.4213 59.6877 19.438C63.9637 20.6874 66.1205 25.5765 70.5319 26.4153C73.5032 26.9803 75.7865 24.5372 74.5317 21.6247ZM68.7673 22.8097C68.2509 22.333 67.7022 21.8925 67.1252 21.4913C66.6688 21.1725 66.2048 20.8873 65.717 20.5999C66.1965 20.5904 66.6789 20.5648 67.1605 20.5151L67.3185 20.5372C70.0345 20.9365 73.1505 21.4416 74.132 24.414C74.0426 24.6023 73.9262 24.7764 73.7863 24.9309C72.5146 23.5047 70.6447 23.3662 68.8915 22.8406L68.7673 22.8097ZM62.046 19.7758L62.1773 19.7954C62.4171 19.9612 62.6538 20.1176 62.8874 20.2649C62.8491 20.2583 62.8103 20.2577 62.7733 20.2528C62.5361 20.0858 62.2951 19.9274 62.046 19.7758ZM62.1414 19.007C62.4969 19.1715 62.8539 19.3376 63.2089 19.508C62.5208 19.398 61.8324 19.2581 61.1394 19.1192C61.4723 19.0782 61.8062 19.0408 62.1414 19.007ZM61.1825 19.3161C61.8495 19.46 62.522 19.6105 63.2088 19.7189L61.5628 19.5038C61.4373 19.4384 61.3099 19.3772 61.1825 19.3161ZM62.611 19.8595L64.4599 20.1277C64.6182 20.2096 64.7753 20.29 64.9366 20.3722C64.3966 20.3774 63.8565 20.3554 63.3187 20.3063C63.0776 20.1643 62.8434 20.0141 62.611 19.8595ZM64.9909 20.2067L65.9262 20.3441C65.7159 20.3546 65.5053 20.368 65.2939 20.3739L64.9909 20.2067ZM65.357 20.6115C66.3001 21.1285 67.1932 21.7318 68.025 22.4135C68.1179 22.4924 68.2075 22.5739 68.2955 22.6568C66.689 22.1197 65.1454 21.4104 63.6917 20.5412C64.2465 20.5895 64.8016 20.6129 65.357 20.6115ZM74.2293 24.1554C73.4552 22.0889 71.5403 21.1476 69.4394 20.6945C68.9642 20.5938 68.4837 20.503 68.0012 20.4164C69.7492 20.1774 71.5423 19.8707 73.059 20.8006C73.9439 21.7707 74.5639 23.0648 74.2293 24.1554ZM72.6085 20.3701C71.6737 19.9696 70.6381 19.9127 69.5551 20.0129C68.7042 20.0927 67.879 20.1868 67.0586 20.2604C66.1599 20.1145 65.255 19.9874 64.3509 19.8679C64.7885 19.9087 65.2286 19.9174 65.6675 19.894C67.4322 19.797 69.0859 19.2038 70.8598 19.3619C71.0551 19.4324 71.2532 19.506 71.4409 19.5936C71.8668 19.7926 72.2604 20.0543 72.6085 20.3701ZM70.1651 19.1451C68.9412 19.1516 67.7591 19.4325 66.5301 19.6074C65.6241 19.724 64.7068 19.7191 63.8022 19.5928C63.3704 19.3794 62.9365 19.1733 62.5022 18.9701L62.9369 18.9266C65.2767 18.7079 67.8454 18.5044 70.1651 19.1451ZM65.1357 22.2045C65.9257 22.4727 66.6822 22.8307 67.3904 23.2715C68.2758 23.8499 68.9443 24.6385 69.5712 25.4726C68.736 25.0943 67.9527 24.6108 67.2404 24.0337C66.5081 23.4486 65.8202 22.8212 65.1357 22.2045ZM69.9004 25.5987C68.4754 23.6978 66.947 22.7011 64.7867 21.8896C64.23 21.394 63.6637 20.9064 63.0789 20.4725C63.135 20.4807 63.1913 20.4859 63.2477 20.4911C64.4589 21.2482 65.7371 21.8925 67.0662 22.416C67.5363 22.593 68.0162 22.7427 68.5035 22.8645C69.4598 23.8547 70.2396 25.183 71.3731 25.9084C70.8689 25.8837 70.3718 25.7791 69.9004 25.5987ZM72.8934 25.5765C72.5316 25.7594 72.1365 25.8669 71.732 25.8923C70.6732 25.3293 70.1079 24.1868 69.3088 23.3398C69.1861 23.2118 69.0598 23.0895 68.9336 22.9671C70.6652 23.404 72.531 23.8113 73.6397 25.0609C73.4203 25.271 73.1711 25.4475 72.9001 25.5846L72.8934 25.5765Z" fill="black"/>
<path d="M84.9691 19.6548C85.8858 17.1122 83.0499 15.4606 81.0882 14.8126C78.0469 13.8105 75.0268 13.8825 71.8751 14.1323C71.8215 14.1369 71.7702 14.1559 71.7265 14.1873C70.795 13.8305 69.8005 13.6218 68.8292 13.8236C68.4189 13.9097 67.3312 14.8649 67.7431 14.7773C69.6003 14.3929 72.7437 15.2938 74.2276 16.2072C76.0397 17.3214 77.4853 18.7756 79.1504 20.0556C80.7725 21.3003 84.0329 22.2629 84.9691 19.6548ZM80.0445 19.9126L79.6864 19.6626C78.9113 18.8013 78.0915 17.9812 77.2304 17.2057C77.7916 17.4431 78.3527 17.6804 78.9115 17.9116L79.4213 18.1068C80.2858 18.8935 81.0866 19.7476 81.8159 20.6611C81.8208 20.6672 81.8268 20.6722 81.8337 20.6759C81.8405 20.6796 81.848 20.682 81.8558 20.6828C81.2054 20.5551 80.5893 20.2918 80.0478 19.9099L80.0445 19.9126ZM74.0182 15.3384L74.0344 15.325C74.3141 15.3882 74.5952 15.4531 74.8755 15.5104C75.3126 15.839 75.7416 16.1787 76.1626 16.5297C75.8003 16.3736 75.4415 16.2118 75.0851 16.0562C74.748 15.8107 74.3957 15.5732 74.0282 15.3438L74.0182 15.3384ZM74.2612 14.6222C74.2676 14.6348 74.2768 14.6459 74.2881 14.6546C74.4972 14.7547 74.6981 14.8615 74.9103 14.9753C74.8237 14.9897 74.7353 15.0085 74.6487 15.0229L74.4614 14.9786C74.3017 14.8622 74.1402 14.7501 73.9773 14.6363L74.2612 14.6222ZM84.4146 19.0398C83.4945 17.9742 82.4231 17.0493 81.2346 16.2946C82.4678 16.5268 83.5598 17.0376 84.3572 18.354C84.4162 18.5794 84.4389 18.8127 84.4246 19.0452L84.4146 19.0398ZM84.374 19.2842C84.2846 19.6624 84.0607 19.9951 83.7441 20.2204C82.4202 18.1808 80.1609 16.8578 77.7438 15.9612C77.9884 15.9853 78.2323 16.0154 78.4803 16.0338C79.2719 16.0936 80.0467 16.1234 80.7821 16.2243C82.1446 17.0394 83.3632 18.0737 84.3888 19.2856L84.374 19.2842ZM76.4408 15.5162L76.0729 15.4029C75.8817 15.288 75.7032 15.1818 75.5155 15.0777C76.8197 14.9142 78.1244 14.9556 79.39 15.4974C79.6503 15.6097 79.9135 15.7387 80.1772 15.8783C78.9387 15.7353 77.6905 15.6497 76.4507 15.5216L76.4408 15.5162ZM74.8626 15.264L75.1795 15.3457L74.9089 15.2967L74.8626 15.264ZM75.3628 15.2071L75.1068 15.146C75.1403 15.1401 75.1734 15.1372 75.2082 15.133C75.2659 15.1562 75.3219 15.1809 75.3744 15.2112L75.3628 15.2071ZM73.6782 14.652L73.9814 14.8655C73.6987 14.8019 73.4203 14.7403 73.1472 14.6851L73.6782 14.652ZM74.2055 15.109L74.0469 15.1422C73.9237 15.1158 73.8003 15.0925 73.6758 15.0645C73.6611 15.0608 73.6458 15.0608 73.6311 15.0644C73.6165 15.0679 73.6029 15.0751 73.5916 15.0851C73.4796 15.0194 73.3656 14.958 73.2517 14.8967C73.5723 14.9662 73.894 15.0383 74.2171 15.1131L74.2055 15.109ZM76.6819 16.9771C77.4455 17.6429 78.1808 18.3404 78.8825 19.0768C77.8172 18.2619 76.8218 17.3863 75.7657 16.5693C76.083 16.7108 76.3871 16.8496 76.6935 16.9811L76.6819 16.9771ZM76.7308 16.7722C76.263 16.367 75.7825 15.9752 75.2893 15.5966C75.6391 15.6618 75.9893 15.7241 76.3416 15.7792C77.2517 16.3441 78.1177 16.9771 78.9322 17.6727C78.2088 17.3785 77.4739 17.0802 76.7424 16.7763L76.7308 16.7722ZM76.7799 15.8421L76.889 15.8582C79.5669 16.749 82.1631 18.1152 83.5905 20.3288C83.5451 20.3665 83.4787 20.3888 83.4207 20.4178C82.8122 19.4508 81.9141 18.8967 80.8141 18.439C80.3733 18.2577 79.9293 18.079 79.4853 17.9004C78.6432 17.1465 77.7429 16.4602 76.7928 15.8478L76.7799 15.8421ZM79.5013 15.0247C80.8463 15.3555 82.4126 15.7845 83.4285 16.7608C83.7038 17.0278 83.9336 17.338 84.1089 17.6791C83.4209 16.7956 82.4207 16.2092 81.3136 16.0402C81.0926 16.0048 80.8726 15.974 80.6527 15.9432C80.2628 15.7174 79.8616 15.5116 79.4508 15.3266C78.085 14.7202 76.6524 14.7193 75.2272 14.9284C75.0247 14.8229 74.8205 14.7188 74.6131 14.6173C76.2576 14.53 77.9062 14.6685 79.5129 15.0288L79.5013 15.0247ZM82.8578 20.6334C82.5488 20.7099 82.2278 20.7245 81.9132 20.6761C81.9292 20.674 81.9444 20.6677 81.9572 20.6578C81.9699 20.6479 81.9798 20.6348 81.9858 20.6198C81.9917 20.6048 81.9936 20.5884 81.9911 20.5725C81.9886 20.5565 81.982 20.5415 81.9717 20.529C81.3265 19.7267 80.6257 18.9708 79.8744 18.2668C81.185 18.7604 82.4733 19.2998 83.2482 20.5035C83.1246 20.5552 82.9981 20.5999 82.8694 20.6374L82.8578 20.6334Z" fill="black"/>
<path d="M67.0376 12.1011C68.3631 10.9212 70.0083 9.74397 71.0127 8.25326C71.9211 6.89424 72.9883 3.48776 71.089 2.41033C69.0081 1.24283 66.1686 3.44456 65.6157 5.40323C64.8817 8.0076 65.3848 10.849 64.4572 13.4609C64.4572 13.4609 64.4553 13.4817 64.4528 13.4919C63.652 14.176 62.8361 14.8617 62.0075 15.5223C61.6834 15.7914 62.8387 16.1539 63.1654 15.8881C64.7399 14.6355 65.5277 13.4478 67.0376 12.1011ZM65.5233 12.2885C65.6497 12.0011 65.7851 11.7125 65.9297 11.4228C66.1533 11.2372 66.377 11.0515 66.6006 10.8658C66.5134 11.1477 66.4033 11.4221 66.2716 11.6863C66.0309 11.8953 65.7814 12.096 65.5233 12.2885ZM65.5713 11.7396L65.5762 11.7191L65.5859 11.711C65.5859 11.711 65.5751 11.731 65.5713 11.7396ZM66.9689 11.0225C66.8546 11.142 66.7349 11.2551 66.6152 11.3681C66.711 11.1317 66.7915 10.8894 66.8561 10.6427C67.0749 10.4611 67.2936 10.2794 67.4922 10.0899C67.3409 10.4132 67.166 10.7249 66.9689 11.0225ZM67.8234 9.79308C68.013 9.61921 68.2029 9.44237 68.3868 9.26499C68.1347 9.64393 67.8617 10.0086 67.569 10.3572C67.6622 10.1704 67.7469 9.9824 67.8234 9.79308ZM66.9295 10.3355C67.0083 9.96611 67.0635 9.5921 67.0949 9.21575C67.5111 8.45421 67.923 7.69078 68.2988 6.91355C68.2275 7.864 68.0141 8.79847 67.6658 9.68579C67.4257 9.90434 67.1796 10.1223 66.9295 10.3355ZM66.6897 10.5346C66.505 10.688 66.3202 10.8414 66.1355 10.9948C66.3656 10.53 66.6137 10.0804 66.8608 9.62627C66.8263 9.93591 66.7723 10.2431 66.6991 10.5459L66.6897 10.5346ZM71.1342 6.5433C70.5816 8.09674 69.3532 9.11664 68.172 10.1932C67.8125 10.5218 67.4502 10.8472 67.088 11.1726C67.0967 11.1666 67.1048 11.1598 67.1123 11.1524C67.8377 10.4084 68.4646 9.57432 68.9775 8.67063C70.0496 7.52864 70.9417 6.24885 71.4412 4.68751C71.4583 5.32081 71.355 5.95165 71.1369 6.54654L71.1342 6.5433ZM71.398 4.31565C71.3839 4.31734 71.3706 4.32306 71.3597 4.33213C71.3487 4.3412 71.3407 4.35323 71.3364 4.36678C70.9342 5.70133 70.2478 6.93309 69.3245 7.97745C70.0799 6.42599 70.5006 4.73317 70.5593 3.00885C70.7918 3.14679 70.9888 3.33698 71.1349 3.56438C71.2809 3.79178 71.3719 4.05013 71.4007 4.31889L71.398 4.31565ZM70.0118 2.81763C70.1379 2.84293 70.2612 2.88087 70.3797 2.93089C70.3243 4.90845 69.7852 6.84253 68.8094 8.56387C68.5406 8.85004 68.2591 9.12756 67.9705 9.39995C68.2898 8.45038 68.4715 7.46003 68.51 6.45906C69.0575 5.31026 69.444 4.09154 69.6586 2.8373C69.6609 2.8182 69.6557 2.79892 69.6441 2.78361C69.7685 2.78395 69.8926 2.79641 70.0145 2.82085L70.0118 2.81763ZM69.4926 2.78903C69.4828 2.7971 69.4747 2.80383 69.4731 2.82162C69.2927 3.90795 68.9768 4.96741 68.5325 5.97514C68.5393 5.02393 68.4716 4.07368 68.33 3.1331C68.689 2.936 69.0867 2.81969 69.4953 2.79227L69.4926 2.78903ZM68.151 3.24065C68.3075 4.29315 68.3667 5.35786 68.3281 6.42129C67.9622 7.22038 67.5487 8.00159 67.1289 8.78523C67.1986 7.35909 67.0403 5.87597 66.9985 4.55615C66.9979 4.53937 66.9932 4.52301 66.9848 4.5085C66.9764 4.49399 66.9644 4.4818 66.9501 4.47305C66.9358 4.46431 66.9195 4.45928 66.9028 4.4584C66.886 4.45752 66.8693 4.46083 66.8541 4.46802C67.2051 3.98071 67.6463 3.56517 68.1537 3.24389L68.151 3.24065ZM65.9953 8.12558C66.064 7.37077 66.0443 6.53602 66.2027 5.79699C66.3191 5.33309 66.5264 4.89686 66.8125 4.51354L66.8012 4.52295C66.846 5.9552 67.0425 7.60636 66.9079 9.1521C66.519 9.86084 66.1315 10.5712 65.7728 11.2932L65.6107 11.4277C65.8076 10.3393 65.9012 9.21897 65.9926 8.12233L65.9953 8.12558ZM65.3718 12.6304C65.5433 12.5071 65.7121 12.3807 65.8768 12.2494C65.7002 12.396 65.5313 12.5554 65.3587 12.7069L65.3718 12.6304Z" fill="black"/>
<path d="M75.0992 11.2528C77.5829 10.3865 79.8314 8.62355 81.6056 6.71805C82.7156 5.52273 84.5621 3.35474 84.0758 1.52276C83.4137 -0.959543 80.315 0.0233838 79.1609 1.43594C78.0637 2.78199 77.6255 4.6017 77.0272 6.19578C76.6215 7.34654 76.1073 8.45615 75.4915 9.5096C75.4332 9.55803 75.3654 9.59514 75.302 9.63413C75.2385 9.67313 75.2675 9.74758 75.323 9.77813C74.7877 10.5974 72.8078 11.5627 71.9922 12.1961C71.6587 12.4539 73.4135 12.7373 73.7454 12.4809C74.2115 12.1185 74.6402 11.7103 75.0251 11.2624C75.0501 11.2621 75.075 11.2589 75.0992 11.2528ZM82.9116 1.20868C81.4724 4.08629 79.3974 6.59901 76.8437 8.55651C77.8228 7.20089 78.6207 5.72333 79.2172 4.16128C80.1642 2.95113 81.2289 1.83789 82.3958 0.83796C82.5853 0.924636 82.7553 1.04871 82.8957 1.20273L82.9116 1.20868ZM76.4651 9.13908L76.5246 9.02944C76.6251 8.94602 76.735 8.87394 76.8365 8.7951C76.7031 8.91137 76.5788 9.02547 76.4546 9.13959L76.4651 9.13908ZM83.0391 1.36554C83.1839 1.577 83.2829 1.81638 83.3297 2.06834C82.5539 2.96061 81.7628 3.8355 80.9563 4.69303C81.7452 3.64822 82.4387 2.53476 83.0286 1.36606L83.0391 1.36554ZM77.0396 7.94506C77.1754 7.63163 77.3072 7.31333 77.4349 6.99018C77.472 6.89641 77.5049 6.80076 77.5423 6.70402C77.8615 6.16531 78.1743 5.61552 78.5337 5.09547C78.6132 4.98021 78.6954 4.86817 78.7746 4.75587C78.2958 5.87227 77.7113 6.94037 77.0291 7.94558L77.0396 7.94506ZM75.8677 10.1605C75.8812 10.1662 75.8961 10.168 75.9106 10.1657C75.9251 10.1633 75.9387 10.1569 75.9497 10.1471C78.298 8.08241 80.6458 6.01713 82.9933 3.95132C82.5444 4.87133 81.7534 5.75522 80.9794 6.5046C79.4179 7.55767 77.9178 8.69904 76.4864 9.92315C76.26 10.0428 76.0327 10.1548 75.8014 10.262C75.8055 10.234 75.828 10.2017 75.8507 10.1664L75.8677 10.1605ZM77.4129 9.38377C78.248 8.70136 79.1045 8.04586 79.9824 7.41726C79.8851 7.49799 79.7928 7.57468 79.7037 7.64868C78.9765 8.28723 78.2029 8.87096 77.3894 9.39505L77.4129 9.38377ZM83.1777 3.54371L76.1393 9.73253L76.1942 9.64041C78.7291 7.33572 81.1287 4.88645 83.381 2.30488C83.394 2.46651 83.3914 2.62903 83.3733 2.79017C83.3314 3.05302 83.2579 3.30983 83.1542 3.55499L83.1777 3.54371ZM80.8461 0.87404C81.2715 0.660854 81.7615 0.615446 82.2188 0.746819C81.2149 1.61285 80.2858 2.56187 79.4413 3.58384C79.6854 2.88863 79.9012 2.1594 80.0928 1.40101C80.3078 1.19227 80.554 1.01831 80.8226 0.885342L80.8461 0.87404ZM78.8094 3.36689C79.0653 2.75317 79.4093 2.17997 79.8304 1.66536C79.6217 2.47328 79.3685 3.26909 79.0721 4.04916C78.9785 4.17061 78.885 4.29205 78.7928 4.41512C78.464 4.86323 78.1665 5.32918 77.8819 5.80082C78.1453 4.99375 78.4298 4.16918 78.786 3.37817L78.8094 3.36689Z" fill="black"/>
<path d="M86.9456 9.47312C89.2048 9.09144 97.2435 5.49546 93.5108 2.21318C92.0719 0.945063 90.4568 2.26414 89.6091 3.50166C88.0955 5.70793 87.2977 9.35317 84.4186 10.2742C84.018 10.4016 84.2905 10.9936 84.6876 10.8718C85.4953 10.5908 86.2177 10.1078 86.786 9.46882C86.838 9.48344 86.8929 9.48493 86.9456 9.47312ZM93.2677 5.00652C91.7947 6.22957 90.2876 7.38516 88.513 8.10329C88.6705 7.89244 88.8167 7.67333 88.9509 7.44693C89.2248 7.18665 89.5041 6.93286 89.7807 6.67582C89.7807 6.67582 89.8031 6.67638 89.8144 6.66696C90.8698 5.75458 92.0982 5.06415 93.4262 4.63687C93.3785 4.76405 93.3251 4.88771 93.2677 5.00652ZM88.2949 8.08461C88.2528 8.13604 88.2093 8.18582 88.1658 8.23563L88.1207 8.25391L88.2949 8.08461ZM87.7146 8.6485C87.7876 8.58796 87.8494 8.51743 87.917 8.4504C87.9243 8.4625 87.9333 8.47344 87.9439 8.48281C87.892 8.52586 87.8512 8.57891 87.7939 8.63193L87.7146 8.6485ZM88.1625 8.52844C88.2095 8.48942 88.2414 8.43555 88.28 8.38978C90.0609 7.73206 91.5563 6.63819 93.0185 5.45153C92.9506 5.55698 92.8767 5.65849 92.7973 5.75558C91.6398 7.12445 89.9104 8.03217 88.1609 8.52979L88.1625 8.52844ZM93.508 4.41563C92.6386 4.6831 91.8073 5.06158 91.0346 5.54167C91.8806 4.78999 92.7384 4.05583 93.6156 3.33844C93.6644 3.70263 93.6259 4.07324 93.5032 4.41967L93.508 4.41563ZM93.5621 3.14207C92.1272 4.30883 90.7399 5.52635 89.3877 6.78599C89.4217 6.75773 89.4433 6.71786 89.4706 6.68151C90.5301 5.2901 91.1252 3.64938 92.3917 2.41171C92.4778 2.40895 92.5639 2.41441 92.6489 2.42802C92.8512 2.45427 93.0425 2.53494 93.2024 2.66141C93.3624 2.78787 93.485 2.95539 93.5572 3.14611L93.5621 3.14207ZM92.1004 2.4401C91.2236 3.3624 90.6852 4.45805 90.0181 5.53733C89.8666 5.78352 89.7044 6.01675 89.5362 6.24943C89.9196 5.32635 90.2036 4.34621 90.5095 3.41896C90.9224 2.98311 91.5022 2.55373 92.0956 2.44414L92.1004 2.4401ZM89.2474 5.55876C89.5087 4.97479 89.811 4.41009 90.1522 3.86891L90.183 3.8269C89.8818 4.88236 89.4976 5.91238 89.0339 6.90729C88.5996 7.4304 88.1345 7.92719 87.641 8.39497C88.2458 7.4928 88.7812 6.54602 89.2426 5.5628L89.2474 5.55876Z" fill="black"/>
<path d="M92.3508 19.1219C93.1835 17.8531 92.5253 16.1173 91.6217 15.0916C89.7538 12.9674 86.6065 12.8003 84.0457 12.1462C83.4701 11.7198 82.8633 11.3373 82.2304 11.0018C81.8641 10.8079 81.4882 11.3444 81.8545 11.5383C82.4837 11.871 83.0863 12.2517 83.6569 12.677C83.673 12.6907 83.6904 12.7028 83.7089 12.7132C84.6939 13.4585 85.5859 14.3192 86.3659 15.2769C87.3342 16.4431 88.1059 17.8275 89.2506 18.8336C90.1716 19.656 91.4921 20.4287 92.3508 19.1219ZM90.1713 18.8874C89.271 17.4074 87.9647 16.2562 86.9089 14.8889C86.9008 14.8792 86.8968 14.8744 86.8901 14.8663L86.8833 14.8582C86.7932 14.7496 86.7045 14.6427 86.6143 14.5342C88.2524 15.8477 89.7774 17.2524 90.7915 19.1167C90.5729 19.0772 90.363 18.9996 90.1713 18.8874ZM85.848 13.7201C85.6349 13.503 85.4164 13.2959 85.1917 13.0911C85.2733 13.1465 85.3519 13.2017 85.4337 13.2541C85.4374 13.2674 85.4438 13.2798 85.4527 13.2904C85.4615 13.301 85.4724 13.3096 85.4848 13.3157L85.6599 13.3946C86.6047 13.9785 87.6046 14.4509 88.5163 15.084C89.9122 16.056 90.9568 17.4528 91.4946 19.0666C91.3408 19.1351 91.1728 19.1657 91.0047 19.1559C89.8002 16.8776 87.8578 15.2669 85.8413 13.712L85.848 13.7201ZM86.8654 13.4419C88.6944 14.7281 90.6523 15.4969 92.0013 17.2667C92.0274 17.4362 92.0415 17.6074 92.0434 17.779C90.5244 15.5703 88.1708 14.3447 85.753 13.2298L85.6499 13.1649C86.0547 13.2502 86.4579 13.3369 86.8587 13.4338L86.8654 13.4419ZM92.0352 18.0923C92.0232 18.4174 91.8875 18.7257 91.656 18.9544C91.2087 17.6246 90.4238 16.4339 89.378 15.4987C89.0935 15.2557 88.7937 15.0311 88.4804 14.8265C89.8682 15.6637 91.1138 16.6627 92.0285 18.0842L92.0352 18.0923ZM91.8209 16.5846L91.8517 16.6711C90.6011 15.3397 88.9519 14.5964 87.3888 13.571C88.0603 13.7447 88.7143 13.9804 89.3422 14.2751C90.3739 14.7594 91.361 15.4833 91.8142 16.5764L91.8209 16.5846ZM87.9206 16.3613C88.5965 17.0682 89.2221 17.8217 89.7927 18.6161C89.0995 18.0615 88.4658 17.1729 87.9139 16.3532L87.9206 16.3613Z" fill="black"/>
</svg>
