<svg width="190" height="25" viewBox="0 0 190 25" fill="none" xmlns="http://www.w3.org/2000/svg">
<g clip-path="url(#clip0_782_3806)">
<path d="M23.5943 17.3905C21.5343 22.4923 18.2881 24.9192 12.0802 24.9192C4.3174 24.9192 0 20.2547 0 14.9621C0 9.66948 4.28943 5.38672 12.6149 5.38672C20.9404 5.38672 25.1738 9.47864 20.9963 12.7786H20.8828C20.5718 9.47864 18.1449 5.49486 12.6132 5.49486C7.08158 5.49486 4.56914 9.58678 4.56914 13.3781C4.56914 17.7977 7.78579 21.589 13.9114 21.589C17.1857 21.562 20.8548 20.6078 23.4512 17.3874H23.5927L23.5943 17.3905Z" fill="white"/>
<path d="M23.5231 5.19561H28.9413L32.5248 11.5792L43.8136 11.5522C45.9591 8.14249 49.8619 1.58238 48.3087 0H52.3167L34.8958 24.7281L23.5215 5.1972L23.5231 5.19561ZM32.6384 11.743L37.6336 20.5264C40.3995 16.5442 42.4035 13.7611 43.7297 11.716L32.6384 11.743Z" fill="white"/>
<path d="M69.5173 5.19561H74.9354L78.519 11.5792L89.8077 11.5522C91.9533 8.14249 95.856 1.58238 94.3028 0H98.3109L80.8899 24.7281L69.5156 5.1972L69.5173 5.19561ZM78.6325 11.743L83.6278 20.5264C86.3936 16.5442 88.3977 13.7611 89.7238 11.716L78.6325 11.743Z" fill="white"/>
<path d="M161.205 5.19561H166.623L170.206 11.5792L181.495 11.5522C183.641 8.14249 187.544 1.58238 185.99 0H189.998L172.577 24.7281L161.203 5.1972L161.205 5.19561ZM170.32 11.743L175.315 20.5264C178.081 16.5442 180.085 13.7611 181.411 11.716L170.32 11.743Z" fill="white"/>
<path d="M69.287 18.8095C69.287 23.5566 63.1351 25.0022 58.4771 25.0022C50.3491 25.0022 43.2938 21.9472 48.3171 17.4736H48.4306C48.967 20.8562 52.7776 24.9481 58.4771 24.8941C63.247 24.9481 66.2102 23.6393 66.2102 21.8391C66.2102 18.9749 63.9808 18.4835 58.0542 17.6104C52.6921 16.82 47.6968 15.756 47.6968 11.3635C47.6968 6.97105 53.2284 5.38867 57.6594 5.38867C65.9289 5.38867 71.1776 9.48059 67.0017 12.7805H66.8881C66.5772 9.48059 63.5859 5.44274 57.6594 5.49681C53.6513 5.44274 50.7736 6.88835 50.7736 8.79834C50.7736 11.2808 54.2173 12.0172 58.8736 12.7265C64.6883 13.5995 69.287 14.4997 69.287 18.8095Z" fill="white"/>
<path d="M116.872 5.63281V24.7279H116.675L95.9878 5.79662C95.9878 19.9267 96.4962 21.9178 99.8264 24.7279H95.8184V5.63281H101.97L116.675 18.7546V5.63281H116.872Z" fill="white"/>
<path d="M145.209 15.207C145.209 21.0722 139.197 24.9732 132.086 24.9732C124.974 24.9732 118.99 21.0722 118.99 15.207C118.99 9.34187 125.002 5.38672 132.086 5.38672C139.169 5.38672 145.209 9.26077 145.209 15.207ZM140.298 15.207C140.298 9.88736 137.39 5.49486 132.084 5.49486C126.778 5.49486 123.9 9.88736 123.9 15.207C123.9 20.5267 126.779 24.8635 132.084 24.8635C137.389 24.8635 140.298 20.4996 140.298 15.207Z" fill="white"/>
<path d="M155.735 4.91016L167.109 24.441H161.691L153.168 9.38376C146.564 20.1582 145.266 21.9044 147.75 24.441H143.742L155.737 4.91016H155.735Z" fill="white"/>
</g>
<defs>
<clipPath id="clip0_782_3806">
<rect width="190" height="25" fill="white"/>
</clipPath>
</defs>
</svg>
