<svg width="14" height="14" viewBox="0 0 14 14" fill="none" xmlns="http://www.w3.org/2000/svg">
<g clip-path="url(#clip0_763_11160)">
<path d="M7.30982 0.0118125C8.07326 0 8.83232 0.007 9.59051 0C9.63645 0.892937 9.95757 1.8025 10.6112 2.43381C11.2635 3.08088 12.1862 3.37706 13.0839 3.47725V5.82619C12.2426 5.79862 11.3974 5.62362 10.6339 5.26137C10.3014 5.11088 9.9917 4.91706 9.68851 4.71887C9.68457 6.42338 9.69551 8.12569 9.67757 9.82319C9.63207 10.6387 9.36301 11.4502 8.88876 12.1222C8.12576 13.2409 6.80145 13.9703 5.44126 13.993C4.60695 14.0407 3.77351 13.8132 3.06257 13.3941C1.88439 12.6993 1.05532 11.4275 0.934574 10.0625C0.920574 9.77069 0.915762 9.47931 0.927574 9.1945C1.03257 8.08456 1.58164 7.02275 2.43389 6.30044C3.39989 5.45913 4.75307 5.05837 6.02007 5.2955C6.03189 6.15956 5.99732 7.02275 5.99732 7.88681C5.41851 7.69956 4.74214 7.75206 4.23639 8.10337C3.86714 8.34269 3.5867 8.70931 3.44057 9.12406C3.31982 9.41981 3.35439 9.74837 3.36139 10.0625C3.50007 11.0197 4.42057 11.8243 5.4032 11.7372C6.05464 11.7302 6.67895 11.3523 7.01845 10.7988C7.12826 10.605 7.2512 10.4068 7.25776 10.1789C7.31507 9.13544 7.29232 8.09638 7.29932 7.05294C7.30414 4.70138 7.29232 2.35637 7.31026 0.01225L7.30982 0.0118125Z" fill="white"/>
</g>
<defs>
<clipPath id="clip0_763_11160">
<rect width="14" height="14" fill="white"/>
</clipPath>
</defs>
</svg>
