<svg width="31" height="31" viewBox="0 0 31 31" fill="none" xmlns="http://www.w3.org/2000/svg">
<path d="M29.1143 8.29246C28.9608 7.67945 28.6483 7.11778 28.2083 6.66419C27.7684 6.2106 27.2165 5.88116 26.6084 5.70913C24.3868 5.16663 15.5001 5.16663 15.5001 5.16663C15.5001 5.16663 6.61342 5.16663 4.39175 5.76079C3.7837 5.93282 3.23181 6.26227 2.79183 6.71586C2.35185 7.16945 2.03936 7.73111 1.88592 8.34413C1.47932 10.5988 1.28043 12.886 1.29175 15.177C1.27726 17.4853 1.47616 19.79 1.88592 22.0616C2.05508 22.6556 2.37457 23.1959 2.81352 23.6303C3.25248 24.0648 3.79606 24.3786 4.39175 24.5416C6.61342 25.1358 15.5001 25.1358 15.5001 25.1358C15.5001 25.1358 24.3868 25.1358 26.6084 24.5416C27.2165 24.3696 27.7684 24.0401 28.2083 23.5866C28.6483 23.133 28.9608 22.5713 29.1143 21.9583C29.5177 19.7206 29.7166 17.4508 29.7084 15.177C29.7229 12.8688 29.524 10.5641 29.1143 8.29246V8.29246Z" stroke="black" stroke-width="2" stroke-linecap="round" stroke-linejoin="round"/>
<path d="M12.5938 19.4009L20.0208 15.1771L12.5938 10.9534V19.4009Z" stroke="black" stroke-width="2" stroke-linecap="round" stroke-linejoin="round"/>
</svg>
