<svg width="94" height="74" viewBox="0 0 94 74" fill="none" xmlns="http://www.w3.org/2000/svg">
<path d="M0.746676 52.6861C1.00106 52.8583 1.06386 52.9045 1.2236 53.0126C25.8804 69.699 59.553 63.1603 76.2846 38.4369C82.289 29.5905 85.5299 19.161 85.5939 8.47846C85.6069 6.3081 86.0123 0.95216 86.0123 0.95216C87.7688 14.2726 84.5675 27.7867 77.0181 38.9203C60.0156 64.0442 25.7934 70.6907 0.734712 53.7323C0.575389 53.6244 0.416823 53.5159 0.259 53.4067C-0.435625 52.9261 0.454625 52.2956 0.746676 52.6861Z" fill="#C3937C"/>
<path d="M38.9859 46.8838C40.1314 47.1421 41.2249 47.6553 41.6735 48.7956C42.064 49.7776 41.9958 50.8731 41.7156 51.8735C41.0638 54.2067 39.3367 55.9367 37.3856 57.2715C34.6299 59.1515 27.9506 60.6855 27.8829 60.6267C27.4605 61.1906 27.4712 61.8598 27.0014 62.3897C26.7957 62.6223 25.9462 62.2334 26.1519 62.0007C27.6618 60.3142 28.92 58.418 29.8873 56.3715C30.7834 54.4583 31.2349 52.369 32.172 50.48C33.4801 47.8621 36.0183 46.2105 38.9859 46.8838ZM35.8941 47.5285C35.902 47.5359 35.9081 47.545 35.912 47.5551C35.9158 47.5653 35.9172 47.5761 35.9162 47.5869C35.9152 47.5977 35.9117 47.6082 35.906 47.6174C35.9003 47.6266 35.8925 47.6345 35.8833 47.6402C33.4797 48.9998 32.7787 51.573 32.0334 54.0306C32.2821 53.5481 32.5472 53.0768 32.8375 52.615C34.172 50.507 35.9007 48.6765 37.9284 47.2243C37.7609 47.2169 37.59 47.2147 37.4198 47.2222C36.9003 47.2449 36.387 47.3464 35.8975 47.5234L35.8941 47.5285ZM32.0157 58.6876C31.9013 58.7342 31.7853 58.7796 31.6676 58.8239C31.7658 58.8048 31.8623 58.7828 31.9601 58.7616C31.9593 58.7518 31.961 58.7419 31.9651 58.7329C31.9692 58.724 31.9756 58.7162 31.9835 58.7105L32.0157 58.6876ZM29.5541 59.478C29.6291 59.4059 29.7003 59.33 29.7674 59.2505C29.6258 59.3611 29.4864 59.4712 29.344 59.5775C29.4078 59.5408 29.4826 59.5096 29.5541 59.478ZM29.9723 59.2162C29.9723 59.2162 29.9766 59.2098 29.9792 59.206L29.9723 59.2162ZM30.1269 59.2427C30.1855 59.2192 30.2466 59.1973 30.3047 59.1772L30.1737 59.1926C30.1626 59.2037 30.1449 59.2215 30.1294 59.2389L30.1269 59.2427ZM30.0814 59.0632L30.1173 59.0596C30.2153 58.953 30.3125 58.8478 30.4081 58.7395C30.3239 58.809 30.2402 58.8806 30.1604 58.9438C30.1341 58.9854 30.1091 59.0224 30.084 59.0594L30.0814 59.0632ZM30.3204 59.039C30.5192 59.0192 30.71 58.9921 30.9038 58.9633L30.9409 58.9495C31.5138 58.7488 32.0724 58.5093 32.6129 58.2327C36.0026 55.5641 38.7474 52.164 40.6417 48.287C40.6002 48.2441 40.5584 48.2046 40.5139 48.1634C38.6859 50.4679 36.7245 52.6634 34.64 54.7385C33.476 55.9105 32.2947 57.1081 31.031 58.2053C30.81 58.4853 30.572 58.763 30.3247 59.0326L30.3204 59.039ZM30.9496 59.0929C30.5913 59.2223 30.2394 59.3449 29.8899 59.4914C29.8289 59.5543 29.7716 59.6196 29.7093 59.6816C29.6996 59.6901 29.6876 59.6956 29.6749 59.6974C29.6621 59.6992 29.6491 59.6972 29.6374 59.6917C29.6258 59.6862 29.616 59.6774 29.6093 59.6664C29.6026 59.6554 29.5993 59.6427 29.5997 59.6298C29.5248 59.6988 29.4459 59.7634 29.3633 59.823C31.6553 59.1763 34.0282 58.6513 36.1065 57.5066C34.4766 58.2885 32.7395 58.8215 30.953 59.0878L30.9496 59.0929ZM29.5492 59.2441L29.5142 59.2465C29.4995 59.2682 29.4857 59.2886 29.4711 59.3102C29.5015 59.2844 29.5294 59.2623 29.5565 59.2416L29.5492 59.2441ZM29.7478 59.0903C29.8508 59.0094 29.955 58.9294 30.0563 58.8454C30.3299 58.3816 30.547 57.8869 30.7032 57.3717C30.3854 57.9734 30.0251 58.5516 29.6249 59.102L29.7478 59.0903ZM38.1124 47.2429C38.1112 47.2494 38.1087 47.2556 38.1049 47.2611C38.1012 47.2665 38.0964 47.2712 38.0908 47.2747C35.6513 49.0023 33.6467 51.2747 32.2364 53.9114C32.0273 54.3054 31.8462 54.7072 31.6779 55.1121C31.5373 55.5227 31.3852 55.9255 31.2162 56.315C31.0208 56.8559 30.8326 57.3998 30.629 57.9444C30.5461 58.1678 30.4512 58.3867 30.3448 58.6C30.5474 58.4322 30.7505 58.2609 30.9519 58.0811C32.3067 56.4134 33.4179 54.566 34.6937 52.8261C36.1271 50.8806 37.8881 49.2238 39.66 47.6003C39.171 47.3931 38.6501 47.2714 38.1196 47.2403L38.1124 47.2429ZM39.7923 47.6787C37.7631 49.5427 35.8237 51.4414 34.2409 53.7172C33.344 55.0068 32.4912 56.3244 31.5398 57.566C32.4846 56.7179 33.3852 55.8063 34.2732 54.9161C36.4565 52.763 38.5065 50.4786 40.4119 48.0757C40.2233 47.9201 40.018 47.7861 39.7996 47.6762L39.7923 47.6787ZM40.7414 48.3917C38.9402 52.059 36.3787 55.3012 33.2282 57.9016C33.6676 57.6579 34.099 57.3958 34.5379 57.1145C37.3075 55.3593 40.0037 53.3591 41.46 50.3358C41.47 49.6209 41.2168 48.928 40.7487 48.3892L40.7414 48.3917ZM41.4506 50.6567C40.1951 53.0982 38.1432 54.8724 35.8895 56.4078C34.8251 57.1285 33.7303 57.864 32.5728 58.4399C32.4509 58.5359 32.3257 58.6296 32.197 58.7211C34.1425 58.285 36.0024 57.527 37.6999 56.4783C39.6138 55.0588 41.3125 53.0474 41.4579 50.6541L41.4506 50.6567ZM29.0332 59.6312C29.1297 59.5106 29.2249 59.3891 29.3162 59.265C29.1508 59.2738 28.9853 59.2827 28.8181 59.2886C28.6205 59.5807 28.6025 59.6373 28.3942 59.9314C28.6223 59.8605 28.8398 59.7586 29.0404 59.6287L29.0332 59.6312ZM32.3258 51.2776C31.4704 53.2294 30.9687 55.2997 30.0075 57.2133C29.6751 57.8743 29.3094 58.518 28.9118 59.1419C29.0824 59.1365 29.2526 59.1289 29.424 59.1167C30.9028 57.0549 31.5831 54.7672 32.4079 52.2852C33.0321 50.4094 33.9297 48.6665 35.6555 47.618C34.1248 48.2631 33.0482 49.643 32.3331 51.2751L32.3258 51.2776Z" fill="#C3937C"/>
<path d="M26.4882 62.0108C27.6164 62.7166 28.7126 63.4808 29.7915 64.2705C29.8279 64.2529 29.8685 64.2462 29.9085 64.2511C33.539 64.6627 37.3041 64.2096 40.8726 65.1184C43.5017 65.7821 46.8929 67.6159 46.9447 70.7153C46.9965 73.8146 44.0119 74.4817 41.5806 73.6544C38.3106 72.5403 36.0325 69.7138 33.4005 67.6295C31.0916 65.7992 27.656 64.3351 25.1519 62.7687C24.8941 62.6017 26.2291 61.8484 26.4882 62.0108ZM36.9216 69.4193C36.4028 69.2419 35.8968 69.0293 35.407 68.7829C36.3892 69.68 37.375 70.5852 38.428 71.3721C37.9366 70.7309 37.439 70.0688 36.9242 69.4155L36.9216 69.4193ZM32.9767 66.6882C33.0276 66.7226 33.0733 66.7647 33.1203 66.8021C34.0082 67.392 34.9592 67.8809 35.9557 68.2599C35.5891 67.8425 35.2113 67.4418 34.8127 67.0661C34.127 66.9659 33.4538 66.7944 32.8039 66.5545L32.9767 66.6882ZM33.9033 67.4454C34.283 67.7694 34.6593 68.1039 35.033 68.4424C35.5001 68.7152 35.9895 68.9481 36.4959 69.1386C36.589 69.1737 36.6838 69.2063 36.7786 69.2388C36.571 68.9811 36.359 68.7243 36.1428 68.4739C35.3743 68.1811 34.6261 67.8375 33.9033 67.4454ZM32.2167 66.1014C32.2167 66.1014 32.2256 66.1074 32.2307 66.1108C32.2663 66.1349 32.3007 66.1582 32.3273 66.1929L32.4493 66.2866C33.1659 66.6028 33.9191 66.829 34.6917 66.96C34.6109 66.8849 34.5305 66.8119 34.4479 66.7393C33.4667 66.5027 32.5205 66.1398 31.6329 65.6598L32.2167 66.1014ZM34.9272 66.9929C35.1239 67.0201 35.322 67.0426 35.5222 67.0591C35.6398 67.0661 35.7579 67.0698 35.881 67.0769C35.4959 66.9911 35.1116 66.9039 34.7304 66.8096C34.796 66.8689 34.8646 66.932 34.9323 66.9964L34.9272 66.9929ZM30.6172 64.7958C31.6877 65.6801 32.9383 66.1806 34.2385 66.5529C33.3842 65.8087 32.3994 65.2293 31.3339 64.8438C31.0982 64.8331 30.8584 64.8177 30.6211 64.7984L30.6172 64.7958ZM30.509 64.7858L30.4831 64.7831L30.5021 64.796C30.5048 64.7924 30.5086 64.7897 30.5129 64.7884L30.509 64.7858ZM33.0574 64.9057C34.1915 65.2028 35.3051 65.5659 36.4518 65.8362C38.2903 66.2679 40.332 66.1063 42.2413 66.0689C42.0616 65.9975 41.8844 65.9278 41.7097 65.8653C38.9688 64.8955 35.9891 64.969 33.0612 64.9083L33.0574 64.9057ZM42.5621 66.206C40.6929 66.2278 38.7084 66.3872 36.8638 66.0686C35.3624 65.7963 33.9131 65.258 32.421 64.8953L31.7698 64.8711C32.7862 65.3003 33.7224 65.8986 34.5387 66.6408C35.1568 66.8043 35.787 66.9445 36.4156 67.0817C37.5464 67.0548 38.6839 66.8838 39.827 66.9731C42.1296 67.1629 44.2181 68.2583 46.198 69.3881C45.5771 67.9025 44.0492 66.861 42.5595 66.2043L42.5621 66.206ZM46.4509 70.3681C46.4196 70.1047 46.3599 69.8455 46.2731 69.5951C43.4694 68.0138 40.8866 66.9446 37.5668 67.1616C37.3459 67.1757 37.1292 67.1834 36.9122 67.189C37.6509 67.3524 38.3858 67.5243 39.095 67.7477C41.7182 68.5835 44.1906 69.8324 46.4194 71.4476C46.4831 71.0905 46.4928 70.726 46.4484 70.3664L46.4509 70.3681ZM46.3926 71.5968C43.8925 69.776 41.0842 68.4216 38.1021 67.5983C37.5393 67.4461 36.9666 67.3169 36.3959 67.1874C35.9415 67.1825 35.4878 67.1512 35.0372 67.0934C35.4521 67.4969 35.8481 67.923 36.2307 68.366C37.2952 68.7851 38.3856 69.1605 39.4309 69.6299C41.4682 70.557 43.3809 71.7358 45.1245 73.1391C45.4406 72.9976 45.7195 72.7843 45.9392 72.5163C46.1589 72.2483 46.3133 71.9329 46.3901 71.5951L46.3926 71.5968ZM44.9799 73.2048C42.8565 71.515 40.4901 70.1555 37.9604 69.1722C37.4411 68.9695 36.9268 68.7813 36.4076 68.5786C36.6136 68.8222 36.8171 69.0696 37.0179 69.3208C37.6088 69.4869 38.1877 69.6923 38.751 69.9358C40.2534 70.6532 41.2382 71.9464 42.1956 73.2636C42.2015 73.2714 42.2057 73.2803 42.2078 73.2898C42.21 73.2993 42.2102 73.3092 42.2084 73.3188C43.1568 73.5367 44.174 73.5297 44.9773 73.2031L44.9799 73.2048ZM42.0284 73.2751C40.6793 71.4324 39.3713 70.2385 37.1627 69.5043C37.731 70.2236 38.2762 70.9552 38.8196 71.6539C39.5901 72.2099 40.4228 72.6743 41.3009 73.0375C41.5374 73.131 41.7795 73.2098 42.0258 73.2733L42.0284 73.2751Z" fill="#C3937C"/>
<path d="M52.4701 43.778C54.2384 42.9982 55.6631 43.3729 56.2764 45.3109C57.1682 48.1252 54.9179 50.7134 53.2359 52.7083C50.7902 55.6124 47.7179 57.6779 44.4402 59.5317C44.3982 59.559 44.3475 59.5693 44.2983 59.5606C44.2492 59.5518 44.2052 59.5246 44.1754 59.4846C43.6208 60.4109 43.7627 61.2507 42.6992 61.9701C42.4484 62.1406 41.2384 61.794 41.493 61.6205C45.0906 59.1761 44.8846 55.3458 46.1915 51.6635C47.279 48.6044 49.3754 45.1422 52.4701 43.778ZM47.5004 49.8309C46.66 52.6364 45.7818 55.4311 44.8658 58.2151C47.0141 56.4764 47.5598 53.6177 48.2179 51.023C48.8497 48.5331 49.9225 46.682 51.5595 44.7701C50.6861 45.4505 49.9029 46.2396 49.2287 47.1181C48.5665 47.9645 47.9877 48.873 47.5004 49.8309ZM44.6738 58.855C44.7715 58.7352 44.8706 58.6163 44.9658 58.4948C44.9609 58.4888 44.9574 58.4818 44.9553 58.4744C44.9532 58.467 44.9526 58.4592 44.9537 58.4515C44.9547 58.4439 44.9573 58.4365 44.9612 58.4298C44.9652 58.4232 44.9704 58.4174 44.9767 58.4129C45.0269 58.3743 45.0737 58.3353 45.1238 58.2968C45.174 58.2582 45.1696 58.2292 45.1929 58.1948C45.0708 58.2683 44.9483 58.3398 44.8245 58.4103C44.815 58.4243 44.7966 58.4323 44.782 58.4429C44.7357 58.5826 44.6915 58.7219 44.646 58.8604C44.6551 58.8576 44.6644 58.8558 44.6738 58.855ZM45.4793 57.8401C45.456 57.8745 45.4213 57.9012 45.3903 57.9305C45.3972 57.9203 45.4139 57.9148 45.4259 57.9081C45.4379 57.9013 45.4655 57.8549 45.4836 57.8337L45.4793 57.8401ZM51.9312 44.5141C51.9329 44.5229 51.9324 44.532 51.9298 44.5406C51.9272 44.5492 51.9226 44.5571 51.9163 44.5635C50.8375 45.7877 49.7833 47.0248 49.1416 48.5429C48.5434 49.9584 48.2649 51.4825 47.8793 52.9619C47.5799 54.1223 47.1988 55.2719 46.6247 56.2928C49.322 52.5024 51.4739 48.3521 53.0172 43.9642C52.636 44.1008 52.2728 44.2833 51.9355 44.5077L51.9312 44.5141ZM53.1805 43.9093C51.4507 48.8659 48.9472 53.5186 45.7636 57.694C45.8128 57.6623 45.8626 57.6327 45.9084 57.6061C46.7101 56.7393 47.5526 55.8944 48.3875 55.0388C49.3562 53.8137 50.1685 52.4726 50.8055 51.0467C51.9015 48.6051 52.575 46.0097 54.1228 43.7939C53.8063 43.7747 53.4888 43.8116 53.1848 43.9029L53.1805 43.9093ZM54.3571 43.8148C54.3354 43.8113 54.3145 43.812 54.2928 43.8085C52.521 46.3115 51.879 49.3151 50.511 52.0189C50.1148 52.8025 49.6622 53.5564 49.1569 54.2747C51.9127 51.4465 54.483 48.4816 55.2244 44.4706C55.2267 44.4597 55.2316 44.4496 55.2385 44.441C55.2454 44.4323 55.2542 44.4254 55.2642 44.4206C55.2742 44.4159 55.2851 44.4136 55.2962 44.4137C55.3072 44.4139 55.3181 44.4166 55.3279 44.4216C55.0958 44.0983 54.7477 43.8774 54.3563 43.805L54.3571 43.8148ZM55.3524 44.4512C55.3524 44.4512 55.3621 44.4671 55.359 44.4799C54.5546 48.8443 51.6027 51.9786 48.5897 55.0306C48.044 55.7281 47.4515 56.3876 46.8162 57.0044C50.5372 54.4391 53.6488 51.0847 55.929 47.1806C55.9334 47.1726 55.9395 47.1657 55.947 47.1604C55.9544 47.1551 55.9629 47.1516 55.9719 47.1501C55.9726 47.1416 55.9739 47.1332 55.9759 47.1249C56.059 46.3556 55.9046 45.1726 55.3516 44.4414L55.3524 44.4512ZM55.9196 47.4494C53.4945 51.5343 50.1606 55.0053 46.1779 57.5914C46.0495 57.7072 45.9194 57.82 45.7868 57.931C45.6168 58.1191 45.4473 58.3093 45.2812 58.5C48.2118 56.7645 50.9154 54.8027 53.1025 52.1271C54.2041 50.7789 55.5931 49.2087 55.9252 47.4439L55.9196 47.4494ZM44.4699 58.9699L44.4935 58.9022L44.4519 58.98L44.4699 58.9699ZM45.8122 54.83C46.2561 53.4433 46.687 52.0521 47.1049 50.6565C46.7342 51.4925 46.4324 52.3572 46.2025 53.2421C46.0694 53.7731 45.944 54.3037 45.8178 54.8245L45.8122 54.83Z" fill="#C3937C"/>
<path d="M40.95 61.3925C42.0095 61.6287 43.0417 61.9727 44.0307 62.4193C44.072 62.3828 44.1249 62.362 44.1799 62.3604C46.0133 62.2912 47.829 61.9688 49.5755 61.4024C50.7889 61.0261 51.9596 60.7046 53.2375 60.6825C55.9416 60.6326 59.6943 61.5843 61.0295 64.2395C62.2111 66.5899 60.0112 69.5804 57.5243 69.6601C54.9085 69.7493 52.4336 67.7397 50.3143 66.4542C47.3592 64.6664 43.5953 63.1065 40.1699 62.3781C39.8648 62.3111 40.6517 61.3264 40.95 61.3925ZM47.9549 62.4737C48.069 62.4914 48.1831 62.5036 48.2955 62.5183C49.2058 62.4949 50.115 62.5879 51.0012 62.7949C53.4733 62.9467 55.9553 62.8174 58.3996 62.4095C57.3015 61.7758 56.0845 61.375 54.824 61.2318C54.8158 61.2424 54.8046 61.2504 54.7918 61.2546C53.3337 61.7319 51.8338 62.0692 50.3124 62.2618C49.1687 62.4008 48.0094 62.3767 46.8704 62.5635L46.625 62.6057C46.4913 62.6305 46.3598 62.6605 46.2278 62.6939C46.3066 62.7007 46.3845 62.7089 46.4642 62.72C46.9335 62.6306 47.4078 62.5703 47.8844 62.5395C47.8824 62.5302 47.8826 62.5206 47.8852 62.5115C47.8878 62.5024 47.8927 62.4941 47.8993 62.4873C47.9059 62.4805 47.9141 62.4755 47.9231 62.4726C47.9322 62.4698 47.9418 62.4693 47.951 62.4711L47.9549 62.4737ZM45.4939 63.1288C46.5043 63.2362 47.5262 63.329 48.5415 63.4565C47.8855 63.1694 47.1944 62.9698 46.486 62.8631C46.1347 62.9224 45.7866 62.9996 45.4431 63.0944L45.4939 63.1288ZM45.2813 63.0128C45.2865 63.0052 45.2908 62.9988 45.2951 62.9924C45.5293 62.9204 45.7673 62.862 46.0069 62.8066L45.8479 62.7976C45.7381 62.8311 45.6232 62.8556 45.5222 62.9007C45.5091 62.9057 45.4948 62.9067 45.4811 62.9035C45.4675 62.9003 45.4551 62.8932 45.4455 62.8829C45.4359 62.8726 45.4296 62.8597 45.4274 62.8459C45.4252 62.832 45.4272 62.8178 45.4331 62.805C45.3891 62.8069 45.3457 62.8054 45.303 62.8081C45.2888 62.8082 45.2748 62.804 45.263 62.796C45.2512 62.788 45.2421 62.7766 45.2369 62.7633C45.1093 62.7737 44.9865 62.7798 44.8487 62.7889L45.2813 63.0128ZM49.1915 62.0165C48.8462 62.1212 48.5018 62.2135 48.155 62.2986C48.7125 62.2612 49.2733 62.2354 49.8339 62.1797C51.4195 62.012 52.9844 61.6837 54.5045 61.1997C54.2183 61.1733 53.9295 61.1588 53.6382 61.1563C52.0609 61.1413 50.6792 61.5636 49.1877 62.0139L49.1915 62.0165ZM58.5205 62.4802C58.5207 62.4942 58.5157 62.5078 58.5065 62.5184C58.4973 62.529 58.4845 62.5358 58.4706 62.5375C56.2231 62.9167 53.9428 63.0611 51.6666 62.9681C52.9164 63.3436 54.0894 63.8901 55.4042 64.038C56.8834 64.206 58.5874 63.946 60.0566 63.7205C59.8144 63.4439 59.5438 63.1935 59.2493 62.9734C59.0087 62.7919 58.7657 62.6275 58.5167 62.4776L58.5205 62.4802ZM60.1533 63.838C60.1533 63.838 60.1533 63.838 60.1472 63.8469C57.8307 64.2037 55.4519 64.4142 53.2021 63.6448C52.2974 63.328 51.3704 63.0786 50.4287 62.8984C49.8297 62.8518 49.2321 62.784 48.6334 62.7042C48.0495 62.6854 47.465 62.7159 46.886 62.7954C47.5823 62.9533 48.258 63.1904 48.9001 63.502C50.0664 63.6423 51.2191 63.8771 52.3471 64.204C55.189 65.0656 57.7662 66.1404 60.7585 66.4045C61.0202 65.4177 60.7264 64.5531 60.1495 63.8354L60.1533 63.838ZM60.7029 66.5881C60.7132 66.5728 60.7125 66.5519 60.7191 66.534C58.0949 66.3014 55.7501 65.5327 53.274 64.6566C52.0044 64.2251 50.6968 63.9142 49.3685 63.7279C50.0516 64.0693 50.7225 64.4453 51.3946 64.7811C54.1115 66.14 56.9105 67.298 59.8649 68.0292C60.2342 67.6067 60.5172 67.1159 60.6978 66.5847L60.7029 66.5881ZM59.7549 68.1314C57.246 67.485 54.8089 66.5881 52.4801 65.4543C51.3683 64.9269 50.2324 64.2214 49.0535 63.6672C48.0652 63.5246 47.0698 63.4199 46.0773 63.3135C50.2121 64.3118 53.0736 67.9832 57.1305 69.1761C57.4168 69.1916 57.704 69.1752 57.9869 69.1272C58.6668 68.9923 59.2863 68.6434 59.7549 68.1314ZM53.1183 67.5857C54.1344 68.186 55.2701 68.856 56.4657 69.0925C52.7857 67.74 50.0301 64.4601 46.1855 63.4797C47.1782 64.0214 48.1463 64.6021 49.089 65.1602C50.4389 65.9659 51.7691 66.7954 53.1186 67.5934L53.1183 67.5857Z" fill="#C3937C"/>
<path d="M57.5677 55.8127C58.2922 55.682 58.5472 56.193 59.2996 56.3117C59.3265 56.2933 59.3567 56.2803 59.3885 56.2733C63.5192 55.428 67.62 52.547 71.9819 53.4535C74.9363 54.0695 77.8349 57.2286 76.0591 60.3294C74.1496 63.6634 69.7303 62.2829 67.229 60.6273C64.4127 58.7605 60.7792 56.1119 57.1647 56.7672C56.8585 56.8278 57.265 55.8682 57.5677 55.8127ZM61.8809 57.0433C64.0884 57.3435 66.3466 57.295 68.4843 57.9477C70.7083 58.6291 72.6966 59.8835 74.6423 61.1296C75.2737 60.6715 75.7302 60.0114 75.9361 59.2589C73.8508 57.5752 71.3388 56.504 68.6788 56.1641L68.4236 56.1384C68.0352 56.2027 67.645 56.2696 67.256 56.3374C65.1981 56.7021 63.1064 56.8352 61.0201 56.7341C61.3105 56.8284 61.5974 56.9333 61.8809 57.0433ZM60.463 56.5654C62.9745 56.7589 65.3774 56.4773 67.8328 56.088C65.3551 55.9267 62.8162 56.3134 60.355 56.5387L60.4575 56.5653L60.463 56.5654ZM70.5154 53.7682C67.8434 53.6966 65.3559 54.7856 62.8475 55.7135C64.5308 55.7387 66.2078 55.4924 67.8141 54.9839C69.1404 54.5613 70.4448 54.1109 71.8127 53.9173C71.3863 53.8307 70.953 53.7814 70.5179 53.7699L70.5154 53.7682ZM72.2076 54.0078C70.5534 54.1751 69.019 54.7599 67.4334 55.2395C65.8017 55.7325 64.2526 55.876 62.5685 55.8519C62.5604 55.8521 62.5523 55.8505 62.5449 55.8474C62.5374 55.8443 62.5307 55.8396 62.5251 55.8338C62.0308 56.0161 61.5306 56.1853 61.0306 56.3378C63.4596 56.0943 65.9631 55.7599 68.3881 55.999L68.7394 55.943C70.9482 55.5783 73.1606 55.3836 75.3183 56.0479C74.5983 55.0047 73.4509 54.3435 72.2127 54.0113L72.2076 54.0078ZM75.806 56.9823C75.7086 56.7188 75.5856 56.4655 75.4387 56.2262C73.2811 55.5097 71.0963 55.7047 68.9031 56.0575L69.1322 56.0861C71.635 56.4837 73.99 57.5258 75.9663 59.1101C76.1227 58.4015 76.0687 57.6631 75.8111 56.9858L75.806 56.9823ZM74.5137 61.21C72.5943 59.9798 70.6298 58.7451 68.4363 58.0733C66.4653 57.4702 64.3956 57.4678 62.3619 57.2368C62.5679 57.3242 62.7697 57.4124 62.9685 57.5023C64.7385 57.5289 66.4811 57.9368 68.0776 58.6984C69.6742 59.4599 71.0873 60.5572 72.2208 61.9156C72.5296 61.9013 72.8366 61.8602 73.1384 61.7928C73.6304 61.6875 74.0986 61.491 74.5188 61.2134L74.5137 61.21ZM69.8704 61.5113C68.6567 60.5681 67.3306 59.7793 65.9224 59.163C67.2087 60.0353 68.4854 60.9849 69.8755 61.5147L69.8704 61.5113ZM65.3424 58.776C67.1193 59.4756 68.778 60.4438 70.2607 61.6471C70.836 61.8338 71.4377 61.9271 72.043 61.9235C70.9564 60.6439 69.6168 59.6035 68.1082 58.8676C66.5996 58.1318 64.9546 57.7164 63.2763 57.6474C63.4831 57.7446 63.6878 57.8423 63.8857 57.939C64.3876 58.1896 64.8745 58.4694 65.3437 58.7769L65.3424 58.776Z" fill="#C3937C"/>
<path d="M65.7093 34.9729C69.2372 34.906 70.1646 39.1557 69.2673 41.8434C67.8758 46.015 64.3549 49.2309 61.4224 52.3393C61.3952 52.3694 61.3595 52.3907 61.3201 52.4002C60.7756 53.5006 60.9352 53.7909 60.0143 54.6366C59.7896 54.8453 58.5802 55.202 58.8049 54.9933C60.596 53.3467 61.6843 51.0729 61.8428 48.6465C61.9754 46.505 61.315 44.3845 61.1439 42.2643C60.9163 39.2877 61.9947 35.0418 65.7093 34.9729ZM62.6458 37.2172C62.575 37.3218 62.5051 37.4251 62.4369 37.5258C62.4369 37.5258 62.4369 37.5258 62.4394 37.5386C62.1396 40.1005 62.1865 42.6904 62.5788 45.238C62.6582 44.3973 62.723 43.5561 62.7666 42.7136C62.8622 40.824 62.8551 38.9356 62.7725 37.0464C62.7311 37.102 62.6889 37.159 62.6467 37.2159L62.6458 37.2172ZM62.3343 48.3915C62.3308 48.5008 62.3239 48.6096 62.3184 48.7192C62.516 48.4271 62.7214 48.1236 62.9294 47.8163C62.8854 47.5745 62.8378 47.3433 62.7977 47.134C62.7353 46.8153 62.6746 46.4966 62.6159 46.1779C62.5342 46.916 62.4406 47.6534 62.3351 48.3903L62.3343 48.3915ZM63.0642 48.7926C62.7756 49.2405 62.4646 49.6735 62.1323 50.0901C62.1031 50.2265 62.0713 50.3612 62.0412 50.4989C62.3745 49.9323 62.7142 49.3701 63.0717 48.8199L63.0642 48.7926ZM63.0434 48.574C63.0211 48.3822 62.9928 48.1939 62.9619 48.0093C62.7439 48.3452 62.5175 48.6661 62.3043 48.9811C62.2798 49.2584 62.2396 49.5343 62.1901 49.8075C62.4927 49.4043 62.7787 48.9954 63.0443 48.5727L63.0434 48.574ZM62.6836 45.8723C62.766 46.326 62.9315 46.9419 63.0638 47.5985C64.2047 45.7675 65.1522 43.6029 64.7984 41.5691C64.4857 39.7733 63.5138 38.2007 63.471 36.3514C63.2655 36.5155 63.075 36.6978 62.9021 36.8961C63.0393 39.8473 62.9589 42.8053 62.6616 45.7459C62.6702 45.7852 62.6763 45.8283 62.6845 45.871L62.6836 45.8723ZM63.6035 36.2514C63.6133 38.4893 65.1125 40.4336 65.0183 42.6773C64.9468 44.427 64.0938 46.2354 63.101 47.7929C63.1345 47.9736 63.1645 48.1539 63.1891 48.3341C64.0945 46.8435 64.727 45.2036 65.0568 43.4918C65.5531 40.8842 65.2639 38.2397 64.9609 35.6322C64.9603 35.6184 64.9643 35.6048 64.9723 35.5935C64.4786 35.7223 64.0141 35.9453 63.6044 36.2501L63.6035 36.2514ZM65.0709 35.571C65.077 35.5754 65.0822 35.5811 65.0861 35.5875C65.09 35.594 65.0926 35.6012 65.0936 35.6087C65.3962 38.2306 65.6957 40.9008 65.1964 43.5212C64.8512 45.3077 64.1788 47.0156 63.2132 48.5587L63.2155 48.5882C63.3882 48.3331 63.5608 48.0781 63.7423 47.829C64.6942 46.532 65.7923 45.293 66.3914 43.7776C66.615 42.9156 66.7915 42.0328 66.9424 41.1494C67.0459 39.2783 66.64 37.3599 66.2456 35.5478C66.2456 35.5478 66.2517 35.5389 66.2551 35.5338C65.8627 35.4729 65.4623 35.4842 65.0735 35.5672L65.0709 35.571ZM64.4822 47.0728C64.0421 47.6545 63.6306 48.2462 63.2356 48.849C63.2598 49.1627 63.2485 49.4781 63.2019 49.7894C63.6066 49.3586 64.0074 48.9251 64.4015 48.4853C65.1875 47.2697 65.7864 45.9432 66.1782 44.5501C65.6846 45.4334 65.1191 46.2746 64.4874 47.0651L64.4822 47.0728ZM66.3884 35.5533C66.7154 37.0595 67.0512 38.6404 67.0946 40.2093C67.3041 38.8338 67.4649 37.47 67.6519 36.1908C67.6552 36.178 67.6628 36.1667 67.6735 36.1589C67.3032 35.8533 66.8639 35.6428 66.3936 35.5457L66.3884 35.5533ZM67.7742 36.2457C67.5527 37.7842 67.3613 39.4453 67.0804 41.1071C67.0486 41.8763 66.9136 42.638 66.679 43.3717C66.6283 43.5234 66.5725 43.6715 66.5129 43.8171C66.169 45.2313 65.6386 46.5938 64.9356 47.8687C65.2111 47.5493 65.4802 47.2257 65.7429 46.8977C65.7333 46.8905 65.7264 46.8801 65.7235 46.8683C65.7207 46.8565 65.722 46.8441 65.7273 46.8332C66.9726 43.8065 68.186 40.7695 68.694 37.5171C68.694 37.5171 68.7018 37.5056 68.7052 37.5005C68.5572 37.1922 68.3724 36.9031 68.1551 36.6392C68.0416 36.4982 67.9182 36.3656 67.7857 36.2424L67.7742 36.2457ZM68.3869 42.7388C69.1138 41.1686 69.4732 39.2921 68.8021 37.7C68.2881 40.805 67.1481 43.7226 65.9571 46.6224C66.9171 45.4271 67.7356 44.1248 68.3963 42.7414L68.3869 42.7388ZM62.9917 49.9986C63.0568 49.699 63.083 49.3923 63.0695 49.0862C62.6576 49.7223 62.2622 50.3695 61.8719 51.0258C61.8469 51.1037 61.8212 51.1774 61.792 51.2562C62.1996 50.8366 62.6037 50.4166 63.0045 49.9961L62.9917 49.9986ZM62.3059 47.4798C62.3349 47.3247 62.3547 47.1968 62.3628 47.1465C62.4238 46.6782 62.4766 46.2082 62.5261 45.7378C62.4124 45.103 62.3127 44.4666 62.2447 43.8218C62.0423 41.8185 62.051 39.7989 62.2706 37.7963C60.6886 40.7067 62.1249 44.3358 62.3187 47.4773L62.3059 47.4798Z" fill="#C3937C"/>
<path d="M69.2428 47.1651C70.0832 47.0551 70.1 47.6057 70.8974 47.6824C70.8924 47.6463 70.8973 47.6095 70.9115 47.5759C70.9257 47.5423 70.9488 47.5132 70.9782 47.4917C73.5016 45.4564 76.697 44.4504 79.9292 44.8286C82.0251 45.0718 86.4107 46.2529 86.6872 48.8722C87.0501 52.2955 81.9328 52.0175 79.9246 51.4282C75.9639 50.2632 72.9199 47.6175 68.5392 48.1857C68.2314 48.2322 68.9407 47.2005 69.2428 47.1651ZM71.6333 47.7788C71.8783 47.6743 72.1239 47.579 72.3701 47.4928L72.2201 47.4954C72.0482 47.5055 71.8707 47.5211 71.6902 47.544C71.601 47.61 71.5143 47.6778 71.4268 47.7469L71.6333 47.7788ZM73.6665 48.279C74.0464 48.2218 74.4192 48.145 74.7869 48.0647C74.1898 47.7194 73.5181 47.5231 72.8284 47.4924L72.805 47.4914C72.4968 47.5878 72.1903 47.6983 71.887 47.8203C72.4899 47.9332 73.0844 48.0864 73.6665 48.279ZM75.0453 48.009C75.3733 47.9354 75.6987 47.8655 76.0275 47.8072C75.3959 47.665 74.7538 47.5737 74.1075 47.5343C74.2244 47.5764 74.339 47.6248 74.4507 47.6792C74.6515 47.7798 74.8489 47.891 75.0427 48.0073L75.0453 48.009ZM79.5257 45.2658C77.9273 45.1345 76.3183 45.3449 74.8056 45.8833C78.0353 45.8898 81.329 46.5141 84.5174 46.8775C84.1543 46.6634 83.7742 46.4768 83.4379 46.3162C82.2079 45.7339 80.8828 45.3781 79.5257 45.2658ZM85.5801 47.7213C85.3205 47.4347 85.02 47.1882 84.6883 46.9895C84.6858 47.0043 84.6776 47.0176 84.6654 47.0264C84.6532 47.0352 84.638 47.0388 84.6231 47.0365C81.2789 46.6513 77.8197 45.9782 74.4366 46.0203C73.7719 46.281 73.1321 46.6018 72.5253 46.9786C77.0568 45.1216 81.9801 46.8208 86.1374 49.0598C86.113 48.5619 85.9159 48.0886 85.5801 47.7213ZM86.1294 49.2087C81.8214 46.8771 76.6725 45.0977 71.9901 47.3583C72.2912 47.3228 72.5943 47.308 72.8973 47.314C75.0536 46.6645 77.3496 46.6496 79.5109 47.2712C81.6723 47.8928 83.6077 49.1245 85.0858 50.8192C85.7289 50.4307 86.0944 49.8413 86.1294 49.2087ZM84.8099 50.9803C84.8669 50.9537 84.9195 50.9224 84.9726 50.8933C83.5534 49.2725 81.7092 48.0818 79.6479 47.4552C77.5865 46.8286 75.3899 46.791 73.3054 47.3466C73.3369 47.3494 73.3684 47.3577 73.3991 47.3617C74.4019 47.3719 75.3995 47.5032 76.3702 47.7529C77.1468 47.6191 77.9425 47.6507 78.7052 47.8456C80.7525 48.4073 82.3643 49.87 83.8707 51.2967C84.1937 51.2236 84.5084 51.1176 84.8099 50.9803ZM83.707 51.3495C82.0509 49.7824 80.2064 48.1456 77.8571 47.8219C77.4281 47.765 76.9935 47.7627 76.5637 47.815C76.6483 47.8407 76.7339 47.8595 76.818 47.8886C78.6819 48.5103 80.1188 49.8342 81.3738 51.2952C81.3791 51.3014 81.3831 51.3085 81.3855 51.3162C81.3879 51.3239 81.3888 51.3321 81.388 51.3401C82.155 51.4874 82.9432 51.4884 83.7113 51.3431L83.707 51.3495ZM81.2028 51.3041C79.8763 49.776 78.345 48.4217 76.3418 47.888L76.2316 47.8618C75.8705 47.9186 75.5105 47.9985 75.1538 48.0843C76.1697 48.7068 77.1283 49.5154 78.0501 50.2303C79.0586 50.7042 80.1177 51.0622 81.2071 51.2977L81.2028 51.3041ZM77.4785 49.9569C76.6854 49.3533 75.8829 48.7525 75.0448 48.2207C74.999 48.1897 74.9532 48.1698 74.9107 48.1448C74.575 48.2244 74.2444 48.3075 73.902 48.3695C74.5835 48.6085 75.2511 48.8853 75.9018 49.1986C76.4004 49.4263 76.9303 49.6901 77.4828 49.9506L77.4785 49.9569Z" fill="#C3937C"/>
<path d="M75.1418 40.5009C75.7829 40.1483 75.8847 40.6801 76.5734 40.4378C76.5864 40.4079 76.6048 40.3806 76.6278 40.3575C78.0719 38.9618 79.6291 37.6883 81.2832 36.5501C82.3832 35.807 83.5768 35.1421 84.9284 35.0658C86.8311 34.9588 89.9705 36.2467 89.9577 38.54C89.9374 41.1294 86.8509 41.3853 84.9913 40.9245C82.8806 40.4017 80.8811 40.1475 78.9121 40.3991C78.4595 40.5931 77.9708 40.6873 77.4791 40.6751C76.5378 40.923 75.6304 41.2863 74.7777 41.7569C74.5117 41.906 74.8733 40.6483 75.1418 40.5009ZM81.8544 38.3312C81.9492 38.2541 82.0407 38.171 82.1339 38.0908C81.6243 38.2324 81.1238 38.4054 80.6354 38.6089L80.587 38.6393C80.9169 38.593 81.2475 38.5676 81.5742 38.5507C81.6758 38.48 81.766 38.4016 81.8544 38.3312ZM84.8276 35.5572C84.7785 35.5612 84.7299 35.5673 84.6812 35.5735C84.6808 35.5841 84.6774 35.5943 84.6715 35.6031C84.6655 35.6119 84.6573 35.6189 84.6476 35.6232C82.7172 36.4123 81.1392 37.7933 79.395 38.8963C79.5945 38.8454 79.8039 38.7881 80.005 38.7513C80.1907 38.6631 80.376 38.5784 80.5647 38.4997C81.3861 37.9722 82.2589 37.5299 83.1696 37.1797C83.7329 36.646 84.2821 36.1029 84.8276 35.5572ZM83.5088 37.0429C84.8595 36.5633 86.2733 36.2869 87.704 36.2227C86.8969 35.7455 85.9693 35.5108 85.0315 35.5464C84.5286 36.0484 84.0248 36.5517 83.5088 37.0429ZM78.7385 39.8856C79.113 39.5501 79.5044 39.2341 79.9114 38.9389C79.2947 39.2429 78.7037 39.5966 78.1442 39.9966C78.341 39.955 78.54 39.9186 78.7385 39.8856ZM81.2883 38.214C81.6492 38.0864 82.0065 37.9749 82.3764 37.8831C82.5503 37.733 82.7238 37.5808 82.8943 37.4248C82.3432 37.6541 81.8068 37.9177 81.2883 38.214ZM80.319 38.8243C79.8541 39.14 79.4081 39.4825 78.9831 39.8503C79.1879 39.8216 79.3919 39.7942 79.5925 39.7718C79.9435 39.5929 80.3095 39.411 80.6847 39.254C80.9364 39.0711 81.1763 38.8838 81.4058 38.7008C81.0411 38.7203 80.6778 38.7612 80.3178 38.8235L80.319 38.8243ZM77.8012 40.0787C78.3265 39.683 78.8811 39.328 79.4601 39.0166C79.2708 39.0744 79.084 39.1339 78.8998 39.1952C78.662 39.3355 78.42 39.4711 78.1739 39.5964C77.9703 39.7767 77.7677 39.9556 77.5679 40.1384L77.8012 40.0787ZM80.4173 37.7584C79.8421 38.1891 79.2838 38.6388 78.7372 39.1038L78.8501 39.063C80.6955 37.9802 82.3118 36.5154 84.2749 35.6313L84.2438 35.6363C82.8059 35.9443 81.5574 36.9067 80.4138 37.7635L80.4173 37.7584ZM87.9115 36.3464C86.3171 36.3964 84.7416 36.7128 83.2502 37.2825C83.0565 37.4619 82.8632 37.638 82.6648 37.8161C84.8521 37.3155 87.1311 37.399 89.2732 38.0581C89.2808 38.0633 89.2859 38.0667 89.2923 38.071C89.1458 37.5541 88.8479 37.0934 88.4368 36.7484C88.2695 36.6045 88.0929 36.472 87.908 36.3515L87.9115 36.3464ZM89.3091 38.1475C89.3031 38.1624 89.2916 38.1744 89.2771 38.1811C89.2625 38.1879 89.246 38.1888 89.2308 38.1838C87.0338 37.5061 84.6921 37.4419 82.4582 37.998C82.2444 38.1824 82.0264 38.3621 81.8066 38.5388C84.0924 38.5014 86.3947 39.2097 88.5373 40.1484C88.8502 39.9306 89.0907 39.6239 89.2277 39.268C89.3647 38.9122 89.3919 38.5236 89.3057 38.1526L89.3091 38.1475ZM80.3466 39.7206C81.3105 39.7098 82.2724 39.8057 83.2147 40.0067C84.658 40.2825 86.1989 40.9924 87.6736 40.5643C87.9308 40.4905 88.1763 40.3806 88.4027 40.2377C86.2438 39.3011 83.9236 38.6029 81.623 38.6841C81.4505 38.8184 81.2755 38.951 81.101 39.0746C81.53 38.9031 81.9823 38.7973 82.4426 38.7609C83.6492 38.6961 84.7876 39.7101 85.624 40.4472C85.6892 40.5043 85.6102 40.6238 85.5472 40.5607C84.4535 39.5955 83.2879 38.6599 81.749 39.0706C81.2973 39.1965 80.8556 39.3564 80.4278 39.5487C80.3386 39.6092 80.246 39.6693 80.1508 39.7332C80.2122 39.7357 80.2758 39.7266 80.3432 39.7258L80.3466 39.7206Z" fill="#C3937C"/>
<path d="M72.9528 25.1409C74.0582 24.7734 75.2239 25.0732 76.1059 25.8003C77.3665 26.8394 77.732 28.2339 77.8244 29.8045C78.0694 33.8267 75.5376 37.2006 73.6719 40.5438C73.6669 40.5528 73.6611 40.5613 73.6547 40.5693C73.6598 41.4058 74.0615 41.4452 74.0504 42.2781C74.0461 42.5858 73.1604 43.3493 73.1616 43.0433C73.2223 38.6051 73.0667 34.396 71.3527 30.2536C70.5442 28.3026 70.5427 25.9346 72.9528 25.1409ZM75.9447 26.2769C76.3927 28.5771 75.8412 30.8963 75.4529 33.1716C75.2321 34.4707 75.171 36.153 74.6173 37.4945C74.5413 37.8223 74.4464 38.1455 74.3332 38.4625C74.4131 38.3306 74.4879 38.2065 74.5648 38.0763C75.0897 36.8213 75.3045 35.4159 75.7137 34.129C76.1928 32.6236 76.7668 31.1508 77.342 29.6788C77.2591 28.4011 76.8931 27.1251 75.943 26.2795L75.9447 26.2769ZM77.364 30.0135C76.7674 31.5417 76.1785 33.0751 75.7014 34.6432C75.4175 35.5779 75.2266 36.5532 74.9313 37.469C76.1376 35.4125 77.238 33.2659 77.3567 30.9011C77.371 30.6114 77.3739 30.314 77.364 30.0135ZM73.9466 39.1213C74.079 38.7888 74.2007 38.4528 74.304 38.1137C74.2764 38.1545 74.248 38.1966 74.2177 38.2412C74.1593 38.5193 74.0308 38.778 73.8445 38.9927C73.8324 39.0106 73.8212 39.0271 73.81 39.0437C73.8035 39.0537 73.7941 39.0615 73.7831 39.066C73.7721 39.0705 73.76 39.0715 73.7484 39.069C73.7347 39.0799 73.7204 39.0901 73.7055 39.0995C73.6776 39.1791 73.6484 39.2579 73.62 39.3354C73.6226 39.4357 73.6265 39.5368 73.6282 39.6384C73.7417 39.4679 73.8438 39.2953 73.9466 39.1213ZM73.6341 38.9228L73.6384 38.9164C73.6373 38.9188 73.6359 38.921 73.6341 38.9228ZM73.7456 38.6264C73.8617 38.2959 73.9762 37.9569 74.0873 37.6118C74.0834 37.326 74.0505 37.0415 73.989 36.7625C73.8575 37.0269 73.7119 37.284 73.553 37.5328C73.5814 37.9401 73.6027 38.3481 73.6167 38.7567C73.6583 38.7198 73.7009 38.6761 73.743 38.6303L73.7456 38.6264ZM73.9404 36.5493C73.7671 35.9175 73.5305 35.3051 73.2341 34.7213C73.3772 35.5731 73.4741 36.4327 73.5336 37.2929C73.6814 37.0537 73.8164 36.8067 73.9378 36.5531L73.9404 36.5493ZM73.0363 33.6764C73.0778 33.8644 73.1083 34.0523 73.1442 34.2403C73.5091 34.9159 73.8054 35.6265 74.0285 36.3616C74.2025 35.9739 74.3449 35.5728 74.4544 35.1623C74.4217 35.0434 74.3817 34.9271 74.3384 34.8048C73.8857 33.6078 73.1696 32.4984 72.3696 31.4829C72.6455 32.1976 72.8675 32.9321 73.0337 33.6802L73.0363 33.6764ZM74.0831 36.5659C74.1388 36.7891 74.1786 37.0161 74.202 37.2451C74.2327 37.145 74.2633 37.0449 74.297 36.9375C74.4338 36.3272 74.5349 35.7969 74.541 35.7303C74.5471 35.6638 74.5459 35.6463 74.5493 35.6058C74.5526 35.5653 74.5315 35.4896 74.5196 35.4332C74.4021 35.8225 74.2554 36.2025 74.0805 36.5697L74.0831 36.5659ZM74.5685 36.4816C74.5336 36.6811 74.4957 36.8823 74.4506 37.0805C74.4055 37.2787 74.3736 37.5341 74.3322 37.8036C74.3798 37.7112 74.4262 37.618 74.4679 37.5235C74.5566 37.1417 74.6036 36.7515 74.6083 36.3597C74.5905 36.3998 74.5778 36.4432 74.5659 36.4854L74.5685 36.4816ZM71.7842 30.0436C71.9255 30.3828 72.0651 30.7246 72.2021 31.0701C73.1498 32.2098 74.062 33.5282 74.5161 34.9177C74.5315 34.8538 74.5445 34.7881 74.5578 34.7246C74.512 33.9382 74.3488 33.1634 74.0735 32.4259C73.416 30.6217 72.4171 28.9137 71.4171 27.2813C71.3717 27.2059 71.4945 27.1477 71.5396 27.2209C72.8186 29.2933 74.341 31.6717 74.6584 34.1456C75.0265 31.3713 73.964 28.5214 72.3913 26.083C72.3441 26.0101 72.4687 25.9494 72.5128 26.0239C74.2046 28.6563 75.2997 31.7348 74.705 34.7015C74.715 34.9632 74.7116 35.2253 74.6948 35.4867C75.5303 32.06 75.7041 28.3286 73.6426 25.5985C73.5895 25.529 73.6895 25.4443 73.7453 25.5099C75.9104 28.3772 75.6535 32.3107 74.7376 35.8727C74.7685 36.1857 74.7669 36.5012 74.7329 36.8141C75.2066 35.292 75.2737 33.4612 75.498 32.1515C75.8405 30.152 76.2211 28.1784 75.7968 26.1638C75.7968 26.1638 75.8029 26.1549 75.8063 26.1498C75.666 26.038 75.5171 25.9373 75.3612 25.8485C74.7966 25.5188 74.1331 25.4003 73.4884 25.5141C72.8437 25.628 72.2596 25.9667 71.8399 26.4703C70.9045 27.6168 71.2766 28.8262 71.7816 30.0474L71.7842 30.0436Z" fill="#C3937C"/>
<path d="M80.3086 32.6496C82.4276 30.6474 84.781 28.8579 87.1068 27.1035C88.7455 25.8659 92.0141 24.2885 92.9982 27.1858C93.8065 29.581 91.4365 31.5212 89.2657 31.7256C86.9712 31.9485 84.5839 31.1603 82.3103 31.5908C82.28 31.5956 82.2491 31.5949 82.2191 31.5885C81.6764 32.0506 80.3834 33.6708 79.8656 34.1591C79.6358 34.3698 80.0856 32.8613 80.3086 32.6496ZM85.5776 28.8782C84.9915 29.3387 84.3985 29.7984 83.8171 30.2658C84.0658 30.1688 84.329 30.1143 84.5956 30.1046C84.668 30.0551 84.7405 30.0056 84.8142 29.9569C85.4831 29.3617 86.2038 28.8277 86.9678 28.3612C87.5594 27.8021 88.1197 27.207 88.6797 26.6098C88.4805 26.7111 88.2878 26.8248 88.1027 26.95C87.2379 27.5511 86.4125 28.2309 85.5776 28.8782ZM83.6332 31.006L83.7449 31.0053C83.7819 30.9671 83.8185 30.9268 83.8529 30.8924C83.8484 30.8822 83.8469 30.8709 83.8484 30.8598C83.85 30.8487 83.8547 30.8383 83.8619 30.8297C83.8505 30.8367 83.8388 30.843 83.8268 30.8487C83.768 30.9 83.7031 30.9547 83.637 31.0086L83.6332 31.006ZM89.2022 31.1619C88.3561 30.6172 87.2009 29.9321 86.1465 30.1036C85.9543 30.1373 85.7654 30.1874 85.5817 30.2532C86.157 30.4484 86.6763 30.78 87.0953 31.2199C87.7979 31.254 88.5022 31.2346 89.2022 31.1619ZM85.1232 30.2758C85.0352 30.2616 84.9465 30.2518 84.8574 30.2465C84.7717 30.3019 84.6864 30.3595 84.599 30.4119C84.472 30.5119 84.3549 30.6 84.2352 30.6974C84.1814 30.7522 84.1247 30.8086 84.0744 30.8583C84.3935 30.6573 84.7238 30.4748 85.0637 30.3117C85.0864 30.2973 85.1052 30.2859 85.1249 30.2732L85.1232 30.2758ZM85.8611 29.3415C86.0182 29.2136 86.1736 29.0826 86.3286 28.9495C86.0748 29.1236 85.8278 29.3059 85.5875 29.4966C85.6787 29.4412 85.7661 29.3943 85.8629 29.339L85.8611 29.3415ZM89.007 26.4631C88.4991 27.0137 87.9868 27.5596 87.456 28.0836C88.8562 27.306 90.3712 26.7575 91.9435 26.459C91.2081 25.8851 90.0227 26.0256 89.0088 26.4606L89.007 26.4631ZM92.0747 26.572C90.2976 26.8967 88.5937 27.5433 87.0469 28.4799C86.8334 28.6831 86.6135 28.882 86.3902 29.0749C88.3365 28.155 90.4781 27.7293 92.6254 27.8353C92.5958 27.3617 92.4016 26.9139 92.0765 26.5694L92.0747 26.572ZM92.6436 28.0112L92.6392 27.9711C90.5765 27.8673 88.5176 28.2591 86.6346 29.1138C86.9423 29 87.2582 28.9098 87.5794 28.8439C89.2016 28.5212 90.9553 28.7522 92.5955 28.8303C92.6454 28.5594 92.6622 28.2835 92.6453 28.0087L92.6436 28.0112ZM92.5701 28.9693C91.0679 28.8954 89.4882 28.7114 88 28.9129C87.0819 29.0485 86.2009 29.3712 85.4114 29.8609C85.2883 29.9524 85.1626 30.0421 85.0417 30.1332C85.1295 30.1444 85.2168 30.16 85.303 30.1799C86.0264 29.7769 86.8065 29.4681 87.6042 29.4129C88.9406 29.3207 90.4272 29.9381 91.6807 30.3328C92.1296 29.9963 92.4438 29.5106 92.5667 28.9633L92.5701 28.9693ZM91.5346 30.4254C90.3653 30.0543 89.027 29.5465 87.8119 29.5554C87.1801 29.5754 86.5587 29.7243 85.9858 29.9931C86.127 29.9626 86.2705 29.944 86.4147 29.9375C87.4232 29.9022 88.4783 30.5326 89.2934 31.06C89.3009 31.0643 89.3074 31.0701 89.3125 31.0772C89.3176 31.0842 89.321 31.0923 89.3227 31.1008C89.3243 31.1094 89.3241 31.1181 89.322 31.1266C89.3199 31.135 89.316 31.1429 89.3105 31.1497C90.1312 31.0469 90.9306 30.8329 91.5363 30.4229L91.5346 30.4254ZM86.892 31.2106C86.4686 30.7944 85.9473 30.4915 85.376 30.3297C85.293 30.3646 85.207 30.4013 85.1211 30.4324C84.8092 30.6192 84.507 30.8163 84.2236 31.0187C85.0742 31.0551 85.9324 31.1544 86.7459 31.1991L86.892 31.2106ZM83.1428 31.0237C83.3522 30.9335 83.558 30.8367 83.7604 30.7331C83.9616 30.57 84.1637 30.4111 84.3781 30.2643C83.8628 30.3373 83.3874 30.5844 83.0308 30.9646C83.0215 30.9749 83.0086 30.9812 82.9947 30.9822C82.9809 30.9833 82.9672 30.9789 82.9565 30.9701L82.8694 31.0413C82.9624 31.0299 83.0537 31.0266 83.1445 31.0211L83.1428 31.0237Z" fill="#C3937C"/>
<path d="M78.8158 15.7841C81.2126 16.5472 81.992 19.6071 81.9844 21.7886C81.9759 25.8401 82.4711 26.7443 82.1966 28.4049C82.1468 28.7059 81.1978 29.7464 81.2481 29.4365C81.3934 28.4691 81.4893 27.4952 81.5355 26.5183C81.4982 26.4943 81.4695 26.4592 81.4532 26.418C80.2433 23.3995 76.5388 22.1848 75.6178 19.0382C74.9974 16.9189 76.6111 15.0824 78.8158 15.7841ZM78.3621 20.0606C78.7449 20.4016 79.1037 20.7686 79.4359 21.1592C79.6998 21.4679 79.9398 21.7847 80.1831 22.1185C80.1561 21.7692 80.1406 21.4167 80.1427 21.0629L80.1155 20.9497C79.6335 19.0039 79.0464 16.7751 76.8174 16.2763C76.687 16.3549 76.5687 16.4521 76.4664 16.5649C77.5923 17.3864 77.8251 18.7359 78.3308 19.9725L78.3621 20.0606ZM81.0412 24.7278L81.0176 24.6338C80.8803 24.4714 80.7499 24.3107 80.6264 24.1515C80.6338 24.1788 80.637 24.207 80.6432 24.2335C80.7813 24.3939 80.9134 24.5577 81.0412 24.7278ZM81.593 24.603C81.4483 24.3563 81.3024 24.1088 81.1535 23.863C81.2821 24.3554 81.4324 24.8457 81.5823 25.3395C81.5885 25.0945 81.5921 24.849 81.593 24.603ZM81.4362 25.3224C81.2844 24.8478 81.1276 24.3699 81.0004 23.8784L81.2729 25.0595C81.3293 25.146 81.3827 25.2342 81.4362 25.3224ZM80.9405 24.3231L80.615 22.9983C80.5442 22.8891 80.4748 22.7807 80.4036 22.6694C80.438 23.0624 80.4921 23.4534 80.5658 23.8409C80.686 24.0059 80.8117 24.1653 80.9405 24.3231ZM80.52 22.618L80.3541 21.9479C80.3614 22.1016 80.3665 22.2557 80.3772 22.4098L80.52 22.618ZM80.2001 22.381C79.7578 21.7328 79.2564 21.1271 78.7024 20.5716C78.6385 20.5098 78.5729 20.4505 78.5064 20.3926C79.0102 21.5217 79.6346 22.5926 80.3688 23.5867C80.2945 23.1869 80.2383 22.785 80.2001 22.381ZM76.9985 16.1869C78.5546 16.6003 79.3737 17.9245 79.8513 19.4191C79.9581 19.7573 80.0581 20.1001 80.155 20.4446C80.2052 19.1566 80.3013 17.8308 79.5186 16.7953C78.7512 16.222 77.7672 15.8648 76.9985 16.1869ZM79.8632 17.0917C80.2202 17.7424 80.3347 18.4911 80.3384 19.2858C80.3406 19.9101 80.3305 20.5169 80.3349 21.1186C80.5044 21.7614 80.6607 22.4101 80.8114 23.0588C80.7509 22.7436 80.7135 22.4243 80.6994 22.1035C80.6452 20.8136 80.9594 19.5684 80.7192 18.2902C80.6542 18.1533 80.5867 18.0146 80.5098 17.8844C80.3351 17.5892 80.1172 17.322 79.8632 17.0917ZM80.9258 18.7796C81.0076 19.6698 80.887 20.5495 80.8467 21.4557C80.826 22.1227 80.8944 22.7893 81.05 23.4378C81.2356 23.7363 81.416 24.0369 81.5943 24.3379L81.5952 24.0187C81.5888 22.3019 81.5552 20.4198 80.9258 18.7796ZM79.0583 22.657C78.8077 22.1021 78.4941 21.578 78.1238 21.0949C77.6411 20.493 77.0209 20.064 76.3706 19.6686C76.7044 20.2484 77.111 20.7829 77.5806 21.2591C78.0575 21.7492 78.5619 22.204 79.0583 22.657ZM76.2557 19.4383C77.7374 20.3369 78.5696 21.3761 79.3118 22.8881C79.7112 23.2569 80.1054 23.6334 80.462 24.0272C80.4521 23.987 80.4443 23.9465 80.4366 23.9059C79.801 23.08 79.2425 22.1973 78.7683 21.2689C78.6065 20.9399 78.4638 20.6018 78.3409 20.2563C77.5539 19.6326 76.5337 19.1617 75.9266 18.3901C75.9802 18.7548 76.0913 19.1086 76.2557 19.4383ZM76.0603 17.2608C75.953 17.537 75.9029 17.832 75.913 18.1279C76.3968 18.857 77.2668 19.1855 77.9387 19.7052C78.0403 19.7852 78.1381 19.8681 78.2359 19.951C77.7962 18.7237 77.3684 17.3967 76.3823 16.681C76.2451 16.8556 76.1345 17.0495 76.054 17.2565L76.0603 17.2608Z" fill="#C3937C"/>
<path d="M79.5096 8.05371C81.2922 7.20355 82.6925 9.14598 83.3019 10.5253C84.2448 12.664 84.4059 14.8648 84.447 17.1741C84.4475 17.2135 84.4373 17.2522 84.4176 17.2862C84.7426 17.9376 84.9645 18.6456 84.8865 19.3663C84.8529 19.6708 84.2358 20.5306 84.2703 20.2248C84.4184 18.8468 83.5418 16.6266 82.7733 15.6138C81.8358 14.3769 80.6771 13.431 79.6295 12.3129C78.6105 11.2236 77.6809 8.92282 79.5096 8.05371ZM79.6703 11.6525L79.8772 11.8948C80.5577 12.3961 81.2115 12.9329 81.8357 13.5029C81.6236 13.1121 81.4115 12.7212 81.2041 12.3317L81.0263 11.9752C80.3936 11.4035 79.7165 10.8831 79.0013 10.4188C78.9965 10.4157 78.9924 10.4117 78.9892 10.407C78.9861 10.4023 78.9838 10.397 78.9827 10.3914C79.1214 10.855 79.3563 11.2839 79.672 11.65L79.6703 11.6525ZM83.4193 15.7033L83.4279 15.6905C83.3622 15.4917 83.2952 15.292 83.2338 15.0924C82.9642 14.7984 82.687 14.511 82.4023 14.2303C82.5413 14.4825 82.6842 14.7316 82.8225 14.9795C83.0247 15.2068 83.2221 15.4458 83.4147 15.6964L83.4193 15.7033ZM83.9225 15.4748C83.9129 15.4711 83.9042 15.4652 83.8971 15.4576C83.8096 15.3129 83.7178 15.1745 83.6201 15.0285C83.6157 15.0924 83.6084 15.1581 83.604 15.2221L83.6494 15.3551C83.7453 15.4627 83.8382 15.5721 83.9323 15.6823L83.9225 15.4748ZM79.9956 8.41239C80.8348 9.00433 81.5825 9.7164 82.2148 10.5259C81.9589 9.64621 81.5107 8.88918 80.4979 8.40459C80.33 8.378 80.1589 8.37832 79.991 8.40554L79.9956 8.41239ZM79.8209 8.45962C79.5525 8.55192 79.3266 8.73871 79.1852 8.98516C80.7606 9.80027 81.8815 11.3472 82.7036 13.0397C82.6688 12.8637 82.6298 12.6885 82.5988 12.5095C82.4995 11.9384 82.4231 11.3772 82.2978 10.8499C81.6094 9.9182 80.7718 9.10699 79.8189 8.44894L79.8209 8.45962ZM83.119 13.9549L83.2273 14.2141C83.3243 14.3448 83.4141 14.467 83.503 14.5959C83.5296 13.6359 83.4073 12.6904 82.9243 11.8094C82.8243 11.6283 82.712 11.4463 82.592 11.2646C82.7833 12.1547 82.9337 13.0559 83.1144 13.948L83.119 13.9549ZM83.4137 15.084L83.332 14.8595L83.3867 15.0527L83.4137 15.084ZM83.4197 14.7162L83.4822 14.8979C83.4841 14.8732 83.4839 14.8489 83.4845 14.8233C83.4635 14.783 83.4417 14.7441 83.416 14.7081L83.4197 14.7162ZM83.9421 15.9008L83.7655 15.6959C83.8317 15.8968 83.8961 16.0948 83.9555 16.2893L83.9421 15.9008ZM83.5728 15.5505L83.5599 15.6682C83.5877 15.7559 83.6134 15.8439 83.6425 15.9324C83.6462 15.9428 83.6474 15.954 83.6458 15.9649C83.6442 15.9758 83.64 15.9862 83.6335 15.9951C83.6891 16.0718 83.7418 16.1502 83.7944 16.2286C83.7213 16.0006 83.6461 15.7719 83.569 15.5424L83.5728 15.5505ZM82.0406 13.8851C81.5029 13.3781 80.9441 12.894 80.3596 12.437C81.0269 13.1526 81.7334 13.813 82.4016 14.5218C82.2763 14.3013 82.154 14.0902 82.0368 13.877L82.0406 13.8851ZM82.186 13.8348C82.5134 14.1456 82.832 14.4666 83.142 14.7978C83.0698 14.5482 82.9998 14.2982 82.935 14.046C82.4602 13.4252 81.9391 12.8413 81.3762 12.2994C81.641 12.8041 81.9097 13.3168 82.1822 13.8266L82.186 13.8348ZM82.8582 13.7319L82.8388 13.6537C82.0025 11.7712 80.8265 9.98243 79.1173 9.10468C79.0932 9.14039 79.0817 9.19025 79.0647 9.23454C79.8102 9.60707 80.2763 10.22 80.6865 10.9866C80.8494 11.294 81.0106 11.6038 81.1717 11.9137C81.7789 12.4715 82.3412 13.0764 82.8532 13.7229L82.8582 13.7319ZM83.2599 11.6944C82.9245 10.7404 82.5022 9.63267 81.7211 8.96462C81.5077 8.78381 81.266 8.63915 81.0058 8.53636C81.6963 8.97267 82.193 9.65747 82.394 10.4501C82.4353 10.6083 82.4733 10.7659 82.5112 10.9236C82.7028 11.1908 82.8807 11.4675 83.0441 11.7529C83.5812 12.702 83.6831 13.7434 83.6318 14.7947C83.7228 14.9343 83.8128 15.0752 83.9012 15.2187C83.8484 14.0168 83.6314 12.8283 83.2561 11.6862L83.2599 11.6944ZM78.9478 9.65935C78.914 9.88951 78.9261 10.124 78.9835 10.3492C78.9839 10.3374 78.9874 10.3259 78.9937 10.3159C79 10.3059 79.0088 10.2978 79.0193 10.2924C79.0298 10.2869 79.0415 10.2844 79.0533 10.2851C79.0651 10.2857 79.0764 10.2895 79.0862 10.296C79.7147 10.7071 80.3134 11.162 80.878 11.6573C80.4268 10.7402 79.9439 9.84256 79.0146 9.36613C78.9857 9.45977 78.9622 9.55496 78.944 9.65123L78.9478 9.65935Z" fill="#C3937C"/>
<path d="M86.2646 20.5443C87.0282 19.4955 87.7672 18.2143 88.7793 17.3764C89.7025 16.6178 92.1021 15.5958 93.0191 16.8987C94.0143 18.3272 92.6153 20.5507 91.2313 21.0941C89.3909 21.8159 87.291 21.6555 85.4589 22.5186C85.4589 22.5186 85.4439 22.5215 85.4366 22.524C84.9962 23.1556 84.5557 23.7984 84.1343 24.4484C83.9617 24.7035 83.6166 23.8899 83.7867 23.6331C84.5855 22.3979 85.3928 21.7394 86.2646 20.5443ZM86.2354 21.6588C86.4353 21.5462 86.6353 21.4268 86.8356 21.3008C86.9547 21.1248 87.0738 20.9488 87.1929 20.7728C86.9942 20.8566 86.8026 20.9564 86.6201 21.0713C86.4852 21.2614 86.357 21.4572 86.2354 21.6588ZM86.6308 21.5843L86.6453 21.5792L86.6505 21.5716C86.6505 21.5716 86.6368 21.5809 86.6308 21.5843ZM87.053 20.5164C86.9743 20.6081 86.9006 20.7033 86.8269 20.7985C86.9919 20.7118 87.1623 20.6357 87.337 20.5709C87.4535 20.3988 87.57 20.2266 87.6936 20.0685C87.4694 20.2019 87.2553 20.3516 87.053 20.5164ZM87.8859 19.8063C87.9988 19.6559 88.1139 19.5051 88.2298 19.3585C87.9723 19.5692 87.7266 19.7941 87.494 20.032C87.6231 19.9508 87.7537 19.8756 87.8859 19.8063ZM87.555 20.4953C87.8178 20.4114 88.0856 20.3442 88.3568 20.2942C88.8807 19.9366 89.4063 19.582 89.9444 19.2526C89.2589 19.3731 88.5951 19.5958 87.975 19.9131C87.8332 20.1035 87.6922 20.2981 87.555 20.4953ZM87.4272 20.6841C87.3289 20.8295 87.2305 20.9749 87.1321 21.1203C87.4534 20.9194 87.7626 20.7065 88.0751 20.494C87.8526 20.5415 87.6332 20.603 87.4183 20.6781L87.4272 20.6841ZM90.0131 17.1645C88.9235 17.6785 88.2693 18.6452 87.5706 19.5818C87.3572 19.8669 87.1464 20.1538 86.9356 20.4406C86.9393 20.4339 86.9437 20.4275 86.9485 20.4215C87.4378 19.8403 87.9995 19.3243 88.6199 18.8862C89.3738 18.0242 90.2406 17.2832 91.3397 16.8072C90.8784 16.8406 90.4274 16.9612 90.0106 17.1628L90.0131 17.1645ZM91.613 16.8118C91.6127 16.8221 91.6095 16.8322 91.6037 16.8408C91.5979 16.8494 91.5897 16.8562 91.5802 16.8602C90.639 17.2491 89.7925 17.837 89.099 18.5838C90.1728 17.9225 91.373 17.4943 92.6217 17.327C92.505 17.168 92.3529 17.0385 92.1774 16.9488C92.0018 16.859 91.8077 16.8115 91.6104 16.81L91.613 16.8118ZM92.7993 17.7113C92.772 17.6214 92.7357 17.5346 92.691 17.452C91.2581 17.6351 89.891 18.1668 88.7093 19.0006C88.5204 19.2168 88.3386 19.4415 88.1611 19.6709C88.8285 19.3702 89.5352 19.1665 90.2597 19.0662C91.0557 18.5852 91.9138 18.2161 92.8099 17.9695C92.8236 17.9664 92.838 17.9688 92.85 17.9762C92.8409 17.8857 92.8231 17.7964 92.7967 17.7095L92.7993 17.7113ZM92.8567 18.0867C92.8516 18.0944 92.8472 18.1008 92.8344 18.1032C92.0579 18.3128 91.3105 18.6191 90.6097 19.0149C91.3003 18.9413 91.9955 18.9218 92.6889 18.9568C92.8067 18.6815 92.8631 18.384 92.8542 18.085L92.8567 18.0867ZM92.6234 19.0946C91.8476 19.057 91.0699 19.0908 90.3 19.1958C89.7453 19.5195 89.2069 19.8766 88.6672 20.2384C89.6984 20.0847 90.7872 20.0926 91.749 20.0276C91.7613 20.0268 91.7735 20.029 91.7846 20.0341C91.7958 20.0392 91.8055 20.047 91.8128 20.0568C91.8202 20.0666 91.825 20.078 91.8268 20.0902C91.8286 20.1023 91.8274 20.1147 91.8233 20.1262C92.1525 19.8358 92.4233 19.485 92.6208 19.0929L92.6234 19.0946ZM89.2266 21.0148C89.7701 20.9104 90.378 20.8644 90.9037 20.6958C91.2326 20.5777 91.5349 20.3955 91.7931 20.1598L91.7871 20.1687C90.7433 20.2395 89.5298 20.216 88.4163 20.4256C87.9288 20.7595 87.4401 21.0926 86.9409 21.4055L86.8546 21.533C87.6314 21.3113 88.4388 21.1623 89.2291 21.0166L89.2266 21.0148ZM85.9977 21.7936C86.0751 21.6601 86.155 21.5282 86.2388 21.399C86.1447 21.538 86.0409 21.6722 85.943 21.8087L85.9977 21.7936Z" fill="#C3937C"/>
<path d="M86.3113 14.6222C86.7653 12.7539 87.8873 10.9918 89.1464 9.56429C89.9364 8.67091 91.3811 7.17187 92.7465 7.39303C94.5968 7.69505 94.1015 10.0188 93.1568 10.96C92.2563 11.8549 90.9652 12.305 89.8493 12.8551C89.0419 13.2332 88.272 13.6872 87.5501 14.211C87.5191 14.2569 87.4969 14.3089 87.473 14.3578C87.4492 14.4067 87.3931 14.3911 87.3669 14.3529C86.8095 14.8012 86.248 16.3104 85.8455 16.9491C85.6818 17.2102 85.3518 15.955 85.5147 15.6952C85.7451 15.3301 86.0114 14.9889 86.3096 14.6768C86.308 14.6586 86.3086 14.6402 86.3113 14.6222ZM93.0569 8.21671C91.0679 9.47093 89.3889 11.161 88.1471 13.1591C89.0628 12.3493 90.08 11.6625 91.1727 11.116C91.985 10.34 92.7186 9.48552 93.3627 8.56497C93.2863 8.43344 93.1842 8.31877 93.0624 8.22784L93.0569 8.21671ZM87.7505 13.4764L87.826 13.4252C87.8795 13.3462 87.9241 13.2611 87.9742 13.1815C87.8992 13.287 87.8251 13.3855 87.7509 13.4841L87.7505 13.4764ZM92.9339 8.13535C92.7701 8.04538 92.5892 7.99073 92.4028 7.97486C91.8093 8.60335 91.2296 9.24173 90.6635 9.89001C91.3669 9.241 92.1269 8.65633 92.9343 8.14304L92.9339 8.13535ZM88.5775 12.9725C88.7956 12.8511 89.0175 12.7323 89.2433 12.6161C89.3088 12.5823 89.376 12.5515 89.4436 12.5174C89.8125 12.2463 90.1898 11.9792 90.5423 11.6804C90.6204 11.6142 90.696 11.5464 90.772 11.4807C89.9947 11.9095 89.26 12.4116 88.5778 12.9801L88.5775 12.9725ZM87.0506 13.9845C87.0455 13.9751 87.0432 13.9644 87.0439 13.9537C87.0446 13.943 87.0483 13.9327 87.0546 13.924C88.3888 12.0675 89.7234 10.2114 91.0585 8.35553C90.4218 8.74835 89.8355 9.38725 89.3457 10.0041C88.6909 11.2154 87.9676 12.3885 87.1794 13.5175C87.1085 13.6908 87.0431 13.8642 86.9816 14.0401C87.0016 14.035 87.0235 14.0164 87.0476 13.9973L87.0506 13.9845ZM87.5058 12.805C87.9426 12.1486 88.3584 11.4786 88.753 10.7949C88.7013 10.8714 88.6521 10.9441 88.6046 11.0143C88.192 11.5891 87.8226 12.1936 87.4993 12.8229L87.5058 12.805ZM91.3416 8.192L87.3424 13.7562L87.4055 13.7096C88.9008 11.7002 90.5108 9.77863 92.2273 7.95466C92.109 7.95688 91.9911 7.9705 91.8753 7.99533C91.6873 8.04476 91.5059 8.11681 91.3351 8.20989L91.3416 8.192ZM93.446 9.6942C93.5708 9.3695 93.5692 9.00997 93.4414 8.68704C92.8831 9.47942 92.2593 10.2235 91.5764 10.9113C92.0643 10.6836 92.5788 10.474 93.1163 10.2799C93.2528 10.1085 93.3618 9.91694 93.4394 9.71208L93.446 9.6942ZM91.7787 11.355C92.2065 11.1246 92.5987 10.8331 92.9428 10.4898C92.3705 10.6999 91.8102 10.9415 91.2644 11.2134C91.1828 11.2901 91.1012 11.3669 91.0183 11.4428C90.7159 11.7142 90.3984 11.9642 90.0758 12.2052C90.6436 11.9554 91.2226 11.6889 91.7721 11.3729L91.7787 11.355Z" fill="#C3937C"/>
<path d="M86.7674 5.88109C86.8851 4.21104 88.9299 -1.89303 91.5783 0.583552C92.6013 1.53805 91.757 2.80751 90.9178 3.51326C89.4218 4.77303 86.8297 5.61644 86.364 7.77612C86.2997 8.07661 85.8503 7.92126 85.9108 7.62374C86.0578 7.01626 86.3577 6.45618 86.7818 5.99681C86.7675 5.96005 86.7626 5.92029 86.7674 5.88109ZM89.566 0.962128C88.7814 2.1214 88.0483 3.30059 87.6519 4.64259C87.794 4.51284 87.9429 4.39077 88.0979 4.27686C88.2676 4.0589 88.4323 3.8375 88.5995 3.61782C88.5995 3.61782 88.5975 3.6016 88.6036 3.59267C89.1919 2.75946 89.6067 1.81654 89.8234 0.820214C89.7343 0.864088 89.6482 0.911814 89.566 0.962128ZM87.6809 4.79979C87.6465 4.83416 87.6134 4.86939 87.5803 4.90463L87.5702 4.93872L87.6809 4.79979ZM87.3122 5.26242C87.3511 5.20503 87.3979 5.15495 87.4419 5.101C87.4326 5.09659 87.424 5.09078 87.4164 5.08378C87.3888 5.12459 87.3531 5.1581 87.3187 5.20357L87.3122 5.26242ZM87.3678 4.92816C87.3928 4.89118 87.4297 4.86408 87.4603 4.83268C87.8123 3.49043 88.5014 2.32421 89.2603 1.17547C89.1885 1.23246 89.1199 1.29347 89.055 1.35822C88.1422 2.29869 87.6049 3.62153 87.367 4.92944L87.3678 4.92816ZM89.9783 0.744702C89.8454 1.39611 89.6292 2.02784 89.3349 2.62427C89.8213 1.95492 90.2941 1.27824 90.7533 0.588674C90.4853 0.579494 90.2187 0.634285 89.9757 0.748532L89.9783 0.744702ZM90.8998 0.613403C90.1535 1.74089 89.3669 2.8374 88.5472 3.91155C88.5654 3.88477 88.5928 3.86615 88.6173 3.84367C89.5533 2.97289 90.7034 2.42169 91.5131 1.4115C91.509 1.34873 91.499 1.28651 91.4831 1.22569C91.4497 1.08054 91.3776 0.94729 91.2744 0.84013C91.1712 0.732968 91.0409 0.655933 90.8972 0.617233L90.8998 0.613403ZM91.5131 1.6253C90.9049 2.32938 90.1469 2.80003 89.4099 3.36298C89.2417 3.4909 89.0837 3.62571 88.9266 3.76479C89.5701 3.41937 90.2622 3.14209 90.9143 2.85263C91.2018 2.52098 91.4728 2.06847 91.5105 1.62913L91.5131 1.6253ZM89.4488 3.9248C89.8546 3.6927 90.2435 3.43208 90.6126 3.14493L90.641 3.11949C89.8954 3.41472 89.1742 3.76849 88.4841 4.17748C88.1347 4.53105 87.8066 4.90509 87.5016 5.29763C88.1144 4.79274 88.7644 4.3351 89.4462 3.92863L89.4488 3.9248Z" fill="#C3937C"/>
<path d="M79.3753 2.64862C80.2383 1.95154 81.5459 2.30466 82.355 2.88751C84.0303 4.09196 84.374 6.36806 85.0302 8.18249C85.3806 8.57016 85.7014 8.98368 85.9899 9.41956C86.1567 9.67187 85.7934 9.98389 85.6267 9.73158C85.3405 9.29823 85.0213 8.88766 84.672 8.5035C84.6609 8.49277 84.6509 8.481 84.642 8.46834C84.031 7.80611 83.3426 7.21979 82.5917 6.72192C81.676 6.10218 80.6157 5.64122 79.8038 4.88168C79.1412 4.27149 78.4865 3.36732 79.3753 2.64862ZM79.6997 4.21622C80.8386 4.76383 81.7672 5.63029 82.8352 6.29912C82.8428 6.30428 82.8466 6.30685 82.853 6.31116L82.8594 6.31547C82.9446 6.37314 83.0285 6.42995 83.1137 6.48762C82.0437 5.3916 80.9154 4.38444 79.4892 3.78185C79.5334 3.93792 79.6046 4.08496 79.6997 4.21622ZM83.7593 6.98591C83.9321 7.12516 84.0981 7.26906 84.2627 7.41766C84.2167 7.36234 84.1711 7.30917 84.1272 7.25344C84.1173 7.25175 84.1078 7.24795 84.0995 7.24231C84.0911 7.23667 84.0841 7.22932 84.0789 7.22073L84.0091 7.09914C83.5182 6.45451 83.1043 5.76167 82.5799 5.14459C81.7751 4.19999 80.6864 3.54151 79.476 3.26712C79.4371 3.38389 79.4267 3.50822 79.4457 3.62968C81.1861 4.34075 82.4936 5.63657 83.7657 6.99021L83.7593 6.98591ZM83.8896 6.22618C82.8259 4.98937 82.129 3.62151 80.7479 2.76867C80.6229 2.76195 80.4975 2.76409 80.3727 2.77507C82.0847 3.71984 83.1414 5.34239 84.1223 7.01955L84.1767 7.08985C84.0861 6.8017 83.9947 6.51483 83.896 6.23048L83.8896 6.22618ZM80.1457 2.80365C79.9103 2.83592 79.6959 2.9568 79.5461 3.14163C80.5438 3.37073 81.4644 3.85536 82.2177 4.54806C82.4144 4.73734 82.5987 4.9391 82.7696 5.15208C82.0632 4.20366 81.2494 3.37026 80.152 2.80795L80.1457 2.80365ZM81.2562 2.85053L81.1911 2.83438C82.2469 3.64737 82.9034 4.79266 83.7588 5.85502C83.5852 5.37931 83.3678 4.9209 83.1092 4.48572C82.6845 3.77063 82.0889 3.10535 81.2626 2.85483L81.2562 2.85053ZM81.694 5.66998C81.1326 5.22963 80.541 4.82926 79.9235 4.47182C80.3754 4.93571 81.0658 5.33226 81.7003 5.67429L81.694 5.66998Z" fill="#C3937C"/>
</svg>
