<svg width="14" height="22" viewBox="0 0 14 22" fill="none" xmlns="http://www.w3.org/2000/svg">
<path d="M13.44 0.618133C13.44 0.45611 13.3756 0.300723 13.2611 0.186156C13.1465 0.0715879 12.9911 0.00722439 12.8291 0.00722439H9.77454C8.23642 -0.0693947 6.7305 0.465884 5.58581 1.49611C4.44112 2.52633 3.75072 3.96774 3.66545 5.5054V8.80431H0.610909C0.448886 8.80431 0.293499 8.86868 0.178931 8.98324C0.0643635 9.09781 0 9.2532 0 9.41522V12.5919C0 12.754 0.0643635 12.9094 0.178931 13.0239C0.293499 13.1385 0.448886 13.2029 0.610909 13.2029H3.66545V21.389C3.66545 21.5511 3.72982 21.7064 3.84438 21.821C3.95895 21.9356 4.11434 21.9999 4.27636 21.9999H7.94181C8.10384 21.9999 8.25922 21.9356 8.37379 21.821C8.48836 21.7064 8.55272 21.5511 8.55272 21.389V13.2029H11.7539C11.8897 13.2048 12.0224 13.1614 12.1308 13.0795C12.2392 12.9977 12.3173 12.882 12.3526 12.7508L13.2323 9.57406C13.2566 9.48379 13.2599 9.38915 13.2418 9.29743C13.2238 9.2057 13.185 9.11933 13.1283 9.04497C13.0717 8.97062 12.9987 8.91025 12.9151 8.86853C12.8314 8.82681 12.7393 8.80484 12.6458 8.80431H8.55272V5.5054C8.58311 5.20298 8.72514 4.92273 8.95107 4.7194C9.17699 4.51607 9.47059 4.40424 9.77454 4.40577H12.8291C12.9911 4.40577 13.1465 4.3414 13.2611 4.22684C13.3756 4.11227 13.44 3.95688 13.44 3.79486V0.618133Z" fill="black"/>
</svg>
