<svg width="16" height="16" viewBox="0 0 16 16" fill="none" xmlns="http://www.w3.org/2000/svg">
<path d="M7.1999 2.40039H3.64435C3.3143 2.40039 2.99777 2.5315 2.76439 2.76488C2.53101 2.99826 2.3999 3.31479 2.3999 3.64484V12.3559C2.3999 12.686 2.53101 13.0025 2.76439 13.2359C2.99777 13.4693 3.3143 13.6004 3.64435 13.6004H12.3555C12.6855 13.6004 13.002 13.4693 13.2354 13.2359C13.4688 13.0025 13.5999 12.686 13.5999 12.3559V8.80039" stroke="#6B7280" stroke-linecap="round" stroke-linejoin="round"/>
<path d="M11.5485 2.75238C11.7739 2.52701 12.0796 2.40039 12.3983 2.40039C12.7171 2.40039 13.0227 2.52701 13.2481 2.75238C13.4735 2.97776 13.6001 3.28343 13.6001 3.60216C13.6001 3.92089 13.4735 4.22656 13.2481 4.45194L7.86617 9.83387L5.6001 10.4004L6.16662 8.13431L11.5485 2.75238Z" stroke="#6B7280" stroke-linecap="round" stroke-linejoin="round"/>
</svg>
