<svg width="55" height="57" viewBox="0 0 55 57" fill="none" xmlns="http://www.w3.org/2000/svg">
<path d="M1.24416 11.4094C1.95245 12.0695 2.69569 12.6912 3.47069 13.2715L0.000202279 13.2715L0.823356 14.0947L4.62354 14.0947C5.44019 14.6451 6.2867 15.1498 7.15918 15.6065C7.16718 15.6333 7.18057 15.6582 7.19852 15.6797C7.21648 15.7011 7.23862 15.7187 7.26359 15.7312C7.28857 15.7438 7.31586 15.7512 7.34378 15.7529C7.3717 15.7545 7.39967 15.7505 7.42597 15.741C8.38407 16.2298 9.37058 16.6608 10.3802 17.0316C10.4939 17.4929 10.6482 17.9433 10.8412 18.3775C9.97678 20.4782 11.5244 22.3664 13.5622 22.8707C13.5901 22.8779 13.6194 22.8772 13.6468 22.8685C13.6924 23.0898 14.0297 22.9997 13.9884 22.7763C13.7683 21.7081 14.0687 20.7808 13.4375 19.8004C12.9028 18.9664 12.0547 18.4783 11.1383 18.1714C10.9941 17.8426 10.8731 17.5042 10.7761 17.1585C11.9739 17.5766 13.2 17.9089 14.445 18.153C14.4509 18.1993 14.4693 18.2432 14.4982 18.2799L16.1803 20.3242C16.0029 20.5055 15.8981 20.7455 15.8857 20.9988C15.8734 21.2522 15.9543 21.5013 16.1132 21.6989C16.2721 21.8966 16.498 22.0292 16.7481 22.0716C16.9981 22.114 17.2551 22.0632 17.4702 21.929C17.6854 21.7947 17.8439 21.5862 17.9157 21.3429C17.9875 21.0997 17.9677 20.8386 17.86 20.6089C17.7522 20.3793 17.5641 20.1972 17.3311 20.0969C17.0981 19.9967 16.8365 19.9853 16.5957 20.065L15.1283 18.2788C16.0561 18.4364 16.9915 18.5451 17.9307 18.6042C17.9565 18.8351 18.06 19.0503 18.2242 19.2147C18.3885 19.379 18.6037 19.4826 18.8346 19.5086C19.0655 19.5345 19.2983 19.4812 19.4949 19.3574C19.6915 19.2336 19.8402 19.0466 19.9165 18.8272C19.9929 18.6078 19.9924 18.3689 19.9152 18.1498C19.838 17.9307 19.6885 17.7443 19.4914 17.6213C19.2943 17.4983 19.0613 17.4459 18.8305 17.4727C18.5997 17.4996 18.3849 17.6041 18.2214 17.7691C18.1222 17.8692 18.0443 17.9883 17.9925 18.1194C17.3418 18.0803 16.6922 18.0185 16.0501 17.9317C16.4832 17.4726 16.9008 16.9994 17.3028 16.5121C17.5243 16.629 17.781 16.6607 18.0243 16.6012C18.2676 16.5417 18.4807 16.3951 18.6233 16.1891C18.7659 15.9832 18.8281 15.7321 18.7981 15.4835C18.7682 15.2348 18.6481 15.0057 18.4607 14.8395C18.2733 14.6733 18.0315 14.5814 17.781 14.5814C17.5306 14.5814 17.2887 14.6731 17.1013 14.8393C16.9138 15.0054 16.7938 15.2345 16.7637 15.4832C16.7337 15.7319 16.7958 15.9829 16.9384 16.1889C16.4688 16.7583 15.9807 17.3114 15.4677 17.8417C12.8975 17.4354 10.4019 16.6496 8.06259 15.51C9.23786 15.0981 10.3902 14.6235 11.5146 14.0882L19.3764 14.0871C21.4297 15.2501 23.5818 16.2293 25.8076 17.0132C25.8156 17.0358 25.8277 17.0568 25.8434 17.075L26.8835 18.2495C26.8773 18.2591 26.8722 18.2692 26.8683 18.2799C26.4085 20.2342 28.0808 21.6224 29.9202 21.6267C29.9202 21.6267 29.9202 21.6267 29.9278 21.6191C29.9564 21.6364 29.9897 21.6446 30.0231 21.6426C30.0565 21.6406 30.0885 21.6285 30.1149 21.608C30.1413 21.5875 30.1609 21.5594 30.1711 21.5275C30.1812 21.4956 30.1815 21.4614 30.1718 21.4294C29.8464 20.5314 29.6013 19.4121 28.969 18.6692C28.4712 18.0825 27.8032 17.9806 27.0798 17.9317L27.0722 17.9393L26.4508 17.2377C27.322 17.5232 28.2005 17.772 29.0862 17.9838C29.1123 17.9948 29.1403 18.0006 29.1686 18.0012C29.5677 18.0966 29.9683 18.1826 30.3703 18.2593C30.3835 18.2769 30.3992 18.2926 30.4169 18.3059C31.0836 18.8152 31.6992 19.388 32.2552 20.0162C32.2335 20.0379 32.2129 20.0585 32.1901 20.0813C32.0293 20.2632 31.9392 20.4968 31.9363 20.7396C31.9334 20.9824 32.0179 21.2181 32.1743 21.4038C32.3307 21.5895 32.5487 21.7128 32.7884 21.7512C33.0282 21.7896 33.2737 21.7406 33.4803 21.6131C33.6869 21.4855 33.8408 21.2879 33.9139 21.0564C33.9869 20.8249 33.9744 20.5748 33.8784 20.3517C33.7825 20.1287 33.6096 19.9476 33.3912 19.8414C33.1729 19.7352 32.9237 19.711 32.689 19.7733C32.2699 19.2959 31.8184 18.8481 31.3377 18.4328C32.1445 18.5601 32.9529 18.6519 33.7627 18.7083C33.778 18.7078 33.7933 18.7056 33.8082 18.7018C33.843 18.9432 33.9653 19.1635 34.1518 19.3208C34.3383 19.4781 34.5761 19.5613 34.82 19.5548C35.0639 19.5483 35.2969 19.4525 35.4747 19.2855C35.6526 19.1185 35.763 18.8921 35.7848 18.6491C35.8067 18.4061 35.7386 18.1635 35.5934 17.9674C35.4482 17.7714 35.2361 17.6355 34.9973 17.5855C34.7585 17.5355 34.5097 17.575 34.2981 17.6964C34.0865 17.8178 33.9268 18.0127 33.8494 18.2441C33.8222 18.231 33.7928 18.2229 33.7627 18.2202C32.5513 18.1358 31.347 17.9706 30.1577 17.7257C30.7474 17.525 31.3176 17.2713 31.8615 16.9676L31.8778 16.9839C32.0622 17.151 32.3013 17.2451 32.5502 17.2486C32.799 17.2521 33.0406 17.1647 33.2297 17.0029C33.4188 16.841 33.5424 16.6158 33.5774 16.3694C33.6124 16.123 33.5563 15.8722 33.4197 15.6642C33.2831 15.4561 33.0753 15.305 32.8353 15.2391C32.5953 15.1732 32.3395 15.1971 32.1158 15.3063C31.8921 15.4155 31.7159 15.6024 31.6202 15.8322C31.5245 16.0619 31.5158 16.3187 31.5958 16.5544C30.8368 16.973 30.0273 17.2927 29.187 17.5055C27.9563 17.2109 26.7436 16.8455 25.5549 16.4112C26.5108 15.9117 27.4273 15.3403 28.2966 14.702C28.3242 14.6956 28.3501 14.6837 28.373 14.6672C28.3959 14.6506 28.4153 14.6296 28.43 14.6055C28.6665 14.4341 28.9014 14.2613 29.135 14.0871L42.902 14.0871L42.9009 24.3695C42.3762 25.7113 41.9549 27.0912 41.6407 28.4972C41.2416 27.7207 40.8533 26.9377 40.4759 26.1481L41.0778 23.7633C41.3169 23.8022 41.5621 23.7534 41.7681 23.6258C41.974 23.4983 42.127 23.3006 42.1987 23.0692C42.2705 22.8378 42.2562 22.5882 42.1585 22.3665C42.0608 22.1448 41.8862 21.9659 41.667 21.8628C41.4478 21.7596 41.1987 21.7391 40.9656 21.8051C40.7325 21.871 40.5311 22.019 40.3985 22.2218C40.2658 22.4245 40.2109 22.6684 40.2439 22.9084C40.2769 23.1484 40.3955 23.3684 40.5778 23.5279C40.5919 23.542 40.6104 23.5496 40.6256 23.5626L40.1495 25.4443C40.0367 25.1992 39.9206 24.9552 39.8046 24.7046C39.9292 24.4912 39.9718 24.2397 39.9245 23.9972C39.8771 23.7546 39.7431 23.5376 39.5474 23.3867C39.3517 23.2358 39.1077 23.1613 38.8611 23.1772C38.6145 23.193 38.3821 23.2981 38.2073 23.4729C38.0326 23.6476 37.9275 23.88 37.9116 24.1267C37.8957 24.3733 37.9702 24.6172 38.1211 24.8129C38.2721 25.0086 38.4891 25.1427 38.7316 25.19C38.9742 25.2373 39.2257 25.1947 39.4391 25.0701C39.6141 25.4504 39.7905 25.83 39.9683 26.2089C39.9645 26.2477 39.9711 26.287 39.9875 26.3224C40.0039 26.3579 40.0295 26.3883 40.0616 26.4106C40.1451 26.5874 40.2319 26.7609 40.3186 26.9366C39.8375 26.8148 39.3702 26.644 38.9239 26.4269C38.8765 26.1872 38.7436 25.9729 38.55 25.8239C38.3564 25.6749 38.1152 25.6013 37.8714 25.6168C37.6276 25.6323 37.3977 25.7359 37.2245 25.9083C37.0514 26.0806 36.9467 26.31 36.9301 26.5538C36.9134 26.7975 36.9859 27.039 37.134 27.2333C37.2821 27.4276 37.4958 27.5615 37.7352 27.6101C37.9747 27.6586 38.2236 27.6185 38.4357 27.4972C38.6478 27.3759 38.8086 27.1817 38.8881 26.9507C39.4164 27.1911 39.9696 27.3726 40.5377 27.4919C40.5543 27.494 40.571 27.494 40.5876 27.4919C41.2593 28.8548 41.9664 30.1989 42.7089 31.5242C42.4157 31.4973 42.1246 31.4499 41.838 31.3821C41.7578 30.6836 41.5452 29.9396 40.8587 29.6089C40.5307 29.4779 40.1777 29.4213 39.8252 29.4429C38.9695 29.431 38.3025 29.4212 37.5206 29.0471C37.4981 29.0358 37.4735 29.0295 37.4484 29.0288C37.4233 29.028 37.3983 29.0328 37.3752 29.0427C37.3519 29.0458 37.3296 29.054 37.3097 29.0667C37.2899 29.0793 37.2731 29.0962 37.2605 29.116C37.2479 29.1359 37.2398 29.1582 37.2368 29.1815C37.2337 29.2049 37.2358 29.2286 37.2429 29.251C37.6648 30.7118 40.3837 34.0511 41.7849 31.7302C42.1492 31.818 42.5204 31.8742 42.8944 31.8983L42.8944 39.6006C42.2194 40.3976 41.6325 41.2652 41.144 42.1883C40.4191 40.9308 39.7747 39.6285 39.2146 38.2894C39.5142 37.3064 39.7521 36.3056 39.9271 35.2929C40.1666 35.3313 40.412 35.2819 40.618 35.1537C40.824 35.0256 40.9767 34.8274 41.0481 34.5955C41.1195 34.3637 41.1047 34.1138 41.0065 33.892C40.9082 33.6702 40.7332 33.4914 40.5135 33.3884C40.2938 33.2855 40.0444 33.2653 39.811 33.3317C39.5777 33.3982 39.3763 33.5466 39.2437 33.7498C39.1112 33.953 39.0566 34.1973 39.0899 34.4376C39.1232 34.6779 39.2422 34.898 39.425 35.0575C39.4389 35.0684 39.4534 35.0785 39.4684 35.0879C39.3278 35.9205 39.1439 36.7451 38.9174 37.5585C38.6625 36.9088 38.4251 36.2527 38.2081 35.5846C38.2081 35.5846 38.2005 35.577 38.1973 35.5738C38.3416 35.5165 38.4705 35.4263 38.5736 35.3102C38.7258 35.1398 38.816 34.923 38.8296 34.6949C38.8433 34.4668 38.7796 34.2407 38.6489 34.0533C38.5182 33.8659 38.3281 33.7281 38.1093 33.6621C37.8906 33.5961 37.6559 33.6058 37.4434 33.6897C37.2308 33.7736 37.0528 33.9267 36.9381 34.1243C36.8233 34.3219 36.7786 34.5524 36.8111 34.7786C36.8436 35.0048 36.9514 35.2134 37.1172 35.3707C37.2829 35.5279 37.4969 35.6247 37.7244 35.6454C37.7245 35.6676 37.727 35.6898 37.732 35.7115C37.8304 36.0123 37.9319 36.3105 38.0368 36.6062C37.569 36.3975 37.118 36.1531 36.6876 35.8753C36.726 35.6841 36.6947 35.4855 36.5993 35.3155C36.5039 35.1454 36.3508 35.0151 36.1677 34.9482C35.9845 34.8813 35.7835 34.8822 35.6009 34.9507C35.4184 35.0192 35.2664 35.1508 35.1725 35.3217C35.0786 35.4926 35.049 35.6915 35.0891 35.8823C35.1292 36.0731 35.2362 36.2433 35.3909 36.362C35.5456 36.4807 35.7377 36.5401 35.9324 36.5294C36.1271 36.5187 36.3115 36.4386 36.4523 36.3037C37.0187 36.667 37.6183 36.976 38.2428 37.2266C38.2428 37.2266 38.2548 37.2277 38.2613 37.2298C38.4008 37.6036 38.5469 37.9753 38.6994 38.3447C38.6995 38.373 38.7055 38.401 38.7171 38.4268C38.7287 38.4526 38.7456 38.4756 38.7667 38.4944C39.1455 39.3953 39.5602 40.2777 40.0106 41.1417C39.6824 40.9475 39.3431 40.7726 38.9944 40.6179C38.9959 40.5887 38.9911 40.5594 38.9803 40.5322C38.5259 39.5095 37.8285 38.5454 36.6746 38.2829C35.2886 37.9684 34.3299 39.2026 33.0208 39.3208C32.8202 39.3371 32.8018 39.6288 32.9709 39.6635C34.4633 41.4834 37.2039 43.1872 39.1636 41.0843C39.5698 41.2829 39.9622 41.5086 40.3382 41.7599C40.5204 42.0918 40.7069 42.4193 40.8999 42.7447C40.8978 42.7963 40.9107 42.8475 40.9371 42.892C40.9634 42.9365 41.0022 42.9723 41.0485 42.9952C41.6183 43.9424 42.2328 44.862 42.8922 45.7542L42.8933 46.3041C42.7339 46.2857 42.5755 46.2748 42.4194 46.264L42.4042 46.2618L42.3977 46.2553C41.8565 45.4669 41.0453 44.7662 40.0215 44.9137C38.9131 45.0721 38.2754 46.1783 37.2635 46.5546C37.2351 46.5662 37.2099 46.5845 37.1901 46.6079C37.1703 46.6313 37.1564 46.6592 37.1497 46.6892C37.143 46.7191 37.1436 46.7502 37.1515 46.7798C37.1595 46.8095 37.1745 46.8368 37.1952 46.8594C37.1887 46.8929 37.1926 46.9275 37.2063 46.9587C37.2201 46.99 37.2431 47.0162 37.2722 47.034C38.1604 47.6077 39.1343 48.1196 40.2264 47.984C40.6753 47.9243 41.1067 47.7711 41.4928 47.5344C41.879 47.2978 42.2112 46.9828 42.4682 46.6099C42.6113 46.6164 42.7556 46.6305 42.8966 46.6501L42.8976 50.4687C42.427 51.038 41.9978 51.6403 41.6136 52.2712C41.4509 52.5423 41.8771 52.782 42.0398 52.513C42.3024 52.0779 42.5887 51.6575 42.8976 51.2539L42.8966 56.1788L43.7175 56.9997L43.7154 50.2431C44.4062 49.4612 45.1556 48.7356 45.9235 48.0198C45.9456 48.0315 45.9701 48.0381 45.9951 48.0394C46.2228 48.0502 46.4473 48.0751 46.6718 48.1044C47.1891 50.0728 50.0458 50.8754 51.6346 49.7442C51.6575 49.7301 51.6768 49.7108 51.691 49.6878C51.7228 49.6771 51.751 49.6576 51.7721 49.6315C51.7932 49.6053 51.8064 49.5737 51.8102 49.5403C51.8139 49.507 51.8081 49.4732 51.7933 49.4431C51.7785 49.4129 51.7554 49.3876 51.7268 49.3701C50.7756 48.8332 50.344 47.6099 49.3202 47.2433C48.5209 46.9581 47.6989 47.2899 47.0156 47.6999C46.9977 47.7097 46.982 47.7231 46.9693 47.7391C46.9567 47.7551 46.9473 47.7735 46.9419 47.7932C46.7174 47.7574 46.4896 47.7292 46.2597 47.7118C46.7109 47.2954 47.1631 46.88 47.6099 46.4592C48.4592 45.6609 49.25 44.8026 49.9764 43.891C50.0107 43.8847 50.0431 43.8702 50.0707 43.8487C51.0598 43.1489 52.025 42.4179 52.9664 41.6558C52.9834 41.675 53.0015 41.6931 53.0206 41.71C53.1769 41.8498 53.3777 41.9296 53.5873 41.9352C53.7969 41.9407 54.0016 41.8716 54.1651 41.7403C54.3285 41.6089 54.44 41.4238 54.4797 41.218C54.5194 41.0121 54.4847 40.7988 54.3818 40.6161C54.2789 40.4335 54.1144 40.2932 53.9178 40.2205C53.7211 40.1477 53.5051 40.1472 53.308 40.2189C53.111 40.2906 52.9458 40.4299 52.842 40.612C52.7381 40.7941 52.7022 41.0072 52.7408 41.2133C52.132 41.705 51.515 42.184 50.8895 42.6503C51.5885 41.6227 52.1884 40.5311 52.6812 39.3902C52.9192 39.4437 53.1685 39.4084 53.3824 39.2911C53.5963 39.1737 53.76 38.9823 53.8427 38.7528C53.9255 38.5234 53.9217 38.2716 53.832 38.0447C53.7423 37.8179 53.5729 37.6316 53.3555 37.5208C53.1382 37.41 52.8879 37.3823 52.6516 37.4429C52.4153 37.5036 52.2093 37.6484 52.0722 37.8502C51.9351 38.052 51.8763 38.2969 51.907 38.5389C51.9377 38.7809 52.0556 39.0034 52.2387 39.1646L52.2463 39.1722C51.8234 40.1503 51.3184 41.0907 50.7366 41.9833C50.597 41.419 50.5148 40.842 50.4915 40.2611C50.6924 40.1136 50.8326 39.8979 50.8859 39.6545C50.9392 39.4111 50.9019 39.1565 50.7811 38.9386C50.6603 38.7206 50.4641 38.5542 50.2294 38.4704C49.9947 38.3867 49.7375 38.3913 49.506 38.4835C49.2745 38.5757 49.0845 38.7491 48.9716 38.9713C48.8587 39.1934 48.8307 39.4491 48.8927 39.6905C48.9548 39.9318 49.1027 40.1423 49.3088 40.2825C49.5148 40.4227 49.7649 40.4829 50.0121 40.452C50.0505 41.142 50.1677 41.8253 50.3614 42.4887C50.3654 42.4974 50.3701 42.5057 50.3755 42.5137C49.4905 43.7639 48.4894 44.9277 47.3854 45.9896C47.3637 45.7271 47.3453 45.4636 47.3334 45.2C47.3484 45.1893 47.3616 45.1761 47.3724 45.161C47.3995 45.1581 47.4253 45.148 47.4472 45.1317C48.1066 44.6415 48.8452 43.7707 48.7606 42.8857C48.7031 42.5171 48.5451 42.1715 48.304 41.8868C47.868 41.2903 47.4982 40.8077 47.3572 40.0594C47.3171 39.8479 47.0069 39.926 47.0199 40.1234C46.2445 40.9097 45.5981 41.8879 45.6274 43.0343C45.63 43.4776 45.7592 43.9109 45.9997 44.2832C46.2403 44.6556 46.5822 44.9515 46.9852 45.1361C47.0026 45.5265 47.0265 45.9169 47.0612 46.3074C46.9408 46.4277 46.8128 46.5427 46.687 46.6577C46.2228 47.085 45.7586 47.5079 45.3053 47.9374C44.7533 47.3181 44.2262 46.6848 43.7219 46.033L43.723 39.3512C44.916 37.9413 46.2315 36.5954 47.2542 35.0738C47.2819 35.0797 47.3106 35.0786 47.3377 35.0706C48.0012 34.8645 48.6447 34.5992 49.2606 34.2778C49.2709 34.2925 49.2838 34.3054 49.2985 34.3157C50.1792 34.8515 50.9253 34.986 51.7995 34.3483C52.8753 33.5631 53.6464 32.2432 54.1735 31.0524C54.1891 31.0177 54.1935 30.979 54.1861 30.9417C54.1787 30.9044 54.1598 30.8704 54.1321 30.8443C54.1044 30.8183 54.0692 30.8016 54.0315 30.7965C53.9939 30.7914 53.9555 30.7982 53.9219 30.816C52.7549 30.9374 51.5934 30.7129 50.5381 31.3517C50.0777 31.6332 49.6874 32.016 49.3971 32.471C49.1067 32.926 48.9239 33.4411 48.8626 33.9773C48.8587 34.0132 48.8655 34.0494 48.8821 34.0815C48.4466 34.2949 47.9977 34.48 47.5383 34.6357C48.5068 33.0745 49.3132 31.4185 49.9449 29.6935C49.9774 29.6866 50.0081 29.6729 50.0349 29.6533C51.0403 28.9185 51.9594 28.0722 52.7744 27.1307C52.787 27.1143 52.7975 27.0964 52.8059 27.0776C53.0172 27.209 53.2694 27.2581 53.5146 27.2156C53.7598 27.1731 53.9808 27.0419 54.1355 26.847C54.2902 26.6521 54.3678 26.4072 54.3535 26.1587C54.3393 25.9103 54.2342 25.6758 54.0582 25.4998C53.8823 25.3239 53.6478 25.2188 53.3994 25.2046C53.151 25.1903 52.906 25.268 52.7111 25.4227C52.5162 25.5774 52.385 25.7984 52.3425 26.0435C52.3 26.2887 52.3491 26.5409 52.4805 26.7522C52.4639 26.7617 52.4486 26.7734 52.435 26.7869C51.7673 27.5553 51.0279 28.2584 50.2269 28.8866C50.5125 28.0356 50.7572 27.1719 50.9611 26.2956C51.201 26.3276 51.4443 26.2723 51.6469 26.1399C51.8494 26.0074 51.9976 25.8066 52.0644 25.5741C52.1312 25.3415 52.1123 25.0926 52.011 24.8729C51.9097 24.6531 51.7329 24.4771 51.5127 24.3768C51.2924 24.2765 51.0435 24.2587 50.8112 24.3266C50.579 24.3945 50.3788 24.5436 50.2473 24.7468C50.1158 24.9499 50.0617 25.1935 50.0947 25.4332C50.1278 25.6729 50.2459 25.8928 50.4275 26.0527C50.4514 26.0727 50.4768 26.0908 50.5034 26.1069C50.3722 26.672 50.2258 27.2327 50.061 27.7858C49.7049 26.8843 49.4213 25.9559 49.2129 25.0094C49.4264 24.9446 49.6124 24.8107 49.7417 24.6287C49.871 24.4467 49.9361 24.227 49.927 24.004C49.9179 23.781 49.835 23.5673 49.6914 23.3965C49.5477 23.2257 49.3514 23.1074 49.1332 23.0602C48.9151 23.013 48.6874 23.0396 48.486 23.1358C48.2846 23.2319 48.1208 23.3923 48.0204 23.5916C47.9199 23.7909 47.8885 24.0179 47.931 24.237C47.9735 24.4561 48.0875 24.6549 48.2552 24.8022C48.3864 24.9168 48.5453 24.995 48.7161 25.0289C48.973 26.2176 49.3438 27.3787 49.8234 28.4961C49.8273 28.5009 49.8317 28.5053 49.8365 28.5092C49.367 29.951 48.7775 31.351 48.0741 32.6943C47.7608 32.3153 47.4834 31.908 47.2455 31.4775C47.2831 31.4655 47.3145 31.4395 47.3334 31.4049C47.7748 30.6511 48.2422 29.8106 48.0676 28.9028C47.8529 27.7944 46.751 27.1828 46.136 26.3206C46.1277 26.2863 46.1097 26.2553 46.0842 26.2311C46.0586 26.2068 46.0266 26.1906 45.992 26.1841C45.9573 26.1777 45.9216 26.1815 45.8891 26.1949C45.8565 26.2083 45.8285 26.2309 45.8085 26.2599C45.1079 27.2945 44.57 28.2749 44.8596 29.5449C45.1058 30.6435 45.6773 31.5968 46.8714 31.5198C47.1568 32.0561 47.4994 32.5601 47.893 33.023C47.5481 33.6607 47.1804 34.2886 46.7824 34.8992C46.5297 35.2842 46.2564 35.6551 45.9712 36.0206C45.1889 34.8045 44.4366 33.5743 43.7143 32.3299L43.7143 23.6537C44.1387 22.6581 44.6123 21.6857 45.135 20.7363C45.3975 20.6387 45.6589 20.54 45.9191 20.4359C45.911 20.4709 45.9134 20.5076 45.9262 20.5412C45.9389 20.5748 45.9614 20.6038 45.9907 20.6246C48.137 22.1961 49.612 19.6909 50.3375 17.9827C50.4145 17.7994 50.1835 17.6422 50.0696 17.7582C49.2541 17.678 48.3789 17.6118 47.6305 18.0109C46.8822 18.41 46.3595 19.2343 45.981 19.9858C45.9735 20.0039 45.9684 20.0229 45.9658 20.0422C45.7803 20.1171 45.5959 20.1952 45.404 20.2613C46.2297 18.8203 47.1473 17.4339 48.1511 16.1108C48.193 16.1243 48.238 16.1247 48.2802 16.1119C48.9112 15.9261 49.5266 15.6907 50.1206 15.408C50.1889 15.6198 50.3253 15.803 50.5086 15.9291C50.6919 16.0552 50.9117 16.117 51.1339 16.1051C51.356 16.0931 51.568 16.008 51.7367 15.8629C51.9053 15.7179 52.0213 15.5211 52.0664 15.3032C52.1115 15.0854 52.0833 14.8587 51.9861 14.6586C51.8889 14.4585 51.7282 14.2962 51.5291 14.197C51.33 14.0977 51.1036 14.0672 50.8853 14.1101C50.667 14.153 50.4691 14.2669 50.3223 14.4341C50.2057 14.5662 50.127 14.7273 50.0946 14.9005C50.0665 14.9028 50.039 14.9098 50.0132 14.9211C49.5648 15.14 49.103 15.3302 48.6305 15.4905C49.0628 14.9381 49.5082 14.398 49.9666 13.8702C50.1891 13.9692 50.4401 13.9835 50.6723 13.9104C50.9046 13.8373 51.1022 13.6818 51.2279 13.4733C51.3535 13.2647 51.3986 13.0174 51.3547 12.7778C51.3108 12.5383 51.1808 12.3231 50.9893 12.1727C50.7978 12.0223 50.5579 11.9471 50.3148 11.9612C50.0717 11.9753 49.8421 12.0778 49.6693 12.2493C49.4964 12.4208 49.3922 12.6496 49.3763 12.8926C49.3603 13.1356 49.4337 13.376 49.5827 13.5687C48.7584 14.5252 47.9689 15.5187 47.2249 16.5468C46.4126 15.3592 46.5514 13.9537 46.7998 12.6078C47.0394 12.6427 47.2836 12.5901 47.4876 12.4598C47.6917 12.3294 47.8419 12.1299 47.9109 11.8977C47.9799 11.6656 47.963 11.4164 47.8633 11.1958C47.7636 10.9751 47.5878 10.7977 47.368 10.696C47.1482 10.5944 46.8992 10.5753 46.6665 10.6422C46.4338 10.7091 46.2329 10.8576 46.1007 11.0605C45.9685 11.2634 45.9138 11.5071 45.9466 11.747C45.9794 11.9869 46.0974 12.207 46.2792 12.367C46.2989 12.3831 46.3195 12.3979 46.341 12.4115C46.0601 13.9136 45.8953 15.5035 46.8236 16.8244C46.8553 16.8675 46.9003 16.8987 46.9516 16.9134C45.7082 18.6621 44.6213 20.5169 43.7035 22.4564L43.7035 13.2726L30.2162 13.2726C31.0112 12.6794 31.8192 12.1035 32.6619 11.5818C33.9256 10.8241 35.305 10.2786 36.7451 9.96697C37.5641 10.1044 38.3589 10.3593 39.105 10.724C39.0718 10.9639 39.1261 11.2078 39.2578 11.4111C39.3895 11.6144 39.5899 11.7635 39.8225 11.8312C40.0551 11.899 40.3042 11.8808 40.5245 11.78C40.7448 11.6793 40.9215 11.5027 41.0223 11.2825C41.1232 11.0622 41.1414 10.813 41.0738 10.5805C41.0062 10.3479 40.8571 10.1474 40.6539 10.0156C40.4507 9.88376 40.2068 9.82944 39.9669 9.86253C39.7269 9.89563 39.5069 10.0139 39.3469 10.1958C39.3252 10.2175 39.3111 10.2468 39.2927 10.2717C38.8486 10.0567 38.3875 9.87865 37.9142 9.73922C39.1909 9.54119 40.4771 9.4105 41.7676 9.34771C41.8948 9.55556 42.0934 9.70991 42.3263 9.78181C42.5591 9.85372 42.8102 9.83825 43.0325 9.73832C43.2548 9.63839 43.433 9.46084 43.5337 9.23894C43.6345 9.01704 43.6509 8.76602 43.5798 8.5329C43.5088 8.29978 43.3552 8.10056 43.1478 7.97257C42.9404 7.84457 42.6935 7.79658 42.4533 7.83759C42.213 7.8786 41.996 8.00579 41.8428 8.19533C41.6896 8.38488 41.6108 8.62377 41.6212 8.86726C40.7438 8.9204 39.8642 8.98222 38.9933 9.08091C39.6624 8.45776 40.2774 7.77893 40.8316 7.05175C41.045 7.18014 41.298 7.22602 41.5429 7.18075C41.7878 7.13547 42.0076 7.00218 42.161 6.80598C42.3144 6.60979 42.3907 6.36425 42.3755 6.11568C42.3603 5.86711 42.2547 5.63268 42.0787 5.45659C41.9026 5.2805 41.6681 5.17492 41.4196 5.15975C41.171 5.14458 40.9255 5.22087 40.7293 5.37425C40.5331 5.52763 40.3998 5.74749 40.3545 5.99237C40.3092 6.23725 40.3551 6.49024 40.4835 6.70363C39.8048 7.60547 39.0286 8.42964 38.1691 9.16117C38.1593 9.17093 38.1518 9.17852 38.142 9.18828C36.449 9.43447 34.794 9.8596 33.2486 10.6806C33.1228 10.7478 32.997 10.8194 32.8723 10.8899C33.0371 10.5226 33.2186 10.1669 33.4167 9.82272C33.4244 9.81165 33.4306 9.79963 33.4351 9.78694C33.4514 9.77067 33.4601 9.74681 33.4709 9.72729C33.9035 9.73852 34.3328 9.64835 34.7243 9.46398C35.1158 9.27962 35.4587 9.00617 35.7257 8.66554C36.5748 7.59944 36.4317 6.33488 36.6681 5.08333C36.6754 5.04615 36.6707 5.00762 36.6547 4.97326C36.6388 4.9389 36.6124 4.91048 36.5792 4.89206C36.5461 4.87364 36.5081 4.86617 36.4704 4.87073C36.4328 4.87528 36.3976 4.89161 36.3699 4.9174C36.3419 4.9188 36.3149 4.9278 36.2918 4.94343C34.9817 5.80238 31.2758 7.73609 33.061 9.75332C32.8033 10.2167 32.573 10.6947 32.3712 11.1849C31.3387 11.8161 30.367 12.5384 29.4018 13.2672L28.6882 13.2672C29.3194 13.0112 29.7304 12.5178 29.956 11.8193C30.3117 10.7196 29.7673 9.83899 29.9137 8.75121C29.919 8.71486 29.9131 8.67776 29.8968 8.64483C29.8806 8.6119 29.8547 8.58469 29.8226 8.56684C29.8129 8.53907 29.7964 8.51416 29.7747 8.49437C29.7529 8.47458 29.7266 8.46054 29.698 8.45354C29.6695 8.44653 29.6396 8.44678 29.6112 8.45426C29.5827 8.46174 29.5566 8.47621 29.5352 8.49635C28.8422 9.15032 28.096 9.77717 27.4485 10.4767C27.07 10.8877 26.7891 11.353 26.8423 11.931C26.9158 12.4451 27.1648 12.918 27.5472 13.2694L18.9089 13.2683C17.9314 12.6942 16.9879 12.0898 16.0783 11.4549C16.8267 10.9452 17.554 10.4073 18.2604 9.84117C18.7723 9.91925 19.2896 10.0288 19.8026 10.1101C20.372 10.9181 21.296 11.6144 22.3187 11.5244C22.7645 11.4864 23.0887 11.2576 23.4108 10.9636C24.0399 10.3932 24.606 9.7338 25.196 9.12213C25.2218 9.09463 25.2381 9.05958 25.2425 9.02214C25.2469 8.98469 25.2392 8.94682 25.2205 8.91407C25.2019 8.88132 25.1732 8.85541 25.1387 8.84015C25.1042 8.8249 25.0657 8.82109 25.0289 8.82929C24.3294 8.93666 23.8783 8.46165 23.2872 8.23715C22.899 8.08586 22.478 8.03875 22.066 8.1005C21.1344 8.23498 20.2901 8.72272 19.7082 9.46266C19.6895 9.48526 19.6768 9.51218 19.6711 9.54096C19.6654 9.56975 19.667 9.59949 19.6757 9.6275C19.6583 9.63978 19.6434 9.65541 19.6321 9.67347C19.6207 9.69153 19.6131 9.71167 19.6096 9.73271C19.2809 9.67306 18.9523 9.6069 18.6281 9.54942C20.3614 8.12189 21.9529 6.53038 23.3805 4.79702C23.4305 4.82235 23.4884 4.82741 23.5421 4.81113C24.2463 4.58435 24.9677 4.41497 25.6992 4.30465C25.7437 4.48002 25.8343 4.64029 25.9616 4.76883C26.123 4.93224 26.3343 5.03725 26.562 5.06728C26.7897 5.09731 27.0209 5.05064 27.2192 4.93466C27.4174 4.81868 27.5714 4.63998 27.6568 4.42677C27.7422 4.21356 27.7541 3.97797 27.6908 3.7572C27.6274 3.53643 27.4923 3.34306 27.3068 3.2076C27.1214 3.07213 26.8961 3.00228 26.6665 3.0091C26.4369 3.01591 26.2161 3.09898 26.039 3.2452C25.8619 3.39142 25.7385 3.59247 25.6883 3.81661C25.0681 3.89889 24.4555 4.03127 23.8566 4.21246C24.4194 3.49775 24.9585 2.76353 25.4671 2.0011C25.7062 2.06913 25.9619 2.04752 26.1861 1.94033C26.4104 1.83313 26.5878 1.64774 26.685 1.41897C26.7822 1.19021 26.7925 0.933831 26.714 0.697992C26.6355 0.462155 26.4736 0.263094 26.2587 0.138219C26.0438 0.0133438 25.7906 -0.028754 25.5469 0.0198339C25.3031 0.0684225 25.0855 0.204354 24.9349 0.402086C24.7843 0.59982 24.711 0.84574 24.729 1.09365C24.7469 1.34156 24.8547 1.57441 25.0322 1.74842L25.0431 1.75926C24.2598 2.92882 23.4057 4.04941 22.4857 5.11479C22.5768 4.29054 22.656 3.46304 22.7124 2.63446C22.8306 2.58354 22.938 2.51068 23.0291 2.41974C23.1986 2.25354 23.3062 2.03433 23.3339 1.79855C23.3616 1.56277 23.3078 1.32461 23.1814 1.12364C23.055 0.922665 22.8637 0.770983 22.6392 0.693795C22.4147 0.616608 22.1705 0.618554 21.9473 0.699326C21.724 0.780097 21.5352 0.934829 21.412 1.1378C21.2889 1.34077 21.2389 1.57976 21.2704 1.81507C21.3019 2.05037 21.4129 2.26783 21.5851 2.4313C21.7572 2.59476 21.9802 2.69439 22.2168 2.71364C22.1474 3.72298 22.0516 4.72906 21.9294 5.73189C20.4445 7.36957 18.805 8.86011 17.0338 10.1828C17.049 9.93334 17.0707 9.68608 17.0913 9.43772C17.1113 9.43262 17.1307 9.42497 17.1488 9.41495C17.8884 8.93125 18.5164 8.22087 18.6736 7.32397C18.8688 6.21775 18.1498 5.16251 17.9481 4.10401C17.909 3.90445 17.6075 3.95434 17.6043 4.14847C17.5782 5.59307 16.1206 5.91843 15.8116 7.17323C15.5946 8.04085 16.1 8.79568 16.6683 9.39217C16.6871 9.41155 16.7101 9.42638 16.7356 9.43555C16.7081 9.76091 16.6853 10.0873 16.6672 10.4149C16.6674 10.4256 16.6692 10.4362 16.6727 10.4463C15.2129 11.5074 13.6717 12.4517 12.0634 13.2704L11.3975 13.2704C11.4756 13.1316 11.5493 12.9885 11.6144 12.8366C11.6335 12.8609 11.6594 12.8788 11.6888 12.8881C11.7182 12.8974 11.7497 12.8976 11.7793 12.8887C14.7292 12.1968 13.1414 9.35746 13.3312 7.29794C13.3341 7.26533 13.3265 7.23266 13.3095 7.20468C13.316 7.17648 13.3236 7.14936 13.3291 7.12008C13.3681 6.90101 13.0319 6.80991 12.9874 7.0279C12.7358 8.39657 11.0993 8.8011 10.66 10.1101C10.5092 10.5616 10.468 11.0425 10.5399 11.513C10.6117 11.9835 10.7945 12.4302 11.0732 12.816C11.087 12.8369 11.105 12.8545 11.1262 12.8678C11.1473 12.8811 11.171 12.8897 11.1958 12.893C11.1318 13.0199 11.0613 13.1425 10.9876 13.2639L4.26348 13.2639C3.31823 12.5875 2.41832 11.8499 1.56952 11.0558C1.3602 10.8487 1.01315 11.1936 1.24416 11.4094ZM13.5037 20.7927C13.6587 21.3621 13.5655 21.9391 13.6045 22.5182C11.9181 22.079 10.5158 20.5747 11.0548 18.808C11.3953 19.4523 11.8226 20.0467 12.3248 20.5747C12.3583 20.6025 12.401 20.6168 12.4445 20.6147C12.488 20.6127 12.5292 20.5945 12.5599 20.5637C12.5907 20.5329 12.6089 20.4918 12.611 20.4483C12.613 20.4048 12.5987 20.3621 12.571 20.3286C12.0898 19.8227 11.681 19.2526 11.3563 18.6345C12.3421 19.0347 13.2098 19.7223 13.5037 20.7927ZM29.1382 19.6345C29.3779 20.1626 29.5612 20.7298 29.751 21.2775C28.2804 21.2016 26.9312 20.1474 27.1698 18.5814L28.1893 19.731C28.3389 19.9002 28.5851 19.6518 28.4365 19.4837L27.4171 18.3341C27.7946 18.3754 28.1539 18.518 28.457 18.747C28.76 18.9759 28.9954 19.2826 29.1382 19.6345ZM33.382 39.6017C34.19 39.4076 34.8212 38.8588 35.6411 38.6441C37.0108 38.2786 37.988 39.3208 38.5476 40.4227C37.8416 40.1501 37.1076 39.9566 36.359 39.8457C36.1399 39.8132 36.051 40.1537 36.2668 40.1874C37.1507 40.3172 38.0128 40.5664 38.8296 40.9281C37.0878 42.659 34.7474 41.1667 33.382 39.6017ZM39.9597 47.6457C39.0747 47.676 38.2906 47.2541 37.5618 46.79C38.0845 46.547 38.4944 46.1739 38.9543 45.8139C40.0507 44.9582 41.1559 45.1957 41.9584 46.2325C41.3591 46.2007 40.7585 46.2003 40.1592 46.2314C39.9325 46.2412 39.9347 46.5926 40.1592 46.5807C40.721 46.5503 41.2817 46.5427 41.8456 46.5687L42.0387 46.5752C41.7876 46.8905 41.4724 47.149 41.114 47.3335C40.7557 47.5181 40.3622 47.6244 39.9597 47.6457ZM50.0273 48.2281C50.4644 48.7215 50.7963 49.1705 51.3288 49.5295C49.9547 50.3592 47.624 49.7637 47.0687 48.1717C47.7408 48.2879 48.3963 48.4853 49.0209 48.7595C49.2248 48.8484 49.3994 48.5458 49.1933 48.4547C48.6216 48.2029 48.0256 48.0103 47.4147 47.8799C48.3387 47.3832 49.2346 47.3355 50.0273 48.2281ZM46.007 42.557C46.1252 41.7577 46.572 41.094 47.111 40.516C47.2758 41.0121 47.5302 41.4738 47.8615 41.8781C48.24 42.3673 48.5285 42.7816 48.3268 43.4279C48.1305 43.9682 47.7798 44.4389 47.3182 44.7814C47.2911 43.9669 47.2943 43.1503 47.3399 42.3347C47.3507 42.107 47.0026 42.1102 46.9906 42.3347C46.9462 43.1362 46.9429 43.9377 46.97 44.7413C46.2011 44.3151 45.8714 43.4366 46.007 42.557ZM51.1173 31.4493C51.9502 31.1088 52.8525 31.2324 53.7223 31.1717C52.9632 32.7985 51.5207 35.1085 49.5978 34.0814C50.4002 33.6255 51.1442 33.0738 51.8136 32.4384C51.8463 32.4056 51.8648 32.3611 51.8648 32.3148C51.8648 32.2684 51.8463 32.2239 51.8135 32.1911C51.7808 32.1583 51.7363 32.1399 51.6899 32.1399C51.6436 32.1399 51.5991 32.1583 51.5663 32.1911C50.8612 32.8603 50.0701 33.4325 49.2139 33.8928C49.4102 32.805 50.0642 31.882 51.1173 31.4493ZM45.5634 30.4136C45.2869 29.9315 45.1331 29.3889 45.1155 28.8334C45.1079 28.0103 45.5179 27.3184 45.9582 26.6568C46.3898 27.1969 46.9505 27.6166 47.3464 28.1838C48.0611 29.2043 47.6229 30.1956 47.0731 31.1532C46.7896 30.5791 46.5755 29.9733 46.4354 29.3486C46.3855 29.1295 46.0471 29.2184 46.0938 29.4408C46.2306 30.0397 46.4324 30.622 46.6957 31.1771C46.1729 31.1684 45.8541 30.9363 45.5656 30.4157L45.5634 30.4136ZM47.9038 18.2712C48.5329 17.9762 49.2389 18.0207 49.9156 18.0858C49.2454 19.5954 48.0481 21.6755 46.1816 20.3231C46.892 20.0336 47.5937 19.7245 48.2845 19.3894C48.4873 19.2907 48.3149 18.9859 48.111 19.0857C47.5654 19.3514 47.0134 19.5997 46.4538 19.8362C46.8041 19.2039 47.2455 18.5825 47.906 18.2734L47.9038 18.2712ZM38.7938 31.2226C38.3136 30.7308 37.9387 30.1463 37.6919 29.5047C38.1097 29.6774 38.5531 29.78 39.0042 29.8084C39.3849 29.829 39.7775 29.7531 40.1571 29.8008C41.029 29.9115 41.3598 30.5177 41.4693 31.291C41.1565 31.1968 40.8515 31.0782 40.5572 30.9363C40.3566 30.8376 40.1831 31.1391 40.3848 31.2389C40.7194 31.4011 41.067 31.5353 41.4238 31.6402C40.7275 32.5534 39.4543 31.9156 38.7938 31.2226ZM43.7132 49.5121L43.7143 46.8865C43.7318 46.8871 43.7492 46.8837 43.7653 46.8767C44.1456 47.3496 44.5375 47.8138 44.9409 48.2693C44.5266 48.6684 44.1101 49.0848 43.7143 49.5132L43.7132 49.5121ZM42.89 44.9126C42.3774 44.1889 41.8912 43.446 41.4313 42.6839C41.8343 41.8604 42.3225 41.0815 42.8879 40.3598L42.89 44.9126ZM45.6252 36.3839C45.6337 36.3935 45.6428 36.4025 45.6523 36.411C45.032 37.168 44.3639 37.8968 43.7132 38.6365L43.7143 33.293C44.331 34.3378 44.9691 35.3692 45.6285 36.3872L45.6252 36.3839ZM42.8922 30.8745C42.5842 30.3149 42.2802 29.7513 41.9801 29.1837C42.2111 28.0377 42.5158 26.9079 42.8922 25.8011L42.8922 30.8745ZM36.269 5.3805C35.9903 7.11466 35.8764 9.28914 33.6867 9.38567C34.1373 8.66892 34.6579 7.99864 35.2409 7.3847C35.2686 7.35117 35.2829 7.30848 35.2809 7.26499C35.2788 7.22149 35.2606 7.18033 35.2298 7.14954C35.1991 7.11875 35.1579 7.10056 35.1144 7.09852C35.0709 7.09648 35.0282 7.11074 34.9947 7.13851C34.3288 7.83908 33.7432 8.6117 33.2486 9.44206C31.9732 7.80659 34.9882 6.17763 36.2744 5.37725L36.269 5.3805ZM19.961 9.71536C20.719 8.7946 21.989 8.12111 23.1744 8.59071C23.7167 8.80328 24.1385 9.12103 24.6765 9.18177C24.1483 9.76633 23.6082 10.4387 22.9857 10.8725C22.0432 11.5309 20.9772 10.9723 20.2982 10.185C21.0628 10.2663 21.8198 10.2359 22.5562 9.87912C22.759 9.78043 22.5877 9.47676 22.3849 9.57545C21.6224 9.94527 20.8199 9.92792 20.0152 9.80863L19.961 9.71536ZM16.1998 7.25565C16.3549 6.61469 16.8755 6.29367 17.2941 5.83166C17.5364 5.57345 17.7203 5.26607 17.8331 4.93042C18.0652 5.56596 18.3537 6.19715 18.3699 6.8316C18.3938 7.73393 17.8353 8.49634 17.1325 9.0039C17.1878 8.4432 17.255 7.88359 17.3418 7.32614C17.3765 7.10706 17.0349 7.01922 17.0002 7.23395C16.9105 7.81671 16.8368 8.40091 16.7789 8.98656C16.3397 8.49093 16.035 7.94324 16.2009 7.25673L16.1998 7.25565ZM11.8606 9.04186C12.2814 8.67096 12.6989 8.36187 12.9929 7.94433C13.1176 9.72837 14.0785 11.956 11.7565 12.5406C12.0106 11.9031 12.1957 11.2403 12.3085 10.5635C12.3465 10.3433 12.0103 10.2522 11.9669 10.4713C11.8489 11.1999 11.6427 11.9115 11.353 12.5904C10.5689 11.4094 10.7913 9.98541 11.8617 9.04295L11.8606 9.04186ZM27.2262 11.4864C27.3661 11.0645 27.7045 10.7196 28.0136 10.4192C28.5233 9.92468 29.046 9.44314 29.5634 8.95835C29.5797 9.39855 29.6381 9.83618 29.738 10.2652C29.9202 11.3302 29.546 12.5416 28.5255 12.957C28.6731 12.3123 28.8704 11.6799 29.1155 11.0656C29.1925 10.8563 28.8552 10.7684 28.7738 10.9734C28.5007 11.6561 28.2926 12.3631 28.1524 13.085C28.1257 13.1072 28.1074 13.1378 28.1003 13.1717C27.4854 13.1533 27.1069 11.8486 27.2273 11.4875L27.2262 11.4864ZM28.0721 14.0936C28.0732 14.1467 28.0797 14.1988 28.083 14.2519C27.1495 14.9467 26.1586 15.561 25.1211 16.088C25.0946 16.1001 25.0709 16.1175 25.0515 16.1391C25.0321 16.1608 25.0174 16.1862 25.0083 16.2139C23.4243 15.6063 21.8808 14.8981 20.3872 14.0936L28.0721 14.0936ZM15.6521 11.7489C16.4019 12.2745 17.1762 12.782 17.9752 13.2715L13.1154 13.2726C13.9837 12.8005 14.8297 12.2929 15.6532 11.7499L15.6521 11.7489ZM10.3401 14.0958C9.40089 14.5101 8.44181 14.8835 7.46284 15.2161C6.79694 14.8698 6.14803 14.4963 5.51611 14.0958L10.3401 14.0958Z" fill="#C3937C"/>
<path d="M23.0788 9.6686C23.1116 9.70139 23.1561 9.71982 23.2025 9.71982C23.2488 9.71982 23.2933 9.70139 23.3261 9.6686C23.3589 9.63581 23.3773 9.59134 23.3773 9.54497C23.3773 9.4986 23.3589 9.45412 23.3261 9.42133C23.2933 9.38854 23.2488 9.37012 23.2025 9.37012C23.1561 9.37012 23.1116 9.38855 23.0788 9.42134C23.046 9.45413 23.0276 9.4986 23.0276 9.54497C23.0276 9.59134 23.046 9.63581 23.0788 9.6686Z" fill="#C3937C"/>
<path d="M17.4502 6.5365C17.4166 6.50872 17.374 6.49446 17.3305 6.4965C17.287 6.49854 17.2458 6.51672 17.215 6.54751C17.1842 6.5783 17.166 6.61947 17.164 6.66297C17.162 6.70646 17.1762 6.74915 17.204 6.78268C17.2375 6.81046 17.2802 6.82471 17.3237 6.82267C17.3672 6.82063 17.4084 6.80245 17.4392 6.77166C17.4699 6.74087 17.4881 6.69969 17.4902 6.6562C17.4922 6.61271 17.478 6.57003 17.4502 6.5365Z" fill="#C3937C"/>
<path d="M12.4939 9.67951C12.5687 9.46803 12.2304 9.38127 12.1523 9.58733L12.0525 9.86931C11.9777 10.0808 12.315 10.1686 12.3931 9.96258L12.4939 9.67951Z" fill="#C3937C"/>
<path d="M12.648 21.0389L12.8465 21.3025C12.8704 21.3415 12.9081 21.37 12.9522 21.3823C12.9963 21.3945 13.0434 21.3897 13.084 21.3686C13.1039 21.3572 13.1214 21.342 13.1355 21.3239C13.1496 21.3057 13.1599 21.285 13.1659 21.2628C13.172 21.2407 13.1736 21.2175 13.1707 21.1947C13.1678 21.172 13.1604 21.15 13.149 21.13L12.9527 20.8665C12.9284 20.8277 12.8903 20.7994 12.8461 20.7874C12.8019 20.7753 12.7548 20.7803 12.7141 20.8014C12.6743 20.8245 12.645 20.8623 12.6327 20.9067C12.6203 20.9511 12.6258 20.9985 12.648 21.0389Z" fill="#C3937C"/>
<path d="M35.5662 6.68846L35.6302 6.62447C35.658 6.59094 35.6722 6.54825 35.6702 6.50475C35.6682 6.46126 35.65 6.42009 35.6192 6.38931C35.5884 6.35852 35.5472 6.34033 35.5037 6.33829C35.4602 6.33625 35.4176 6.35051 35.384 6.37828L35.32 6.44227C35.2923 6.4758 35.278 6.51849 35.28 6.56199C35.2821 6.60548 35.3003 6.64664 35.3311 6.67743C35.3618 6.70822 35.403 6.72641 35.4465 6.72845C35.49 6.73049 35.5327 6.71623 35.5662 6.68846Z" fill="#C3937C"/>
<path d="M29.2064 10.5276C29.2074 10.4562 29.226 10.3861 29.2607 10.3237C29.2721 10.3037 29.2794 10.2817 29.2823 10.259C29.2852 10.2362 29.2836 10.213 29.2775 10.1909C29.2715 10.1687 29.2612 10.148 29.2471 10.1298C29.233 10.1117 29.2155 10.0965 29.1956 10.0851C29.1757 10.0737 29.1537 10.0663 29.1309 10.0634C29.1081 10.0605 29.085 10.0621 29.0628 10.0682C29.0407 10.0742 29.0199 10.0846 29.0018 10.0986C28.9836 10.1127 28.9684 10.1302 28.957 10.1501C28.8927 10.266 28.8588 10.3962 28.8583 10.5286C28.8605 10.7586 29.2043 10.7531 29.2064 10.5276Z" fill="#C3937C"/>
<path d="M28.4387 20.0889L28.5623 20.2732C28.686 20.4598 28.9853 20.2841 28.8649 20.1008L28.7424 19.9154C28.6177 19.7299 28.314 19.9012 28.4387 20.0889Z" fill="#C3937C"/>
<path d="M48.7193 19.1083C48.793 19.065 48.8657 19.0205 48.9394 18.9771C48.9593 18.9657 48.9768 18.9505 48.9909 18.9323C49.005 18.9142 49.0153 18.8934 49.0213 18.8713C49.0274 18.8491 49.029 18.826 49.0261 18.8032C49.0232 18.7804 49.0159 18.7584 49.0045 18.7385C48.9931 18.7186 48.9779 18.7011 48.9597 18.687C48.9416 18.673 48.9208 18.6626 48.8987 18.6566C48.8765 18.6505 48.8534 18.6489 48.8306 18.6518C48.8078 18.6547 48.7858 18.662 48.7659 18.6734C48.6932 18.7179 48.6195 18.7613 48.5468 18.8058C48.511 18.8307 48.4858 18.8681 48.4762 18.9107C48.4666 18.9533 48.4732 18.9979 48.4948 19.0358C48.5164 19.0737 48.5514 19.1022 48.5929 19.1156C48.6345 19.129 48.6795 19.1264 48.7193 19.1083Z" fill="#C3937C"/>
<path d="M52.2808 32.1769C52.3546 32.1335 52.4272 32.089 52.5021 32.0446C52.5379 32.0196 52.5631 31.9822 52.5727 31.9396C52.5823 31.8971 52.5757 31.8525 52.5541 31.8145C52.5325 31.7766 52.4974 31.7482 52.4559 31.7347C52.4144 31.7213 52.3693 31.7239 52.3296 31.742C52.2559 31.7854 52.1821 31.8288 52.1095 31.8732C52.0729 31.8978 52.0468 31.9352 52.0366 31.9781C52.0264 32.0209 52.0328 32.0661 52.0545 32.1045C52.0761 32.1428 52.1115 32.1716 52.1534 32.185C52.1954 32.1985 52.2409 32.1956 52.2808 32.1769Z" fill="#C3937C"/>
<path d="M46.3572 28.9472L46.2444 28.4787C46.1923 28.2596 45.8539 28.3485 45.9027 28.5708L46.0155 29.0394C46.0719 29.2541 46.4103 29.1652 46.3572 28.9472Z" fill="#C3937C"/>
<path d="M40.0019 30.6955L39.6483 30.4352C39.4672 30.3018 39.2959 30.6077 39.4748 30.7389L39.8294 31.0002C40.0149 31.1271 40.1873 30.8224 40.0019 30.6955Z" fill="#C3937C"/>
<path d="M47.2769 41.6363C47.2746 41.5915 47.2551 41.5494 47.2227 41.5186C47.1902 41.4877 47.1471 41.4705 47.1023 41.4705C47.0575 41.4705 47.0144 41.4877 46.9819 41.5186C46.9494 41.5494 46.93 41.5915 46.9277 41.6362L46.9277 41.7447C46.9319 41.788 46.9522 41.8282 46.9845 41.8574C47.0167 41.8866 47.0588 41.9027 47.1023 41.9025C47.1458 41.9024 47.1877 41.886 47.2198 41.8567C47.2519 41.8273 47.2719 41.787 47.2758 41.7436L47.2769 41.6363Z" fill="#C3937C"/>
<path d="M49.6043 49.1911L49.8538 49.3755C50.0338 49.5078 50.2052 49.2041 50.0273 49.0718L49.7768 48.8885C49.5989 48.7519 49.4265 49.0566 49.6043 49.1911Z" fill="#C3937C"/>
<path d="M35.4826 39.709L35.0532 39.683C34.8265 39.6732 34.8298 40.0192 35.0532 40.0322L35.4837 40.0571C35.7061 40.0647 35.7039 39.7177 35.4826 39.709Z" fill="#C3937C"/>
<path d="M39.6115 46.4125L39.1495 46.4407C38.9218 46.4516 38.925 46.8041 39.1495 46.79L39.6115 46.7618C39.8349 46.7466 39.836 46.3985 39.6115 46.4125Z" fill="#C3937C"/>
</svg>
