<svg width="102" height="103" viewBox="0 0 102 103" fill="none" xmlns="http://www.w3.org/2000/svg">
<g clip-path="url(#clip0_782_3775)">
<path d="M51.0106 55.4473C53.1759 55.4473 54.9313 53.6801 54.9313 51.5C54.9313 49.32 53.1759 47.5527 51.0106 47.5527C48.8452 47.5527 47.0898 49.32 47.0898 51.5C47.0898 53.6801 48.8452 55.4473 51.0106 55.4473Z" fill="white"/>
<path d="M29.7729 4.81007L30.7122 4.42973L33.5609 7.47245V3.28872L34.5206 2.90838L34.4798 7.95558L38.2371 11.7795L38.329 1.30478L39.4113 0.873047L39.1561 12.7664L38.278 13.1159L34.1633 8.94241L34.0203 14.8222L33.1525 15.1718L24.8516 6.70149L25.9134 6.26975L33.1525 13.8046L33.2546 8.43872L29.7729 4.81007Z" fill="#C3937C"/>
<path d="M52.1739 9.96027L52.2352 10.9163L44.9451 11.4199L44.21 0.503179L51.3571 0.00976562L51.4184 0.965754L45.3331 1.38721L45.5986 5.32424L50.8976 4.96446L50.9589 5.86905L45.6598 6.22883L45.9457 10.4023L52.1637 9.97054L52.1739 9.96027Z" fill="#C3937C"/>
<path d="M54.2568 11.0087L56.2172 0.246094L59.852 0.914257C60.7097 1.06845 61.4244 1.35627 62.0166 1.75717C62.5986 2.15807 63.0682 2.6412 63.4052 3.20657C63.7421 3.77194 63.9565 4.39899 64.0586 5.08771C64.1505 5.77643 64.1403 6.49599 63.9974 7.23611C63.8442 8.05847 63.589 8.77803 63.2316 9.3948C62.8743 10.0116 62.425 10.5153 61.8941 10.9059C61.3631 11.2965 60.7607 11.5535 60.0869 11.6974C59.413 11.8413 58.6779 11.8413 57.9019 11.6974L54.267 11.0292L54.2568 11.0087ZM62.9355 7.03053C63.058 6.38292 63.0682 5.77643 62.9866 5.20078C62.9049 4.62514 62.7313 4.11116 62.4556 3.64859C62.18 3.18601 61.8124 2.80567 61.3529 2.49729C60.8935 2.18891 60.3319 1.97304 59.6785 1.84969L57.1055 1.37683L55.4821 10.2685L58.055 10.7414C58.7187 10.8648 59.3211 10.8545 59.8725 10.7208C60.4238 10.5872 60.9037 10.3508 61.3121 10.0116C61.7307 9.67234 62.0676 9.25088 62.3433 8.74719C62.619 8.23322 62.813 7.66785 62.9253 7.03053H62.9355Z" fill="#C3937C"/>
<path d="M64.876 13.3413L69.6441 3.50391L72.9625 5.12806C73.7384 5.5084 74.3613 5.97097 74.8207 6.51578C75.2802 7.06059 75.5967 7.64652 75.7703 8.28385C75.9438 8.92117 75.9847 9.57906 75.8928 10.2781C75.8009 10.9668 75.5967 11.6555 75.27 12.3339C74.9024 13.0843 74.4736 13.7011 73.9529 14.2048C73.4423 14.6982 72.8706 15.0683 72.258 15.2944C71.6453 15.5206 70.9919 15.6131 70.2976 15.572C69.6135 15.5309 68.909 15.3253 68.1943 14.9758L64.876 13.3516V13.3413ZM74.3 11.8611C74.5859 11.2649 74.7697 10.6892 74.8411 10.1136C74.9126 9.53794 74.882 8.99313 74.739 8.47916C74.5961 7.96518 74.3408 7.49233 73.9835 7.07087C73.6159 6.64942 73.136 6.28963 72.5438 5.99153L70.1853 4.84023L66.2544 12.961L68.6129 14.1123C69.2153 14.4104 69.8075 14.5646 70.3691 14.5851C70.9306 14.6057 71.4616 14.5132 71.9517 14.2973C72.4417 14.0815 72.8808 13.7731 73.2892 13.3516C73.6976 12.9302 74.0345 12.4367 74.3102 11.8508L74.3 11.8611Z" fill="#C3937C"/>
<path d="M74.5244 18.7396L81.0181 9.96094L81.8758 10.6085L75.3821 19.3872L74.5244 18.7396Z" fill="#C3937C"/>
<path d="M85.0615 15.83L78.4657 21.823L77.751 21.0212L85.817 13.6816L86.3684 14.2984L84.4795 25.7805L91.1876 19.6848L91.9023 20.4866L83.8465 27.8159L83.2236 27.1169L85.0615 15.8198V15.83Z" fill="#C3937C"/>
<path d="M90.1665 36.4599C88.7269 36.0385 87.7161 35.2264 87.1341 34.034C86.8074 33.3658 86.6542 32.6874 86.6747 31.9884C86.6849 31.2894 86.8278 30.6212 87.0933 29.9736C87.3587 29.3363 87.7365 28.7503 88.2164 28.2261C88.6963 27.7018 89.2476 27.2906 89.8704 26.9823C90.5239 26.6636 91.1978 26.4683 91.9023 26.3963C92.6068 26.3347 93.2909 26.3963 93.9341 26.5711C94.5876 26.7561 95.1798 27.0542 95.7209 27.4757C96.262 27.8971 96.6909 28.4317 97.0074 29.0896C97.2422 29.5727 97.3954 30.0353 97.4873 30.4876C97.5689 30.9399 97.5996 31.3613 97.5587 31.7622C97.5179 32.1631 97.426 32.5434 97.2728 32.8929C97.1197 33.2424 96.9257 33.5817 96.6909 33.8901L95.8332 33.3864C96.2825 32.7696 96.5275 32.122 96.5581 31.4744C96.5888 30.8165 96.4458 30.1586 96.1293 29.5007C95.8638 28.9559 95.5065 28.5242 95.0674 28.1952C94.6284 27.8663 94.1383 27.6504 93.6074 27.5271C93.0765 27.4037 92.5251 27.3832 91.9533 27.4551C91.3816 27.5271 90.8302 27.7018 90.3095 27.9588C89.7581 28.2261 89.2783 28.5859 88.8801 29.0176C88.4819 29.4493 88.1653 29.9222 87.9611 30.4362C87.7569 30.9501 87.6446 31.4847 87.6446 32.0398C87.6446 32.5948 87.7671 33.1397 88.0224 33.6639C88.2981 34.2293 88.6861 34.7021 89.1966 35.0825C89.7071 35.4628 90.3605 35.7506 91.1569 35.9459L92.7804 35.1441L91.7185 32.9546L92.4638 32.5846L93.9239 35.5862L89.1251 37.9504L88.7269 37.1384L90.1563 36.4394L90.1665 36.4599Z" fill="#C3937C"/>
<path d="M100.049 49.7825C100.366 49.4433 100.601 49.0013 100.774 48.477C100.938 47.9425 100.989 47.3566 100.927 46.6987C100.836 45.7324 100.591 45.054 100.182 44.6531C99.7737 44.2522 99.2632 44.0774 98.6506 44.1391C98.3239 44.17 98.0584 44.2522 97.8644 44.3961C97.6704 44.5297 97.5071 44.7353 97.3743 44.9923C97.2416 45.2493 97.1395 45.5782 97.068 45.9791C96.9965 46.38 96.9251 46.8323 96.8638 47.3669C96.8025 47.9631 96.7107 48.4976 96.6086 48.9807C96.4962 49.4639 96.3533 49.875 96.1491 50.2245C95.9449 50.574 95.6998 50.8516 95.3935 51.0572C95.0872 51.2628 94.689 51.3861 94.1989 51.4375C93.6986 51.4889 93.2596 51.4375 92.8716 51.273C92.4836 51.1189 92.1569 50.8721 91.8812 50.5535C91.6055 50.2348 91.3809 49.8339 91.2176 49.3611C91.0542 48.8882 90.9419 48.3742 90.8908 47.7986C90.7275 46.1128 91.1155 44.6017 92.0446 43.2756L92.9635 43.7279C92.7797 43.9438 92.6062 44.1905 92.453 44.4783C92.2998 44.7662 92.1671 45.0848 92.065 45.4343C91.9629 45.7838 91.8914 46.1436 91.8506 46.5342C91.8097 46.9248 91.8097 47.3257 91.8506 47.7369C91.9323 48.6107 92.1569 49.2686 92.5143 49.7209C92.8716 50.1731 93.3617 50.3685 93.9947 50.3171C94.3317 50.2862 94.6074 50.1834 94.8218 50.0292C95.0362 49.8648 95.22 49.6386 95.3527 49.3508C95.4956 49.0527 95.6079 48.7032 95.6896 48.2817C95.7713 47.8603 95.853 47.3771 95.9143 46.822C95.9959 46.2361 96.0776 45.7221 96.1797 45.2801C96.2818 44.8381 96.4248 44.4578 96.6086 44.1391C96.7923 43.8205 97.0272 43.5737 97.3131 43.399C97.5989 43.2242 97.9563 43.1112 98.3953 43.0701C98.8956 43.0187 99.3449 43.0701 99.7533 43.2242C100.162 43.3784 100.519 43.6149 100.805 43.9335C101.101 44.2522 101.336 44.6428 101.52 45.1054C101.703 45.5577 101.816 46.0819 101.877 46.6473C101.948 47.3771 101.897 48.035 101.734 48.621C101.571 49.2069 101.315 49.7517 100.958 50.2554L100.049 49.8134V49.7825Z" fill="#C3937C"/>
<path d="M91.1874 61.0482L90.248 60.9248L91.218 53.6367L102 55.0964L101.05 62.2509L100.111 62.1275L100.918 56.0421L97.0276 55.5179L96.3231 60.822L95.4246 60.6987L96.1291 55.3945L92.0144 54.8394L91.1874 61.0585V61.0482Z" fill="#C3937C"/>
<path d="M89.7065 62.8794L99.8248 66.8884L98.1402 71.1955C97.9666 71.6375 97.7215 72.0076 97.3846 72.2954C97.0477 72.5832 96.6903 72.8094 96.2819 72.9636C95.8735 73.1075 95.4549 73.1897 95.0158 73.1794C94.5768 73.1794 94.1684 73.0972 93.7702 72.943C93.4026 72.7991 93.0657 72.6038 92.7696 72.3571C92.4735 72.1104 92.2284 71.8431 92.0345 71.5347C91.8405 71.2366 91.7077 70.9077 91.626 70.5479C91.5444 70.1984 91.5444 69.8386 91.6158 69.4685L86.7354 70.4143L87.1744 69.2835L91.8405 68.3686L93.0146 65.3568L89.2777 63.8765L89.6657 62.8691L89.7065 62.8794ZM93.9336 65.7165L92.6369 69.0471C92.5245 69.3452 92.4837 69.6433 92.5143 69.9311C92.545 70.2292 92.6369 70.5068 92.79 70.7637C92.9432 71.0207 93.1372 71.2572 93.372 71.4627C93.6068 71.6683 93.8825 71.8328 94.1888 71.9459C94.4951 72.059 94.8116 72.1309 95.1281 72.1309C95.4447 72.1309 95.751 72.0795 96.0369 71.9767C96.3227 71.8739 96.5678 71.7197 96.7924 71.5142C97.017 71.3086 97.1804 71.0721 97.2927 70.7946L98.5588 67.5566L93.9438 65.7268L93.9336 65.7165Z" fill="#C3937C"/>
<path d="M94.7511 78.2159L84.7349 75.8002L90.228 84.5686L89.5746 85.4835L83.377 75.3993L83.9181 74.6387L95.3944 77.3113L94.7409 78.2262L94.7511 78.2159Z" fill="#C3937C"/>
<path d="M79.3234 80.1387L86.8891 88.0024L86.1234 88.7528L78.5576 80.8891L79.3234 80.1387Z" fill="#C3937C"/>
<path d="M80.1702 87.158C80.5378 87.7028 80.8033 88.3093 80.9666 88.9877C81.1402 89.6559 81.1811 90.3344 81.0994 91.0025C81.0177 91.6707 80.8033 92.3286 80.4459 92.9556C80.0886 93.5827 79.5678 94.1275 78.894 94.5798C78.0874 95.1246 77.2807 95.4021 76.4639 95.4227C75.6471 95.4432 74.912 95.2479 74.2483 94.8368L74.6567 93.9322C75.0039 94.1377 75.3408 94.2714 75.688 94.3331C76.0351 94.3947 76.3618 94.4153 76.6886 94.3845C77.0153 94.3536 77.3216 94.2817 77.6075 94.1686C77.9036 94.0555 78.169 93.9116 78.4141 93.7471C78.9552 93.3771 79.3636 92.9453 79.6291 92.4416C79.8946 91.9379 80.0579 91.4137 80.0988 90.8586C80.1498 90.3035 80.0988 89.7587 79.9354 89.2139C79.772 88.6691 79.5474 88.1654 79.2513 87.7028C78.9144 87.1991 78.506 86.7777 78.0261 86.4282C77.5462 86.0889 77.0357 85.832 76.5048 85.688C75.9636 85.5339 75.4225 85.4927 74.8711 85.5647C74.3198 85.6366 73.7991 85.832 73.3192 86.1506C73.0639 86.3254 72.8291 86.531 72.6045 86.7777C72.3798 87.0244 72.1859 87.3019 72.0327 87.6103C71.8796 87.9187 71.757 88.2476 71.6856 88.6074C71.6141 88.9569 71.6039 89.3372 71.6549 89.7279L70.6645 89.8409C70.5829 89.3989 70.5829 88.9672 70.6747 88.5252C70.7666 88.0832 70.9096 87.672 71.1138 87.2711C71.318 86.8702 71.5732 86.5104 71.8693 86.1712C72.1654 85.832 72.4922 85.5441 72.8393 85.318C73.4621 84.8965 74.1156 84.6601 74.8201 84.5779C75.5246 84.5059 76.1985 84.5573 76.8723 84.7526C77.5462 84.9479 78.1588 85.246 78.7408 85.6675C79.3228 86.0889 79.8027 86.5926 80.1907 87.1683L80.1702 87.158Z" fill="#C3937C"/>
<path d="M61.006 91.8365L60.6895 90.9319L67.5711 88.4648L71.2162 98.7751L64.4672 101.191L64.1507 100.286L69.8889 98.2303L68.5717 94.5092L63.5687 96.3081L63.2624 95.4549L68.2654 93.6662L66.8768 89.7292L61.006 91.8365Z" fill="#C3937C"/>
<path d="M47.1405 91.846L48.376 93.1926C48.815 92.7404 49.3153 92.3806 49.8667 92.1339C50.4282 91.8769 51.0306 91.7638 51.6841 91.7741C52.164 91.7741 52.6132 91.8563 53.0318 92.0105C53.4504 92.1647 53.818 92.3703 54.1243 92.6376C54.4306 92.9048 54.6757 93.2235 54.8492 93.5935C55.0228 93.9636 55.1147 94.3645 55.1045 94.8065C55.1045 95.1766 55.033 95.5158 54.9003 95.8242C54.7778 96.1326 54.6042 96.4101 54.3796 96.6774C54.1652 96.9344 53.9099 97.1708 53.6342 97.3969C53.3586 97.6231 53.0625 97.8287 52.7459 98.0343C53.0216 98.3324 53.2462 98.6099 53.43 98.8463C53.6138 99.0828 53.767 99.3089 53.8793 99.5042C53.9916 99.7098 54.0733 99.9051 54.1243 100.09C54.1754 100.275 54.1958 100.47 54.1958 100.666C54.1958 101.005 54.1141 101.324 53.9712 101.612C53.8282 101.899 53.6342 102.156 53.3892 102.362C53.1441 102.567 52.848 102.742 52.5111 102.855C52.1742 102.979 51.8168 103.03 51.4288 103.02C51.0715 103.02 50.7447 102.958 50.4384 102.845C50.1321 102.742 49.8667 102.588 49.642 102.393C49.4174 102.197 49.2336 101.971 49.1111 101.694C48.9886 101.426 48.9171 101.128 48.9273 100.81C48.9273 100.491 48.9988 100.203 49.1315 99.9462C49.2643 99.6893 49.4378 99.4425 49.6523 99.2061C49.8667 98.9697 50.1219 98.7538 50.418 98.538C50.7141 98.3221 51.0204 98.1165 51.3471 97.9006L48.3556 94.642C48.1411 95.0327 47.9778 95.4541 47.8553 95.9064C47.7327 96.3587 47.6613 96.8418 47.651 97.3455H46.7628C46.7832 96.6979 46.8751 96.0914 47.0487 95.5364C47.212 94.971 47.4468 94.457 47.7532 93.9944L45.752 91.8358L47.1303 91.8563L47.1405 91.846ZM51.5718 92.617C51.051 92.617 50.5712 92.7095 50.1219 92.9254C49.6829 93.1412 49.2847 93.4393 48.9477 93.8197L52.1844 97.3764C52.7357 97.0063 53.185 96.6157 53.5526 96.2045C53.9201 95.7933 54.1039 95.3102 54.1141 94.7551C54.1141 94.4159 54.0529 94.1178 53.9099 93.8505C53.767 93.5833 53.573 93.3571 53.3279 93.1824C53.0829 92.9973 52.8174 92.8637 52.5111 92.7712C52.2048 92.6787 51.8985 92.6273 51.582 92.6273L51.5718 92.617ZM53.2462 100.666C53.2462 100.542 53.236 100.419 53.1952 100.296C53.1646 100.172 53.0931 100.028 52.991 99.864C52.8889 99.6995 52.7562 99.5145 52.5928 99.2986C52.4294 99.0828 52.2048 98.8361 51.9393 98.538C51.3369 98.9183 50.8571 99.2781 50.4793 99.6173C50.1015 99.9565 49.9075 100.347 49.8973 100.789C49.8973 101.19 50.03 101.519 50.3261 101.786C50.6222 102.043 50.9898 102.187 51.4492 102.187C51.7045 102.187 51.9393 102.156 52.1538 102.074C52.3682 101.992 52.5622 101.889 52.7153 101.745C52.8685 101.601 53.0012 101.437 53.0931 101.262C53.185 101.077 53.2258 100.882 53.236 100.666H53.2462Z" fill="#C3937C"/>
<path d="M40.1674 90.562L36.3692 100.821L32.1524 99.2378C31.7133 99.0734 31.3458 98.8266 31.0395 98.4977C30.7434 98.1688 30.5187 97.809 30.3554 97.3978C30.2022 96.9969 30.1205 96.5755 30.1103 96.1232C30.1001 95.6709 30.1716 95.2597 30.3145 94.8691C30.4677 94.4476 30.6923 94.0673 30.9782 93.728C31.2641 93.3888 31.5908 93.1216 31.9686 92.9262C32.3362 92.7207 32.7344 92.5973 33.1632 92.5459C33.592 92.4945 34.0208 92.5562 34.4599 92.7207L37.7578 93.9645L39.1566 90.1816L40.1572 90.562H40.1674ZM37.4311 94.8691L34.174 93.6458C33.8779 93.5327 33.5818 93.5019 33.2959 93.5327C32.9998 93.5739 32.7344 93.6664 32.4791 93.8206C32.2238 93.9747 31.9992 94.1701 31.795 94.4168C31.5908 94.6635 31.4377 94.941 31.3254 95.2494C31.2028 95.5681 31.1518 95.8867 31.1518 96.2157C31.1518 96.5446 31.213 96.8427 31.3254 97.1305C31.4377 97.4081 31.5908 97.6651 31.795 97.8809C32.0094 98.0968 32.2443 98.2613 32.5199 98.3641L35.6953 99.5565L37.4311 94.8793V94.8691Z" fill="#C3937C"/>
<path d="M31.3762 86.892L25.3522 96.0099L24.4639 95.4137L29.9672 87.0976L24.7395 83.5923L25.2705 82.8008L31.3864 86.9023L31.3762 86.892Z" fill="#C3937C"/>
<path d="M13.7835 86.6143L13.1709 85.9462L18.1024 75.1836L18.8682 76.0265L17.3265 79.3879L20.6346 83.0062L24.0754 81.7213L24.8514 82.5745L13.7733 86.6246L13.7835 86.6143ZM16.8772 80.1383L14.4063 85.4219L19.8688 83.3969L16.8772 80.128V80.1383Z" fill="#C3937C"/>
<path d="M8.9036 77.0241L16.8165 72.9637L17.3066 73.9197L7.61711 78.8949L7.23933 78.1548L12.0279 67.5567L3.98228 71.689L3.49219 70.7228L13.1613 65.7578L13.5901 66.6007L8.9036 77.0241Z" fill="#C3937C"/>
<path d="M3.40009 63.7835L12.14 62.1901L12.334 63.2489L1.63372 65.202L1.49078 64.3797L9.1178 55.6216L0.214502 57.2457L0.0205078 56.187L10.7004 54.2441L10.8638 55.1693L3.38988 63.7835H3.40009Z" fill="#C3937C"/>
<path d="M10.8739 51.3869L0 51.2122L0.0204204 50.1328L10.8943 50.3076L10.8739 51.3869Z" fill="#C3937C"/>
<path d="M2.35837 44.4982L11.037 46.3794L10.8124 47.4381L0.183594 45.1253L0.357167 44.3132L10.7205 39.1426L1.8887 37.2307L2.11332 36.1719L12.7319 38.4745L12.5379 39.3893L2.35837 44.4879V44.4982Z" fill="#C3937C"/>
<path d="M16.0303 28.2682C16.5306 29.6971 16.4694 30.9923 15.8466 32.1641C15.4994 32.8117 15.0399 33.336 14.4682 33.7369C13.8964 34.1378 13.2736 34.4051 12.5997 34.5592C11.9258 34.7134 11.2417 34.7443 10.5372 34.662C9.83274 34.5798 9.17929 34.3639 8.56667 34.035C7.93364 33.6855 7.37208 33.2435 6.91262 32.709C6.44295 32.1744 6.0958 31.5782 5.87118 30.9409C5.63634 30.3036 5.53424 29.6354 5.56487 28.9467C5.5955 28.258 5.77929 27.6001 6.11622 26.9525C6.37148 26.4796 6.64715 26.0787 6.96367 25.7498C7.28019 25.4208 7.60691 25.1536 7.95406 24.948C8.30121 24.7424 8.65857 24.5985 9.03634 24.5162C9.41412 24.434 9.7919 24.3929 10.1799 24.4134L10.2718 25.4105C9.50601 25.4105 8.85256 25.5853 8.30121 25.9348C7.74986 26.2946 7.30061 26.788 6.96367 27.4356C6.67779 27.9701 6.53484 28.5149 6.52463 29.0598C6.52463 29.6148 6.61652 30.1391 6.83094 30.6428C7.04535 31.1465 7.34145 31.6091 7.73965 32.0408C8.13784 32.4622 8.58709 32.8117 9.0976 33.0893C9.63875 33.3771 10.2003 33.5621 10.7823 33.6444C11.3643 33.7266 11.9258 33.6958 12.467 33.5724C13.0081 33.4491 13.4982 33.2229 13.9475 32.894C14.3967 32.5753 14.7643 32.1539 15.0399 31.6399C15.336 31.0848 15.4892 30.4886 15.4994 29.8513C15.5096 29.2139 15.3667 28.5047 15.0502 27.744L13.4574 26.8805L12.3138 29.0289L11.5889 28.6383L13.1613 25.6881L17.8682 28.2477L17.4393 29.0495L16.0405 28.2888L16.0303 28.2682Z" fill="#C3937C"/>
</g>
<defs>
<clipPath id="clip0_782_3775">
<rect width="102" height="103" fill="white"/>
</clipPath>
</defs>
</svg>
