<svg width="19" height="18" viewBox="0 0 19 18" fill="none" xmlns="http://www.w3.org/2000/svg">
<path d="M7.52113 1.17276C8.24729 -0.390873 10.4702 -0.390871 11.1964 1.17276L12.4304 3.82988C12.7256 4.46558 13.3284 4.90355 14.0242 4.98788L16.9326 5.34037C18.6441 5.5478 19.3311 7.66196 18.0683 8.83577L15.9226 10.8304C15.4092 11.3077 15.179 12.0163 15.3138 12.7041L15.8773 15.5791C16.2089 17.2709 14.4105 18.5776 12.9039 17.7394L10.3438 16.315C9.73133 15.9743 8.98621 15.9743 8.37371 16.315L5.81359 17.7394C4.30703 18.5776 2.50862 17.2709 2.84023 15.5791L3.40373 12.7041C3.53855 12.0163 3.30829 11.3077 2.79493 10.8304L0.649184 8.83576C-0.613524 7.66196 0.0734094 5.5478 1.78491 5.34037L4.69329 4.98788C5.38911 4.90355 5.99193 4.46558 6.28715 3.82988L7.52113 1.17276Z" fill="#C3937C"/>
</svg>
