<svg width="103" height="107" viewBox="0 0 103 107" fill="none" xmlns="http://www.w3.org/2000/svg">
<path d="M99.9635 21.4177C98.6339 22.6569 97.2387 23.8238 95.7838 24.9133L102.299 24.9133L100.753 26.4585L93.6197 26.4585C92.0867 27.4917 90.4976 28.4391 88.8598 29.2965C88.8448 29.3468 88.8197 29.3935 88.786 29.4338C88.7523 29.4741 88.7107 29.507 88.6638 29.5306C88.6169 29.5543 88.5657 29.5681 88.5133 29.5712C88.4609 29.5744 88.4084 29.5668 88.359 29.549C86.5605 30.4665 84.7086 31.2755 82.8133 31.9716C82.5998 32.8376 82.3103 33.6831 81.948 34.4982C83.5706 38.4417 80.6654 41.9861 76.8401 42.9328C76.7878 42.9463 76.7328 42.9449 76.6813 42.9287C76.5958 43.344 75.9626 43.175 76.04 42.7556C76.4533 40.7503 75.8893 39.0096 77.0742 37.1692C78.0779 35.6036 79.6699 34.6875 81.3902 34.1113C81.6609 33.4941 81.8881 32.8587 82.0702 32.2098C79.8216 32.9947 77.52 33.6186 75.1829 34.0767C75.1718 34.1637 75.1373 34.246 75.0831 34.3149L71.9255 38.1526C72.2585 38.4929 72.4552 38.9434 72.4784 39.419C72.5016 39.8945 72.3496 40.3621 72.0513 40.7332C71.753 41.1043 71.329 41.3531 70.8596 41.4327C70.3902 41.5123 69.9079 41.417 69.504 41.165C69.1 40.9129 68.8025 40.5215 68.6677 40.0649C68.5329 39.6083 68.5701 39.1181 68.7724 38.687C68.9746 38.256 69.3278 37.9141 69.7652 37.7259C70.2025 37.5377 70.6937 37.5164 71.1457 37.666L73.9003 34.3129C72.1587 34.6088 70.4026 34.8127 68.6396 34.9237C68.5912 35.3571 68.3969 35.7612 68.0886 36.0697C67.7803 36.3782 67.3763 36.5727 66.9429 36.6214C66.5094 36.6701 66.0723 36.57 65.7033 36.3376C65.3342 36.1052 65.0551 35.7543 64.9118 35.3424C64.7684 34.9305 64.7693 34.4821 64.9143 34.0707C65.0593 33.6594 65.3398 33.3096 65.7098 33.0786C66.0798 32.8477 66.5172 32.7494 66.9504 32.7998C67.3837 32.8502 67.7869 33.0463 68.094 33.356C68.2802 33.5439 68.4263 33.7676 68.5235 34.0136C69.7451 33.9403 70.9645 33.8243 72.1698 33.6614C71.3568 32.7996 70.573 31.9112 69.8183 30.9965C69.4025 31.2159 68.9206 31.2754 68.4639 31.1637C68.0071 31.052 67.6071 30.7768 67.3395 30.3902C67.0718 30.0036 66.9551 29.5323 67.0113 29.0655C67.0675 28.5987 67.2928 28.1686 67.6446 27.8566C67.9964 27.5446 68.4503 27.3722 68.9205 27.3722C69.3907 27.3721 69.8447 27.5443 70.1966 27.8562C70.5484 28.1681 70.7739 28.5981 70.8302 29.065C70.8866 29.5318 70.7699 30.0031 70.5024 30.3898C71.3839 31.4586 72.3001 32.4969 73.263 33.4924C78.0878 32.7297 82.7726 31.2545 87.164 29.1153C84.9578 28.3421 82.7946 27.4511 80.6838 26.4463L65.9258 26.4443C62.0713 28.6274 58.0313 30.4655 53.853 31.937C53.8382 31.9796 53.8154 32.019 53.7859 32.0531L51.8334 34.2579C51.845 34.2758 51.8546 34.2949 51.862 34.3149C52.7252 37.9836 49.5859 40.5895 46.133 40.5976C46.133 40.5976 46.133 40.5976 46.1188 40.5834C46.065 40.6158 46.0026 40.6311 45.9399 40.6274C45.8772 40.6237 45.817 40.601 45.7675 40.5624C45.7179 40.5239 45.6811 40.4712 45.6621 40.4113C45.643 40.3515 45.6425 40.2872 45.6607 40.2271C46.2715 38.5414 46.7316 36.4404 47.9185 35.0458C48.853 33.9444 50.107 33.753 51.465 33.6614L51.4792 33.6757L52.6458 32.3585C51.0103 32.8946 49.3612 33.3615 47.6986 33.7591C47.6496 33.7797 47.597 33.7908 47.5439 33.7917C46.7947 33.9709 46.0428 34.1324 45.2881 34.2763C45.2632 34.3094 45.2338 34.3389 45.2006 34.3638C43.9491 35.3198 42.7934 36.395 41.7498 37.5744C41.7905 37.6151 41.8292 37.6537 41.8719 37.6965C42.1738 38.038 42.3429 38.4766 42.3483 38.9324C42.3538 39.3881 42.1952 39.8306 41.9016 40.1792C41.608 40.5278 41.1988 40.7593 40.7488 40.8314C40.2987 40.9034 39.8378 40.8114 39.4499 40.5719C39.0621 40.3325 38.7733 39.9617 38.6361 39.527C38.4989 39.0924 38.5225 38.6229 38.7026 38.2042C38.8827 37.7855 39.2073 37.4455 39.6171 37.2462C40.027 37.0468 40.4949 37.0014 40.9354 37.1183C41.7222 36.2223 42.5698 35.3815 43.4721 34.602C41.9574 34.8409 40.44 35.0132 38.9199 35.1191C38.8911 35.1182 38.8624 35.1141 38.8344 35.1069C38.7691 35.5602 38.5396 35.9737 38.1894 36.2689C37.8393 36.5641 37.393 36.7205 36.9352 36.7083C36.4773 36.6961 36.0399 36.5162 35.706 36.2027C35.3721 35.8893 35.165 35.4641 35.1239 35.008C35.0828 34.5518 35.2107 34.0965 35.4832 33.7284C35.7558 33.3604 36.154 33.1052 36.6022 33.0114C37.0505 32.9176 37.5176 32.9917 37.9149 33.2196C38.3121 33.4475 38.6118 33.8134 38.7571 34.2477C38.8082 34.2231 38.8634 34.2079 38.9199 34.203C41.1938 34.0445 43.4546 33.7344 45.6872 33.2746C44.5802 32.8979 43.5097 32.4216 42.4888 31.8515L42.4583 31.8821C42.112 32.1957 41.6632 32.3724 41.196 32.379C40.7289 32.3855 40.2753 32.2216 39.9203 31.9177C39.5654 31.6139 39.3333 31.1911 39.2677 30.7286C39.2021 30.266 39.3073 29.7953 39.5637 29.4048C39.8202 29.0142 40.2102 28.7305 40.6608 28.6068C41.1113 28.4832 41.5915 28.528 42.0114 28.7329C42.4313 28.9379 42.762 29.2889 42.9417 29.7201C43.1214 30.1514 43.1377 30.6334 42.9876 31.0759C44.4124 31.8617 45.932 32.4618 47.5093 32.8613C49.8196 32.3082 52.0961 31.6223 54.3274 30.8071C52.5332 29.8693 50.8127 28.7967 49.1807 27.5986C49.1291 27.5865 49.0803 27.5643 49.0373 27.5332C48.9943 27.502 48.958 27.4627 48.9303 27.4174C48.4865 27.0957 48.0454 26.7713 47.607 26.4443L21.7637 26.4442L21.7657 45.7463C22.7506 48.2651 23.5415 50.8555 24.1314 53.4949C24.8806 52.0372 25.6094 50.5673 26.3179 49.0852L25.188 44.6083C24.7391 44.6814 24.2789 44.5897 23.8923 44.3503C23.5056 44.1109 23.2185 43.7398 23.0838 43.3054C22.9491 42.871 22.976 42.4026 23.1594 41.9864C23.3428 41.5702 23.6704 41.2344 24.0819 41.0407C24.4934 40.847 24.961 40.8085 25.3986 40.9324C25.8362 41.0562 26.2143 41.334 26.4633 41.7146C26.7122 42.0952 26.8152 42.553 26.7534 43.0035C26.6915 43.4541 26.4689 43.8671 26.1265 44.1665C26.1 44.193 26.0654 44.2072 26.0369 44.2317L26.9307 47.7639C27.1424 47.3038 27.3603 46.8457 27.5781 46.3754C27.3442 45.9748 27.2642 45.5027 27.353 45.0474C27.4419 44.5921 27.6935 44.1847 28.0609 43.9014C28.4283 43.6181 28.8862 43.4783 29.3491 43.5081C29.8121 43.5378 30.2484 43.7352 30.5764 44.0632C30.9044 44.3912 31.1018 44.8275 31.1315 45.2905C31.1613 45.7534 31.0215 46.2114 30.7382 46.5787C30.4549 46.9461 30.0475 47.1977 29.5922 47.2866C29.1369 47.3754 28.6648 47.2954 28.2642 47.0615C27.9357 47.7754 27.6046 48.488 27.2707 49.1992C27.2779 49.2722 27.2654 49.3458 27.2346 49.4123C27.2039 49.4789 27.1558 49.5361 27.0956 49.5779C26.9388 49.9097 26.776 50.2354 26.6131 50.5652C27.5162 50.3366 28.3935 50.016 29.2312 49.6084C29.3202 49.1585 29.5697 48.7562 29.9332 48.4765C30.2966 48.1968 30.7493 48.0586 31.207 48.0878C31.6647 48.1169 32.0963 48.3113 32.4213 48.6349C32.7464 48.9584 32.9428 49.3891 32.9741 49.8466C33.0053 50.3042 32.8693 50.7575 32.5913 51.1223C32.3132 51.487 31.9121 51.7384 31.4626 51.8295C31.0132 51.9206 30.5459 51.8453 30.1477 51.6176C29.7496 51.3899 29.4478 51.0253 29.2984 50.5917C28.3067 51.0431 27.2682 51.3838 26.2019 51.6076C26.1708 51.6117 26.1393 51.6117 26.1082 51.6076C24.8473 54.166 23.5199 56.6892 22.126 59.177C22.6766 59.1267 23.2229 59.0375 23.7609 58.9103C23.9115 57.5992 24.3105 56.2026 25.5992 55.5816C26.215 55.3359 26.8776 55.2295 27.5394 55.2701C29.1457 55.2477 30.3978 55.2294 31.8656 54.5271C31.9077 54.5058 31.954 54.4941 32.0011 54.4927C32.0483 54.4913 32.0951 54.5003 32.1384 54.5189C32.1822 54.5247 32.2242 54.54 32.2614 54.5638C32.2986 54.5876 32.3301 54.6192 32.3538 54.6565C32.3774 54.6937 32.3927 54.7357 32.3984 54.7795C32.4041 54.8232 32.4001 54.8677 32.3868 54.9098C31.5949 57.6521 26.4909 63.9206 23.8606 59.5638C23.1767 59.7286 22.4799 59.8342 21.7779 59.8793L21.7779 74.3381C23.045 75.8342 24.1466 77.4629 25.0638 79.1957C26.4245 76.835 27.6342 74.3904 28.6856 71.8767C28.1232 70.0313 27.6765 68.1526 27.3481 66.2516C26.8984 66.3238 26.4379 66.231 26.0512 65.9905C25.6645 65.7499 25.3777 65.3778 25.2437 64.9425C25.1097 64.5073 25.1375 64.0383 25.3219 63.6219C25.5063 63.2056 25.8349 62.8698 26.2473 62.6766C26.6596 62.4833 27.1279 62.4455 27.5659 62.5702C28.0039 62.6949 28.3821 62.9736 28.6309 63.355C28.8796 63.7365 28.9822 64.195 28.9197 64.6461C28.8572 65.0971 28.6338 65.5104 28.2907 65.8098C28.2645 65.8302 28.2373 65.8492 28.2092 65.8669C28.473 67.4297 28.8182 68.9777 29.2435 70.5046C29.7219 69.2851 30.1677 68.0534 30.5749 66.7993C30.5749 66.7993 30.5892 66.785 30.5953 66.7789C30.3244 66.6715 30.0824 66.502 29.8888 66.2842C29.6032 65.9642 29.4339 65.5572 29.4082 65.129C29.3826 64.7009 29.5021 64.2765 29.7475 63.9247C29.9929 63.5729 30.3497 63.3142 30.7604 63.1903C31.1711 63.0664 31.6115 63.0847 32.0105 63.2421C32.4095 63.3996 32.7437 63.687 32.9591 64.0579C33.1745 64.4289 33.2585 64.8616 33.1975 65.2862C33.1364 65.7108 32.934 66.1024 32.6228 66.3976C32.3117 66.6929 31.9101 66.8746 31.4829 66.9133C31.4828 66.9551 31.4781 66.9967 31.4687 67.0375C31.2841 67.6021 31.0934 68.162 30.8966 68.7171C31.7747 68.3252 32.6214 67.8665 33.4292 67.3449C33.3572 66.986 33.416 66.6132 33.595 66.294C33.7741 65.9748 34.0615 65.7302 34.4053 65.6046C34.7491 65.479 35.1265 65.4807 35.4692 65.6093C35.8119 65.738 36.0972 65.985 36.2734 66.3058C36.4496 66.6266 36.5052 66.9999 36.43 67.3581C36.3547 67.7163 36.1537 68.0357 35.8633 68.2585C35.5729 68.4813 35.2123 68.5928 34.8469 68.5727C34.4814 68.5527 34.1352 68.4024 33.871 68.1491C32.8076 68.8312 31.6822 69.4113 30.5097 69.8816C30.5097 69.8816 30.4874 69.8836 30.4752 69.8877C30.2132 70.5894 29.939 71.287 29.6526 71.9806C29.6526 72.0337 29.6413 72.0861 29.6195 72.1345C29.5978 72.183 29.566 72.2262 29.5264 72.2615C28.8152 73.9527 28.0369 75.6092 27.1913 77.2311C27.8074 76.8664 28.4444 76.538 29.0989 76.2477C29.0961 76.1929 29.1051 76.138 29.1254 76.0869C29.9784 74.1671 31.2875 72.3572 33.4536 71.8645C36.0555 71.2741 37.8552 73.591 40.3124 73.8129C40.6891 73.8434 40.7237 74.391 40.4061 74.4562C37.6048 77.8724 32.4601 81.0708 28.7813 77.1232C28.0187 77.496 27.2821 77.9198 26.5764 78.3915C26.2344 79.0145 25.8843 79.6293 25.5219 80.2401C25.5259 80.3371 25.5017 80.4332 25.4522 80.5167C25.4027 80.6002 25.33 80.6675 25.2429 80.7104C24.1734 82.4884 23.0198 84.2148 21.782 85.8897L21.7799 86.9218C22.0792 86.8872 22.3765 86.8669 22.6696 86.8465L22.6981 86.8425L22.7103 86.8302C23.7262 85.3502 25.2491 84.035 27.1709 84.3118C29.2516 84.6091 30.4487 86.6857 32.3481 87.3921C32.4015 87.4139 32.4487 87.4482 32.486 87.4922C32.5232 87.5361 32.5492 87.5884 32.5618 87.6446C32.5744 87.7008 32.5732 87.7592 32.5584 87.8149C32.5435 87.8705 32.5153 87.9218 32.4764 87.9642C32.4886 88.0271 32.4813 88.0921 32.4555 88.1507C32.4297 88.2093 32.3865 88.2586 32.3319 88.292C30.6645 89.369 28.8363 90.3299 26.7861 90.0754C25.9435 89.9632 25.1336 89.6757 24.4089 89.2314C23.6841 88.7871 23.0604 88.1959 22.578 87.4959C22.3093 87.5082 22.0385 87.5346 21.7738 87.5713L21.7718 94.7396C22.6554 95.8082 23.461 96.939 24.1823 98.1232C24.4877 98.6321 23.6875 99.0821 23.3822 98.5772C22.8892 97.7603 22.3517 96.9712 21.7718 96.2135L21.7738 105.458L20.2327 107L20.2367 94.3161C18.9399 92.8483 17.5331 91.4862 16.0917 90.1426C16.0501 90.1644 16.0042 90.177 15.9573 90.1792C15.5298 90.1996 15.1084 90.2464 14.687 90.3014C13.7158 93.9965 8.35337 95.503 5.37082 93.3796C5.32778 93.353 5.29154 93.3168 5.26496 93.2737C5.20518 93.2537 5.15236 93.217 5.11274 93.1679C5.07311 93.1189 5.04833 93.0595 5.04128 92.9969C5.03422 92.9342 5.04516 92.8709 5.07289 92.8143C5.10062 92.7576 5.14397 92.7101 5.19779 92.6772C6.98324 91.6695 7.7935 89.373 9.71536 88.6849C11.2158 88.1495 12.759 88.7724 14.0416 89.542C14.0752 89.5605 14.1047 89.5855 14.1285 89.6156C14.1523 89.6456 14.1697 89.6802 14.18 89.7171C14.6014 89.6499 15.029 89.597 15.4606 89.5644C14.6137 88.7826 13.7647 88.0029 12.9259 87.213C11.3317 85.7144 9.84712 84.1033 8.48364 82.392C8.41912 82.3801 8.35839 82.3528 8.30652 82.3126C6.44981 80.9988 4.63789 79.6266 2.87075 78.1961C2.83888 78.232 2.80489 78.266 2.76896 78.2979C2.47563 78.5603 2.09864 78.7101 1.7052 78.7205C1.31175 78.7309 0.927429 78.6012 0.620645 78.3546C0.313864 78.1081 0.104537 77.7607 0.0300499 77.3742C-0.0444348 76.9877 0.0207026 76.5873 0.213878 76.2444C0.407048 75.9015 0.715726 75.6383 1.08485 75.5017C1.45399 75.3651 1.85961 75.3641 2.22946 75.4987C2.59932 75.6333 2.90937 75.8948 3.10437 76.2367C3.29938 76.5786 3.36665 76.9786 3.29423 77.3655C4.43704 78.2884 5.59543 79.1876 6.76945 80.063C5.45745 78.1339 4.33132 76.0848 3.40619 73.9432C2.95937 74.0435 2.49131 73.9773 2.08984 73.757C1.68837 73.5367 1.38112 73.1774 1.22574 72.7467C1.07035 72.3159 1.07751 71.8432 1.24591 71.4174C1.41432 70.9915 1.73235 70.6418 2.14034 70.4338C2.54832 70.2258 3.01823 70.1738 3.46179 70.2877C3.90536 70.4016 4.29208 70.6734 4.54942 71.0522C4.80676 71.431 4.91702 71.8907 4.85946 72.345C4.80191 72.7993 4.58051 73.217 4.23684 73.5197L4.22257 73.534C5.01633 75.3699 5.96437 77.1352 7.0565 78.8109C7.31866 77.7516 7.47283 76.6684 7.51663 75.578C7.13959 75.301 6.87638 74.8962 6.77633 74.4392C6.67627 73.9823 6.74622 73.5045 6.97304 73.0953C7.19987 72.6862 7.56803 72.3738 8.00862 72.2165C8.4492 72.0593 8.93199 72.068 9.36661 72.241C9.80123 72.4141 10.1579 72.7396 10.3698 73.1567C10.5817 73.5737 10.6343 74.0537 10.5178 74.5068C10.4013 74.9599 10.1237 75.355 9.73687 75.6181C9.35009 75.8812 8.88068 75.9943 8.4165 75.9363C8.34447 77.2315 8.12452 78.5143 7.76095 79.7596C7.75334 79.7759 7.74446 79.7916 7.73445 79.8065C9.39569 82.1534 11.275 84.3381 13.3473 86.3314C13.3881 85.8388 13.4227 85.344 13.4451 84.8493C13.4168 84.8291 13.392 84.8043 13.3718 84.776C13.3209 84.7705 13.2724 84.7515 13.2313 84.721C11.9935 83.8008 10.6071 82.1661 10.7659 80.5048C10.8738 79.8129 11.1704 79.1641 11.623 78.6297C12.4414 77.51 13.1356 76.6041 13.4003 75.1993C13.4756 74.8023 14.0579 74.9489 14.0334 75.3194C15.4891 76.7954 16.7025 78.6318 16.6475 80.7837C16.6426 81.6159 16.4002 82.4293 15.9486 83.1283C15.497 83.8273 14.8552 84.3827 14.0986 84.7292C14.066 85.4621 14.0212 86.195 13.9561 86.9279C14.1821 87.1539 14.4223 87.3697 14.6585 87.5855C15.5298 88.3876 16.4012 89.1816 17.2522 89.9878C18.2884 88.8254 19.2779 87.6364 20.2246 86.4128L20.2225 73.8699C17.983 71.2233 15.5135 68.6967 13.5937 65.8404C13.5418 65.8514 13.4879 65.8493 13.4369 65.8343C12.1915 65.4475 10.9834 64.9494 9.82734 64.3461C9.80796 64.3738 9.78382 64.398 9.75606 64.4173C8.10294 65.423 6.70228 65.6755 5.06137 64.4784C3.04178 63.0044 1.59428 60.5268 0.604838 58.2914C0.575495 58.2263 0.567201 58.1537 0.581134 58.0837C0.595062 58.0137 0.630508 57.9498 0.682535 57.9009C0.73456 57.852 0.800569 57.8206 0.871313 57.811C0.942061 57.8015 1.01403 57.8142 1.07716 57.8476C3.26776 58.0756 5.44821 57.6541 7.42911 58.8533C8.29352 59.3817 9.02606 60.1003 9.5711 60.9544C10.1161 61.8085 10.4593 62.7755 10.5745 63.7821C10.5817 63.8495 10.5689 63.9174 10.5378 63.9776C11.3554 64.3783 12.198 64.7257 13.0603 65.0179C11.2423 62.0874 9.72857 58.9788 8.5427 55.7404C8.48171 55.7275 8.42413 55.7018 8.37373 55.6651C6.48638 54.2857 4.7612 52.6971 3.23112 50.9297C3.2076 50.8988 3.18781 50.8653 3.1721 50.8299C2.77548 51.0766 2.30196 51.1689 1.84173 51.089C1.38149 51.0092 0.966654 50.763 0.676248 50.3971C0.385842 50.0313 0.240115 49.5714 0.266832 49.1051C0.29355 48.6388 0.490876 48.1985 0.821171 47.8682C1.15146 47.5379 1.59167 47.3406 2.05801 47.3139C2.52435 47.2872 2.98421 47.4329 3.35007 47.7233C3.71592 48.0137 3.96217 48.4286 4.04197 48.8888C4.12177 49.349 4.02958 49.8225 3.78286 50.2191C3.81407 50.237 3.84278 50.259 3.86833 50.2843C5.12177 51.7267 6.50971 53.0465 8.01336 54.2258C7.47725 52.6283 7.01783 51.007 6.63509 49.3621C6.18482 49.4221 5.72799 49.3183 5.34783 49.0697C4.96766 48.821 4.68949 48.4441 4.56401 48.0075C4.43853 47.5709 4.47409 47.1038 4.66421 46.6913C4.85433 46.2787 5.18633 45.9482 5.59974 45.76C6.01317 45.5718 6.48047 45.5383 6.91647 45.6658C7.35246 45.7933 7.72816 46.0732 7.97504 46.4545C8.22192 46.8358 8.32354 47.2932 8.26145 47.7432C8.19935 48.1931 7.97767 48.6058 7.63675 48.906C7.5919 48.9435 7.54424 48.9775 7.49422 49.0078C7.74056 50.0685 8.01541 51.121 8.32487 52.1593C8.99327 50.4671 9.52564 48.7244 9.91691 46.9475C9.51599 46.8258 9.16681 46.5745 8.92417 46.2329C8.68152 45.8913 8.55917 45.4789 8.57626 45.0602C8.59336 44.6416 8.74896 44.2405 9.01864 43.9198C9.28834 43.5992 9.65686 43.3771 10.0664 43.2886C10.4759 43.2 10.9032 43.2499 11.2813 43.4304C11.6594 43.6109 11.9669 43.9119 12.1554 44.286C12.344 44.6602 12.4031 45.0863 12.3233 45.4976C12.2435 45.909 12.0294 46.2821 11.7146 46.5586C11.4684 46.7737 11.17 46.9205 10.8493 46.9842C10.3672 49.2155 9.67116 51.3951 8.77073 53.4928C8.76343 53.5018 8.75522 53.51 8.74628 53.5173C9.62747 56.224 10.7341 58.852 12.0546 61.3737C12.6428 60.6622 13.1635 59.8975 13.61 59.0894C13.5395 59.0669 13.4805 59.018 13.4451 58.9531C12.6165 57.5381 11.739 55.9603 12.0668 54.2563C12.4699 52.1756 14.5384 51.0274 15.6927 49.4089C15.7083 49.3446 15.7421 49.2863 15.7901 49.2408C15.8381 49.1954 15.8982 49.1648 15.9632 49.1528C16.0282 49.1407 16.0952 49.1477 16.1563 49.1729C16.2174 49.1982 16.2699 49.2405 16.3075 49.2949C17.6227 51.2371 18.6325 53.0775 18.0889 55.4615C17.6267 57.5239 16.5539 59.3134 14.3124 59.1688C13.7765 60.1756 13.1335 61.1217 12.3946 61.9905C13.042 63.1876 13.7321 64.3664 14.4793 65.5126C14.9537 66.2353 15.4667 66.9316 16.0021 67.6177C17.4707 65.3348 18.8829 63.0254 20.2388 60.6896V44.4027C19.4421 42.5337 18.5531 40.7083 17.5718 38.9262C17.0791 38.743 16.5885 38.5577 16.0999 38.3622C16.1152 38.428 16.1106 38.4967 16.0866 38.5598C16.0627 38.6229 16.0205 38.6774 15.9655 38.7165C11.9365 41.6665 9.1677 36.9636 7.80571 33.7571C7.66116 33.4131 8.0948 33.1179 8.30857 33.3357C9.83954 33.185 11.4825 33.0608 12.8873 33.81C14.292 34.5592 15.2733 36.1065 15.9838 37.5173C15.9978 37.5513 16.0073 37.5869 16.0123 37.6232C16.3604 37.7637 16.7066 37.9103 17.0669 38.0345C15.5169 35.3294 13.7944 32.727 11.91 30.2432C11.8314 30.2685 11.7469 30.2692 11.6678 30.2452C10.4832 29.8964 9.32796 29.4546 8.2129 28.9239C8.08476 29.3214 7.82866 29.6653 7.48459 29.902C7.14052 30.1387 6.7278 30.2549 6.31079 30.2324C5.89377 30.2099 5.4959 30.0501 5.17925 29.7778C4.86259 29.5055 4.64494 29.1361 4.56024 28.7272C4.47554 28.3183 4.52855 27.8928 4.711 27.5171C4.89346 27.1415 5.19508 26.8368 5.56886 26.6505C5.94264 26.4642 6.36756 26.4069 6.77734 26.4874C7.18712 26.568 7.55873 26.7819 7.83421 27.0957C8.05316 27.3436 8.20091 27.6461 8.26175 27.9712C8.31443 27.9756 8.36602 27.9886 8.41445 28.0098C9.25618 28.4207 10.1232 28.7777 11.0102 29.0787C10.1986 28.0417 9.36248 27.0279 8.50198 26.0371C8.08436 26.223 7.61321 26.2498 7.17717 26.1126C6.74113 25.9754 6.37024 25.6835 6.13434 25.292C5.89844 24.9004 5.81377 24.4362 5.89624 23.9865C5.97872 23.5369 6.22267 23.1329 6.58219 22.8506C6.94171 22.5683 7.392 22.4271 7.84836 22.4535C8.30472 22.48 8.73566 22.6723 9.06012 22.9943C9.38459 23.3163 9.58018 23.7458 9.61012 24.202C9.64006 24.6581 9.50227 25.1095 9.22268 25.4711C10.7699 27.2667 12.2521 29.1316 13.6487 31.0616C15.1735 28.8323 14.9129 26.1938 14.4467 23.6673C13.9969 23.7328 13.5385 23.6342 13.1555 23.3894C12.7725 23.1446 12.4904 22.7701 12.3609 22.3344C12.2314 21.8987 12.2631 21.4309 12.4503 21.0167C12.6374 20.6024 12.9675 20.2694 13.3801 20.0786C13.7926 19.8878 14.2601 19.8519 14.697 19.9775C15.1338 20.1032 15.5108 20.3819 15.759 20.7628C16.0071 21.1436 16.1098 21.6011 16.0483 22.0515C15.9868 22.5019 15.7652 22.915 15.424 23.2154C15.387 23.2455 15.3482 23.2733 15.3079 23.2988C15.8352 26.1185 16.1446 29.1031 14.4019 31.5828C14.3426 31.6635 14.2581 31.7223 14.1617 31.7497C16.4958 35.0324 18.5361 38.5143 20.2591 42.1551L20.2591 24.9153L45.5772 24.9153C44.0849 23.8017 42.5682 22.7206 40.9863 21.7414C38.6141 20.319 36.0247 19.295 33.3213 18.71C31.7839 18.9679 30.2918 19.4465 28.8912 20.131C28.9536 20.5814 28.8518 21.0392 28.6045 21.4208C28.3573 21.8024 27.981 22.0824 27.5444 22.2095C27.1079 22.3367 26.6401 22.3026 26.2266 22.1135C25.8131 21.9243 25.4814 21.5928 25.2921 21.1794C25.1028 20.766 25.0685 20.2982 25.1955 19.8616C25.3225 19.425 25.6022 19.0486 25.9837 18.8012C26.3652 18.5538 26.823 18.4518 27.2734 18.5139C27.7239 18.5761 28.1369 18.7981 28.4372 19.1396C28.4779 19.1803 28.5044 19.2352 28.539 19.2821C29.3727 18.8785 30.2381 18.5442 31.1266 18.2825C28.73 17.9107 26.3155 17.6654 23.8932 17.5475C23.6543 17.9377 23.2814 18.2274 22.8443 18.3624C22.4072 18.4974 21.9359 18.4684 21.5186 18.2808C21.1014 18.0932 20.7669 17.7599 20.5777 17.3433C20.3886 16.9268 20.3578 16.4556 20.4912 16.018C20.6245 15.5803 20.9129 15.2064 21.3022 14.9661C21.6915 14.7258 22.155 14.6357 22.606 14.7127C23.0569 14.7897 23.4643 15.0285 23.7519 15.3843C24.0394 15.7401 24.1874 16.1885 24.168 16.6456C25.815 16.7454 27.4661 16.8614 29.1009 17.0467C27.845 15.8769 26.6905 14.6026 25.6501 13.2376C25.2496 13.4786 24.7747 13.5647 24.315 13.4797C23.8553 13.3947 23.4426 13.1445 23.1546 12.7762C22.8667 12.4079 22.7235 11.947 22.752 11.4804C22.7804 11.0137 22.9786 10.5737 23.3092 10.2431C23.6398 9.91256 24.0798 9.71437 24.5464 9.6859C25.013 9.65743 25.474 9.80064 25.8423 10.0886C26.2106 10.3765 26.4608 10.7892 26.5458 11.2489C26.6308 11.7086 26.5446 12.1835 26.3036 12.5841C27.5777 14.277 29.0347 15.8241 30.6482 17.1973C30.6665 17.2157 30.6807 17.2299 30.6991 17.2482C33.8771 17.7104 36.9838 18.5084 39.8849 20.0496C40.1211 20.1758 40.3573 20.3102 40.5914 20.4425C40.2819 19.753 39.9413 19.0853 39.5694 18.4392C39.5549 18.4184 39.5433 18.3958 39.5348 18.372C39.5042 18.3415 39.4879 18.2967 39.4676 18.2601C38.6555 18.2811 37.8497 18.1119 37.1148 17.7658C36.3798 17.4197 35.7361 16.9064 35.235 16.2669C33.6409 14.2657 33.9097 11.8918 33.4658 9.54245C33.4522 9.47265 33.461 9.40032 33.4909 9.33582C33.5209 9.27132 33.5705 9.21797 33.6327 9.18339C33.6948 9.14882 33.7663 9.1348 33.8369 9.14335C33.9075 9.15189 33.9736 9.18255 34.0257 9.23096C34.0781 9.23358 34.1288 9.25048 34.1723 9.27982C36.6316 10.8922 43.5882 14.5222 40.2371 18.3089C40.7208 19.1787 41.1531 20.076 41.5319 20.9963C43.4701 22.1811 45.2942 23.537 47.1061 24.9051L48.4458 24.9051C47.2609 24.4247 46.4893 23.4983 46.0658 22.1872C45.3981 20.1229 46.4201 18.4697 46.1452 16.4278C46.1353 16.3595 46.1463 16.2899 46.1768 16.2281C46.2074 16.1662 46.256 16.1152 46.3163 16.0817C46.3344 16.0295 46.3653 15.9828 46.4061 15.9456C46.447 15.9085 46.4965 15.8821 46.5501 15.869C46.6037 15.8558 46.6597 15.8563 46.7131 15.8703C46.7665 15.8844 46.8155 15.9115 46.8557 15.9494C48.1567 17.177 49.5574 18.3537 50.7728 19.6668C51.4833 20.4384 52.0106 21.3118 51.9108 22.3969C51.7729 23.362 51.3053 24.2496 50.5875 24.9092L66.8032 24.9072C68.6382 23.8295 70.4094 22.6949 72.1168 21.5032C70.7121 20.5463 69.3467 19.5366 68.0207 18.4738C67.0597 18.6204 66.0886 18.826 65.1257 18.9787C64.0568 20.4954 62.3223 21.8025 60.4024 21.6335C59.5657 21.5622 58.957 21.1327 58.3523 20.5809C57.1715 19.5101 56.1088 18.2723 55.0013 17.124C54.9528 17.0724 54.9223 17.0066 54.914 16.9363C54.9057 16.8661 54.9201 16.795 54.9552 16.7335C54.9902 16.672 55.0441 16.6234 55.1088 16.5947C55.1735 16.5661 55.2457 16.5589 55.3148 16.5743C56.6279 16.7759 57.4748 15.8842 58.5844 15.4628C59.3131 15.1788 60.1034 15.0903 60.8768 15.2063C62.6257 15.4587 64.2105 16.3743 65.3028 17.7633C65.3379 17.8057 65.3619 17.8563 65.3725 17.9103C65.3832 17.9643 65.3802 18.0201 65.3639 18.0727C65.3966 18.0958 65.4245 18.1251 65.4458 18.159C65.4671 18.1929 65.4815 18.2307 65.488 18.2702C66.1049 18.1583 66.7218 18.0341 67.3305 17.9262C64.0767 15.2464 61.0891 12.2588 58.4093 9.00499C58.3154 9.05254 58.2067 9.06203 58.106 9.03146C56.7841 8.60576 55.4298 8.2878 54.0566 8.08071C53.9731 8.40992 53.803 8.71078 53.5639 8.95206C53.261 9.25882 52.8645 9.45594 52.437 9.51232C52.0096 9.56869 51.5755 9.48108 51.2034 9.26336C50.8312 9.04564 50.5422 8.71019 50.3819 8.30995C50.2216 7.90971 50.1991 7.46746 50.3181 7.05304C50.437 6.63862 50.6906 6.27562 51.0387 6.02133C51.3869 5.76703 51.8099 5.63592 52.2408 5.6487C52.6718 5.66149 53.0862 5.81743 53.4187 6.09192C53.7512 6.36641 53.9828 6.74382 54.077 7.16456C55.2414 7.31901 56.3913 7.56752 57.5156 7.90765C56.459 6.56601 55.4471 5.18772 54.4923 3.75651C54.0435 3.88421 53.5636 3.84364 53.1426 3.64242C52.7216 3.4412 52.3886 3.09317 52.2061 2.66373C52.0237 2.2343 52.0043 1.75303 52.1516 1.31031C52.299 0.867599 52.6029 0.493925 53.0064 0.25951C53.4098 0.0250963 53.885 -0.0539298 54.3426 0.0372789C54.8002 0.128488 55.2087 0.383658 55.4914 0.75484C55.7741 1.12602 55.9116 1.58767 55.8779 2.05304C55.8443 2.51842 55.6419 2.95551 55.3087 3.28216L55.2883 3.30252C56.7587 5.498 58.3619 7.60158 60.0889 9.60149C59.9179 8.05423 59.7693 6.50086 59.6634 4.94545C59.4416 4.84985 59.2398 4.71309 59.0689 4.54237C58.7507 4.23038 58.5488 3.81889 58.4968 3.37628C58.4448 2.93367 58.5458 2.4866 58.783 2.10933C59.0202 1.73207 59.3794 1.44733 59.8008 1.30243C60.2223 1.15754 60.6806 1.16119 61.0997 1.31282C61.5188 1.46444 61.8733 1.7549 62.1045 2.13592C62.3356 2.51693 62.4295 2.96557 62.3704 3.40728C62.3113 3.849 62.1028 4.25721 61.7796 4.56407C61.4564 4.87092 61.038 5.05795 60.5938 5.09408C60.7241 6.9888 60.9039 8.87741 61.1333 10.7599C63.9207 13.8342 66.9983 16.6322 70.3232 19.1151C70.2947 18.6469 70.254 18.1827 70.2153 17.7165C70.1777 17.7069 70.1414 17.6925 70.1074 17.6737C68.719 16.7657 67.5402 15.4322 67.245 13.7486C66.8785 11.672 68.2283 9.69107 68.607 7.70406C68.6803 7.32946 69.2463 7.42312 69.2524 7.78754C69.3012 10.4993 72.0374 11.1101 72.6176 13.4656C73.0248 15.0943 72.0761 16.5112 71.0093 17.631C70.974 17.6673 70.9308 17.6952 70.8831 17.7124C70.9347 18.3232 70.9774 18.936 71.0114 19.5508C71.0111 19.5709 71.0077 19.5908 71.0012 19.6098C73.7415 21.6017 76.6346 23.3744 79.6536 24.9112L80.9037 24.9112C80.7571 24.6506 80.6186 24.3819 80.4965 24.0969C80.4607 24.1424 80.412 24.1761 80.3568 24.1935C80.3016 24.2109 80.2425 24.2113 80.187 24.1946C74.6495 22.8957 77.63 17.5658 77.2737 13.6997C77.2682 13.6385 77.2825 13.5772 77.3144 13.5246C77.3022 13.4717 77.288 13.4208 77.2778 13.3658C77.2045 12.9546 77.8356 12.7836 77.9191 13.1928C78.3914 15.762 81.4635 16.5214 82.2881 18.9787C82.5712 19.8262 82.6485 20.7289 82.5136 21.6122C82.3788 22.4954 82.0356 23.3339 81.5124 24.0582C81.4866 24.0973 81.4527 24.1305 81.413 24.1554C81.3733 24.1803 81.3288 24.1965 81.2823 24.2028C81.4024 24.441 81.5348 24.671 81.6732 24.899L94.2956 24.899C96.07 23.6293 97.7593 22.2447 99.3527 20.754C99.7456 20.3652 100.397 21.0126 99.9635 21.4177ZM76.95 39.032C76.6589 40.1009 76.834 41.184 76.7607 42.2711C79.9264 41.4466 82.5588 38.6228 81.547 35.3064C80.9078 36.5158 80.1057 37.6317 79.163 38.6228C79.1 38.675 79.0199 38.7018 78.9383 38.6979C78.8566 38.6941 78.7793 38.6599 78.7215 38.6021C78.6637 38.5443 78.6296 38.4671 78.6258 38.3854C78.6219 38.3038 78.6487 38.2236 78.7008 38.1607C79.6042 37.2111 80.3715 36.1409 80.981 34.9807C79.1304 35.7319 77.5017 37.0226 76.95 39.032ZM47.6009 36.8577C47.151 37.8492 46.8069 38.914 46.4506 39.9421C49.2113 39.7996 51.7439 37.8207 51.296 34.8809L49.3823 37.0389C49.1013 37.3565 48.6392 36.8903 48.9181 36.5748L50.8318 34.4167C50.1231 34.4942 49.4486 34.762 48.8798 35.1917C48.3109 35.6215 47.869 36.1972 47.6009 36.8577ZM39.6345 74.3402C38.1178 73.9757 36.9329 72.9456 35.3938 72.5425C32.8225 71.8564 30.9882 73.8128 29.9377 75.8813C31.2629 75.3695 32.6408 75.0063 34.0461 74.7982C34.4573 74.7371 34.6242 75.3764 34.2191 75.4395C32.56 75.6832 30.9416 76.151 29.4083 76.83C32.6779 80.0793 37.0713 77.2779 39.6345 74.3402ZM27.287 89.4402C28.9482 89.4972 30.4202 88.7053 31.7883 87.8339C30.807 87.3779 30.0374 86.6775 29.1742 86.0016C27.116 84.3953 25.0414 84.8412 23.5349 86.7874C24.6599 86.7277 25.7873 86.727 26.9124 86.7854C27.3379 86.8037 27.3338 87.4634 26.9124 87.441C25.8578 87.384 24.8052 87.3697 23.7466 87.4186L23.3842 87.4308C23.8556 88.0227 24.4472 88.5079 25.12 88.8543C25.7927 89.2007 26.5313 89.4003 27.287 89.4402ZM8.38796 90.5335C7.56751 91.4598 6.94453 92.3027 5.94492 92.9765C8.52437 94.534 12.8995 93.4162 13.9418 90.4276C12.6802 90.6459 11.4497 91.0164 10.2773 91.531C9.89455 91.698 9.56674 91.13 9.95356 90.959C11.0267 90.4862 12.1455 90.1246 13.2924 89.8799C11.5578 88.9475 9.87618 88.858 8.38796 90.5335ZM15.935 79.8879C15.7131 78.3874 14.8742 77.1415 13.8624 76.0564C13.5531 76.9877 13.0756 77.8544 12.4536 78.6135C11.7431 79.5316 11.2015 80.3093 11.5802 81.5227C11.9487 82.5369 12.6071 83.4204 13.4736 84.0635C13.5245 82.5345 13.5184 81.0015 13.4329 79.4705C13.4125 79.043 14.066 79.0491 14.0884 79.4705C14.1719 80.975 14.178 82.4795 14.1271 83.9881C15.5705 83.188 16.1895 81.539 15.935 79.8879ZM6.34193 59.0365C4.77838 58.3972 3.08454 58.6293 1.45177 58.5153C2.87688 61.5691 5.58461 65.9055 9.1942 63.9775C7.68803 63.1216 6.29135 62.0859 5.03489 60.8932C4.97334 60.8317 4.93878 60.7482 4.93878 60.6611C4.93878 60.5741 4.97337 60.4906 5.03492 60.429C5.09648 60.3675 5.17992 60.3329 5.26697 60.3329C5.35402 60.3329 5.43752 60.3675 5.49908 60.429C6.82263 61.6852 8.30763 62.7594 9.91488 63.6233C9.54639 61.5813 8.31876 59.8488 6.34193 59.0365ZM16.7676 57.0923C17.2867 56.1874 17.5754 55.1687 17.6084 54.126C17.6227 52.5808 16.8531 51.2819 16.0265 50.04C15.2163 51.0539 14.1637 51.8417 13.4206 52.9065C12.079 54.8223 12.9015 56.683 13.9337 58.4807C14.4658 57.403 14.8677 56.2658 15.1308 55.093C15.2244 54.6818 15.8596 54.8487 15.7721 55.2661C15.5153 56.3905 15.1364 57.4834 14.6421 58.5255C15.6234 58.5092 16.222 58.0735 16.7636 57.0963L16.7676 57.0923ZM12.3742 34.2987C11.1934 33.7449 9.86803 33.8284 8.59765 33.9505C9.85582 36.7845 12.1034 40.6892 15.6072 38.1505C14.2737 37.6069 12.9565 37.0267 11.6596 36.3976C11.2789 36.2124 11.6026 35.6403 11.9854 35.8276C13.0094 36.3263 14.0457 36.7926 15.0962 37.2364C14.4386 36.0495 13.61 34.8829 12.3701 34.3027L12.3742 34.2987ZM29.4755 58.611C30.3768 57.6877 31.0806 56.5904 31.544 55.3862C30.7597 55.7102 29.9274 55.9028 29.0806 55.9563C28.366 55.9949 27.629 55.8524 26.9164 55.942C25.2796 56.1497 24.6587 57.2877 24.453 58.7393C25.0403 58.5625 25.6128 58.3399 26.1652 58.0735C26.5418 57.8883 26.8676 58.4543 26.4889 58.6416C25.8607 58.9461 25.2084 59.198 24.5385 59.3948C25.8456 61.109 28.2357 59.9119 29.4755 58.611ZM20.2408 92.9439L20.2388 88.0151C20.2059 88.0162 20.1732 88.0099 20.1431 87.9968C19.4292 88.8844 18.6935 89.7558 17.9362 90.6108C18.7139 91.36 19.4957 92.1418 20.2388 92.946L20.2408 92.9439ZM21.7861 84.3098C22.7484 82.9512 23.6611 81.5566 24.5243 80.1261C23.7679 78.5802 22.8515 77.1179 21.7901 75.7632L21.7861 84.3098ZM16.6516 68.2997C16.6356 68.3176 16.6186 68.3346 16.6007 68.3506C17.7652 69.7716 19.0193 71.1398 20.2408 72.5282L20.2388 62.4975C19.081 64.4587 17.8833 66.3948 16.6455 68.3058L16.6516 68.2997ZM21.782 57.9575C22.3602 56.907 22.9309 55.849 23.4942 54.7836C23.0605 52.6323 22.4886 50.5113 21.782 48.4337L21.782 57.9575ZM34.215 10.1003C34.7383 13.3556 34.952 17.4376 39.0624 17.6188C38.2166 16.2733 37.2394 15.0151 36.145 13.8626C36.0929 13.7996 36.0661 13.7195 36.07 13.6378C36.0738 13.5562 36.1079 13.4789 36.1657 13.4211C36.2235 13.3633 36.3008 13.3292 36.3825 13.3254C36.4641 13.3215 36.5442 13.3483 36.6072 13.4004C37.8571 14.7155 38.9565 16.1659 39.8849 17.7246C42.2791 14.6545 36.6194 11.5967 34.2049 10.0942L34.215 10.1003ZM64.8284 18.2377C63.4053 16.5092 61.0213 15.2449 58.7961 16.1265C57.7782 16.5255 56.9863 17.122 55.9765 17.236C56.9679 18.3333 57.9818 19.5956 59.1504 20.4099C60.9196 21.6457 62.9208 20.5972 64.1953 19.1192C62.76 19.2719 61.3389 19.2149 59.9566 18.5451C59.5759 18.3598 59.8976 17.7898 60.2783 17.975C61.7095 18.6693 63.216 18.6367 64.7266 18.4127L64.8284 18.2377ZM71.8888 13.6203C71.5977 12.4171 70.6205 11.8145 69.8346 10.9472C69.3797 10.4625 69.0346 9.88548 68.8228 9.25541C68.3871 10.4484 67.8456 11.6333 67.815 12.8243C67.7702 14.5181 68.8187 15.9493 70.138 16.9021C70.0341 15.8496 69.9079 14.7991 69.7451 13.7526C69.6799 13.3414 70.3212 13.1765 70.3864 13.5796C70.5547 14.6735 70.6931 15.7702 70.8017 16.8696C71.6262 15.9392 72.1983 14.911 71.8868 13.6223L71.8888 13.6203ZM80.0343 16.9734C79.2444 16.2771 78.4606 15.6969 77.9089 14.9131C77.6748 18.2621 75.871 22.4438 80.2298 23.5411C79.7527 22.3446 79.4053 21.1003 79.1935 19.8297C79.1223 19.4164 79.7534 19.2454 79.8348 19.6567C80.0564 21.0245 80.4433 22.3603 80.9871 23.6347C82.4591 21.4177 82.0417 18.7446 80.0323 16.9754L80.0343 16.9734ZM51.1901 21.5622C50.9275 20.7703 50.2923 20.1229 49.7121 19.5589C48.7552 18.6306 47.7739 17.7266 46.8028 16.8166C46.7723 17.6429 46.6625 18.4645 46.475 19.2699C46.133 21.2691 46.8354 23.5431 48.7512 24.3229C48.474 23.1126 48.1037 21.9255 47.6436 20.7723C47.4991 20.3794 48.1323 20.2145 48.2849 20.5993C48.7977 21.8809 49.1883 23.2081 49.4515 24.5631C49.5016 24.6048 49.536 24.6622 49.5492 24.726C50.7035 24.6914 51.4141 22.2422 51.1881 21.5643L51.1901 21.5622ZM49.6021 26.4565C49.6001 26.5562 49.5879 26.654 49.5818 26.7537C51.3342 28.058 53.1942 29.211 55.1418 30.2004C55.1915 30.223 55.236 30.2556 55.2724 30.2963C55.3089 30.3369 55.3364 30.3847 55.3535 30.4366C58.3269 29.2961 61.2245 27.9667 64.0283 26.4565L49.6021 26.4565ZM72.9169 22.0549C71.5095 23.0416 70.0559 23.9944 68.5561 24.9133L77.6788 24.9153C76.0488 24.029 74.4608 23.0763 72.9149 22.057L72.9169 22.0549ZM82.8886 26.4605C84.6517 27.2382 86.4521 27.9393 88.2898 28.5636C89.5398 27.9135 90.7579 27.2125 91.9442 26.4605L82.8886 26.4605Z" fill="#C3937C"/>
<path d="M58.9756 18.1499C58.914 18.2114 58.8305 18.246 58.7435 18.246C58.6564 18.246 58.5729 18.2114 58.5114 18.1499C58.4498 18.0883 58.4153 18.0049 58.4152 17.9178C58.4153 17.8308 58.4498 17.7473 58.5114 17.6857C58.5729 17.6242 58.6564 17.5896 58.7435 17.5896C58.8305 17.5896 58.914 17.6242 58.9755 17.6857C59.0371 17.7473 59.0717 17.8308 59.0717 17.9178C59.0717 18.0049 59.0371 18.0883 58.9756 18.1499Z" fill="#C3937C"/>
<path d="M69.5416 12.2703C69.6046 12.2182 69.6847 12.1914 69.7664 12.1952C69.848 12.1991 69.9253 12.2332 69.9831 12.291C70.0409 12.3488 70.075 12.4261 70.0788 12.5077C70.0827 12.5894 70.0559 12.6695 70.0038 12.7325C69.9408 12.7846 69.8607 12.8113 69.7791 12.8075C69.6974 12.8037 69.6201 12.7696 69.5623 12.7118C69.5045 12.654 69.4704 12.5767 69.4666 12.495C69.4627 12.4134 69.4895 12.3333 69.5416 12.2703Z" fill="#C3937C"/>
<path d="M78.8455 18.1704C78.705 17.7734 79.3402 17.6105 79.4868 17.9973L79.6741 18.5267C79.8146 18.9237 79.1814 19.0886 79.0348 18.7018L78.8455 18.1704Z" fill="#C3937C"/>
<path d="M78.5563 39.4942L78.1837 39.9889C78.1388 40.0621 78.0679 40.1157 77.9852 40.1387C77.9025 40.1617 77.8141 40.1526 77.7378 40.1131C77.7004 40.0917 77.6675 40.0632 77.6411 40.0291C77.6147 39.995 77.5953 39.9561 77.584 39.9145C77.5726 39.8729 77.5696 39.8295 77.575 39.7867C77.5805 39.7439 77.5943 39.7027 77.6157 39.6652L77.9842 39.1705C78.0299 39.0977 78.1013 39.0446 78.1843 39.022C78.2673 38.9994 78.3557 39.0088 78.4321 39.0483C78.5069 39.0917 78.5618 39.1627 78.585 39.246C78.6082 39.3293 78.5979 39.4184 78.5563 39.4942Z" fill="#C3937C"/>
<path d="M35.5343 12.5556L35.4142 12.4355C35.362 12.3725 35.3353 12.2924 35.3391 12.2107C35.3429 12.1291 35.3771 12.0518 35.4349 11.994C35.4927 11.9362 35.5699 11.9021 35.6516 11.8982C35.7332 11.8944 35.8134 11.9212 35.8763 11.9733L35.9964 12.0934C36.0486 12.1564 36.0753 12.2365 36.0715 12.3182C36.0677 12.3998 36.0335 12.4771 35.9757 12.5349C35.9179 12.5927 35.8407 12.6268 35.759 12.6307C35.6774 12.6345 35.5972 12.6077 35.5343 12.5556Z" fill="#C3937C"/>
<path d="M47.4728 19.7623C47.4711 19.6283 47.4362 19.4967 47.371 19.3796C47.3497 19.3421 47.3358 19.3009 47.3304 19.2581C47.325 19.2153 47.328 19.1719 47.3394 19.1303C47.3507 19.0887 47.3701 19.0498 47.3965 19.0157C47.4229 18.9816 47.4558 18.9531 47.4932 18.9317C47.5306 18.9103 47.5719 18.8965 47.6147 18.891C47.6574 18.8856 47.7009 18.8886 47.7424 18.9C47.784 18.9113 47.823 18.9308 47.8571 18.9572C47.8912 18.9836 47.9197 19.0164 47.9411 19.0538C48.0618 19.2713 48.1255 19.5157 48.1263 19.7644C48.1223 20.196 47.4769 20.1858 47.4728 19.7623Z" fill="#C3937C"/>
<path d="M48.914 37.7108L48.6819 38.0569C48.4499 38.407 47.888 38.0772 48.1139 37.7331L48.344 37.385C48.5781 37.0369 49.1482 37.3585 48.914 37.7108Z" fill="#C3937C"/>
<path d="M10.8435 35.8701C10.7051 35.7887 10.5687 35.7052 10.4302 35.6237C10.3928 35.6023 10.36 35.5738 10.3336 35.5397C10.3072 35.5056 10.2878 35.4667 10.2764 35.4251C10.2651 35.3835 10.262 35.3401 10.2675 35.2973C10.2729 35.2546 10.2867 35.2133 10.3081 35.1758C10.3295 35.1384 10.358 35.1056 10.3921 35.0792C10.4262 35.0528 10.4651 35.0334 10.5067 35.022C10.5483 35.0107 10.5917 35.0076 10.6345 35.0131C10.6773 35.0185 10.7185 35.0323 10.756 35.0537C10.8924 35.1372 11.0308 35.2186 11.1672 35.3021C11.2344 35.3489 11.2817 35.4192 11.2998 35.4991C11.3178 35.579 11.3054 35.6628 11.2648 35.7339C11.2243 35.8051 11.1586 35.8585 11.0806 35.8837C11.0026 35.9089 10.9181 35.9041 10.8435 35.8701Z" fill="#C3937C"/>
<path d="M4.15775 60.4023C4.01931 60.3209 3.88292 60.2374 3.74244 60.1539C3.67521 60.1071 3.62793 60.0368 3.60987 59.9569C3.59181 59.877 3.60426 59.7933 3.64482 59.7221C3.68539 59.6509 3.75109 59.5975 3.82905 59.5723C3.907 59.5471 3.99159 59.552 4.06614 59.5859C4.20457 59.6674 4.34299 59.7488 4.47939 59.8323C4.54813 59.8783 4.59697 59.9486 4.61611 60.0291C4.63526 60.1095 4.62327 60.1943 4.58262 60.2663C4.54197 60.3384 4.47566 60.3924 4.39688 60.4176C4.31809 60.4428 4.23268 60.4374 4.15775 60.4023Z" fill="#C3937C"/>
<path d="M15.2776 54.3395L15.4893 53.46C15.587 53.0488 16.2223 53.2157 16.1306 53.633L15.9189 54.5126C15.813 54.9157 15.1778 54.7487 15.2776 54.3395Z" fill="#C3937C"/>
<path d="M27.2077 57.6214L27.8714 57.1328C28.2114 56.8824 28.5331 57.4565 28.1971 57.7029L27.5314 58.1935C27.1833 58.4317 26.8596 57.8596 27.2077 57.6214Z" fill="#C3937C"/>
<path d="M13.551 78.1594C13.5554 78.0754 13.5919 77.9963 13.6529 77.9384C13.7139 77.8806 13.7948 77.8483 13.8789 77.8483C13.9629 77.8483 14.0438 77.8806 14.1048 77.9384C14.1658 77.9963 14.2022 78.0754 14.2066 78.1594L14.2066 78.3629C14.1987 78.4442 14.1606 78.5197 14.1 78.5745C14.0394 78.6293 13.9606 78.6595 13.8789 78.6592C13.7972 78.659 13.7186 78.6283 13.6583 78.5731C13.598 78.5179 13.5605 78.4423 13.5531 78.3609L13.551 78.1594Z" fill="#C3937C"/>
<path d="M9.18202 92.3413L8.71378 92.6874C8.37582 92.9358 8.05417 92.3657 8.38805 92.1173L8.85834 91.7733C9.19222 91.5167 9.5159 92.0888 9.18202 92.3413Z" fill="#C3937C"/>
<path d="M35.6912 74.5416L36.4974 74.4927C36.9229 74.4743 36.9168 75.1238 36.4974 75.1482L35.6891 75.1951C35.2718 75.2093 35.2759 74.5578 35.6912 74.5416Z" fill="#C3937C"/>
<path d="M27.9405 87.1254L28.8078 87.1783C29.2353 87.1987 29.2292 87.8604 28.8077 87.8339L27.9405 87.781C27.5211 87.7525 27.5191 87.0989 27.9405 87.1254Z" fill="#C3937C"/>
</svg>
