<svg width="16" height="16" viewBox="0 0 16 16" fill="none" xmlns="http://www.w3.org/2000/svg">
<path d="M2.4694 9.46975L7.4694 4.46975C7.53908 4.39983 7.62187 4.34436 7.71304 4.3065C7.8042 4.26865 7.90194 4.24916 8.00065 4.24916C8.09936 4.24916 8.1971 4.26865 8.28827 4.3065C8.37943 4.34436 8.46222 4.39983 8.5319 4.46975L13.5319 9.46975C13.6728 9.61065 13.752 9.80175 13.752 10.001C13.752 10.2003 13.6728 10.3914 13.5319 10.5323C13.391 10.6732 13.1999 10.7523 13.0007 10.7523C12.8014 10.7523 12.6103 10.6732 12.4694 10.5323L8.00003 6.06288L3.53065 10.5329C3.38976 10.6738 3.19866 10.7529 2.9994 10.7529C2.80015 10.7529 2.60905 10.6738 2.46815 10.5329C2.32726 10.392 2.2481 10.2009 2.2481 10.0016C2.2481 9.80237 2.32726 9.61128 2.46815 9.47038L2.4694 9.46975Z" fill="#C3937C"/>
</svg>
