<svg width="9" height="9" viewBox="0 0 9 9" fill="none" xmlns="http://www.w3.org/2000/svg">
<path d="M3.58278 0.58536C3.94523 -0.195095 5.05477 -0.195095 5.41722 0.58536L5.9821 1.80172C6.12946 2.11902 6.43034 2.33762 6.77764 2.37971L8.10903 2.54107C8.96329 2.64461 9.30615 3.69984 8.6759 4.28573L7.69363 5.19884C7.4374 5.43703 7.32247 5.79074 7.38976 6.13405L7.64772 7.45014C7.81323 8.29458 6.9156 8.94675 6.16363 8.52839L4.99167 7.87637C4.68595 7.70628 4.31404 7.70628 4.00833 7.87637L2.83637 8.52839C2.0844 8.94675 1.18677 8.29458 1.35228 7.45014L1.61024 6.13405C1.67753 5.79074 1.5626 5.43703 1.30637 5.19884L0.3241 4.28573C-0.306154 3.69984 0.0367136 2.64461 0.890973 2.54107L2.22236 2.37971C2.56966 2.33762 2.87054 2.11902 3.0179 1.80172L3.58278 0.58536Z" fill="#C3937C"/>
</svg>
