<svg width="13" height="12" viewBox="0 0 13 12" fill="none" xmlns="http://www.w3.org/2000/svg">
<path d="M8.96296 11.8649C9.71584 12.2931 10.6236 11.6389 10.4557 10.7892L9.9563 8.26337C9.88767 7.91627 10.0054 7.55853 10.2667 7.31997L12.1688 5.58338C12.8084 4.99944 12.4664 3.93414 11.6064 3.83159L9.05052 3.5268C8.69892 3.48487 8.39483 3.26218 8.24873 2.93964L7.18644 0.594481C6.82901 -0.194606 5.70982 -0.198836 5.34644 0.587527L4.267 2.9234C4.11849 3.24478 3.81279 3.46515 3.46094 3.50447L0.900752 3.79055C0.0401287 3.88672 -0.309785 4.94929 0.325304 5.538L2.21493 7.28965C2.4744 7.53017 2.58937 7.88875 2.51815 8.23531L2 10.7564C1.82564 11.6047 2.72846 12.2657 3.48454 11.8432L5.73084 10.588C6.03992 10.4153 6.41678 10.4168 6.72454 10.5918L8.96296 11.8649Z" fill="#C3937C"/>
<path d="M8.64634 7.05826C7.82111 6.61375 7.99181 5.38299 8.90687 5.17985L10.0991 4.91516C11.1108 4.69058 11.7658 5.95134 11.0006 6.65002L10.3758 7.22041C10.0583 7.51026 9.59234 7.56783 9.21386 7.36396L8.64634 7.05826Z" fill="#C3937C"/>
<path d="M5.399 7.06898C5.80072 6.45736 6.69883 6.46132 7.09514 7.07646L8.65165 9.4924C9.22463 10.3817 8.22058 11.4428 7.30097 10.9198L6.72446 10.5919C6.4167 10.4169 6.03983 10.4155 5.73076 10.5882L5.16338 10.9052C4.23925 11.4216 3.24305 10.3514 3.82422 9.46657L5.399 7.06898Z" fill="#C3937C"/>
<path d="M3.84199 7.04017C4.67196 6.60268 4.51105 5.36904 3.59663 5.15908L2.39853 4.884C1.38875 4.65216 0.724515 5.90772 1.48433 6.61206L2.10782 7.19002C2.42271 7.48192 2.88755 7.54326 3.26738 7.34305L3.84199 7.04017Z" fill="#C3937C"/>
<path d="M4.31866 2.8119C4.77432 1.82588 6.26366 2.15566 6.26047 3.24187C6.25779 4.15282 5.13631 4.6007 4.50686 3.9422C4.21961 3.6417 4.14428 3.18927 4.31866 2.8119Z" fill="#C3937C"/>
</svg>
