<svg width="114" height="56" viewBox="0 0 114 56" fill="none" xmlns="http://www.w3.org/2000/svg">
<path d="M0.917411 11.559C1.08347 11.8467 1.12274 11.9213 1.22702 12.1019C17.3237 39.9822 53.1637 49.5337 81.1193 33.3935C91.1394 27.6266 99.2197 19.0142 104.33 8.65447C105.368 6.54974 108.293 1.53206 108.293 1.53206C103.707 15.3176 94.2078 26.9488 81.6044 34.2102C53.1959 50.6119 16.7705 40.9056 0.411438 12.5709C0.307431 12.3907 0.204482 12.2103 0.102589 12.0295C-0.345886 11.2337 0.817879 11.0412 0.917411 11.559Z" fill="#C3937C"/>
<path d="M40.8509 23.9845C41.843 24.777 42.6641 25.7929 42.5615 27.1139C42.4773 28.2536 41.8933 29.2868 41.1481 30.1275C39.4117 32.0887 36.9144 32.9553 34.3861 33.3316C30.8175 33.8579 23.5963 32.1938 23.5583 32.1046C22.881 32.4534 22.5752 33.1094 21.8678 33.4027C21.5578 33.5318 20.9154 32.7522 21.2254 32.6231C23.4909 31.6962 25.6106 30.4465 27.5185 28.9131C29.2939 27.4757 30.7204 25.657 32.5244 24.2625C35.0337 22.3344 38.2827 21.9274 40.8509 23.9845ZM37.5392 23.1506C37.5434 23.1615 37.545 23.1733 37.544 23.185C37.5429 23.1966 37.5392 23.2079 37.5331 23.2179C37.527 23.2279 37.5186 23.2364 37.5087 23.2427C37.4988 23.249 37.4876 23.253 37.4759 23.2542C34.4957 23.4408 32.598 25.6122 30.7118 27.6504C31.1817 27.2986 31.6623 26.9655 32.1629 26.6535C34.4568 25.2338 37.0032 24.2703 39.6615 23.816C39.5021 23.7297 39.3369 23.6467 39.1678 23.5737C38.6518 23.3502 38.1046 23.2065 37.5449 23.1473L37.5392 23.1506ZM28.4941 32.1715C28.3609 32.1627 28.2265 32.1521 28.0911 32.1395C28.1956 32.1674 28.2999 32.1915 28.4051 32.2171C28.4089 32.2072 28.4152 32.1984 28.4235 32.1916C28.4317 32.1849 28.4415 32.1803 28.452 32.1785L28.4941 32.1715ZM25.7264 31.777C25.8335 31.7424 25.9386 31.7022 26.0414 31.6565C25.8515 31.6972 25.6638 31.7384 25.475 31.7745C25.5545 31.7689 25.642 31.774 25.7264 31.777ZM26.2569 31.72C26.2569 31.72 26.2641 31.7159 26.2684 31.7134L26.2569 31.72ZM26.3947 31.8188C26.4628 31.8236 26.5326 31.8313 26.5987 31.8391L26.464 31.7923C26.4479 31.7977 26.4223 31.8067 26.399 31.8163L26.3947 31.8188ZM26.4353 31.6228L26.4719 31.6362C26.6176 31.5789 26.7619 31.5224 26.906 31.4623C26.7913 31.4901 26.6761 31.5202 26.5686 31.5439C26.5233 31.572 26.4815 31.5962 26.4397 31.6203L26.4353 31.6228ZM26.6792 31.7121C26.8819 31.7868 27.0802 31.8506 27.2823 31.9142L27.325 31.9183C27.977 31.9938 28.6335 32.0248 29.2899 32.0112C33.8478 31.0174 38.124 29.0074 41.7983 26.1317C41.7783 26.0704 41.7562 26.0122 41.7325 25.9511C38.8656 27.3287 35.9205 28.5373 32.9126 29.5706C31.2266 30.1605 29.5118 30.767 27.7643 31.2371C27.4171 31.405 27.0543 31.5626 26.6864 31.708L26.6792 31.7121ZM27.2657 32.0619C26.856 32.0185 26.4559 31.9714 26.0467 31.9488C25.9577 31.981 25.8711 32.0176 25.7812 32.0484C25.7677 32.0521 25.7535 32.0518 25.7402 32.0475C25.7269 32.0432 25.7152 32.0352 25.7065 32.0243C25.6978 32.0134 25.6924 32.0003 25.6911 31.9864C25.6898 31.9725 25.6926 31.9585 25.6991 31.9462C25.5936 31.978 25.4863 32.0035 25.3778 32.0224C27.9126 32.4765 30.4686 33.0871 33.0308 32.9558C31.0762 32.9461 29.1349 32.6437 27.2714 32.0586L27.2657 32.0619ZM25.8322 31.5472L25.797 31.533C25.7725 31.5472 25.7495 31.5605 25.7249 31.5746C25.7668 31.5639 25.8043 31.5556 25.8404 31.5482L25.8322 31.5472ZM26.098 31.4915C26.2364 31.4615 26.3757 31.4329 26.5138 31.3991C26.999 31.0773 27.444 30.6987 27.8393 30.2714C27.246 30.7065 26.6223 31.0986 25.973 31.4448L26.098 31.4915ZM39.8317 23.921C39.8275 23.9268 39.8221 23.9316 39.8159 23.9352C39.8096 23.9388 39.8028 23.941 39.7956 23.9418C36.6067 24.4693 33.5832 25.7323 30.9656 27.6304C30.5761 27.9148 30.2101 28.22 29.8551 28.5343C29.5243 28.8672 29.186 29.1871 28.8376 29.4861C28.392 29.9198 27.9519 30.3598 27.4966 30.7934C27.3103 30.9715 27.1146 31.1395 26.9104 31.2967C27.1868 31.2292 27.4652 31.1586 27.746 31.0789C29.8518 30.0971 31.8055 28.8253 33.8684 27.7359C36.1818 26.5211 38.6775 25.7417 41.168 24.9999C40.7903 24.5674 40.3412 24.2028 39.84 23.922L39.8317 23.921ZM41.2596 25.1388C38.4053 25.9929 35.6218 26.923 33.007 28.3886C31.5253 29.2191 30.0733 30.0977 28.5612 30.8556C29.8809 30.4772 31.1875 30.0162 32.4719 29.57C35.6128 28.5075 38.6861 27.2543 41.6747 25.8177C41.5648 25.5772 41.4284 25.3498 41.2679 25.1397L41.2596 25.1388ZM41.8459 26.2807C38.3611 28.9964 34.3378 30.9395 30.0448 31.9799C30.5873 31.9505 31.1308 31.8994 31.6905 31.8332C35.2137 31.4348 38.7811 30.7634 41.6262 28.5111C41.9736 27.8205 42.0548 27.0269 41.8541 26.2816L41.8459 26.2807ZM41.4654 28.8187C39.0906 30.6001 36.2566 31.3562 33.3391 31.7846C31.9632 31.9826 30.5509 32.1805 29.153 32.1938C28.9891 32.2296 28.823 32.2615 28.6547 32.2897C30.7529 32.7848 32.92 32.9264 35.0666 32.7086C37.5988 32.2323 40.2014 31.0786 41.4736 28.8197L41.4654 28.8187ZM25.1474 31.6799C25.2982 31.6082 25.4482 31.535 25.5958 31.4575C25.4306 31.3879 25.2655 31.3183 25.1001 31.2451C24.7699 31.4357 24.7257 31.4823 24.3841 31.67C24.6395 31.7088 24.8991 31.7125 25.1556 31.6809L25.1474 31.6799ZM32.2971 25.111C30.5429 26.6051 29.0767 28.3816 27.2375 29.7886C26.602 30.2744 25.9421 30.7277 25.2606 31.1467C25.429 31.222 25.5981 31.295 25.7707 31.3641C28.1831 30.0576 29.9259 28.154 31.9009 26.1298C33.3943 24.6002 35.0908 23.3293 37.2648 23.125C35.4713 23.0291 33.772 23.8625 32.3054 25.112L32.2971 25.111Z" fill="#C3937C"/>
<path d="M21.5477 32.7917C22.3115 34.0114 23.0166 35.2726 23.6928 36.5504C23.7365 36.5505 23.7791 36.5632 23.8158 36.5868C27.1523 38.7027 31.0284 40.0411 34.0696 42.6112C36.3132 44.499 38.745 47.8851 37.3308 50.924C35.9167 53.9629 32.6987 53.2014 30.7249 51.248C28.0708 48.6192 27.1907 44.7937 25.6157 41.5227C24.2349 38.6516 21.5853 35.6042 19.8899 32.8975C19.7181 32.6132 21.3724 32.5114 21.5477 32.7917ZM28.1947 44.9273C27.7739 44.5097 27.3822 44.0638 27.0223 43.5927C27.5536 44.9293 28.0848 46.2756 28.737 47.5385C28.5621 46.6826 28.391 45.8035 28.199 44.9248L28.1947 44.9273ZM25.6483 40.407C25.6816 40.4646 25.7061 40.5271 25.7342 40.5857C26.319 41.5789 27.0129 42.5038 27.8031 43.3433C27.6437 42.7641 27.4656 42.1958 27.2555 41.6422C26.6359 41.2206 26.0622 40.7357 25.5434 40.1953L25.6483 40.407ZM26.1917 41.5813C26.408 42.0758 26.6158 42.579 26.8194 43.0847C27.1448 43.5709 27.5107 44.0286 27.9133 44.4532C27.9872 44.5313 28.064 44.6078 28.1408 44.6842C28.0606 44.3355 27.9759 43.9856 27.8839 43.6398C27.2748 42.9919 26.7095 42.3042 26.1917 41.5813ZM25.1864 39.4772C25.1864 39.4772 25.1923 39.4872 25.1956 39.493C25.2188 39.5332 25.2413 39.5721 25.2507 39.6184L25.3251 39.7672C25.8727 40.4134 26.4984 40.9893 27.1879 41.4817C27.1448 41.3705 27.1011 41.2615 27.0551 41.1519C26.2126 40.4581 25.4637 39.6581 24.8273 38.7718L25.1864 39.4772ZM27.4014 41.625C27.5799 41.7444 27.7619 41.8599 27.9488 41.9705C28.0599 42.033 28.173 42.0923 28.2894 42.1574C27.9554 41.892 27.6228 41.6257 27.2967 41.3538C27.3324 41.4424 27.3693 41.5362 27.4047 41.6308L27.4014 41.625ZM24.2477 37.4515C24.871 38.8175 25.8508 39.8951 26.9394 40.8716C26.4602 39.7441 25.7762 38.7153 24.922 37.8369C24.6979 37.7151 24.4719 37.5867 24.2502 37.4559L24.2477 37.4515ZM24.1472 37.3907L24.1232 37.3758L24.1356 37.3973C24.14 37.3951 24.1449 37.3943 24.1497 37.395L24.1472 37.3907ZM26.5691 38.7115C27.5318 39.5363 28.4432 40.4157 29.4308 41.2204C31.015 42.509 33.0771 43.3165 34.9518 44.1824C34.8107 44.028 34.6713 43.8765 34.5309 43.7332C32.3233 41.4948 29.3906 40.1583 26.5716 38.7158L26.5691 38.7115ZM35.199 44.4673C33.3707 43.6053 31.3653 42.8226 29.7218 41.6411C28.3902 40.6668 27.2349 39.4584 25.9551 38.4006L25.3331 38.0694C26.1189 38.9671 26.7466 39.9914 27.1899 41.099C27.7138 41.5501 28.2605 41.9842 28.8071 42.4146C29.9196 42.9229 31.1068 43.294 32.1763 43.921C34.3262 45.1937 35.8399 47.2459 37.2317 49.2803C37.3298 47.542 36.3359 45.8071 35.1973 44.4645L35.199 44.4673ZM37.0146 50.3529C37.1086 50.082 37.1731 49.8017 37.2069 49.5171C35.2272 46.6543 33.2204 44.3939 29.889 43.0364C29.6674 42.9457 29.4531 42.8508 29.2394 42.7537C29.8807 43.2617 30.5141 43.7761 31.0984 44.3285C33.2548 46.3809 35.0694 48.7639 36.4739 51.388C36.7046 51.0708 36.8863 50.7209 37.013 50.3501L37.0146 50.3529ZM36.3774 51.5205C34.8061 48.5682 32.7147 45.9239 30.2033 43.714C29.7278 43.3001 29.2318 42.9038 28.738 42.5082C28.2984 42.2887 27.8719 42.0438 27.4609 41.7748C27.6738 42.3633 27.8576 42.9647 28.0204 43.5764C28.8576 44.4871 29.7408 45.3674 30.5357 46.3179C32.0791 48.1822 33.3824 50.2326 34.4152 52.4213C34.7895 52.433 35.1616 52.3574 35.5019 52.2006C35.8422 52.0437 36.1414 51.8098 36.3757 51.5176L36.3774 51.5205ZM34.2435 52.4169C32.9767 49.77 31.3175 47.3296 29.3218 45.1778C28.9125 44.7353 28.5012 44.3093 28.0919 43.8668C28.1772 44.2011 28.2582 44.5378 28.3349 44.8771C28.831 45.3178 29.2971 45.7912 29.7298 46.2941C30.8521 47.7018 31.199 49.4249 31.5077 51.1585C31.5097 51.1688 31.5096 51.1794 31.5072 51.1897C31.5049 51.2 31.5004 51.2097 31.494 51.2181C32.3135 51.8782 33.3062 52.3521 34.2418 52.414L34.2435 52.4169ZM31.3396 51.0906C30.8982 48.6609 30.1902 46.8817 28.3889 45.1239C28.6018 46.0921 28.7864 47.0613 28.9848 47.9976C29.4714 48.9025 30.0619 49.7475 30.7443 50.5157C30.9302 50.7185 31.1284 50.9095 31.338 51.0877L31.3396 51.0906Z" fill="#C3937C"/>
<path d="M55.4333 27.3354C57.5217 27.4125 58.7303 28.4502 58.4111 30.6248C57.9486 33.7835 54.5369 35.2375 51.9584 36.3829C48.2075 38.0519 44.2433 38.609 40.1794 38.8633C40.1257 38.87 40.0715 38.8561 40.0278 38.8243C39.9841 38.7926 39.9542 38.7454 39.9441 38.6923C38.9671 39.3312 38.7083 40.2151 37.3339 40.4122C37.0094 40.4596 35.9963 39.5507 36.3259 39.5023C40.9801 38.8248 42.5896 35.002 45.6007 32.0382C48.1038 29.5767 51.7788 27.1999 55.4333 27.3354ZM47.7397 30.8742C45.5967 33.2057 43.4219 35.509 41.2154 37.7838C44.1265 37.1079 46.008 34.5854 47.8742 32.3727C49.6652 30.2495 51.5834 28.9561 54.0789 27.8701C52.908 28.1192 51.7733 28.5165 50.7025 29.0524C49.6585 29.5627 48.6662 30.1728 47.7397 30.8742ZM40.7264 38.3155C40.8781 38.2452 41.0306 38.1763 41.1806 38.1031C41.1787 38.095 41.1785 38.0865 41.18 38.0783C41.1815 38.0701 41.1846 38.0623 41.1892 38.0553C41.1938 38.0484 41.1998 38.0424 41.2068 38.0378C41.2138 38.0332 41.2216 38.0301 41.2299 38.0286C41.2969 38.0148 41.3608 37.999 41.4279 37.9852C41.4949 37.9715 41.5043 37.9411 41.5432 37.9186C41.3897 37.9325 41.2368 37.9441 41.0831 37.9542C41.0672 37.9634 41.0455 37.9625 41.0264 37.9659C40.9153 38.0799 40.8065 38.1944 40.6968 38.3076C40.7069 38.3092 40.7168 38.3118 40.7264 38.3155ZM41.9894 37.709C41.9505 37.7315 41.9041 37.741 41.8601 37.7549C41.8717 37.7482 41.8905 37.7508 41.9053 37.7499C41.9202 37.749 41.969 37.7169 41.9966 37.7048L41.9894 37.709ZM54.5614 27.7967C54.5589 27.806 54.5541 27.8147 54.5475 27.8218C54.5409 27.829 54.5327 27.8344 54.5235 27.8377C52.8958 28.5186 51.286 29.2237 49.9445 30.397C48.6938 31.4911 47.7028 32.8418 46.6287 34.0985C45.7892 35.0856 44.8753 36.0236 43.8345 36.7453C48.249 34.3332 52.3031 31.3135 55.8775 27.7751C55.4422 27.7278 55.0027 27.7337 54.5686 27.7925L54.5614 27.7967ZM56.0623 27.7988C52.0377 31.8022 47.4043 35.1446 42.3349 37.7013C42.3978 37.6937 42.4601 37.6884 42.5173 37.6842C43.7067 37.2199 44.9253 36.7963 46.1416 36.3587C47.6627 35.6249 49.0864 34.7043 50.3797 33.6185C52.5994 31.7616 54.4809 29.5555 57.0333 28.1318C56.7345 27.9636 56.4083 27.8495 56.0695 27.7946L56.0623 27.7988ZM57.2512 28.2629C57.2318 28.2492 57.2111 28.24 57.1917 28.2263C54.2857 29.8235 52.2421 32.4416 49.6339 34.4248C48.8783 34.9998 48.0818 35.5192 47.251 35.979C51.2677 34.5305 55.1685 32.8613 57.7849 29.3104C57.7924 29.3011 57.8018 29.2935 57.8126 29.2883C57.8234 29.2832 57.8353 29.2806 57.8473 29.2807C57.8592 29.2808 57.871 29.2837 57.8816 29.2891C57.8923 29.2945 57.9016 29.3023 57.9088 29.3118C57.8358 28.8876 57.6016 28.5083 57.2551 28.2529L57.2512 28.2629ZM57.9186 29.3521C57.9186 29.3521 57.9205 29.3721 57.9115 29.3831C55.0668 33.2479 50.7147 34.9015 46.3421 36.4462C45.4818 36.8668 44.5939 37.2282 43.6846 37.528C48.5159 36.7911 53.1272 34.9989 57.1897 32.2792C57.1978 32.2735 57.207 32.2697 57.2167 32.2681C57.2264 32.2664 57.2364 32.267 57.2458 32.2698C57.2505 32.2619 57.2558 32.2543 57.2617 32.2473C57.706 31.5382 58.1148 30.3147 57.9225 29.3422L57.9186 29.3521ZM57.0535 32.5362C52.7647 35.3633 47.8819 37.1638 42.7864 37.7973C42.6068 37.8492 42.427 37.8974 42.2455 37.9427C41.9913 38.0454 41.7366 38.1503 41.4849 38.2572C45.1553 37.954 48.7118 37.3235 52.1033 35.7547C53.8118 34.9639 55.9047 34.093 57.0616 32.5334L57.0535 32.5362ZM40.4738 38.3309L40.5287 38.2762L40.4515 38.3323L40.4738 38.3309ZM43.7355 34.9386C44.8225 33.7997 45.8989 32.6503 46.9648 31.4903C46.2093 32.1282 45.5071 32.8267 44.8654 33.5787C44.4851 34.0322 44.1124 34.489 43.7435 34.9359L43.7355 34.9386Z" fill="#C3937C"/>
<path d="M35.9056 39.0239C36.8244 39.7542 37.6658 40.5766 38.4166 41.4783C38.4741 41.4624 38.5354 41.467 38.5896 41.4916C40.4055 42.2905 42.3238 42.8349 44.2901 43.1093C45.6481 43.3167 46.9387 43.5572 48.192 44.1395C50.8456 45.3687 54.0458 48.0676 54.0898 51.2809C54.1284 54.1253 50.5757 55.9944 48.1192 54.8968C45.533 53.7475 44.0754 50.6235 42.6216 48.3718C40.5923 45.2366 37.6685 41.9409 34.6811 39.6139C34.416 39.4046 35.6467 38.8187 35.9056 39.0239ZM42.2076 43.3855C42.3103 43.4566 42.4155 43.5224 42.5179 43.5898C43.4143 43.9972 44.2547 44.5172 45.0188 45.1374C47.3514 46.4531 49.8265 47.5002 52.3967 48.2584C51.628 47.1232 50.6338 46.1582 49.4755 45.4234C49.4624 45.4298 49.4478 45.4323 49.4334 45.4304C47.7896 45.2056 46.1714 44.8249 44.6007 44.2934C43.4227 43.8882 42.3065 43.3169 41.1105 42.9604L40.8518 42.8854C40.7101 42.8464 40.568 42.8134 40.4238 42.7835C40.4972 42.8274 40.5692 42.8722 40.6414 42.9206C41.1401 43.0554 41.6299 43.2209 42.1081 43.4161C42.1104 43.4062 42.1153 43.397 42.1221 43.3893C42.1289 43.3817 42.1375 43.3759 42.1472 43.3724C42.1568 43.3689 42.1672 43.3679 42.1773 43.3694C42.1874 43.371 42.197 43.375 42.2052 43.3812L42.2076 43.3855ZM39.5046 42.8598C40.4365 43.4416 41.3866 44.0148 42.3139 44.6185C41.8115 44.0293 41.2336 43.5087 40.5951 43.0701C40.2253 42.9618 39.8503 42.8724 39.4714 42.8023L39.5046 42.8598ZM39.3526 42.6465C39.3612 42.6415 39.3684 42.6373 39.3757 42.6332C39.6375 42.6738 39.8965 42.7294 40.1557 42.7887L40.0054 42.7049C39.8827 42.6856 39.7594 42.6551 39.6399 42.6513C39.6248 42.6499 39.6104 42.6441 39.5986 42.6346C39.5868 42.625 39.5781 42.6122 39.5737 42.5977C39.5692 42.5832 39.5692 42.5677 39.5736 42.5532C39.578 42.5386 39.5866 42.5257 39.5984 42.5161C39.5548 42.4971 39.5132 42.4751 39.4704 42.4576C39.4565 42.451 39.4449 42.4403 39.4372 42.427C39.4295 42.4136 39.426 42.3982 39.4273 42.3829C39.2983 42.3327 39.1759 42.2806 39.0377 42.2243L39.3526 42.6465ZM43.6265 43.5251C43.2411 43.4638 42.8626 43.3909 42.485 43.3097C43.0449 43.5368 43.6025 43.7767 44.1741 43.9874C45.7955 44.5736 47.4727 44.9936 49.1799 45.2412C48.914 45.0802 48.6399 44.9297 48.3578 44.7897C46.8308 44.0298 45.2874 43.7876 43.624 43.5208L43.6265 43.5251ZM52.4809 48.3843C52.4744 48.398 52.4631 48.4089 52.4492 48.4148C52.4352 48.4207 52.4196 48.4213 52.4052 48.4165C50.04 47.7233 47.754 46.7861 45.584 45.6202C46.6223 46.5759 47.5049 47.6617 48.7138 48.4269C50.0731 49.2893 51.8533 49.8416 53.3888 50.3165C53.2839 49.933 53.1391 49.5616 52.9566 49.2083C52.8083 48.9181 52.6497 48.6434 52.4784 48.38L52.4809 48.3843ZM53.4273 50.4764C53.4273 50.4764 53.4273 50.4764 53.4172 50.4823C50.9955 49.7347 48.5824 48.8153 46.7579 47.0039C46.0276 46.2683 45.2438 45.5877 44.4131 44.9674C43.8524 44.6391 43.3033 44.2908 42.7587 43.9302C42.1997 43.6361 41.6168 43.3895 41.0161 43.1933C41.6187 43.6758 42.1639 44.2257 42.6411 44.8322C43.7091 45.5198 44.7194 46.2929 45.6619 47.1438C48.0189 49.3247 50.0177 51.5878 52.8032 53.2586C53.5241 52.4225 53.6468 51.4427 53.4248 50.4721L53.4273 50.4764ZM52.6623 53.4109C52.6796 53.4009 52.6888 53.3803 52.7036 53.3659C50.2613 51.8997 48.3439 50.0441 46.3496 48.0219C45.3187 47.0024 44.1938 46.0821 42.9899 45.2733C43.493 45.9282 43.9679 46.6108 44.4629 47.255C46.4632 49.8605 48.6385 52.3093 51.1663 54.4165C51.7252 54.1801 52.2323 53.8365 52.659 53.4051L52.6623 53.4109ZM51.0111 54.464C48.8764 52.6498 46.9298 50.6259 45.2005 48.4227C44.3684 47.3844 43.597 46.1615 42.7123 45.0654C41.8184 44.4597 40.8997 43.8875 39.9847 43.3151C43.5345 46.2398 44.5829 51.1628 47.9649 54.2399C48.2361 54.3903 48.5232 54.5101 48.821 54.597C49.546 54.7872 50.3134 54.7405 51.0111 54.464ZM44.8141 50.7973C45.5187 51.8612 46.3067 53.0496 47.3578 53.8445C44.4178 50.7902 43.2874 46.298 40.0114 43.5279C40.721 44.5238 41.3881 45.5461 42.0413 46.5342C42.9736 47.9558 43.8753 49.3911 44.8108 50.8049L44.8141 50.7973Z" fill="#C3937C"/>
<path d="M54.7046 41.4492C55.4711 41.6644 55.4777 42.2819 56.1533 42.7528C56.1882 42.7477 56.2237 42.7493 56.258 42.7576C60.6749 43.8873 66.0248 43.0229 69.8388 45.9656C72.4212 47.9608 73.7477 52.403 70.5553 54.5798C67.1227 56.9202 63.4768 53.4892 61.8263 50.6971C59.9693 47.5507 57.6869 43.2577 53.8617 42.1871C53.5353 42.1014 54.384 41.3601 54.7046 41.4492ZM58.3182 44.6842C60.3234 46.0193 62.5427 47.039 64.3134 48.684C66.1545 50.3977 67.4956 52.5573 68.7992 54.6886C69.6298 54.5413 70.3857 54.1151 70.9416 53.4805C69.7089 50.8576 67.7719 48.6287 65.3453 47.0412L65.1094 46.8956C64.7011 46.7746 64.29 46.6553 63.8797 46.5375C61.7058 45.9198 59.6085 45.0608 57.6271 43.9767C57.865 44.2056 58.0945 44.4432 58.3182 44.6842ZM57.165 43.5494C59.5163 44.9244 61.9864 45.7859 64.5584 46.5675C62.2249 45.2398 59.5728 44.4162 57.0725 43.4724L57.1596 43.5467L57.165 43.5494ZM68.2638 45.5787C65.6988 44.2466 62.7649 44.1303 59.8867 43.8476C61.512 44.6675 63.2594 45.2203 65.062 45.4848C66.5517 45.7005 68.0332 45.8787 69.4551 46.3367C69.0813 46.0511 68.6832 45.7984 68.2654 45.5816L68.2638 45.5787ZM69.7964 46.6114C68.1085 45.9925 66.3397 45.8363 64.571 45.5535C62.7511 45.262 61.1766 44.6695 59.5499 43.8503C59.542 43.8466 59.5349 43.8413 59.5291 43.8348C59.5233 43.8282 59.519 43.8205 59.5163 43.8122C58.9494 43.756 58.383 43.6841 57.8246 43.5962C60.3021 44.5071 62.895 45.3648 65.1407 46.7433L65.5088 46.8548C67.8294 47.5438 70.0732 48.3998 71.8579 50.0655C71.6505 48.7106 70.8471 47.5254 69.7997 46.6172L69.7964 46.6114ZM71.8907 51.2048C71.9206 50.9024 71.9206 50.598 71.8908 50.2958C70.1308 48.5794 67.9138 47.7367 65.6139 47.0434L65.8232 47.1795C68.0695 48.749 69.8676 50.8753 71.0412 53.3501C71.5282 52.7347 71.8246 51.991 71.8941 51.2105L71.8907 51.2048ZM68.6362 54.706C67.3506 52.6026 66.0233 50.4734 64.2074 48.7836C62.5754 47.2656 60.5635 46.2853 58.6946 45.0997C58.8537 45.282 59.0083 45.4631 59.1591 45.6445C60.8681 46.5067 62.3702 47.7269 63.5632 49.222C64.7562 50.7171 65.6121 52.452 66.0727 54.3088C66.3797 54.4409 66.6977 54.546 67.0231 54.623C67.5514 54.753 68.0996 54.7832 68.6395 54.7118L68.6362 54.706ZM63.9777 52.805C63.2429 51.3141 62.3259 49.9204 61.2475 48.6555C62.0863 50.1117 62.8794 51.6385 63.981 52.8107L63.9777 52.805ZM60.8662 48.0051C62.2639 49.5251 63.4196 51.2506 64.2931 53.1215C64.7644 53.5749 65.3055 53.95 65.8959 54.2325C65.4438 52.4745 64.6325 50.8296 63.5129 49.4011C62.3934 47.9725 60.9897 46.7912 59.39 45.9311C59.5452 46.1234 59.6981 46.3151 59.8449 46.5026C60.2147 46.9835 60.556 47.4857 60.867 48.0065L60.8662 48.0051Z" fill="#C3937C"/>
<path d="M72.4706 25.0273C75.9334 26.6292 74.8273 31.2007 72.6847 33.3908C69.36 36.7906 64.416 38.2548 60.0951 39.8924C60.0543 39.9088 60.0096 39.9126 59.9667 39.9032C58.9172 40.7163 58.9353 41.074 57.64 41.4613C57.3228 41.5581 55.978 41.3336 56.2952 41.2368C58.8152 40.4817 60.9482 38.7845 62.2488 36.4993C63.3898 34.4792 63.7493 32.1047 64.5848 29.9617C65.77 26.9592 68.8252 23.3391 72.4706 25.0273ZM68.4305 25.7626C68.3122 25.8308 68.1954 25.8983 68.0815 25.964C68.0815 25.964 68.0815 25.964 68.0778 25.9777C66.5757 28.3277 65.3976 30.8688 64.5753 33.532C65.0497 32.7518 65.5103 31.9644 65.9508 31.1654C66.9367 29.3729 67.822 27.5328 68.6344 25.6563C68.5679 25.6909 68.4999 25.7263 68.4319 25.7617L68.4305 25.7626ZM62.8473 36.4836C62.7924 36.5882 62.7343 36.6908 62.677 36.7948C63.0073 36.6041 63.3505 36.406 63.698 36.2053C63.7694 35.9493 63.8324 35.702 63.8923 35.4795C63.9822 35.14 64.0738 34.8014 64.1672 34.4637C63.739 35.143 63.2996 35.816 62.8488 36.4828L62.8473 36.4836ZM63.3678 37.2186C62.8754 37.5178 62.3683 37.7921 61.8483 38.0403C61.7554 38.1591 61.6609 38.275 61.5665 38.3947C62.1584 38.0012 62.7545 37.6149 63.3621 37.2487L63.3678 37.2186ZM63.4509 36.9961C63.5198 36.7991 63.5813 36.6025 63.6384 36.4085C63.2676 36.6321 62.8958 36.8372 62.5396 37.0429C62.3848 37.301 62.2153 37.5503 62.038 37.7927C62.5229 37.5434 62.9942 37.2809 63.4523 36.9953L63.4509 36.9961ZM64.3775 34.1985C64.2433 34.6786 64.1132 35.3558 63.9316 36.057C65.9065 34.8152 67.8509 33.1576 68.4677 31.0124C69.0122 29.118 68.81 27.1293 69.6422 25.3103C69.3647 25.3729 69.0934 25.4602 68.8315 25.5713C67.5704 28.5066 66.0945 31.3456 64.4158 34.0651C64.4057 34.1074 64.3912 34.1522 64.3789 34.1976L64.3775 34.1985ZM69.8183 25.2758C68.7704 27.457 69.3098 30.0564 68.1579 32.1941C67.2616 33.8621 65.5775 35.218 63.8759 36.2637C63.8231 36.4552 63.7672 36.6448 63.7059 36.8317C65.2908 35.8097 66.6809 34.5136 67.8105 33.0045C69.5254 30.7028 70.4937 27.9942 71.4311 25.3149C71.4371 25.3012 71.4474 25.2899 71.4605 25.2826C70.9194 25.1746 70.3623 25.172 69.8198 25.2749L69.8183 25.2758ZM71.567 25.3074C71.5709 25.3146 71.5732 25.3225 71.574 25.3306C71.5747 25.3387 71.5738 25.3469 71.5713 25.3547C70.6266 28.0478 69.6563 30.7864 67.9324 33.099C66.7526 34.6735 65.2915 36.017 63.6232 37.0615L63.6116 37.0913C63.9 36.9248 64.1884 36.7583 64.4826 36.6018C66.0213 35.7901 67.6748 35.104 68.9735 33.9131C69.5983 33.1804 70.1871 32.4052 70.7513 31.6173C71.7362 29.8464 72.2479 27.7887 72.7205 25.8399C72.7205 25.8399 72.7306 25.8341 72.7364 25.8307C72.3834 25.5861 71.9886 25.4079 71.5714 25.3049L71.567 25.3074ZM65.5596 36.2159C64.8567 36.5737 64.1769 36.9548 63.5078 37.3545C63.3831 37.671 63.2231 37.9724 63.0307 38.2531C63.6278 38.0253 64.2225 37.7932 64.8137 37.5516C66.1525 36.7407 67.3619 35.7335 68.4012 34.5638C67.5037 35.1896 66.5562 35.7406 65.5682 36.2109L65.5596 36.2159ZM72.8568 25.9127C72.4631 27.5321 72.0427 29.2284 71.3435 30.7749C72.1973 29.5361 72.9981 28.2856 73.7844 27.1298C73.7936 27.1189 73.8064 27.1115 73.8205 27.109C73.6048 26.6367 73.277 26.2244 72.8654 25.9077L72.8568 25.9127ZM73.8774 27.241C72.9351 28.6326 71.964 30.1578 70.9055 31.6414C70.5111 32.3745 70.0199 33.0515 69.4451 33.6543C69.3241 33.7778 69.1998 33.8956 69.0731 34.009C68.0703 35.2219 66.9106 36.2965 65.6245 37.2043C66.0433 37.0238 66.458 36.8362 66.8685 36.6414C66.8625 36.6298 66.8608 36.6164 66.8635 36.6036C66.8663 36.5908 66.8735 36.5794 66.8838 36.5712C69.5251 34.2159 72.1404 31.8354 74.1713 28.9122C74.1713 28.9122 74.1843 28.9047 74.19 28.9013C74.1917 28.5315 74.1487 28.163 74.0619 27.8037C74.0182 27.6129 73.9608 27.4256 73.8902 27.2432L73.8774 27.241ZM71.4052 33.8457C72.8542 32.6621 74.0904 31.0068 74.19 29.1411C72.2228 31.9182 69.7355 34.2172 67.2069 36.4748C68.7054 35.7659 70.1169 34.886 71.4131 33.8526L71.4052 33.8457ZM62.7274 38.3573C62.9323 38.0967 63.1027 37.8108 63.2342 37.5067C62.533 37.9307 61.8426 38.3734 61.1529 38.8272C61.0918 38.8912 61.0319 38.9507 60.9663 39.0136C61.561 38.7981 62.1525 38.5805 62.741 38.3609L62.7274 38.3573ZM63.2506 35.5835C63.3521 35.4463 63.4318 35.3312 63.4634 35.2861C63.744 34.8595 64.0175 34.4274 64.2879 33.9932C64.4772 33.3221 64.681 32.656 64.9195 31.9967C65.6692 29.9526 66.632 27.9924 67.7919 26.1485C64.878 28.2316 64.5601 32.44 63.2642 35.5871L63.2506 35.5835Z" fill="#C3937C"/>
<path d="M70.1462 38.5553C71.0155 38.8453 70.7716 39.3888 71.511 39.8402C71.5232 39.8027 71.5453 39.7692 71.575 39.7433C71.6048 39.7173 71.6409 39.6999 71.6797 39.6929C75.0957 38.9057 78.6789 39.4371 81.6439 41.3322C83.5674 42.5592 87.2748 45.7802 86.3061 48.4584C85.0415 51.9594 80.1957 49.271 78.5209 47.7489C75.2192 44.7443 73.5088 40.7328 68.9795 39.2154C68.6582 39.1152 69.8356 38.4469 70.1462 38.5553ZM72.1812 40.2816C72.4688 40.2958 72.7527 40.3191 73.033 40.3516L72.8858 40.2832C72.7139 40.2118 72.5339 40.1432 72.3475 40.0801C72.2295 40.1022 72.1132 40.1272 71.9954 40.153L72.1812 40.2816ZM73.9224 41.7289C74.3188 41.8528 74.7177 41.9542 75.1133 42.0499C74.6957 41.4319 74.1352 40.9235 73.4789 40.5679L73.4566 40.5558C73.1113 40.504 72.7609 40.4666 72.4083 40.4419C72.9414 40.8365 73.4472 41.2665 73.9224 41.7289ZM75.3909 42.1178C75.7448 42.2012 76.0943 42.287 76.4416 42.3856C75.8945 41.9489 75.3132 41.5567 74.7031 41.2129C74.7969 41.3092 74.8855 41.4104 74.9685 41.5161C75.1163 41.7088 75.2557 41.9102 75.3893 42.115L75.3909 42.1178ZM81.0449 41.5669C79.5523 40.6838 77.8879 40.1282 76.1623 39.9371C79.3005 41.4695 82.2089 43.6331 85.1383 45.4931C84.8863 45.1132 84.6048 44.7522 84.3536 44.437C83.4324 43.2895 82.3117 42.3173 81.0449 41.5669ZM85.7732 46.8159C85.656 46.4145 85.4803 46.0327 85.2516 45.6827C85.2422 45.696 85.2279 45.705 85.2118 45.7078C85.1958 45.7106 85.1793 45.707 85.166 45.6976C82.0954 43.7427 79.049 41.4536 75.7386 39.896C74.9689 39.8354 74.1951 39.8451 73.4268 39.9248C78.7118 40.26 82.6972 44.239 85.6828 48.3811C85.8942 47.8853 85.9262 47.3318 85.7732 46.8159ZM85.6046 48.5221C82.5163 44.2188 78.3493 40.0551 72.7269 40.0413C73.0365 40.149 73.3383 40.2778 73.6302 40.4268C76.0343 40.814 78.2745 41.8845 80.0829 43.5103C81.8914 45.1361 83.1917 47.2486 83.8286 49.5954C84.6376 49.5214 85.2716 49.1209 85.6046 48.5221ZM83.4842 49.6217C83.5521 49.6227 83.6181 49.6172 83.6835 49.614C83.0689 47.367 81.8379 45.3374 80.1291 43.754C78.4204 42.1705 76.3016 41.0959 74.0117 40.6514C74.0411 40.669 74.0678 40.6919 74.0957 40.7103C75.0662 41.1941 75.9744 41.7932 76.8006 42.4947C77.6192 42.7316 78.3781 43.1383 79.0279 43.6882C80.7536 45.202 81.6302 47.3862 82.4212 49.4856C82.7698 49.5672 83.126 49.6128 83.4842 49.6217ZM82.237 49.4597C81.3666 47.1529 80.3461 44.6894 78.2141 43.2645C77.8238 43.0064 77.4022 42.7988 76.9594 42.6466C77.0296 42.7115 77.1039 42.7703 77.172 42.8383C78.6911 44.3237 79.4631 46.2903 79.9933 48.3044C79.9955 48.3128 79.996 48.3217 79.9947 48.3303C79.9935 48.339 79.9904 48.3473 79.9859 48.3547C80.6623 48.8604 81.4284 49.2339 82.2442 49.4555L82.237 49.4597ZM79.8228 48.2322C79.2547 46.1191 78.4052 44.0784 76.7092 42.6127L76.6144 42.5352C76.2363 42.4198 75.8484 42.3274 75.4609 42.2423C76.1549 43.3278 76.7051 44.5672 77.2638 45.6981C78.0208 46.6355 78.8817 47.4842 79.83 48.228L79.8228 48.2322ZM76.8371 45.1621C76.3509 44.2002 75.8543 43.2367 75.2905 42.3235C75.2606 42.2717 75.2254 42.2307 75.1959 42.1863C74.8318 42.1051 74.4709 42.0296 74.1086 41.9282C74.6585 42.4827 75.1771 43.0674 75.6619 43.6795C76.0393 44.1366 76.43 44.6435 76.8443 45.1579L76.8371 45.1621Z" fill="#C3937C"/>
<path d="M79.0325 34.861C79.8227 34.8209 79.6704 35.3863 80.4548 35.4761C80.4815 35.4531 80.5123 35.4353 80.5456 35.4236C82.6097 34.7485 84.726 34.2457 86.8726 33.9203C88.2936 33.7174 89.7687 33.6347 91.1193 34.1991C93.0204 34.9941 95.4653 37.7302 94.3692 39.9546C93.1259 42.4635 90.003 41.254 88.4121 39.9271C86.6063 38.4212 84.7817 37.2291 82.7477 36.5435C82.2158 36.5184 81.696 36.379 81.2235 36.1349C80.1909 35.9311 79.1367 35.8557 78.0849 35.9105C77.7558 35.9299 78.7017 34.8775 79.0325 34.861ZM86.5865 35.9225C86.7152 35.8923 86.8435 35.8547 86.9719 35.8208C86.4094 35.7177 85.8409 35.6495 85.2697 35.6166L85.2082 35.6234C85.551 35.7342 85.8846 35.8657 86.2103 36.0036C86.3425 35.9829 86.4673 35.9492 86.5865 35.9225ZM90.7891 34.6295C90.7395 34.6102 90.6892 34.5931 90.639 34.5761C90.6336 34.5862 90.6255 34.5946 90.6155 34.6003C90.6056 34.606 90.5943 34.6089 90.5828 34.6086C88.3324 34.4639 86.1451 35.0614 83.9275 35.31C84.1456 35.3548 84.3763 35.398 84.5893 35.4572C84.8116 35.4593 85.0318 35.4644 85.2525 35.477C86.3007 35.3521 87.3586 35.3344 88.4099 35.424C89.2098 35.1711 90.0007 34.9025 90.7891 34.6295ZM88.8044 35.4513C90.3447 35.623 91.8504 36.0222 93.2722 36.6359C92.7127 35.7904 91.9214 35.1238 90.9924 34.7153C90.2661 34.9659 89.5384 35.2173 88.8044 35.4513ZM82.8215 35.962C83.3442 35.8126 83.8743 35.6903 84.4096 35.5955C83.6661 35.5997 82.9242 35.6645 82.191 35.7891C82.4021 35.8417 82.6128 35.9003 82.8215 35.962ZM86.0913 35.5411C86.5026 35.5874 86.9028 35.6479 87.306 35.7334C87.546 35.6696 87.7867 35.6035 88.0263 35.5323C87.3818 35.4949 86.7356 35.4979 86.0913 35.5411ZM84.8602 35.6766C84.2589 35.764 83.6632 35.8864 83.076 36.0432C83.2889 36.1121 83.5002 36.1818 83.7058 36.2549C84.1318 36.2467 84.5737 36.2428 85.0128 36.2673C85.3441 36.2084 85.6658 36.1396 85.9756 36.07C85.6117 35.9167 85.2389 35.7848 84.8594 35.6752L84.8602 35.6766ZM81.8186 35.7069C82.5165 35.5703 83.2237 35.4871 83.934 35.4578C83.7225 35.4246 83.5127 35.3942 83.3046 35.3667C83.007 35.3909 82.7076 35.4084 82.409 35.414C82.1258 35.4931 81.8442 35.5713 81.5635 35.6548L81.8186 35.7069ZM85.4594 34.6864C84.6964 34.8335 83.941 35.007 83.1897 35.201L83.3187 35.2147C85.6253 35.0336 87.8894 34.3726 90.2165 34.4404L90.1839 34.4304C88.6398 34.0506 86.9707 34.3967 85.4536 34.6897L85.4594 34.6864ZM93.4156 36.8542C91.8413 36.1494 90.1594 35.7127 88.4396 35.5621C88.1664 35.6451 87.8953 35.7249 87.6181 35.8044C89.9821 36.3511 92.1592 37.5092 93.9311 39.1625C93.9361 39.1711 93.9394 39.1769 93.9436 39.1841C94.0454 38.6121 93.9733 38.0232 93.7366 37.4934C93.6418 37.2745 93.5327 37.062 93.4098 36.8575L93.4156 36.8542ZM93.9238 39.2664C93.9109 39.278 93.8941 39.2843 93.8768 39.284C93.8595 39.2836 93.8429 39.2768 93.8305 39.2647C92.0139 37.5674 89.7667 36.3984 87.3313 35.8837C87.0362 35.9621 86.7392 36.0338 86.442 36.1018C88.6828 37.1456 90.5873 38.9224 92.2277 40.8478C92.6349 40.7838 93.0138 40.5991 93.3152 40.3177C93.6166 40.0364 93.8266 39.6713 93.9181 39.2697L93.9238 39.2664ZM84.4635 36.5615C85.4061 37.0063 86.2963 37.5542 87.1178 38.1949C88.3913 39.1452 89.5545 40.5637 91.1911 40.8441C91.4761 40.8939 91.7669 40.903 92.0546 40.871C90.3975 38.9399 88.4707 37.1645 86.1947 36.1564C85.9635 36.2055 85.7306 36.2518 85.5025 36.2895C86.0008 36.3255 86.4907 36.4364 86.9556 36.6184C88.1597 37.1255 88.7878 38.6497 89.253 39.7618C89.2894 39.8481 89.1561 39.927 89.1247 39.8359C88.517 38.3804 87.8255 36.9196 86.1346 36.5919C85.6358 36.5009 85.1307 36.4477 84.6237 36.4326C84.5083 36.4493 84.3899 36.464 84.2672 36.4812C84.3257 36.5126 84.3918 36.5338 84.4577 36.5648L84.4635 36.5615Z" fill="#C3937C"/>
<path d="M84.1614 18.8873C85.4103 19.0522 86.4023 19.8946 86.9166 21.0186C87.6517 22.6248 87.3482 24.1539 86.696 25.7251C85.0337 29.7529 80.977 31.8381 77.5827 34.2081C77.5736 34.2145 77.5639 34.2201 77.5538 34.2248C77.1635 35.0407 77.5356 35.2689 77.1312 36.0738C76.9817 36.371 75.7595 36.6951 75.9053 36.3981C78.0614 32.1101 79.899 27.9427 80.1893 23.1039C80.3249 20.8243 81.4424 18.5205 84.1614 18.8873ZM86.5346 21.406C85.8835 23.8548 84.2512 25.8499 82.7984 27.8795C81.9698 29.0386 81.1155 30.646 79.943 31.6891C79.7141 31.972 79.4692 32.2415 79.2093 32.4963C79.3493 32.4058 79.4807 32.3204 79.6171 32.2301C80.7206 31.2575 81.5936 29.9921 82.5996 28.9338C83.777 27.6961 85.0312 26.5348 86.2862 25.3749C86.8093 24.093 87.0563 22.6791 86.5318 21.4076L86.5346 21.406ZM86.1494 25.7108C84.8471 26.9153 83.5497 28.1284 82.3447 29.4281C81.6269 30.203 80.9804 31.0614 80.2605 31.8126C82.4054 30.3825 84.4901 28.8146 85.7229 26.5707C85.8737 26.2957 86.017 26.0078 86.1494 25.7108ZM78.522 32.9544C78.8079 32.6935 79.085 32.4242 79.3458 32.1432C79.2996 32.1699 79.252 32.1974 79.2016 32.2265C79.0133 32.4693 78.7661 32.6602 78.4835 32.7811C78.4633 32.7927 78.4445 32.8036 78.4258 32.8144C78.4148 32.821 78.402 32.8241 78.3891 32.8233C78.3763 32.8225 78.364 32.8178 78.3539 32.8098C78.3354 32.814 78.3167 32.8172 78.2978 32.8192C78.233 32.8835 78.1674 32.9463 78.1032 33.0083C78.0583 33.1071 78.0143 33.2073 77.968 33.3069C78.1589 33.1947 78.3398 33.075 78.522 32.9544ZM78.3118 32.6136L78.319 32.6095C78.3169 32.6113 78.3145 32.6127 78.3118 32.6136ZM78.5604 32.3781C78.8295 32.1115 79.101 31.8359 79.3721 31.5528C79.5034 31.273 79.6058 30.9806 79.6778 30.6802C79.425 30.8752 79.1619 31.0565 78.8897 31.2234C78.725 31.633 78.5529 32.0398 78.3734 32.4439C78.4313 32.4277 78.4934 32.4053 78.556 32.3806L78.5604 32.3781ZM79.7313 30.4499C79.8613 29.7536 79.9205 29.0461 79.9081 28.3382C79.6448 29.2343 79.3329 30.1161 78.9843 30.9809C79.2411 30.8181 79.489 30.6417 79.727 30.4524L79.7313 30.4499ZM80.2095 27.2284C80.161 27.4309 80.1018 27.6281 80.048 27.8279C80.0837 28.6574 80.036 29.4886 79.9057 30.3089C80.2581 30.0141 80.5862 29.6913 80.8866 29.3437C80.911 29.2127 80.927 29.0807 80.9427 28.9413C81.068 27.5631 80.8957 26.1458 80.5975 24.7801C80.5282 25.6055 80.397 26.4248 80.2052 27.2309L80.2095 27.2284ZM79.8623 30.5334C79.811 30.7769 79.7424 31.0164 79.657 31.2502C79.7341 31.1674 79.8112 31.0845 79.8947 30.996C80.3161 30.467 80.665 29.999 80.7024 29.9372C80.7398 29.8753 80.7469 29.8578 80.7693 29.8199C80.7917 29.7821 80.8069 29.6985 80.822 29.638C80.5238 29.9612 80.2015 30.2614 79.8579 30.5359L79.8623 30.5334ZM80.3742 30.6808C80.246 30.8584 80.1141 31.0362 79.9766 31.2076C79.839 31.3791 79.6873 31.6124 79.5197 31.8549C79.6096 31.7877 79.6988 31.7189 79.784 31.6467C80.0506 31.3172 80.2808 30.96 80.4705 30.5811C80.4342 30.6116 80.4013 30.6479 80.3699 30.6833L80.3742 30.6808ZM80.7082 23.1035C80.6854 23.5002 80.6596 23.8986 80.6296 24.2994C81.0128 25.8557 81.2771 27.5689 81.0622 29.135C81.1074 29.0801 81.151 29.0224 81.194 28.9669C81.521 28.1804 81.7284 27.3497 81.8092 26.5024C82.0222 24.4369 81.8577 22.3037 81.6565 20.2434C81.6479 20.1487 81.7949 20.1501 81.8041 20.2426C82.0688 22.8625 82.4258 25.8952 81.5654 28.4514C83.2343 25.9269 83.5476 22.653 83.1702 19.5382C83.1587 19.4451 83.3086 19.4449 83.3163 19.5383C83.7179 22.898 83.3284 26.4096 81.3481 29.0141C81.2342 29.2733 81.107 29.5266 80.9671 29.7729C83.3989 26.8348 85.3311 23.2878 84.6162 19.6583C84.5973 19.5657 84.7347 19.5305 84.7579 19.6206C85.5089 23.4325 83.4003 27.1369 80.8264 30.1686C80.7084 30.4876 80.5578 30.7937 80.377 31.0819C81.5569 29.8254 82.4872 28.0764 83.3242 26.9086C84.6022 25.1257 85.905 23.386 86.4442 21.2261C86.4442 21.2261 86.4543 21.2203 86.4601 21.217C86.3764 21.0419 86.2792 20.8736 86.1695 20.7136C85.7762 20.1261 85.1868 19.6973 84.506 19.5034C83.8252 19.3095 83.097 19.363 82.4508 19.6544C80.9994 20.3275 80.7898 21.6796 80.7039 23.106L80.7082 23.1035Z" fill="#C3937C"/>
<path d="M87.7677 29.6661C90.7747 28.7201 93.9093 28.0916 97.0004 27.4843C99.179 27.0549 103.103 27.0652 102.692 30.3481C102.346 33.0597 99.1241 33.8268 96.9162 32.9999C94.5792 32.1325 92.6297 30.2378 90.2149 29.5821C90.1832 29.5726 90.1535 29.5572 90.1273 29.5369C89.3812 29.7299 87.3579 30.6947 86.6237 30.9249C86.3006 31.0214 87.4508 29.7667 87.7677 29.6661ZM94.6745 28.4877C93.8868 28.6587 93.0929 28.8256 92.3065 29.0054C92.5943 29.0286 92.876 29.1 93.1399 29.2165C93.2337 29.2026 93.3276 29.1887 93.4223 29.1762C94.3541 28.9134 95.3075 28.7345 96.2709 28.6418C97.1105 28.3776 97.9367 28.0636 98.7635 27.7473C98.5219 27.7517 98.2808 27.7712 98.0415 27.8055C96.9164 27.9815 95.7924 28.2527 94.6745 28.4877ZM91.778 29.6385L91.8869 29.6906C91.9409 29.671 91.9956 29.649 92.0452 29.6318C92.0457 29.6198 92.0496 29.6081 92.0564 29.598C92.0631 29.588 92.0726 29.5801 92.0836 29.5751C92.0693 29.5765 92.0549 29.5771 92.0405 29.577C91.9591 29.5991 91.8702 29.6217 91.7805 29.6428L91.778 29.6385ZM97.1207 32.4216C96.5552 31.4921 95.7553 30.2799 94.6488 29.9485C94.446 29.8904 94.2385 29.8498 94.0288 29.827C94.4961 30.2887 94.8444 30.8566 95.0441 31.4824C95.7114 31.8476 96.4056 32.1615 97.1207 32.4216ZM93.5722 29.6323C93.4933 29.5769 93.4116 29.5255 93.3275 29.4783C93.2179 29.4917 93.1078 29.5073 92.998 29.517C92.8272 29.5543 92.6717 29.5846 92.5092 29.6228C92.4311 29.6507 92.3492 29.6788 92.2768 29.7033C92.6821 29.6586 93.0896 29.6372 93.4973 29.6391C93.5262 29.6359 93.5499 29.6337 93.5751 29.6307L93.5722 29.6323ZM94.7313 29.0724C94.9446 29.0221 95.1576 28.9682 95.3713 28.912C95.0421 28.9613 94.7157 29.022 94.3919 29.0939C94.5068 29.0831 94.6139 29.0788 94.7342 29.0707L94.7313 29.0724ZM99.1512 27.7593C98.3969 28.0548 97.6408 28.3437 96.8769 28.6026C98.6062 28.5078 100.339 28.6902 102.009 29.1428C101.565 28.2372 100.346 27.8136 99.1541 27.7577L99.1512 27.7593ZM102.083 29.3147C100.201 28.7908 98.2388 28.6146 96.2918 28.7946C95.9881 28.8914 95.6803 28.9809 95.372 29.063C97.6995 29.088 99.9837 29.6859 102.022 30.8037C102.217 30.3291 102.24 29.8018 102.086 29.3131L102.083 29.3147ZM101.957 30.9833L101.971 30.9422C100.014 29.8666 97.8266 29.2748 95.5913 29.2164C95.9443 29.2511 96.2941 29.3126 96.6377 29.4003C98.368 29.8529 99.9644 30.9063 101.523 31.7573C101.699 31.5174 101.846 31.2569 101.959 30.9817L101.957 30.9833ZM101.432 31.8804C100.006 31.0988 98.5568 30.1734 97.0142 29.6662C96.0571 29.3642 95.0477 29.2617 94.0485 29.365C93.8855 29.3958 93.7209 29.4237 93.5602 29.4551C93.6404 29.5075 93.7179 29.5639 93.7924 29.6241C94.6863 29.5739 95.591 29.6422 96.3929 29.9654C97.7363 30.5072 98.8904 31.8102 99.9231 32.7863C100.519 32.6712 101.054 32.3472 101.432 31.873L101.432 31.8804ZM99.7372 32.8074C98.7753 31.8939 97.7136 30.7677 96.5276 30.2021C95.9037 29.9231 95.2289 29.7743 94.5447 29.765C94.6965 29.802 94.8448 29.8517 94.9882 29.9136C95.9857 30.3559 96.714 31.4675 97.2575 32.3656C97.2629 32.3733 97.2665 32.3821 97.268 32.3913C97.2696 32.4006 97.2692 32.4101 97.2667 32.4191C97.2643 32.4282 97.2599 32.4366 97.2539 32.4439C97.2479 32.4511 97.2403 32.4569 97.2318 32.461C98.0786 32.7487 98.9572 32.9183 99.7401 32.8057L99.7372 32.8074ZM94.8508 31.3774C94.6356 30.7725 94.2718 30.2316 93.7926 29.8042C93.6953 29.799 93.5944 29.794 93.4961 29.7836C93.1045 29.818 92.7174 29.8669 92.3461 29.9298C93.1562 30.3672 93.944 30.8692 94.7141 31.2971L94.8508 31.3774ZM91.2926 29.424C91.5388 29.4352 91.7848 29.4383 92.0305 29.4332C92.3034 29.3696 92.575 29.3106 92.8529 29.2691C92.3172 29.0966 91.7381 29.1123 91.2116 29.3135C91.1977 29.3192 91.1821 29.3192 91.1682 29.3137C91.1542 29.3082 91.143 29.2975 91.1368 29.2838L91.0184 29.3119C91.1143 29.3448 91.2046 29.3847 91.2955 29.4223L91.2926 29.424Z" fill="#C3937C"/>
<path d="M94.2851 12.5572C96.2558 14.432 95.5679 17.7764 94.5297 19.8945C92.607 23.831 92.6614 24.9444 91.6098 26.4298C91.4191 26.699 90.0045 27.2627 90.1998 26.985C90.7982 26.1128 91.3517 25.2108 91.8582 24.2825C91.8333 24.2416 91.8219 24.1938 91.8256 24.146C92.0752 20.6386 89.0461 17.7066 89.6371 14.2111C90.0351 11.8566 92.4724 10.8329 94.2851 12.5572ZM91.8232 16.5022C92.0344 17.0147 92.2099 17.5412 92.3485 18.0781C92.4592 18.5031 92.543 18.9245 92.6218 19.3641C92.7606 19.0117 92.9122 18.6615 93.0813 18.3184L93.1084 18.1954C93.559 16.0752 94.0412 13.63 92.109 12.0917C91.945 12.1065 91.784 12.1451 91.6311 12.2065C92.3381 13.5376 91.9269 14.96 91.8344 16.4017L91.8232 16.5022ZM92.2235 22.3075L92.245 22.2049C92.1881 21.9821 92.1373 21.7641 92.0924 21.551C92.0867 21.5811 92.0765 21.61 92.07 21.6387C92.1285 21.8599 92.1796 22.0816 92.2235 22.3075ZM92.8192 22.4468C92.795 22.1386 92.7701 21.8289 92.7414 21.5195C92.6338 22.0591 92.5483 22.607 92.4607 23.1581C92.5826 22.9228 92.702 22.6857 92.8192 22.4468ZM92.3267 23.0724C92.4034 22.5392 92.4767 22.0002 92.5852 21.462L92.2922 22.7395C92.3062 22.8504 92.3164 22.9614 92.3267 23.0724ZM92.3167 21.8663L92.6262 20.424C92.609 20.2843 92.5926 20.1461 92.5761 20.0042C92.4237 20.4027 92.2916 20.8086 92.1803 21.2203C92.2191 21.4375 92.2661 21.652 92.3167 21.8663ZM92.7135 20.0092L92.8688 19.2791C92.8033 19.432 92.7355 19.5843 92.673 19.7392L92.7135 20.0092ZM92.5143 19.6276C92.3905 18.7881 92.189 17.962 91.9126 17.16C91.8797 17.0697 91.8439 16.9811 91.8067 16.8933C91.7631 18.2295 91.8644 19.5662 92.1088 20.8799C92.2254 20.4559 92.3606 20.0385 92.5143 19.6276ZM92.3273 12.0903C93.6454 13.2276 93.8165 14.9026 93.5747 16.582C93.5188 16.9613 93.454 17.342 93.3855 17.7229C94.0429 16.4938 94.7629 15.2498 94.4909 13.8728C94.0154 12.9526 93.2272 12.1402 92.3273 12.0903ZM94.686 14.3239C94.7258 15.1255 94.4833 15.9078 94.1115 16.6824C93.8185 17.2907 93.522 17.8761 93.242 18.4634C93.1031 19.1687 92.9486 19.8735 92.7887 20.5756C92.8787 20.2404 92.9932 19.9122 93.1312 19.5936C93.6879 18.3134 94.5819 17.2508 94.9522 15.8941C94.9537 15.7302 94.9536 15.5634 94.9403 15.4005C94.9099 15.0308 94.8242 14.6679 94.686 14.3239ZM94.9219 16.4677C94.5808 17.3722 94.0478 18.1708 93.5805 19.0331C93.2452 19.6721 92.9967 20.3528 92.8416 21.057C92.8811 21.435 92.9145 21.8126 92.9457 22.1897L93.0974 21.8796C93.9024 20.2068 94.7591 18.3603 94.9219 16.4677ZM91.2734 19.3565C91.2919 18.6983 91.2346 18.0404 91.1027 17.3956C90.9175 16.5821 90.5171 15.8718 90.0714 15.1798C90.1221 15.9015 90.2651 16.6136 90.4968 17.2986C90.729 18.0006 91.0047 18.6813 91.2734 19.3565ZM90.0685 14.9016C91.085 16.4758 91.4033 17.8797 91.4108 19.7009C91.6249 20.2484 91.8305 20.8009 91.9912 21.3524C92.0006 21.3087 92.0122 21.2655 92.0238 21.2224C91.7959 20.1188 91.6698 18.9964 91.6473 17.8693C91.6454 17.4729 91.6663 17.0766 91.71 16.6825C91.2393 15.704 90.4697 14.7639 90.2437 13.7266C90.1235 14.1067 90.0644 14.5033 90.0685 14.9016ZM90.9074 12.6914C90.6725 12.9094 90.4843 13.1726 90.3543 13.4652C90.4804 14.403 91.1714 15.1335 91.5792 15.9565C91.6403 16.0823 91.6963 16.2091 91.7522 16.336C91.9045 14.9346 92.1155 13.4417 91.4945 12.2796C91.2786 12.3847 91.0793 12.521 90.9033 12.6842L90.9074 12.6914Z" fill="#C3937C"/>
<path d="M98.6128 5.36641C100.748 5.38184 101.192 7.93273 101.133 9.56222C101.04 12.0879 100.157 14.3045 99.1053 16.5701C99.0872 16.6085 99.059 16.6413 99.0237 16.6651C99.0321 17.4523 98.9133 18.2457 98.4969 18.9099C98.3203 19.1901 97.3139 19.7348 97.4919 19.4537C98.2871 18.1834 98.4836 15.6098 98.2148 14.2616C97.8874 12.6155 97.2074 11.1481 96.7168 9.56558C96.2405 8.02463 96.4234 5.34758 98.6128 5.36641ZM97.0685 8.94258L97.1552 9.276C97.5803 10.0852 97.9625 10.9161 98.3003 11.7654C98.2787 11.2851 98.2571 10.8048 98.2394 10.3279L98.2349 9.89715C97.8897 9.04215 97.477 8.21602 97.0008 7.42654C96.9976 7.42127 96.9955 7.41543 96.9947 7.40935C96.9938 7.40327 96.9941 7.39706 96.9957 7.39111C96.9115 7.90753 96.9373 8.43563 97.0714 8.94091L97.0685 8.94258ZM98.8008 14.6539L98.8152 14.6455C98.8452 14.4211 98.8744 14.1953 98.909 13.972C98.7857 13.5587 98.6519 13.1483 98.5076 12.7407C98.5237 13.0516 98.5449 13.3615 98.5623 13.6679C98.6515 13.9845 98.7306 14.3102 98.7995 14.645L98.8008 14.6539ZM99.3982 14.6695C99.3905 14.6613 99.3849 14.6514 99.3815 14.6407C99.3649 14.4586 99.3409 14.2807 99.3149 14.0924C99.2805 14.1526 99.2423 14.213 99.2078 14.2732L99.1891 14.4239C99.2315 14.5739 99.2702 14.7242 99.3097 14.8759L99.3982 14.6695ZM98.916 5.94493C99.4525 6.91717 99.8432 7.96303 100.076 9.04915C100.243 8.07266 100.164 7.12455 99.4082 6.17467C99.2575 6.06948 99.0909 5.98894 98.9147 5.93608L98.916 5.94493ZM98.7237 5.90828C98.4191 5.87123 98.1111 5.94615 97.8571 6.11907C99.0042 7.65625 99.3634 9.69046 99.3633 11.7251C99.4126 11.5374 99.4574 11.3486 99.5119 11.1599C99.6851 10.5574 99.876 9.97554 100.003 9.40347C99.774 8.17201 99.3427 6.98726 98.7268 5.89694L98.7237 5.90828ZM99.3349 12.8115L99.3177 13.1148C99.3503 13.2877 99.3799 13.4489 99.4054 13.6164C99.8849 12.6952 100.213 11.7178 100.159 10.6327C100.148 10.4093 100.124 10.1792 100.093 9.94588C99.859 10.9019 99.5794 11.8496 99.3336 12.8026L99.3349 12.8115ZM99.088 14.0489L99.1146 13.792L99.0765 14.0057L99.088 14.0489ZM99.2676 13.694L99.2425 13.9003C99.256 13.8771 99.2673 13.8534 99.28 13.8288C99.2786 13.7797 99.2758 13.7315 99.2678 13.6843L99.2676 13.694ZM99.2159 15.093L99.141 14.8103C99.1104 15.0369 99.0796 15.2599 99.0454 15.4772L99.2159 15.093ZM99.0222 14.5778L98.9541 14.6862C98.9397 14.7846 98.9231 14.8824 98.9096 14.9822C98.9083 14.9941 98.9041 15.0054 98.8974 15.0153C98.8907 15.0252 98.8817 15.0333 98.8712 15.0389C98.8891 15.1398 98.9032 15.2409 98.9174 15.3421C98.954 15.0857 98.989 14.8277 99.0224 14.5681L99.0222 14.5778ZM98.3189 12.2341C98.0356 11.4868 97.7209 10.7519 97.3682 10.0313C97.6791 11.0426 98.0542 12.0187 98.3692 13.0238C98.3516 12.7502 98.3324 12.4871 98.3191 12.2244L98.3189 12.2341ZM98.4841 12.2538C98.6557 12.7108 98.8139 13.1736 98.9589 13.6422C99.0067 13.3653 99.0567 13.089 99.1128 12.8131C98.9444 11.985 98.7135 11.1709 98.422 10.3778C98.4412 10.9938 98.4602 11.6194 98.4843 12.2441L98.4841 12.2538ZM99.1866 12.4714L99.2047 12.3862C99.2807 10.1601 98.9822 7.86455 97.7346 6.20323C97.6942 6.22654 97.6595 6.2696 97.622 6.30464C98.1711 7.01927 98.3348 7.83561 98.3715 8.7751C98.3847 9.15098 98.3951 9.52853 98.4054 9.90608C98.7324 10.7355 98.9934 11.5895 99.1859 12.4602L99.1866 12.4714ZM100.54 10.6794C100.665 9.5931 100.777 8.31618 100.333 7.29735C100.211 7.02063 100.044 6.76577 99.8399 6.54284C100.305 7.29347 100.465 8.19421 100.286 9.06013C100.251 9.23346 100.214 9.40475 100.176 9.57604C100.236 9.9264 100.278 10.2796 100.303 10.6344C100.376 11.8113 99.9834 12.8723 99.4368 13.8705C99.4593 14.0493 99.4803 14.229 99.4984 14.4102C100.015 13.2164 100.366 11.9578 100.54 10.6697L100.54 10.6794ZM97.3076 6.6626C97.166 6.87048 97.067 7.10425 97.0164 7.35039C97.0223 7.33909 97.0312 7.32959 97.042 7.32285C97.0529 7.31611 97.0653 7.31238 97.0781 7.31206C97.0908 7.31174 97.1034 7.31483 97.1146 7.32102C97.1257 7.3272 97.135 7.33625 97.1415 7.34723C97.5584 8.04406 97.9258 8.76939 98.2409 9.51787C98.2354 8.4127 98.1898 7.31145 97.5111 6.40896C97.4388 6.48642 97.371 6.56787 97.3078 6.65292L97.3076 6.6626Z" fill="#C3937C"/>
<path d="M99.2806 20.7068C100.519 20.0474 101.843 19.1506 103.223 18.8139C104.48 18.5123 107.297 18.6521 107.573 20.3527C107.866 22.2123 105.454 23.7138 103.851 23.5884C101.72 23.4208 99.7539 22.2725 97.5641 22.2462C97.5641 22.2462 97.5482 22.242 97.5399 22.241C96.8131 22.6472 96.0809 23.0642 95.3639 23.4973C95.0755 23.6638 95.1243 22.7094 95.4111 22.54C96.7716 21.7162 97.868 21.4571 99.2806 20.7068ZM98.7256 21.7769C98.9732 21.7618 99.2242 21.7403 99.4785 21.7123C99.6775 21.5974 99.8765 21.4825 100.076 21.3676C99.8427 21.3552 99.6092 21.3618 99.3774 21.3872C99.1564 21.5084 98.9391 21.6383 98.7256 21.7769ZM99.1454 21.8913L99.1619 21.8932L99.1705 21.8882C99.1705 21.8882 99.1528 21.8908 99.1454 21.8913ZM100.061 21.0521C99.9407 21.1041 99.8241 21.1619 99.7075 21.2197C99.9089 21.2133 100.111 21.2199 100.311 21.2394C100.506 21.127 100.7 21.0146 100.895 20.9193C100.614 20.943 100.335 20.9874 100.061 21.0521ZM101.206 20.7551C101.387 20.6621 101.57 20.5698 101.752 20.482C101.402 20.5653 101.057 20.6679 100.718 20.7894C100.882 20.7714 101.045 20.76 101.206 20.7551ZM100.559 21.2689C100.854 21.3114 101.146 21.3726 101.434 21.4522C102.112 21.3519 102.791 21.2553 103.47 21.1893C102.746 20.9826 101.995 20.8854 101.242 20.901C101.015 21.0192 100.785 21.1419 100.559 21.2689ZM100.345 21.3921C100.181 21.487 100.017 21.5819 99.8522 21.6768C100.26 21.6333 100.661 21.5723 101.065 21.5134C100.826 21.4544 100.584 21.4105 100.34 21.382L100.345 21.3921ZM104.523 19.1908C103.221 19.1759 102.128 19.8069 101.006 20.3877C100.663 20.5642 100.323 20.7436 99.9822 20.923C99.9891 20.9182 99.9963 20.914 100.004 20.9105C100.754 20.5764 101.545 20.34 102.355 20.207C103.496 19.7248 104.689 19.4137 105.983 19.4701C105.518 19.2846 105.022 19.1888 104.522 19.1879L104.523 19.1908ZM106.246 19.6037C106.241 19.6136 106.233 19.6219 106.223 19.6275C106.214 19.6332 106.203 19.6359 106.191 19.6353C105.092 19.5688 103.991 19.7407 102.964 20.1392C104.321 20.0035 105.69 20.1541 106.984 20.5815C106.945 20.3717 106.859 20.1739 106.73 20.0036C106.602 19.8334 106.436 19.6955 106.245 19.6008L106.246 19.6037ZM106.975 21.0391C106.991 20.9388 106.997 20.8372 106.992 20.7358C105.512 20.2368 103.931 20.108 102.388 20.3605C102.102 20.4815 101.819 20.6142 101.538 20.7534C102.329 20.7763 103.113 20.9121 103.865 21.1569C104.866 21.0652 105.875 21.1117 106.863 21.2953C106.878 21.2988 106.891 21.3079 106.899 21.3207C106.933 21.2285 106.958 21.1332 106.973 21.0362L106.975 21.0391ZM106.853 21.4314C106.845 21.4364 106.838 21.4406 106.824 21.4369C105.97 21.2739 105.098 21.2186 104.229 21.2724C104.936 21.5271 105.621 21.8367 106.279 22.1983C106.524 21.9863 106.719 21.7236 106.852 21.4285L106.853 21.4314ZM106.15 22.3015C105.414 21.8983 104.641 21.5637 103.843 21.302C103.15 21.3547 102.458 21.4476 101.762 21.5445C102.838 21.8823 103.893 22.4044 104.859 22.7958C104.871 22.8007 104.882 22.8087 104.891 22.8189C104.899 22.8291 104.905 22.8413 104.907 22.8543C104.91 22.8672 104.909 22.8807 104.905 22.8933C104.901 22.906 104.894 22.9175 104.885 22.9267C105.342 22.7998 105.771 22.5866 106.149 22.2986L106.15 22.3015ZM101.939 22.564C102.517 22.7193 103.13 22.9617 103.721 23.0462C104.097 23.0867 104.477 23.0523 104.839 22.9451L104.829 22.9509C103.781 22.5266 102.612 21.9303 101.429 21.608C100.798 21.7024 100.165 21.7954 99.5314 21.8639L99.3872 21.9472C100.248 22.0986 101.103 22.3352 101.941 22.5669L101.939 22.564ZM98.4307 21.7957C98.5691 21.7024 98.7092 21.6119 98.8517 21.5258C98.6945 21.6166 98.5301 21.6981 98.3704 21.7845L98.4307 21.7957Z" fill="#C3937C"/>
<path d="M102.124 14.9689C103.449 13.3663 105.373 12.1827 107.272 11.3892C108.462 10.8936 110.576 10.1183 111.799 10.9785C113.456 12.1466 111.876 14.1727 110.513 14.6417C109.214 15.0866 107.746 14.9142 106.4 14.922C105.437 14.9082 104.473 14.986 103.524 15.1544C103.472 15.1843 103.426 15.2244 103.379 15.2607C103.333 15.297 103.286 15.2553 103.278 15.2058C102.524 15.3785 101.265 16.581 100.572 17.012C100.289 17.1886 100.561 15.8118 100.843 15.6361C101.239 15.3899 101.659 15.1839 102.097 15.0212C102.104 15.0028 102.113 14.9852 102.124 14.9689ZM111.712 11.9263C109.185 12.2063 106.753 13.0568 104.601 14.4133C105.875 14.0585 107.188 13.8711 108.509 13.8559C109.666 13.485 110.783 13.0006 111.845 12.4096C111.833 12.2455 111.788 12.0857 111.712 11.9397L111.712 11.9263ZM104.066 14.5346L104.163 14.5205C104.253 14.4688 104.336 14.4072 104.423 14.3535C104.3 14.4206 104.181 14.4814 104.062 14.5423L104.066 14.5346ZM111.631 11.7891C111.514 11.6242 111.364 11.4855 111.19 11.382C110.316 11.7129 109.45 12.0598 108.593 12.4229C109.584 12.124 110.6 11.9145 111.628 11.7968L111.631 11.7891ZM105.108 14.4352C105.378 14.4202 105.65 14.4096 105.924 14.4032C106.004 14.4013 106.084 14.4031 106.165 14.4018C106.652 14.3125 107.146 14.231 107.63 14.1069C107.737 14.0795 107.842 14.0492 107.947 14.0212C106.989 14.071 106.037 14.2122 105.105 14.4428L105.108 14.4352ZM103.145 14.6981C103.144 14.6865 103.147 14.675 103.153 14.6649C103.159 14.6548 103.167 14.6465 103.177 14.641C105.352 13.4659 107.527 12.2912 109.703 11.1171C108.898 11.1983 108.026 11.5426 107.258 11.9111C106.049 12.7799 104.791 13.579 103.491 14.3047C103.34 14.4398 103.194 14.5774 103.051 14.7194C103.073 14.7241 103.103 14.7163 103.136 14.7091L103.145 14.6981ZM104.145 13.766C104.88 13.3339 105.601 12.8787 106.308 12.4003C106.221 12.4502 106.139 12.4977 106.06 12.5435C105.387 12.9076 104.742 13.321 104.13 13.7803L104.145 13.766ZM110.055 11.0918L103.536 14.6139L103.62 14.5983C106.024 13.3505 108.498 12.2424 111.029 11.2795C110.913 11.2257 110.792 11.1832 110.667 11.1527C110.461 11.1119 110.251 11.0963 110.041 11.1061L110.055 11.0918ZM111.392 13.5472C111.667 13.2904 111.835 12.9399 111.864 12.5655C110.946 13.0723 109.988 13.5012 108.999 13.8476C109.581 13.8567 110.18 13.896 110.795 13.9611C111.009 13.8589 111.205 13.7241 111.377 13.5615L111.392 13.5472ZM108.986 14.3747C109.511 14.3528 110.03 14.2546 110.527 14.0832C109.871 14.0172 109.212 13.9874 108.553 13.9939C108.437 14.03 108.321 14.0661 108.205 14.1008C107.782 14.2219 107.356 14.315 106.928 14.3969C107.598 14.4222 108.287 14.4367 108.971 14.389L108.986 14.3747Z" fill="#C3937C"/>
<path d="M106.698 6.68278C107.602 5.11409 112.475 0.143397 113.881 3.80358C114.425 5.21533 113.004 6.05108 111.854 6.34095C109.804 6.8593 106.884 6.4548 105.411 8.33525C105.206 8.59714 104.842 8.23373 105.042 7.9729C105.472 7.45156 106.028 7.04852 106.658 6.80214C106.661 6.75963 106.675 6.71862 106.698 6.68278ZM111.745 3.22093C110.434 3.97774 109.164 4.77822 108.144 5.89616C108.343 5.83709 108.546 5.7887 108.75 5.75116C109.019 5.61939 109.283 5.48185 109.55 5.3472C109.55 5.3472 109.555 5.33048 109.566 5.32465C110.531 4.79226 111.381 4.0712 112.062 3.20452C111.955 3.20512 111.848 3.21087 111.745 3.22093ZM108.098 6.06275C108.048 6.07993 107.999 6.09856 107.95 6.11717L107.924 6.14556L108.098 6.06275ZM107.521 6.33848C107.585 6.30102 107.655 6.27445 107.723 6.24274C107.716 6.23405 107.71 6.22434 107.706 6.21397C107.66 6.24061 107.61 6.25636 107.555 6.28428L107.521 6.33848ZM107.733 6.03965C107.774 6.01551 107.823 6.00658 107.868 5.99046C108.844 4.85133 110.066 4.04267 111.346 3.28397C111.25 3.30547 111.154 3.33242 111.06 3.36472C109.728 3.84812 108.581 4.88084 107.731 6.04049L107.733 6.03965ZM112.248 3.2043C111.811 3.77506 111.302 4.2873 110.734 4.72837C111.524 4.30717 112.303 3.87243 113.076 3.41876C112.82 3.28317 112.534 3.21051 112.244 3.2068L112.248 3.2043ZM113.207 3.51201C111.948 4.25595 110.665 4.95076 109.36 5.60818C109.39 5.5907 109.426 5.58555 109.46 5.57526C110.782 5.17065 112.161 5.17795 113.426 4.57805C113.452 4.51508 113.471 4.44982 113.485 4.38315C113.521 4.22622 113.514 4.06253 113.464 3.90955C113.414 3.75657 113.324 3.62004 113.202 3.51451L113.207 3.51201ZM113.325 4.78598C112.401 5.18341 111.441 5.283 110.458 5.48227C110.234 5.52722 110.017 5.58368 109.798 5.64468C110.588 5.61284 111.392 5.67016 112.163 5.69675C112.599 5.51003 113.076 5.19797 113.321 4.78848L113.325 4.78598ZM110.231 6.04707C110.735 6.01309 111.236 5.94338 111.731 5.83849L111.771 5.82715C110.906 5.762 110.037 5.76529 109.173 5.837C108.666 6.01579 108.17 6.22456 107.688 6.46223C108.523 6.2607 109.371 6.12276 110.226 6.04957L110.231 6.04707Z" fill="#C3937C"/>
<path d="M101.036 0.0458961C102.205 -0.22429 103.31 0.737029 103.821 1.68622C104.882 3.64931 104.14 6.02548 103.921 8.10026C104.079 8.64289 104.196 9.19667 104.27 9.75693C104.313 10.0811 103.812 10.213 103.769 9.88878C103.696 9.33206 103.579 8.78191 103.421 8.24323C103.415 8.22755 103.411 8.21135 103.409 8.19486C103.127 7.26203 102.735 6.36651 102.24 5.52746C101.642 4.49198 100.828 3.54263 100.398 2.42026C100.042 1.51369 99.8321 0.32494 101.036 0.0458961ZM100.611 1.72383C101.46 2.79459 101.954 4.07614 102.676 5.23129C102.681 5.23992 102.684 5.24422 102.688 5.25141L102.692 5.2586C102.748 5.35496 102.803 5.44988 102.858 5.54624C102.335 3.97464 101.714 2.46191 100.611 1.20192C100.581 1.37458 100.58 1.55125 100.611 1.72383ZM103.251 6.33595C103.353 6.55304 103.446 6.7714 103.536 6.99371C103.518 6.91817 103.498 6.8449 103.482 6.76997C103.473 6.76364 103.466 6.75547 103.46 6.74605C103.455 6.73662 103.452 6.72615 103.45 6.71532L103.44 6.56409C103.267 5.70514 103.192 4.83573 102.974 3.98775C102.637 2.68872 101.889 1.53387 100.842 0.695028C100.749 0.790221 100.68 0.906245 100.641 1.03336C101.998 2.54731 102.657 4.42547 103.255 6.34313L103.251 6.33595ZM103.736 5.65859C103.286 3.95301 103.255 2.29333 102.314 0.811257C102.196 0.745631 102.073 0.688464 101.946 0.640185C103.165 2.36803 103.426 4.44547 103.588 6.54017L103.607 6.63426C103.656 6.31121 103.702 5.98899 103.741 5.66578L103.736 5.65859ZM101.712 0.5607C101.468 0.480876 101.202 0.497109 100.969 0.606094C101.831 1.30038 102.498 2.20672 102.903 3.23643C103.005 3.51346 103.089 3.79679 103.154 4.08465C102.916 2.82846 102.518 1.63334 101.716 0.567882L101.712 0.5607ZM102.77 1.13106L102.714 1.0846C103.357 2.37418 103.454 3.79831 103.785 5.23578C103.84 4.69107 103.846 4.14247 103.8 3.59706C103.725 2.70086 103.46 1.77235 102.774 1.13826L102.77 1.13106ZM101.864 4.08014C101.526 3.38659 101.14 2.71763 100.708 2.0782C100.928 2.74294 101.412 3.45484 101.868 4.08733L101.864 4.08014Z" fill="#C3937C"/>
</svg>
