<svg width="164" height="79" viewBox="0 0 164 79" fill="none" xmlns="http://www.w3.org/2000/svg">
<path d="M1.3214 13.9272C1.55312 14.3455 1.60775 14.4539 1.75326 14.7166C24.2138 55.2624 75.4878 69.9687 116.05 47.499C130.588 39.4715 142.407 27.2977 150 12.5301C151.543 9.52982 155.867 2.38932 155.867 2.38932C148.945 22.0999 135.014 38.5788 116.727 48.6872C75.5082 71.5209 23.3966 56.5761 0.569936 15.3694C0.424806 15.1075 0.281198 14.845 0.139126 14.5822C-0.486195 13.4253 1.19083 13.1796 1.3214 13.9272Z" fill="black"/>
<path d="M58.4088 32.8786C59.8154 34.0456 60.9709 35.5293 60.7917 37.4271C60.6433 39.0645 59.7792 40.5354 58.688 41.7248C56.1455 44.4999 52.5359 45.6794 48.8935 46.1529C43.7526 46.814 33.4154 44.2256 33.3629 44.0962C32.3812 44.5799 31.926 45.5154 30.9023 45.9184C30.4537 46.0959 29.5494 44.9569 29.998 44.7795C33.2759 43.5068 36.3521 41.7659 39.1307 39.611C41.7168 37.5907 43.8104 35.0124 46.4366 33.0547C50.0889 30.3481 54.7677 29.8499 58.4088 32.8786ZM53.6697 31.5898C53.6755 31.6056 53.6776 31.6226 53.6758 31.6393C53.674 31.6561 53.6684 31.6722 53.6594 31.6865C53.6503 31.7007 53.6382 31.7127 53.6238 31.7215C53.6094 31.7303 53.5932 31.7356 53.5764 31.7372C49.2892 31.9254 46.5098 34.9985 43.7502 37.8802C44.4339 37.3867 45.1326 36.9203 45.8594 36.4849C49.1901 34.5041 52.8725 33.1863 56.7036 32.6042C56.4766 32.4758 56.2412 32.3519 56 32.2423C55.2639 31.9069 54.481 31.6853 53.6781 31.5851L53.6697 31.5898ZM40.4543 44.3252C40.2631 44.3091 40.0703 44.2901 39.876 44.2684C40.0255 44.3113 40.1748 44.3489 40.3253 44.3885C40.331 44.3743 40.3404 44.3619 40.3523 44.3524C40.3643 44.3428 40.3786 44.3366 40.3937 44.3342L40.4543 44.3252ZM36.4865 43.6833C36.6412 43.6363 36.7932 43.5813 36.9421 43.5184C36.6681 43.5718 36.3974 43.6261 36.1253 43.6729C36.2396 43.667 36.3653 43.6767 36.4865 43.6833ZM37.2502 43.6156C37.2502 43.6156 37.2607 43.6098 37.267 43.6063L37.2502 43.6156ZM37.4458 43.7614C37.5436 43.7701 37.6437 43.783 37.7385 43.7961L37.546 43.725C37.5228 43.7325 37.4858 43.7447 37.4521 43.7579L37.4458 43.7614ZM37.509 43.4805L37.5612 43.5007C37.772 43.4222 37.9807 43.3448 38.1892 43.2621C38.0238 43.2991 37.8574 43.3394 37.7024 43.3706C37.6366 43.4098 37.5759 43.4434 37.5153 43.477L37.509 43.4805ZM37.8572 43.6155C38.1468 43.7285 38.4303 43.8256 38.7191 43.9225L38.7804 43.9296C39.7155 44.0557 40.6581 44.118 41.6017 44.116C48.1756 42.8088 54.3691 40.032 59.7186 35.9934C59.6913 35.9046 59.661 35.8203 59.6284 35.7318C55.4753 37.6367 51.214 39.2963 46.8665 40.7021C44.4295 41.5054 41.9506 42.332 39.4281 42.9613C38.925 43.1935 38.3999 43.4105 37.8677 43.6097L37.8572 43.6155ZM38.6916 44.1346C38.104 44.061 37.5301 43.9826 36.9427 43.939C36.8139 43.983 36.6886 44.0333 36.5587 44.0752C36.5393 44.0802 36.5188 44.0793 36.4998 44.0728C36.4809 44.0663 36.4642 44.0544 36.452 44.0385C36.4397 44.0226 36.4323 44.0035 36.4308 43.9835C36.4292 43.9635 36.4335 43.9435 36.4432 43.926C36.2909 43.9689 36.136 44.0026 35.9796 44.027C39.6114 44.7485 43.2698 45.6957 46.955 45.5758C44.1464 45.5092 41.3638 45.0218 38.7 44.1299L38.6916 44.1346ZM36.644 43.3555L36.5939 43.3341C36.5583 43.3538 36.5248 43.3723 36.4893 43.3921C36.5497 43.3777 36.6038 43.3668 36.6559 43.3571L36.644 43.3555ZM37.0274 43.2825C37.2271 43.243 37.4278 43.2056 37.6272 43.1608C38.3322 42.7108 38.9808 42.178 39.5591 41.5739C38.696 42.1839 37.7903 42.7313 36.8489 43.212L37.0274 43.2825ZM56.9457 32.7599C56.9394 32.768 56.9316 32.7748 56.9226 32.7798C56.9136 32.7848 56.9036 32.7879 56.8934 32.7888C52.2979 33.462 47.9226 35.1978 44.1154 37.8583C43.5487 38.2569 43.0154 38.6862 42.4977 39.1288C42.0143 39.5989 41.5205 40.0501 41.0126 40.4709C40.3618 41.0829 39.7188 41.7042 39.054 42.3157C38.7821 42.5669 38.4968 42.8034 38.1995 43.0241C38.5983 42.9344 39.0001 42.8403 39.4056 42.7332C42.4553 41.3772 45.2935 39.6 48.2842 38.0882C51.638 36.4025 55.2432 35.3484 58.84 34.3481C58.3077 33.7157 57.671 33.179 56.9575 32.7615L56.9457 32.7599ZM58.9684 34.5503C54.846 35.7024 50.8235 36.9658 47.0306 39.004C44.8814 40.1591 42.7736 41.3841 40.5824 42.4339C42.488 41.9249 44.3768 41.2968 46.2333 40.6893C50.7724 39.2451 55.2191 37.5249 59.5485 35.5382C59.3964 35.1894 59.2058 34.8585 58.9803 34.5519L58.9684 34.5503ZM59.7833 36.209C54.7102 40.0226 48.8816 42.7099 42.6873 44.0914C43.4677 44.0636 44.2499 44.0048 45.0559 43.9246C50.1285 43.4461 55.2712 42.5761 59.4139 39.4121C59.9299 38.4278 60.0656 37.2882 59.7952 36.2106L59.7833 36.209ZM59.1754 39.8503C55.7199 42.3495 51.629 43.361 47.4261 43.8989C45.4442 44.1468 43.4098 44.3936 41.4007 44.375C41.1643 44.4221 40.9248 44.4637 40.6822 44.4997C43.6856 45.2684 46.7964 45.5304 49.8864 45.2748C53.5368 44.6576 57.3046 43.0679 59.1873 39.852L59.1754 39.8503ZM35.6568 43.528C35.8753 43.4288 36.0926 43.3275 36.3065 43.22C36.0708 43.1155 35.8352 43.0109 35.5993 42.9011C35.1202 43.1665 35.0555 43.2324 34.5601 43.4931C34.9262 43.5559 35.2991 43.5681 35.6686 43.5296L35.6568 43.528ZM46.0894 34.2692C43.5325 36.3717 41.3828 38.8882 38.706 40.863C37.7809 41.5449 36.8218 42.1793 35.8323 42.7638C36.0725 42.8767 36.3137 42.9864 36.5601 43.0904C40.0583 41.2756 42.6086 38.5836 45.4955 35.7244C47.6784 33.5639 50.1471 31.781 53.2761 31.5455C50.701 31.3593 48.239 32.5126 46.1013 34.2709L46.0894 34.2692Z" fill="black"/>
<path d="M30.4571 45.0308C31.5253 46.8061 32.5082 48.6396 33.4492 50.4963C33.5119 50.4977 33.5729 50.517 33.625 50.552C38.3689 53.6859 43.9068 55.7158 48.2153 59.4954C51.394 62.2718 54.8071 67.2089 52.7017 71.5431C50.5963 75.8773 45.9903 74.6952 43.2008 71.8316C39.4501 67.9781 38.2775 62.4504 36.0928 57.702C34.1777 53.534 30.4433 49.0783 28.0721 45.1384C27.8321 44.7247 30.2119 44.6227 30.4571 45.0308ZM39.717 62.6697C39.1223 62.0575 38.5701 61.4054 38.0643 60.718C38.7957 62.6553 39.5265 64.6065 40.4335 66.4411C40.2026 65.205 39.9779 63.9355 39.7232 62.6662L39.717 62.6697ZM36.1666 56.0976C36.2129 56.1813 36.2467 56.2719 36.2856 56.357C37.1022 57.8017 38.0771 59.1511 39.1924 60.3801C38.9772 59.5426 38.7349 58.7202 38.4464 57.9179C37.5662 57.2947 36.7533 56.5817 36.0209 55.7902L36.1666 56.0976ZM36.9191 57.8018C37.218 58.519 37.5046 59.2486 37.7849 59.9817C38.2408 60.6898 38.7557 61.3583 39.324 61.98C39.4283 62.0943 39.5369 62.2064 39.6455 62.3185C39.5386 61.8146 39.4252 61.3089 39.3014 60.8089C38.4416 59.8604 37.6458 58.8558 36.9191 57.8018ZM35.5252 54.7473C35.5252 54.7473 35.5333 54.762 35.5379 54.7703C35.5704 54.8289 35.6016 54.8854 35.6141 54.9523L35.7174 55.1684C36.4888 56.1128 37.3741 56.9582 38.3531 57.6853C38.2938 57.524 38.2337 57.366 38.1702 57.2071C36.9761 56.1862 35.9193 55.0151 35.026 53.7228L35.5252 54.7473ZM38.6564 57.8972C38.9101 58.0737 39.1689 58.2447 39.4348 58.409C39.5929 58.5018 39.754 58.5902 39.9198 58.687C39.4462 58.2961 38.9747 57.904 38.5125 57.5041C38.5618 57.6325 38.6125 57.7685 38.6611 57.9056L38.6564 57.8972ZM34.2249 51.8077C35.0877 53.7897 36.4698 55.3666 38.0108 56.8007C37.3492 55.1657 36.3911 53.6671 35.1847 52.3803C34.8655 52.199 34.5438 52.0083 34.2284 51.814L34.2249 51.8077ZM34.0819 51.7174L34.0478 51.6954L34.0652 51.7267C34.0715 51.7236 34.0785 51.7226 34.0854 51.7237L34.0819 51.7174ZM37.5305 53.6829C38.8941 54.8956 40.1827 56.1852 41.5826 57.3696C43.8282 59.2662 46.7721 60.4835 49.4452 61.7797C49.2462 61.5538 49.0495 61.332 48.8512 61.1221C45.7327 57.8422 41.5503 55.8404 37.534 53.6892L37.5305 53.6829ZM49.7936 62.1963C47.1871 60.9069 44.324 59.7268 41.9906 57.9827C40.1005 56.5451 38.4694 54.7755 36.6556 53.2191L35.7698 52.7258C36.8774 54.0386 37.7549 55.5292 38.3652 57.1346C39.1072 57.7978 39.8825 58.4371 40.6575 59.071C42.244 59.8322 43.9411 60.3981 45.463 61.3289C48.5219 63.2178 50.6477 66.2112 52.5989 69.1757C52.7817 66.6773 51.3951 64.1545 49.7913 62.1921L49.7936 62.1963ZM52.2611 70.7131C52.4026 70.3257 52.502 69.9243 52.5575 69.5156C49.7815 65.3435 46.952 62.0375 42.1973 59.9947C41.8811 59.8583 41.5753 59.716 41.2705 59.5705C42.1799 60.3186 43.0778 61.0758 43.9042 61.8863C46.9536 64.8972 49.5039 68.3745 51.4592 72.1877C51.7982 71.7375 52.0677 71.239 52.2587 70.7089L52.2611 70.7131ZM51.3172 72.3757C49.1302 68.0859 46.1885 64.2251 42.6327 60.978C41.9594 60.3698 41.2561 59.7863 40.556 59.2037C39.9295 58.8762 39.3225 58.5124 38.7384 58.1142C39.0301 58.9667 39.2798 59.8369 39.499 60.7213C40.6803 62.0541 41.9282 63.3444 43.0476 64.7333C45.2207 67.4571 47.0443 70.4422 48.4758 73.619C49.0133 73.6459 49.5498 73.5472 50.0427 73.3306C50.5355 73.1141 50.9711 72.7857 51.3149 72.3715L51.3172 72.3757ZM48.2291 73.6081C46.4724 69.7657 44.1468 66.21 41.3307 63.0604C40.7532 62.4128 40.1723 61.7888 39.5948 61.1411C39.7094 61.6243 39.8176 62.111 39.9196 62.6012C40.622 63.2486 41.2804 63.9422 41.8901 64.6775C43.469 66.733 43.926 69.2214 44.3279 71.7239C44.3306 71.7388 44.3301 71.7541 44.3265 71.7688C44.3228 71.7835 44.3162 71.7974 44.3068 71.8093C45.4686 72.7811 46.8837 73.4896 48.2268 73.6039L48.2291 73.6081ZM44.088 71.6217C43.5122 68.114 42.5376 65.5352 39.9914 62.9578C40.274 64.3565 40.516 65.7558 40.7784 67.1083C41.456 68.4233 42.2842 69.655 43.2464 70.7786C43.5086 71.0753 43.7889 71.3555 44.0857 71.6175L44.088 71.6217Z" fill="black"/>
<path d="M79.2838 38.092C82.2831 38.2592 83.9949 39.7845 83.4839 42.9048C82.7433 47.4369 77.8054 49.437 74.0724 51.0157C68.6419 53.316 62.9319 54.0109 57.0856 54.2675C57.0083 54.2757 56.9307 54.2542 56.8687 54.2073C56.8067 54.1604 56.7648 54.0917 56.7517 54.0151C55.3322 54.908 54.939 56.1727 52.9592 56.4194C52.4917 56.4788 51.0577 55.1439 51.5326 55.0831C58.2372 54.2336 60.6421 48.7768 65.0406 44.5936C68.697 41.1195 74.0353 37.7988 79.2838 38.092ZM68.1425 42.9765C65.0067 46.2733 61.8261 49.5286 58.6005 52.7422C62.8001 51.848 65.5647 48.2694 68.2998 45.1361C70.9246 42.1296 73.7122 40.3202 77.3245 38.8248C75.6359 39.1517 73.9958 39.6928 72.4441 40.435C70.9315 41.1412 69.4908 41.9923 68.1425 42.9765ZM57.8848 53.494C58.1045 53.3969 58.3253 53.3019 58.5427 53.2006C58.5402 53.1889 58.5401 53.1768 58.5424 53.165C58.5448 53.1532 58.5495 53.142 58.5563 53.1321C58.5631 53.1222 58.5718 53.1138 58.5819 53.1074C58.5921 53.101 58.6034 53.0967 58.6153 53.0948C58.712 53.0768 58.8042 53.0557 58.9009 53.0377C58.9975 53.0197 59.0118 52.9763 59.0683 52.945C58.8473 52.9608 58.6273 52.9734 58.4061 52.9838C58.3831 52.9966 58.352 52.9947 58.3244 52.999C58.162 53.1601 58.0029 53.322 57.8426 53.4818C57.857 53.4844 57.8712 53.4885 57.8848 53.494ZM59.7145 52.6554C59.658 52.6867 59.5911 52.6992 59.5276 52.7179C59.5444 52.7086 59.5713 52.7128 59.5927 52.7119C59.614 52.711 59.6849 52.6663 59.7249 52.6496L59.7145 52.6554ZM78.0197 38.7322C78.0159 38.7456 78.0088 38.7579 77.9992 38.768C77.9895 38.7781 77.9776 38.7857 77.9643 38.7902C75.6088 39.726 73.2784 40.6972 71.3224 42.3492C69.4988 43.8897 68.0421 45.8064 66.4683 47.5856C65.2382 48.9832 63.9022 50.3082 62.3892 51.3185C68.7912 47.9669 74.6898 43.7314 79.9115 38.7365C79.2872 38.6568 78.6554 38.6534 78.0302 38.7264L78.0197 38.7322ZM80.1766 38.7756C74.2966 44.4273 67.5578 49.1115 60.2111 52.6536C60.3017 52.6444 60.3914 52.6384 60.4737 52.6339C62.1941 51.9979 63.9555 51.4212 65.714 50.8243C67.9175 49.8094 69.9856 48.5233 71.8702 46.9958C75.1048 44.384 77.8617 41.2606 81.5639 39.2808C81.1386 39.0308 80.6725 38.8578 80.187 38.7698L80.1766 38.7756ZM81.874 39.4753C81.8463 39.455 81.8169 39.4413 81.7893 39.4211C77.5747 41.6409 74.5749 45.3527 70.7791 48.1359C69.6793 48.9428 68.5224 49.6687 67.3173 50.3079C73.1244 48.3319 78.7703 46.0353 82.6157 40.9968C82.6266 40.9835 82.6404 40.9729 82.656 40.9658C82.6717 40.9587 82.6888 40.9552 82.706 40.9558C82.7232 40.9563 82.74 40.9607 82.7552 40.9688C82.7704 40.9768 82.7835 40.9882 82.7936 41.0021C82.6989 40.3899 82.3716 39.8379 81.8798 39.4611L81.874 39.4753ZM82.8068 41.0604C82.8068 41.0604 82.809 41.0893 82.7958 41.1048C78.6148 46.5888 72.3209 48.8508 66 50.9556C64.7536 51.5376 63.4689 52.0337 62.1549 52.4405C69.1154 51.5104 75.7854 49.0559 81.6889 45.2522C81.7006 45.2441 81.7139 45.2389 81.7279 45.2368C81.7419 45.2348 81.7562 45.2359 81.7697 45.2402C81.7766 45.2289 81.7844 45.2181 81.793 45.2081C82.4486 44.1999 83.0655 42.4505 82.8126 41.0463L82.8068 41.0604ZM81.487 45.6182C75.2556 49.5704 68.1955 52.0296 60.8577 52.8038C60.5983 52.8737 60.3387 52.9382 60.0769 52.9985C59.7092 53.1394 59.3405 53.2835 58.9763 53.4306C64.2582 53.0931 69.3842 52.2816 74.2958 50.1157C76.7699 49.0239 79.7985 47.8272 81.4986 45.6145L81.487 45.6182ZM57.5215 53.5094L57.6017 53.4321L57.4894 53.5107L57.5215 53.5094ZM62.2904 48.7165C63.8799 47.1071 65.4545 45.4823 67.0141 43.8421C65.913 44.7396 64.8872 45.7256 63.9469 46.7903C63.3894 47.4326 62.8428 48.0798 62.302 48.7128L62.2904 48.7165Z" fill="black"/>
<path d="M50.94 54.3836C52.2429 55.459 53.4322 56.6649 54.4895 57.9824C54.5725 57.961 54.6604 57.9694 54.7378 58.0061C57.3281 59.2044 60.0717 60.0393 62.8907 60.487C64.8372 60.8219 66.686 61.2026 68.4731 62.0741C72.2568 63.914 76.7907 67.8831 76.7766 72.5075C76.7637 76.6009 71.6132 79.1944 68.1096 77.5492C64.4207 75.8262 62.4013 71.2923 60.3662 68.0135C57.5255 63.4482 53.4033 58.6278 49.1662 55.1995C48.7903 54.8912 50.573 54.0813 50.94 54.3836ZM59.8914 60.8283C60.0372 60.9334 60.1869 61.0309 60.3324 61.1307C61.6107 61.7409 62.8059 62.5117 63.889 63.4244C67.2094 65.3802 70.7411 66.9532 74.4163 68.1133C73.3391 66.4593 71.9335 65.0443 70.2866 63.9558C70.2677 63.9648 70.2466 63.9679 70.226 63.9648C67.8692 63.5972 65.553 63.0059 63.3086 62.1989C61.6255 61.5843 60.0352 60.7323 58.325 60.1872L57.9551 60.0724C57.7524 60.0125 57.549 59.9611 57.3425 59.9142C57.4469 59.9794 57.5493 60.0457 57.6519 60.1173C58.3653 60.3247 59.0652 60.576 59.7476 60.8697C59.7512 60.8554 59.7584 60.8423 59.7684 60.8315C59.7784 60.8207 59.7909 60.8126 59.8049 60.8078C59.8188 60.8031 59.8337 60.8019 59.8482 60.8044C59.8628 60.8069 59.8764 60.8129 59.888 60.822L59.8914 60.8283ZM56.0196 59.9993C57.3449 60.8614 58.6964 61.7117 60.0144 62.6052C59.3066 61.7439 58.4887 60.9794 57.5817 60.3312C57.053 60.1654 56.5161 60.0267 55.9733 59.9156L56.0196 59.9993ZM55.8064 59.6883C55.8189 59.6813 55.8294 59.6755 55.8398 59.6697C56.2152 59.7352 56.586 59.8222 56.9571 59.9146L56.7431 59.7898C56.5673 59.7588 56.3908 59.7117 56.2191 59.7029C56.1974 59.7006 56.1769 59.6918 56.1602 59.6778C56.1435 59.6637 56.1313 59.645 56.1253 59.624C56.1192 59.6031 56.1196 59.5807 56.1262 59.5599C56.1329 59.5392 56.1456 59.5208 56.1627 59.5073C56.1005 59.4789 56.0413 59.4461 55.9803 59.4197C55.9604 59.4098 55.944 59.3941 55.9333 59.3747C55.9225 59.3553 55.9179 59.3331 55.92 59.311C55.7359 59.2353 55.5613 59.1571 55.364 59.0724L55.8064 59.6883ZM61.927 61.0673C61.3747 60.9687 60.8325 60.8537 60.2919 60.7268C61.091 61.0685 61.8866 61.4287 62.7029 61.7473C65.0189 62.6342 67.419 63.2836 69.8663 63.6857C69.488 63.447 69.0978 63.2231 68.6957 63.014C66.5197 61.8797 64.3075 61.4897 61.9235 61.061L61.927 61.0673ZM74.5343 68.2967C74.5247 68.3162 74.5082 68.3316 74.488 68.3397C74.4678 68.3479 74.4453 68.3483 74.4248 68.3409C71.0426 67.28 67.78 65.8702 64.6897 64.1344C66.1587 65.5373 67.401 67.1233 69.1198 68.2566C71.0524 69.534 73.5973 70.3765 75.7925 71.1011C75.651 70.5465 75.4518 70.0082 75.1982 69.4951C74.992 69.0736 74.7707 68.6741 74.5308 68.2904L74.5343 68.2967ZM75.844 71.3322C75.844 71.3322 75.8439 71.3322 75.8293 71.3403C72.3672 70.1996 68.9216 68.812 66.3432 66.1567C65.3115 65.0788 64.2016 64.0784 63.0227 63.1636C62.2249 62.6762 61.4442 62.1603 60.6702 61.6269C59.874 61.1886 59.0422 60.8182 58.1838 60.5197C59.038 61.2302 59.8083 62.036 60.4795 62.9215C61.9978 63.9395 63.431 65.0789 64.7649 66.3285C68.0996 69.5297 70.9175 72.8395 74.8801 75.3183C75.9362 74.1347 76.1361 72.7284 75.8405 71.3259L75.844 71.3322ZM74.674 75.5336C74.6991 75.5197 74.7129 75.4902 74.7345 75.4701C71.2599 73.2948 68.5493 70.5735 65.7321 67.6104C64.2751 66.1158 62.6808 64.7615 60.9702 63.5654C61.6774 64.5212 62.3434 65.5161 63.0392 66.4563C65.851 70.2587 68.918 73.8405 72.5 76.9402C73.3088 76.6151 74.0459 76.1344 74.6694 75.5252L74.674 75.5336ZM72.2757 77.0043C69.2517 74.3367 66.5031 71.3725 64.0711 68.1561C62.9003 66.6399 61.8212 64.8597 60.5762 63.2588C59.3062 62.3633 57.9998 61.5154 56.6987 60.6672C61.7295 64.9706 63.1175 72.0818 67.9037 76.6C68.2897 76.8237 68.6994 77.0037 69.1253 77.1368C70.1626 77.4299 71.2665 77.3834 72.2757 77.0043ZM63.4586 71.5621C64.4456 73.1118 65.5494 74.8428 67.0408 76.0147C62.8892 71.5414 61.373 65.0478 56.7319 60.9741C57.7276 62.426 58.6618 63.9148 59.5766 65.3541C60.8821 67.4244 62.1434 69.5137 63.4537 71.5731L63.4586 71.5621Z" fill="black"/>
<path d="M77.8969 58.3787C78.9932 58.7089 78.9877 59.5975 79.9473 60.2932C79.9976 60.2867 80.0486 60.29 80.0976 60.3029C86.4178 62.047 94.1267 60.9473 99.5368 65.2838C103.2 68.2238 104.999 74.6507 100.359 77.6967C95.3699 80.9716 90.2131 75.9372 87.9085 71.8757C85.3156 67.2987 82.139 61.0608 76.6677 59.4177C76.2007 59.2855 77.4383 58.2419 77.8969 58.3787ZM83.0119 63.1302C85.8613 65.105 89.026 66.6319 91.531 69.0462C94.1356 71.5613 96.0107 74.7045 97.8328 77.806C99.03 77.6165 100.127 77.0235 100.941 76.1255C99.2324 72.3185 96.5024 69.0596 93.0535 66.7104L92.7179 66.4945C92.1342 66.3095 91.5462 66.1268 90.9595 65.9462C87.8503 64.999 84.8571 63.7068 82.0358 62.0937C82.3722 62.4295 82.6962 62.7775 83.0119 63.1302ZM81.382 61.4664C84.7278 63.508 88.2568 64.8139 91.9341 66.0076C88.6126 64.0346 84.8213 62.7783 81.2509 61.3532L81.3744 61.4625L81.382 61.4664ZM97.2827 64.6847C93.6288 62.6991 89.4153 62.4529 85.2861 61.9687C87.6019 63.192 90.0998 64.0344 92.6838 64.4635C94.8194 64.8138 96.9441 65.1101 98.9764 65.8074C98.4461 65.3863 97.8801 65.0121 97.285 64.6889L97.2827 64.6847ZM99.4602 66.2118C97.0495 65.2758 94.5115 65.0035 91.9766 64.5491C89.3682 64.0807 87.1199 63.186 84.802 61.9636C84.7907 61.958 84.7806 61.9502 84.7725 61.9406C84.7643 61.931 84.7583 61.9199 84.7547 61.9078C83.9413 61.8117 83.1291 61.6931 82.3288 61.5515C85.8671 62.9288 89.5727 64.2326 92.7666 66.2763L93.2929 66.4466C96.6111 67.5003 99.8151 68.7922 102.34 71.2368C102.074 69.2819 100.948 67.5551 99.4649 66.2202L99.4602 66.2118ZM102.359 72.8768C102.41 72.4426 102.417 72.0046 102.381 71.569C99.8935 69.0522 96.7278 67.7801 93.4394 66.7208L93.7369 66.9223C96.9272 69.2407 99.46 72.3483 101.087 75.9405C101.802 75.0683 102.245 74.0062 102.364 72.8852L102.359 72.8768ZM97.5981 77.8267C95.8013 74.7658 93.9452 71.6667 91.3763 69.1866C89.0675 66.9587 86.1999 65.4941 83.5428 63.7381C83.767 64.0047 83.9848 64.2695 84.1972 64.5345C86.6324 65.8209 88.7616 67.6169 90.44 69.8C92.1184 71.9832 93.3066 74.5024 93.9238 77.1862C94.3618 77.3845 94.8163 77.5442 95.2821 77.6638C96.0381 77.8651 96.8252 77.9232 97.6028 77.8351L97.5981 77.8267ZM90.9494 74.9662C89.9294 72.8015 88.6451 70.7716 87.1258 68.9227C88.2962 71.0405 89.3991 73.2585 90.9541 74.9746L90.9494 74.9662ZM86.5935 67.9766C88.5655 70.2012 90.1848 72.7148 91.395 75.43C92.0614 76.0952 92.83 76.6494 93.6716 77.0717C93.0642 74.5302 91.9379 72.1418 90.3634 70.0563C88.7889 67.9709 86.8002 66.2335 84.5221 64.9531C84.7405 65.2339 84.9557 65.5137 85.1621 65.7875C85.6819 66.4894 86.1602 67.221 86.5947 67.9787L86.5935 67.9766Z" fill="black"/>
<path d="M103.823 35.2295C108.761 37.6274 107.061 44.1749 103.929 47.2683C99.0696 52.0704 91.9296 54.044 85.6807 56.2838C85.6218 56.3063 85.5574 56.3105 85.496 56.2959C83.9682 57.4374 83.9856 57.9526 82.1148 58.4751C81.6568 58.6058 79.7296 58.2466 80.1877 58.1159C83.8273 57.0972 86.9334 54.7127 88.8575 51.46C90.5457 48.5841 91.1196 45.1775 92.3718 42.1168C94.1472 37.8287 98.6248 32.7025 103.823 35.2295ZM97.9993 36.1787C97.8277 36.2737 97.6582 36.3676 97.4929 36.4592C97.4929 36.4592 97.4929 36.4592 97.4873 36.4787C95.2721 39.8194 93.5179 43.4437 92.2722 47.2533C92.9727 46.1436 93.6535 45.023 94.3058 43.8854C95.7657 41.3328 97.0823 38.7093 98.295 36.0313C98.1985 36.0792 98.0999 36.1284 98.0014 36.1775L97.9993 36.1787ZM89.7179 51.4534C89.6364 51.6024 89.5505 51.7485 89.4657 51.8965C89.9449 51.6311 90.4429 51.3552 90.9471 51.0759C91.0559 50.7095 91.1523 50.3555 91.2438 50.0369C91.3811 49.5509 91.5209 49.0661 91.6633 48.5827C91.0316 49.5486 90.3839 50.5051 89.72 51.4523L89.7179 51.4534ZM90.4482 52.5249C89.7334 52.9422 88.998 53.3231 88.2448 53.6662C88.1085 53.8347 87.9698 53.9989 87.8313 54.1686C88.6914 53.6183 89.5572 53.0786 90.4393 52.5681L90.4482 52.5249ZM90.5729 52.2071C90.6767 51.9254 90.7698 51.6443 90.8566 51.3666C90.3184 51.6784 89.779 51.9635 89.2622 52.2498C89.0336 52.617 88.7841 52.9712 88.5234 53.3151C89.2261 52.9695 89.9098 52.6044 90.575 52.2059L90.5729 52.2071ZM91.9719 48.2068C91.7674 48.8941 91.5642 49.8649 91.2863 50.8689C94.1542 49.1353 96.9883 46.8028 97.9265 43.7329C98.7545 41.022 98.5118 38.1553 99.7515 35.5607C99.3512 35.6432 98.9592 35.7615 98.5802 35.9143C96.6972 40.1035 94.508 44.1484 92.0302 48.016C92.0145 48.0766 91.9926 48.1406 91.974 48.2057L91.9719 48.2068ZM100.005 35.5156C98.447 38.6257 99.1596 42.3801 97.4528 45.4248C96.1246 47.8005 93.6719 49.7059 91.2014 51.1647C91.1208 51.4389 91.0359 51.7101 90.9433 51.9773C93.2456 50.5496 95.2744 48.7223 96.9341 46.5814C99.4538 43.316 100.911 39.4449 102.322 35.6154C102.331 35.5958 102.346 35.5798 102.365 35.5697C101.59 35.3998 100.79 35.381 100.008 35.5145L100.005 35.5156ZM102.518 35.6081C102.523 35.6186 102.526 35.6301 102.527 35.6418C102.528 35.6535 102.526 35.6653 102.523 35.6764C101.1 39.5257 99.6399 43.4397 97.1069 46.7207C95.3735 48.9542 93.2416 50.8478 90.819 52.3058L90.8015 52.3483C91.22 52.1165 91.6385 51.8847 92.0651 51.6675C94.2958 50.5411 96.6885 49.5983 98.5834 47.92C99.499 46.8825 100.364 45.783 101.193 44.6646C102.651 42.1432 103.436 39.1965 104.162 36.4053C104.162 36.4053 104.177 36.3972 104.185 36.3926C103.684 36.0311 103.121 35.7641 102.524 35.6047L102.518 35.6081ZM93.622 51.1412C92.6033 51.6372 91.6172 52.1671 90.6461 52.7241C90.4593 53.1761 90.222 53.6056 89.9388 54.0043C90.8024 53.6926 91.6626 53.3746 92.518 53.0429C94.4614 51.9123 96.2236 50.4957 97.7453 48.8406C96.4405 49.717 95.0656 50.4841 93.6346 51.1343L93.622 51.1412ZM104.356 36.5138C103.752 38.8331 103.107 41.2623 102.065 43.4685C103.322 41.7091 104.502 39.9315 105.66 38.2898C105.674 38.2744 105.692 38.2641 105.713 38.2608C105.414 37.5756 104.953 36.9736 104.369 36.5068L104.356 36.5138ZM105.791 38.4523C104.404 40.4291 102.971 42.5974 101.415 44.7034C100.83 45.7476 100.108 46.7084 99.2673 47.5602C99.0905 47.7347 98.9091 47.9008 98.7242 48.0606C97.254 49.7787 95.5616 51.2935 93.6915 52.565C94.2977 52.3167 94.8982 52.0579 95.4928 51.7886C95.4844 51.7717 95.4822 51.7524 95.4865 51.7341C95.4908 51.7158 95.5014 51.6995 95.5164 51.6881C99.3689 48.3704 103.185 45.0158 106.173 40.8646C106.173 40.8646 106.192 40.8542 106.201 40.8495C106.212 40.3175 106.159 39.7861 106.043 39.2668C105.985 38.9912 105.907 38.7202 105.81 38.4558L105.791 38.4523ZM102.08 47.8883C104.19 46.2244 106.007 43.8761 106.195 41.1944C103.301 45.1372 99.6711 48.3779 95.983 51.558C98.1536 50.5784 100.203 49.3504 102.091 47.8985L102.08 47.8883ZM89.5005 54.146C89.8012 53.7765 90.0529 53.3698 90.2492 52.9358C89.2314 53.5269 88.2286 54.1453 87.2265 54.7797C87.1371 54.8702 87.0497 54.9542 86.9539 55.0428C87.8136 54.7487 88.669 54.4516 89.5199 54.1515L89.5005 54.146ZM90.3191 50.1692C90.4682 49.9745 90.5855 49.8112 90.6321 49.7471C91.0455 49.1409 91.449 48.5265 91.848 47.9091C92.1362 46.9486 92.4451 45.9958 92.8037 45.0537C93.9304 42.1329 95.3611 39.3385 97.0723 36.7168C92.8348 39.6355 92.2767 45.6818 90.3386 50.1748L90.3191 50.1692Z" fill="black"/>
<path d="M100.157 54.6304C101.399 55.0711 101.036 55.8464 102.087 56.5157C102.106 56.4621 102.138 56.4146 102.182 56.3781C102.225 56.3415 102.277 56.3174 102.333 56.3083C107.261 55.2677 112.398 56.1287 116.613 58.935C119.348 60.752 124.598 65.486 123.141 69.3132C121.24 74.3162 114.341 70.318 111.97 68.0831C107.298 63.6714 104.937 57.8537 98.4644 55.5488C98.0051 55.3959 99.7132 54.4662 100.157 54.6304ZM103.04 57.1689C103.453 57.1971 103.86 57.2383 104.262 57.2926L104.052 57.1902C103.807 57.0828 103.55 56.9792 103.284 56.8835C103.113 56.9121 102.946 56.9449 102.776 56.9789L103.04 57.1689ZM105.507 59.298C106.074 59.4869 106.645 59.6436 107.211 59.7919C106.626 58.8914 105.832 58.145 104.898 57.6156L104.866 57.5977C104.371 57.5138 103.868 57.4506 103.362 57.4057C104.119 57.9877 104.835 58.6199 105.507 59.298ZM107.608 59.8971C108.115 60.0265 108.615 60.1594 109.111 60.3107C108.336 59.6675 107.51 59.0877 106.641 58.5766C106.774 58.7177 106.899 58.8656 107.016 59.02C107.223 59.3012 107.419 59.5947 107.606 59.8929L107.608 59.8971ZM115.746 59.2565C113.623 57.9458 111.244 57.1017 108.769 56.7803C113.242 59.0694 117.369 62.2605 121.534 65.0155C121.181 64.4621 120.785 63.9352 120.432 63.475C119.136 61.7991 117.549 60.3702 115.746 59.2565ZM122.415 66.9358C122.256 66.3551 122.013 65.801 121.693 65.2914C121.679 65.3102 121.658 65.3228 121.635 65.3264C121.612 65.33 121.588 65.3243 121.569 65.3105C117.204 62.4153 112.881 59.0398 108.161 56.7098C107.057 56.6019 105.944 56.595 104.838 56.6891C112.425 57.3135 118.057 63.1455 122.247 69.1852C122.563 68.4776 122.622 67.6822 122.415 66.9358ZM122.131 69.386C117.797 63.1115 111.909 57.0089 103.83 56.8378C104.272 57.0012 104.703 57.1946 105.118 57.4168C108.564 58.0385 111.758 59.6389 114.317 62.0267C116.877 64.4146 118.695 67.4889 119.553 70.8825C120.718 70.7978 121.639 70.2385 122.131 69.386ZM119.058 70.911C119.155 70.9143 119.25 70.9081 119.344 70.9052C118.515 67.6558 116.795 64.7027 114.378 62.3785C111.96 60.0543 108.941 58.4514 105.661 57.7502C105.703 57.7762 105.741 57.81 105.781 57.8372C107.164 58.5593 108.454 59.4457 109.625 60.4773C110.795 60.8401 111.876 61.4456 112.797 62.2544C115.24 64.4787 116.447 67.6448 117.534 70.6866C118.033 70.8134 118.543 70.8885 119.058 70.911ZM117.269 70.6443C116.074 67.3021 114.667 63.7302 111.638 61.6228C111.083 61.241 110.482 60.9309 109.849 60.7C109.949 60.7954 110.054 60.8819 110.15 60.9816C112.297 63.1596 113.36 66.0098 114.073 68.9218C114.076 68.9341 114.077 68.9467 114.074 68.9592C114.072 68.9716 114.068 68.9834 114.061 68.994C115.021 69.7398 116.113 70.2977 117.28 70.6385L117.269 70.6443ZM113.83 68.8133C113.064 65.7579 111.893 62.799 109.491 60.6446L109.356 60.5304C108.816 60.3543 108.26 60.2109 107.706 60.0781C108.677 61.6585 109.438 63.4564 110.213 65.0986C111.279 66.4677 112.495 67.7119 113.84 68.8075L113.83 68.8133ZM109.613 64.316C108.938 62.9189 108.247 61.5194 107.459 60.1903C107.417 60.115 107.367 60.055 107.326 59.9904C106.805 59.8637 106.288 59.7454 105.77 59.5898C106.547 60.4023 107.278 61.2575 107.96 62.1513C108.491 62.8191 109.04 63.5589 109.623 64.3102L109.613 64.316Z" fill="black"/>
<path d="M113.016 49.5543C114.152 49.5178 113.92 50.3272 115.045 50.4775C115.084 50.4451 115.129 50.4203 115.177 50.4045C118.159 49.4887 121.213 48.8221 124.305 48.4118C126.352 48.158 128.474 48.0787 130.401 48.9271C133.114 50.1221 136.562 54.1244 134.933 57.2953C133.086 60.8715 128.627 59.0473 126.373 57.0954C123.814 54.8803 121.221 53.1161 118.314 52.0749C117.551 52.0245 116.807 51.8099 116.134 51.446C114.655 51.125 113.142 50.9883 111.629 51.0387C111.155 51.0578 112.54 49.5691 113.016 49.5543ZM123.846 51.2848C124.032 51.2448 124.217 51.1941 124.402 51.1488C123.596 50.9853 122.781 50.8718 121.961 50.8092L121.872 50.8172C122.362 50.9859 122.839 51.1841 123.303 51.3913C123.494 51.365 123.674 51.3199 123.846 51.2848ZM129.916 49.5374C129.845 49.5083 129.774 49.4824 129.702 49.4566C129.694 49.471 129.682 49.4828 129.668 49.4908C129.653 49.4988 129.637 49.5026 129.62 49.5018C126.39 49.2331 123.232 50.0339 120.04 50.332C120.352 50.4022 120.682 50.4706 120.987 50.5615C121.306 50.5705 121.623 50.5838 121.94 50.6078C123.449 50.4564 124.97 50.4593 126.478 50.6166C127.634 50.2743 128.777 49.909 129.916 49.5374ZM127.044 50.6664C129.254 50.9549 131.408 51.5698 133.436 52.491C132.653 51.2595 131.532 50.2791 130.207 49.6664C129.157 50.0074 128.105 50.3495 127.044 50.6664ZM118.434 51.2403C119.189 51.0394 119.954 50.8776 120.725 50.7557C119.657 50.7418 118.589 50.815 117.533 50.9746C117.835 51.056 118.136 51.1459 118.434 51.2403ZM123.143 50.7227C123.733 50.8004 124.307 50.8981 124.884 51.032C125.231 50.9467 125.578 50.8581 125.924 50.762C124.999 50.6909 124.07 50.6778 123.143 50.7227ZM121.371 50.8845C120.505 50.994 119.646 51.1541 118.798 51.364C119.102 51.4688 119.405 51.5748 119.698 51.6855C120.311 51.6852 120.946 51.6914 121.576 51.7385C122.054 51.6626 122.518 51.5723 122.964 51.4806C122.445 51.2501 121.913 51.0504 121.37 50.8825L121.371 50.8845ZM116.999 50.8463C118.006 50.6685 119.024 50.5678 120.045 50.5448C119.742 50.4913 119.441 50.4419 119.143 50.3968C118.715 50.4235 118.284 50.4407 117.855 50.4407C117.446 50.5469 117.039 50.6519 116.634 50.7644L116.999 50.8463ZM122.256 49.4759C121.156 49.6671 120.066 49.8963 118.982 50.1553L119.167 50.1785C122.486 49.9799 125.755 49.0899 129.098 49.2499L129.051 49.2348C126.842 48.6467 124.435 49.0999 122.248 49.4806L122.256 49.4759ZM133.637 52.8089C131.392 51.7526 128.985 51.079 126.518 50.8161C126.123 50.9281 125.731 51.0357 125.331 51.1426C128.715 51.9928 131.816 53.7175 134.323 56.1438C134.329 56.1564 134.334 56.1647 134.34 56.1752C134.5 55.355 134.411 54.5059 134.083 53.7372C133.952 53.4196 133.8 53.1111 133.629 52.8135L133.637 52.8089ZM134.309 56.2931C134.291 56.3095 134.266 56.3181 134.241 56.3171C134.217 56.3162 134.193 56.3058 134.175 56.2881C131.606 53.7973 128.405 52.055 124.917 51.249C124.491 51.3537 124.063 51.449 123.634 51.5389C126.829 53.1009 129.523 55.7084 131.834 58.5227C132.421 58.4416 132.97 58.1861 133.41 57.7894C133.849 57.3927 134.16 56.873 134.301 56.2978L134.309 56.2931ZM120.78 52.1469C122.124 52.8124 123.39 53.6245 124.555 54.5684C126.362 55.9699 127.999 58.0421 130.344 58.4896C130.753 58.5689 131.17 58.5897 131.585 58.5515C129.25 55.7286 126.524 53.1224 123.277 51.6107C122.944 51.6752 122.608 51.7354 122.279 51.7836C122.994 51.8488 123.696 52.0214 124.359 52.2958C126.078 53.0578 126.944 55.2677 127.585 56.8802C127.636 57.0054 127.442 57.1153 127.399 56.9833C126.561 54.8729 125.602 52.7526 123.18 52.2356C122.466 52.0914 121.741 52.0012 121.013 51.9658C120.847 51.9868 120.676 52.0047 120.499 52.0261C120.583 52.0729 120.677 52.1052 120.771 52.1516L120.78 52.1469Z" fill="black"/>
<path d="M120.771 26.7101C122.562 26.9809 123.967 28.2196 124.679 29.8505C125.697 32.1813 125.224 34.3731 124.249 36.6161C121.763 42.3664 115.883 45.2574 110.948 48.576C110.935 48.5849 110.921 48.5926 110.906 48.5992C110.326 49.7626 110.855 50.1009 110.255 51.248C110.033 51.6717 108.268 52.105 108.485 51.6816C111.687 45.5702 114.428 39.6239 114.961 32.6699C115.211 29.3938 116.872 26.1091 120.771 26.7101ZM124.121 30.3976C123.126 33.9034 120.732 36.7299 118.596 39.6109C117.377 41.2563 116.111 43.5459 114.401 45.0152C114.065 45.416 113.706 45.7972 113.327 46.1568C113.53 46.0304 113.721 45.911 113.919 45.7849C115.529 44.4151 116.814 42.6181 118.285 41.1225C120.006 39.3734 121.837 37.7363 123.668 36.1013C124.451 34.271 124.84 32.2434 124.117 30.4L124.121 30.3976ZM123.464 36.5809C121.563 38.2788 119.669 39.9892 117.907 41.8268C116.856 42.9224 115.907 44.14 114.854 45.2015C117.971 43.2016 121.004 41.0018 122.83 37.8066C123.053 37.415 123.266 37.0046 123.464 36.5809ZM112.328 46.7974C112.745 46.4298 113.15 46.0497 113.532 45.6525C113.465 45.6896 113.396 45.7279 113.322 45.7684C113.046 46.1128 112.686 46.3808 112.277 46.547C112.248 46.5632 112.221 46.5783 112.193 46.5934C112.177 46.6026 112.159 46.6068 112.14 46.6053C112.122 46.6037 112.104 46.5966 112.09 46.5849C112.063 46.5904 112.037 46.5944 112.009 46.5969C111.915 46.6876 111.819 46.7762 111.725 46.8637C111.658 47.0046 111.593 47.1476 111.524 47.2897C111.801 47.1334 112.063 46.966 112.328 46.7974ZM112.034 46.3015L112.045 46.2957C112.042 46.2982 112.038 46.3002 112.034 46.3015ZM112.397 45.9693C112.79 45.593 113.187 45.2037 113.584 44.8037C113.779 44.4046 113.933 43.9868 114.044 43.5565C113.676 43.8303 113.294 44.0841 112.898 44.3169C112.652 44.9017 112.395 45.4824 112.127 46.0589C112.211 46.0371 112.3 46.0066 112.391 45.9728L112.397 45.9693ZM114.126 43.2266C114.33 42.2283 114.432 41.212 114.431 40.1932C114.031 41.4753 113.562 42.7357 113.04 43.9705C113.413 43.7432 113.774 43.496 114.12 43.23L114.126 43.2266ZM114.891 38.6046C114.817 38.8946 114.727 39.1767 114.645 39.4627C114.676 40.6571 114.587 41.8517 114.38 43.0285C114.894 42.6137 115.373 42.1581 115.813 41.6662C115.851 41.4783 115.878 41.2889 115.903 41.0887C116.117 39.1092 115.903 37.0654 115.508 35.0924C115.388 36.2782 115.18 37.4533 114.885 38.6081L114.891 38.6046ZM114.313 43.3503C114.233 43.6992 114.129 44.042 114 44.3761C114.113 44.2589 114.226 44.1417 114.348 44.0167C114.966 43.2669 115.479 42.603 115.534 42.515C115.589 42.4271 115.6 42.402 115.633 42.3481C115.666 42.2943 115.69 42.1745 115.713 42.0879C115.277 42.5448 114.807 42.968 114.306 43.3538L114.313 43.3503ZM115.045 43.5761C114.856 43.8282 114.662 44.0804 114.461 44.3234C114.259 44.5664 114.035 44.898 113.788 45.2424C113.919 45.148 114.049 45.0515 114.173 44.9499C114.564 44.4831 114.904 43.9752 115.185 43.4353C115.133 43.4782 115.084 43.5295 115.038 43.5796L115.045 43.5761ZM115.707 32.6832C115.665 33.2534 115.618 33.8258 115.565 34.4017C116.079 36.6512 116.417 39.1232 116.071 41.3706C116.137 41.2928 116.201 41.2109 116.264 41.1323C116.753 40.0095 117.071 38.8199 117.207 37.603C117.563 34.637 117.378 31.5634 117.139 28.5938C117.129 28.4572 117.34 28.4633 117.351 28.5966C117.668 32.3731 118.108 36.746 116.81 40.4005C119.269 36.8134 119.798 32.1115 119.331 27.6199C119.317 27.4857 119.532 27.4894 119.541 27.6239C120.037 32.4685 119.393 37.5103 116.484 41.2043C116.314 41.5742 116.126 41.9352 115.919 42.2857C119.484 38.124 122.346 33.0727 121.406 27.8316C121.381 27.6978 121.579 27.6509 121.61 27.7812C122.598 33.2857 119.479 38.5588 115.707 42.8513C115.53 43.3071 115.306 43.7434 115.039 44.1533C116.765 42.3772 118.144 39.8859 119.375 38.2282C121.254 35.6974 123.168 33.2294 123.995 30.1364C123.995 30.1364 124.01 30.1283 124.018 30.1237C123.902 29.8696 123.767 29.6248 123.613 29.3917C123.062 28.5358 122.225 27.9031 121.251 27.6058C120.278 27.3085 119.23 27.3658 118.294 27.7677C116.192 28.6971 115.859 30.6368 115.701 32.6867L115.707 32.6832Z" fill="black"/>
<path d="M125.694 42.3152C130.038 41.0349 134.558 40.2149 139.014 39.4244C142.155 38.8651 147.795 38.9856 147.124 43.6977C146.562 47.5897 141.913 48.6068 138.761 47.3576C135.423 46.0468 132.667 43.2685 129.213 42.2601C129.167 42.2455 129.125 42.2226 129.088 42.1926C128.011 42.4502 125.08 43.784 124.02 44.0955C123.553 44.2255 125.236 42.4512 125.694 42.3152ZM135.648 40.8055C134.512 41.0303 133.367 41.249 132.232 41.4866C132.645 41.5277 133.048 41.638 133.425 41.8128C133.56 41.7953 133.695 41.7778 133.832 41.7623C135.177 41.4093 136.551 41.1776 137.938 41.0701C139.151 40.7126 140.346 40.283 141.542 39.8502C141.194 39.8501 140.847 39.8716 140.503 39.9146C138.882 40.1374 137.26 40.4974 135.648 40.8055ZM131.458 42.3832L131.613 42.4612C131.691 42.4343 131.77 42.4042 131.842 42.3808C131.843 42.3635 131.849 42.3467 131.859 42.3325C131.869 42.3183 131.882 42.3071 131.898 42.3003C131.878 42.3019 131.857 42.3024 131.836 42.3019C131.719 42.3315 131.59 42.3615 131.461 42.3895L131.458 42.3832ZM139.068 46.5311C138.278 45.1786 137.158 43.413 135.576 42.9064C135.286 42.8175 134.988 42.7534 134.688 42.715C135.348 43.3918 135.835 44.2183 136.107 45.124C137.057 45.6674 138.047 46.1377 139.068 46.5311ZM134.036 42.4226C133.924 42.3408 133.808 42.2646 133.688 42.1944C133.53 42.2107 133.372 42.2303 133.214 42.2413C132.967 42.2903 132.743 42.3298 132.509 42.3804C132.396 42.4183 132.278 42.4565 132.173 42.4899C132.756 42.4365 133.343 42.4166 133.928 42.4304C133.97 42.4265 134.004 42.424 134.04 42.4203L134.036 42.4226ZM135.715 41.6482C136.023 41.5816 136.33 41.5097 136.639 41.4346C136.165 41.4968 135.694 41.5753 135.227 41.67C135.392 41.6576 135.546 41.6543 135.72 41.6459L135.715 41.6482ZM142.099 39.8779C141.008 40.2828 139.914 40.6781 138.81 41.0299C141.297 40.9402 143.783 41.2492 146.172 41.9453C145.556 40.6303 143.814 39.9882 142.103 39.8756L142.099 39.8779ZM146.275 42.1946C143.583 41.3902 140.767 41.0839 137.965 41.2906C137.526 41.4216 137.081 41.5421 136.636 41.6519C139.98 41.7506 143.248 42.6722 146.151 44.3352C146.442 43.6577 146.488 42.8996 146.279 42.1923L146.275 42.1946ZM146.052 44.5919L146.075 44.5332C143.288 42.933 140.158 42.0227 136.948 41.8785C137.454 41.938 137.955 42.0359 138.447 42.1713C140.923 42.8691 143.191 44.4275 145.41 45.6938C145.67 45.3534 145.887 44.9826 146.057 44.5896L146.052 44.5919ZM145.278 45.8685C143.247 44.7056 141.186 43.3352 138.982 42.5639C137.614 42.1038 136.165 41.9291 134.727 42.0508C134.492 42.0907 134.255 42.1265 134.023 42.1674C134.137 42.2449 134.247 42.3281 134.353 42.4167C135.639 42.3686 136.937 42.4912 138.082 42.9778C139.999 43.7934 141.626 45.6991 143.087 47.1313C143.945 46.9816 144.722 46.53 145.277 45.8579L145.278 45.8685ZM142.819 47.1566C141.459 45.8165 139.96 44.1675 138.269 43.322C137.38 42.9036 136.414 42.6714 135.431 42.6396C135.648 42.697 135.86 42.7726 136.064 42.8653C137.487 43.5285 138.507 45.1475 139.266 46.4542C139.274 46.4655 139.279 46.4782 139.281 46.4916C139.283 46.5049 139.282 46.5186 139.278 46.5315C139.275 46.5445 139.268 46.5565 139.259 46.5668C139.25 46.577 139.239 46.5852 139.227 46.5908C140.437 47.0275 141.696 47.2952 142.823 47.1543L142.819 47.1566ZM135.831 44.9677C135.537 44.0917 135.027 43.3037 134.349 42.6759C134.209 42.6657 134.064 42.6558 133.923 42.6383C133.359 42.6772 132.802 42.7372 132.267 42.8177C133.421 43.4687 134.541 44.2122 135.637 44.8486L135.831 44.9677ZM130.765 42.0615C131.119 42.0843 131.472 42.0954 131.825 42.0947C132.219 42.0106 132.611 41.9329 133.011 41.8806C132.245 41.6181 131.413 41.6251 130.651 41.9005C130.631 41.9082 130.609 41.9079 130.589 41.8995C130.569 41.8912 130.553 41.8755 130.545 41.8557L130.374 41.893C130.511 41.9428 130.64 42.0026 130.769 42.0592L130.765 42.0615Z" fill="black"/>
<path d="M135.472 17.875C138.259 20.6253 137.189 25.4185 135.647 28.4381C132.789 34.05 132.84 35.6534 131.293 37.7622C131.013 38.1444 128.966 38.9173 129.254 38.523C130.135 37.2843 130.952 36.0014 131.702 34.6795C131.667 34.6199 131.652 34.5509 131.658 34.4822C132.101 29.4426 127.819 25.1428 128.752 20.1294C129.381 16.7526 132.908 15.3454 135.472 17.875ZM131.839 23.4845C132.13 24.2276 132.369 24.9899 132.556 25.766C132.705 26.3805 132.815 26.9891 132.918 27.6237C133.126 27.1204 133.352 26.6206 133.603 26.1315L133.645 25.9553C134.344 22.917 135.095 19.4119 132.356 17.1466C132.12 17.1635 131.887 17.2148 131.666 17.299C132.65 19.2331 132.025 21.2686 131.857 23.3403L131.839 23.4845ZM132.274 31.8477L132.308 31.7008C132.231 31.3786 132.163 31.0636 132.104 30.7557C132.095 30.7989 132.08 30.8402 132.07 30.8813C132.149 31.2012 132.217 31.5216 132.274 31.8477ZM133.127 32.0642C133.1 31.6201 133.071 31.1739 133.038 30.7279C132.87 31.5014 132.734 32.2874 132.595 33.0779C132.775 32.7427 132.953 32.4048 133.127 32.0642ZM132.404 32.9511C132.527 32.1859 132.646 31.4124 132.814 30.641L132.363 32.4712C132.38 32.631 132.392 32.791 132.404 32.9511ZM132.419 31.2155L132.898 29.1487C132.877 28.9473 132.857 28.748 132.836 28.5433C132.608 29.1126 132.408 29.693 132.238 30.2823C132.289 30.5959 132.351 30.9058 132.419 31.2155ZM133.034 28.5543L133.275 27.508C133.177 27.7262 133.076 27.9435 132.982 28.1647L133.034 28.5543ZM132.757 27.9998C132.599 26.7887 132.329 25.5948 131.951 24.4334C131.906 24.3026 131.857 24.1741 131.806 24.0468C131.711 25.9681 131.824 27.894 132.144 29.7908C132.322 29.1838 132.526 28.5869 132.757 27.9998ZM132.669 17.1505C134.536 18.8223 134.742 21.2368 134.354 23.6465C134.264 24.1908 134.162 24.7367 134.055 25.2829C135.029 23.5322 136.093 21.7617 135.736 19.7733C135.075 18.4366 133.961 17.2466 132.669 17.1505ZM136.005 20.4276C136.043 21.5819 135.676 22.701 135.123 23.8055C134.687 24.6727 134.247 25.507 133.83 26.3445C133.614 27.3555 133.375 28.3653 133.128 29.3712C133.266 28.8914 133.438 28.4222 133.644 27.9675C134.475 26.1406 135.785 24.6358 136.35 22.6938C136.356 22.4581 136.36 22.2182 136.345 21.9833C136.31 21.4507 136.196 20.9262 136.005 20.4276ZM136.293 23.5182C135.781 24.8104 134.996 25.9451 134.303 27.1732C133.806 28.0836 133.433 29.0561 133.193 30.0652C133.24 30.6101 133.279 31.1543 133.315 31.6976L133.54 31.2557C134.738 28.8705 136.013 26.2369 136.293 23.5182ZM130.98 27.5764C131.022 26.63 130.956 25.6818 130.782 24.7506C130.535 23.5751 129.977 22.5424 129.353 21.5349C129.409 22.5746 129.597 23.6029 129.913 24.5948C130.23 25.611 130.61 26.5978 130.98 27.5764ZM129.356 21.1345C130.779 23.4267 131.202 25.4552 131.169 28.0757C131.464 28.8692 131.746 29.6696 131.964 30.4673C131.978 30.4047 131.996 30.3429 132.013 30.2811C131.712 28.6872 131.558 27.069 131.553 25.4468C131.56 24.8764 131.6 24.3068 131.672 23.741C131.019 22.3205 129.936 20.9473 129.636 19.4487C129.454 19.9923 129.359 20.5613 129.356 21.1345ZM130.615 17.9772C130.272 18.2844 129.995 18.6581 129.801 19.0756C129.96 20.4282 130.935 21.4978 131.501 22.6929C131.586 22.8755 131.663 23.0595 131.741 23.2436C131.993 21.2314 132.332 19.0892 131.468 17.4005C131.155 17.5458 130.866 17.7366 130.609 17.9667L130.615 17.9772Z" fill="black"/>
<path d="M141.864 7.6456C144.932 7.72523 145.509 11.4073 145.385 13.7501C145.19 17.3814 143.867 20.5468 142.302 23.7781C142.275 23.8329 142.234 23.8794 142.182 23.9127C142.175 25.0454 141.986 26.1837 141.371 27.1281C141.111 27.5266 139.651 28.2832 139.914 27.8835C141.087 26.0773 141.432 22.3798 141.078 20.4329C140.647 18.0558 139.705 15.9262 139.038 13.6361C138.391 11.4063 138.718 7.55961 141.864 7.6456ZM139.559 12.7493L139.675 13.2313C140.267 14.4069 140.796 15.6127 141.261 16.8438C141.241 16.1521 141.222 15.4605 141.208 14.7739L141.212 14.154C140.736 12.9146 140.163 11.7149 139.498 10.5663C139.493 10.5586 139.49 10.5501 139.489 10.5414C139.488 10.5326 139.489 10.5237 139.491 10.5151C139.358 11.2559 139.382 12.0164 139.563 12.747L139.559 12.7493ZM141.91 21.013L141.931 21.0014C141.98 20.6793 142.027 20.3552 142.082 20.0349C141.915 19.4369 141.733 18.8428 141.535 18.2525C141.551 18.7003 141.574 19.1467 141.591 19.588C141.712 20.046 141.818 20.5167 141.909 21.0002L141.91 21.013ZM142.769 21.0515C142.758 21.0395 142.75 21.0252 142.745 21.0097C142.726 20.7472 142.696 20.4906 142.663 20.219C142.612 20.3047 142.556 20.3905 142.505 20.4762L142.474 20.6926C142.531 20.9096 142.583 21.1268 142.636 21.3461L142.769 21.0515ZM142.286 8.48609C143.033 9.89934 143.57 11.4146 143.877 12.9835C144.141 11.5831 144.051 10.2169 142.987 8.82988C142.773 8.67448 142.536 8.55413 142.284 8.47333L142.286 8.48609ZM142.01 8.4282C141.573 8.3667 141.129 8.46621 140.76 8.70816C142.371 10.9506 142.838 13.887 142.789 16.8143C142.865 16.5457 142.934 16.2752 143.016 16.0051C143.28 15.143 143.568 14.311 143.765 13.4913C143.465 11.7134 142.874 9.99722 142.015 8.41196L142.01 8.4282ZM142.722 18.3766L142.69 18.8125C142.733 19.0622 142.772 19.295 142.804 19.5366C143.516 18.2241 144.01 16.8267 143.96 15.2641C143.948 14.9424 143.92 14.6107 143.881 14.2741C143.522 15.6434 143.097 16.9993 142.721 18.3638L142.722 18.3766ZM142.338 20.1504L142.382 19.7814L142.322 20.0879L142.338 20.1504ZM142.604 19.6446L142.563 19.9407C142.583 19.9077 142.6 19.8738 142.619 19.8388C142.618 19.7682 142.615 19.6987 142.605 19.6307L142.604 19.6446ZM142.496 21.656L142.396 21.2471C142.346 21.5725 142.297 21.8925 142.242 22.2041L142.496 21.656ZM142.231 20.9095L142.13 21.0636C142.107 21.2048 142.081 21.345 142.059 21.4883C142.057 21.5053 142.051 21.5216 142.041 21.5356C142.031 21.5497 142.018 21.5611 142.002 21.5689C142.026 21.7145 142.044 21.8604 142.061 22.0063C142.12 21.6384 142.177 21.2682 142.231 20.8956L142.231 20.9095ZM141.276 17.5185C140.887 16.4358 140.453 15.37 139.963 14.3237C140.385 15.7871 140.901 17.2016 141.33 18.6562C141.311 18.262 141.289 17.883 141.277 17.5046L141.276 17.5185ZM141.513 17.5513C141.749 18.2135 141.965 18.8836 142.162 19.5617C142.237 19.1646 142.316 18.7685 142.403 18.373C142.181 17.177 141.869 15.9995 141.469 14.8506C141.482 15.7374 141.494 16.6381 141.514 17.5374L141.513 17.5513ZM142.517 17.8833L142.545 17.7612C142.708 14.5604 142.335 11.2497 140.582 8.82595C140.523 8.8584 140.472 8.91942 140.418 8.96883C141.189 10.0118 141.405 11.1907 141.435 12.5434C141.445 13.0845 141.451 13.628 141.457 14.1715C141.907 15.3736 142.261 16.6094 142.517 17.8673L142.517 17.8833ZM144.506 15.3415C144.711 13.7819 144.903 11.9478 144.29 10.47C144.121 10.0686 143.888 9.69744 143.599 9.3712C144.25 10.4637 144.457 11.7639 144.179 13.0049C144.125 13.2534 144.067 13.4988 144.009 13.7443C144.087 14.25 144.139 14.7593 144.165 15.2703C144.243 16.9656 143.653 18.4816 142.843 19.9031C142.871 20.1609 142.897 20.4199 142.919 20.6812C143.69 18.9775 144.224 17.1762 144.506 15.3276L144.506 15.3415ZM139.957 9.47538C139.749 9.77067 139.601 10.1043 139.522 10.4571C139.531 10.441 139.544 10.4276 139.56 10.4182C139.575 10.4088 139.593 10.4037 139.612 10.4036C139.63 10.4035 139.648 10.4083 139.664 10.4175C139.68 10.4267 139.693 10.4399 139.702 10.4559C140.284 11.4697 140.795 12.5232 141.229 13.6085C141.248 12.0183 141.209 10.4326 140.256 9.11593C140.15 9.22543 140.05 9.3408 139.958 9.46145L139.957 9.47538Z" fill="black"/>
<path d="M142.454 29.7345C144.25 28.8192 146.174 27.5645 148.166 27.1172C149.979 26.7171 154.023 26.994 154.379 29.4481C154.755 32.1315 151.254 34.2269 148.953 34.0034C145.895 33.705 143.097 31.9999 139.95 31.9032C139.95 31.9032 139.928 31.8967 139.916 31.8951C138.862 32.46 137.799 33.0402 136.759 33.6441C136.34 33.8759 136.433 32.5041 136.849 32.2681C138.824 31.1193 140.406 30.7761 142.454 29.7345ZM141.631 31.2593C141.987 31.2442 142.348 31.22 142.715 31.1866C143.003 31.0266 143.292 30.8667 143.581 30.7067C143.246 30.6826 142.911 30.6858 142.577 30.7161C142.256 30.8846 141.941 31.0656 141.631 31.2593ZM142.231 31.4351L142.255 31.4383L142.268 31.4314C142.268 31.4314 142.242 31.4346 142.231 31.4351ZM143.567 30.2524C143.393 30.324 143.224 30.404 143.055 30.4839C143.345 30.4802 143.635 30.4951 143.922 30.5285C144.205 30.372 144.487 30.2155 144.77 30.0837C144.365 30.1103 143.963 30.1667 143.567 30.2524ZM145.22 29.8558C145.483 29.727 145.748 29.5991 146.012 29.4777C145.507 29.5881 145.008 29.7264 144.519 29.8921C144.755 29.8706 144.989 29.8585 145.22 29.8558ZM144.278 30.5776C144.701 30.6467 145.119 30.7427 145.53 30.8649C146.508 30.7389 147.486 30.6182 148.463 30.5414C147.428 30.2245 146.351 30.0645 145.269 30.0668C144.939 30.2306 144.606 30.401 144.278 30.5776ZM143.968 30.7492C143.729 30.8813 143.491 31.0134 143.252 31.1456C143.839 31.0939 144.417 31.017 145 30.943C144.658 30.8518 144.31 30.7822 143.96 30.7345L143.968 30.7492ZM150.025 27.6945C148.154 27.6379 146.567 28.5165 144.941 29.3218C144.445 29.5666 143.951 29.8155 143.457 30.0644C143.467 30.0578 143.478 30.0519 143.489 30.047C144.575 29.5867 145.716 29.2677 146.884 29.0981C148.535 28.4351 150.257 28.0196 152.115 28.1356C151.452 27.8561 150.742 27.705 150.023 27.6903L150.025 27.6945ZM152.491 28.3348C152.483 28.349 152.472 28.3607 152.458 28.3685C152.443 28.3764 152.427 28.3799 152.411 28.3789C150.833 28.2535 149.247 28.4713 147.761 29.0171C149.714 28.8582 151.679 29.1119 153.527 29.7615C153.477 29.4586 153.357 29.1717 153.177 28.9233C152.997 28.6749 152.761 28.472 152.488 28.3306L152.491 28.3348ZM153.504 30.4196C153.529 30.2758 153.54 30.1297 153.536 29.9837C151.42 29.226 149.152 28.9981 146.928 29.32C146.514 29.4863 146.104 29.6696 145.697 29.8624C146.833 29.9165 147.956 30.1331 149.031 30.5055C150.472 30.4004 151.921 30.4946 153.337 30.7853C153.358 30.7906 153.376 30.8041 153.388 30.8227C153.439 30.691 153.477 30.5546 153.501 30.4155L153.504 30.4196ZM153.319 30.9808C153.307 30.9878 153.296 30.9936 153.277 30.988C152.053 30.7304 150.802 30.6274 149.552 30.6814C150.561 31.0669 151.539 31.5308 152.476 32.0687C152.832 31.7703 153.119 31.3976 153.317 30.9766L153.319 30.9808ZM152.288 32.2137C151.239 31.6138 150.137 31.1116 148.996 30.7136C148 30.7708 147.002 30.8859 146 31.0066C147.538 31.5215 149.041 32.3011 150.42 32.8901C150.438 32.8976 150.453 32.9093 150.465 32.9243C150.477 32.9392 150.485 32.9568 150.488 32.9756C150.492 32.9943 150.49 33.0136 150.484 33.0317C150.478 33.0498 150.468 33.0662 150.454 33.0792C151.115 32.909 151.736 32.6138 152.286 32.2095L152.288 32.2137ZM146.23 32.4781C147.057 32.7171 147.932 33.0824 148.779 33.2198C149.318 33.2882 149.865 33.249 150.389 33.1045L150.374 33.1126C148.877 32.4739 147.212 31.5845 145.521 31.089C144.61 31.2079 143.699 31.3247 142.787 31.4061L142.578 31.5221C143.81 31.763 145.034 32.1264 146.232 32.4823L146.23 32.4781ZM141.207 31.2784C141.408 31.1478 141.611 31.0215 141.818 30.9014C141.59 31.0277 141.352 31.1406 141.12 31.2607L141.207 31.2784Z" fill="black"/>
<path d="M146.679 21.5556C148.621 19.2855 151.414 17.6344 154.162 16.5438C155.885 15.8628 158.941 14.8041 160.678 16.0748C163.031 17.7999 160.712 20.6725 158.742 21.3105C156.865 21.9156 154.759 21.6282 152.825 21.6032C151.44 21.5574 150.054 21.6434 148.685 21.8601C148.61 21.9019 148.543 21.9582 148.475 22.0093C148.408 22.0603 148.341 21.9989 148.332 21.9276C147.244 22.1557 145.405 23.852 144.399 24.4534C143.988 24.6999 144.413 22.7264 144.821 22.4811C145.397 22.1375 146.006 21.8524 146.638 21.6301C146.649 21.6038 146.663 21.5788 146.679 21.5556ZM160.53 17.4361C156.892 17.771 153.377 18.9291 150.252 20.8229C152.09 20.3467 153.983 20.1124 155.881 20.126C157.553 19.6236 159.17 18.9566 160.709 18.1349C160.696 17.8986 160.635 17.6674 160.53 17.4554L160.53 17.4361ZM149.479 20.9831L149.62 20.9653C149.749 20.8935 149.871 20.807 149.996 20.7321C149.818 20.8253 149.646 20.9096 149.474 20.994L149.479 20.9831ZM160.417 17.2364C160.253 16.996 160.04 16.7925 159.793 16.6389C158.529 17.0914 157.277 17.5673 156.037 18.0666C157.468 17.6632 158.932 17.389 160.412 17.2474L160.417 17.2364ZM150.98 20.868C151.367 20.8537 151.758 20.8457 152.153 20.844C152.267 20.8434 152.382 20.8481 152.5 20.8485C153.202 20.7331 153.913 20.6291 154.611 20.4636C154.766 20.427 154.918 20.3863 155.07 20.3488C153.691 20.3946 152.32 20.5722 150.975 20.879L150.98 20.868ZM148.152 21.1935C148.151 21.1768 148.156 21.1603 148.164 21.1459C148.173 21.1316 148.185 21.1199 148.2 21.1122C151.354 19.48 154.508 17.8485 157.662 16.2177C156.504 16.3129 155.242 16.7848 154.13 17.2944C152.371 18.5118 150.544 19.6277 148.658 20.6368C148.438 20.827 148.226 21.0212 148.017 21.2217C148.049 21.2289 148.092 21.2185 148.139 21.209L148.152 21.1935ZM149.612 19.8793C150.678 19.2775 151.725 18.6419 152.753 17.9725C152.627 18.0421 152.508 18.1081 152.393 18.1719C151.417 18.6777 150.48 19.2551 149.59 19.8995L149.612 19.8793ZM158.17 16.1908L148.717 21.0828L148.837 21.0627C152.322 19.3321 155.903 17.8043 159.564 16.487C159.399 16.4065 159.226 16.3422 159.048 16.2949C158.752 16.2307 158.45 16.2025 158.148 16.211L158.17 16.1908ZM160.032 19.7595C160.433 19.3974 160.683 18.8977 160.733 18.3597C159.402 19.0643 158.015 19.6556 156.585 20.1272C157.421 20.156 158.282 20.2287 159.163 20.339C159.473 20.1976 159.758 20.0089 160.01 19.7797L160.032 19.7595ZM156.554 20.8853C157.309 20.8679 158.057 20.7406 158.775 20.5074C157.834 20.3948 156.888 20.3342 155.94 20.3258C155.773 20.3746 155.606 20.4235 155.438 20.4702C154.828 20.6331 154.212 20.7555 153.596 20.862C154.558 20.9164 155.548 20.9558 156.532 20.9055L156.554 20.8853Z" fill="black"/>
<path d="M153.452 9.75703C154.788 7.52438 161.91 0.503871 163.842 5.80778C164.59 7.85356 162.528 9.01778 160.869 9.4039C157.91 10.0945 153.724 9.43402 151.561 12.0999C151.261 12.4712 150.747 11.9385 151.04 11.5686C151.671 10.8301 152.48 10.2652 153.39 9.92766C153.396 9.86659 153.417 9.80796 153.452 9.75703ZM160.787 4.91203C158.885 5.96562 157.04 7.08315 155.548 8.66415C155.836 8.58454 156.128 8.52037 156.423 8.47185C156.811 8.28948 157.195 8.09872 157.581 7.91216C157.581 7.91216 157.59 7.88826 157.605 7.88015C159.006 7.14015 160.243 6.12556 161.243 4.89695C161.089 4.89493 160.936 4.90034 160.787 4.91203ZM155.478 8.9026C155.406 8.92598 155.335 8.95147 155.265 8.97694L155.227 9.01708L155.478 8.9026ZM154.641 9.28379C154.736 9.23163 154.836 9.19527 154.935 9.15148C154.925 9.1388 154.917 9.12468 154.911 9.10963C154.844 9.14672 154.772 9.16802 154.692 9.20673L154.641 9.28379ZM154.953 8.85955C155.014 8.82593 155.084 8.8144 155.149 8.79241C156.58 7.17975 158.354 6.04914 160.213 4.99202C160.073 5.02034 159.936 5.05655 159.8 5.1005C157.874 5.76016 156.2 7.21511 154.951 8.86071L154.953 8.85955ZM161.511 4.90165C160.869 5.71107 160.126 6.43438 159.299 7.05369C160.443 6.46892 161.574 5.86441 162.695 5.23246C162.33 5.03049 161.922 4.91828 161.505 4.90513L161.511 4.90165ZM162.881 5.37015C161.054 6.40664 159.193 7.37177 157.303 8.28255C157.346 8.25821 157.398 8.25176 157.447 8.23787C159.357 7.6913 161.338 7.7389 163.17 6.90982C163.209 6.81991 163.239 6.72654 163.259 6.63098C163.315 6.40616 163.309 6.17047 163.241 5.94903C163.173 5.72759 163.046 5.52872 162.874 5.37363L162.881 5.37015ZM163.02 7.20626C161.682 7.7532 160.301 7.87067 158.884 8.13093C158.561 8.18958 158.247 8.26497 157.932 8.34685C159.066 8.32227 160.221 8.42637 161.328 8.48536C161.959 8.22846 162.653 7.79231 163.014 7.20974L163.02 7.20626ZM158.543 8.93742C159.269 8.9021 159.991 8.81529 160.704 8.67769L160.761 8.66243C159.521 8.54543 158.272 8.52681 157.028 8.60672C156.295 8.85033 155.578 9.13736 154.879 9.46634C156.083 9.19883 157.306 9.0232 158.537 8.9409L158.543 8.93742Z" fill="black"/>
<path d="M145.474 0.0558866C147.161 -0.301406 148.725 1.11142 149.437 2.49082C150.914 5.34375 149.792 8.74253 149.427 11.7217C149.64 12.5067 149.794 13.3066 149.888 14.1146C149.942 14.5822 149.219 14.7585 149.165 14.2909C149.073 13.4879 148.919 12.6933 148.705 11.914C148.697 11.8913 148.691 11.8678 148.688 11.844C148.306 10.4944 147.763 9.19537 147.072 7.97487C146.238 6.46899 145.092 5.08123 144.5 3.45483C144.01 2.14093 143.737 0.42497 145.474 0.0558866ZM144.823 2.45858C146.017 4.02197 146.696 5.87908 147.707 7.5605C147.714 7.57305 147.717 7.5793 147.723 7.58976L147.729 7.60022C147.806 7.74035 147.883 7.87839 147.96 8.01852C147.247 5.74331 146.39 3.55017 144.836 1.70769C144.788 1.95528 144.783 2.20946 144.823 2.45858ZM148.505 9.16529C148.647 9.48037 148.776 9.79705 148.9 10.1193C148.875 10.0101 148.849 9.9042 148.827 9.79595C148.815 9.7866 148.804 9.77466 148.797 9.76095C148.789 9.74724 148.785 9.73209 148.783 9.71647L148.772 9.49861C148.544 8.25814 148.457 7.00526 148.164 5.77935C147.712 3.90132 146.665 2.21966 145.18 0.984598C145.044 1.11906 144.942 1.28413 144.883 1.46598C146.796 3.68067 147.699 6.4006 148.511 9.17573L148.505 9.16529ZM149.22 8.20379C148.614 5.73778 148.609 3.34906 147.293 1.19143C147.124 1.09383 146.949 1.00828 146.768 0.935408C148.478 3.45413 148.803 6.45008 148.985 9.46817L149.011 9.60407C149.088 9.14057 149.163 8.67823 149.226 8.21426L149.22 8.20379ZM146.434 0.814746C146.085 0.693331 145.702 0.709541 145.365 0.860074C146.587 1.88217 147.523 3.2041 148.081 4.6965C148.22 5.09782 148.334 5.50771 148.421 5.92363C148.109 4.10986 147.566 2.37968 146.439 0.825189L146.434 0.814746ZM147.94 1.66381L147.861 1.59547C148.754 3.46814 148.859 5.51973 149.299 7.59677C149.393 6.81458 149.413 6.02541 149.36 5.23946C149.274 3.94804 148.916 2.60501 147.946 1.67428L147.94 1.66381ZM146.567 5.88242C146.098 4.87548 145.559 3.90263 144.954 2.97104C145.254 3.93335 145.933 4.97063 146.572 5.89288L146.567 5.88242Z" fill="black"/>
</svg>
