<svg width="14" height="12" viewBox="0 0 14 12" fill="none" xmlns="http://www.w3.org/2000/svg">
<path d="M5.18607 1.40592C5.90286 -0.13754 8.09714 -0.137538 8.81393 1.40593L9.08114 1.98129C9.37256 2.6088 9.96759 3.04112 10.6544 3.12436L11.2842 3.20069C12.9736 3.40545 13.6517 5.49233 12.4053 6.651L11.9407 7.08292C11.4339 7.55399 11.2066 8.2535 11.3397 8.93245L11.4617 9.55499C11.7891 11.225 10.0138 12.5148 8.52672 11.6874L7.97235 11.379C7.36775 11.0426 6.63225 11.0426 6.02765 11.379L5.47328 11.6874C3.98616 12.5148 2.21095 11.225 2.53827 9.55499L2.66029 8.93245C2.79337 8.2535 2.56609 7.55399 2.05935 7.08292L1.59471 6.651C0.348289 5.49233 1.02636 3.40545 2.71578 3.20069L3.34556 3.12436C4.03241 3.04112 4.62744 2.6088 4.91886 1.98129L5.18607 1.40592Z" fill="#C3937C"/>
</svg>
