<svg width="748" height="748" viewBox="0 0 748 748" fill="none" xmlns="http://www.w3.org/2000/svg">
<path d="M649.889 386.757C648.236 386.572 647.021 386.608 646.242 386.867C645.463 387.126 644.879 387.695 644.492 388.574C644.162 389.46 643.882 390.929 643.652 392.98L642.606 402.296C642.241 405.543 642.947 408.248 644.724 410.409C646.501 412.57 649.12 414.162 652.582 415.185C652.753 415.204 652.794 415.353 652.705 415.631C652.667 415.973 652.562 416.135 652.391 416.115C647.72 415.072 643.846 414.377 640.769 414.032C640.313 413.981 639.981 413.857 639.772 413.66C639.621 413.47 639.574 413.119 639.631 412.606L644.063 373.122C644.076 373.008 644.253 372.97 644.595 373.009C644.937 373.047 645.102 373.123 645.089 373.237C644.846 375.402 644.812 376.985 644.989 377.986C645.158 379.043 645.623 379.788 646.382 380.219C647.198 380.657 648.461 380.972 650.17 381.164L689.74 385.605C691.449 385.797 692.722 385.767 693.558 385.515C694.394 385.262 695.012 384.639 695.412 383.646C695.862 382.716 696.209 381.168 696.452 379.003C696.465 378.889 696.642 378.851 696.984 378.89C697.326 378.928 697.491 379.004 697.478 379.118L696.922 383.296C696.54 385.676 696.265 387.607 696.099 389.089C695.92 390.684 695.753 392.684 695.598 395.09L695.223 399.202C695.204 399.373 695.024 399.439 694.682 399.401C694.34 399.362 694.179 399.258 694.198 399.087C694.434 396.979 694.439 395.393 694.213 394.329C694.037 393.328 693.544 392.581 692.734 392.086C691.974 391.654 690.74 391.343 689.031 391.151L649.889 386.757Z" fill="black"/>
<path d="M636.577 474.285C636.685 474.324 636.7 474.451 636.623 474.667C636.565 474.829 636.49 474.954 636.397 475.043C636.285 475.185 636.175 475.237 636.067 475.199C632.841 473.495 629.365 471.976 625.641 470.642C625.209 470.487 624.924 470.263 624.785 469.97C624.682 469.75 624.717 469.397 624.891 468.912L637.041 434.988C637.08 434.88 637.261 434.884 637.585 435C637.909 435.116 638.052 435.228 638.013 435.336C637.278 437.387 636.882 438.92 636.823 439.934C636.745 441.002 637.025 441.834 637.665 442.428C638.339 443.096 639.486 443.72 641.105 444.3L678.591 457.727C680.211 458.307 681.466 458.543 682.357 458.436C683.228 458.383 683.973 457.919 684.591 457.044C685.244 456.242 685.937 454.816 686.672 452.765C686.71 452.657 686.892 452.661 687.216 452.777C687.539 452.893 687.682 453.005 687.643 453.113L675.986 485.66C675.812 486.146 675.482 486.302 674.996 486.128L664.979 482.723C664.818 482.665 664.758 482.491 664.801 482.202C664.897 481.932 665.036 481.799 665.217 481.803C668.136 482.666 670.658 482.595 672.784 481.59C674.964 480.605 676.518 478.817 677.446 476.226L679.215 471.287C679.892 469.398 680.233 467.937 680.237 466.903C680.277 465.943 679.986 465.138 679.366 464.49C678.78 463.915 677.759 463.366 676.302 462.844L659.866 456.957L656.328 466.835C655.4 469.426 655.175 471.416 655.652 472.804C656.109 474.247 657.364 475.336 659.415 476.071C659.523 476.109 659.519 476.29 659.403 476.614C659.287 476.938 659.175 477.081 659.067 477.042L652.538 474.612C650.972 474.052 649.775 473.653 648.946 473.417L645.031 472.106C644.923 472.068 644.927 471.886 645.043 471.562C645.159 471.239 645.271 471.096 645.379 471.135C647.754 471.985 649.667 472.001 651.118 471.18C652.549 470.414 653.748 468.682 654.715 465.983L658.166 456.348L639.544 449.679C638.033 449.137 636.868 448.903 636.051 448.975C635.233 449.048 634.535 449.468 633.955 450.235C633.376 451.001 632.758 452.303 632.101 454.138L629.781 460.615C628.853 463.206 628.997 465.693 630.214 468.078C631.43 470.462 633.551 472.531 636.577 474.285Z" fill="black"/>
<path d="M659.912 523.34C659.092 524.852 657.871 525.723 656.247 525.951C654.674 526.207 652.828 525.761 650.711 524.614C648.695 523.521 647.051 522.042 645.778 520.179C644.556 518.343 643.567 516.078 642.809 513.385C642.786 513.307 642.802 513.218 642.857 513.117C642.939 512.966 643.082 512.881 643.288 512.862C643.494 512.843 643.62 512.912 643.666 513.067C644.848 516.903 647.152 519.75 650.58 521.608C651.991 522.373 653.161 522.681 654.09 522.532C653.579 521.668 653.625 520.682 654.226 519.573C654.718 518.666 655.391 518.085 656.246 517.831C657.074 517.628 657.916 517.758 658.773 518.223C660.789 519.316 661.169 521.021 659.912 523.34Z" fill="black"/>
<path d="M635.888 544.129C634.094 542.794 632.205 542.067 630.221 541.949C628.237 541.83 626.323 542.049 624.479 542.606C622.68 543.197 620.253 544.106 617.196 545.333C613.99 546.663 611.408 547.636 609.449 548.251C607.491 548.866 605.41 549.068 603.208 548.858C601.017 548.729 598.887 547.894 596.817 546.353C594.61 544.71 593.02 542.669 592.048 540.23C591.076 537.792 590.865 535.098 591.416 532.149C591.979 529.28 593.373 526.351 595.598 523.361C598.234 519.82 601.452 517.177 605.253 515.431C605.562 515.304 605.843 515.263 606.095 515.308C606.313 515.399 606.623 515.558 607.026 515.786L617.076 521.872C617.294 521.963 617.34 522.141 617.215 522.405C617.056 522.715 616.867 522.825 616.649 522.734C612.79 521.005 608.928 520.24 605.065 520.437C601.167 520.681 597.986 522.458 595.521 525.77C593.809 528.069 592.992 530.463 593.07 532.951C593.16 535.519 594.585 537.83 597.344 539.884C599.414 541.425 601.55 542.3 603.752 542.51C605.954 542.719 608.035 542.517 609.993 541.902C611.964 541.367 614.455 540.47 617.466 539.209C620.443 537.994 622.893 537.102 624.818 536.533C626.708 536.01 628.714 535.859 630.836 536.081C632.958 536.303 635.008 537.149 636.986 538.621C639.285 540.333 640.795 542.386 641.515 544.78C642.246 547.254 642.284 549.748 641.628 552.261C640.984 554.855 639.84 557.256 638.197 559.463C636.177 562.177 633.623 564.457 630.534 566.303C629.79 566.821 629.143 566.875 628.591 566.465L620.298 561.043C620.114 560.906 620.107 560.722 620.278 560.492C620.449 560.262 620.644 560.193 620.862 560.284C623.528 561.696 626.471 562.35 629.693 562.247C632.961 562.177 635.725 560.625 637.984 557.589C639.901 555.014 640.58 552.517 640.02 550.1C639.473 547.763 638.095 545.773 635.888 544.129Z" fill="black"/>
<path d="M569.653 628.374C572.672 626.39 574.444 624.128 574.97 621.587C575.448 619.078 574.81 615.758 573.057 611.628C572.994 611.532 573.106 611.39 573.394 611.201C573.633 611.043 573.784 611.013 573.847 611.109C574.789 612.959 576.053 615.353 577.64 618.29C579.226 621.226 580.476 623.389 581.389 624.779C581.547 625.018 581.505 625.217 581.266 625.374C580.978 625.563 580.756 625.538 580.598 625.298C579.906 624.244 578.266 624.567 575.678 626.267C571.511 628.8 566.648 631.892 561.09 635.544C558.263 637.401 555.3 639.417 552.201 641.591L547.36 644.874C545.635 646.008 544.444 646.962 543.787 647.736C543.082 648.543 542.846 649.384 543.079 650.26C543.157 650.483 543.076 650.674 542.836 650.831C542.597 650.988 542.414 650.971 542.288 650.78C541.519 649.296 540.277 647.093 538.563 644.171C536.85 641.25 535.41 638.903 534.245 637.13C534.182 637.034 534.295 636.892 534.582 636.703C534.87 636.514 535.045 636.467 535.108 636.563C537.707 640.206 540.19 642.314 542.555 642.886C544.952 643.506 547.756 642.762 550.966 640.652C553.123 639.236 554.593 638.132 555.377 637.342C556.162 636.553 556.517 635.736 556.443 634.893C556.369 634.049 555.844 632.885 554.868 631.4L533.097 598.266C532.121 596.781 531.245 595.813 530.469 595.363C529.693 594.912 528.747 594.882 527.631 595.272C526.516 595.662 524.928 596.534 522.867 597.888C522.723 597.982 522.557 597.886 522.368 597.598C522.179 597.311 522.157 597.12 522.3 597.025C523.882 595.987 525.167 595.176 526.157 594.594L531.81 590.983L537.154 587.369C538.08 586.691 539.382 585.801 541.059 584.7C541.155 584.637 541.297 584.749 541.486 585.036C541.675 585.324 541.722 585.499 541.626 585.562C539.566 586.916 538.135 588.027 537.334 588.897C536.533 589.766 536.185 590.646 536.291 591.537C536.38 592.508 536.897 593.712 537.841 595.149L559.707 628.427C560.683 629.912 561.527 630.832 562.24 631.187C562.985 631.589 563.86 631.563 564.865 631.109C565.901 630.702 567.497 629.79 569.653 628.374Z" fill="black"/>
<path d="M457.835 641.854C457.871 641.963 457.781 642.054 457.564 642.127C457.401 642.182 457.256 642.201 457.129 642.183C456.947 642.184 456.838 642.13 456.802 642.021C456.137 638.433 455.173 634.765 453.909 631.016C453.763 630.582 453.761 630.219 453.905 629.929C454.013 629.711 454.312 629.519 454.801 629.354L488.947 617.844C489.056 617.807 489.165 617.952 489.275 618.278C489.385 618.604 489.385 618.785 489.277 618.822C487.212 619.518 485.764 620.157 484.932 620.74C484.046 621.342 483.568 622.078 483.498 622.948C483.392 623.891 483.614 625.178 484.164 626.808L496.883 664.54C497.432 666.17 498.025 667.301 498.662 667.933C499.244 668.584 500.07 668.88 501.14 668.822C502.173 668.837 503.722 668.496 505.787 667.8C505.895 667.764 506.005 667.908 506.115 668.234C506.224 668.56 506.225 668.742 506.116 668.778L473.356 679.821C472.867 679.986 472.54 679.824 472.375 679.335L468.833 669.366C468.778 669.203 468.877 669.049 469.131 668.903C469.402 668.811 469.593 668.838 469.702 668.983C470.836 671.807 472.456 673.742 474.562 674.786C476.687 675.885 479.054 675.995 481.662 675.116L486.633 673.44C488.534 672.799 489.892 672.16 490.706 671.523C491.483 670.958 491.934 670.231 492.058 669.342C492.146 668.526 491.943 667.385 491.448 665.918L485.872 649.374L475.929 652.726C473.321 653.605 471.621 654.662 470.827 655.898C469.979 657.152 469.903 658.811 470.599 660.875C470.636 660.984 470.491 661.093 470.165 661.203C469.839 661.313 469.658 661.314 469.621 661.205L467.478 654.576C466.947 653.001 466.516 651.815 466.187 651.018L464.787 647.134C464.751 647.025 464.895 646.916 465.221 646.806C465.547 646.696 465.729 646.696 465.765 646.804C466.571 649.195 467.746 650.705 469.289 651.334C470.778 651.982 472.88 651.848 475.597 650.932L485.295 647.663L478.976 628.919C478.464 627.398 477.925 626.339 477.361 625.743C476.797 625.146 476.035 624.859 475.074 624.88C474.113 624.902 472.709 625.224 470.862 625.846L464.342 628.044C461.734 628.923 459.872 630.579 458.757 633.012C457.641 635.446 457.333 638.393 457.835 641.854Z" fill="black"/>
<path d="M417.668 646.116C417.514 644.46 417.231 643.277 416.82 642.567C416.409 641.856 415.733 641.401 414.793 641.2C413.858 641.057 412.363 641.08 410.308 641.271L400.974 642.137C397.72 642.439 395.216 643.679 393.46 645.858C391.705 648.036 390.677 650.924 390.378 654.522C390.394 654.693 390.256 654.763 389.965 654.733C389.623 654.764 389.444 654.695 389.428 654.523C389.502 649.737 389.396 645.803 389.11 642.72C389.067 642.264 389.121 641.913 389.271 641.669C389.426 641.482 389.761 641.364 390.275 641.317L429.837 637.645C429.951 637.634 430.024 637.8 430.056 638.143C430.088 638.485 430.046 638.662 429.932 638.672C427.763 638.874 426.206 639.162 425.262 639.538C424.261 639.918 423.626 640.524 423.358 641.355C423.095 642.243 423.043 643.544 423.202 645.256L426.882 684.904C427.041 686.617 427.329 687.857 427.745 688.624C428.162 689.392 428.897 689.87 429.951 690.06C430.954 690.313 432.539 690.338 434.709 690.137C434.823 690.126 434.896 690.292 434.928 690.635C434.96 690.977 434.918 691.154 434.804 691.165L430.6 691.468C428.192 691.577 426.246 691.7 424.761 691.838C423.163 691.986 421.17 692.229 418.783 692.565L414.681 693.032C414.509 693.048 414.408 692.885 414.376 692.542C414.344 692.2 414.414 692.021 414.585 692.005C416.698 691.809 418.252 691.492 419.247 691.054C420.191 690.678 420.823 690.044 421.144 689.15C421.412 688.319 421.467 687.048 421.308 685.335L417.668 646.116Z" fill="black"/>
<path d="M353.496 648.718C353.72 647.07 353.711 645.854 353.47 645.069C353.23 644.284 352.674 643.688 351.804 643.281C350.925 642.93 349.464 642.616 347.419 642.339L338.13 641.079C334.891 640.639 332.171 641.283 329.97 643.009C327.769 644.736 326.116 647.318 325.014 650.755C324.991 650.926 324.841 650.963 324.564 650.868C324.224 650.822 324.065 650.713 324.088 650.543C325.239 645.897 326.022 642.04 326.439 638.972C326.5 638.518 326.632 638.188 326.833 637.984C327.027 637.837 327.379 637.798 327.89 637.867L367.262 643.208C367.375 643.224 367.409 643.402 367.363 643.743C367.317 644.084 367.237 644.246 367.123 644.231C364.964 643.938 363.382 643.868 362.378 644.021C361.317 644.167 360.562 644.614 360.113 645.363C359.657 646.169 359.313 647.424 359.082 649.128L353.729 688.585C353.498 690.289 353.499 691.562 353.732 692.404C353.965 693.246 354.573 693.878 355.557 694.301C356.477 694.773 358.016 695.155 360.175 695.448C360.288 695.463 360.322 695.641 360.276 695.982C360.23 696.323 360.15 696.486 360.036 696.47L355.872 695.819C353.501 695.381 351.577 695.063 350.1 694.862C348.509 694.646 346.513 694.433 344.112 694.223L340.01 693.754C339.839 693.73 339.777 693.548 339.823 693.208C339.87 692.867 339.978 692.708 340.148 692.731C342.25 693.016 343.836 693.058 344.905 692.856C345.909 692.702 346.668 692.227 347.181 691.429C347.63 690.679 347.97 689.453 348.201 687.748L353.496 648.718Z" fill="black"/>
<path d="M209.081 650.329C208.98 650.275 209.011 650.096 209.174 649.793C209.337 649.49 209.469 649.366 209.57 649.42C211.388 650.397 213.598 650.705 216.199 650.346C218.773 650.036 221.417 649.114 224.13 647.577L242.666 637.425L251.905 620.228C252.747 618.663 253.206 617.445 253.282 616.575C253.359 615.705 253.036 614.913 252.313 614.199C251.54 613.458 250.194 612.572 248.274 611.541C248.123 611.46 248.129 611.268 248.291 610.964C248.454 610.661 248.611 610.551 248.763 610.632C250.329 611.473 251.527 612.15 252.359 612.662L257.621 615.586L262.889 618.319C263.825 618.757 265.076 619.397 266.642 620.238C266.793 620.319 266.788 620.511 266.625 620.814C266.462 621.118 266.305 621.228 266.153 621.147C264.234 620.116 262.777 619.496 261.783 619.287C260.738 619.051 259.875 619.205 259.192 619.75C258.431 620.317 257.644 621.359 256.83 622.874L248.242 638.859L250.927 664.025C251.147 667.007 251.658 669.266 252.459 670.803C253.26 672.34 254.494 673.556 256.161 674.452C256.313 674.533 256.307 674.725 256.144 675.028C255.981 675.331 255.824 675.442 255.673 675.361C255.067 675.035 254.185 674.496 253.027 673.744L250.416 672.244C248.699 671.321 246.5 670.205 243.819 668.895L239.688 666.773C239.587 666.718 239.618 666.54 239.78 666.237C239.943 665.934 240.075 665.809 240.176 665.864C242.802 667.275 244.4 667.45 244.97 666.389C245.269 665.834 245.355 665.067 245.23 664.088L242.639 639.656L225.785 648.857C223.724 650.028 222.368 651.219 221.717 652.432C220.74 654.25 221.615 655.892 224.343 657.357C224.444 657.411 224.413 657.59 224.25 657.893C224.087 658.196 223.955 658.32 223.854 658.266L220.334 656.277C218.469 655.145 216.729 654.145 215.113 653.276C214.254 652.815 213.191 652.309 211.925 651.759L209.081 650.329Z" fill="black"/>
<path d="M196.22 573.489C199.976 577.273 202.454 581.518 203.653 586.225C204.771 590.932 204.633 595.594 203.238 600.21C201.761 604.827 199.233 608.912 195.652 612.467C191.462 616.627 186.831 619.124 181.76 619.957C176.649 620.83 171.704 620.366 166.927 618.565C162.11 616.723 157.984 614.073 154.551 610.615C150.713 606.749 148.256 602.443 147.178 597.696C146.06 592.989 146.219 588.388 147.654 583.893C149.049 579.358 151.415 575.434 154.751 572.122C158.454 568.446 162.821 566.05 167.852 564.933C172.883 563.816 177.93 564.017 182.992 565.535C188.013 567.013 192.423 569.664 196.22 573.489ZM192.817 572.625C190.071 569.858 186.935 568.043 183.411 567.178C179.847 566.274 176.137 566.483 172.281 567.807C168.384 569.09 164.645 571.509 161.065 575.064C157.24 578.861 154.55 582.945 152.993 587.318C151.437 591.691 151.117 596.007 152.034 600.268C152.911 604.487 155.066 608.326 158.499 611.784C162.942 616.26 167.861 618.325 173.254 617.98C178.647 617.635 183.866 614.958 188.911 609.949C192.736 606.152 195.528 601.966 197.288 597.391C199.007 592.857 199.51 588.399 198.796 584.018C198.042 579.678 196.049 575.88 192.817 572.625Z" fill="black"/>
<path d="M92.8145 509.823C87.7977 512.353 86.4124 515.845 88.6585 520.298C88.7359 520.452 88.6211 520.606 88.314 520.761C88.0068 520.916 87.8145 520.917 87.7371 520.763L86.1486 517.423C85.3216 515.528 84.637 514.043 84.0948 512.968C83.6559 512.098 82.9722 510.87 82.0436 509.283L80.3403 506.097C80.2887 505.994 80.4165 505.866 80.7236 505.711C81.0308 505.556 81.2101 505.53 81.2618 505.632C83.3272 509.727 86.8683 510.51 91.885 507.98L113.693 496.982C119.58 494.013 125.013 493.327 129.993 494.925C134.921 496.549 138.78 500.126 141.568 505.654C143.479 509.442 144.414 513.144 144.376 516.76C144.311 520.324 143.322 523.584 141.41 526.539C139.42 529.469 136.582 531.863 132.896 533.722L108.324 546.114C106.789 546.889 105.74 547.61 105.178 548.279C104.616 548.948 104.44 549.807 104.648 550.858C104.78 551.883 105.337 553.368 106.318 555.313C106.369 555.416 106.242 555.544 105.934 555.699C105.627 555.854 105.448 555.881 105.396 555.778L103.575 551.977C102.593 549.775 101.767 548.009 101.096 546.678C100.373 545.244 99.4179 543.479 98.2312 541.38L96.2956 537.733C96.2181 537.58 96.333 537.425 96.6401 537.27C96.9472 537.116 97.1395 537.115 97.217 537.268C98.1722 539.163 99.0358 540.493 99.8077 541.259C100.58 542.026 101.427 542.369 102.35 542.289C103.221 542.235 104.425 541.82 105.961 541.046L127.691 530.086C133.681 527.066 137.604 523.385 139.461 519.046C141.24 514.681 140.891 510.041 138.412 505.127C136.089 500.519 132.848 497.659 128.691 496.545C124.482 495.457 119.818 496.204 114.699 498.786L92.8145 509.823Z" fill="black"/>
<path d="M104.418 372.939C104.405 372.71 104.571 372.587 104.914 372.568C105.258 372.549 105.436 372.655 105.448 372.884C105.507 373.971 105.541 375.663 105.55 377.96C105.56 380.256 105.592 381.919 105.648 382.95C105.716 384.209 105.86 385.809 106.08 387.749C106.293 389.575 106.426 390.975 106.479 391.948C106.491 392.177 106.326 392.301 105.982 392.319C105.639 392.338 105.461 392.233 105.449 392.004C105.334 389.885 105.05 388.35 104.597 387.399C104.143 386.447 103.43 385.998 102.457 386.05C101.655 386.094 100.444 386.532 98.8245 387.366L78.3192 398.38L79.1969 414.61L97.1146 421.048C99.1044 421.744 100.729 422.058 101.989 421.99C105.366 421.807 106.904 418.911 106.6 413.3C106.585 413.014 106.749 412.862 107.092 412.843C107.436 412.825 107.615 412.958 107.631 413.245C107.686 414.275 107.71 415.767 107.7 417.719C107.703 419.901 107.748 421.793 107.835 423.396C107.916 424.885 108.066 426.599 108.285 428.54C108.493 430.251 108.627 431.679 108.689 432.824C108.705 433.11 108.541 433.263 108.197 433.281C107.854 433.3 107.674 433.166 107.659 432.88C107.572 431.277 107.213 429.947 106.582 428.89C105.89 427.779 104.774 426.777 103.233 425.885C101.631 424.938 99.3667 423.94 96.4393 422.893L52.6939 407.086C52.516 406.981 52.4193 406.785 52.4038 406.499C52.3883 406.213 52.4649 406.036 52.6336 405.97L94.2174 383.395C98.3486 381.22 101.121 379.405 102.535 377.95C103.892 376.499 104.52 374.829 104.418 372.939ZM77.3517 413.935L76.5623 399.336L60.664 407.947L77.3517 413.935Z" fill="black"/>
<path d="M107.113 302.635C108.688 303.166 109.884 303.387 110.7 303.3C111.517 303.212 112.207 302.779 112.772 302.001C113.282 301.205 113.867 299.829 114.526 297.873L117.52 288.99C118.564 285.894 118.447 283.101 117.168 280.613C115.889 278.125 113.666 276.014 110.499 274.281C110.336 274.226 110.328 274.072 110.474 273.819C110.583 273.493 110.72 273.357 110.883 273.412C115.227 275.421 118.867 276.92 121.8 277.909C122.235 278.055 122.534 278.247 122.696 278.483C122.804 278.701 122.776 279.054 122.611 279.543L109.919 317.194C109.883 317.303 109.701 317.302 109.375 317.192C109.049 317.082 108.905 316.973 108.941 316.864C109.637 314.8 110.005 313.26 110.045 312.245C110.103 311.175 109.806 310.349 109.156 309.767C108.451 309.166 107.283 308.591 105.653 308.042L67.9212 295.323C66.2913 294.773 65.0411 294.533 64.1706 294.603C63.3001 294.673 62.5642 295.151 61.9629 296.037C61.3256 296.851 60.659 298.29 59.9631 300.354C59.9265 300.463 59.7452 300.462 59.4192 300.352C59.0932 300.243 58.9485 300.133 58.9852 300.025L60.4127 296.059C61.2906 293.814 61.9676 291.985 62.4437 290.572C62.9565 289.051 63.5432 287.131 64.2037 284.813L65.4408 280.873C65.4957 280.71 65.6862 280.684 66.0122 280.794C66.3382 280.904 66.4737 281.04 66.4187 281.203C65.7411 283.213 65.4005 284.762 65.3968 285.85C65.3571 286.865 65.6806 287.7 66.3674 288.355C67.0181 288.938 68.1584 289.504 69.7883 290.053L107.113 302.635Z" fill="black"/>
<path d="M144.629 235.384C141.588 239.763 137.861 242.969 133.449 245.001C129.022 246.952 124.413 247.66 119.62 247.124C114.812 246.508 110.337 244.761 106.192 241.883C101.342 238.515 98.048 234.413 96.3107 229.577C94.5263 224.708 94.0873 219.762 94.9937 214.737C95.9328 209.666 97.7922 205.128 100.572 201.126C103.678 196.652 107.469 193.455 111.942 191.536C116.369 189.584 120.922 188.907 125.603 189.505C130.316 190.056 134.603 191.672 138.465 194.353C142.75 197.329 145.898 201.19 147.907 205.936C149.916 210.681 150.633 215.681 150.056 220.934C149.512 226.141 147.703 230.957 144.629 235.384ZM144.863 231.881C147.086 228.679 148.304 225.267 148.516 221.645C148.76 217.975 147.882 214.364 145.882 210.812C143.915 207.212 140.859 203.973 136.715 201.095C132.288 198.021 127.784 196.115 123.201 195.376C118.619 194.637 114.316 195.104 110.292 196.777C106.301 198.403 102.916 201.218 100.136 205.221C96.5391 210.401 95.3986 215.612 96.7147 220.853C98.0308 226.095 101.609 230.743 107.448 234.798C111.875 237.872 116.497 239.86 121.315 240.763C126.086 241.632 130.561 241.32 134.74 239.824C138.872 238.296 142.246 235.649 144.863 231.881Z" fill="black"/>
<path d="M188.717 109.755C188.853 109.649 189.026 109.733 189.236 110.005C189.447 110.277 189.484 110.466 189.348 110.571C187.806 111.763 186.783 113.206 186.28 114.899C185.778 116.592 185.894 118.712 186.631 121.259L200.173 168.727C200.268 168.944 200.089 169.227 199.635 169.578C199.272 169.859 198.953 169.961 198.676 169.885L153.279 146.172C151.14 144.999 149.359 144.382 147.937 144.323C146.514 144.263 145.122 144.76 143.761 145.812C143.625 145.917 143.452 145.833 143.241 145.561C143.031 145.289 142.994 145.1 143.13 144.995L145.768 143.064C147.108 142.173 148.164 141.43 148.935 140.834C150.749 139.431 152.665 137.878 154.681 136.174L157.418 133.95C157.554 133.844 157.728 133.928 157.938 134.2C158.148 134.472 158.186 134.661 158.049 134.766C156.643 135.853 155.718 136.859 155.272 137.782C154.872 138.671 155.006 139.547 155.672 140.409C156.093 140.953 156.858 141.521 157.967 142.112L196.278 162.282L184.803 122.128C184.43 120.895 184.033 120.006 183.612 119.462C182.875 118.509 181.901 118.14 180.689 118.352C179.476 118.565 177.963 119.372 176.148 120.775C176.012 120.88 175.839 120.797 175.628 120.525C175.418 120.252 175.381 120.064 175.517 119.959L178.495 117.765C180.108 116.663 181.549 115.622 182.819 114.64C183.772 113.904 184.802 113.034 185.912 112.032L188.717 109.755Z" fill="black"/>
<path d="M270.999 111.834C270.955 111.729 271.039 111.632 271.25 111.543C271.409 111.477 271.552 111.448 271.68 111.456C271.861 111.443 271.973 111.489 272.018 111.595C272.936 115.126 274.159 118.716 275.687 122.365C275.864 122.788 275.891 123.15 275.768 123.45C275.676 123.675 275.392 123.887 274.916 124.086L241.676 137.999C241.57 138.044 241.451 137.907 241.318 137.59C241.185 137.273 241.172 137.092 241.277 137.048C243.287 136.206 244.686 135.465 245.475 134.825C246.316 134.162 246.74 133.394 246.748 132.52C246.786 131.572 246.473 130.305 245.809 128.718L230.435 91.9878C229.771 90.4011 229.098 89.3151 228.418 88.7296C227.791 88.122 226.946 87.8853 225.883 88.0193C224.852 88.0783 223.331 88.5284 221.321 89.3696C221.215 89.4139 221.096 89.2773 220.963 88.96C220.83 88.6427 220.817 88.4619 220.923 88.4176L252.814 75.0691C253.29 74.8698 253.627 75.0082 253.826 75.4842L258.069 85.1755C258.136 85.3341 258.048 85.4953 257.806 85.6588C257.541 85.7695 257.349 85.7566 257.23 85.6201C255.898 82.8835 254.144 81.0693 251.969 80.1775C249.771 79.2329 247.402 79.2918 244.864 80.3544L240.025 82.3799C238.174 83.1547 236.865 83.8889 236.099 84.5826C235.363 85.2012 234.965 85.9582 234.905 86.8536C234.875 87.674 235.16 88.7981 235.757 90.2261L242.498 106.33L252.176 102.279C254.715 101.217 256.336 100.041 257.04 98.7519C257.796 97.4409 257.754 95.7805 256.912 93.7708C256.868 93.665 257.005 93.5457 257.322 93.4129C257.639 93.28 257.82 93.2665 257.864 93.3723L260.475 99.8313C261.117 101.365 261.63 102.517 262.015 103.289L263.688 107.063C263.732 107.169 263.596 107.288 263.279 107.421C262.961 107.554 262.781 107.568 262.736 107.462C261.762 105.135 260.483 103.712 258.899 103.194C257.368 102.654 255.28 102.938 252.636 104.045L243.195 107.996L250.832 126.242C251.452 127.723 252.065 128.741 252.67 129.296C253.275 129.85 254.056 130.083 255.013 129.993C255.97 129.903 257.347 129.482 259.145 128.729L265.492 126.073C268.031 125.01 269.77 123.226 270.709 120.719C271.649 118.213 271.746 115.251 270.999 111.834Z" fill="black"/>
<path d="M334.919 63.3306C335.057 65.5624 335.721 67.4744 336.911 69.0667C338.101 70.659 339.503 71.9796 341.119 73.0286C342.731 74.0204 344.993 75.288 347.903 76.8314C350.988 78.4214 353.397 79.766 355.131 80.8651C356.865 81.9642 358.363 83.4226 359.624 85.2403C360.939 86.9972 361.676 89.1632 361.835 91.7382C362.005 94.485 361.472 97.0167 360.236 99.3333C359.001 101.65 357.079 103.549 354.471 105.032C351.916 106.454 348.779 107.279 345.06 107.509C340.654 107.782 336.557 107.029 332.771 105.253C332.474 105.099 332.262 104.911 332.133 104.689C332.062 104.464 331.983 104.124 331.898 103.67L330.06 92.0651C329.989 91.8398 330.095 91.6896 330.377 91.6147C330.717 91.5363 330.923 91.6097 330.994 91.8351C332.164 95.8986 334.072 99.3422 336.716 102.166C339.418 104.986 342.829 106.268 346.949 106.014C349.81 105.837 352.166 104.916 354.016 103.251C355.92 101.524 356.766 98.9447 356.554 95.5113C356.394 92.9362 355.684 90.7398 354.423 88.9221C353.162 87.1045 351.664 85.6461 349.93 84.547C348.25 83.3871 345.957 82.064 343.051 80.5778C340.201 79.0881 337.938 77.7919 336.262 76.6893C334.642 75.583 333.232 74.148 332.032 72.384C330.832 70.62 330.155 68.5077 330.003 66.0471C329.826 63.1859 330.42 60.7079 331.784 58.6131C333.202 56.4575 335.082 54.819 337.425 53.6977C339.822 52.5155 342.394 51.8396 345.141 51.6698C348.517 51.4611 351.907 51.9409 355.311 53.1091C356.187 53.3422 356.647 53.8021 356.689 54.4888L357.9 64.3228C357.914 64.5517 357.778 64.675 357.492 64.6926C357.206 64.7103 357.027 64.6065 356.956 64.3811C356.314 61.4338 354.914 58.7631 352.755 56.369C350.593 53.9177 347.624 52.8088 343.847 53.0422C340.643 53.2403 338.298 54.3331 336.812 56.3205C335.38 58.2472 334.749 60.5839 334.919 63.3306Z" fill="black"/>
<path d="M409.174 53.9569C405.624 53.2937 402.778 53.6955 400.638 55.1621C398.554 56.6393 396.712 59.474 395.113 63.6662C395.092 63.7789 394.912 63.8037 394.574 63.7405C394.292 63.6879 394.162 63.6052 394.183 63.4925C394.787 61.5057 395.536 58.9042 396.428 55.688C397.32 52.4719 397.919 50.0466 398.224 48.4122C398.277 48.1304 398.444 48.0158 398.726 48.0684C399.064 48.1316 399.207 48.3041 399.154 48.5859C398.923 49.8258 400.329 50.7299 403.372 51.2984C408.131 52.3622 413.779 53.5046 420.317 54.7257C423.642 55.3468 427.175 55.9483 430.916 56.5304L436.68 57.5196C438.709 57.8985 440.229 58.0366 441.239 57.9337C442.307 57.8414 443.06 57.3989 443.5 56.6061C443.598 56.3912 443.788 56.3101 444.07 56.3627C444.352 56.4153 444.472 56.5544 444.43 56.7798C443.955 58.3826 443.323 60.8308 442.533 64.1244C441.743 67.418 441.153 70.1074 440.763 72.1927C440.742 72.3054 440.563 72.3302 440.225 72.267C439.886 72.2039 439.728 72.1159 439.749 72.0032C440.401 67.5757 440.073 64.3357 438.765 62.2833C437.467 60.1746 434.93 58.7675 431.154 58.0623C428.618 57.5886 426.794 57.3644 425.681 57.3899C424.568 57.4153 423.746 57.7575 423.214 58.4165C422.683 59.0755 422.254 60.2785 421.928 62.0256L414.649 100.998C414.322 102.745 414.283 104.05 414.53 104.912C414.777 105.775 415.438 106.453 416.512 106.945C417.587 107.437 419.336 107.91 421.759 108.362C421.929 108.394 421.981 108.579 421.918 108.917C421.855 109.255 421.739 109.408 421.57 109.377C419.71 109.029 418.222 108.722 417.105 108.455L410.527 107.139L404.171 106.04C403.033 105.885 401.478 105.624 399.506 105.256C399.393 105.235 399.368 105.055 399.431 104.717C399.494 104.379 399.582 104.22 399.695 104.241C402.118 104.694 403.92 104.885 405.1 104.813C406.28 104.742 407.141 104.349 407.682 103.633C408.291 102.872 408.753 101.646 409.069 99.9555L416.38 60.8144C416.706 59.0673 416.735 57.8187 416.467 57.0688C416.209 56.2624 415.561 55.6747 414.522 55.3056C413.493 54.8802 411.711 54.4306 409.174 53.9569Z" fill="black"/>
<path d="M482.824 128.621C478.109 126.132 474.476 122.821 471.925 118.687C469.452 114.529 468.191 110.039 468.143 105.217C468.173 100.37 469.365 95.7158 471.72 91.2537C474.476 86.0311 478.149 82.2649 482.74 79.955C487.357 77.5944 492.214 76.5599 497.311 76.8514C502.459 77.1697 507.188 78.4662 511.498 80.7408C516.315 83.2831 519.946 86.6585 522.393 90.867C524.866 95.0248 526.089 99.4628 526.063 104.181C526.087 108.926 525.001 113.378 522.807 117.536C520.372 122.15 516.92 125.741 512.453 128.31C507.985 130.879 503.109 132.196 497.824 132.259C492.591 132.349 487.591 131.136 482.824 128.621ZM486.329 128.429C489.777 130.248 493.312 131.044 496.933 130.816C500.605 130.615 504.083 129.306 507.368 126.891C510.703 124.502 513.548 121.076 515.903 116.614C518.418 111.848 519.765 107.146 519.944 102.508C520.123 97.8699 519.139 93.655 516.991 89.8635C514.894 86.0986 511.69 83.0789 507.38 80.8042C501.803 77.8606 496.492 77.3592 491.448 79.3C486.405 81.2409 482.223 85.3551 478.905 91.6425C476.39 96.4087 474.976 101.238 474.663 106.129C474.377 110.97 475.229 115.374 477.219 119.342C479.236 123.259 482.273 126.288 486.329 128.429Z" fill="black"/>
<path d="M576.654 195.364C576.735 195.446 576.653 195.607 576.408 195.849C576.163 196.09 576 196.17 575.919 196.089L568.132 188.187C567.126 187.166 566.97 183.537 567.664 177.298C568.439 171.06 569.978 162.862 572.282 152.703C571.03 152.004 569.801 151.043 568.593 149.818C567.829 149.042 566.964 148.083 565.999 146.941L551.421 161.308C550.155 162.556 549.357 163.584 549.027 164.392C548.697 165.201 548.772 166.052 549.252 166.948C549.772 167.884 550.797 169.128 552.326 170.68C552.447 170.802 552.385 170.984 552.14 171.226C551.895 171.467 551.712 171.527 551.591 171.404C550.344 170.138 549.378 169.118 548.694 168.342L544.59 164.056L540.424 159.951C539.659 159.256 538.612 158.235 537.284 156.888C537.204 156.806 537.286 156.644 537.531 156.403C537.776 156.161 537.939 156.082 538.019 156.163C539.548 157.715 540.777 158.758 541.706 159.291C542.675 159.785 543.587 159.893 544.44 159.615C545.294 159.338 546.333 158.595 547.558 157.388L575.917 129.438C577.142 128.23 577.9 127.202 578.19 126.353C578.52 125.544 578.425 124.672 577.905 123.736C577.465 122.8 576.481 121.556 574.952 120.005C574.831 119.882 574.893 119.7 575.138 119.459C575.383 119.217 575.566 119.158 575.687 119.28L578.584 122.342C580.192 124.137 581.52 125.566 582.566 126.628C583.291 127.363 583.995 128.037 584.68 128.65C585.365 129.263 585.969 129.795 586.493 130.244C587.903 131.43 589.131 132.554 590.178 133.616C593.438 136.923 595.279 140.14 595.703 143.264C596.126 146.389 595.133 149.139 592.724 151.513C590.764 153.445 588.342 154.704 585.459 155.292C582.617 155.839 579.76 155.676 576.888 154.804C575.123 163.386 573.938 170.31 573.332 175.576C572.767 180.802 572.737 184.977 573.241 188.103C573.786 191.188 574.924 193.608 576.654 195.364ZM567.53 145.431C568.373 146.613 569.479 147.898 570.847 149.287C573.624 152.104 576.208 153.542 578.6 153.6C581.032 153.618 583.657 152.238 586.475 149.461C592.396 143.625 592.901 138.217 587.991 133.235C586.905 132.132 585.978 131.396 585.21 131.026C584.523 130.656 583.753 130.65 582.899 131.009C582.086 131.327 581.006 132.15 579.658 133.479L567.53 145.431Z" fill="black"/>
<path d="M663.327 231.152C663.382 231.253 663.259 231.386 662.957 231.551C662.655 231.716 662.477 231.748 662.422 231.648C661.432 229.837 659.749 228.372 657.373 227.253C655.047 226.107 652.328 225.438 649.217 225.244L628.144 223.633L611.015 232.999C609.456 233.852 608.407 234.622 607.867 235.309C607.328 235.995 607.167 236.835 607.383 237.828C607.626 238.871 608.271 240.348 609.316 242.26C609.399 242.411 609.289 242.569 608.987 242.734C608.685 242.899 608.493 242.906 608.411 242.755C607.558 241.196 606.923 239.974 606.506 239.092L603.693 233.769L600.77 228.603C600.225 227.726 599.526 226.507 598.673 224.947C598.591 224.797 598.7 224.639 599.002 224.473C599.304 224.308 599.496 224.301 599.579 224.452C600.624 226.364 601.506 227.678 602.225 228.396C602.972 229.164 603.78 229.506 604.649 229.423C605.596 229.363 606.824 228.92 608.333 228.094L624.255 219.388L635.741 196.836C637.184 194.218 637.989 192.046 638.157 190.32C638.324 188.595 637.954 186.902 637.046 185.242C636.964 185.092 637.074 184.934 637.375 184.769C637.677 184.603 637.869 184.596 637.952 184.747C638.282 185.351 638.727 186.284 639.286 187.546L640.655 190.228C641.59 191.939 642.823 194.074 644.354 196.635L646.658 200.668C646.713 200.769 646.59 200.902 646.288 201.067C645.986 201.232 645.808 201.264 645.753 201.164C644.322 198.548 643.079 197.529 642.022 198.106C641.469 198.409 640.978 199.004 640.549 199.892L629.384 221.778L648.528 223.268C650.894 223.412 652.681 223.154 653.888 222.494C655.699 221.503 655.862 219.65 654.376 216.934C654.321 216.833 654.444 216.7 654.746 216.535C655.048 216.37 655.227 216.338 655.282 216.439L657.145 220.026C658.09 221.993 659.003 223.781 659.883 225.391C660.35 226.246 660.965 227.25 661.725 228.402L663.327 231.152Z" fill="black"/>
<path d="M626.139 284.137C625.773 283.05 625.806 282.071 626.238 281.199C626.67 280.327 627.402 279.718 628.434 279.37C629.467 279.022 630.392 279.073 631.209 279.523C632.081 279.956 632.7 280.715 633.066 281.802C633.45 282.942 633.445 283.912 633.049 284.712C632.671 285.565 631.938 286.175 630.852 286.541C629.765 286.907 628.786 286.874 627.914 286.442C627.115 286.046 626.523 285.277 626.139 284.137Z" fill="black"/>
</svg>
