<svg width="18" height="18" viewBox="0 0 18 18" fill="none" xmlns="http://www.w3.org/2000/svg">
<path d="M8.99984 11.75L11.7498 8.99996M11.7498 8.99996L8.99984 6.24996M11.7498 8.99996H1.6665M6.24984 4.6445V4.60014C6.24984 3.57337 6.24984 3.05961 6.44966 2.66744C6.62543 2.32248 6.90569 2.04222 7.25065 1.86645C7.64282 1.66663 8.15659 1.66663 9.18335 1.66663H13.4C14.4268 1.66663 14.9394 1.66663 15.3316 1.86645C15.6766 2.04222 15.9578 2.32248 16.1335 2.66744C16.3332 3.05923 16.3332 3.57237 16.3332 4.59713V13.4032C16.3332 14.428 16.3332 14.9404 16.1335 15.3322C15.9578 15.6771 15.6766 15.9579 15.3316 16.1337C14.9398 16.3333 14.4274 16.3333 13.4027 16.3333H9.18034C8.15558 16.3333 7.64244 16.3333 7.25065 16.1337C6.90569 15.9579 6.62543 15.6769 6.44966 15.3319C6.24984 14.9397 6.24984 14.4267 6.24984 13.4V13.3541" stroke="#C3937C" stroke-width="1.5" stroke-linecap="round" stroke-linejoin="round"/>
</svg>
