<svg width="19" height="19" viewBox="0 0 19 19" fill="none" xmlns="http://www.w3.org/2000/svg">
<path d="M2.3751 5.6999L16.6251 5.6999M2.3751 13.2999L16.6251 13.2999M9.5001 1.8999L9.5001 17.0999M13.3001 1.8999L13.3001 5.6999M13.3001 13.2999L13.3001 17.0999M5.7001 1.8999L5.7001 5.6999M5.7001 13.2999L5.7001 17.0999M4.75001 1.8999L14.2501 1.8999C15.8241 1.8999 17.1001 3.17589 17.1001 4.7499L17.1001 14.2499C17.1001 15.8239 15.8241 17.0999 14.2501 17.0999L4.75001 17.0999C3.176 17.0999 1.90001 15.8239 1.90001 14.2499L1.90001 4.7499C1.90001 3.17589 3.176 1.8999 4.75001 1.8999Z" stroke="#6B7280" stroke-width="1.5" stroke-linecap="round" stroke-linejoin="round"/>
</svg>
