<svg width="14" height="18" viewBox="0 0 14 18" fill="none" xmlns="http://www.w3.org/2000/svg">
<path d="M5.11741 12.1948C6.37712 12.0904 7.64262 12.0904 8.90233 12.1948C9.58831 12.236 10.271 12.3242 10.9462 12.4591C12.4072 12.7633 13.361 13.2598 13.7697 14.0605C14.0768 14.6854 14.0768 15.4293 13.7697 16.0543C13.361 16.855 12.445 17.3835 10.9311 17.6557C10.2564 17.7956 9.57355 17.8866 8.88719 17.9279C8.25132 18 7.61546 18 6.97202 18H5.81383C5.5716 17.968 5.33693 17.952 5.10984 17.952C4.42346 17.9156 3.74042 17.8273 3.06598 17.6877C1.605 17.3995 0.651195 16.887 0.242423 16.0863C0.0846223 15.7761 0.00142982 15.4296 9.11906e-05 15.0774C-0.00310127 14.723 0.0775753 14.3734 0.234853 14.0605C0.636055 13.2598 1.58986 12.7393 3.06598 12.4591C3.74339 12.3223 4.42876 12.234 5.11741 12.1948ZM7.0023 0C9.53999 0 11.5972 2.17604 11.5972 4.86032C11.5972 7.5446 9.53999 9.72064 7.0023 9.72064C4.46461 9.72064 2.4074 7.5446 2.4074 4.86032C2.4074 2.17604 4.46461 0 7.0023 0Z" fill="#C3937C"/>
</svg>
