<svg width="133" height="104" viewBox="0 0 133 104" fill="none" xmlns="http://www.w3.org/2000/svg">
<path d="M1.05633 73.1787C1.41276 73.4244 1.50072 73.4902 1.72456 73.6445C36.2734 97.4552 83.8058 88.643 107.681 54.0007C116.249 41.6055 120.941 26.9462 121.159 11.8922C121.203 8.83367 121.838 1.29049 121.838 1.29049C124.154 20.0838 119.481 39.0906 108.709 54.6908C84.4471 89.8941 36.139 98.8518 1.02697 74.6529C0.803731 74.4991 0.581559 74.3442 0.36044 74.1884C-0.612725 73.5027 0.649426 72.6249 1.05633 73.1787Z" fill="#C3937C"/>
<path d="M55.0155 65.4588C56.6268 65.8366 58.1618 66.5729 58.7802 68.1852C59.3189 69.5739 59.2096 71.1169 58.8028 72.5234C57.8564 75.8037 55.4017 78.2211 52.6361 80.079C48.73 82.6954 39.2987 84.7774 39.204 84.6937C38.602 85.4833 38.6091 86.4265 37.9406 87.1677C37.6479 87.4931 36.4555 86.9349 36.7481 86.6094C38.8962 84.2506 40.692 81.5935 42.0797 78.7209C43.3653 76.0354 44.0266 73.0963 45.3699 70.4454C47.2447 66.7717 50.8414 64.4745 55.0155 65.4588ZM50.6506 66.3304C50.6617 66.3409 50.6702 66.3539 50.6755 66.3682C50.6808 66.3825 50.6827 66.3979 50.6811 66.4131C50.6795 66.4283 50.6744 66.4429 50.6663 66.4559C50.6582 66.4688 50.6471 66.4798 50.6341 66.4878C47.2305 68.3751 46.2118 71.993 45.1321 75.4476C45.4883 74.7706 45.8676 74.1095 46.2822 73.4622C48.188 70.5074 50.6462 67.9483 53.5211 65.9261C53.2852 65.9137 53.0443 65.9085 52.8044 65.9171C52.072 65.9428 51.3474 66.0798 50.6555 66.3233L50.6506 66.3304ZM45.0514 82.0104C44.8897 82.0747 44.7256 82.1373 44.5592 82.1983C44.6978 82.1726 44.8341 82.1427 44.9722 82.114C44.9712 82.1001 44.9737 82.0862 44.9796 82.0737C44.9855 82.0611 44.9945 82.0503 45.0058 82.0423L45.0514 82.0104ZM41.5729 83.0949C41.6795 82.9942 41.7807 82.888 41.8762 82.7768C41.6754 82.9309 41.4775 83.0845 41.2756 83.2326C41.3659 83.1816 41.4718 83.1385 41.5729 83.0949ZM42.1654 82.7309C42.1654 82.7309 42.1716 82.722 42.1753 82.7167L42.1654 82.7309ZM42.3829 82.7701C42.4658 82.7376 42.5522 82.7076 42.6344 82.6799L42.4496 82.7001C42.4337 82.7155 42.4086 82.7404 42.3866 82.7648L42.3829 82.7701ZM42.321 82.5166L42.3716 82.5119C42.5111 82.3629 42.6493 82.2157 42.7852 82.0643C42.6658 82.1612 42.547 82.2612 42.4338 82.3492C42.3961 82.4076 42.3604 82.4594 42.3247 82.5113L42.321 82.5166ZM42.658 82.4853C42.9385 82.4598 43.2077 82.4239 43.4811 82.3857L43.5337 82.3666C44.3434 82.0906 45.1334 81.7598 45.8984 81.3764C50.7075 77.6561 54.6163 72.8973 57.3322 67.4562C57.2744 67.3952 57.2158 67.339 57.1537 67.2804C54.5499 70.5063 51.7595 73.5769 48.7971 76.4764C47.1426 78.1142 45.4635 79.7878 43.6695 81.319C43.3547 81.7109 43.016 82.0994 42.6642 82.4764L42.658 82.4853ZM43.5442 82.5689C43.0376 82.7469 42.5403 82.9155 42.046 83.1178C41.9592 83.2056 41.8778 83.2971 41.7892 83.3836C41.7754 83.3955 41.7585 83.4031 41.7405 83.4055C41.7224 83.4079 41.7041 83.405 41.6878 83.3971C41.6714 83.3892 41.6578 83.3766 41.6485 83.361C41.6392 83.3454 41.6346 83.3275 41.6354 83.3093C41.529 83.4057 41.417 83.4958 41.2998 83.5788C44.5377 82.6948 47.888 81.9833 50.8306 80.395C48.5244 81.4773 46.0699 82.2077 43.5491 82.5617L43.5442 82.5689ZM41.5688 82.7652L41.5195 82.7681C41.4985 82.7985 41.4788 82.8271 41.4579 82.8574C41.5011 82.8214 41.5407 82.7906 41.579 82.7617L41.5688 82.7652ZM41.8506 82.5508C41.9966 82.438 42.1445 82.3265 42.2883 82.2094C42.6793 81.5591 42.9913 80.8644 43.2175 80.1403C42.7625 80.9844 42.2478 81.795 41.6773 82.5658L41.8506 82.5508ZM53.7802 65.9544C53.7785 65.9636 53.7748 65.9723 53.7695 65.98C53.7642 65.9877 53.7574 65.9942 53.7495 65.9991C50.2909 68.4045 47.4386 71.5831 45.4196 75.2821C45.1202 75.8348 44.8602 76.3989 44.6182 76.9675C44.4151 77.5444 44.196 78.1103 43.9531 78.6572C43.6712 79.4171 43.3995 80.1813 43.1061 80.9465C42.9865 81.2603 42.8502 81.5676 42.6978 81.867C42.9853 81.6328 43.2735 81.3939 43.5595 81.143C45.4888 78.8089 47.0769 76.2186 48.8955 73.782C50.9389 71.0574 53.4405 68.7434 55.9569 66.4767C55.2704 66.1789 54.5376 66.0011 53.7905 65.9509L53.7802 65.9544ZM56.1425 66.5888C53.2606 69.1914 50.5046 71.8439 48.2468 75.0322C46.9674 76.839 45.7498 78.6857 44.3941 80.424C45.7358 79.2401 47.0159 77.9663 48.278 76.7223C51.3806 73.714 54.297 70.5192 57.011 67.1557C56.7471 66.9342 56.4592 66.7428 56.1528 66.5853L56.1425 66.5888ZM57.4716 67.6049C54.8893 72.7517 51.2407 77.2902 46.7696 80.9172C47.3917 80.579 48.0029 80.2148 48.6247 79.8236C52.5489 77.3831 56.3725 74.5966 58.461 70.3533C58.4836 69.3459 58.135 68.3664 57.4818 67.6014L57.4716 67.6049ZM58.4439 70.8053C56.6454 74.2311 53.7325 76.707 50.538 78.8439C49.0293 79.8468 47.4776 80.8702 45.8395 81.6679C45.6666 81.8018 45.489 81.9324 45.3066 82.0597C48.0535 81.4684 50.6836 80.4224 53.0886 78.9648C55.8027 76.9872 58.2207 74.1729 58.4542 70.8019L58.4439 70.8053ZM40.8369 83.3046C40.9743 83.1357 41.11 82.9656 41.2403 82.7918C41.0069 82.8023 40.7736 82.8129 40.538 82.8191C40.2559 83.2284 40.23 83.308 39.9329 83.72C40.2552 83.6228 40.5628 83.4818 40.8472 83.3011L40.8369 83.3046ZM45.5771 71.5713C44.3482 74.3117 43.6165 77.2233 42.2389 79.9086C41.7626 80.8362 41.2396 81.739 40.6718 82.6135C40.9122 82.6079 41.1521 82.5993 41.3939 82.5841C43.5025 79.6962 44.4887 76.4802 45.6807 72.9923C46.5828 70.3562 47.8686 67.9108 50.3133 66.4538C48.1484 67.3445 46.6146 69.2764 45.5873 71.5679L45.5771 71.5713Z" fill="#C3937C"/>
<path d="M37.2219 86.6276C38.8034 87.6359 40.3391 88.7259 41.8502 89.8516C41.9016 89.8274 41.9589 89.8184 42.0153 89.8257C47.1268 90.4492 52.4382 89.8557 57.4564 91.1791C61.1537 92.1459 65.9109 94.7708 65.9468 99.1393C65.9827 103.508 61.7687 104.412 58.3522 103.217C53.757 101.608 50.5804 97.5974 46.896 94.6286C43.6641 92.0216 38.8399 89.9172 35.3296 87.6798C34.9683 87.4413 36.8586 86.3957 37.2219 86.6276ZM51.8369 97.193C51.1079 96.9369 50.3973 96.6312 49.7101 96.2781C51.0834 97.554 52.462 98.8415 53.9365 99.9632C53.2516 99.0536 52.5583 98.1145 51.8406 97.1877L51.8369 97.193ZM46.3101 93.297C46.3814 93.3461 46.4453 93.406 46.5111 93.4593C47.7554 94.3012 49.0898 95.0016 50.4896 95.5475C49.9779 94.955 49.4502 94.3857 48.8931 93.8515C47.9279 93.702 46.9812 93.4524 46.0682 93.1065L46.3101 93.297ZM47.6069 94.3752C48.1382 94.8363 48.6644 95.3123 49.187 95.7937C49.842 96.1838 50.5289 96.5179 51.2404 96.7924C51.3711 96.843 51.5043 96.89 51.6375 96.937C51.348 96.5714 51.0524 96.2069 50.7507 95.8514C49.6711 95.4296 48.6209 94.9364 47.6069 94.3752ZM45.2461 92.4609C45.2461 92.4609 45.2586 92.4695 45.2657 92.4744C45.3156 92.5088 45.3637 92.542 45.4008 92.5912L45.5716 92.7248C46.5778 93.1789 47.6365 93.5067 48.7238 93.7006C48.6108 93.5937 48.4983 93.4899 48.3829 93.3866C47.0029 93.0414 45.6737 92.5187 44.4286 91.8316L45.2461 92.4609ZM49.0552 93.7498C49.3322 93.7904 49.611 93.8244 49.893 93.8501C50.0586 93.8615 50.225 93.868 50.3984 93.8795C49.8567 93.7539 49.3163 93.6266 48.7802 93.489C48.8719 93.5733 48.9677 93.6631 49.0624 93.7547L49.0552 93.7498ZM43.0076 90.6018C44.5056 91.8609 46.262 92.5812 48.0899 93.1214C46.8948 92.0624 45.514 91.2341 44.017 90.6781C43.685 90.6602 43.3471 90.6355 43.0129 90.6055L43.0076 90.6018ZM42.8552 90.5864L42.8187 90.5823L42.8454 90.6008C42.8492 90.5957 42.8545 90.592 42.8606 90.5901L42.8552 90.5864ZM46.4452 90.7859C48.0399 91.2182 49.6048 91.7432 51.2176 92.1378C53.8035 92.7681 56.6827 92.5648 59.374 92.535C59.1215 92.4322 58.8726 92.3318 58.6272 92.2417C54.776 90.8422 50.576 90.9101 46.4505 90.7896L46.4452 90.7859ZM59.8244 92.7321C57.19 92.7404 54.3913 92.9413 51.7956 92.4702C49.683 92.0685 47.6469 91.2926 45.5484 90.7636L44.631 90.7217C46.0582 91.3388 47.3704 92.1932 48.512 93.2489C49.3811 93.4867 50.2676 93.6918 51.1517 93.8926C52.7457 93.8683 54.3508 93.6409 55.9606 93.7804C59.2035 94.0754 62.1336 95.6441 64.9104 97.26C64.0531 95.1589 61.9123 93.6729 59.8208 92.7296L59.8244 92.7321ZM65.2551 98.6441C65.214 98.2725 65.1331 97.9066 65.0137 97.5526C61.0814 95.2906 57.4543 93.7529 52.7732 94.0191C52.4617 94.0363 52.1563 94.0446 51.8503 94.0499C52.8895 94.289 53.923 94.54 54.9199 94.8633C58.6067 96.0725 62.0761 97.8621 65.1978 100.165C65.2918 99.6626 65.3099 99.149 65.2515 98.6416L65.2551 98.6441ZM65.1583 100.375C61.6566 97.7792 57.7152 95.8368 53.5223 94.6408C52.7311 94.4196 51.9254 94.2308 51.1228 94.0413C50.4825 94.0291 49.8435 93.9794 49.2091 93.8927C49.789 94.4663 50.3419 95.0714 50.8758 95.7003C52.3709 96.3038 53.9032 96.8458 55.3707 97.5198C58.2307 98.8507 60.9122 100.535 63.3527 102.533C63.7998 102.338 64.1955 102.041 64.5083 101.665C64.8211 101.29 65.0424 100.848 65.1547 100.373L65.1583 100.375ZM63.1481 102.624C60.1757 100.217 56.8572 98.2733 53.3039 96.8572C52.5745 96.5653 51.8519 96.294 51.1225 96.0022C51.41 96.3479 51.6938 96.699 51.9738 97.0554C52.8045 97.2965 53.618 97.593 54.4088 97.9429C56.5176 98.9718 57.8901 100.806 59.2235 102.674C59.2317 102.685 59.2375 102.697 59.2405 102.711C59.2434 102.724 59.2436 102.738 59.2408 102.752C60.5749 103.07 62.0085 103.072 63.1445 102.622L63.1481 102.624ZM58.9877 102.688C57.1085 100.075 55.2795 98.3769 52.1756 97.3157C52.968 98.3363 53.7276 99.3737 54.485 100.365C55.5642 101.158 56.7321 101.822 57.9653 102.344C58.2975 102.479 58.6378 102.593 58.9842 102.686L58.9877 102.688Z" fill="#C3937C"/>
<path d="M74.0557 61.2432C76.5571 60.1653 78.5604 60.7104 79.4016 63.4489C80.6247 67.4258 77.4224 71.0464 75.0282 73.8376C71.5468 77.9011 67.1924 80.7751 62.5509 83.3486C62.4915 83.3865 62.4199 83.4005 62.3507 83.3875C62.2815 83.3746 62.2199 83.3358 62.1783 83.2789C61.3858 84.5777 61.5757 85.7629 60.0682 86.7641C59.7127 87.0014 58.0116 86.4985 58.3726 86.257C63.4719 82.8552 63.2273 77.4547 65.1132 72.281C66.6823 67.9828 69.6781 63.1287 74.0557 61.2432ZM66.9797 69.7139C65.7618 73.6576 64.4907 77.5857 63.1664 81.4981C66.2149 79.0735 67.018 75.0514 67.9766 71.4026C68.8967 67.9011 70.4308 65.3053 72.7605 62.6304C71.5216 63.5789 70.4084 64.6815 69.4478 65.9115C68.5044 67.0964 67.6778 68.3698 66.9797 69.7139ZM62.8882 82.3976C63.0274 82.23 63.1684 82.0636 63.304 81.8935C63.2973 81.8849 63.2923 81.8751 63.2895 81.8647C63.2867 81.8541 63.286 81.8432 63.2875 81.8324C63.289 81.8216 63.2927 81.8112 63.2984 81.8019C63.3041 81.7926 63.3115 81.7845 63.3204 81.7782C63.3916 81.7245 63.458 81.6701 63.5292 81.6164C63.6004 81.5626 63.5945 81.5217 63.6277 81.4734C63.4548 81.5756 63.2813 81.6748 63.106 81.7728C63.0924 81.7924 63.0664 81.8035 63.0457 81.8182C62.9788 82.0146 62.9148 82.2103 62.8491 82.4049C62.8618 82.4011 62.875 82.3987 62.8882 82.3976ZM64.0356 80.977C64.0023 81.0252 63.953 81.0624 63.9091 81.1033C63.919 81.089 63.9425 81.0815 63.9595 81.0721C63.9765 81.0628 64.016 80.9977 64.0417 80.968L64.0356 80.977ZM73.2874 62.274C73.2897 62.2865 73.2889 62.2993 73.2852 62.3114C73.2814 62.3235 73.2748 62.3345 73.2658 62.3435C71.7309 64.0558 70.2304 65.7866 69.308 67.9184C68.448 69.9062 68.0373 72.0506 67.4762 74.131C67.0404 75.7626 66.4895 77.3782 65.6683 78.8101C69.5149 73.5006 72.5972 67.6775 74.8245 61.5121C74.2857 61.7001 73.7716 61.9529 73.2936 62.2651L73.2874 62.274ZM75.0554 61.4366C72.5582 68.4012 68.9746 74.9283 64.4379 80.7746C64.5078 80.7304 64.5782 80.6893 64.6431 80.6524C65.7833 79.4403 66.9808 78.2598 68.1676 77.064C69.5474 75.3491 70.7082 73.4688 71.6229 71.4669C73.1967 68.0391 74.1769 64.3894 76.3846 61.2852C75.9389 61.2545 75.4909 61.3027 75.0615 61.4277L75.0554 61.4366ZM76.7146 61.3176C76.684 61.3123 76.6546 61.3131 76.624 61.3079C74.0971 64.8141 73.1565 69.0394 71.1963 72.8334C70.6285 73.9331 69.9817 74.9901 69.261 75.9963C73.1786 72.0436 76.8362 67.8959 77.929 62.2521C77.9325 62.2369 77.9394 62.2227 77.9492 62.2106C77.9591 62.1984 77.9716 62.1887 77.9857 62.1822C77.9999 62.1757 78.0153 62.1725 78.0309 62.1729C78.0465 62.1732 78.0617 62.1772 78.0755 62.1844C77.7522 61.7259 77.2644 61.4105 76.7136 61.3037L76.7146 61.3176ZM78.1097 62.2264C78.1097 62.2264 78.1231 62.2488 78.1186 62.2668C76.9328 68.4079 72.7353 72.7897 68.4526 77.0548C67.6753 78.0313 66.8323 78.9536 65.9297 79.8153C71.2043 76.2445 75.6295 71.5544 78.8896 66.0797C78.8959 66.0685 78.9046 66.0588 78.9152 66.0515C78.9257 66.0441 78.9378 66.0393 78.9504 66.0373C78.9515 66.0253 78.9534 66.0135 78.9564 66.0018C79.0827 64.9186 78.8792 63.2496 78.1087 62.2125L78.1097 62.2264ZM78.8731 66.4584C75.4067 72.1862 70.6667 77.0379 65.0231 80.6349C64.8408 80.7965 64.6561 80.9539 64.4678 81.1088C64.2261 81.3718 63.9849 81.6379 63.7485 81.9046C67.8994 79.4938 71.7329 76.7615 74.8472 73.017C76.4157 71.1301 78.392 68.9339 78.881 66.4507L78.8731 66.4584ZM62.5996 82.5571L62.6336 82.462L62.5741 82.5712L62.5996 82.5571ZM64.5407 76.7389C65.1829 74.79 65.8068 72.8346 66.4123 70.8727C65.88 72.0464 65.4443 73.2615 65.1097 74.5058C64.9158 75.2525 64.7327 75.9988 64.5487 76.7312L64.5407 76.7389Z" fill="#C3937C"/>
<path d="M57.6101 85.9292C59.1003 86.2747 60.5509 86.7719 61.9393 87.4131C61.998 87.3622 62.0727 87.3334 62.1504 87.3319C64.7349 87.2562 67.2976 86.8236 69.7657 86.0463C71.4802 85.5305 73.134 85.0914 74.9351 85.0755C78.7465 85.0375 84.0237 86.4236 85.8737 90.1815C87.5108 93.508 84.3747 97.6961 80.869 97.7787C77.1816 97.8732 73.7178 95.0115 70.7464 93.1745C66.6033 90.6196 61.3176 88.3763 56.4989 87.3089C56.0697 87.2108 57.1905 85.8324 57.6101 85.9292ZM67.4689 87.5367C67.6295 87.563 67.7903 87.5815 67.9485 87.6036C69.2316 87.5815 70.5119 87.7234 71.7583 88.0258C75.2403 88.2693 78.7397 88.1167 82.1893 87.5711C80.6493 86.6649 78.939 86.0854 77.1643 85.8686C77.1526 85.8835 77.1367 85.8945 77.1187 85.9004C75.0581 86.5556 72.9402 87.013 70.7939 87.2663C69.1805 87.4485 67.5469 87.4006 65.9396 87.6503L65.5932 87.7067C65.4045 87.7402 65.2188 87.7808 65.0323 87.8263C65.1433 87.8369 65.2531 87.8493 65.3652 87.8659C66.0276 87.7455 66.6968 87.6662 67.3689 87.6285C67.3661 87.6154 67.3666 87.6019 67.3704 87.5891C67.3741 87.5763 67.381 87.5646 67.3905 87.5551C67.3999 87.5456 67.4115 87.5387 67.4243 87.5348C67.437 87.5309 67.4505 87.5303 67.4636 87.533L67.4689 87.5367ZM63.993 88.4305C65.4155 88.5938 66.8546 88.7369 68.2839 88.9286C67.3628 88.5162 66.3913 88.2268 65.3943 88.0678C64.8985 88.1472 64.407 88.2519 63.9217 88.3814L63.993 88.4305ZM63.6947 88.2645C63.7021 88.2537 63.7083 88.2448 63.7144 88.2359C64.0453 88.1371 64.3814 88.0577 64.7197 87.9825L64.4958 87.9679C64.3406 88.0138 64.1784 88.047 64.0356 88.1093C64.017 88.1162 63.9968 88.1174 63.9776 88.1128C63.9584 88.1081 63.941 88.0979 63.9276 88.0833C63.9143 88.0687 63.9056 88.0505 63.9026 88.0309C63.8997 88.0113 63.9026 87.9913 63.9111 87.9734C63.8491 87.9755 63.7879 87.9729 63.7278 87.9762C63.7077 87.9762 63.688 87.9701 63.6715 87.9587C63.655 87.9473 63.6423 87.9311 63.6351 87.9123C63.4552 87.9254 63.282 87.9326 63.0877 87.9437L63.6947 88.2645ZM69.2172 86.9071C68.7293 87.0505 68.2429 87.1765 67.753 87.2923C68.5392 87.2463 69.3298 87.2166 70.1206 87.1448C72.3571 86.9275 74.5664 86.4834 76.7145 85.8195C76.3114 85.7789 75.9046 85.7551 75.4941 85.748C73.2715 85.7081 71.3192 86.2867 69.2118 86.9034L69.2172 86.9071ZM82.3589 87.6721C82.359 87.6919 82.3518 87.711 82.3387 87.7258C82.3256 87.7406 82.3075 87.75 82.2879 87.7523C79.1159 88.2599 75.9006 88.436 72.6939 88.2779C74.4508 88.8219 76.0973 89.6061 77.9485 89.8302C80.0311 90.0847 82.4356 89.7387 84.5088 89.4385C84.1708 89.0457 83.7924 88.6896 83.3801 88.3759C83.0431 88.1173 82.7027 87.8827 82.3535 87.6684L82.3589 87.6721ZM84.6436 89.6052C84.6436 89.6052 84.6436 89.6052 84.635 89.6177C81.3661 90.0928 78.0112 90.361 74.8498 89.2497C73.5786 88.7926 72.2752 88.4299 70.9502 88.1647C70.1066 88.092 69.2652 87.9892 68.4224 87.8696C67.5998 87.8361 66.7757 87.8721 65.9588 87.9772C66.9381 88.2081 67.8876 88.5503 68.7887 88.9971C70.4307 89.2088 72.0525 89.5535 73.6381 90.0277C77.633 91.2759 81.2521 92.8213 85.4659 93.2294C85.8465 91.8418 85.4427 90.6198 84.6383 89.6015L84.6436 89.6052ZM85.3853 93.4875C85.4 93.466 85.3993 93.4365 85.4088 93.4114C81.7133 93.0522 78.418 91.9409 74.939 90.6765C73.1549 90.0533 71.3159 89.5995 69.4461 89.3211C70.4048 89.8104 71.3458 90.3483 72.2889 90.8296C76.1015 92.7771 80.0323 94.4425 84.1871 95.5083C84.7126 94.9173 85.1173 94.229 85.3781 93.4825L85.3853 93.4875ZM84.0309 95.651C80.5029 94.7101 77.079 93.417 73.8106 91.7913C72.2501 91.0347 70.6577 90.0269 69.003 89.2318C67.6119 89.0189 66.2103 88.8595 64.8129 88.6978C70.628 90.154 74.6169 95.3623 80.3198 97.0919C80.7232 97.1172 81.1281 97.0975 81.5274 97.0332C82.4872 96.8513 83.3644 96.367 84.0309 95.651ZM74.6845 94.8027C76.1093 95.6607 77.7019 96.6187 79.384 96.9661C74.2141 95.0162 70.3698 90.3609 64.9634 88.9333C66.3559 89.7085 67.7133 90.5385 69.0352 91.3362C70.928 92.4878 72.7925 93.6727 74.6849 94.8135L74.6845 94.8027Z" fill="#C3937C"/>
<path d="M81.0958 78.2644C82.1184 78.0889 82.4717 78.812 83.5305 78.9883C83.5687 78.9626 83.6114 78.9447 83.6564 78.9353C89.4877 77.7934 95.3014 73.7822 101.438 75.1119C105.594 76.0154 109.641 80.5021 107.101 84.8508C104.37 89.5265 98.1589 87.5281 94.6537 85.1651C90.7071 82.5005 85.6181 78.7244 80.5164 79.6047C80.0842 79.6864 80.6685 78.3389 81.0958 78.2644ZM87.1595 80.0502C90.267 80.4997 93.4499 80.4582 96.4548 81.4037C99.5809 82.3906 102.368 84.1822 105.095 85.9616C105.99 85.3234 106.642 84.3987 106.941 83.3407C104.022 80.9429 100.495 79.4032 96.7502 78.8925L96.391 78.8531C95.8427 78.9392 95.292 79.0288 94.7431 79.1197C91.8386 79.609 88.8892 79.7716 85.9502 79.6042C86.3583 79.7405 86.7614 79.8918 87.1595 80.0502ZM85.1671 79.3597C88.7042 79.6625 92.0939 79.2944 95.5589 78.7751C92.069 78.5181 88.4864 79.0327 85.0151 79.3209L85.1593 79.3596L85.1671 79.3597ZM99.3671 75.5379C95.6024 75.4051 92.0838 76.91 88.5378 78.1877C90.9096 78.2434 93.2759 77.9162 95.5458 77.2189C97.42 76.6392 99.2636 76.02 101.194 75.7635C100.594 75.6364 99.9838 75.5617 99.3707 75.5403L99.3671 75.5379ZM101.749 75.8958C99.4159 76.1118 97.2465 76.9176 95.0062 77.5746C92.7008 78.2498 90.516 78.4335 88.1428 78.3794C88.1314 78.3795 88.1201 78.3773 88.1096 78.3728C88.0991 78.3683 88.0897 78.3617 88.0819 78.3533C87.3831 78.6044 86.6762 78.8368 85.9697 79.0457C89.3957 78.7316 92.9279 78.2903 96.3426 78.6563L96.8383 78.5816C99.9554 78.0941 103.076 77.846 106.109 78.8081C105.106 77.3293 103.497 76.3838 101.756 75.9008L101.749 75.8958ZM106.785 80.1307C106.651 79.7582 106.48 79.3998 106.276 79.0607C103.244 78.0253 100.163 78.2739 97.0676 78.7448L97.3901 78.7879C100.913 79.3783 104.219 80.875 106.985 83.1314C107.214 82.1345 107.147 81.0932 106.792 80.1357L106.785 80.1307ZM104.913 86.0733C102.223 84.3167 99.4689 82.5532 96.3857 81.5802C93.6152 80.7066 90.6984 80.6785 87.8351 80.3287C88.1244 80.4543 88.4077 80.581 88.6868 80.7101C91.1809 80.7687 93.6318 81.3644 95.8728 82.4567C98.1137 83.549 100.092 85.1123 101.673 87.0402C102.108 87.0238 102.542 86.9696 102.968 86.8781C103.662 86.7356 104.325 86.4643 104.92 86.0782L104.913 86.0733ZM98.3657 86.4423C96.6665 85.0986 94.8071 83.9712 92.8299 83.0857C94.6322 84.3305 96.4201 85.6839 98.3728 86.4473L98.3657 86.4423ZM92.0171 82.5335C94.5129 83.5406 96.8389 84.925 98.914 86.6384C99.7226 86.9084 100.569 87.0472 101.422 87.0493C99.9065 85.2329 98.031 83.7507 95.9138 82.6957C93.7966 81.6406 91.4832 81.0355 89.1189 80.9183C89.4092 81.0577 89.6965 81.1978 89.9742 81.3364C90.6786 81.6956 91.3613 82.0957 92.0189 82.5347L92.0171 82.5335Z" fill="#C3937C"/>
<path d="M92.8188 48.9926C97.7914 48.9404 99.0475 54.9405 97.7509 58.7175C95.7399 64.5799 90.7396 69.07 86.5697 73.4155C86.531 73.4576 86.4804 73.4871 86.4247 73.5C85.6443 75.0444 85.8657 75.4553 84.5578 76.6361C84.2386 76.9275 82.53 77.4158 82.8491 77.1244C85.393 74.8253 86.954 71.6339 87.2063 68.2163C87.4188 65.1999 86.5134 62.2037 86.2977 59.2136C86.0125 55.0161 87.5831 49.0452 92.8188 48.9926ZM88.4746 52.1188C88.3736 52.2653 88.2739 52.4101 88.1766 52.5512C88.1766 52.5512 88.1766 52.5512 88.1799 52.5693C87.7268 56.1762 87.7619 59.8265 88.2843 63.4215C88.4062 62.2377 88.5077 61.053 88.5791 59.8661C88.7365 57.2044 88.749 54.543 88.6553 51.8795C88.5963 51.9575 88.5361 52.0372 88.4758 52.117L88.4746 52.1188ZM87.902 67.8628C87.8958 68.0167 87.8848 68.17 87.8756 68.3244C88.1577 67.9152 88.4508 67.4899 88.7476 67.0592C88.6884 66.7179 88.6241 66.3917 88.5702 66.0962C88.4859 65.6463 88.4043 65.1964 88.3253 64.7466C88.2014 65.7858 88.0607 66.8239 87.9032 67.8611L87.902 67.8628ZM88.9259 68.4367C88.5138 69.0645 88.0703 69.6711 87.5971 70.2542C87.5542 70.4461 87.5078 70.6355 87.4637 70.8291C87.9402 70.0347 88.4257 69.2465 88.9361 68.4754L88.9259 68.4367ZM88.8992 68.1284C88.8701 67.8579 88.8324 67.5921 88.7911 67.3317C88.4798 67.8025 88.1569 68.252 87.8527 68.6934C87.8149 69.0838 87.7549 69.4721 87.6818 69.8566C88.1131 69.2919 88.521 68.7191 88.9004 68.1266L88.8992 68.1284ZM88.4244 64.3167C88.5351 64.9571 88.7609 65.827 88.9395 66.754C90.5693 64.1872 91.9305 61.1479 91.4562 58.2776C91.037 55.743 89.6861 53.5152 89.6479 50.9084C89.3563 51.1373 89.0857 51.3919 88.8396 51.6693C88.9977 55.8301 88.8491 59.9977 88.3949 64.1383C88.4066 64.1938 88.4146 64.2546 88.4256 64.3149L88.4244 64.3167ZM89.8359 50.7691C89.8229 53.9231 91.9125 56.6811 91.7528 59.842C91.6312 62.3069 90.4075 64.8453 88.9896 67.0284C89.0347 67.2834 89.0749 67.5379 89.1073 67.7921C90.4011 65.7023 91.3121 63.3988 91.7973 60.9902C92.5279 57.3214 92.1521 53.591 91.7561 49.9128C91.7555 49.8933 91.7614 49.8742 91.7727 49.8583C91.0754 50.034 90.4182 50.3427 89.8371 50.7674L89.8359 50.7691ZM91.912 49.8278C91.9205 49.8341 91.9277 49.8421 91.9331 49.8513C91.9386 49.8604 91.9421 49.8706 91.9435 49.8812C92.3385 53.5799 92.7288 57.3465 91.9937 61.0333C91.4859 63.5469 90.5179 65.9459 89.1387 68.109L89.1416 68.1505C89.3879 67.7931 89.6342 67.4357 89.893 67.0869C91.25 65.2705 92.8124 63.5375 93.6747 61.409C94.0002 60.1969 94.2594 58.9549 94.4827 57.7118C94.651 55.0761 94.1019 52.3676 93.5677 49.8092C93.5677 49.8092 93.5763 49.7967 93.5813 49.7895C93.0289 49.6991 92.4645 49.7102 91.9157 49.8224L91.912 49.8278ZM90.9447 66.03C90.3177 66.8445 89.7306 67.6735 89.1667 68.5184C89.1971 68.9607 89.1774 69.4051 89.1079 69.8432C89.6834 69.2409 90.2535 68.6348 90.8142 68.0197C91.9364 66.316 92.7963 64.4537 93.3651 62.4951C92.6589 63.7341 91.8518 64.9128 90.9521 66.0193L90.9447 66.03ZM93.7689 49.8186C94.2117 51.9451 94.666 54.1771 94.7084 56.3887C95.0201 54.4528 95.2631 52.5327 95.5419 50.7322C95.5466 50.7142 95.5575 50.6984 95.5726 50.6875C95.0545 50.2523 94.4379 49.9504 93.7763 49.8079L93.7689 49.8186ZM95.7136 50.811C95.383 52.9765 95.0935 55.3151 94.6777 57.6538C94.6236 58.7374 94.4243 59.8093 94.085 60.8405C94.0117 61.0535 93.9313 61.2617 93.8456 61.4662C93.344 63.455 92.5801 65.3688 91.5743 67.1571C91.9663 66.7103 92.3494 66.2574 92.7236 65.7984C92.7101 65.7881 92.7005 65.7733 92.6966 65.7567C92.6927 65.7401 92.6947 65.7226 92.7023 65.7073C94.4935 61.4567 96.2399 57.1911 96.9946 52.6138C96.9946 52.6138 97.0057 52.5977 97.0107 52.5905C96.8057 52.1543 96.5488 51.7445 96.2456 51.3701C96.0875 51.1701 95.9151 50.9817 95.7299 50.8064L95.7136 50.811ZM96.4994 59.9689C97.5426 57.7648 98.0716 55.1246 97.1447 52.8727C96.3832 57.2425 94.7418 61.3406 93.0287 65.413C94.3959 63.74 95.565 61.9143 96.5126 59.9727L96.4994 59.9689ZM88.8092 70.1355C88.9046 69.7141 88.9452 69.2822 88.9298 68.8506C88.3417 69.7421 87.7768 70.6495 87.2188 71.5697C87.1827 71.6793 87.1456 71.7828 87.1035 71.8935C87.6829 71.307 88.2575 70.7199 88.8273 70.1321L88.8092 70.1355ZM87.8729 66.5777C87.9156 66.3593 87.9451 66.1793 87.957 66.1085C88.0486 65.4494 88.1287 64.7877 88.204 64.1253C88.0513 63.2293 87.9185 62.3312 87.8303 61.4218C87.569 58.5961 87.6054 55.75 87.9389 52.9304C85.6746 57.013 87.6554 62.1447 87.891 66.5743L87.8729 66.5777Z" fill="#C3937C"/>
<path d="M97.6528 66.2171C98.8383 66.0721 98.8554 66.8483 99.9783 66.9658C99.9717 66.9149 99.979 66.8631 99.9995 66.816C100.02 66.7688 100.053 66.7281 100.094 66.698C103.675 63.8599 108.19 62.4804 112.741 63.052C115.692 63.4199 121.858 65.1368 122.216 68.8313C122.687 73.6601 115.478 73.2072 112.655 72.3527C107.088 70.6636 102.829 66.8986 96.6489 67.647C96.2146 67.7088 97.2266 66.2634 97.6528 66.2171ZM101.014 67.1105C101.361 66.9662 101.708 66.8348 102.056 66.7162L101.845 66.7181C101.602 66.7303 101.352 66.7502 101.097 66.7802C100.971 66.8723 100.848 66.9668 100.724 67.0631L101.014 67.1105ZM103.874 67.8397C104.41 67.7637 104.936 67.6599 105.455 67.5512C104.618 67.0573 103.673 66.7727 102.702 66.7212L102.669 66.7195C102.233 66.8517 101.8 67.0037 101.371 67.1721C102.22 67.3383 103.056 67.5613 103.874 67.8397ZM105.82 67.4758C106.283 67.3759 106.743 67.2814 107.207 67.2031C106.318 66.9951 105.414 66.8588 104.504 66.7955C104.668 66.8563 104.829 66.9258 104.986 67.0038C105.268 67.148 105.545 67.3071 105.816 67.4733L105.82 67.4758ZM112.167 63.6634C109.916 63.4591 107.646 63.7365 105.508 64.4772C110.059 64.5249 114.693 65.4441 119.182 65.9944C118.673 65.6883 118.14 65.4209 117.668 65.1904C115.941 64.3551 114.078 63.8378 112.167 63.6634ZM120.67 67.1962C120.307 66.7893 119.887 66.4382 119.422 66.1542C119.418 66.1751 119.406 66.1937 119.389 66.206C119.372 66.2183 119.35 66.2232 119.329 66.2197C114.621 65.6368 109.754 64.6469 104.986 64.6659C104.046 65.0253 103.141 65.4697 102.281 65.9935C108.689 63.4306 115.607 65.8842 121.439 69.0892C121.411 68.3873 121.139 67.7179 120.67 67.1962ZM121.426 69.2989C115.383 65.9616 108.148 63.3923 101.522 66.5222C101.947 66.4758 102.374 66.4585 102.801 66.4706C105.848 65.581 109.084 65.5875 112.122 66.4893C115.161 67.3911 117.873 69.1501 119.936 71.5562C120.847 71.0163 121.369 70.1901 121.426 69.2989ZM119.546 71.7798C119.626 71.7431 119.701 71.6996 119.776 71.6592C117.795 69.3581 115.21 67.658 112.313 66.7503C109.415 65.8425 106.32 65.7633 103.376 66.5214C103.42 66.5257 103.465 66.5377 103.508 66.5438C104.921 66.5701 106.325 66.7672 107.69 67.1306C108.786 66.9514 109.907 67.0054 110.98 67.2892C113.858 68.1053 116.112 70.1859 118.218 72.2145C118.674 72.1154 119.119 71.9697 119.546 71.7798ZM117.987 72.287C115.672 70.0587 113.092 67.7299 109.785 67.2457C109.181 67.1603 108.568 67.1519 107.962 67.2205C108.081 67.2577 108.201 67.2852 108.32 67.3272C110.939 68.2257 112.948 70.1085 114.699 72.1826C114.707 72.1913 114.712 72.2014 114.716 72.2123C114.719 72.2232 114.72 72.2347 114.719 72.246C115.798 72.4628 116.909 72.4736 117.993 72.2781L117.987 72.287ZM114.458 72.193C112.607 70.0237 110.465 68.0968 107.649 67.3207L107.494 67.2824C106.984 67.3582 106.476 67.4664 105.972 67.5832C107.396 68.4725 108.737 69.6236 110.028 70.6421C111.444 71.322 112.932 71.8392 114.464 72.1841L114.458 72.193ZM109.226 70.25C108.115 69.3898 106.991 68.5336 105.817 67.7741C105.753 67.7299 105.688 67.7013 105.629 67.6655C105.155 67.7737 104.688 67.8868 104.204 67.9701C105.162 68.3151 106.1 68.7132 107.013 69.1624C107.713 69.4893 108.456 69.8674 109.232 70.2411L109.226 70.25Z" fill="#C3937C"/>
<path d="M106.046 56.8959C106.953 56.4065 107.09 57.1573 108.064 56.8241C108.083 56.782 108.109 56.7438 108.142 56.7115C110.193 54.7618 112.403 52.9857 114.748 51.4015C116.307 50.3674 117.997 49.4447 119.903 49.3532C122.585 49.2253 126.994 51.0778 126.949 54.3095C126.889 57.9585 122.537 58.2823 119.921 57.6106C116.953 56.8485 114.138 56.4664 111.36 56.7975C110.72 57.0655 110.03 57.1924 109.338 57.1693C108.008 57.5073 106.725 58.0086 105.518 58.6616C105.141 58.8686 105.666 57.1004 106.046 56.8959ZM115.532 53.9184C115.666 53.8109 115.796 53.6948 115.928 53.583C115.208 53.7764 114.501 54.0142 113.81 54.2952L113.742 54.3375C114.207 54.2761 114.673 54.2443 115.134 54.2243C115.278 54.1259 115.406 54.0165 115.532 53.9184ZM119.755 50.0446C119.686 50.0497 119.617 50.0577 119.548 50.0658C119.548 50.0807 119.543 50.0951 119.534 50.1074C119.526 50.1197 119.514 50.1294 119.5 50.1354C116.77 51.2245 114.53 53.1518 112.059 54.6854C112.341 54.616 112.636 54.5378 112.92 54.4883C113.183 54.3663 113.445 54.2491 113.712 54.1404C114.876 53.4069 116.111 52.794 117.399 52.3113C118.199 51.566 118.98 50.8071 119.755 50.0446ZM117.879 52.1226C119.788 51.4628 121.784 51.0902 123.801 51.0169C122.669 50.3348 121.364 49.9929 120.042 50.0319C119.328 50.7333 118.612 51.4365 117.879 52.1226ZM111.122 56.0717C111.654 55.6033 112.209 55.1627 112.786 54.7516C111.913 55.1726 111.076 55.664 110.283 56.221C110.561 56.1648 110.842 56.1159 111.122 56.0717ZM114.735 53.7465C115.245 53.5709 115.75 53.4181 116.273 53.2931C116.52 53.0837 116.766 52.8713 117.008 52.6534C116.229 52.97 115.469 53.3351 114.735 53.7465ZM113.362 54.595C112.703 55.0343 112.07 55.5117 111.467 56.0249C111.756 55.9869 112.044 55.9507 112.327 55.9216C112.824 55.6736 113.342 55.4217 113.872 55.2049C114.229 54.9501 114.569 54.6891 114.895 54.4339C114.381 54.457 113.868 54.5104 113.36 54.5938L113.362 54.595ZM109.799 56.3326C110.544 55.7813 111.329 55.2876 112.149 54.8556C111.882 54.9349 111.618 55.0165 111.357 55.1006C111.021 55.2956 110.678 55.4838 110.33 55.6575C110.041 55.909 109.753 56.1587 109.469 56.414L109.799 56.3326ZM113.513 53.094C112.697 53.6941 111.905 54.3211 111.129 54.9699L111.289 54.9138C113.903 53.4099 116.198 51.3649 118.975 50.1424L118.931 50.149C116.901 50.5659 115.13 51.9074 113.508 53.1012L113.513 53.094ZM124.091 51.1936C121.844 51.245 119.62 51.6721 117.511 52.4572C117.236 52.7077 116.962 52.9535 116.68 53.2021C119.768 52.5228 122.979 52.6677 125.99 53.6223C126.001 53.6296 126.008 53.6345 126.017 53.6407C125.817 52.9105 125.402 52.2576 124.827 51.7664C124.593 51.5617 124.346 51.3728 124.087 51.2008L124.091 51.1936ZM126.04 53.7487C126.031 53.7696 126.015 53.7863 125.994 53.7957C125.973 53.805 125.95 53.8061 125.929 53.7989C122.841 52.8175 119.541 52.699 116.387 53.456C116.083 53.7133 115.774 53.9639 115.462 54.2103C118.684 54.1851 121.92 55.2108 124.928 56.5593C125.372 56.256 125.714 55.8267 125.912 55.3268C126.109 54.8269 126.152 54.2796 126.035 53.7558L126.04 53.7487ZM113.39 55.8585C114.749 55.8547 116.103 56.0014 117.429 56.2959C119.459 56.7018 121.622 57.7208 123.706 57.135C124.069 57.0341 124.416 56.8821 124.737 56.6835C121.706 55.3377 118.444 54.326 115.201 54.413C114.957 54.6001 114.708 54.7849 114.461 54.957C115.068 54.7205 115.706 54.5768 116.355 54.531C118.057 54.4541 119.649 55.8967 120.819 56.9455C120.91 57.0268 120.797 57.1942 120.709 57.1045C119.179 55.7313 117.548 54.3987 115.374 54.9592C114.736 55.1312 114.112 55.3512 113.507 55.6171C113.38 55.7014 113.249 55.7849 113.114 55.8738C113.201 55.878 113.29 55.8661 113.385 55.8656L113.39 55.8585Z" fill="#C3937C"/>
<path d="M103.144 35.2231C104.707 34.7184 106.346 35.1548 107.58 36.1901C109.344 37.6695 109.843 39.6392 109.954 41.8536C110.251 47.525 106.643 52.2496 103.974 56.9387C103.967 56.9513 103.958 56.9633 103.949 56.9745C103.946 58.1533 104.512 58.2137 104.486 59.3874C104.477 59.821 103.219 60.8864 103.225 60.4552C103.363 54.2012 103.194 48.2676 100.828 42.4092C99.7123 39.6501 99.7385 36.3128 103.144 35.2231ZM107.347 36.8598C107.951 40.1068 107.146 43.3686 106.572 46.5706C106.245 48.3986 106.139 50.7688 105.343 52.6528C105.231 53.1138 105.094 53.5681 104.93 54.0135C105.045 53.8286 105.152 53.6545 105.262 53.472C106.016 51.7096 106.336 49.7316 106.928 47.9229C107.621 45.8071 108.448 43.7383 109.276 41.6708C109.174 39.8691 108.674 38.0666 107.345 36.8634L107.347 36.8598ZM109.303 42.1427C108.444 44.2892 107.595 46.4431 106.904 48.6474C106.493 49.9612 106.212 51.3334 105.785 52.6205C107.51 49.7368 109.086 46.7247 109.282 43.3935C109.306 42.9854 109.313 42.5663 109.303 42.1427ZM104.378 54.9373C104.568 54.4703 104.744 53.9982 104.894 53.5215C104.854 53.5787 104.814 53.6377 104.77 53.7002C104.685 54.0914 104.501 54.4545 104.236 54.7549C104.218 54.7799 104.202 54.8031 104.186 54.8263C104.177 54.8403 104.164 54.8511 104.148 54.8574C104.133 54.8636 104.115 54.8649 104.099 54.8612C104.08 54.8765 104.059 54.8907 104.038 54.9036C103.998 55.0155 103.956 55.1262 103.915 55.2351C103.918 55.3765 103.922 55.5191 103.923 55.6623C104.085 55.4234 104.231 55.1812 104.378 54.9373ZM103.94 54.6538L103.946 54.6449C103.944 54.6482 103.942 54.6512 103.94 54.6538ZM104.101 54.2375C104.268 53.7731 104.434 53.2967 104.594 52.8118C104.592 52.4089 104.549 52.0075 104.466 51.6136C104.277 51.9846 104.069 52.3453 103.842 52.694C103.877 53.2683 103.902 53.8435 103.917 54.4195C103.976 54.368 104.037 54.307 104.097 54.2429L104.101 54.2375ZM104.4 51.3125C104.163 50.4202 103.837 49.5542 103.426 48.728C103.618 49.93 103.744 51.1426 103.818 52.3556C104.029 52.0203 104.222 51.6739 104.396 51.3179L104.4 51.3125ZM103.16 47.253C103.216 47.5184 103.257 47.7836 103.305 48.049C103.812 49.0054 104.221 50.0105 104.526 51.049C104.776 50.5047 104.982 49.9412 105.141 49.364C105.096 49.1961 105.041 49.0318 104.982 48.8589C104.358 47.1665 103.362 45.5945 102.247 44.1538C102.627 45.1643 102.931 46.202 103.156 47.2583L103.16 47.253ZM104.601 51.3376C104.677 51.6529 104.73 51.9733 104.76 52.2962C104.805 52.1555 104.849 52.0148 104.898 51.8639C105.098 51.0054 105.247 50.2593 105.256 50.1656C105.265 50.0719 105.264 50.0472 105.269 49.9901C105.274 49.9331 105.246 49.8262 105.229 49.7466C105.059 50.2939 104.848 50.8275 104.597 51.343L104.601 51.3376ZM105.286 51.2246C105.234 51.5054 105.179 51.7885 105.113 52.0673C105.047 52.346 104.999 52.7056 104.937 53.0849C105.005 52.9553 105.072 52.8245 105.132 52.6919C105.261 52.1548 105.332 51.6055 105.343 51.0534C105.318 51.1096 105.299 51.1707 105.282 51.23L105.286 51.2246ZM101.439 42.1184C101.634 42.5981 101.827 43.0814 102.016 43.5701C103.338 45.1876 104.607 47.0564 105.231 49.02C105.253 48.9301 105.272 48.8378 105.292 48.7484C105.237 47.6396 105.016 46.5457 104.637 45.5032C103.732 42.9527 102.344 40.5337 100.955 38.2211C100.892 38.1144 101.065 38.0338 101.128 38.1376C102.906 41.0733 105.023 44.4434 105.44 47.9337C105.992 44.0283 104.529 39.9993 102.342 36.544C102.276 36.4408 102.453 36.3567 102.514 36.4623C104.867 40.1923 106.373 44.5438 105.5 48.7177C105.511 49.0866 105.503 49.4559 105.476 49.8241C106.694 45.0049 106.984 39.7484 104.111 35.8762C104.037 35.7777 104.179 35.6594 104.257 35.7526C107.274 39.8193 106.865 45.3597 105.531 50.3686C105.571 50.8101 105.565 51.2547 105.514 51.6952C106.199 49.5559 106.316 46.9765 106.648 45.1335C107.154 42.3197 107.714 39.5428 107.14 36.6987C107.14 36.6987 107.149 36.6862 107.154 36.6791C106.957 36.5198 106.749 36.3761 106.53 36.2492C105.738 35.7777 104.805 35.6028 103.895 35.7555C102.985 35.9082 102.158 36.3787 101.56 37.0833C100.228 38.6878 100.738 40.3966 101.435 42.1237L101.439 42.1184Z" fill="#C3937C"/>
<path d="M113.421 45.893C116.431 43.0967 119.769 40.6028 123.068 38.1582C125.392 36.4337 130.017 34.2498 131.37 38.3446C132.48 41.7298 129.117 44.4357 126.055 44.6978C122.819 44.9845 119.464 43.8452 116.255 44.4247C116.212 44.4312 116.168 44.4297 116.126 44.4204C115.356 45.0651 113.514 47.333 112.779 48.0149C112.452 48.3092 113.104 46.1886 113.421 45.893ZM120.892 40.641C120.06 41.283 119.219 41.9236 118.394 42.5754C118.746 42.4417 119.117 42.368 119.493 42.3576C119.596 42.2887 119.698 42.2197 119.803 42.1521C120.753 41.3212 121.775 40.5772 122.857 39.929C123.697 39.1482 124.494 38.3162 125.291 37.4812C125.009 37.6217 124.736 37.7795 124.473 37.9538C123.247 38.7905 122.076 39.7387 120.892 40.641ZM118.126 43.6163L118.283 43.6168C118.336 43.5634 118.388 43.507 118.437 43.459C118.431 43.4445 118.429 43.4285 118.431 43.4129C118.434 43.3974 118.44 43.3827 118.45 43.3707C118.434 43.3804 118.418 43.3892 118.401 43.3971C118.317 43.4687 118.225 43.545 118.131 43.62L118.126 43.6163ZM125.972 43.9027C124.787 43.125 123.167 42.1457 121.679 42.3748C121.408 42.4199 121.141 42.4882 120.881 42.5788C121.689 42.8607 122.417 43.3343 123.003 43.9592C123.992 44.0156 124.985 43.9967 125.972 43.9027ZM120.235 42.6051C120.111 42.584 119.986 42.5692 119.86 42.5607C119.739 42.6377 119.618 42.7178 119.494 42.7907C119.314 42.93 119.148 43.0528 118.978 43.1887C118.902 43.2652 118.821 43.3441 118.75 43.4135C119.202 43.1341 119.669 42.8808 120.15 42.655C120.182 42.635 120.209 42.6192 120.237 42.6015L120.235 42.6051ZM121.286 41.2973C121.509 41.1188 121.729 40.9361 121.949 40.7504C121.589 40.9927 121.239 41.2468 120.898 41.5126C121.027 41.4356 121.151 41.3706 121.288 41.2938L121.286 41.2973ZM125.754 37.2785C125.031 38.0483 124.303 38.8115 123.548 39.5436C125.531 38.4644 127.673 37.7096 129.892 37.3077C128.862 36.4901 127.19 36.6739 125.756 37.2749L125.754 37.2785ZM130.076 37.4685C127.567 37.9049 125.158 38.7957 122.967 40.0972C122.664 40.381 122.352 40.6586 122.035 40.9278C124.788 39.6548 127.812 39.0804 130.837 39.2555C130.8 38.5878 130.532 37.9543 130.078 37.4649L130.076 37.4685ZM130.86 39.5036L130.854 39.447C127.949 39.276 125.042 39.8036 122.379 40.9856C122.814 40.829 123.26 40.7056 123.713 40.6166C126.003 40.1811 128.472 40.5277 130.783 40.6574C130.856 40.2762 130.883 39.8875 130.862 39.5L130.86 39.5036ZM130.745 40.8529C128.629 40.7309 126.405 40.4527 124.305 40.7188C123.01 40.899 121.764 41.3432 120.646 42.0239C120.471 42.1513 120.293 42.2763 120.121 42.4032C120.245 42.42 120.368 42.443 120.489 42.4722C121.513 41.9129 122.617 41.487 123.741 41.4188C125.626 41.3048 127.713 42.1927 129.475 42.7638C130.112 42.295 130.561 41.6142 130.74 40.8444L130.745 40.8529ZM129.268 42.8926C127.625 42.3557 125.745 41.6241 124.032 41.622C123.142 41.6426 122.264 41.8451 121.454 42.217C121.653 42.1757 121.855 42.1512 122.059 42.1438C123.48 42.1062 124.96 43.0071 126.102 43.7602C126.113 43.7663 126.122 43.7746 126.129 43.7846C126.136 43.7946 126.141 43.806 126.143 43.8181C126.145 43.8301 126.145 43.8425 126.142 43.8543C126.139 43.8662 126.133 43.8773 126.125 43.8868C127.283 43.7517 128.412 43.4597 129.271 42.8891L129.268 42.8926ZM122.716 43.9437C122.124 43.3521 121.393 42.919 120.59 42.6841C120.473 42.7324 120.351 42.783 120.23 42.8258C119.788 43.0854 119.36 43.3596 118.958 43.6414C120.156 43.7029 121.364 43.8529 122.51 43.9257L122.716 43.9437ZM117.435 43.6354C117.731 43.5109 118.022 43.3769 118.309 43.2334C118.594 43.0059 118.881 42.7844 119.185 42.58C118.458 42.6768 117.785 43.0193 117.278 43.5508C117.264 43.5652 117.246 43.574 117.227 43.5753C117.207 43.5766 117.188 43.5703 117.173 43.5577L117.049 43.657C117.18 43.642 117.309 43.6384 117.437 43.6318L117.435 43.6354Z" fill="#C3937C"/>
<path d="M111.519 22.1069C114.888 23.2109 115.949 27.5326 115.913 30.6068C115.852 36.3164 116.539 37.5965 116.133 39.9335C116.059 40.3571 114.709 41.8122 114.784 41.376C115 40.0145 115.147 38.643 115.223 37.2669C115.171 37.2326 115.131 37.1828 115.109 37.1245C113.44 32.8561 108.234 31.1 106.973 26.6546C106.124 23.6604 108.42 21.0915 111.519 22.1069ZM110.828 28.1282C111.364 28.6133 111.865 29.1349 112.329 29.6892C112.697 30.1275 113.031 30.5767 113.37 31.0501C113.336 30.5576 113.319 30.0606 113.326 29.562L113.289 29.4021C112.633 26.6543 111.832 23.5062 108.697 22.7766C108.512 22.8858 108.344 23.0214 108.199 23.1792C109.776 24.3504 110.088 26.2549 110.785 28.0037L110.828 28.1282ZM114.548 34.7377L114.516 34.6049C114.325 34.3744 114.143 34.1463 113.971 33.9205C113.981 33.9591 113.985 33.9989 113.993 34.0363C114.186 34.264 114.37 34.4964 114.548 34.7377ZM115.327 34.5683C115.126 34.219 114.924 33.8684 114.717 33.5203C114.892 34.2157 115.098 34.9085 115.303 35.6061C115.315 35.261 115.323 34.9151 115.327 34.5683ZM115.098 35.5803C114.89 34.9097 114.674 34.2342 114.501 33.5401L114.871 35.2078C114.949 35.3304 115.024 35.4554 115.098 35.5803ZM114.411 34.1661L113.968 32.2953C113.87 32.1405 113.773 31.9869 113.674 31.8291C113.718 32.3834 113.79 32.9351 113.889 33.4821C114.056 33.716 114.232 33.9422 114.411 34.1661ZM113.839 31.7581L113.613 30.8118C113.622 31.0284 113.627 31.2456 113.64 31.463L113.839 31.7581ZM113.391 31.4203C112.775 30.5015 112.076 29.6419 111.302 28.8524C111.213 28.7646 111.121 28.6803 111.028 28.5977C111.724 30.195 112.591 31.7118 113.614 33.1215C113.514 32.5571 113.44 31.99 113.391 31.4203ZM108.953 22.6527C111.141 23.254 112.28 25.1299 112.935 27.242C113.081 27.7198 113.218 28.2042 113.351 28.6908C113.437 26.8762 113.588 25.0089 112.497 23.5403C111.423 22.7233 110.04 22.208 108.953 22.6527ZM112.979 23.9621C113.475 24.8834 113.627 25.94 113.623 27.0599C113.618 27.9398 113.597 28.7948 113.596 29.6429C113.827 30.5508 114.04 31.4668 114.244 32.3828C114.163 31.9378 114.114 31.4874 114.098 31.0352C114.037 29.2166 114.495 27.4656 114.171 25.6614C114.081 25.4676 113.988 25.2714 113.881 25.0871C113.639 24.6689 113.335 24.2897 112.979 23.9621ZM114.457 26.3535C114.561 27.6091 114.381 28.8474 114.313 30.124C114.276 31.0638 114.365 32.004 114.576 32.9198C114.834 33.3427 115.085 33.7685 115.332 34.1948L115.337 33.745C115.349 31.3254 115.324 28.6725 114.457 26.3535ZM111.779 31.7956C111.432 31.0106 110.996 30.2682 110.48 29.583C109.807 28.729 108.938 28.117 108.027 27.5519C108.49 28.373 109.057 29.1312 109.713 29.8079C110.379 30.5042 111.084 31.1512 111.779 31.7956ZM107.867 27.226C109.945 28.5102 111.105 29.9846 112.133 32.1243C112.691 32.6488 113.243 33.1842 113.74 33.7434C113.727 33.6866 113.716 33.6294 113.706 33.5721C112.82 32.4006 112.044 31.1499 111.386 29.8359C111.162 29.3703 110.965 28.8922 110.796 28.4038C109.695 27.5154 108.263 26.8395 107.416 25.7448C107.487 26.2595 107.64 26.7595 107.867 27.226ZM107.618 24.1549C107.464 24.5429 107.389 24.9581 107.4 25.3753C108.073 26.4085 109.295 26.8818 110.236 27.6223C110.378 27.7362 110.515 27.8542 110.652 27.9723C110.047 26.2374 109.46 24.3621 108.079 23.3417C107.883 23.5861 107.725 23.8581 107.609 24.1488L107.618 24.1549Z" fill="#C3937C"/>
<path d="M112.589 11.2208C115.111 10.044 117.062 12.7982 117.904 14.7493C119.207 17.7746 119.408 20.8781 119.438 24.1331C119.438 24.1885 119.424 24.243 119.395 24.2907C119.846 25.2126 120.15 26.213 120.031 27.2278C119.98 27.6565 119.101 28.8608 119.153 28.4303C119.378 26.4901 118.169 23.3507 117.098 21.9142C115.792 20.1598 114.17 18.8129 112.707 17.2247C111.284 15.6773 110.002 12.4238 112.589 11.2208ZM112.773 16.2945L113.061 16.6384C114.014 17.3531 114.929 18.1173 115.802 18.9281C115.508 18.3747 115.214 17.8214 114.926 17.27L114.68 16.7655C113.795 15.9522 112.847 15.2107 111.844 14.5479C111.838 14.5434 111.832 14.5377 111.828 14.5311C111.823 14.5244 111.82 14.5169 111.819 14.509C112.009 15.164 112.334 15.7712 112.775 16.2909L112.773 16.2945ZM118.008 22.048L118.02 22.0301C117.93 21.7491 117.838 21.4669 117.753 21.1849C117.377 20.7673 116.99 20.359 116.592 19.96C116.785 20.317 116.983 20.6699 117.175 21.0209C117.457 21.3436 117.733 21.6828 118.001 22.0383L118.008 22.048ZM118.719 21.7321C118.706 21.7267 118.694 21.7183 118.684 21.7075C118.562 21.5025 118.435 21.3064 118.299 21.0994C118.292 21.1895 118.281 21.282 118.274 21.3721L118.336 21.56C118.47 21.7129 118.599 21.8681 118.731 22.0246L118.719 21.7321ZM113.27 11.7321C114.445 12.5764 115.491 13.5888 116.372 14.7372C116.022 13.4944 115.399 12.4222 113.978 11.7271C113.741 11.6877 113.5 11.6861 113.263 11.7224L113.27 11.7321ZM113.023 11.7966C112.644 11.9235 112.323 12.184 112.121 12.5296C114.331 13.6972 115.892 15.8907 117.031 18.2857C116.984 18.0372 116.931 17.7898 116.889 17.5372C116.756 16.7312 116.655 15.9394 116.485 15.1948C115.526 13.8735 114.355 12.7203 113.02 11.7815L113.023 11.7966ZM117.605 19.5804L117.755 19.947C117.89 20.1324 118.015 20.3056 118.139 20.4884C118.188 19.1357 118.027 17.8018 117.357 16.5544C117.218 16.298 117.062 16.0402 116.895 15.7828C117.154 17.0394 117.355 18.3113 117.599 19.5707L117.605 19.5804ZM118.007 21.1752L117.895 20.8578L117.969 21.1308L118.007 21.1752ZM118.02 20.6569L118.106 20.9138C118.109 20.8789 118.109 20.8446 118.11 20.8086C118.081 20.7516 118.051 20.6964 118.015 20.6454L118.02 20.6569ZM118.742 22.3326L118.496 22.0417C118.586 22.3256 118.675 22.6054 118.756 22.8802L118.742 22.3326ZM118.226 21.8345L118.206 22.0003C118.244 22.1241 118.279 22.2485 118.319 22.3736C118.325 22.3882 118.326 22.404 118.324 22.4193C118.321 22.4347 118.315 22.4493 118.306 22.4618C118.383 22.5706 118.457 22.6817 118.53 22.7928C118.43 22.4706 118.326 22.1473 118.22 21.823L118.226 21.8345ZM116.086 19.4692C115.335 18.7482 114.553 18.0593 113.735 17.4083C114.666 18.4248 115.654 19.3639 116.587 20.3707C116.414 20.0585 116.244 19.7596 116.081 19.4577L116.086 19.4692ZM116.292 19.4C116.749 19.8419 117.195 20.2982 117.628 20.7686C117.529 20.416 117.433 20.0628 117.345 19.7066C116.683 18.826 115.956 17.997 115.169 17.2265C115.536 17.9409 115.909 18.6667 116.287 19.3885L116.292 19.4ZM117.24 19.2631L117.214 19.1526C116.058 16.4897 114.422 13.9547 112.024 12.6973C111.989 12.7473 111.972 12.8174 111.948 12.8796C112.994 13.4136 113.644 14.2829 114.213 15.3682C114.439 15.8033 114.662 16.2419 114.885 16.6806C115.734 17.4739 116.52 18.3331 117.233 19.2503L117.24 19.2631ZM117.831 16.3964C117.37 15.0479 116.788 13.4818 115.695 12.531C115.396 12.2736 115.057 12.0669 114.692 11.9189C115.66 12.5421 116.352 13.5131 116.625 14.6325C116.682 14.8559 116.733 15.0786 116.785 15.3012C117.052 15.68 117.299 16.0722 117.526 16.4762C118.272 17.8203 118.403 19.2892 118.318 20.77C118.444 20.9679 118.57 21.1676 118.692 21.3708C118.632 19.6764 118.341 17.9988 117.826 16.3849L117.831 16.3964ZM111.778 13.4769C111.728 13.8009 111.742 14.1314 111.82 14.4495C111.821 14.4329 111.826 14.4167 111.835 14.4027C111.844 14.3887 111.857 14.3774 111.871 14.3699C111.886 14.3623 111.903 14.3589 111.919 14.36C111.936 14.361 111.952 14.3665 111.966 14.3758C112.846 14.9627 113.685 15.6109 114.474 16.3157C113.85 15.0178 113.18 13.747 111.876 13.0645C111.834 13.1961 111.8 13.33 111.773 13.4654L111.778 13.4769Z" fill="#C3937C"/>
<path d="M121.959 28.9044C123.048 27.4354 124.105 25.6387 125.541 24.47C126.851 23.4119 130.245 22.0003 131.522 23.8475C132.908 25.8725 130.909 28.9892 128.952 29.7386C126.35 30.7338 123.393 30.4826 120.8 31.677C120.8 31.677 120.779 31.6809 120.769 31.6844C120.141 32.5693 119.512 33.4698 118.911 34.3809C118.664 34.7383 118.188 33.5875 118.43 33.2277C119.571 31.4966 120.717 30.5781 121.959 28.9044ZM121.905 30.4747C122.188 30.3183 122.471 30.1525 122.755 29.9773C122.925 29.7307 123.095 29.4841 123.265 29.2375C122.984 29.3532 122.713 29.4916 122.454 29.6512C122.262 29.9176 122.079 30.192 121.905 30.4747ZM122.463 30.3743L122.484 30.3674L122.491 30.3567C122.491 30.3567 122.472 30.3697 122.463 30.3743ZM123.071 28.8744C122.959 29.0028 122.854 29.136 122.749 29.2693C122.982 29.149 123.223 29.044 123.47 28.9547C123.637 28.7135 123.803 28.4722 123.979 28.251C123.662 28.4362 123.358 28.6446 123.071 28.8744ZM124.253 27.8837C124.414 27.6731 124.578 27.4619 124.743 27.2567C124.378 27.5506 124.029 27.8645 123.698 28.1971C123.881 28.0842 124.066 27.9797 124.253 27.8837ZM123.779 28.8508C124.15 28.7356 124.528 28.6441 124.911 28.577C125.654 28.0792 126.399 27.5858 127.161 27.128C126.193 27.2897 125.255 27.5955 124.377 28.0353C124.175 28.3019 123.974 28.5745 123.779 28.8508ZM123.596 29.1153C123.456 29.319 123.316 29.5227 123.175 29.7264C123.63 29.4472 124.069 29.1508 124.512 28.8552C124.197 28.9195 123.888 29.0034 123.584 29.1067L123.596 29.1153ZM127.283 24.1861C125.741 24.8974 124.807 26.252 123.811 27.5635C123.507 27.9628 123.207 28.3645 122.906 28.7663C122.912 28.7568 122.918 28.7478 122.925 28.7394C123.621 27.9263 124.419 27.2058 125.299 26.5958C126.371 25.39 127.602 24.356 129.156 23.6984C128.506 23.7399 127.869 23.9046 127.279 24.1837L127.283 24.1861ZM129.541 23.7081C129.541 23.7227 129.536 23.7369 129.528 23.7489C129.52 23.761 129.508 23.7704 129.495 23.776C128.164 24.3127 126.964 25.1313 125.977 26.1753C127.499 25.2562 129.195 24.6671 130.957 24.4463C130.794 24.2209 130.582 24.0365 130.335 23.9079C130.089 23.7794 129.816 23.7101 129.538 23.7056L129.541 23.7081ZM131.203 24.9899C131.165 24.863 131.115 24.7402 131.053 24.6233C129.032 24.8642 127.099 25.5972 125.423 26.7581C125.154 27.0605 124.896 27.375 124.643 27.6962C125.587 27.2803 126.585 27.0018 127.607 26.8691C128.735 26.2007 129.949 25.6909 131.215 25.354C131.234 25.3498 131.254 25.3533 131.271 25.3639C131.259 25.2363 131.235 25.1103 131.199 24.9875L131.203 24.9899ZM131.279 25.5197C131.272 25.5305 131.266 25.5394 131.247 25.5428C130.151 25.8289 129.094 26.2515 128.101 26.8009C129.075 26.7054 130.055 26.6863 131.032 26.7439C131.201 26.3574 131.285 25.9388 131.275 25.5173L131.279 25.5197ZM130.938 26.9374C129.845 26.8751 128.749 26.9135 127.663 27.0521C126.877 27.5017 126.114 27.9985 125.349 28.502C126.804 28.2977 128.338 28.3218 129.695 28.2418C129.712 28.2408 129.729 28.2441 129.745 28.2514C129.761 28.2587 129.774 28.2698 129.784 28.2836C129.795 28.2975 129.801 28.3137 129.804 28.3308C129.806 28.348 129.804 28.3654 129.798 28.3816C130.266 27.9763 130.651 27.4852 130.935 26.935L130.938 26.9374ZM126.128 29.6029C126.895 29.4622 127.753 29.4046 128.496 29.1734C128.96 29.0108 129.389 28.7576 129.755 28.4285L129.747 28.441C128.275 28.5284 126.565 28.4807 124.993 28.7628C124.302 29.2275 123.61 29.6911 122.902 30.1261L122.779 30.3048C123.877 30.0016 125.016 29.8013 126.132 29.6054L126.128 29.6029ZM121.568 30.6618C121.679 30.4745 121.793 30.2897 121.913 30.1085C121.779 30.3033 121.631 30.4913 121.491 30.6824L121.568 30.6618Z" fill="#C3937C"/>
<path d="M122.096 20.5589C122.758 17.9314 124.361 15.4616 126.152 13.4649C127.276 12.2153 129.33 10.12 131.252 10.448C133.855 10.8958 133.13 14.1647 131.787 15.4798C130.507 16.7301 128.682 17.349 127.103 18.111C125.961 18.6341 124.87 19.2647 123.847 19.9943C123.803 20.0587 123.771 20.1316 123.737 20.2003C123.702 20.269 123.623 20.2462 123.587 20.1921C122.796 20.8173 121.987 22.9375 121.412 23.8327C121.178 24.1987 120.728 22.4258 120.961 22.0616C121.29 21.5498 121.669 21.0722 122.093 20.6359C122.091 20.6102 122.092 20.5844 122.096 20.5589ZM131.679 11.6125C128.861 13.3563 126.475 15.7181 124.701 18.519C126.001 17.3888 127.443 16.433 128.989 15.6759C130.143 14.5921 131.187 13.3966 132.106 12.107C132 11.9207 131.857 11.7579 131.687 11.6283L131.679 11.6125ZM124.138 18.9615L124.245 18.8902C124.321 18.7794 124.385 18.6601 124.457 18.5486C124.35 18.6963 124.244 18.8343 124.139 18.9723L124.138 18.9615ZM131.507 11.4964C131.277 11.3676 131.023 11.2885 130.76 11.2639C129.916 12.1425 129.092 13.0352 128.286 13.9421C129.285 13.0358 130.363 12.2209 131.507 11.5072L131.507 11.4964ZM125.31 18.2612C125.618 18.0927 125.933 17.928 126.252 17.7669C126.345 17.7201 126.44 17.6775 126.536 17.6302C127.059 17.2526 127.594 16.8807 128.094 16.4637C128.205 16.3715 128.312 16.2768 128.42 16.1851C127.32 16.78 126.278 17.4789 125.31 18.272L125.31 18.2612ZM123.146 19.6692C123.139 19.6559 123.135 19.6408 123.137 19.6257C123.138 19.6106 123.143 19.5961 123.152 19.5839C125.054 16.9836 126.958 14.3837 128.861 11.7843C127.959 12.3302 127.125 13.2236 126.428 14.0871C125.49 15.7863 124.457 17.4309 123.333 19.0126C123.231 19.256 123.137 19.4995 123.048 19.7466C123.076 19.7398 123.107 19.7138 123.141 19.6872L123.146 19.6692ZM123.801 18.0124C124.425 17.0925 125.019 16.1532 125.583 15.1945C125.509 15.3017 125.439 15.4035 125.371 15.5018C124.783 16.3069 124.255 17.1545 123.792 18.0375L123.801 18.0124ZM129.262 11.5572L123.56 19.3509L123.649 19.286C125.78 16.472 128.072 13.7833 130.513 11.2333C130.346 11.235 130.18 11.2528 130.017 11.2864C129.751 11.3538 129.495 11.4532 129.253 11.5823L129.262 11.5572ZM132.21 13.6994C132.39 13.2433 132.392 12.7366 132.215 12.2799C131.419 13.39 130.531 14.4311 129.561 15.3922C130.251 15.0772 130.978 14.788 131.738 14.5209C131.933 14.281 132.089 14.0123 132.2 13.7245L132.21 13.6994ZM129.84 16.02C130.446 15.7004 131.002 15.2943 131.491 14.8145C130.682 15.1039 129.89 15.4376 129.117 15.8142C129.001 15.9214 128.885 16.0287 128.768 16.1346C128.338 16.5135 127.888 16.862 127.43 17.1978C128.233 16.8525 129.053 16.4839 129.831 16.0451L129.84 16.02Z" fill="#C3937C"/>
<path d="M122.843 8.24577C123.029 5.89361 125.984 -2.6843 129.687 0.837571C131.117 2.19495 129.912 3.97389 128.721 4.95846C126.597 6.71594 122.934 7.87355 122.252 10.9116C122.158 11.3343 121.527 11.11 121.615 10.6914C121.83 9.83706 122.259 9.05133 122.862 8.40903C122.843 8.35705 122.836 8.30096 122.843 8.24577ZM126.846 1.34703C125.727 2.97139 124.679 4.62444 124.105 6.51095C124.307 6.3298 124.518 6.15954 124.738 6.00086C124.979 5.69574 125.214 5.38569 125.452 5.0781C125.452 5.0781 125.45 5.05521 125.458 5.0427C126.298 3.87551 126.893 2.55163 127.211 1.15011C127.085 1.21088 126.963 1.27711 126.846 1.34703ZM124.144 6.73285C124.095 6.78087 124.048 6.83013 124.001 6.87938L123.986 6.9273L124.144 6.73285ZM123.619 7.38041C123.674 7.3 123.741 7.22997 123.803 7.15447C123.79 7.14814 123.778 7.13985 123.768 7.1299C123.728 7.18708 123.678 7.23388 123.628 7.29754L123.619 7.38041ZM123.701 6.91001C123.737 6.85819 123.789 6.82044 123.832 6.77655C124.345 4.88915 125.33 3.25387 126.413 1.64403C126.311 1.72349 126.214 1.80865 126.121 1.89912C124.824 3.2136 124.051 5.07143 123.7 6.9118L123.701 6.91001ZM127.43 1.04555C127.235 1.96197 126.923 2.84968 126.501 3.6867C127.194 2.74921 127.869 1.80123 128.524 0.834925C128.146 0.818784 127.77 0.892812 127.426 1.05091L127.43 1.04555ZM128.73 0.871528C127.665 2.45154 126.543 3.98744 125.375 5.49141C125.401 5.45389 125.44 5.42797 125.475 5.39659C126.804 4.18061 128.432 3.41756 129.585 2.0036C129.58 1.91509 129.567 1.82729 129.545 1.74139C129.5 1.53643 129.399 1.34778 129.255 1.19553C129.111 1.04327 128.928 0.93315 128.726 0.876894L128.73 0.871528ZM129.582 2.30491C128.717 3.28989 127.643 3.9441 126.598 4.72864C126.359 4.9069 126.135 5.095 125.912 5.28912C126.823 4.81003 127.801 4.42754 128.724 4.02741C129.133 3.56345 129.52 2.92897 129.579 2.31027L129.582 2.30491ZM126.646 5.52087C127.22 5.19863 127.772 4.83599 128.295 4.43572L128.335 4.40022C127.281 4.80736 126.261 5.2973 125.283 5.86543C124.786 6.35954 124.32 6.88274 123.885 7.4323C124.755 6.72809 125.676 6.09092 126.642 5.52624L126.646 5.52087Z" fill="#C3937C"/>
<path d="M112.465 3.60193C113.689 2.62986 115.528 3.14314 116.661 3.97422C119.007 5.69166 119.465 8.90344 120.368 11.4683C120.857 12.0188 121.304 12.6054 121.705 13.2232C121.937 13.5807 121.422 14.0161 121.19 13.6586C120.792 13.0444 120.347 12.462 119.859 11.9164C119.844 11.9012 119.83 11.8845 119.817 11.8665C118.964 10.926 118.001 10.0914 116.949 9.38081C115.665 8.49648 114.177 7.83418 113.042 6.75406C112.115 5.88621 111.203 4.60415 112.465 3.60193ZM112.903 5.81499C114.501 6.60034 115.8 7.83254 117.297 8.78788C117.308 8.79525 117.313 8.79892 117.322 8.80506L117.331 8.8112C117.45 8.8935 117.568 8.97456 117.687 9.05685C116.192 7.49947 114.614 6.0666 112.612 5.20033C112.672 5.42081 112.77 5.62888 112.903 5.81499ZM118.591 9.76681C118.833 9.96513 119.065 10.1699 119.295 10.3813C119.231 10.3028 119.167 10.2273 119.106 10.1482C119.092 10.1457 119.079 10.1403 119.067 10.1322C119.056 10.1242 119.046 10.1137 119.038 10.1016L118.942 9.92937C118.257 9.01503 117.683 8.03368 116.951 7.15777C115.828 5.81694 114.302 4.87593 112.599 4.47478C112.543 4.63887 112.527 4.81396 112.552 4.98536C114.996 6.00827 116.823 7.85007 118.6 9.77294L118.591 9.76681ZM118.784 8.69769C117.299 6.94196 116.334 5.00593 114.397 3.78753C114.221 3.77656 114.045 3.77808 113.869 3.79206C116.27 5.14397 117.74 7.44324 119.102 9.81857L119.178 9.91828C119.054 9.51112 118.928 9.10575 118.793 8.70384L118.784 8.69769ZM113.548 3.82962C113.216 3.87229 112.913 4.04007 112.699 4.29876C114.103 4.63356 115.394 5.32754 116.448 6.31277C116.723 6.58186 116.98 6.8684 117.218 7.17059C116.234 5.82555 115.097 4.64133 113.557 3.83575L113.548 3.82962ZM115.113 3.90896L115.021 3.88542C116.499 5.04379 117.411 6.66566 118.604 8.17306C118.365 7.50057 118.064 6.85194 117.705 6.23556C117.115 5.22272 116.283 4.27803 115.122 3.91511L115.113 3.90896ZM115.696 7.8876C114.91 7.26031 114.081 6.689 113.215 6.17788C113.847 6.83704 114.815 7.40415 115.705 7.89375L115.696 7.8876Z" fill="#C3937C"/>
</svg>
