<svg width="83" height="74" viewBox="0 0 83 74" fill="none" xmlns="http://www.w3.org/2000/svg">
<path d="M0.651633 59.5757C0.907252 59.7032 0.970821 59.7381 1.13135 59.8181C25.9086 72.1718 56.1446 62.0097 68.5317 37.1655C72.9802 28.2737 74.6869 18.2621 73.4342 8.40715C73.1797 6.40493 72.8958 1.41813 72.8958 1.41813C76.1505 13.481 74.859 26.3312 69.2672 37.521C56.6795 62.7677 25.9502 73.0966 0.769064 60.5415C0.608966 60.4617 0.449476 60.3812 0.290587 60.2999C-0.408729 59.9421 0.334474 59.2516 0.651633 59.5757Z" fill="#C3937C"/>
<path d="M35.1875 49.5318C36.2751 49.6292 37.3462 49.968 37.8996 50.964C38.3802 51.8213 38.4518 52.8395 38.3164 53.796C38.0021 56.0267 36.6225 57.8335 34.988 59.3035C32.6786 61.3748 26.7101 63.609 26.6405 63.5631C26.3203 64.1348 26.4124 64.7503 26.0443 65.2964C25.8833 65.5362 25.0526 65.282 25.2136 65.0423C26.3983 63.3022 27.3253 61.3999 27.9656 59.3946C28.5566 57.5211 28.7163 55.5397 29.3482 53.6834C30.2325 51.1096 32.3693 49.2756 35.1875 49.5318ZM32.4167 50.5057C32.4249 50.5115 32.4317 50.5192 32.4364 50.528C32.4412 50.5369 32.4439 50.5468 32.4443 50.5568C32.4446 50.5669 32.4427 50.577 32.4386 50.5862C32.4345 50.5954 32.4283 50.6035 32.4205 50.61C30.3718 52.1584 30.0416 54.6164 29.6564 56.9733C29.8263 56.498 30.0129 56.031 30.2238 55.5696C31.195 53.4627 32.5637 51.563 34.2545 49.9755C34.0992 49.9893 33.9414 50.0082 33.7855 50.036C33.3093 50.1207 32.8487 50.2773 32.4192 50.5006L32.4167 50.5057ZM30.2119 61.2682C30.1122 61.3252 30.0108 61.3813 29.9077 61.4366C29.9959 61.407 30.0822 61.3748 30.1697 61.3432C30.1678 61.3343 30.1681 61.325 30.1708 61.3162C30.1735 61.3075 30.1784 61.2996 30.1851 61.2933L30.2119 61.2682ZM28.0399 62.2991C28.1002 62.2234 28.1565 62.1447 28.2086 62.0632C28.0916 62.1825 27.9766 62.3011 27.8584 62.4166C27.9127 62.3749 27.9779 62.337 28.0399 62.2991ZM28.3933 62.0064C28.3933 62.0064 28.3965 62 28.3984 61.9962L28.3933 62.0064ZM28.539 62.0119C28.5901 61.9829 28.6438 61.9553 28.6949 61.9296L28.576 61.9599C28.5671 61.9715 28.553 61.9901 28.5409 62.008L28.539 62.0119ZM28.4751 61.852L28.5076 61.8442C28.585 61.7339 28.6616 61.625 28.7364 61.5134C28.6674 61.5878 28.599 61.6642 28.5332 61.7322C28.514 61.7738 28.4955 61.811 28.477 61.8481L28.4751 61.852ZM28.6923 61.8003C28.8732 61.7576 29.0457 61.7092 29.2208 61.6589L29.2534 61.6416C29.7568 61.3863 30.2423 61.0969 30.7065 60.7756C33.5035 57.8994 35.616 54.4283 36.8861 50.6219C36.8426 50.5874 36.7992 50.5562 36.7532 50.5236C35.3511 52.8724 33.8127 55.137 32.1461 57.3057C31.217 58.5291 30.2751 59.778 29.245 60.9446C29.0757 61.2298 28.8904 61.515 28.6955 61.7939L28.6923 61.8003ZM29.279 61.7727C28.9646 61.936 28.6553 62.0922 28.3511 62.2702C28.3025 62.3356 28.2578 62.4029 28.208 62.4677C28.2001 62.4767 28.1897 62.4833 28.1782 62.4865C28.1666 62.4897 28.1544 62.4895 28.143 62.4858C28.1315 62.4822 28.1215 62.4753 28.1139 62.466C28.1064 62.4566 28.1018 62.4453 28.1006 62.4333C28.04 62.5062 27.9752 62.5754 27.9063 62.6405C29.9397 61.763 32.0625 60.9876 33.8377 59.6773C32.4314 60.5981 30.8956 61.3027 29.2815 61.7676L29.279 61.7727ZM28.0067 62.0841L27.9747 62.0905C27.9638 62.1123 27.9536 62.1328 27.9427 62.1546C27.9677 62.1271 27.9907 62.1033 28.013 62.0809L28.0067 62.0841ZM28.1709 61.9179C28.2559 61.8307 28.3421 61.7441 28.4252 61.6543C28.6204 61.1932 28.7598 60.7105 28.8405 60.2164C28.6215 60.8101 28.3603 61.3873 28.059 61.9438L28.1709 61.9179ZM34.4264 49.97C34.4261 49.9761 34.4245 49.9822 34.4218 49.9877C34.419 49.9932 34.4152 49.9981 34.4104 50.002C32.3739 51.894 30.8051 54.2349 29.8289 56.8385C29.6845 57.2273 29.5669 57.62 29.4615 58.0138C29.3823 58.4096 29.2916 58.7996 29.1836 59.1794C29.0699 59.7019 28.9632 60.2264 28.8424 60.7534C28.7934 60.9696 28.7328 61.1829 28.661 61.3926C28.8271 61.213 28.9933 61.0303 29.1568 60.8398C30.2009 59.1362 30.9984 57.2968 31.9607 55.5364C33.0431 53.567 34.4629 51.8235 35.8968 50.1095C35.4207 49.9785 34.9255 49.9303 34.4328 49.9668L34.4264 49.97ZM36.0285 50.1655C34.3869 52.1329 32.8322 54.1212 31.6527 56.4133C30.9843 57.7122 30.3601 59.0315 29.6355 60.2928C30.4023 59.395 31.1205 58.4441 31.8298 57.5145C33.5779 55.2617 35.1871 52.9042 36.6484 50.4554C36.4554 50.3351 36.2497 50.2368 36.0349 50.1623L36.0285 50.1655ZM36.9909 50.7062C35.7809 54.3078 33.8179 57.611 31.233 60.3948C31.6081 60.1162 31.9737 59.8216 32.3437 59.5084C34.6811 57.5504 36.9208 55.3756 37.892 52.41C37.8134 51.7497 37.4949 51.1421 36.9973 50.7029L36.9909 50.7062ZM37.9227 52.7069C37.0652 55.1116 35.3917 56.999 33.5028 58.6911C32.6101 59.4861 31.6912 60.2985 30.695 60.9715C30.5945 61.075 30.4905 61.1767 30.3832 61.2768C32.1229 60.6359 33.7442 59.7088 35.1803 58.5337C36.7701 56.9902 38.089 54.9276 37.9291 52.7037L37.9227 52.7069ZM27.5785 62.5043C27.6526 62.3812 27.7255 62.2575 27.7945 62.1319C27.643 62.1604 27.4916 62.1889 27.3382 62.2149C27.1919 62.5083 27.1823 62.5628 27.0264 62.8595C27.228 62.7661 27.4159 62.6455 27.5849 62.5011L27.5785 62.5043ZM29.5879 54.3997C29.039 56.3039 28.8308 58.2738 28.1797 60.1558C27.9545 60.8059 27.6965 61.4442 27.4066 62.0681C27.5632 62.0422 27.7191 62.0143 27.8756 61.982C28.9855 59.8999 29.3318 57.7075 29.7873 55.3184C30.1323 53.5127 30.7457 51.7959 32.2077 50.6175C30.876 51.4001 30.053 52.8043 29.5943 54.3965L29.5879 54.3997Z" fill="#C3937C"/>
<path d="M25.5248 65.0102C26.6515 65.5223 27.7557 66.0921 28.8472 66.6875C28.8786 66.6669 28.9152 66.6557 28.9527 66.6553C32.3498 66.5889 35.7647 65.7089 39.1657 66.1085C41.6707 66.3974 45.0219 67.6714 45.4502 70.522C45.8785 73.3726 43.2093 74.3539 40.8665 73.8899C37.7154 73.2645 35.2685 70.9388 32.5864 69.3407C30.2334 67.9371 26.8867 67.0093 24.3861 65.873C24.1279 65.7507 25.266 64.8924 25.5248 65.0102ZM36.0519 70.5581C35.5519 70.4583 35.0593 70.3245 34.5776 70.1575C35.5931 70.8638 36.613 71.5772 37.6802 72.1733C37.1485 71.6425 36.6085 71.0933 36.0538 70.5543L36.0519 70.5581ZM32.0802 68.5251C32.1313 68.5506 32.1786 68.5837 32.2265 68.6124C33.1174 69.0471 34.0541 69.381 35.0192 69.608C34.63 69.2683 34.2325 68.9453 33.819 68.648C33.1746 68.6397 32.533 68.5644 31.9045 68.4231L32.0802 68.5251ZM33.0273 69.1093C33.4171 69.3613 33.805 69.6235 34.191 69.8895C34.6551 70.0837 35.1348 70.2383 35.625 70.3517C35.7151 70.3726 35.8065 70.391 35.8979 70.4093C35.6748 70.1973 35.448 69.9866 35.2179 69.7823C34.4735 69.6068 33.7417 69.3819 33.0273 69.1093ZM31.3076 68.0775C31.3076 68.0775 31.3165 68.0819 31.3216 68.0845C31.3574 68.1023 31.3919 68.1195 31.4207 68.1483L31.5447 68.2197C32.2441 68.4231 32.9661 68.5391 33.6944 68.565C33.6107 68.5057 33.5276 68.4483 33.4426 68.3915C32.509 68.2939 31.5923 68.0756 30.7152 67.7421L31.3076 68.0775ZM33.9155 68.5665C34.1002 68.5673 34.2855 68.5637 34.4721 68.5544C34.5814 68.5464 34.6907 68.5353 34.805 68.5267C34.4395 68.4949 34.0746 68.4618 33.7116 68.4216C33.7794 68.4682 33.8503 68.518 33.9206 68.569L33.9155 68.5665ZM29.6729 67.0704C30.7682 67.7541 31.9824 68.0619 33.2266 68.2454C32.3478 67.6643 31.3689 67.2511 30.3394 67.0267C30.1208 67.0457 29.8978 67.0609 29.6767 67.0723L29.6729 67.0704ZM29.5719 67.0744L29.5476 67.0752L29.5668 67.0847C29.5688 67.0811 29.572 67.0781 29.5758 67.0764L29.5719 67.0744ZM31.9357 66.8721C33.0176 67.0067 34.0886 67.2046 35.1788 67.313C36.9266 67.4851 38.7887 67.0855 40.5441 66.8166C40.3697 66.7728 40.1978 66.7303 40.0291 66.6942C37.3834 66.1368 34.6458 66.5704 31.9395 66.874L31.9357 66.8721ZM40.8566 66.9036C39.1363 67.1532 37.3266 67.5438 35.5872 67.4766C34.1698 67.4099 32.7677 67.0917 31.3478 66.9406L30.7445 66.9982C31.7341 67.2691 32.6705 67.7057 33.5142 68.2896C34.104 68.3644 34.7021 68.4162 35.2984 68.4655C36.3374 68.3019 37.365 68.0045 38.4296 67.9465C40.5755 67.8387 42.6351 68.592 44.5989 69.3903C43.8441 68.0971 42.3079 67.3247 40.8541 66.9023L40.8566 66.9036ZM44.9523 70.2626C44.8911 70.0236 44.8043 69.7921 44.6935 69.5719C41.9149 68.4585 39.4028 67.7901 36.3694 68.3978C36.1675 68.438 35.9687 68.4717 35.7693 68.5035C36.4704 68.5634 37.1688 68.6316 37.85 68.7504C40.3707 69.1987 42.8031 70.0463 45.0559 71.2615C45.0707 70.9246 45.035 70.5874 44.9498 70.2613L44.9523 70.2626ZM45.0495 71.4023C42.5214 70.031 39.7664 69.1273 36.9164 68.7346C36.379 68.6634 35.8352 68.6147 35.2933 68.5653C34.8738 68.6167 34.4517 68.6435 34.0293 68.6456C34.4613 68.9666 34.8786 69.3107 35.2856 69.672C36.3183 69.9277 37.3696 70.1398 38.3907 70.4441C40.3825 71.0485 42.2904 71.9003 44.07 72.9797C44.3439 72.8105 44.5749 72.5797 44.7445 72.3056C44.9141 72.0316 45.0176 71.7219 45.047 71.4011L45.0495 71.4023ZM43.9447 73.0581C41.7799 71.7612 39.4317 70.7986 36.9791 70.2028C36.4755 70.0797 35.9784 69.9694 35.4748 69.8464C35.6946 70.0456 35.9126 70.2486 36.1286 70.4555C36.6936 70.5361 37.2525 70.6544 37.8016 70.8096C39.2746 71.2864 40.3412 72.3575 41.3854 73.4542C41.3918 73.4606 41.3967 73.4683 41.3999 73.4768C41.4031 73.4853 41.4045 73.4944 41.404 73.5034C42.305 73.5879 43.2418 73.4565 43.9422 73.0568L43.9447 73.0581ZM41.2327 73.4853C39.7628 71.9523 38.4106 71.0125 36.2845 70.6069C36.8967 71.2002 37.4891 71.8076 38.0758 72.3849C38.8543 72.8028 39.6789 73.1286 40.5329 73.3556C40.7624 73.4128 40.9953 73.4557 41.2301 73.484L41.2327 73.4853Z" fill="#C3937C"/>
<path d="M47.2357 45.0131C48.77 44.0772 50.1292 44.2476 50.9325 45.9587C52.1002 48.4434 50.3436 51.1055 49.0382 53.1509C47.1404 56.1282 44.562 58.4093 41.7683 60.5207C41.7329 60.551 41.6875 60.5667 41.6411 60.5647C41.5946 60.5627 41.5508 60.543 41.5184 60.5097C41.121 61.4317 41.3549 62.1884 40.4628 62.9821C40.2526 63.1701 39.0947 62.9992 39.3081 62.808C42.3242 60.113 41.6639 56.6076 42.4165 53.0529C43.0432 50.0995 44.5505 46.6506 47.2357 45.0131ZM43.398 51.2028C42.9678 53.8921 42.5015 56.576 41.9989 59.2548C43.7657 57.3883 43.9177 54.6862 44.2057 52.2136C44.4823 49.8409 45.244 48.0028 46.5181 46.0395C45.7966 46.7739 45.1715 47.5974 44.658 48.49C44.1515 49.3515 43.7295 50.26 43.398 51.2028ZM41.9005 59.8682C41.9759 59.7458 42.0526 59.624 42.1254 59.5003C42.1202 59.4954 42.1161 59.4894 42.1132 59.4828C42.1104 59.4762 42.109 59.4691 42.109 59.4619C42.109 59.4547 42.1104 59.4476 42.1132 59.441C42.1161 59.4344 42.1202 59.4284 42.1254 59.4235C42.1669 59.3818 42.2053 59.3401 42.2468 59.2984C42.2884 59.2567 42.2807 59.2305 42.2979 59.1959C42.1944 59.2787 42.0903 59.3596 41.9848 59.4398C41.9778 59.4539 41.9618 59.4635 41.9497 59.4751C41.9241 59.6096 41.9005 59.7434 41.8756 59.8766C41.8836 59.8729 41.8919 59.8701 41.9005 59.8682ZM42.5184 58.8337C42.5011 58.8683 42.4724 58.8972 42.4475 58.928C42.4526 58.9177 42.4673 58.9107 42.4775 58.903C42.4877 58.8953 42.5075 58.8491 42.5216 58.8273L42.5184 58.8337ZM46.8293 45.7578C46.832 45.7657 46.8326 45.7742 46.8313 45.7824C46.83 45.7907 46.8266 45.7985 46.8216 45.8052C45.9775 47.0661 45.1577 48.3359 44.7526 49.814C44.375 51.1923 44.3055 52.6313 44.1317 54.0424C43.9982 55.1488 43.788 56.2553 43.3842 57.2669C45.4051 53.4417 46.8791 49.3518 47.7629 45.1176C47.4283 45.2903 47.1159 45.5032 46.8325 45.7514L46.8293 45.7578ZM47.9067 45.0469C46.9207 49.8283 45.1844 54.4244 42.7625 58.6642C42.804 58.6289 42.8462 58.5956 42.8852 58.5654C43.5178 57.6679 44.1906 56.7857 44.8552 55.8945C45.5977 54.6463 46.1818 53.3103 46.5938 51.9177C47.3043 49.5325 47.6064 47.0574 48.7611 44.8248C48.467 44.846 48.1788 44.919 47.9099 45.0405L47.9067 45.0469ZM48.9796 44.8154C48.9592 44.8148 48.94 44.818 48.9195 44.8174C47.5937 47.3422 47.3708 50.1897 46.4418 52.85C46.1727 53.621 45.8481 54.3715 45.4705 55.0956C47.6636 52.1503 49.6687 49.1017 49.8596 45.3133C49.8604 45.303 49.8637 45.2931 49.869 45.2843C49.8743 45.2755 49.8815 45.268 49.8902 45.2624C49.8988 45.2568 49.9086 45.2533 49.9188 45.2521C49.929 45.2509 49.9394 45.2521 49.949 45.2555C49.6953 44.986 49.3474 44.8251 48.9777 44.8064L48.9796 44.8154ZM49.9752 45.2798C49.9752 45.2798 49.9861 45.2932 49.9848 45.3053C49.7793 49.4272 47.4431 52.6788 45.0405 55.8621C44.6232 56.572 44.158 57.2527 43.6482 57.8993C46.7631 55.0777 49.2194 51.6036 50.8419 47.7248C50.8449 47.7169 50.8497 47.7098 50.8559 47.704C50.8621 47.6983 50.8696 47.694 50.8777 47.6915C50.8772 47.6836 50.8774 47.6757 50.8783 47.6678C50.8604 46.9484 50.5728 45.8769 49.9733 45.2708L49.9752 45.2798ZM50.8662 47.9738C49.1324 52.037 46.4854 55.6459 43.1318 58.5187C43.0277 58.6412 42.9216 58.7612 42.813 58.8798C42.6794 59.0741 42.5465 59.2702 42.4168 59.4664C44.9051 57.5067 47.1563 55.3665 48.8439 52.6316C49.6937 51.2535 50.7813 49.6356 50.8707 47.968L50.8662 47.9738ZM41.7267 59.9991L41.7401 59.9338L41.7113 60.0107L41.7267 59.9991ZM42.4556 56.0182C42.6946 54.6855 42.9209 53.3502 43.1347 52.0124C42.8957 52.8285 42.7237 53.6627 42.6204 54.5066C42.5629 55.0124 42.5125 55.5169 42.4601 56.0124L42.4556 56.0182Z" fill="#C3937C"/>
<path d="M38.7796 62.6645C39.7852 62.7521 40.7789 62.9425 41.7454 63.2327C41.779 63.194 41.8251 63.1683 41.8757 63.1601C43.5572 62.8711 45.1913 62.351 46.7317 61.6145C47.8039 61.1186 48.8436 60.6785 50.0188 60.5012C52.5053 60.1232 56.0813 60.5396 57.6381 62.8232C59.016 64.8447 57.3553 67.8714 55.0727 68.2502C52.6725 68.6537 50.1444 67.1052 48.033 66.1804C45.0895 64.8953 41.4284 63.9196 38.1815 63.6688C37.892 63.6445 38.4965 62.6402 38.7796 62.6645ZM45.3693 62.801C45.4767 62.8033 45.5834 62.8005 45.6888 62.8003C46.525 62.667 47.3745 62.641 48.2168 62.723C50.5142 62.5594 52.7862 62.1354 54.9893 61.4593C53.8992 61.01 52.7281 60.7899 51.5487 60.8127C51.5424 60.8235 51.5331 60.8322 51.5218 60.8377C50.2363 61.4568 48.8951 61.9518 47.5164 62.3162C46.4793 62.5848 45.4076 62.7049 44.3807 63.017L44.1596 63.0859C44.0395 63.1252 43.9219 63.169 43.8043 63.216C43.8778 63.2127 43.9507 63.2106 44.0254 63.2111C44.4471 63.071 44.8769 62.9572 45.3124 62.8703C45.3094 62.862 45.3085 62.8531 45.3098 62.8444C45.311 62.8356 45.3145 62.8274 45.3197 62.8203C45.325 62.8132 45.332 62.8076 45.3399 62.8039C45.3479 62.8002 45.3567 62.7985 45.3655 62.7991L45.3693 62.801ZM43.1813 63.7071C44.1258 63.6819 45.0792 63.6421 46.0307 63.6348C45.3908 63.4507 44.7292 63.3517 44.0631 63.3403C43.7466 63.4381 43.4352 63.552 43.1302 63.6816L43.1813 63.7071ZM42.9711 63.6262C42.9749 63.6185 42.9781 63.6121 42.9813 63.6057C43.1883 63.5105 43.4005 63.4275 43.6146 63.347L43.4669 63.3582C43.3698 63.4026 43.2669 63.4393 43.1794 63.4933C43.1679 63.4995 43.1548 63.5022 43.1418 63.5009C43.1288 63.4997 43.1165 63.4946 43.1065 63.4863C43.0964 63.478 43.089 63.4669 43.0853 63.4544C43.0815 63.4419 43.0816 63.4285 43.0854 63.416C43.0452 63.4232 43.0049 63.4271 42.9659 63.4349C42.9528 63.4367 42.9394 63.4345 42.9276 63.4286C42.9157 63.4227 42.9059 63.4133 42.8995 63.4017C42.7832 63.4269 42.6707 63.4477 42.5448 63.4729L42.9711 63.6262ZM46.4531 62.2277C46.1476 62.3666 45.8415 62.494 45.5323 62.615C46.0416 62.5121 46.5553 62.4194 47.0653 62.2993C48.5063 61.95 49.9084 61.4551 51.2502 60.8223C50.9831 60.8332 50.7152 60.8553 50.4463 60.8888C48.9906 61.0686 47.7688 61.6276 46.4492 62.2257L46.4531 62.2277ZM55.1094 61.5096C55.1113 61.5225 55.1083 61.5356 55.1012 61.5465C55.094 61.5574 55.083 61.5652 55.0704 61.5685C53.0452 62.1941 50.961 62.6071 48.8514 62.801C50.0496 62.9936 51.198 63.3533 52.4281 63.3282C53.8122 63.3014 55.351 62.8526 56.6776 62.4643C56.4204 62.239 56.1402 62.0414 55.8417 61.8747C55.5976 61.737 55.3535 61.6153 55.1056 61.5077L55.1094 61.5096ZM56.7812 62.5607C56.7812 62.5607 56.7812 62.5607 56.7767 62.5697C54.6852 63.183 52.5182 63.6691 50.35 63.2361C49.4771 63.0553 48.592 62.9391 47.7018 62.8887C47.1439 62.9193 46.5848 62.9302 46.023 62.9301C45.4825 62.9845 44.9475 63.0844 44.4236 63.2287C45.0847 63.2888 45.7367 63.4244 46.3669 63.6328C47.4592 63.6189 48.5506 63.6938 49.6304 63.8567C52.3559 64.3019 54.8635 64.9761 57.6542 64.8522C57.7743 63.9104 57.3972 63.1495 56.7773 62.5588L56.7812 62.5607ZM57.6254 65.0282C57.6331 65.0129 57.6299 64.9937 57.6338 64.9764C55.1863 65.0842 52.9304 64.6635 50.5404 64.16C49.3172 63.9182 48.0737 63.7921 46.8264 63.7835C47.498 64.0143 48.1626 64.2785 48.8234 64.5056C51.4946 65.4246 54.2169 66.1482 57.0299 66.4595C57.3185 66.0247 57.5191 65.5375 57.6203 65.0257L57.6254 65.0282ZM56.9411 66.5672C54.5491 66.2794 52.1925 65.752 49.9066 64.9928C48.817 64.6432 47.6833 64.1323 46.5286 63.7662C45.6001 63.7561 44.6696 63.7819 43.7417 63.8057C47.6757 64.2181 50.7643 67.251 54.6503 67.8524C54.9161 67.8316 55.1788 67.7812 55.4337 67.7022C56.0439 67.4944 56.5721 67.0967 56.9411 66.5672ZM50.7566 66.8791C51.7669 67.3077 52.8961 67.7859 54.0272 67.857C50.469 67.0622 47.5261 64.3772 43.8619 63.9456C44.8435 64.323 45.8071 64.7394 46.7446 65.1381C48.0879 65.715 49.4158 66.3163 50.7578 66.8862L50.7566 66.8791Z" fill="#C3937C"/>
<path d="M53.4124 55.4806C54.0642 55.2711 54.362 55.7109 55.07 55.7279C55.0926 55.7076 55.1188 55.6919 55.1473 55.6816C58.8511 54.3952 62.2775 51.2359 66.4095 51.5359C69.2084 51.741 72.2683 54.297 71.0121 57.3734C69.6613 60.6811 65.4181 59.9512 62.9092 58.7323C60.084 57.3573 56.4094 55.362 53.1581 56.4099C52.8833 56.5034 53.1401 55.5689 53.4124 55.4806ZM57.5393 56.0853C59.611 56.091 61.6866 55.7689 63.7373 56.1081C65.871 56.4631 67.8578 57.3753 69.8044 58.285C70.3301 57.7852 70.6699 57.1207 70.7673 56.4017C68.6383 55.1058 66.1912 54.4268 63.6976 54.4402L63.4592 54.4477C63.109 54.5548 62.7576 54.6644 62.4074 54.7746C60.5552 55.3635 58.6434 55.743 56.7079 55.906C56.9871 55.9572 57.2645 56.0187 57.5393 56.0853ZM56.1736 55.8189C58.5125 55.6889 60.6929 55.1342 62.9084 54.4739C60.6046 54.6294 58.3118 55.2976 56.0708 55.8076L56.1685 55.8195L56.1736 55.8189ZM65.0963 52.0061C62.6245 52.2682 60.4653 53.5775 58.2671 54.7408C59.8218 54.5574 61.3373 54.1244 62.7556 53.4585C63.9263 52.9061 65.0733 52.3307 66.3104 51.9842C65.9067 51.9568 65.5014 51.9645 65.0988 52.0074L65.0963 52.0061ZM66.6856 52.0192C65.1813 52.3765 63.8387 53.104 62.4361 53.7408C60.9925 54.3956 59.5822 54.7181 58.0268 54.9027C58.0194 54.9038 58.0118 54.9034 58.0045 54.9014C57.9972 54.8994 57.9905 54.896 57.9846 54.8913C57.5514 55.1201 57.1111 55.3374 56.6689 55.5394C58.878 55.0167 61.1446 54.401 63.4094 54.3237L63.7263 54.2289C65.7175 53.6215 67.733 53.1703 69.8035 53.5178C69.0117 52.6445 67.8729 52.176 66.6907 52.0218L66.6856 52.0192ZM70.3678 54.3192C70.2457 54.0882 70.1012 53.8699 69.9364 53.6673C67.8595 53.2718 65.8696 53.7198 63.8912 54.3143L64.1059 54.3125C66.4618 54.3718 68.7605 55.0432 70.7769 56.2609C70.834 55.5885 70.6936 54.9144 70.3729 54.3217L70.3678 54.3192ZM69.6957 58.3749C67.7754 57.4766 65.8129 56.5797 63.7085 56.2298C61.8176 55.9159 59.9095 56.1678 58.0064 56.2046C58.2071 56.2599 58.4039 56.3164 58.5982 56.3749C60.233 56.182 61.8894 56.3441 63.4546 56.85C65.0198 57.3559 66.4571 58.1939 67.6688 59.3068C67.9516 59.2558 68.2296 59.1802 68.4995 59.081C68.9401 58.9235 69.3476 58.6849 69.7008 58.3774L69.6957 58.3749ZM65.4526 59.2227C64.218 58.5024 62.8988 57.9381 61.525 57.5429C62.8178 58.1891 64.1112 58.9076 65.4577 59.2253L65.4526 59.2227ZM60.9428 57.2575C62.6667 57.6841 64.3145 58.373 65.829 59.3C66.3822 59.4015 66.9483 59.4136 67.5058 59.336C66.3471 58.2898 64.9845 57.4953 63.5036 57.0023C62.0226 56.5092 60.4552 56.3283 58.8998 56.4708C59.1024 56.535 59.303 56.5999 59.4973 56.6647C59.9907 56.8341 60.4738 57.0322 60.9441 57.2581L60.9428 57.2575Z" fill="#C3937C"/>
<path d="M58.3582 35.271C61.6019 34.7761 62.9786 38.5796 62.4816 41.1672C61.7111 45.1834 58.8605 48.5802 56.5391 51.8055C56.5177 51.8366 56.4874 51.8606 56.4522 51.8742C56.0854 52.9555 56.2682 53.2034 55.5232 54.096C55.3417 54.316 54.2707 54.7933 54.4522 54.5733C55.901 52.8356 56.625 50.606 56.4731 48.3499C56.3324 46.3596 55.4632 44.4861 55.0452 42.5527C54.4699 39.8369 54.9426 35.7906 58.3582 35.271ZM55.8099 37.716C55.7575 37.8211 55.7057 37.9249 55.6553 38.0261C55.6553 38.0261 55.6553 38.0261 55.6591 38.0376C55.6973 40.4359 56.0586 42.8175 56.733 45.1176C56.703 44.333 56.6595 43.5496 56.5962 42.7676C56.4523 41.0141 56.2138 39.2743 55.9057 37.5429C55.8744 37.5993 55.8425 37.657 55.8105 37.7147L55.8099 37.716ZM56.8949 48.0546C56.9051 48.1557 56.9121 48.2568 56.9204 48.3585C57.0667 48.0651 57.2188 47.76 57.3728 47.4512C57.3025 47.2337 57.2303 47.0265 57.1677 46.8385C57.0709 46.5524 56.9759 46.266 56.8826 45.9795C56.898 46.6699 56.9023 47.3611 56.8955 48.0533L56.8949 48.0546ZM57.617 48.3346C57.4059 48.7829 57.1724 49.2203 56.9173 49.6451C56.9071 49.7744 56.8943 49.9024 56.8834 50.033C57.1211 49.4699 57.3652 48.9099 57.6272 48.3589L57.617 48.3346ZM57.571 48.1356C57.5268 47.9616 57.4776 47.7915 57.4265 47.6252C57.2668 47.9616 57.0974 48.2852 56.9396 48.6017C56.9511 48.8603 56.9479 49.1195 56.9358 49.3775C57.1652 48.9686 57.3786 48.5566 57.5716 48.1343L57.571 48.1356ZM56.9075 45.6895C57.0392 46.0976 57.2673 46.6449 57.4699 47.234C58.2968 45.4061 58.9044 43.2944 58.3285 41.4631C57.8198 39.8462 56.7308 38.516 56.4642 36.8165C56.2949 36.9931 56.1418 37.1845 56.0067 37.3885C56.4956 40.0921 56.7847 42.8285 56.8717 45.5756C56.8845 45.6108 56.8954 45.6498 56.9082 45.6882L56.9075 45.6895ZM56.5741 36.7081C56.858 38.7698 58.4786 40.3779 58.6673 42.4577C58.8162 44.0793 58.252 45.851 57.5281 47.4086C57.5811 47.5711 57.631 47.7335 57.6757 47.8967C58.3273 46.4115 58.709 44.8222 58.8028 43.2037C58.94 40.7391 58.3488 38.337 57.7493 35.9707C57.7471 35.958 57.7491 35.945 57.755 35.9336C57.3158 36.113 56.915 36.3755 56.5748 36.7068L56.5741 36.7081ZM57.8432 35.9007C57.8494 35.9041 57.8548 35.9086 57.8592 35.9141C57.8636 35.9196 57.8668 35.9259 57.8688 35.9327C58.4696 38.3124 59.0736 40.7369 58.935 43.2137C58.8363 44.9028 58.4262 46.5598 57.7256 48.1007L57.7313 48.1276C57.8591 47.8713 57.9869 47.615 58.1237 47.3631C58.8419 46.0507 59.702 44.7738 60.0681 43.3033C60.1683 42.4813 60.2226 41.6459 60.2533 40.8131C60.119 39.0756 59.5092 37.357 58.9232 35.7351C58.9232 35.7351 58.9276 35.7261 58.9302 35.721C58.561 35.7131 58.1933 35.7727 57.8451 35.8969L57.8432 35.9007ZM58.7128 46.5752C58.3786 47.1654 58.0719 47.7614 57.7818 48.3656C57.8427 48.6517 57.871 48.9439 57.8662 49.2366C58.1864 48.7897 58.5027 48.341 58.8119 47.8871C59.3872 46.6702 59.7764 45.3738 59.9665 44.0416C59.6199 44.9164 59.2019 45.7613 58.7167 46.5675L58.7128 46.5752ZM59.0554 35.7227C59.5418 37.0709 60.0455 38.4869 60.2781 39.9278C60.3024 38.6341 60.2831 37.3572 60.2984 36.1552C60.2998 36.1429 60.3055 36.1316 60.3144 36.1231C59.9356 35.8868 59.5048 35.7467 59.0593 35.715L59.0554 35.7227ZM60.4179 36.1907C60.4026 37.636 60.4302 39.1907 60.3753 40.7571C60.4404 41.4701 60.4095 42.1887 60.2834 42.8939C60.2553 43.0399 60.222 43.1833 60.185 43.3248C60.0416 44.6706 59.72 45.9917 59.2286 47.2532C59.4433 46.925 59.6516 46.5936 59.8535 46.259C59.8437 46.2535 59.8361 46.2448 59.832 46.2343C59.8279 46.2238 59.8276 46.2122 59.8311 46.2015C60.6074 43.2586 61.353 40.3101 61.4219 37.2497C61.4219 37.2497 61.4276 37.2382 61.4302 37.2331C61.2558 36.9671 61.05 36.7232 60.8173 36.5067C60.6954 36.3907 60.5654 36.2836 60.4281 36.1862L60.4179 36.1907ZM61.78 42.1007C62.2572 40.5641 62.3581 38.7903 61.5439 37.405C61.4514 40.3304 60.7588 43.1597 60.0171 45.9789C60.7553 44.7593 61.3498 43.4583 61.7889 42.102L61.78 42.1007ZM57.6982 49.4552C57.7215 49.171 57.7079 48.8851 57.6579 48.6046C57.3563 49.2415 57.0713 49.8867 56.7921 50.5396C56.7787 50.6145 56.764 50.6855 56.7467 50.7617C57.0709 50.3249 57.3919 49.8881 57.7097 49.4513L57.6982 49.4552ZM56.7568 47.2177C56.7644 47.0711 56.767 46.9507 56.7683 46.9034C56.767 46.4643 56.758 46.0246 56.7458 45.5849C56.563 45.0137 56.393 44.4393 56.2511 43.8533C55.8186 42.0315 55.5786 40.1688 55.5351 38.2958C54.4342 41.1728 56.2039 44.3417 56.7683 47.2138L56.7568 47.2177Z" fill="#C3937C"/>
<path d="M63.1125 46.0758C63.8736 45.8712 63.9567 46.3766 64.7011 46.3494C64.6921 46.3167 64.6921 46.2822 64.7011 46.2495C64.7101 46.2168 64.7278 46.1871 64.7522 46.1637C66.8283 43.9777 69.6503 42.6581 72.6761 42.6098C74.6379 42.5766 78.8255 43.1268 79.4021 45.5072C80.1569 48.6182 75.4057 48.9904 73.4822 48.6938C69.6882 48.1063 66.5575 46.0413 62.5892 47.103C62.3112 47.1836 62.8383 46.1455 63.1125 46.0758ZM65.3913 46.3479C65.6043 46.2215 65.819 46.1035 66.0354 45.9938L65.8974 46.0146C65.7402 46.045 65.5785 46.0812 65.4149 46.1244C65.3408 46.1963 65.2692 46.2694 65.197 46.3438L65.3913 46.3479ZM67.3269 46.5593C67.6701 46.46 68.0043 46.3434 68.3334 46.2242C67.7406 45.9792 67.0973 45.8807 66.4578 45.9372L66.4361 45.9391C66.1639 46.0658 65.8948 46.2053 65.6303 46.355C66.1999 46.385 66.7667 46.4532 67.3269 46.5593ZM68.5647 46.1412C68.858 46.033 69.1494 45.9286 69.4453 45.8345C68.8457 45.7809 68.2426 45.7756 67.6419 45.8187C67.7549 45.8432 67.8665 45.8737 67.9762 45.9101C68.1736 45.9782 68.3692 46.0565 68.5622 46.1399L68.5647 46.1412ZM72.3579 43.0624C70.8683 43.1375 69.411 43.5291 68.0828 44.2111C71.0607 43.8205 74.1734 43.9916 77.1571 43.935C76.796 43.7822 76.4228 43.657 76.093 43.5502C74.8878 43.1644 73.6226 42.9992 72.3579 43.0624ZM78.2403 44.5823C77.9657 44.3501 77.6585 44.1597 77.3283 44.0172C77.3279 44.0312 77.3219 44.0445 77.3117 44.0541C77.3015 44.0637 77.288 44.0689 77.274 44.0686C74.144 44.1241 70.8728 43.9285 67.7594 44.3827C67.1787 44.7047 66.6284 45.0789 66.1153 45.5007C70.0644 43.2326 74.8112 44.1943 78.9183 45.7477C78.8347 45.2918 78.5949 44.8797 78.2403 44.5823ZM78.9292 45.8859C74.6719 44.2657 69.7072 43.2577 65.6686 45.9165C65.9418 45.8468 66.2193 45.7959 66.4993 45.7642C68.4073 44.9007 70.5219 44.6051 72.5905 44.9127C74.6591 45.2202 76.5944 46.118 78.165 47.4987C78.7101 47.0616 78.9746 46.4734 78.9292 45.8859ZM77.9305 47.681C77.9797 47.6495 78.0244 47.6142 78.0698 47.5808C76.5625 46.2611 74.7164 45.3899 72.7393 45.0655C70.7622 44.741 68.7328 44.976 66.8796 45.7442C66.909 45.7429 66.939 45.7466 66.9678 45.7466C67.8934 45.6328 68.8291 45.6314 69.7546 45.7423C70.454 45.5237 71.1913 45.4551 71.9183 45.5411C73.8744 45.8075 75.5398 46.9578 77.1036 48.0879C77.3923 47.9809 77.6694 47.8446 77.9305 47.681ZM76.9592 48.1568C75.2401 46.9156 73.3389 45.6333 71.1336 45.6234C70.7312 45.6236 70.3303 45.6748 69.9405 45.7758C70.0217 45.7891 70.1029 45.796 70.184 45.8124C71.9784 46.1567 73.4655 47.2005 74.8018 48.3932C74.8074 48.3982 74.8119 48.4043 74.8151 48.4111C74.8183 48.418 74.8201 48.4253 74.8203 48.4329C75.5454 48.4744 76.2722 48.3786 76.9624 48.1504L76.9592 48.1568ZM74.6452 48.4224C73.2348 47.1767 71.657 46.1164 69.745 45.8704L69.6402 45.8597C69.3143 45.9564 68.9922 46.0743 68.674 46.1972C69.6869 46.6463 70.6697 47.2739 71.6072 47.8197C72.595 48.1327 73.6153 48.3327 74.6484 48.416L74.6452 48.4224ZM71.0468 47.6379C70.2416 47.1789 69.4281 46.7236 68.5903 46.3363C68.5443 46.3134 68.4996 46.3007 68.4574 46.2829C68.1577 46.3975 67.8631 46.5146 67.5551 46.6138C68.2127 46.7505 68.8621 46.9236 69.5003 47.1325C69.9879 47.2812 70.5087 47.4592 71.05 47.6315L71.0468 47.6379Z" fill="#C3937C"/>
<path d="M67.7317 39.2085C68.2794 38.8046 68.4385 39.2824 69.0437 38.9745C69.0519 38.9453 69.0656 38.9179 69.0839 38.8937C70.2437 37.4299 71.5227 36.0648 72.9077 34.8125C73.8304 33.9925 74.849 33.233 76.0855 32.9967C77.8262 32.6645 80.8783 33.4661 81.1481 35.5816C81.4472 37.971 78.6336 38.5859 76.8629 38.3895C74.8531 38.1667 72.9788 38.1779 71.1946 38.6516C70.8013 38.886 70.3623 39.0329 69.9076 39.082C69.0704 39.426 68.2786 39.8724 67.5503 40.4109C67.3235 40.581 67.5023 39.3773 67.7317 39.2085ZM73.6529 36.3842C73.7308 36.3014 73.805 36.2136 73.881 36.1283C73.4286 36.3213 72.9885 36.5423 72.5633 36.7898L72.5224 36.8238C72.8209 36.7406 73.1225 36.6766 73.4216 36.6209C73.5065 36.5432 73.58 36.4599 73.6529 36.3842ZM76.0529 33.4621C76.0082 33.4718 75.9641 33.4834 75.92 33.495C75.9209 33.5048 75.9191 33.5147 75.9147 33.5235C75.9103 33.5324 75.9035 33.5398 75.8951 33.545C74.2126 34.5094 72.9275 35.9761 71.4553 37.207C71.6329 37.1356 71.8189 37.0571 71.9997 36.9985C72.1601 36.8944 72.3205 36.7936 72.4847 36.6978C73.1771 36.1108 73.9274 35.5959 74.7238 35.1612C75.1775 34.6001 75.6171 34.0321 76.0529 33.4621ZM75.0197 34.9935C76.2058 34.3855 77.4751 33.9571 78.7861 33.7223C77.9835 33.3816 77.0996 33.2791 76.2395 33.4271C75.8376 33.9516 75.435 34.4773 75.0197 34.9935ZM70.9716 38.1996C71.2755 37.8443 71.5976 37.505 71.9365 37.1829C71.4053 37.5388 70.904 37.9375 70.4374 38.3749C70.6137 38.3124 70.7927 38.2544 70.9716 38.1996ZM73.1167 36.3457C73.4337 36.1837 73.7493 36.037 74.0791 35.907C74.2209 35.7473 74.3622 35.5857 74.5002 35.4209C74.0203 35.7 73.5582 36.0089 73.1167 36.3457ZM72.2981 37.0272C71.9084 37.3753 71.5393 37.7458 71.1927 38.137C71.378 38.0854 71.5627 38.0351 71.7448 37.9898C72.0464 37.7818 72.3614 37.5692 72.688 37.3784C72.8976 37.1789 73.0957 36.9768 73.2848 36.7799C72.951 36.8427 72.6211 36.925 72.2969 37.0266L72.2981 37.0272ZM70.1313 38.4927C70.5669 38.0635 71.0346 37.6681 71.5301 37.3099C71.3626 37.3865 71.1978 37.4643 71.0355 37.5434C70.8335 37.7019 70.6271 37.8566 70.4156 38.0024C70.2501 38.1935 70.0853 38.3833 69.9236 38.5763L70.1313 38.4927ZM72.2578 36.0326C71.7805 36.5003 71.3211 36.9833 70.8744 37.4791L70.9735 37.4277C72.5416 36.2029 73.8515 34.6543 75.5526 33.5982L75.5245 33.6066C74.2368 34.0671 73.2042 35.1076 72.2553 36.0378L72.2578 36.0326ZM78.9925 33.8108C77.529 34.0527 76.1156 34.5378 74.8107 35.2461C74.6542 35.4353 74.4976 35.6213 74.3366 35.8098C76.2915 35.0798 78.4024 34.8769 80.4579 35.2215C80.4656 35.2253 80.4707 35.2278 80.4771 35.231C80.2786 34.7725 79.9474 34.3845 79.5261 34.1169C79.3542 34.0048 79.1751 33.9043 78.99 33.8159L78.9925 33.8108ZM80.502 35.2995C80.4982 35.3139 80.4892 35.3264 80.4766 35.3344C80.464 35.3424 80.4489 35.3453 80.4343 35.3425C78.3258 34.9876 76.1595 35.2159 74.1685 36.0028C73.9941 36.1991 73.8152 36.3915 73.6344 36.5814C75.7368 36.2663 77.9459 36.6365 80.0362 37.2386C80.2979 36.9994 80.482 36.6872 80.5646 36.3423C80.6471 35.9975 80.6245 35.6359 80.4994 35.3046L80.502 35.2995ZM72.4337 37.8501C73.3208 37.7217 74.2192 37.692 75.1125 37.7616C76.4768 37.8386 77.9843 38.3038 79.2911 37.728C79.5191 37.6285 79.7319 37.4969 79.9231 37.3375C77.8181 36.7392 75.5936 36.3805 73.4829 36.7379C73.3404 36.8828 73.1953 37.0265 73.0497 37.1619C73.4241 36.9512 73.8281 36.7981 74.2478 36.708C75.3521 36.5001 76.526 37.295 77.3875 37.8718C77.4546 37.9164 77.3964 38.0362 77.3306 37.9858C76.2039 37.2305 75.0147 36.5111 73.6465 37.0787C73.2456 37.2502 72.8581 37.4518 72.4873 37.6816C72.4126 37.7484 72.3346 37.8151 72.2547 37.8857C72.3116 37.8804 72.3691 37.8643 72.4311 37.8552L72.4337 37.8501Z" fill="#C3937C"/>
<path d="M63.8278 25.3186C64.8017 24.8441 65.913 24.9773 66.8153 25.5392C68.1049 26.3422 68.613 27.5828 68.8911 29.0192C69.6108 32.6967 67.6913 36.1177 66.3821 39.4284C66.3786 39.4373 66.3743 39.4459 66.3693 39.4541C66.4767 40.2245 66.8518 40.2115 66.9439 40.9807C66.9778 41.2648 66.2551 42.0773 66.2186 41.7952C65.7296 37.6966 65.0693 33.8358 62.9807 30.2279C61.9959 28.5288 61.7037 26.3461 63.8278 25.3186ZM66.7253 25.9984C67.4206 28.0636 67.1971 30.2691 67.1186 32.4142C67.0745 33.6387 67.2248 35.197 66.8791 36.5016C66.8493 36.8131 66.8015 37.1226 66.736 37.4287C66.7935 37.2974 66.8472 37.1737 66.9022 37.0443C67.2319 35.823 67.2573 34.5012 67.4765 33.2647C67.7333 31.8182 68.0815 30.3901 68.431 28.9626C68.1977 27.795 67.7036 26.6638 66.724 26.0009L66.7253 25.9984ZM68.4923 29.2684C68.1301 30.7503 67.7755 32.2361 67.5283 33.7402C67.3813 34.6366 67.3251 35.559 67.1654 36.4395C68.0248 34.3958 68.7756 32.2819 68.5946 30.0875C68.5723 29.8187 68.5384 29.5442 68.4923 29.2684ZM66.4607 38.0835C66.5418 37.7607 66.6127 37.436 66.6664 37.1108C66.6459 37.1518 66.6248 37.1941 66.6025 37.2389C66.5827 37.5024 66.4961 37.7567 66.3507 37.9775C66.3418 37.9954 66.3335 38.0121 66.3252 38.0287C66.3204 38.0387 66.3127 38.047 66.3031 38.0525C66.2935 38.0581 66.2825 38.0605 66.2715 38.0596C66.2602 38.0714 66.2483 38.0825 66.2357 38.0929C66.2197 38.1698 66.2025 38.246 66.1859 38.3209C66.2006 38.4131 66.2166 38.5058 66.2306 38.5993C66.3143 38.4282 66.3872 38.2565 66.4607 38.0835ZM66.1482 37.9389L66.1514 37.9325C66.1507 37.9348 66.1496 37.937 66.1482 37.9389ZM66.2146 37.652C66.281 37.3331 66.3449 37.0065 66.405 36.6748C66.3663 36.4118 66.301 36.1536 66.21 35.904C66.1213 36.1638 66.0187 36.4187 65.9027 36.6676C65.979 37.0395 66.0487 37.413 66.1117 37.7879C66.1456 37.7488 66.1795 37.7033 66.2127 37.6558L66.2146 37.652ZM66.1391 35.7134C65.9018 35.1523 65.6085 34.6169 65.2635 34.1151C65.5 34.8827 65.695 35.6631 65.8554 36.4488C65.9623 36.2101 66.0564 35.9659 66.1372 35.7172L66.1391 35.7134ZM64.9529 33.1762C65.0143 33.3444 65.0654 33.5139 65.1217 33.6828C65.541 34.2607 65.9013 34.8794 66.1972 35.5295C66.31 35.1508 66.3921 34.7636 66.4426 34.3717C66.3978 34.2662 66.3467 34.1639 66.2918 34.0565C65.7274 33.0087 64.9311 32.074 64.069 31.2362C64.4111 31.8611 64.7059 32.5108 64.951 33.18L64.9529 33.1762ZM66.2727 35.7111C66.3514 35.9101 66.4159 36.1144 66.4657 36.3226C66.4816 36.2266 66.4976 36.1305 66.5155 36.0275C66.5666 35.4481 66.5947 34.9468 66.5921 34.8848C66.5896 34.8227 66.5864 34.8067 66.5845 34.7689C66.5825 34.7312 66.5538 34.664 66.5359 34.6135C66.4755 34.9868 66.3868 35.355 66.2707 35.715L66.2727 35.7111ZM66.7098 35.5739C66.7021 35.7621 66.6919 35.9522 66.6746 36.1404C66.6574 36.3286 66.6593 36.568 66.6542 36.8215C66.6868 36.7305 66.7181 36.6389 66.7449 36.5467C66.7798 36.1838 66.7753 35.8184 66.7315 35.4567C66.72 35.4957 66.7136 35.5374 66.7078 35.5777L66.7098 35.5739ZM63.3526 29.9813C63.5245 30.2766 63.6952 30.5745 63.8639 30.8763C64.8774 31.8104 65.8802 32.9136 66.4694 34.1387C66.4758 34.0779 66.4796 34.0158 66.4841 33.9556C66.3453 33.2363 66.0998 32.5421 65.7555 31.8962C64.9279 30.3138 63.7973 28.8621 62.6751 27.4801C62.624 27.4162 62.7301 27.3475 62.7806 27.4095C64.214 29.1626 65.9095 31.1681 66.5058 33.4096C66.5044 30.807 65.1751 28.3105 63.4259 26.2559C63.3735 26.1946 63.4809 26.1233 63.5307 26.1865C65.4134 28.4054 66.8009 31.1085 66.617 33.9163C66.6584 34.1563 66.6874 34.3983 66.704 34.6413C67.0533 31.38 66.7554 27.9191 64.5199 25.6557C64.4624 25.5982 64.5442 25.5078 64.6036 25.5614C66.9516 27.9385 67.1978 31.596 66.7909 34.9918C66.8577 35.2766 66.895 35.5676 66.9021 35.8602C67.1519 34.399 66.9889 32.7031 67.0348 31.4683C67.105 29.5832 67.2135 27.7171 66.5751 25.9123C66.5751 25.9123 66.5795 25.9033 66.5821 25.8982C66.439 25.8124 66.2894 25.7378 66.1348 25.6751C65.5739 25.4405 64.9477 25.4128 64.3674 25.5969C63.7871 25.781 63.2903 26.1649 62.9652 26.6807C62.2438 27.8523 62.7353 28.9214 63.3507 29.9851L63.3526 29.9813Z" fill="#C3937C"/>
<path d="M71.5303 31.3368C73.2377 29.231 75.1873 27.2924 77.1158 25.3897C78.4743 24.0477 81.2937 22.1923 82.5565 24.7421C83.5957 26.8507 81.6493 28.9302 79.6734 29.3851C77.5857 29.8724 75.2884 29.439 73.2454 30.1149C73.2181 30.1232 73.1895 30.1263 73.1611 30.1241C72.7176 30.6166 71.7246 32.2689 71.3074 32.7825C71.1214 33.0051 71.3508 31.5593 71.5303 31.3368ZM75.9241 27.2133C75.4404 27.7098 74.9503 28.2063 74.4717 28.7085C74.6891 28.5886 74.925 28.5061 75.1695 28.4644C75.2302 28.4099 75.2909 28.3553 75.3529 28.3014C75.8964 27.6706 76.4952 27.0899 77.1421 26.5661C77.6188 25.9781 78.0622 25.3607 78.5051 24.7414C78.3339 24.8593 78.1702 24.9877 78.0149 25.1259C77.2916 25.7861 76.6142 26.5141 75.9241 27.2133ZM74.3931 29.4134L74.496 29.3991C74.5254 29.3594 74.5541 29.3177 74.5816 29.2818C74.5762 29.2729 74.5734 29.2627 74.5735 29.2523C74.5737 29.2419 74.5767 29.2317 74.5823 29.2229C74.5726 29.2307 74.5626 29.238 74.5522 29.2447C74.5043 29.2993 74.4513 29.3576 74.3969 29.4154L74.3931 29.4134ZM79.5456 28.8733C78.6989 28.4752 77.5499 27.9855 76.599 28.2731C76.426 28.3277 76.258 28.397 76.0967 28.4803C76.651 28.5896 77.1704 28.8315 77.6106 29.1855C78.2625 29.1306 78.9093 29.0263 79.5456 28.8733ZM75.6769 28.5574C75.594 28.5551 75.511 28.557 75.4283 28.5631C75.3561 28.6247 75.2845 28.6882 75.2104 28.7472C75.1056 28.855 75.0085 28.9506 74.9101 29.0551C74.8673 29.1122 74.8219 29.1712 74.7816 29.2231C75.0511 28.9987 75.3331 28.7899 75.6264 28.5978C75.6456 28.5818 75.6616 28.5689 75.6782 28.5548L75.6769 28.5574ZM76.2424 27.6056C76.3715 27.4684 76.4986 27.3286 76.6251 27.1868C76.4126 27.3785 76.2072 27.5769 76.0092 27.7822C76.0865 27.7199 76.1612 27.666 76.2437 27.6031L76.2424 27.6056ZM78.7888 24.5661C78.3881 25.136 77.983 25.7021 77.5581 26.2503C78.7533 25.3615 80.0824 24.6699 81.4951 24.2016C80.7467 23.7629 79.6713 24.038 78.7901 24.5635L78.7888 24.5661ZM81.6299 24.2897C80.0316 24.8072 78.5404 25.6125 77.2296 26.6657C77.0577 26.8793 76.8795 27.0896 76.6974 27.2948C78.3784 26.208 80.3003 25.5525 82.2926 25.3866C82.2072 24.9537 81.9732 24.5647 81.6312 24.2871L81.6299 24.2897ZM82.331 25.5465L82.3221 25.51C80.4079 25.6676 78.5582 26.2816 76.9274 27.3007C77.1971 27.1581 77.4771 27.0361 77.7652 26.9359C79.2209 26.4392 80.8657 26.4369 82.3873 26.3074C82.4 26.0516 82.3815 25.7952 82.3323 25.5439L82.331 25.5465ZM82.3809 26.4386C80.9872 26.555 79.5084 26.5794 78.1614 26.9479C77.3317 27.1856 76.5592 27.5912 75.8916 28.1396C75.7893 28.239 75.6845 28.3372 75.5842 28.436C75.6666 28.4355 75.7489 28.4392 75.8309 28.447C76.4482 27.9867 77.1294 27.6062 77.8579 27.4574C79.0784 27.2083 80.5245 27.5949 81.7285 27.8047C82.1009 27.4395 82.331 26.9531 82.377 26.4335L82.3809 26.4386ZM81.6052 27.9081C80.4817 27.7096 79.1858 27.4058 78.0668 27.5632C77.4869 27.6592 76.9324 27.8728 76.4373 28.1909C76.5637 28.1454 76.6937 28.1107 76.8258 28.087C77.7512 27.9307 78.8011 28.3821 79.6172 28.7682C79.6247 28.7712 79.6314 28.7758 79.6369 28.7817C79.6425 28.7876 79.6466 28.7946 79.6492 28.8023C79.6517 28.8099 79.6526 28.818 79.6517 28.8261C79.6508 28.8341 79.6482 28.8419 79.644 28.8488C80.3879 28.6532 81.0984 28.3579 81.6065 27.9055L81.6052 27.9081ZM77.4221 29.2019C76.9807 28.8703 76.463 28.6551 75.9165 28.576C75.8443 28.6184 75.7695 28.6628 75.6941 28.702C75.4296 28.9125 75.1753 29.1314 74.9388 29.3527C75.7274 29.2818 76.5307 29.2679 77.286 29.2093L77.4221 29.2019ZM73.9432 29.49C74.1251 29.3812 74.303 29.2666 74.4768 29.1463C74.6423 28.9712 74.8091 28.8 74.9886 28.6383C74.5226 28.7689 74.1147 29.0551 73.8327 29.4492C73.8254 29.4599 73.8143 29.4673 73.8016 29.47C73.789 29.4726 73.7759 29.4703 73.7649 29.4635L73.6934 29.5398C73.7777 29.5178 73.8614 29.5036 73.9445 29.4874L73.9432 29.49Z" fill="#C3937C"/>
<path d="M68.0833 15.9737C70.3864 16.3828 71.4806 19.1077 71.7414 21.1195C72.2311 24.8552 72.7986 25.6278 72.7495 27.1922C72.7405 27.4758 71.9935 28.5515 72.0018 28.2596C72.017 27.3501 71.9858 26.4405 71.9084 25.5343C71.8711 25.5168 71.8403 25.488 71.8202 25.452C70.3343 22.8182 66.7704 22.1533 65.535 19.366C64.7029 17.4886 65.9649 15.5976 68.0833 15.9737ZM68.1902 19.9714C68.585 20.2387 68.9608 20.533 69.315 20.8522C69.5962 21.1044 69.8563 21.3669 70.1215 21.6447C70.0537 21.3261 69.9962 21.003 69.9546 20.6767L69.9156 20.5756C69.2324 18.8413 68.4176 16.8589 66.3017 16.6728C66.1911 16.7612 66.094 16.8654 66.0135 16.9819C67.1523 17.6009 67.5326 18.8162 68.1506 19.894L68.1902 19.9714ZM71.2329 23.9446L71.1996 23.8609C71.0531 23.728 70.9131 23.5959 70.7798 23.4643C70.79 23.4886 70.7964 23.5142 70.8053 23.5378C70.9523 23.6687 71.0942 23.8035 71.2329 23.9446ZM71.7262 23.7618C71.5626 23.5522 71.3977 23.342 71.2303 23.1337C71.4092 23.5717 71.608 24.0052 71.8067 24.442C71.7825 24.2154 71.7556 23.9887 71.7262 23.7618ZM71.67 24.4442C71.4719 24.0254 71.2686 23.604 71.091 23.1666L71.4872 24.2219C71.5498 24.2947 71.6099 24.3694 71.67 24.4442ZM71.0903 23.5839L70.6276 22.4027C70.549 22.3107 70.4717 22.2194 70.3924 22.1255C70.4724 22.4835 70.5703 22.8373 70.6858 23.1854C70.8168 23.3228 70.9523 23.4543 71.0903 23.5839ZM70.4934 22.0638L70.2582 21.4665C70.2838 21.6073 70.3074 21.7487 70.3362 21.8894L70.4934 22.0638ZM70.1694 21.8847C69.6821 21.3414 69.1456 20.8446 68.5666 20.4007C68.5002 20.3515 68.4324 20.305 68.3641 20.2597C68.967 21.2386 69.6741 22.1491 70.473 22.9753C70.3554 22.6159 70.2542 22.2523 70.1694 21.8847ZM66.4576 16.5681C67.9428 16.7581 68.8605 17.8781 69.4842 19.1972C69.6242 19.4958 69.7584 19.7996 69.8901 20.1052C69.7782 18.9118 69.704 17.6779 68.8553 16.8195C68.0776 16.3853 67.1267 16.1768 66.4576 16.5681ZM69.2093 17.0504C69.6184 17.6064 69.8158 18.2825 69.9168 19.0145C69.9955 19.5897 70.0607 20.1503 70.1387 20.7044C70.3739 21.2761 70.5976 21.8549 70.8162 22.4343C70.7216 22.1512 70.6479 21.8615 70.5956 21.5675C70.3872 20.3851 70.5239 19.1988 70.1456 18.05C70.0689 17.9318 69.9896 17.8123 69.9027 17.7017C69.7055 17.451 69.4718 17.2315 69.2093 17.0504ZM70.3961 18.4758C70.5808 19.2863 70.5777 20.112 70.6518 20.9523C70.7147 21.5697 70.8596 22.1758 71.0826 22.7544C71.2903 23.0068 71.4936 23.2617 71.6949 23.5173L71.6565 23.223C71.4398 21.6412 71.1777 19.9104 70.3961 18.4758ZM69.1508 22.2793C68.8516 21.7985 68.4983 21.3539 68.0976 20.9541C67.5787 20.4586 66.9543 20.1392 66.3063 19.8546C66.6853 20.3481 67.1257 20.7908 67.6171 21.1721C68.1168 21.5653 68.6376 21.9226 69.1508 22.2793ZM66.1722 19.6564C67.6484 20.3028 68.543 21.1586 69.4128 22.4611C69.8263 22.7521 70.2359 23.0507 70.613 23.3699C70.5989 23.3341 70.5868 23.2977 70.5746 23.2612C69.8873 22.578 69.2642 21.8329 68.713 21.0353C68.5235 20.7519 68.3504 20.4578 68.1947 20.1544C67.3927 19.6761 66.3945 19.3673 65.7401 18.7306C65.8343 19.0602 65.9801 19.3727 66.1722 19.6564ZM65.7247 17.6732C65.6597 17.941 65.6497 18.2191 65.6954 18.4907C66.2309 19.1033 67.0732 19.2992 67.7563 19.6958C67.8598 19.757 67.9602 19.8215 68.0605 19.8859C67.5045 18.8086 66.9472 17.6379 65.9503 17.0992C65.8453 17.277 65.7671 17.4694 65.7183 17.67L65.7247 17.6732Z" fill="#C3937C"/>
<path d="M67.7737 8.76272C69.3124 7.76017 70.8417 9.37873 71.5728 10.5753C72.7046 12.431 73.1233 14.4398 73.4448 16.5635C73.45 16.5997 73.4454 16.6367 73.4314 16.6705C73.811 17.231 74.1025 17.8563 74.1191 18.5303C74.1255 18.8151 73.6623 19.6834 73.6565 19.3973C73.6238 18.1089 72.5431 16.17 71.7104 15.3308C70.6943 14.3057 69.5101 13.5761 68.4071 12.6741C67.3341 11.7951 66.1947 9.78841 67.7737 8.76272ZM68.3636 12.0604L68.5841 12.2583C69.273 12.6368 69.9415 13.0513 70.5869 13.5001C70.3434 13.1658 70.0999 12.8316 69.8609 12.498L69.6532 12.1913C68.9998 11.742 68.3118 11.3454 67.5955 11.0053C67.5907 11.003 67.5865 10.9998 67.5829 10.9958C67.5794 10.9919 67.5767 10.9873 67.575 10.9823C67.7598 11.3926 68.0289 11.7591 68.3649 12.0578L68.3636 12.0604ZM72.3169 15.3339L72.3233 15.3211C72.2383 15.1459 72.152 14.9701 72.0708 14.7936C71.7862 14.5557 71.4955 14.3248 71.1985 14.101C71.3576 14.3164 71.52 14.5285 71.6778 14.74C71.8921 14.9248 72.1034 15.1208 72.3118 15.3281L72.3169 15.3339ZM72.7527 15.0615C72.7433 15.0593 72.7346 15.0549 72.7271 15.0488C72.6287 14.9261 72.5271 14.8099 72.4191 14.6872C72.4229 14.7467 72.4242 14.8082 72.428 14.8677L72.4862 14.9847C72.5878 15.0721 72.6869 15.1615 72.7872 15.2516L72.7527 15.0615ZM68.2657 9.03367C69.1119 9.47626 69.8886 10.0408 70.5708 10.7094C70.227 9.92991 69.7208 9.28712 68.7277 8.9648C68.5697 8.96091 68.412 8.98221 68.2606 9.02792L68.2657 9.03367ZM68.1104 9.09866C67.8744 9.2167 67.689 9.41662 67.589 9.66115C69.1413 10.2191 70.3644 11.5074 71.3301 12.9665C71.2764 12.8085 71.2189 12.6519 71.1684 12.4907C71.0067 11.9764 70.8673 11.4685 70.6871 10.9978C69.9381 10.2235 69.0665 9.57863 68.1072 9.08906L68.1104 9.09866ZM71.8254 13.7591L71.957 13.9848C72.0625 14.0934 72.1602 14.1949 72.258 14.3029C72.1647 13.4147 71.9359 12.5581 71.3824 11.8053C71.268 11.6507 71.1421 11.4967 71.0092 11.344C71.2949 12.1409 71.5442 12.9533 71.8203 13.7534L71.8254 13.7591ZM72.2357 14.7638L72.1328 14.5668L72.2069 14.7382L72.2357 14.7638ZM72.1961 14.424L72.2759 14.5838C72.2747 14.5608 72.2715 14.5384 72.2689 14.5147C72.2446 14.4802 72.2197 14.447 72.1916 14.4169L72.1961 14.424ZM72.823 15.4518L72.6351 15.2845C72.7207 15.4617 72.8045 15.6362 72.8831 15.8082L72.823 15.4518ZM72.4396 15.1743L72.4421 15.2843C72.4786 15.3617 72.5131 15.4397 72.5508 15.5177C72.5555 15.5268 72.5579 15.537 72.5577 15.5472C72.5576 15.5575 72.555 15.5676 72.5501 15.5766C72.6108 15.6405 72.669 15.7063 72.7272 15.7721C72.6317 15.5709 72.5344 15.3693 72.4351 15.1672L72.4396 15.1743ZM70.8227 13.8273C70.2648 13.4259 69.6903 13.0482 69.0954 12.6988C69.7983 13.2765 70.5307 13.7985 71.2337 14.3698C71.0911 14.1819 70.9525 14.0024 70.8183 13.8202L70.8227 13.8273ZM70.9505 13.763C71.2905 14.0093 71.6237 14.2661 71.95 14.5333C71.8529 14.3121 71.7577 14.0902 71.6669 13.8657C71.1531 13.3518 70.601 12.8775 70.0156 12.4471C70.3217 12.8798 70.6323 13.3195 70.9461 13.7559L70.9505 13.763ZM71.5576 13.5856L71.5301 13.5159C70.528 11.8834 69.2243 10.3789 67.5411 9.77966C67.5232 9.81555 67.5187 9.86292 67.5085 9.90583C68.2415 10.1577 68.7463 10.6654 69.2186 11.3217C69.4065 11.585 69.5931 11.8509 69.7797 12.1167C70.408 12.5563 71.0005 13.0449 71.5519 13.5779L71.5576 13.5856ZM71.6777 11.6581C71.2514 10.8199 70.726 9.85072 69.924 9.33083C69.7051 9.19037 69.4646 9.0867 69.2121 9.0239C69.9022 9.3413 70.4441 9.91154 70.7267 10.6175C70.7842 10.7582 70.8386 10.8989 70.8929 11.0396C71.1023 11.2623 71.3003 11.4956 71.4859 11.7385C72.0975 12.5475 72.3193 13.495 72.4012 14.4703C72.5022 14.5878 72.6025 14.7066 72.7015 14.828C72.5053 13.7267 72.1593 12.6577 71.6732 11.6511L71.6777 11.6581ZM67.4529 10.3118C67.45 10.5281 67.49 10.7427 67.5705 10.9433C67.5694 10.9323 67.5713 10.9213 67.5759 10.9113C67.5804 10.9013 67.5876 10.8928 67.5966 10.8865C67.6056 10.8802 67.6161 10.8764 67.627 10.8756C67.6379 10.8747 67.6489 10.8768 67.6587 10.8816C68.2885 11.1834 68.8963 11.5292 69.4775 11.9164C68.949 11.1265 68.3936 10.3583 67.4785 10.0333C67.4634 10.1231 67.4534 10.2138 67.4485 10.3047L67.4529 10.3118Z" fill="#C3937C"/>
<path d="M75.534 19.4469C76.1091 18.3863 76.633 17.1147 77.4631 16.218C78.221 15.4054 80.3073 14.1686 81.3126 15.2571C82.4054 16.4516 81.3888 18.6729 80.1798 19.3439C78.572 20.2352 76.6166 20.3451 75.0338 21.3657C75.0338 21.3657 75.0203 21.3702 75.0139 21.3734C74.6855 22.0097 74.3584 22.6563 74.0497 23.3073C73.922 23.5636 73.504 22.856 73.6292 22.5984C74.2139 21.3617 74.8772 20.6556 75.534 19.4469ZM75.644 20.4778C75.8144 20.3494 75.9842 20.2149 76.1533 20.0741C76.2415 19.8973 76.3296 19.7204 76.4178 19.5435C76.245 19.6452 76.0806 19.7607 75.9264 19.889C75.8255 20.0808 75.7313 20.2771 75.644 20.4778ZM75.9993 20.3606L76.0121 20.3541L76.0159 20.3464C76.0159 20.3464 76.0044 20.3567 75.9993 20.3606ZM76.2574 19.3244C76.1961 19.4186 76.1398 19.5154 76.0836 19.6121C76.225 19.512 76.3727 19.421 76.5258 19.3398C76.6121 19.1668 76.6983 18.9937 76.7929 18.8329C76.6026 18.9833 76.4236 19.1476 76.2574 19.3244ZM76.9379 18.5676C77.0236 18.415 77.1111 18.2619 77.1999 18.1126C76.9884 18.3384 76.7896 18.5758 76.6044 18.8237C76.7134 18.733 76.8246 18.6476 76.9379 18.5676ZM76.7175 19.2433C76.9494 19.1337 77.1881 19.0389 77.4319 18.9595C77.8709 18.5655 78.3118 18.1741 78.7675 17.8044C78.1504 17.9997 77.5658 18.2864 77.0332 18.655C76.9258 18.8479 76.8197 19.0447 76.7175 19.2433ZM76.6229 19.433C76.5501 19.5791 76.4772 19.7252 76.4044 19.8713C76.676 19.6467 76.9348 19.4125 77.1968 19.1783C76.9975 19.2494 76.8028 19.333 76.614 19.4285L76.6229 19.433ZM78.5744 15.8712C77.6331 16.4788 77.1487 17.4502 76.6197 18.3993C76.458 18.6883 76.2989 18.9786 76.1398 19.2689C76.1425 19.2623 76.1457 19.2558 76.1494 19.2497C76.5291 18.6539 76.9835 18.1093 77.5015 17.6293C78.0907 16.7421 78.7987 15.9526 79.7534 15.3789C79.3322 15.4663 78.9313 15.6329 78.5718 15.8699L78.5744 15.8712ZM80.0058 15.3496C80.0068 15.3591 80.0051 15.3688 80.0008 15.3775C79.9965 15.3861 79.9898 15.3933 79.9815 15.3983C79.1617 15.8723 78.4536 16.5182 77.906 17.2917C78.8147 16.5503 79.8684 16.0082 80.9988 15.7007C80.8718 15.5684 80.7157 15.4677 80.5429 15.4066C80.37 15.3454 80.1853 15.3254 80.0032 15.3483L80.0058 15.3496ZM81.2097 16.033C81.1735 15.9536 81.1295 15.878 81.0781 15.8074C79.7798 16.1521 78.5849 16.8101 77.598 17.7238C77.4504 17.9462 77.3105 18.1757 77.175 18.4089C77.7532 18.0498 78.3796 17.7753 79.0352 17.5939C79.7098 17.0527 80.4556 16.6072 81.2513 16.2698C81.2635 16.2652 81.2771 16.2657 81.289 16.271C81.2696 16.1888 81.2422 16.1086 81.2072 16.0318L81.2097 16.033ZM81.3088 16.3721C81.305 16.3798 81.3018 16.3862 81.2903 16.39C80.6002 16.6786 79.9489 17.0527 79.3515 17.5036C79.9791 17.3509 80.6175 17.2476 81.2609 17.1947C81.3358 16.9265 81.3512 16.6453 81.3063 16.3708L81.3088 16.3721ZM81.2175 17.3298C80.4978 17.3904 79.785 17.5171 79.0882 17.7083C78.6166 18.0749 78.1642 18.4701 77.7112 18.8699C78.6429 18.6016 79.6474 18.4752 80.5261 18.2972C80.5373 18.2949 80.5488 18.2955 80.5597 18.2988C80.5706 18.3021 80.5805 18.3081 80.5885 18.3162C80.5965 18.3244 80.6023 18.3343 80.6055 18.3453C80.6086 18.3562 80.609 18.3678 80.6066 18.379C80.8745 18.0708 81.081 17.7143 81.2149 17.3285L81.2175 17.3298ZM78.3221 19.5169C78.8103 19.3539 79.365 19.2368 79.8289 19.0169C80.1175 18.8676 80.3738 18.6626 80.583 18.4136L80.5785 18.4225C79.6251 18.616 78.5036 18.7433 77.5029 19.0733C77.0945 19.4409 76.6849 19.8079 76.2632 20.1577L76.1993 20.2859C76.8882 19.9861 77.6141 19.7496 78.3247 19.5182L78.3221 19.5169ZM75.4414 20.6313C75.4964 20.4987 75.5539 20.3673 75.6152 20.2379C75.5456 20.3776 75.4663 20.5141 75.3929 20.6519L75.4414 20.6313Z" fill="#C3937C"/>
<path d="M74.8499 13.9822C75.039 12.2043 75.8569 10.4423 76.8422 8.97183C77.4607 8.05132 78.6083 6.49212 79.8941 6.52833C81.6367 6.57952 81.4656 8.78238 80.7103 9.76592C79.9901 10.7014 78.8553 11.2748 77.8942 11.9189C77.1963 12.3666 76.5424 12.8796 75.9414 13.4511C75.9184 13.4972 75.9043 13.5478 75.8883 13.5959C75.8723 13.6439 75.8187 13.6364 75.7899 13.6044C75.3311 14.0861 74.9989 15.5462 74.7062 16.1844C74.5874 16.4452 74.1292 15.3286 74.2474 15.0691C74.4149 14.7043 74.6185 14.3571 74.855 14.0328C74.8514 14.0162 74.8497 13.9992 74.8499 13.9822ZM80.2814 7.24947C78.6019 8.64983 77.2618 10.4139 76.3624 12.4081C77.1071 11.5493 77.9604 10.7913 78.9006 10.1533C79.5541 9.33834 80.1254 8.46057 80.606 7.53294C80.5195 7.42107 80.4112 7.32791 80.2878 7.25905L80.2814 7.24947ZM76.0359 12.7494L76.0992 12.6929C76.1388 12.6135 76.1694 12.5295 76.2059 12.4501C76.1496 12.5565 76.0934 12.6564 76.0372 12.7564L76.0359 12.7494ZM80.158 7.18957C79.9959 7.12676 79.8225 7.09859 79.6487 7.10686C79.1788 7.75906 78.7228 8.4187 78.2806 9.08578C78.8493 8.40116 79.478 7.7689 80.1593 7.19661L80.158 7.18957ZM76.7363 12.1833C76.9224 12.0446 77.1124 11.9079 77.3063 11.773C77.3625 11.7339 77.4206 11.6972 77.4788 11.6574C77.7855 11.3623 78.1005 11.0698 78.3887 10.751C78.4526 10.6804 78.514 10.6086 78.576 10.5387C77.9121 11.0294 77.2965 11.5825 76.7375 12.1903L76.7363 12.1833ZM75.4531 13.3037C75.4472 13.2956 75.4438 13.2861 75.4431 13.2761C75.4424 13.2661 75.4446 13.2562 75.4493 13.2474C76.4512 11.3723 77.4535 9.49746 78.4563 7.62282C77.9176 8.0631 77.4556 8.72403 77.0799 9.35277C76.6251 10.5497 76.1024 11.7199 75.5145 12.8574C75.4704 13.0259 75.4314 13.1937 75.3963 13.3633C75.4142 13.3563 75.432 13.3364 75.4518 13.3159L75.4531 13.3037ZM75.7279 12.1606C76.0499 11.5018 76.3508 10.8332 76.6307 10.1545C76.5924 10.2314 76.556 10.3044 76.5208 10.3749C76.2111 10.9554 75.9448 11.5581 75.724 12.1778L75.7279 12.1606ZM78.6972 7.43731L75.694 13.0574L75.7464 13.0067C76.8781 10.9708 78.1262 9.00186 79.4845 7.10978C79.3757 7.12636 79.2687 7.15339 79.165 7.1905C78.9977 7.25915 78.8394 7.34783 78.6934 7.45461L78.6972 7.43731ZM80.8214 8.56362C80.8966 8.24899 80.851 7.91778 80.6936 7.63579C80.2762 8.43475 79.7925 9.19721 79.2475 9.91509C79.6693 9.64532 80.1179 9.38894 80.5895 9.14403C80.6942 8.96927 80.7712 8.77928 80.8176 8.58091L80.8214 8.56362ZM79.4885 10.2992C79.8545 10.0343 80.1802 9.71752 80.4553 9.35875C79.9536 9.62274 79.4668 9.91421 78.9971 10.2318C78.9312 10.3126 78.8654 10.3934 78.7983 10.4736C78.553 10.7609 78.291 11.0303 78.0232 11.292C78.5159 10.992 79.0169 10.6754 79.4846 10.3165L79.4885 10.2992Z" fill="#C3937C"/>
<path d="M74.197 5.86883C74.1005 4.31495 75.2357 -1.56278 77.9811 0.394891C79.0413 1.14911 78.4189 2.42296 77.732 3.17656C76.5077 4.52149 74.2219 5.61723 74.0578 7.66518C74.0355 7.95006 73.6022 7.86204 73.6213 7.58037C73.6823 7.00234 73.89 6.44924 74.2245 5.97373C74.2068 5.9416 74.1974 5.90555 74.197 5.86883ZM76.1727 0.990954C75.5919 2.15589 75.0609 3.33287 74.8603 4.61858C74.9753 4.48154 75.0975 4.35073 75.2264 4.22669C75.3561 4.00494 75.4807 3.78064 75.6079 3.55761C75.6079 3.55761 75.6041 3.5429 75.6085 3.53393C76.0485 2.69365 76.3152 1.77354 76.3925 0.828537C76.3158 0.879912 76.2423 0.934474 76.1727 0.990954ZM74.9063 4.75993C74.8788 4.79584 74.8526 4.83237 74.8264 4.86892L74.8213 4.90158L74.9063 4.75993ZM74.6232 5.23165C74.652 5.17398 74.6891 5.12205 74.7229 5.06693C74.7138 5.06401 74.7052 5.05971 74.6973 5.05418C74.6769 5.09519 74.6481 5.13046 74.6219 5.17661L74.6232 5.23165ZM74.6334 4.91671C74.652 4.87954 74.6826 4.85004 74.7069 4.81734C74.8666 3.53684 75.3586 2.37723 75.9171 1.22515C75.8579 1.2865 75.8022 1.35115 75.7503 1.41881C75.0244 2.3978 74.6915 3.68316 74.6328 4.91799L74.6334 4.91671ZM76.5261 0.739904C76.4835 1.35668 76.3618 1.96556 76.1638 2.55147C76.5299 1.87474 76.8827 1.19294 77.2213 0.500911C76.9731 0.525364 76.7341 0.608599 76.5241 0.743752L76.5261 0.739904ZM77.3593 0.505723C76.8098 1.63666 76.2194 2.744 75.5958 3.83478C75.6092 3.80787 75.6322 3.78734 75.652 3.76361C76.4079 2.846 77.4003 2.19669 78.0227 1.16608C78.0112 1.10872 77.9943 1.05261 77.9722 0.998494C77.9236 0.868795 77.8408 0.754823 77.7325 0.668714C77.6242 0.582605 77.4946 0.527603 77.3574 0.509572L77.3593 0.505723ZM78.0489 1.36317C77.5748 2.08686 76.9339 2.61377 76.3236 3.22319C76.1843 3.36175 76.0552 3.50542 75.9274 3.65292C76.4783 3.2555 77.0821 2.91492 77.6476 2.56803C77.8719 2.22702 78.0662 1.77662 78.047 1.36702L78.0489 1.36317ZM76.4284 3.7363C76.774 3.47252 77.1005 3.18452 77.4055 2.87451L77.4285 2.84758C76.7775 3.21127 76.1561 3.62593 75.5702 4.08767C75.2916 4.45649 75.0351 4.84156 74.8022 5.24085C75.305 4.70021 75.848 4.19854 76.4265 3.74015L76.4284 3.7363Z" fill="#C3937C"/>
<path d="M66.9861 3.79688C67.6961 3.04835 68.9448 3.21328 69.7621 3.65121C71.4543 4.55573 72.0506 6.6116 72.8783 8.20355C73.2489 8.51786 73.5954 8.85964 73.9148 9.22601C74.0995 9.43811 73.803 9.77032 73.6183 9.55823C73.3013 9.19392 72.9567 8.85465 72.5875 8.54343C72.576 8.5349 72.5653 8.52528 72.5555 8.5147C71.911 7.9793 71.2045 7.52336 70.4512 7.15664C69.5309 6.69782 68.4969 6.40311 67.6553 5.80266C66.9696 5.32157 66.2551 4.5685 66.9861 3.79688ZM67.4776 5.20204C68.5947 5.56697 69.5571 6.25163 70.6237 6.73701C70.6313 6.74083 70.6352 6.74273 70.6416 6.74592L70.648 6.74911C70.7336 6.79181 70.8179 6.83386 70.9036 6.87656C69.7827 5.99766 68.6189 5.20782 67.2303 4.82749C67.2902 4.96593 67.3739 5.09272 67.4776 5.20204ZM71.5599 7.2566C71.7363 7.36375 71.9069 7.47602 72.0769 7.59277C72.0277 7.54744 71.9791 7.50402 71.9318 7.45804C71.9224 7.45771 71.9133 7.45536 71.9049 7.45118C71.8965 7.44701 71.8891 7.4411 71.8832 7.43382L71.804 7.33031C71.2723 6.79638 70.8058 6.20855 70.2466 5.70413C69.3887 4.93224 68.3044 4.45893 67.1549 4.35465C67.1334 4.46706 67.1391 4.58293 67.1715 4.69256C68.8631 5.13431 70.2274 6.16822 71.5663 7.25979L71.5599 7.2566ZM71.5867 6.54029C70.4543 5.53084 69.6439 4.35554 68.2661 3.739C68.15 3.74815 68.0347 3.76552 67.9211 3.79097C69.6152 4.45162 70.7885 5.8175 71.8986 7.24305L71.9574 7.30116C71.8385 7.04667 71.719 6.79347 71.5931 6.54348L71.5867 6.54029ZM67.7153 3.84519C67.5023 3.90384 67.3195 4.04159 67.2041 4.23036C68.1519 4.31903 69.06 4.65271 69.8395 5.19873C70.044 5.34905 70.2387 5.51239 70.4223 5.68774C69.6548 4.90023 68.8023 4.23194 67.7217 3.84837L67.7153 3.84519ZM68.7447 3.75203L68.6828 3.74513C69.7557 4.36491 70.5015 5.34 71.4205 6.21423C71.2021 5.79704 70.9454 5.40119 70.6536 5.03179C70.1743 4.42478 69.5436 3.88468 68.7511 3.75522L68.7447 3.75203ZM69.4945 6.29721C68.9229 5.96024 68.3284 5.66382 67.7154 5.41016C68.1889 5.78227 68.874 6.06304 69.5009 6.3004L69.4945 6.29721Z" fill="#C3937C"/>
</svg>
