<svg width="19" height="17" viewBox="0 0 19 17" fill="none" xmlns="http://www.w3.org/2000/svg">
<path d="M6.5 4.5C6.5 6.15685 7.84315 7.5 9.5 7.5C11.1569 7.5 12.5 6.15685 12.5 4.5M0.5 13.3002V3.7002C0.5 2.58009 0.5 2.01962 0.717987 1.5918C0.909734 1.21547 1.21547 0.909734 1.5918 0.717987C2.01962 0.5 2.58009 0.5 3.7002 0.5H15.3002C16.4203 0.5 16.9796 0.5 17.4074 0.717987C17.7837 0.909734 18.0905 1.21547 18.2822 1.5918C18.5 2.0192 18.5 2.57899 18.5 3.69691V13.3036C18.5 14.4215 18.5 14.9805 18.2822 15.4079C18.0905 15.7842 17.7837 16.0905 17.4074 16.2822C16.98 16.5 16.421 16.5 15.3031 16.5H3.69691C2.57899 16.5 2.0192 16.5 1.5918 16.2822C1.21547 16.0905 0.909734 15.7842 0.717987 15.4079C0.5 14.9801 0.5 14.4203 0.5 13.3002Z" stroke="#C3937C" stroke-linecap="round" stroke-linejoin="round"/>
</svg>
