<svg width="90" height="86" viewBox="0 0 90 86" fill="none" xmlns="http://www.w3.org/2000/svg">
<path d="M18.0051 84.0369C19.0468 82.9191 20.0278 81.7462 20.9437 80.5232L20.9437 86L22.2427 84.701L22.2427 78.7038C23.1113 77.4151 23.9078 76.0792 24.6286 74.7023C24.6709 74.6897 24.7102 74.6686 24.744 74.6402C24.7779 74.6119 24.8056 74.5769 24.8254 74.5375C24.8453 74.4981 24.8569 74.4551 24.8595 74.411C24.8622 74.3669 24.8558 74.3228 24.8408 74.2813C25.6122 72.7693 26.2923 71.2125 26.8775 69.6192C27.6055 69.4397 28.3163 69.1963 29.0015 68.8917C32.3167 70.2558 35.2964 67.8135 36.0923 64.5976C36.1037 64.5536 36.1025 64.5074 36.0888 64.4641C36.438 64.3922 36.2959 63.8599 35.9434 63.925C34.2575 64.2724 32.7942 63.7983 31.247 64.7944C29.9308 65.6382 29.1607 66.9766 28.6763 68.4228C28.1574 68.6504 27.6233 68.8414 27.0778 68.9944C27.7376 67.1041 28.2621 65.1692 28.6472 63.2044C28.7203 63.1951 28.7895 63.1661 28.8474 63.1206L32.0737 60.466C32.3597 60.7459 32.7385 60.9113 33.1383 60.9308C33.5381 60.9503 33.9311 60.8226 34.2431 60.5718C34.5551 60.321 34.7643 59.9646 34.8312 59.57C34.8981 59.1753 34.818 58.7699 34.6061 58.4303C34.3942 58.0907 34.0652 57.8406 33.6813 57.7273C33.2974 57.6139 32.8853 57.6452 32.523 57.8153C32.1606 57.9853 31.8732 58.2822 31.715 58.6499C31.5568 59.0176 31.5389 59.4305 31.6646 59.8105L28.8457 62.1262C29.0945 60.662 29.2659 59.1858 29.3592 57.7036C29.7236 57.6629 30.0633 57.4996 30.3226 57.2404C30.582 56.9812 30.7455 56.6416 30.7865 56.2772C30.8274 55.9129 30.7433 55.5454 30.5479 55.2352C30.3525 54.9249 30.0575 54.6903 29.7112 54.5698C29.3649 54.4492 28.988 54.45 28.6422 54.5719C28.2964 54.6938 28.0023 54.9296 27.8081 55.2406C27.614 55.5517 27.5313 55.9194 27.5737 56.2836C27.6161 56.6478 27.781 56.9868 28.0413 57.2449C28.1993 57.4015 28.3873 57.5243 28.5941 57.6061C28.5325 58.633 28.435 59.6582 28.2981 60.6714C27.5735 59.9879 26.8267 59.329 26.0577 58.6946C26.2422 58.345 26.2922 57.9399 26.1983 57.5559C26.1044 57.1719 25.873 56.8357 25.548 56.6107C25.223 56.3857 24.8268 56.2875 24.4344 56.3348C24.0419 56.3821 23.6804 56.5715 23.4181 56.8672C23.1558 57.1629 23.0109 57.5445 23.0109 57.9398C23.0108 58.3351 23.1556 58.7167 23.4178 59.0125C23.68 59.3084 24.0415 59.4979 24.4339 59.5452C24.8264 59.5926 25.2226 59.4946 25.5477 59.2697C26.4462 60.0108 27.3191 60.7809 28.156 61.5905C27.5148 65.6465 26.2747 69.5849 24.4763 73.2766C23.8262 71.4219 23.0772 69.6034 22.2325 67.8289L22.2308 55.4222C24.0661 52.1818 25.6114 48.7855 26.8484 45.2729C26.8842 45.2604 26.9173 45.2413 26.946 45.2165L28.7995 43.5751C28.8146 43.5849 28.8306 43.5929 28.8475 43.5991C31.9316 44.3248 34.1223 41.6856 34.1292 38.7829C34.1292 38.7829 34.1292 38.7829 34.1172 38.7709C34.1444 38.7257 34.1573 38.6732 34.1542 38.6205C34.1511 38.5678 34.132 38.5173 34.0996 38.4756C34.0672 38.4339 34.0229 38.403 33.9726 38.387C33.9222 38.371 33.8682 38.3706 33.8177 38.3858C32.4005 38.8993 30.6343 39.2861 29.4619 40.2839C28.536 41.0695 28.3751 42.1238 28.2981 43.2654L28.31 43.2773L27.2027 44.258C27.6534 42.8831 28.0459 41.4968 28.3802 40.0991C28.3975 40.0578 28.4068 40.0137 28.4076 39.969C28.5582 39.3391 28.694 38.707 28.8149 38.0726C28.8428 38.0517 28.8676 38.0269 28.8885 37.999C29.6922 36.947 30.5961 35.9754 31.5876 35.098C31.6218 35.1323 31.6543 35.1648 31.6903 35.2007C31.9773 35.4545 32.3461 35.5966 32.7292 35.6012C33.1123 35.6058 33.4844 35.4725 33.7774 35.2256C34.0705 34.9788 34.2651 34.6348 34.3257 34.2565C34.3863 33.8782 34.3089 33.4906 34.1076 33.1646C33.9063 32.8386 33.5945 32.5958 33.2291 32.4804C32.8637 32.3651 32.4691 32.3849 32.1171 32.5363C31.7651 32.6877 31.4792 32.9606 31.3117 33.3052C31.1441 33.6498 31.1059 34.0431 31.2042 34.4134C30.4509 35.0748 29.7441 35.7874 29.0888 36.546C29.2896 35.2726 29.4345 33.997 29.5235 32.719C29.5227 32.6948 29.5193 32.6707 29.5132 32.6471C29.8943 32.5922 30.2419 32.3993 30.4901 32.1049C30.7383 31.8106 30.8698 31.4354 30.8595 31.0505C30.8492 30.6656 30.698 30.2979 30.4345 30.0172C30.171 29.7365 29.8135 29.5623 29.4301 29.5278C29.0466 29.4933 28.6638 29.6008 28.3544 29.8299C28.045 30.059 27.8305 30.3938 27.7516 30.7706C27.6728 31.1475 27.7351 31.5402 27.9267 31.8741C28.1183 32.2081 28.4258 32.46 28.791 32.5821C28.7702 32.6251 28.7575 32.6715 28.7533 32.719C28.6202 34.6307 28.3594 36.5312 27.9729 38.4081C27.6562 37.4775 27.2558 36.5776 26.7765 35.7193L26.8022 35.6936C27.0659 35.4025 27.2144 35.0253 27.2199 34.6325C27.2254 34.2398 27.0876 33.8585 26.8322 33.5601C26.5768 33.2616 26.2214 33.0666 25.8325 33.0114C25.4436 32.9562 25.0479 33.0447 24.7196 33.2603C24.3912 33.4759 24.1528 33.8037 24.0488 34.1825C23.9448 34.5613 23.9825 34.965 24.1548 35.318C24.3271 35.6709 24.6222 35.949 24.9847 36.1001C25.3473 36.2511 25.7525 36.2649 26.1244 36.1386C26.7851 37.3364 27.2896 38.6139 27.6254 39.9399C27.1605 41.8821 26.5839 43.7959 25.8985 45.6717C25.1101 44.1634 24.2084 42.717 23.2012 41.345C23.191 41.3016 23.1723 41.2606 23.1462 41.2245C23.12 41.1883 23.0869 41.1578 23.0489 41.1345C22.7785 40.7614 22.5057 40.3906 22.2308 40.022L22.2308 18.2962L38.4576 18.2979C40.575 19.1259 42.7527 19.7908 44.9716 20.2867C43.7461 20.9165 42.5104 21.5292 41.2644 22.1248L37.5008 21.1749C37.5623 20.7975 37.4852 20.4107 37.284 20.0856C37.0827 19.7606 36.7707 19.5192 36.4055 19.406C36.0403 19.2928 35.6465 19.3153 35.2967 19.4695C34.9468 19.6237 34.6645 19.8991 34.5016 20.245C34.3388 20.591 34.3065 20.9841 34.4106 21.352C34.5147 21.7198 34.7482 22.0377 35.0682 22.247C35.3882 22.4563 35.773 22.5429 36.1517 22.4909C36.5305 22.4389 36.8778 22.2517 37.1294 21.9639C37.1517 21.9417 37.1637 21.9126 37.1842 21.8886L40.1537 22.64C39.7669 22.818 39.3818 23.0011 38.9864 23.1842C38.6496 22.9876 38.2528 22.9203 37.87 22.995C37.4872 23.0697 37.1447 23.2813 36.9066 23.5901C36.6684 23.8989 36.5509 24.2839 36.5759 24.6731C36.6009 25.0623 36.7668 25.4291 37.0426 25.7048C37.3184 25.9806 37.6851 26.1465 38.0743 26.1715C38.4635 26.1966 38.8485 26.079 39.1573 25.8409C39.4662 25.6027 39.6777 25.2602 39.7524 24.8774C39.8271 24.4947 39.7598 24.0978 39.5632 23.761C40.1634 23.4849 40.7624 23.2065 41.3603 22.9258C41.4216 22.9318 41.4835 22.9214 41.5395 22.8955C41.5955 22.8696 41.6435 22.8293 41.6786 22.7786C41.9576 22.6468 42.2314 22.5099 42.5087 22.373C42.3165 23.1322 42.047 23.8697 41.7043 24.574C41.3261 24.6488 40.9879 24.8585 40.7528 25.1641C40.5176 25.4696 40.4015 25.8502 40.426 26.235C40.4504 26.6198 40.6139 26.9825 40.8859 27.2558C41.1579 27.5291 41.5199 27.6942 41.9046 27.7205C42.2892 27.7468 42.6704 27.6324 42.977 27.3987C43.2836 27.1649 43.4949 26.8277 43.5715 26.4499C43.6481 26.072 43.5848 25.6792 43.3934 25.3445C43.202 25.0098 42.8955 24.756 42.531 24.6304C42.9104 23.7967 43.1968 22.9237 43.385 22.0273C43.3884 22.0011 43.3884 21.9747 43.385 21.9485C45.5358 20.8885 47.6569 19.7726 49.7484 18.6008C49.7061 19.0636 49.6311 19.5229 49.5242 19.9752C48.422 20.1018 47.2479 20.4373 46.7259 21.5207C46.5193 22.0383 46.4298 22.5954 46.464 23.1517C46.4452 24.5021 46.4298 25.5547 45.8393 26.7887C45.8215 26.8241 45.8116 26.8629 45.8104 26.9026C45.8092 26.9422 45.8168 26.9816 45.8325 27.018C45.8374 27.0548 45.8502 27.0901 45.8702 27.1213C45.8902 27.1526 45.9168 27.1791 45.9481 27.199C45.9794 27.2189 46.0147 27.2317 46.0515 27.2365C46.0883 27.2413 46.1257 27.238 46.1611 27.2268C48.4665 26.561 53.7362 22.2703 50.0736 20.059C50.2121 19.4841 50.3009 18.8983 50.3388 18.3082L62.494 18.3082C63.7517 19.3733 65.1209 20.2995 66.5777 21.0705C64.5931 22.2144 62.538 23.2314 60.4248 24.1153C58.8734 23.6425 57.294 23.267 55.6959 22.9909C55.7565 22.6128 55.6785 22.2257 55.4763 21.9006C55.2741 21.5755 54.9612 21.3344 54.5954 21.2218C54.2295 21.1091 53.8352 21.1325 53.4852 21.2875C53.1351 21.4425 52.8529 21.7188 52.6904 22.0654C52.5279 22.4121 52.4962 22.8058 52.601 23.174C52.7058 23.5422 52.9401 23.8602 53.2608 24.0693C53.5814 24.2784 53.9669 24.3646 54.3461 24.3121C54.7253 24.2595 55.0728 24.0717 55.3245 23.7833C55.3416 23.7613 55.3576 23.7384 55.3724 23.7148C56.6863 23.9365 57.9876 24.2268 59.2712 24.5843C58.246 24.9865 57.2106 25.3613 56.1563 25.7036C56.1563 25.7036 56.1443 25.7156 56.1392 25.7207C56.0488 25.493 55.9064 25.2896 55.7233 25.1268C55.4542 24.8867 55.1121 24.7443 54.7521 24.7228C54.3922 24.7012 54.0355 24.8017 53.7397 25.008C53.4439 25.2143 53.2264 25.5143 53.1223 25.8595C53.0182 26.2047 53.0335 26.575 53.1659 26.9104C53.2982 27.2459 53.5399 27.5268 53.8517 27.7079C54.1635 27.889 54.5273 27.9596 54.8843 27.9083C55.2412 27.857 55.5704 27.6868 55.8186 27.4252C56.0668 27.1637 56.2196 26.826 56.2521 26.4669C56.2873 26.4669 56.3223 26.4629 56.3565 26.4549C56.8312 26.2997 57.3018 26.1394 57.7685 25.974C57.4391 26.7122 57.0534 27.424 56.6149 28.1031C56.3133 28.0425 55.9999 28.092 55.7315 28.2425C55.4631 28.393 55.2576 28.6347 55.152 28.9237C55.0464 29.2127 55.0478 29.53 55.1559 29.8181C55.264 30.1062 55.4717 30.346 55.7414 30.4942C56.0111 30.6423 56.3249 30.689 56.6261 30.6258C56.9272 30.5625 57.1957 30.3935 57.383 30.1494C57.5703 29.9053 57.6641 29.6021 57.6472 29.2949C57.6303 28.9877 57.5039 28.6966 57.291 28.4745C57.8644 27.5806 58.3521 26.6345 58.7475 25.6488C58.7475 25.6488 58.7492 25.63 58.7526 25.6197C59.3425 25.3995 59.929 25.169 60.5121 24.9282C60.5567 24.9282 60.6008 24.9187 60.6415 24.9004C60.6822 24.8821 60.7186 24.8554 60.7483 24.8221C62.1699 24.2242 63.5625 23.5699 64.926 22.859C64.6195 23.377 64.3434 23.9125 64.0994 24.4627C64.0532 24.4604 64.0071 24.468 63.9642 24.485C62.3502 25.2021 60.8287 26.3026 60.4145 28.1237C59.9182 30.311 61.8659 31.8239 62.0524 33.8897C62.0781 34.2063 62.5385 34.2354 62.5933 33.9684C65.4652 31.6134 68.154 27.2884 64.8353 24.1957C65.1488 23.5547 65.505 22.9354 65.9016 22.3421C66.4253 22.0546 66.9422 21.7603 67.4556 21.4556C67.5372 21.459 67.618 21.4387 67.6881 21.397C67.7583 21.3554 67.8149 21.2943 67.851 21.2211C69.3457 20.322 70.7971 19.3522 72.2051 18.3116L73.0728 18.3098C73.0437 18.5614 73.0266 18.8113 73.0095 19.0578L73.0061 19.0817L72.9958 19.092C71.7515 19.946 70.6459 21.2263 70.8787 22.8419C71.1285 24.5911 72.8743 25.5974 73.4682 27.1943C73.4864 27.2391 73.5153 27.2789 73.5523 27.3101C73.5892 27.3414 73.6332 27.3633 73.6805 27.3739C73.7277 27.3845 73.7768 27.3835 73.8236 27.371C73.8704 27.3585 73.9135 27.3348 73.9491 27.3021C74.002 27.3124 74.0567 27.3063 74.1059 27.2846C74.1552 27.2628 74.1966 27.2265 74.2247 27.1806C75.1301 25.7789 75.9379 24.2419 75.7239 22.5185C75.6296 21.81 75.3879 21.1292 75.0144 20.5199C74.6409 19.9106 74.1439 19.3863 73.5555 18.9808C73.5657 18.7548 73.588 18.5272 73.6188 18.3047L79.645 18.303C80.5434 19.0458 81.494 19.7231 82.4895 20.3294C82.9174 20.5862 83.2957 19.9135 82.8712 19.6568C82.1845 19.2424 81.5211 18.7905 80.8841 18.303L88.6561 18.3047L89.9517 17.0091L79.289 17.0125C78.055 15.9223 76.91 14.7397 75.7804 13.5279C75.7988 13.493 75.8093 13.4544 75.8112 13.4149C75.8284 13.0555 75.8677 12.7012 75.9139 12.347C79.0203 11.5306 80.2868 7.02247 78.5017 4.51511C78.4794 4.47892 78.4489 4.44845 78.4127 4.42611C78.3959 4.37586 78.365 4.33145 78.3238 4.29813C78.2825 4.26483 78.2326 4.244 78.18 4.23807C78.1273 4.23214 78.0741 4.24133 78.0264 4.26464C77.9788 4.28795 77.9389 4.32439 77.9112 4.36964C77.064 5.87063 75.1335 6.55179 74.555 8.16745C74.1049 9.42883 74.6286 10.7262 75.2755 11.8044C75.2911 11.8326 75.3121 11.8575 75.3374 11.8775C75.3627 11.8974 75.3917 11.9122 75.4227 11.9208C75.3663 12.2751 75.3218 12.6345 75.2944 12.9973C74.6371 12.2853 73.9816 11.5716 73.3176 10.8665C72.0577 9.52628 70.7033 8.27822 69.2647 7.13198C69.2547 7.07774 69.2318 7.02669 69.198 6.98308C68.0935 5.42218 66.9399 3.89895 65.7373 2.41336C65.7675 2.38656 65.7961 2.35799 65.8229 2.32778C66.0435 2.08118 66.1694 1.76426 66.1781 1.4335C66.1869 1.10274 66.0779 0.779654 65.8706 0.521744C65.6633 0.26384 65.3712 0.0878669 65.0463 0.0252481C64.7214 -0.0373694 64.3849 0.017389 64.0966 0.179787C63.8083 0.342177 63.587 0.60168 63.4722 0.911995C63.3574 1.22232 63.3565 1.56331 63.4696 1.87424C63.5828 2.18516 63.8027 2.44582 64.0901 2.60976C64.3775 2.77369 64.7138 2.83025 65.039 2.76937C65.8149 3.73009 66.5708 4.70393 67.3068 5.69089C65.6851 4.58793 63.9624 3.64123 62.162 2.86348C62.2463 2.48786 62.1907 2.09437 62.0055 1.75686C61.8203 1.41935 61.5182 1.16106 61.1561 1.03043C60.7939 0.899806 60.3966 0.905822 60.0386 1.0474C59.6806 1.18897 59.3866 1.45633 59.2117 1.79931C59.0369 2.1423 58.9932 2.53734 59.0889 2.91023C59.1846 3.28312 59.4132 3.60823 59.7316 3.82457C60.0501 4.04091 60.4365 4.1336 60.8184 4.08522C61.2004 4.03684 61.5515 3.85071 61.806 3.56179L61.818 3.5498C63.3614 4.21709 64.8455 5.01408 66.2542 5.93222C65.3636 6.1526 64.453 6.28221 63.5363 6.31903C63.3035 6.00207 62.9632 5.78079 62.579 5.69668C62.1948 5.61257 61.7932 5.67137 61.4492 5.86205C61.1053 6.05274 60.8426 6.36225 60.7104 6.73263C60.5782 7.10303 60.5855 7.5089 60.731 7.87427C60.8765 8.23964 61.1502 8.53949 61.5008 8.71763C61.8514 8.89577 62.2549 8.93999 62.6358 8.84206C63.0167 8.74412 63.3488 8.51071 63.57 8.18554C63.7912 7.86037 63.8863 7.46576 63.8375 7.07553C64.9264 7.01498 66.0048 6.83007 67.0517 6.52442C67.0654 6.51804 67.0786 6.51056 67.0911 6.50215C69.0641 7.89872 70.9008 9.47862 72.5765 11.2208C72.1623 11.255 71.7464 11.2841 71.3305 11.303C71.3135 11.2792 71.2927 11.2583 71.2689 11.2413C71.2642 11.1986 71.2483 11.1578 71.2227 11.1233C70.4491 10.0827 69.0748 8.91708 67.6782 9.05058C67.0965 9.1413 66.551 9.39065 66.1018 9.77116C65.1605 10.4592 64.3989 11.0428 63.218 11.2653C62.8842 11.3286 63.0075 11.8181 63.3189 11.7976C64.5598 13.0213 66.1036 14.0413 67.9126 13.9951C68.6122 13.991 69.296 13.7872 69.8837 13.4076C70.4713 13.028 70.9382 12.4884 71.2295 11.8523C71.8457 11.8249 72.4618 11.7873 73.078 11.7325C73.2679 11.9225 73.4493 12.1245 73.6308 12.323C74.3051 13.0555 74.9726 13.7881 75.6503 14.5035C74.6731 15.3746 73.6735 16.2064 72.6449 17.0023L62.1004 17.0005C59.8754 15.1179 57.7514 13.0418 55.3501 11.4279C55.3594 11.3842 55.3577 11.3389 55.345 11.2961C55.0199 10.2491 54.6012 9.2335 54.0939 8.26159C54.1172 8.2453 54.1375 8.22501 54.1538 8.20167C54.9993 6.81193 55.2115 5.63443 54.2052 4.25495C52.966 2.55713 50.8831 1.34025 49.0039 0.508458C48.9492 0.483783 48.8881 0.476812 48.8293 0.488526C48.7704 0.500241 48.7167 0.530038 48.6756 0.573774C48.6345 0.617511 48.6081 0.673003 48.6 0.732478C48.592 0.791951 48.6028 0.852459 48.6308 0.905531C48.8225 2.74711 48.4682 4.58016 49.4762 6.24546C49.9205 6.97215 50.5246 7.58797 51.2426 8.04618C51.9606 8.50437 52.7736 8.79286 53.6198 8.88971C53.6764 8.89577 53.7336 8.88505 53.7841 8.8589C54.121 9.5462 54.4131 10.2545 54.6587 10.9795C52.1951 9.45112 49.5817 8.17855 46.8594 7.18163C46.8485 7.13035 46.8269 7.08195 46.796 7.03958C45.6364 5.45293 44.3009 4.00261 42.8151 2.71631C42.7892 2.69654 42.761 2.6799 42.7312 2.6667C42.9386 2.33326 43.0161 1.93519 42.9491 1.54828C42.882 1.16137 42.675 0.812628 42.3674 0.568489C42.0598 0.324349 41.6732 0.201844 41.2812 0.224304C40.8892 0.246765 40.519 0.412654 40.2414 0.690319C39.9637 0.96799 39.7979 1.33806 39.7754 1.73011C39.7529 2.12215 39.8754 2.50874 40.1196 2.81631C40.3637 3.12387 40.7125 3.33088 41.0994 3.39797C41.4863 3.46506 41.8843 3.38756 42.2177 3.18015C42.2328 3.20638 42.2512 3.23051 42.2725 3.25199C43.4851 4.30573 44.5946 5.47254 45.586 6.73662C44.243 6.28593 42.8801 5.89971 41.4972 5.57794C41.5477 5.19941 41.4604 4.81537 41.2514 4.49577C41.0424 4.17618 40.7255 3.94233 40.3585 3.83684C39.9915 3.73134 39.5987 3.76125 39.2519 3.92108C38.9051 4.08091 38.6273 4.36 38.4691 4.70755C38.3108 5.05511 38.2827 5.44797 38.3899 5.81449C38.4971 6.18102 38.7324 6.49686 39.0529 6.70441C39.3735 6.91196 39.7579 6.99738 40.1362 6.94519C40.5145 6.89299 40.8615 6.70663 41.1138 6.42002C41.1453 6.38231 41.174 6.34224 41.1994 6.3002C42.0911 6.50729 42.976 6.73835 43.8488 6.9985C42.4262 7.56041 40.9611 8.00796 39.4674 8.33689C39.3651 7.99984 39.1538 7.7063 38.8666 7.50232C38.5795 7.29833 38.2327 7.19547 37.8808 7.20984C37.5288 7.22422 37.1916 7.35502 36.9221 7.58174C36.6525 7.80847 36.4658 8.11827 36.3914 8.46254C36.3169 8.80681 36.3588 9.16606 36.5106 9.48392C36.6624 9.80177 36.9154 10.0602 37.2299 10.2188C37.5445 10.3773 37.9027 10.4269 38.2485 10.3599C38.5943 10.2928 38.908 10.1128 39.1404 9.84817C39.3213 9.64118 39.4446 9.39034 39.4982 9.12076C41.374 8.71547 43.2063 8.1303 44.9698 7.37333C44.9774 7.36719 44.9843 7.36029 44.9904 7.35277C47.2658 8.09357 49.4751 9.02392 51.5951 10.134C50.9969 10.6285 50.3541 11.0662 49.6748 11.4416C49.6558 11.3823 49.6148 11.3327 49.5601 11.3029C48.3706 10.6063 47.0442 9.86871 45.6117 10.1443C43.8625 10.4831 42.8972 12.222 41.5366 13.1925C41.4826 13.2056 41.4335 13.234 41.3953 13.2743C41.3571 13.3147 41.3314 13.3652 41.3213 13.4198C41.3111 13.4745 41.317 13.5309 41.3382 13.5822C41.3594 13.6336 41.395 13.6777 41.4407 13.7093C43.0735 14.8149 44.6207 15.6638 46.6249 15.2069C48.3587 14.8184 49.8631 13.9164 49.7415 12.032C50.5879 11.5815 51.3832 11.041 52.1137 10.4198C53.12 10.9641 54.111 11.5443 55.0746 12.1724C55.6822 12.5712 56.2675 13.0024 56.8443 13.4526C54.9251 14.6871 52.9837 15.8744 51.02 17.0143L37.328 17.0143C35.7568 16.3445 34.2222 15.5971 32.724 14.7722C32.57 14.358 32.4142 13.9455 32.2499 13.5347C32.3052 13.5476 32.363 13.5438 32.416 13.5236C32.4691 13.5035 32.5149 13.4681 32.5477 13.4218C35.0277 10.0347 31.0741 7.70705 28.3785 6.56205C28.0893 6.44054 27.8411 6.80509 28.0242 6.9848C27.8976 8.27185 27.7932 9.65305 28.423 10.834C29.0528 12.0149 30.3536 12.8399 31.5397 13.4372C31.5682 13.4489 31.5981 13.457 31.6287 13.4611C31.7468 13.7538 31.87 14.0448 31.9744 14.3477C29.7003 13.0447 27.5125 11.5966 25.4244 10.0125C25.4457 9.94633 25.4463 9.87528 25.4261 9.8088C25.1329 8.81293 24.7615 7.84178 24.3154 6.90437C24.6495 6.79665 24.9386 6.58135 25.1376 6.2921C25.3366 6.00285 25.4342 5.65588 25.4154 5.30531C25.3965 4.95473 25.2621 4.62026 25.0332 4.35405C24.8043 4.08785 24.4938 3.90488 24.15 3.83367C23.8062 3.76246 23.4485 3.80703 23.1327 3.96041C22.8169 4.1138 22.5607 4.36736 22.4041 4.68159C22.2476 4.99582 22.1994 5.35304 22.2671 5.69753C22.3348 6.04203 22.5146 6.35443 22.7785 6.58602C22.9868 6.77009 23.2411 6.89429 23.5144 6.94544C23.5181 6.98973 23.5291 7.0331 23.5469 7.07381C23.8923 7.78143 24.1925 8.51029 24.4455 9.25598C23.5737 8.57366 22.7214 7.87079 21.8885 7.1474C22.0447 6.79631 22.0673 6.40023 21.9519 6.03366C21.8366 5.66709 21.5912 5.3553 21.2621 5.15698C20.9329 4.95866 20.5426 4.88748 20.1646 4.95681C19.7866 5.02615 19.447 5.23124 19.2097 5.53347C18.9723 5.83571 18.8536 6.21426 18.8759 6.59791C18.8981 6.98156 19.0598 7.34385 19.3305 7.61661C19.6012 7.88938 19.9623 8.05382 20.3457 8.07898C20.7292 8.10415 21.1086 7.98832 21.4127 7.75327C22.9222 9.05402 24.49 10.3 26.1125 11.4741C24.2384 12.756 22.0202 12.5369 19.8963 12.145C19.9513 11.7669 19.8684 11.3815 19.6626 11.0595C19.4569 10.7375 19.142 10.5004 18.7757 10.3915C18.4094 10.2826 18.0162 10.3093 17.6679 10.4666C17.3197 10.624 17.0397 10.9015 16.8793 11.2483C16.7189 11.5951 16.6887 11.9881 16.7944 12.3554C16.9 12.7226 17.1343 13.0396 17.4545 13.2482C17.7747 13.4568 18.1592 13.5431 18.5379 13.4914C18.9165 13.4397 19.2638 13.2534 19.5163 12.9665C19.5416 12.9354 19.565 12.9029 19.5865 12.869C21.9569 13.3123 24.466 13.5724 26.5506 12.1073C26.6185 12.0574 26.6679 11.9864 26.691 11.9054C29.4506 13.8676 32.3778 15.5829 35.4385 17.0314L20.9454 17.0314L20.9454 38.3157C20.0092 37.0611 19.1004 35.7861 18.2772 34.4562C17.0814 32.4619 16.2205 30.2851 15.7287 28.0124C15.9456 26.7199 16.3479 25.4656 16.9234 24.2882C17.302 24.3405 17.6869 24.255 18.0077 24.0471C18.3285 23.8393 18.5638 23.5229 18.6707 23.1559C18.7777 22.7889 18.749 22.3957 18.59 22.0481C18.431 21.7005 18.1523 21.4216 17.8047 21.2625C17.4572 21.1033 17.064 21.0745 16.6969 21.1812C16.3298 21.288 16.0134 21.5232 15.8054 21.8439C15.5974 22.1646 15.5117 22.5494 15.5639 22.9281C15.6162 23.3068 15.8028 23.654 16.0899 23.9065C16.1241 23.9407 16.1703 23.963 16.2097 23.9921C15.8704 24.6929 15.5894 25.4205 15.3693 26.1674C15.0568 24.1526 14.8506 22.1228 14.7515 20.0864C15.0795 19.8856 15.3231 19.5721 15.4365 19.2047C15.55 18.8372 15.5256 18.441 15.3679 18.0902C15.2102 17.7394 14.93 17.4582 14.5798 17.2992C14.2297 17.1402 13.8335 17.1143 13.4656 17.2264C13.0977 17.3385 12.7833 17.5809 12.5814 17.9082C12.3794 18.2355 12.3036 18.6252 12.3684 19.0043C12.4331 19.3834 12.6338 19.7259 12.9329 19.9676C13.232 20.2094 13.609 20.3337 13.9933 20.3175C14.0771 21.7021 14.1747 23.0901 14.3304 24.4644C13.347 23.4086 12.2758 22.4381 11.1282 21.5634C11.3308 21.2267 11.4032 20.8274 11.3318 20.441C11.2603 20.0545 11.05 19.7076 10.7404 19.4655C10.4307 19.2235 10.0432 19.1031 9.65098 19.127C9.25871 19.151 8.88875 19.3176 8.61086 19.5955C8.33297 19.8734 8.16635 20.2433 8.14242 20.6356C8.11848 21.0279 8.23888 21.4153 8.48092 21.725C8.72297 22.0346 9.06994 22.2449 9.45639 22.3164C9.84284 22.3878 10.2421 22.3154 10.5788 22.1128C12.002 23.1839 13.3027 24.4087 14.4571 25.7652C14.4725 25.7806 14.4845 25.7926 14.4999 25.808C14.8884 28.4796 15.5593 31.0914 16.8549 33.5303C16.961 33.7288 17.074 33.9274 17.1852 34.1242C16.6056 33.864 16.0442 33.5777 15.5011 33.265C15.4836 33.2529 15.4647 33.2431 15.4446 33.2359C15.419 33.2102 15.3813 33.1965 15.3505 33.1794C15.3682 32.4967 15.2259 31.8193 14.935 31.2015C14.644 30.5836 14.2125 30.0424 13.6749 29.6212C11.9925 28.2811 9.9969 28.507 8.02182 28.1339C7.96314 28.1224 7.90234 28.1298 7.84812 28.155C7.79389 28.1802 7.74904 28.2219 7.71997 28.2742C7.69091 28.3264 7.67912 28.3865 7.68631 28.4459C7.69349 28.5052 7.71926 28.5608 7.75996 28.6046C7.76217 28.6486 7.77637 28.6912 7.80104 28.7278C9.15655 30.7953 12.2082 36.6435 15.3916 33.8264C16.1228 34.233 16.8771 34.5964 17.6508 34.9149C18.6469 36.5443 19.7867 38.0778 20.9369 39.601L20.9369 40.7272C20.533 39.7311 19.7542 39.0824 18.652 38.7264C16.9165 38.1651 15.5268 39.0242 13.8101 38.7932C13.7528 38.7848 13.6942 38.794 13.6423 38.8197C13.5903 38.8454 13.5474 38.8863 13.5192 38.937C13.4754 38.9522 13.4361 38.9782 13.4048 39.0125C13.3736 39.0468 13.3514 39.0884 13.3404 39.1335C13.3293 39.1786 13.3297 39.2257 13.3415 39.2706C13.3533 39.3155 13.3762 39.3567 13.408 39.3905C14.44 40.4841 15.4292 41.6617 16.5331 42.6834C17.1818 43.2808 17.9161 43.724 18.8283 43.6402C19.6396 43.5242 20.3858 43.1311 20.9403 42.5277L20.9386 56.1599C20.0326 57.7025 19.0787 59.1915 18.0769 60.6269C17.2725 59.4459 16.4236 58.2981 15.5302 57.1833C15.6534 56.3755 15.8263 55.5591 15.9547 54.7496C17.2297 53.851 18.3285 52.3928 18.1865 50.7789C18.1266 50.0754 17.7654 49.5637 17.3016 49.0554C16.4014 48.0627 15.3608 47.1693 14.3955 46.2382C14.3521 46.1975 14.2968 46.1718 14.2377 46.1648C14.1786 46.1579 14.1188 46.17 14.0672 46.1995C14.0155 46.2289 13.9746 46.2742 13.9505 46.3286C13.9264 46.383 13.9204 46.4437 13.9334 46.5018C14.1028 47.6057 13.3532 48.3177 12.9989 49.2505C12.7601 49.8631 12.6858 50.5274 12.7832 51.1776C12.9955 52.6479 13.7652 53.9802 14.9329 54.8985C14.9686 54.928 15.011 54.9481 15.0565 54.9571C15.1019 54.9661 15.1488 54.9636 15.193 54.9498C15.2124 54.9774 15.2371 55.0008 15.2656 55.0187C15.2941 55.0366 15.3259 55.0487 15.3591 55.0542C15.2649 55.5728 15.1605 56.0914 15.0698 56.6031C12.817 53.8677 10.3054 51.3561 7.56999 49.1033C7.60997 49.0243 7.61794 48.933 7.59225 48.8483C7.23437 47.737 6.96707 46.5985 6.79297 45.4441C7.06973 45.3739 7.32265 45.2309 7.52549 45.0299C7.78338 44.7752 7.9491 44.4419 7.99649 44.0825C8.04388 43.7232 7.97023 43.3583 7.7872 43.0454C7.60417 42.7326 7.32216 42.4896 6.98569 42.3548C6.64921 42.22 6.27743 42.2012 5.92904 42.3012C5.58064 42.4012 5.27548 42.6143 5.0617 42.907C4.84792 43.1997 4.7377 43.5553 4.74844 43.9176C4.75919 44.2799 4.89029 44.6283 5.12104 44.9078C5.3518 45.1873 5.66908 45.382 6.02279 45.4612C6.15263 46.4401 6.36155 47.4068 6.64749 48.3519C5.5196 47.4637 4.36091 46.6131 3.15772 45.8104C3.26507 45.4331 3.23097 45.0296 3.06181 44.6757C2.89264 44.3218 2.60006 44.0418 2.23905 43.8884C1.87803 43.735 1.47344 43.7187 1.10126 43.8426C0.729083 43.9665 0.414945 44.222 0.217877 44.5612C0.0208109 44.9003 -0.0456241 45.2998 0.0310529 45.6845C0.107731 46.0692 0.322245 46.4126 0.63429 46.6503C0.946335 46.888 1.33442 47.0035 1.72566 46.9752C2.11689 46.9469 2.48434 46.7768 2.75895 46.4967L2.77606 46.4796C4.62175 47.7157 6.39017 49.0634 8.07146 50.5153C6.77071 50.3715 5.46483 50.2466 4.15723 50.1576C4.07686 49.9711 3.96189 49.8015 3.81837 49.6578C3.55609 49.3903 3.21016 49.2206 2.83807 49.1769C2.46598 49.1331 2.09014 49.218 1.77298 49.4175C1.45582 49.6169 1.21645 49.9188 1.09464 50.2731C0.972828 50.6274 0.9759 51.0127 1.10337 51.365C1.23083 51.7173 1.47502 52.0154 1.79533 52.2097C2.11564 52.404 2.49279 52.4829 2.86413 52.4333C3.23547 52.3836 3.57865 52.2083 3.83661 51.9366C4.09458 51.6649 4.25181 51.3132 4.28219 50.9397C5.87503 51.0493 7.46274 51.2005 9.04531 51.3933C11.6298 53.7366 13.982 56.3238 16.0693 59.1191C15.6757 59.0951 15.2855 59.0609 14.8935 59.0283C14.8855 58.9967 14.8734 58.9662 14.8576 58.9376C14.0943 57.7704 12.9732 56.7794 11.5578 56.5313C9.81205 56.2232 8.14677 57.3579 6.47634 57.6762C6.16142 57.7379 6.24015 58.2137 6.54651 58.2188C8.82624 58.2599 9.3397 60.5601 11.3199 61.0479C12.6891 61.3902 13.8803 60.5927 14.8216 59.6958C14.8522 59.6661 14.8756 59.6298 14.8901 59.5897C15.4036 59.6331 15.9187 59.669 16.4356 59.6975C16.4525 59.6973 16.4692 59.6944 16.4852 59.689C18.1598 61.9927 19.65 64.4248 20.942 66.9629L20.942 68.0138C20.7229 67.8905 20.497 67.7742 20.2574 67.6715C20.2956 67.6414 20.324 67.6005 20.3386 67.554C20.3533 67.5076 20.3536 67.4579 20.3395 67.4113C19.2476 62.756 14.7669 65.2617 11.5167 64.9621C11.4653 64.9576 11.4137 64.9695 11.3695 64.9964C11.325 64.9861 11.2822 64.9741 11.236 64.9656C10.8903 64.9039 10.7465 65.4345 11.0906 65.5047C13.2505 65.9018 13.8889 68.4844 15.9547 69.1776C16.6671 69.4156 17.426 69.4806 18.1685 69.3672C18.9111 69.2538 19.6159 68.9653 20.2249 68.5255C20.2578 68.5038 20.2856 68.4753 20.3066 68.442C20.3276 68.4086 20.3411 68.3711 20.3464 68.3321C20.5467 68.4331 20.74 68.5443 20.9317 68.6607L20.9317 79.272C19.8643 80.7638 18.7003 82.1839 17.4471 83.5234C17.1202 83.8538 17.6645 84.4014 18.0051 84.0369ZM32.813 64.69C33.7116 64.4453 34.6221 64.5924 35.536 64.5308C34.8429 67.1922 32.469 69.4052 29.681 68.5546C30.6976 68.0173 31.6358 67.3429 32.469 66.5504C32.5128 66.4975 32.5353 66.4301 32.5321 66.3615C32.5289 66.2928 32.5002 66.2279 32.4516 66.1793C32.403 66.1307 32.3381 66.102 32.2694 66.0988C32.2008 66.0956 32.1334 66.1181 32.0805 66.1619C31.2822 66.9213 30.3825 67.5664 29.4071 68.0788C30.0387 66.523 31.1238 65.1538 32.813 64.69ZM30.9851 40.0169C31.8186 39.6387 32.7138 39.3494 33.5781 39.0499C33.4583 41.3707 31.7947 43.4998 29.3233 43.1233L31.1375 41.5145C31.4045 41.2783 31.0125 40.8898 30.7472 41.1243L28.933 42.7331C28.9982 42.1373 29.2233 41.5702 29.5846 41.092C29.9459 40.6138 30.4298 40.2423 30.9851 40.0169ZM62.4957 33.3198C62.1893 32.0447 61.3233 31.0486 60.9844 29.7547C60.4077 27.5931 62.0524 26.051 63.7913 25.1679C63.3611 26.282 63.0557 27.4403 62.8808 28.6217C62.8294 28.9674 63.3669 29.1077 63.4199 28.7672C63.6248 27.3724 64.018 26.0119 64.5889 24.7229C67.3204 27.4715 64.9654 31.165 62.4957 33.3198ZM75.1899 22.9395C75.2379 24.3361 74.5721 25.5735 73.8396 26.7236C73.4562 25.8987 72.8674 25.2517 72.2992 24.5261C70.9488 22.7957 71.3236 21.0517 72.9598 19.7852C72.9096 20.731 72.9091 21.6787 72.9581 22.6246C72.9735 22.9823 73.5281 22.9789 73.5093 22.6246C73.4613 21.738 73.4493 20.8532 73.4904 19.9632L73.5007 19.6585C73.9983 20.0548 74.4062 20.5522 74.6974 21.1177C74.9886 21.6833 75.1564 22.3042 75.1899 22.9395ZM76.109 7.05154C76.8878 6.3618 77.5963 5.83808 78.1629 4.99773C79.4722 7.16621 78.5325 10.8443 76.02 11.7206C76.2035 10.6599 76.515 9.62548 76.9477 8.63985C77.088 8.31809 76.6105 8.04251 76.4667 8.3677C76.0693 9.26989 75.7653 10.2104 75.5596 11.1746C74.7758 9.71638 74.7005 8.30265 76.109 7.05154ZM67.1595 13.3961C65.8982 13.2096 64.8508 12.5044 63.9385 11.6538C64.7214 11.3937 65.45 10.9923 66.0882 10.4694C66.8601 9.87211 67.5139 9.41684 68.5339 9.73519C69.3865 10.0449 70.1292 10.5985 70.6699 11.3269C69.3845 11.3697 68.0958 11.3645 66.8087 11.2927C66.4493 11.2755 66.4544 11.825 66.8087 11.8438C68.0735 11.914 69.3383 11.9191 70.6065 11.8763C69.9339 13.0898 68.5476 13.6101 67.1595 13.3961ZM49.6303 5.33149C49.0929 4.01705 49.288 2.59308 49.1921 1.22045C51.7594 2.41851 55.4049 4.69483 53.7841 7.72933C53.0645 6.46313 52.1939 5.28897 51.1912 4.2327C51.1394 4.18095 51.0692 4.15189 50.9961 4.1519C50.9229 4.1519 50.8527 4.18098 50.8009 4.23272C50.7492 4.28447 50.7202 4.35462 50.7202 4.4278C50.7202 4.50098 50.7492 4.57118 50.801 4.62292C51.857 5.73561 52.76 6.98401 53.4863 8.33518C51.7697 8.0254 50.3132 6.99336 49.6303 5.33149ZM47.9958 14.0961C47.2351 14.5325 46.3787 14.7752 45.5021 14.803C44.2031 14.8149 43.1112 14.168 42.0672 13.4731C42.9195 12.7919 43.5818 11.9071 44.477 11.2824C46.0875 10.1545 47.6518 10.846 49.1631 11.7137C48.2571 12.161 47.301 12.4989 46.3151 12.7201C45.9694 12.7988 46.1097 13.3328 46.4606 13.2592C47.4058 13.0433 48.3247 12.7248 49.2007 12.3093C49.187 13.1342 48.8207 13.6375 47.9992 14.0927L47.9958 14.0961ZM28.8338 10.4027C28.3682 9.41 28.4384 8.29581 28.5411 7.22782C30.9235 8.28554 34.2062 10.1751 32.0719 13.1206C31.615 11.9995 31.1272 10.8922 30.5983 9.80193C30.4426 9.48188 29.9616 9.75404 30.1191 10.0758C30.5384 10.9367 30.9304 11.8078 31.3035 12.691C30.3057 12.1382 29.325 11.4416 28.8372 10.3993L28.8338 10.4027ZM49.2726 24.7794C48.4963 25.5371 47.5739 26.1287 46.5615 26.5183C46.8339 25.859 46.9959 25.1593 47.0408 24.4473C47.0733 23.8466 46.9535 23.227 47.0288 22.628C47.2034 21.2519 48.1601 20.7299 49.3804 20.5571C49.2318 21.0508 49.0447 21.532 48.8207 21.9965C48.665 22.3131 49.1408 22.5869 49.2983 22.2686C49.5543 21.7404 49.7661 21.192 49.9315 20.629C51.3726 21.7277 50.3662 23.7371 49.2726 24.7794ZM78.1354 17.016L73.9919 17.0142C73.9928 16.9866 73.9875 16.9591 73.9765 16.9338C74.7227 16.3336 75.4552 15.7152 76.1741 15.0785C76.8039 15.7323 77.4611 16.3896 78.1372 17.0143L78.1354 17.016ZM70.8769 18.315C69.7348 19.124 68.5624 19.8913 67.3598 20.617C66.0602 19.9811 64.8309 19.2107 63.692 18.3184L70.8769 18.315ZM57.4176 13.9986C57.4327 13.9851 57.447 13.9709 57.4604 13.9558C58.6551 14.9348 59.8052 15.9891 60.9725 17.016L52.5399 17.0142C54.1886 16.0409 55.8162 15.034 57.4228 13.9934L57.4176 13.9986ZM48.7232 18.3116C47.84 18.7976 46.9506 19.2774 46.0549 19.751C44.2464 19.3864 42.4634 18.9056 40.7168 18.3116L48.7232 18.3116ZM8.49078 28.7637C11.2275 29.2036 14.6591 29.3833 14.8114 32.8388C13.6803 32.1278 12.6225 31.3062 11.6536 30.3863C11.6007 30.3424 11.5334 30.3199 11.4647 30.3231C11.3961 30.3264 11.3311 30.3551 11.2825 30.4037C11.2339 30.4522 11.2052 30.5172 11.202 30.5858C11.1988 30.6545 11.2213 30.7219 11.2651 30.7748C12.3707 31.8255 13.59 32.7497 14.9004 33.5303C12.3194 35.543 9.74874 30.785 8.48565 28.7552L8.49078 28.7637ZM15.3317 54.4997C13.8786 53.3033 12.8158 51.2992 13.5569 49.4285C13.8923 48.5727 14.3938 47.907 14.4896 47.0581C15.4121 47.8916 16.4732 48.7439 17.1578 49.7263C18.1967 51.2136 17.3153 52.896 16.0728 53.9674C16.2011 52.7608 16.1532 51.5662 15.5901 50.404C15.4344 50.084 14.9551 50.3544 15.1109 50.6745C15.6945 51.8777 15.6671 53.1442 15.4789 54.4141L15.3317 54.4997ZM11.45 60.4352C10.4385 60.1905 9.93186 59.3689 9.20276 58.7083C8.79528 58.3259 8.3102 58.0357 7.78051 57.8577C8.78346 57.4914 9.77955 57.0361 10.7808 57.0105C12.2048 56.9728 13.4079 57.8542 14.2089 58.9633C13.3241 58.876 12.4409 58.7699 11.5612 58.633C11.2155 58.5782 11.0769 59.1173 11.4157 59.1721C12.3354 59.3136 13.2573 59.43 14.1815 59.5213C13.3994 60.2144 12.5351 60.6953 11.4517 60.4335L11.45 60.4352ZM14.2688 67.2829C13.6835 66.6189 13.1957 65.9599 12.5368 65.4961C15.3522 65.2993 18.8676 63.7829 19.7902 67.4472C18.7843 67.0462 17.7383 66.7541 16.6701 66.5761C16.3226 66.5162 16.1789 67.0467 16.5246 67.1152C17.6745 67.3015 18.7975 67.6268 19.8689 68.0839C18.005 69.3213 15.7578 68.9705 14.2705 67.2812L14.2688 67.2829ZM18.1266 43.0343C17.4608 42.8135 16.9165 42.2795 16.4425 41.7917C15.662 40.9873 14.9021 40.1624 14.137 39.346C14.8317 39.3203 15.5223 39.228 16.1994 39.0704C17.8801 38.7829 19.7919 39.3734 20.4474 40.9839C19.4299 40.7509 18.432 40.4396 17.4625 40.0529C17.1322 39.9313 16.9935 40.4636 17.317 40.592C18.3944 41.023 19.5102 41.3514 20.6493 41.5727C20.6844 41.6148 20.7326 41.6437 20.7862 41.6548C20.7572 42.6252 18.6982 43.2226 18.1283 43.0326L18.1266 43.0343ZM22.241 41.6993C22.3249 41.6976 22.4071 41.6873 22.4909 41.6822C23.5874 43.1554 24.5567 44.7191 25.3885 46.3563C25.4075 46.3981 25.4349 46.4355 25.4691 46.4662C25.5032 46.4968 25.5434 46.52 25.587 46.5343C24.6283 49.0341 23.5106 51.4699 22.241 53.8271L22.241 41.6993ZM18.5408 61.2995C19.3703 60.1163 20.1713 58.8943 20.9437 57.6335L20.9454 65.3027C20.2003 63.9324 19.3994 62.5974 18.5425 61.2978L18.5408 61.2995ZM22.2445 69.6825C22.8983 71.1646 23.4876 72.6782 24.0124 74.2231C23.4659 75.274 22.8766 76.298 22.2445 77.2953L22.2445 69.6825Z" fill="black"/>
<path d="M15.2579 49.5793C15.3096 49.5276 15.3387 49.4574 15.3387 49.3842C15.3387 49.311 15.3096 49.2409 15.2579 49.1891C15.2061 49.1374 15.136 49.1083 15.0628 49.1083C14.9896 49.1083 14.9194 49.1374 14.8677 49.1891C14.8159 49.2409 14.7869 49.311 14.7869 49.3842C14.7869 49.4574 14.8159 49.5276 14.8677 49.5793C14.9194 49.6311 14.9896 49.6601 15.0628 49.6601C15.136 49.6601 15.2061 49.6311 15.2579 49.5793Z" fill="black"/>
<path d="M10.3151 58.462C10.2712 58.5149 10.2487 58.5823 10.252 58.6509C10.2552 58.7195 10.2839 58.7845 10.3325 58.8331C10.381 58.8817 10.446 58.9104 10.5147 58.9136C10.5833 58.9168 10.6507 58.8943 10.7036 58.8505C10.7474 58.7976 10.7699 58.7302 10.7667 58.6616C10.7635 58.5929 10.7348 58.528 10.6862 58.4794C10.6376 58.4308 10.5726 58.4021 10.504 58.3989C10.4353 58.3956 10.368 58.4181 10.3151 58.462Z" fill="black"/>
<path d="M15.2751 66.2835C14.9414 66.1654 14.8044 66.6994 15.1296 66.8226L15.5746 66.9801C15.9084 67.0982 16.047 66.5659 15.7218 66.4427L15.2751 66.2835Z" fill="black"/>
<path d="M33.2016 66.0403L33.6175 65.7271C33.679 65.6894 33.724 65.6298 33.7433 65.5603C33.7627 65.4907 33.755 65.4164 33.7219 65.3523C33.7039 65.3208 33.6799 65.2932 33.6512 65.271C33.6226 65.2488 33.5898 65.2325 33.5549 65.223C33.5199 65.2134 33.4834 65.2109 33.4474 65.2155C33.4115 65.22 33.3768 65.2316 33.3453 65.2496L32.9294 65.5594C32.8682 65.5978 32.8236 65.6579 32.8046 65.7276C32.7856 65.7974 32.7935 65.8718 32.8267 65.936C32.8632 65.9989 32.9228 66.045 32.9929 66.0645C33.0629 66.084 33.1378 66.0753 33.2016 66.0403Z" fill="black"/>
<path d="M10.5549 29.8728L10.4539 29.7718C10.401 29.728 10.3336 29.7055 10.265 29.7087C10.1963 29.7119 10.1314 29.7406 10.0828 29.7892C10.0342 29.8378 10.0055 29.9028 10.0023 29.9714C9.99906 30.0401 10.0216 30.1074 10.0654 30.1603L10.1664 30.2613C10.2193 30.3052 10.2867 30.3277 10.3553 30.3244C10.4239 30.3212 10.4889 30.2925 10.5375 30.2439C10.5861 30.1953 10.6148 30.1304 10.618 30.0617C10.6212 29.9931 10.5987 29.9257 10.5549 29.8728Z" fill="black"/>
<path d="M16.6134 39.9093C16.5007 39.9078 16.3902 39.8784 16.2917 39.8237C16.2602 39.8057 16.2255 39.7941 16.1895 39.7895C16.1536 39.7849 16.1171 39.7875 16.0821 39.7971C16.0472 39.8066 16.0144 39.8229 15.9858 39.8451C15.9571 39.8673 15.9331 39.8949 15.9151 39.9264C15.8971 39.9578 15.8855 39.9925 15.881 40.0285C15.8764 40.0644 15.8789 40.101 15.8885 40.1359C15.898 40.1709 15.9143 40.2036 15.9365 40.2323C15.9587 40.2609 15.9864 40.2849 16.0178 40.3029C16.2006 40.4044 16.4061 40.4579 16.6151 40.4586C16.978 40.4552 16.9694 39.9127 16.6134 39.9093Z" fill="black"/>
<path d="M31.7022 41.1209L31.9932 40.9257C32.2876 40.7306 32.0103 40.2582 31.7211 40.4482L31.4284 40.6416C31.1357 40.8384 31.4062 41.3177 31.7022 41.1209Z" fill="black"/>
<path d="M30.1548 9.11586C30.0864 8.99948 30.0162 8.88482 29.9477 8.76844C29.9298 8.73698 29.9057 8.70937 29.8771 8.68718C29.8484 8.66499 29.8157 8.64866 29.7807 8.63912C29.7458 8.62958 29.7093 8.62702 29.6733 8.63159C29.6374 8.63616 29.6027 8.64777 29.5712 8.66575C29.5397 8.68373 29.5121 8.70771 29.49 8.73636C29.4678 8.76501 29.4514 8.79775 29.4419 8.83272C29.4324 8.86768 29.4298 8.90421 29.4344 8.94016C29.4389 8.97611 29.4505 9.0108 29.4685 9.04227C29.5387 9.15694 29.6072 9.27331 29.6773 9.38798C29.7167 9.44449 29.7758 9.48425 29.843 9.49943C29.9101 9.51462 29.9805 9.50415 30.0404 9.47004C30.1002 9.43594 30.1451 9.38071 30.1663 9.31518C30.1875 9.24964 30.1834 9.17853 30.1548 9.11586Z" fill="black"/>
<path d="M50.7785 3.4953C50.71 3.37891 50.6399 3.26426 50.5697 3.14617C50.5303 3.08965 50.4713 3.04989 50.4041 3.03471C50.3369 3.01953 50.2665 3.03 50.2067 3.0641C50.1468 3.0982 50.1019 3.15343 50.0807 3.21897C50.0596 3.28451 50.0636 3.35562 50.0922 3.41829C50.1606 3.53467 50.2291 3.65103 50.2993 3.76571C50.338 3.82349 50.397 3.86455 50.4647 3.88064C50.5324 3.89673 50.6036 3.88666 50.6642 3.85248C50.7248 3.81831 50.7701 3.76256 50.7913 3.69633C50.8125 3.6301 50.808 3.55829 50.7785 3.4953Z" fill="black"/>
<path d="M45.6816 12.8435L44.9423 13.0215C44.5966 13.1036 44.7369 13.6376 45.0877 13.5606L45.8271 13.3826C46.166 13.2936 46.0257 12.7596 45.6816 12.8435Z" fill="black"/>
<path d="M48.4407 22.8729L48.0299 23.4308C47.8194 23.7166 48.3021 23.987 48.5091 23.7046L48.9216 23.145C49.1218 22.8523 48.6409 22.5802 48.4407 22.8729Z" fill="black"/>
<path d="M65.7064 11.392C65.6358 11.3957 65.5694 11.4264 65.5207 11.4776C65.472 11.5289 65.4449 11.5969 65.4449 11.6676C65.4449 11.7383 65.472 11.8063 65.5207 11.8575C65.5694 11.9088 65.6358 11.9395 65.7064 11.9432L65.8776 11.9432C65.9459 11.9365 66.0093 11.9045 66.0554 11.8536C66.1014 11.8026 66.1268 11.7363 66.1266 11.6676C66.1264 11.599 66.1006 11.5328 66.0542 11.4822C66.0079 11.4315 65.9443 11.4 65.8759 11.3937L65.7064 11.392Z" fill="black"/>
<path d="M77.6288 7.71909L77.9198 7.32545C78.1286 7.04133 77.6493 6.77093 77.4405 7.05162L77.1513 7.44698C76.9356 7.72767 77.4166 7.99978 77.6288 7.71909Z" fill="black"/>
<path d="M62.665 30.0047L62.6239 30.6825C62.6085 31.0402 63.1545 31.035 63.175 30.6825L63.2144 30.003C63.2264 29.6521 62.6787 29.6556 62.665 30.0047Z" fill="black"/>
<path d="M73.244 23.4889L73.2885 24.218C73.3056 24.5774 73.8618 24.5722 73.8396 24.218L73.7951 23.4889C73.7711 23.1363 73.2217 23.1346 73.244 23.4889Z" fill="black"/>
</svg>
