<svg width="7" height="11" viewBox="0 0 7 11" fill="none" xmlns="http://www.w3.org/2000/svg">
<path d="M6.72004 0.309068C6.72004 0.228056 6.68785 0.150362 6.63057 0.0930783C6.57329 0.0357942 6.49559 0.00361221 6.41458 0.00361221H4.8873C4.11824 -0.0346976 3.36527 0.232943 2.79292 0.748058C2.22057 1.26317 1.87537 1.98388 1.83274 2.75272V4.40218H0.305456C0.224444 4.40218 0.14675 4.43436 0.0894661 4.49165C0.032182 4.54893 0 4.62662 0 4.70764V6.29601C0 6.37702 0.032182 6.45471 0.0894661 6.512C0.14675 6.56928 0.224444 6.60146 0.305456 6.60146H1.83274V10.6946C1.83274 10.7756 1.86492 10.8533 1.9222 10.9106C1.97949 10.9679 2.05718 11 2.13819 11H3.97093C4.05194 11 4.12964 10.9679 4.18692 10.9106C4.2442 10.8533 4.27639 10.7756 4.27639 10.6946V6.60146H5.87698C5.9449 6.60244 6.01122 6.58074 6.06543 6.53981C6.11965 6.49887 6.15867 6.44103 6.17632 6.37543L6.61618 4.78706C6.62833 4.74192 6.62997 4.6946 6.62096 4.64874C6.61194 4.60288 6.59253 4.55969 6.5642 4.52251C6.53587 4.48533 6.49939 4.45515 6.45757 4.43429C6.41574 4.41343 6.36968 4.40244 6.32294 4.40218H4.27639V2.75272C4.29158 2.6015 4.36259 2.46138 4.47556 2.35971C4.58852 2.25805 4.73532 2.20213 4.8873 2.2029H6.41458C6.49559 2.2029 6.57329 2.17071 6.63057 2.11343C6.68785 2.05615 6.72004 1.97845 6.72004 1.89744V0.309068Z" fill="white"/>
</svg>
