<svg width="17" height="17" viewBox="0 0 17 17" fill="none" xmlns="http://www.w3.org/2000/svg">
<path fill-rule="evenodd" clip-rule="evenodd" d="M12 9.9165C12 8.32869 13.2872 7.0415 14.875 7.0415H15.2292C15.6434 7.0415 15.9792 7.37729 15.9792 7.7915C15.9792 8.20572 15.6434 8.5415 15.2292 8.5415H14.875C14.1156 8.5415 13.5 9.15711 13.5 9.9165C13.5 10.6759 14.1156 11.2915 14.875 11.2915H15.2292C15.6434 11.2915 15.9792 11.6273 15.9792 12.0415C15.9792 12.4557 15.6434 12.7915 15.2292 12.7915H14.875C13.2872 12.7915 12 11.5043 12 9.9165Z" fill="#6B7280"/>
<path fill-rule="evenodd" clip-rule="evenodd" d="M6.7165 2.16653C7.93331 2.16653 8.39523 2.17331 8.809 2.29148C9.19649 2.40215 9.56002 2.58391 9.88105 2.82751C10.083 2.98077 10.2641 3.17062 10.5282 3.49987H10.3747C10.2775 3.49979 10.1779 3.49982 10.0754 3.49984L9.91796 3.49987L9.9165 3.49987H8.49984L2.83317 3.49987C2.46498 3.49987 2.1665 3.20139 2.1665 2.8332C2.1665 2.46501 2.46498 2.16653 2.83317 2.16653H6.7165ZM0.666504 2.8332C0.666504 1.63658 1.63655 0.666534 2.83317 0.666534H6.7165L6.82965 0.666519C7.8944 0.6663 8.58018 0.666159 9.22092 0.84915C9.78725 1.01089 10.3186 1.27655 10.7878 1.63257C11.3186 2.03536 11.7299 2.58407 12.3686 3.43599L12.3686 3.436L12.4365 3.52653L12.4928 3.60165C12.7128 3.6376 12.9164 3.68622 13.11 3.75195C14.5084 4.22663 15.6064 5.32467 16.0811 6.72303C16.3338 7.46737 16.3335 8.35921 16.3332 9.75758L16.3332 9.91653L16.3332 10.0755C16.3335 11.4739 16.3338 12.3657 16.0811 13.11C15.6064 14.5084 14.5084 15.6064 13.11 16.0811C12.3657 16.3338 11.4738 16.3336 10.0754 16.3332L9.9165 16.3332H7.81651H7.78354H7.78353C6.69137 16.3332 5.82587 16.3332 5.12824 16.2762C4.41485 16.2179 3.81122 16.0963 3.26005 15.8155C2.36628 15.3601 1.63962 14.6334 1.18422 13.7397C0.903386 13.1885 0.781778 12.5849 0.723492 11.8715C0.666494 11.1738 0.666498 10.3083 0.666504 9.2162L0.666504 9.1832V2.8332ZM9.9165 4.99987C11.5288 4.99987 12.1493 5.0099 12.6278 5.17235C13.5846 5.49712 14.3359 6.24842 14.6607 7.20519C14.8231 7.68373 14.8332 8.30422 14.8332 9.91653C14.8332 11.5288 14.8231 12.1493 14.6607 12.6279C14.3359 13.5846 13.5846 14.3359 12.6278 14.6607C12.1493 14.8232 11.5288 14.8332 9.9165 14.8332H7.81651C6.68403 14.8332 5.87977 14.8326 5.25039 14.7812C4.62976 14.7305 4.24551 14.6341 3.94104 14.479C3.32951 14.1674 2.83232 13.6702 2.52073 13.0587C2.3656 12.7542 2.26922 12.3699 2.21851 11.7493C2.16709 11.1199 2.1665 10.3157 2.1665 9.1832V4.89537C2.37653 4.96321 2.60057 4.99987 2.83317 4.99987H8.49984H9.9165Z" fill="#6B7280"/>
</svg>
