<svg width="176" height="157" viewBox="0 0 176 157" fill="none" xmlns="http://www.w3.org/2000/svg">
<path d="M1.38197 126.397C1.9243 126.668 2.05917 126.742 2.39975 126.911C54.9677 153.121 119.117 131.561 145.398 78.8512C154.836 59.9861 158.457 38.7452 155.799 17.8367C155.259 13.5888 154.657 3.00867 154.657 3.00867C161.562 28.6016 158.822 55.8649 146.958 79.6054C120.252 133.169 55.056 155.083 1.63112 128.446C1.29146 128.277 0.953059 128.106 0.615966 127.934C-0.867722 127.174 0.709082 125.71 1.38197 126.397Z" fill="black"/>
<path d="M74.654 105.088C76.9616 105.294 79.234 106.013 80.4082 108.126C81.4278 109.945 81.5798 112.105 81.2925 114.135C80.6256 118.868 77.6987 122.701 74.2307 125.82C69.3311 130.214 56.6683 134.954 56.5205 134.857C55.8413 136.07 56.0366 137.376 55.2557 138.534C54.9141 139.043 53.1516 138.504 53.4932 137.995C56.0067 134.303 57.9734 130.267 59.332 126.013C60.5859 122.038 60.9246 117.834 62.2653 113.896C64.1414 108.435 68.675 104.544 74.654 105.088ZM68.7754 107.154C68.7928 107.166 68.8072 107.183 68.8173 107.201C68.8275 107.22 68.8332 107.241 68.834 107.263C68.8347 107.284 68.8306 107.305 68.8219 107.325C68.8132 107.344 68.8 107.362 68.7836 107.375C64.4371 110.66 63.7364 115.875 62.9191 120.876C63.2797 119.867 63.6755 118.877 64.1229 117.898C66.1835 113.428 69.0875 109.397 72.6746 106.029C72.3452 106.058 72.0103 106.098 71.6795 106.158C70.6693 106.337 69.692 106.67 68.7809 107.143L68.7754 107.154ZM64.0977 129.988C63.8862 130.109 63.6711 130.228 63.4524 130.345C63.6395 130.282 63.8225 130.214 64.0083 130.147C64.0041 130.128 64.0049 130.108 64.0106 130.09C64.0163 130.071 64.0267 130.055 64.0408 130.041L64.0977 129.988ZM59.4895 132.175C59.6175 132.015 59.7369 131.848 59.8474 131.675C59.5993 131.928 59.3553 132.179 59.1045 132.424C59.2197 132.336 59.358 132.256 59.4895 132.175ZM60.2393 131.554C60.2393 131.554 60.246 131.541 60.2501 131.532L60.2393 131.554ZM60.5484 131.566C60.6568 131.504 60.7707 131.446 60.8792 131.391L60.627 131.456C60.608 131.48 60.5782 131.52 60.5525 131.558L60.5484 131.566ZM60.4128 131.227L60.4819 131.21C60.646 130.976 60.8086 130.745 60.9672 130.508C60.8208 130.666 60.6758 130.828 60.5361 130.972C60.4955 131.061 60.4562 131.14 60.4169 131.218L60.4128 131.227ZM60.8737 131.117C61.2574 131.026 61.6235 130.924 61.995 130.817L62.0641 130.78C63.1321 130.238 64.1621 129.625 65.1471 128.943C71.0812 122.841 75.5633 115.476 78.2579 107.401C78.1657 107.327 78.0734 107.261 77.9758 107.192C75.0011 112.175 71.7373 116.98 68.2013 121.581C66.2301 124.177 64.2318 126.826 62.0464 129.301C61.6871 129.906 61.294 130.512 60.8805 131.103L60.8737 131.117ZM62.1184 131.058C61.4513 131.405 60.7952 131.736 60.1498 132.114C60.0468 132.253 59.9519 132.395 59.8461 132.533C59.8294 132.552 59.8074 132.566 59.7829 132.573C59.7584 132.58 59.7324 132.579 59.7082 132.571C59.684 132.564 59.6626 132.549 59.6466 132.529C59.6307 132.509 59.6208 132.485 59.6183 132.46C59.4899 132.615 59.3522 132.761 59.2062 132.9C63.5202 131.038 68.0241 129.393 71.7903 126.613C68.8066 128.566 65.5482 130.061 62.1238 131.048L62.1184 131.058ZM59.419 131.719L59.3512 131.733C59.3282 131.779 59.3065 131.822 59.2834 131.869C59.3363 131.81 59.3851 131.76 59.4326 131.712L59.419 131.719ZM59.7674 131.366C59.9477 131.181 60.1308 130.998 60.307 130.807C60.7211 129.829 61.0169 128.805 61.1881 127.756C60.7234 129.016 60.1694 130.241 59.5302 131.421L59.7674 131.366ZM73.0393 106.017C73.0387 106.03 73.0354 106.043 73.0295 106.055C73.0237 106.067 73.0155 106.077 73.0055 106.085C68.6846 110.099 65.3563 115.066 63.2851 120.59C62.9788 121.415 62.7294 122.248 62.5057 123.083C62.3376 123.923 62.1452 124.751 61.9161 125.556C61.6748 126.665 61.4484 127.778 61.1922 128.896C61.0882 129.354 60.9597 129.807 60.8073 130.252C61.1597 129.871 61.5122 129.483 61.8593 129.079C64.0745 125.465 65.7663 121.562 67.8079 117.827C70.1044 113.649 73.1168 109.95 76.159 106.313C75.1489 106.036 74.0983 105.933 73.0529 106.011L73.0393 106.017ZM76.4383 106.432C72.9555 110.606 69.6571 114.825 67.1546 119.688C65.7365 122.443 64.4121 125.243 62.8747 127.918C64.5016 126.014 66.0254 123.996 67.5302 122.024C71.239 117.244 74.6531 112.243 77.7535 107.047C77.3441 106.792 76.9076 106.583 76.4519 106.425L76.4383 106.432ZM78.4802 107.579C75.913 115.221 71.7482 122.229 66.2642 128.135C67.06 127.544 67.8355 126.919 68.6205 126.254C73.5798 122.1 78.3316 117.486 80.3921 111.194C80.2253 109.793 79.5496 108.504 78.4937 107.572L78.4802 107.579ZM80.4572 111.824C78.6379 116.926 75.0873 120.93 71.0798 124.52C69.1858 126.207 67.2363 127.931 65.1227 129.358C64.9094 129.578 64.6889 129.794 64.4611 130.006C68.1522 128.647 71.592 126.68 74.6387 124.187C78.0118 120.912 80.8099 116.536 80.4707 111.817L80.4572 111.824ZM58.5107 132.61C58.668 132.349 58.8225 132.087 58.9689 131.82C58.6476 131.881 58.3263 131.941 58.0009 131.996C57.6904 132.619 57.6701 132.735 57.3393 133.364C57.767 133.166 58.1657 132.91 58.5242 132.604L58.5107 132.61ZM62.7738 115.416C61.6094 119.456 61.1676 123.635 59.7862 127.628C59.3084 129.007 58.761 130.361 58.1459 131.685C58.4781 131.63 58.8089 131.571 59.1411 131.502C61.4959 127.085 62.2304 122.434 63.1969 117.365C63.9288 113.534 65.2302 109.891 68.3321 107.391C65.5067 109.052 63.7606 112.031 62.7873 115.409L62.7738 115.416Z" fill="black"/>
<path d="M54.1535 137.927C56.5438 139.014 58.8866 140.223 61.2024 141.486C61.2689 141.442 61.3466 141.418 61.4261 141.417C68.6335 141.277 75.8787 139.41 83.0943 140.257C88.409 140.87 95.5189 143.573 96.4276 149.621C97.3362 155.669 91.6732 157.751 86.7029 156.767C80.0174 155.44 74.8258 150.505 69.1354 147.115C64.1433 144.137 57.0429 142.169 51.7376 139.758C51.1898 139.498 53.6044 137.677 54.1535 137.927ZM76.488 149.698C75.4271 149.486 74.3821 149.202 73.3601 148.848C75.5145 150.346 77.6785 151.86 79.9427 153.124C78.8146 151.998 77.6689 150.833 76.492 149.69L76.488 149.698ZM68.0615 145.384C68.17 145.438 68.2703 145.509 68.372 145.57C70.2622 146.492 72.2494 147.2 74.2969 147.682C73.4712 146.961 72.6279 146.276 71.7506 145.645C70.3835 145.628 69.0222 145.468 67.6887 145.168L68.0615 145.384ZM70.0709 146.624C70.8979 147.158 71.7209 147.715 72.5398 148.279C73.5245 148.691 74.5423 149.019 75.5823 149.26C75.7735 149.304 75.9674 149.343 76.1612 149.382C75.688 148.932 75.2067 148.485 74.7186 148.052C73.1393 147.679 71.5866 147.202 70.0709 146.624ZM66.4223 144.435C66.4223 144.435 66.4413 144.444 66.4521 144.45C66.5281 144.487 66.6013 144.524 66.6623 144.585L66.9254 144.736C68.4093 145.168 69.9412 145.414 71.4862 145.469C71.3086 145.343 71.1324 145.221 70.9521 145.101C68.9714 144.894 67.0264 144.431 65.1655 143.723L66.4223 144.435ZM71.9554 145.472C72.3472 145.474 72.7404 145.466 73.1363 145.446C73.3681 145.43 73.6 145.406 73.8426 145.388C73.0671 145.32 72.2929 145.25 71.5229 145.165C71.6666 145.264 71.8171 145.369 71.9662 145.478L71.9554 145.472ZM62.9541 142.298C65.278 143.749 67.8541 144.402 70.4938 144.791C68.6292 143.558 66.5525 142.682 64.3682 142.205C63.9045 142.246 63.4314 142.278 62.9623 142.302L62.9541 142.298ZM62.7399 142.307L62.6884 142.308L62.729 142.328C62.7334 142.321 62.74 142.314 62.7481 142.311L62.7399 142.307ZM67.755 141.877C70.0503 142.163 72.3226 142.583 74.6356 142.813C78.3437 143.178 82.2945 142.33 86.0188 141.76C85.6487 141.667 85.284 141.576 84.926 141.5C79.313 140.317 73.5048 141.237 67.7631 141.881L67.755 141.877ZM86.6818 141.944C83.032 142.474 79.1925 143.302 75.502 143.16C72.4949 143.018 69.5202 142.343 66.5077 142.023L65.2278 142.145C67.3273 142.72 69.314 143.646 71.1039 144.885C72.3553 145.043 73.6243 145.153 74.8893 145.258C77.0938 144.911 79.2739 144.28 81.5326 144.157C86.0853 143.928 90.4551 145.526 94.6215 147.22C93.0202 144.476 89.7608 142.838 86.6764 141.941L86.6818 141.944ZM95.3714 149.071C95.2415 148.564 95.0574 148.072 94.8222 147.605C88.9271 145.243 83.5975 143.825 77.1616 145.114C76.7332 145.2 76.3115 145.271 75.8885 145.339C77.3758 145.466 78.8577 145.61 80.303 145.862C85.6508 146.814 90.8115 148.612 95.5911 151.19C95.6225 150.475 95.5467 149.76 95.366 149.068L95.3714 149.071ZM95.5776 151.489C90.2138 148.579 84.3688 146.662 78.3222 145.829C77.182 145.678 76.0282 145.574 74.8785 145.47C73.9885 145.579 73.0931 145.635 72.1967 145.64C73.1133 146.321 73.9986 147.051 74.8623 147.818C77.0533 148.36 79.2836 148.81 81.4502 149.456C85.6759 150.738 89.7238 152.545 93.4993 154.835C94.0806 154.476 94.5706 153.987 94.9304 153.405C95.2902 152.824 95.5099 152.167 95.5721 151.486L95.5776 151.489ZM93.2336 155.002C88.6406 152.25 83.6586 150.208 78.4552 148.944C77.3868 148.683 76.332 148.449 75.2636 148.188C75.73 148.61 76.1924 149.041 76.6507 149.48C77.8494 149.651 79.0352 149.902 80.2001 150.231C83.3253 151.243 85.5882 153.515 87.8037 155.842C87.8173 155.856 87.8277 155.872 87.8345 155.89C87.8413 155.908 87.8442 155.927 87.8431 155.947C89.7547 156.126 91.7423 155.847 93.2282 154.999L93.2336 155.002ZM87.4797 155.908C84.3612 152.656 81.4923 150.662 76.9815 149.801C78.2804 151.06 79.5373 152.349 80.782 153.573C82.4336 154.46 84.1831 155.151 85.9951 155.633C86.482 155.754 86.976 155.845 87.4743 155.905L87.4797 155.908Z" fill="black"/>
<path d="M100.216 95.5009C103.471 93.5151 106.355 93.8767 108.059 97.507C110.536 102.779 106.81 108.427 104.04 112.766C100.014 119.083 94.5432 123.923 88.616 128.402C88.541 128.466 88.4445 128.5 88.3461 128.495C88.2476 128.491 88.1546 128.449 88.0859 128.379C87.2427 130.335 87.739 131.94 85.8464 133.624C85.4003 134.023 82.9436 133.661 83.3964 133.255C89.7955 127.537 88.3945 120.1 89.9913 112.558C91.321 106.292 94.5189 98.975 100.216 95.5009ZM92.0736 108.633C91.161 114.339 90.1715 120.033 89.1053 125.716C92.8538 121.756 93.1762 116.023 93.7874 110.778C94.3742 105.744 95.9901 101.844 98.6934 97.6784C97.1627 99.2365 95.8365 100.984 94.7469 102.877C93.6723 104.705 92.777 106.633 92.0736 108.633ZM88.8965 127.018C89.0565 126.758 89.2192 126.5 89.3737 126.237C89.3627 126.227 89.3539 126.214 89.3479 126.2C89.3419 126.186 89.3388 126.171 89.3388 126.156C89.3388 126.14 89.3419 126.125 89.3479 126.111C89.3539 126.097 89.3627 126.085 89.3737 126.074C89.4618 125.986 89.5432 125.897 89.6313 125.809C89.7194 125.72 89.7031 125.665 89.7397 125.591C89.5201 125.767 89.2991 125.939 89.0754 126.109C89.0605 126.139 89.0266 126.159 89.0009 126.184C88.9467 126.469 88.8965 126.753 88.8436 127.035C88.8606 127.028 88.8783 127.022 88.8965 127.018ZM90.2075 124.823C90.1709 124.896 90.1099 124.958 90.057 125.023C90.0678 125.001 90.099 124.986 90.1207 124.97C90.1424 124.954 90.1844 124.856 90.2142 124.809L90.2075 124.823ZM99.3536 97.0807C99.3592 97.0976 99.3607 97.1155 99.3578 97.133C99.355 97.1505 99.348 97.1671 99.3373 97.1813C97.5464 99.8564 95.8071 102.55 94.9477 105.687C94.1466 108.611 93.9989 111.664 93.6303 114.658C93.3471 117.005 92.9011 119.352 92.0444 121.499C96.332 113.383 99.4593 104.706 101.334 95.7225C100.624 96.0889 99.9616 96.5405 99.3604 97.0672L99.3536 97.0807ZM101.639 95.5724C99.5476 105.717 95.8638 115.468 90.7253 124.463C90.8135 124.388 90.903 124.318 90.9857 124.254C92.3278 122.349 93.7554 120.478 95.1653 118.587C96.7406 115.939 97.9797 113.104 98.854 110.15C100.361 105.089 101.002 99.8379 103.452 95.1013C102.828 95.1463 102.217 95.3012 101.646 95.5588L101.639 95.5724ZM103.916 95.0812C103.872 95.08 103.832 95.0868 103.788 95.0856C100.975 100.442 100.502 106.484 98.5314 112.128C97.9606 113.764 97.2719 115.356 96.4708 116.892C101.124 110.643 105.378 104.175 105.783 96.1377C105.785 96.1159 105.791 96.0949 105.803 96.0762C105.814 96.0575 105.829 96.0415 105.848 96.0297C105.866 96.0178 105.887 96.0104 105.908 96.0079C105.93 96.0053 105.952 96.0078 105.972 96.015C105.434 95.4432 104.696 95.1019 103.912 95.0622L103.916 95.0812ZM106.028 96.0665C106.028 96.0665 106.051 96.095 106.048 96.1208C105.612 104.866 100.656 111.765 95.5584 118.518C94.673 120.024 93.6861 121.469 92.6044 122.84C99.2132 116.854 104.425 109.483 107.867 101.254C107.873 101.237 107.883 101.222 107.897 101.21C107.91 101.198 107.926 101.189 107.943 101.183C107.942 101.167 107.942 101.15 107.944 101.133C107.906 99.6067 107.296 97.3335 106.024 96.0475L106.028 96.0665ZM107.918 101.782C104.24 110.403 98.624 118.059 91.509 124.155C91.288 124.415 91.063 124.669 90.8325 124.921C90.5491 125.333 90.2672 125.749 89.992 126.165C95.2712 122.008 100.047 117.467 103.628 111.664C105.431 108.741 107.738 105.308 107.928 101.77L107.918 101.782ZM88.5278 127.296L88.5562 127.157L88.4952 127.32L88.5278 127.296ZM90.0743 118.849C90.5812 116.022 91.0615 113.189 91.5151 110.351C91.008 112.082 90.643 113.852 90.4239 115.642C90.302 116.716 90.1949 117.786 90.0838 118.837L90.0743 118.849Z" fill="black"/>
<path d="M82.2751 132.95C84.4086 133.136 86.517 133.54 88.5674 134.156C88.6388 134.074 88.7367 134.019 88.844 134.002C92.4114 133.389 95.8784 132.285 99.1465 130.723C101.421 129.671 103.627 128.737 106.121 128.361C111.396 127.559 118.983 128.442 122.286 133.287C125.209 137.576 121.686 143.997 116.843 144.801C111.751 145.657 106.387 142.372 101.907 140.41C95.6624 137.683 87.895 135.613 81.0062 135.081C80.392 135.03 81.6745 132.899 82.2751 132.95ZM96.256 133.24C96.4838 133.245 96.7102 133.239 96.9339 133.239C98.708 132.956 100.51 132.901 102.297 133.075C107.172 132.727 111.992 131.828 116.666 130.393C114.353 129.44 111.869 128.973 109.366 129.022C109.353 129.045 109.333 129.063 109.309 129.075C106.582 130.388 103.737 131.438 100.811 132.211C98.611 132.781 96.3374 133.036 94.1586 133.698L93.6896 133.845C93.4347 133.928 93.1852 134.021 92.9357 134.121C93.0917 134.113 93.2462 134.109 93.4048 134.11C94.2994 133.813 95.2113 133.571 96.1354 133.387C96.129 133.369 96.127 133.351 96.1297 133.332C96.1324 133.314 96.1397 133.296 96.1509 133.281C96.162 133.266 96.1768 133.254 96.1937 133.246C96.2107 133.238 96.2293 133.235 96.2479 133.236L96.256 133.24ZM91.6139 135.162C93.6178 135.109 95.6406 135.024 97.6593 135.009C96.3016 134.619 94.8981 134.408 93.4849 134.384C92.8133 134.592 92.1526 134.833 91.5054 135.108L91.6139 135.162ZM91.1678 134.991C91.176 134.975 91.1828 134.961 91.1895 134.947C91.6288 134.745 92.0789 134.569 92.5331 134.398L92.2199 134.422C92.0138 134.516 91.7956 134.594 91.6098 134.709C91.5854 134.722 91.5577 134.728 91.5302 134.725C91.5026 134.722 91.4765 134.712 91.4551 134.694C91.4337 134.676 91.4181 134.653 91.4101 134.626C91.4022 134.6 91.4023 134.571 91.4105 134.545C91.3251 134.56 91.2397 134.568 91.157 134.585C91.1291 134.589 91.1007 134.584 91.0756 134.572C91.0504 134.559 91.0296 134.539 91.016 134.515C90.7692 134.568 90.5306 134.612 90.2635 134.666L91.1678 134.991ZM98.5554 132.024C97.9073 132.318 97.2579 132.589 96.6018 132.845C97.6823 132.627 98.7724 132.43 99.8543 132.176C102.911 131.434 105.886 130.385 108.733 129.042C108.166 129.065 107.598 129.112 107.028 129.183C103.939 129.565 101.347 130.75 98.5472 132.02L98.5554 132.024ZM116.921 130.5C116.925 130.527 116.919 130.555 116.903 130.578C116.888 130.602 116.865 130.618 116.838 130.625C112.541 131.952 108.119 132.829 103.644 133.24C106.186 133.649 108.622 134.412 111.232 134.358C114.169 134.302 117.433 133.349 120.248 132.526C119.702 132.048 119.108 131.628 118.475 131.275C117.957 130.983 117.439 130.724 116.913 130.496L116.921 130.5ZM120.468 132.73C120.468 132.73 120.468 132.73 120.458 132.749C116.021 134.05 111.423 135.082 106.823 134.163C104.971 133.779 103.093 133.533 101.205 133.426C100.021 133.491 98.8347 133.514 97.643 133.514C96.4963 133.629 95.3611 133.841 94.2495 134.147C95.6523 134.275 97.0356 134.563 98.3725 135.005C100.69 134.975 103.006 135.134 105.297 135.48C111.079 136.424 116.399 137.855 122.32 137.592C122.575 135.594 121.775 133.979 120.46 132.726L120.468 132.73ZM122.259 137.965C122.275 137.933 122.268 137.892 122.277 137.855C117.084 138.084 112.298 137.192 107.227 136.123C104.632 135.61 101.994 135.343 99.3474 135.324C100.772 135.814 102.182 136.375 103.584 136.856C109.252 138.806 115.027 140.342 120.995 141.002C121.608 140.079 122.033 139.046 122.248 137.96L122.259 137.965ZM120.807 141.23C115.732 140.62 110.732 139.501 105.882 137.89C103.571 137.148 101.165 136.065 98.7155 135.288C96.7456 135.266 94.7716 135.321 92.803 135.372C101.149 136.247 107.702 142.681 115.947 143.957C116.511 143.913 117.068 143.806 117.609 143.638C118.903 143.198 120.024 142.354 120.807 141.23ZM107.686 141.892C109.829 142.801 112.225 143.816 114.625 143.967C107.076 142.281 100.832 136.584 93.0578 135.668C95.1404 136.469 97.185 137.353 99.1739 138.198C102.024 139.422 104.841 140.698 107.688 141.907L107.686 141.892Z" fill="black"/>
<path d="M113.32 117.709C114.703 117.264 115.335 118.197 116.837 118.233C116.885 118.19 116.941 118.157 117.001 118.135C124.859 115.406 132.129 108.703 140.895 109.34C146.834 109.775 153.326 115.198 150.66 121.725C147.795 128.742 138.792 127.194 133.469 124.608C127.475 121.69 119.679 117.457 112.781 119.681C112.198 119.879 112.743 117.896 113.32 117.709ZM122.076 118.992C126.472 119.004 130.875 118.321 135.226 119.04C139.753 119.793 143.968 121.729 148.098 123.659C149.213 122.598 149.934 121.188 150.141 119.663C145.624 116.914 140.432 115.473 135.142 115.501L134.636 115.518C133.893 115.745 133.147 115.977 132.404 116.211C128.475 117.46 124.419 118.266 120.312 118.611C120.905 118.72 121.493 118.851 122.076 118.992ZM119.179 118.427C124.141 118.151 128.767 116.974 133.467 115.573C128.58 115.903 123.715 117.321 118.961 118.403L119.168 118.428L119.179 118.427ZM138.109 110.337C132.865 110.893 128.284 113.671 123.62 116.139C126.919 115.75 130.134 114.831 133.143 113.419C135.627 112.247 138.06 111.026 140.685 110.291C139.829 110.233 138.969 110.249 138.115 110.34L138.109 110.337ZM141.481 110.365C138.29 111.123 135.441 112.667 132.465 114.018C129.403 115.407 126.41 116.091 123.11 116.483C123.095 116.485 123.079 116.484 123.063 116.48C123.048 116.476 123.033 116.469 123.021 116.459C122.102 116.944 121.168 117.405 120.229 117.834C124.916 116.725 129.725 115.418 134.53 115.254L135.203 115.053C139.427 113.765 143.703 112.807 148.096 113.545C146.416 111.692 144 110.698 141.492 110.371L141.481 110.365ZM149.293 115.245C149.034 114.755 148.728 114.291 148.378 113.862C143.972 113.023 139.75 113.973 135.552 115.234L136.008 115.231C141.006 115.356 145.883 116.781 150.161 119.364C150.282 117.938 149.985 116.508 149.304 115.25L149.293 115.245ZM147.868 123.849C143.793 121.944 139.63 120.041 135.165 119.298C131.153 118.632 127.105 119.167 123.067 119.245C123.493 119.362 123.911 119.482 124.323 119.606C127.791 119.197 131.305 119.541 134.626 120.614C137.947 121.688 140.996 123.465 143.567 125.827C144.167 125.718 144.757 125.558 145.33 125.347C146.264 125.013 147.129 124.507 147.878 123.855L147.868 123.849ZM138.865 125.648C136.246 124.12 133.447 122.923 130.532 122.084C133.275 123.455 136.019 124.98 138.876 125.654L138.865 125.648ZM129.297 121.479C132.955 122.384 136.451 123.845 139.664 125.812C140.838 126.028 142.039 126.053 143.221 125.889C140.763 123.669 137.872 121.983 134.73 120.937C131.588 119.891 128.263 119.507 124.963 119.81C125.392 119.946 125.818 120.084 126.23 120.221C127.277 120.581 128.302 121.001 129.3 121.48L129.297 121.479Z" fill="black"/>
<path d="M123.814 74.8318C130.696 73.7818 133.616 81.8513 132.562 87.3412C130.927 95.8622 124.879 103.069 119.954 109.912C119.909 109.978 119.844 110.029 119.77 110.057C118.992 112.351 119.379 112.878 117.799 114.771C117.414 115.238 115.141 116.251 115.526 115.784C118.6 112.097 120.136 107.367 119.814 102.58C119.516 98.3576 117.672 94.3827 116.785 90.2808C115.564 84.5189 116.567 75.9342 123.814 74.8318ZM118.407 80.019C118.296 80.242 118.186 80.4622 118.079 80.677C118.079 80.677 118.079 80.677 118.087 80.7014C118.168 85.7898 118.935 90.8424 120.366 95.7226C120.302 94.0578 120.209 92.3958 120.075 90.7367C119.77 87.0164 119.264 83.3252 118.61 79.6519C118.544 79.7715 118.476 79.8939 118.408 80.0163L118.407 80.019ZM120.709 101.954C120.731 102.168 120.746 102.383 120.763 102.599C121.074 101.976 121.396 101.329 121.723 100.673C121.574 100.212 121.421 99.7725 121.288 99.3735C121.082 98.7665 120.881 98.159 120.683 97.5511C120.716 99.0158 120.725 100.482 120.71 101.951L120.709 101.954ZM122.241 102.548C121.793 103.499 121.298 104.427 120.757 105.328C120.735 105.602 120.708 105.874 120.685 106.151C121.189 104.956 121.707 103.768 122.263 102.599L122.241 102.548ZM122.143 102.126C122.05 101.756 121.945 101.395 121.837 101.043C121.498 101.756 121.139 102.443 120.804 103.114C120.828 103.663 120.822 104.213 120.796 104.76C121.282 103.893 121.735 103.019 122.145 102.123L122.143 102.126ZM120.736 96.9358C121.015 97.8016 121.499 98.963 121.929 100.213C123.683 96.3345 124.972 91.8543 123.751 87.9691C122.671 84.5385 120.361 81.7163 119.795 78.1107C119.436 78.4853 119.111 78.8914 118.825 79.3242C119.862 85.0602 120.475 90.866 120.66 96.6942C120.687 96.7689 120.71 96.8517 120.737 96.9331L120.736 96.9358ZM120.028 77.8807C120.631 82.2548 124.069 85.6666 124.469 90.0792C124.785 93.5196 123.588 97.2785 122.052 100.583C122.165 100.928 122.271 101.273 122.366 101.619C123.748 98.4676 124.558 95.0957 124.757 91.662C125.048 86.4331 123.794 81.3366 122.522 76.3162C122.517 76.2893 122.521 76.2616 122.534 76.2374C121.602 76.618 120.752 77.1751 120.03 77.878L120.028 77.8807ZM122.721 76.1677C122.734 76.1748 122.746 76.1845 122.755 76.1961C122.764 76.2078 122.771 76.2212 122.775 76.2355C124.05 81.2844 125.331 86.4284 125.037 91.6831C124.828 95.2669 123.958 98.7822 122.471 102.052L122.484 102.109C122.755 101.565 123.026 101.021 123.316 100.487C124.84 97.7021 126.665 94.993 127.441 91.8733C127.654 90.1292 127.769 88.3568 127.834 86.5899C127.549 82.9035 126.256 79.2575 125.012 75.8164C125.012 75.8164 125.022 75.7973 125.027 75.7865C124.244 75.7697 123.464 75.8961 122.725 76.1596L122.721 76.1677ZM124.566 98.8149C123.857 100.067 123.206 101.332 122.591 102.614C122.72 103.221 122.78 103.84 122.77 104.461C123.449 103.513 124.12 102.561 124.776 101.598C125.997 99.0164 126.822 96.266 127.226 93.4396C126.49 95.2957 125.604 97.0881 124.574 98.7986L124.566 98.8149ZM125.293 75.79C126.325 78.6503 127.393 81.6546 127.887 84.7117C127.938 81.967 127.898 79.2579 127.93 76.7076C127.933 76.6817 127.945 76.6576 127.964 76.6396C127.16 76.1383 126.246 75.841 125.301 75.7736L125.293 75.79ZM128.183 76.783C128.151 79.8494 128.21 83.1479 128.093 86.4711C128.231 87.9838 128.166 89.5086 127.898 91.0046C127.838 91.3143 127.768 91.6186 127.689 91.9189C127.385 94.7742 126.703 97.577 125.66 100.253C126.116 99.5571 126.558 98.854 126.986 98.1442C126.965 98.1325 126.949 98.114 126.94 98.0917C126.932 98.0694 126.931 98.0448 126.939 98.022C128.586 91.7784 130.167 85.5227 130.314 79.0299C130.314 79.0299 130.326 79.0054 130.331 78.9945C129.961 78.4302 129.525 77.9128 129.031 77.4534C128.772 77.2072 128.496 76.98 128.205 76.7735L128.183 76.783ZM131.073 89.3218C132.086 86.0617 132.3 82.2983 130.572 79.3593C130.376 85.5658 128.907 91.5686 127.333 97.5499C128.899 94.9623 130.161 92.202 131.092 89.3244L131.073 89.3218ZM122.413 104.925C122.463 104.322 122.434 103.716 122.328 103.121C121.688 104.472 121.083 105.841 120.491 107.226C120.462 107.385 120.431 107.536 120.395 107.697C121.082 106.77 121.763 105.844 122.438 104.917L122.413 104.925ZM120.416 100.178C120.432 99.867 120.438 99.6117 120.44 99.5112C120.438 98.5796 120.419 97.6467 120.393 96.7138C120.005 95.502 119.644 94.2833 119.343 93.0401C118.425 89.1749 117.916 85.2229 117.824 81.2493C115.488 87.3532 119.243 94.0764 120.44 100.17L120.416 100.178Z" fill="black"/>
<path d="M133.9 97.7553C135.515 97.3213 135.691 98.3937 137.271 98.3359C137.252 98.2666 137.252 98.1934 137.271 98.124C137.29 98.0546 137.327 97.9917 137.379 97.9419C141.784 93.3041 147.771 90.5043 154.191 90.4018C158.353 90.3315 167.238 91.4987 168.461 96.5491C170.062 103.149 159.982 103.939 155.901 103.31C147.852 102.063 141.209 97.6822 132.79 99.9347C132.2 100.106 133.319 97.9033 133.9 97.7553ZM138.735 98.3327C139.187 98.0646 139.643 97.8142 140.102 97.5814L139.809 97.6255C139.475 97.6901 139.132 97.7669 138.785 97.8586C138.628 98.0111 138.476 98.1662 138.323 98.3241L138.735 98.3327ZM142.842 98.7812C143.57 98.5705 144.279 98.3231 144.977 98.0704C143.719 97.5505 142.355 97.3416 140.998 97.4613L140.952 97.4655C140.374 97.7343 139.803 98.0302 139.242 98.3479C140.451 98.4114 141.653 98.5562 142.842 98.7812ZM145.468 97.8941C146.09 97.6646 146.708 97.4432 147.336 97.2436C146.064 97.1299 144.785 97.1186 143.51 97.2099C143.75 97.2619 143.987 97.3267 144.219 97.4039C144.638 97.5483 145.053 97.7144 145.463 97.8914L145.468 97.8941ZM153.516 91.362C150.355 91.5215 147.264 92.3523 144.445 93.7993C150.763 92.9705 157.367 93.3335 163.698 93.2135C162.932 92.8893 162.14 92.6236 161.44 92.397C158.883 91.5786 156.199 91.228 153.516 91.362ZM165.996 94.5868C165.413 94.0941 164.761 93.6901 164.061 93.388C164.06 93.4177 164.047 93.4458 164.026 93.4662C164.004 93.4866 163.975 93.4976 163.946 93.4968C157.305 93.6147 150.365 93.1996 143.759 94.1634C142.527 94.8464 141.36 95.6404 140.271 96.5354C148.65 91.7232 158.721 93.7637 167.434 97.0593C167.257 96.092 166.748 95.2177 165.996 94.5868ZM167.457 97.3526C158.425 93.9151 147.892 91.7764 139.324 97.4175C139.903 97.2696 140.492 97.1616 141.086 97.0944C145.134 95.2624 149.62 94.6352 154.009 95.2877C158.398 95.9402 162.504 97.8449 165.836 100.774C166.993 99.8469 167.554 98.599 167.457 97.3526ZM165.339 101.161C165.443 101.094 165.538 101.019 165.634 100.948C162.436 98.1485 158.519 96.3003 154.325 95.6119C150.13 94.9234 145.825 95.4222 141.893 97.0519C141.955 97.0491 142.019 97.0571 142.08 97.0569C144.044 96.8156 146.029 96.8126 147.992 97.0479C149.476 96.584 151.041 96.4385 152.583 96.6209C156.733 97.1862 160.266 99.6268 163.584 102.024C164.197 101.797 164.785 101.508 165.339 101.161ZM163.278 102.17C159.631 99.5372 155.597 96.8166 150.918 96.7957C150.064 96.796 149.214 96.9047 148.387 97.119C148.559 97.1472 148.731 97.1617 148.903 97.1967C152.711 97.927 155.866 100.142 158.701 102.672C158.713 102.683 158.722 102.696 158.729 102.71C158.736 102.725 158.739 102.74 158.74 102.756C160.278 102.844 161.82 102.641 163.285 102.157L163.278 102.17ZM158.369 102.734C155.376 100.091 152.029 97.8416 147.972 97.3196L147.75 97.297C147.058 97.5022 146.375 97.7522 145.7 98.0131C147.849 98.9657 149.934 100.297 151.923 101.455C154.019 102.119 156.183 102.544 158.375 102.72L158.369 102.734ZM150.734 101.07C149.026 100.096 147.3 99.1299 145.522 98.3082C145.425 98.2595 145.33 98.2326 145.24 98.1947C144.604 98.4379 143.979 98.6864 143.326 98.897C144.721 99.1868 146.099 99.5542 147.453 99.9973C148.487 100.313 149.592 100.691 150.741 101.056L150.734 101.07Z" fill="black"/>
<path d="M143.701 83.1855C144.863 82.3288 145.2 83.3424 146.484 82.6891C146.502 82.6272 146.531 82.5691 146.569 82.5178C149.03 79.412 151.744 76.5158 154.682 73.859C156.64 72.1192 158.801 70.5079 161.424 70.0064C165.117 69.3016 171.593 71.0025 172.165 75.4907C172.8 80.56 166.83 81.8647 163.073 81.4479C158.809 80.9753 154.833 80.999 151.048 82.0041C150.213 82.5015 149.282 82.8129 148.317 82.9173C146.541 83.6472 144.861 84.5941 143.316 85.7367C142.834 86.0976 143.214 83.5437 143.701 83.1855ZM156.263 77.1935C156.429 77.0179 156.586 76.8315 156.747 76.6505C155.787 77.0601 154.854 77.5289 153.952 78.0541L153.865 78.1262C154.498 77.9497 155.138 77.8138 155.772 77.6956C155.953 77.5309 156.109 77.3541 156.263 77.1935ZM161.355 70.9938C161.26 71.0144 161.167 71.0391 161.073 71.0637C161.075 71.0846 161.071 71.1055 161.062 71.1242C161.052 71.143 161.038 71.1587 161.02 71.1697C157.451 73.216 154.724 76.3277 151.601 78.9393C151.978 78.7877 152.372 78.6212 152.756 78.4967C153.096 78.276 153.436 78.062 153.785 77.8589C155.254 76.6134 156.846 75.521 158.535 74.5987C159.498 73.4084 160.431 72.2031 161.355 70.9938ZM159.163 74.2429C161.68 72.9531 164.373 72.0442 167.154 71.546C165.451 70.823 163.576 70.6056 161.751 70.9196C160.898 72.0324 160.044 73.1478 159.163 74.2429ZM150.574 81.0451C151.219 80.2913 151.903 79.5714 152.622 78.8881C151.495 79.6432 150.431 80.4889 149.441 81.4169C149.815 81.2844 150.195 81.1613 150.574 81.0451ZM155.126 77.1118C155.798 76.7681 156.468 76.457 157.167 76.1811C157.468 75.8423 157.768 75.4994 158.061 75.1498C157.043 75.7419 156.062 76.3972 155.126 77.1118ZM153.389 78.5578C152.562 79.2962 151.779 80.0824 151.043 80.9123C151.437 80.8028 151.828 80.696 152.215 80.6001C152.855 80.1587 153.523 79.7077 154.216 79.3029C154.661 78.8795 155.081 78.4508 155.482 78.0331C154.774 78.1662 154.074 78.341 153.386 78.5565L153.389 78.5578ZM148.792 81.6669C149.716 80.7563 150.708 79.9174 151.759 79.1575C151.404 79.3199 151.054 79.485 150.71 79.6528C150.282 79.9892 149.844 80.3174 149.395 80.6267C149.044 81.0321 148.694 81.4349 148.351 81.8444L148.792 81.6669ZM153.303 76.4476C152.291 77.4399 151.316 78.4646 150.368 79.5164L150.578 79.4073C153.905 76.8089 156.685 73.5232 160.294 71.2827L160.234 71.3005C157.502 72.2775 155.311 74.485 153.298 76.4585L153.303 76.4476ZM167.592 71.7337C164.487 72.2469 161.488 73.2761 158.72 74.7789C158.388 75.1803 158.055 75.5748 157.714 75.9748C161.861 74.426 166.34 73.9956 170.701 74.7267C170.717 74.7348 170.728 74.7402 170.741 74.7469C170.32 73.7742 169.618 72.9508 168.724 72.3831C168.359 72.1454 167.979 71.9321 167.586 71.7446L167.592 71.7337ZM170.794 74.8921C170.786 74.9228 170.767 74.9492 170.74 74.9662C170.714 74.9831 170.682 74.9893 170.651 74.9834C166.177 74.2305 161.581 74.7149 157.357 76.3844C156.987 76.8008 156.607 77.209 156.224 77.6118C160.684 76.9433 165.371 77.7287 169.806 79.0063C170.361 78.4988 170.752 77.8363 170.927 77.1046C171.102 76.373 171.054 75.606 170.789 74.903L170.794 74.8921ZM153.676 80.3035C155.559 80.0312 157.465 79.9682 159.36 80.1158C162.255 80.2791 165.453 81.2661 168.225 80.0446C168.709 79.8333 169.161 79.5543 169.566 79.216C165.1 77.9466 160.381 77.1857 155.902 77.9439C155.6 78.2514 155.292 78.5563 154.983 78.8435C155.778 78.3964 156.635 78.0717 157.525 77.8805C159.868 77.4394 162.359 79.126 164.187 80.3495C164.329 80.4443 164.205 80.6985 164.066 80.5915C161.676 78.989 159.152 77.4627 156.25 78.6669C155.399 79.0309 154.577 79.4585 153.79 79.9461C153.632 80.0877 153.466 80.2293 153.297 80.3791C153.417 80.3679 153.539 80.3337 153.671 80.3144L153.676 80.3035Z" fill="black"/>
<path d="M135.418 53.7165C137.484 52.7097 139.842 52.9924 141.756 54.1845C144.492 55.8882 145.57 58.5203 146.16 61.5677C147.687 69.3701 143.615 76.628 140.837 83.6523C140.83 83.6711 140.821 83.6893 140.81 83.7067C141.038 85.3412 141.834 85.3136 142.029 86.9455C142.101 87.5483 140.568 89.2722 140.49 88.6735C139.453 79.9779 138.052 71.7869 133.621 64.1321C131.531 60.5272 130.912 55.8965 135.418 53.7165ZM141.565 55.1586C143.041 59.5403 142.566 64.2196 142.4 68.7706C142.306 71.3687 142.625 74.6747 141.892 77.4426C141.828 78.1034 141.727 78.7602 141.588 79.4096C141.71 79.1309 141.824 78.8686 141.941 78.594C142.64 76.0028 142.694 73.1984 143.159 70.5751C143.704 67.5062 144.443 64.4762 145.184 61.4476C144.689 58.9704 143.641 56.5704 141.563 55.1641L141.565 55.1586ZM145.314 62.0965C144.546 65.2406 143.794 68.3928 143.269 71.5839C142.957 73.4857 142.838 75.4428 142.499 77.3108C144.322 72.9748 145.915 68.4899 145.531 63.8342C145.484 63.264 145.412 62.6816 145.314 62.0965ZM141.004 80.7987C141.176 80.1139 141.327 79.4251 141.44 78.735C141.397 78.822 141.352 78.9117 141.305 79.0069C141.263 79.566 141.079 80.1054 140.771 80.5738C140.752 80.6119 140.734 80.6473 140.716 80.6826C140.706 80.7038 140.69 80.7214 140.67 80.7331C140.649 80.7448 140.626 80.75 140.603 80.748C140.579 80.7731 140.553 80.7967 140.527 80.8188C140.493 80.9818 140.456 81.1436 140.421 81.3025C140.452 81.498 140.486 81.6948 140.516 81.893C140.693 81.53 140.848 81.1657 141.004 80.7987ZM140.341 80.492L140.348 80.4783C140.346 80.4832 140.344 80.4879 140.341 80.492ZM140.482 79.8833C140.623 79.2067 140.758 78.5138 140.886 77.8101C140.804 77.2521 140.665 76.7042 140.472 76.1746C140.284 76.7259 140.066 77.2667 139.82 77.7948C139.982 78.5839 140.13 79.3761 140.264 80.1716C140.336 80.0886 140.407 79.9921 140.478 79.8914L140.482 79.8833ZM140.322 75.7703C139.818 74.5799 139.196 73.4439 138.464 72.3794C138.966 74.0079 139.379 75.6637 139.72 77.3306C139.947 76.8242 140.146 76.3061 140.318 75.7784L140.322 75.7703ZM137.805 70.3873C137.935 70.7442 138.044 71.1038 138.163 71.4621C139.053 72.6882 139.817 74.0008 140.445 75.3802C140.684 74.5767 140.858 73.7552 140.966 72.9238C140.871 72.7 140.762 72.4829 140.646 72.2551C139.448 70.0319 137.759 68.049 135.93 66.2713C136.656 67.5971 137.281 68.9757 137.801 70.3955L137.805 70.3873ZM140.605 75.7655C140.772 76.1876 140.909 76.6212 141.015 77.0629C141.048 76.8591 141.082 76.6554 141.12 76.4366C141.229 75.2074 141.288 74.144 141.283 74.0123C141.277 73.8806 141.271 73.8466 141.267 73.7665C141.263 73.6864 141.202 73.5439 141.164 73.4367C141.035 74.2288 140.847 75.01 140.601 75.7737L140.605 75.7655ZM141.532 75.4743C141.516 75.8735 141.495 76.2769 141.458 76.6763C141.421 77.0756 141.425 77.5835 141.415 78.1212C141.484 77.9283 141.55 77.7339 141.607 77.5382C141.681 76.7684 141.671 75.993 141.579 75.2256C141.554 75.3085 141.541 75.3968 141.528 75.4824L141.532 75.4743ZM134.41 63.6089C134.775 64.2355 135.137 64.8675 135.495 65.5077C137.645 67.4897 139.772 69.8303 141.022 72.4294C141.036 72.3004 141.044 72.1686 141.054 72.041C140.759 70.5149 140.238 69.0421 139.508 67.6716C137.752 64.3145 135.353 61.2344 132.972 58.3024C132.864 58.1668 133.089 58.021 133.196 58.1525C136.237 61.8721 139.834 66.1269 141.1 70.8825C141.097 65.3609 138.276 60.0642 134.565 55.7051C134.454 55.575 134.682 55.4237 134.788 55.5579C138.782 60.2654 141.726 66.0005 141.336 71.9575C141.423 72.4667 141.485 72.9801 141.52 73.4957C142.261 66.5765 141.629 59.2338 136.886 54.4316C136.764 54.3096 136.938 54.1178 137.064 54.2316C142.045 59.275 142.568 67.0348 141.705 74.2394C141.846 74.8436 141.925 75.461 141.941 76.0818C142.47 72.9816 142.125 69.3837 142.222 66.7639C142.371 62.7643 142.601 58.8053 141.247 54.976C141.247 54.976 141.256 54.957 141.262 54.9461C140.958 54.7641 140.641 54.6059 140.312 54.4729C139.122 53.9751 137.794 53.9163 136.563 54.3069C135.332 54.6974 134.278 55.5121 133.588 56.6062C132.057 59.092 133.1 61.3603 134.406 63.6171L134.41 63.6089Z" fill="black"/>
<path d="M151.76 66.4848C155.382 62.0171 159.519 57.9042 163.61 53.8673C166.492 51.02 172.474 47.0836 175.153 52.4933C177.358 56.9671 173.229 61.3788 169.036 62.3441C164.607 63.3778 159.733 62.4584 155.399 63.8925C155.341 63.9099 155.28 63.9165 155.22 63.9119C154.279 64.9569 152.172 68.4624 151.287 69.5521C150.892 70.0242 151.379 66.9568 151.76 66.4848ZM161.082 57.7364C160.056 58.7897 159.016 59.8431 158 60.9087C158.461 60.6542 158.962 60.4791 159.481 60.3907C159.61 60.275 159.738 60.1593 159.87 60.0449C161.023 58.7066 162.293 57.4744 163.666 56.3631C164.677 55.1156 165.618 53.8058 166.558 52.4919C166.194 52.742 165.847 53.0144 165.518 53.3076C163.983 54.7084 162.546 56.2529 161.082 57.7364ZM157.834 62.4042L158.052 62.3738C158.114 62.2895 158.175 62.2011 158.234 62.1249C158.222 62.106 158.216 62.0844 158.216 62.0623C158.217 62.0402 158.223 62.0186 158.235 62C158.214 62.0165 158.193 62.0319 158.171 62.0463C158.07 62.1619 157.957 62.2858 157.842 62.4082L157.834 62.4042ZM168.765 61.2583C166.969 60.4135 164.531 59.3746 162.514 59.9848C162.147 60.1007 161.79 60.2477 161.448 60.4244C162.624 60.6562 163.726 61.1695 164.66 61.9206C166.043 61.8042 167.415 61.5828 168.765 61.2583ZM160.557 60.5879C160.381 60.5831 160.205 60.5871 160.03 60.6C159.877 60.7307 159.725 60.8654 159.568 60.9907C159.345 61.2194 159.139 61.4222 158.93 61.644C158.84 61.765 158.743 61.8902 158.658 62.0004C159.23 61.5242 159.828 61.0813 160.45 60.6737C160.491 60.6397 160.525 60.6125 160.56 60.5825L160.557 60.5879ZM161.757 58.5687C162.031 58.2775 162.301 57.9808 162.569 57.6801C162.118 58.0867 161.683 58.5077 161.262 58.9432C161.426 58.8111 161.585 58.6967 161.76 58.5632L161.757 58.5687ZM167.16 52.1199C166.31 53.329 165.45 54.53 164.548 55.6931C167.084 53.8075 169.904 52.3401 172.901 51.3467C171.314 50.4159 169.032 50.9995 167.162 52.1144L167.16 52.1199ZM173.187 51.5335C169.796 52.6315 166.633 54.3399 163.852 56.5746C163.487 57.0276 163.109 57.4739 162.722 57.9093C166.289 55.6034 170.366 54.2128 174.593 53.8607C174.412 52.9423 173.916 52.117 173.19 51.528L173.187 51.5335ZM174.675 54.2L174.656 54.1226C170.595 54.457 166.67 55.7597 163.21 57.9218C163.783 57.6191 164.377 57.3604 164.988 57.1479C168.076 56.094 171.566 56.089 174.794 55.8144C174.821 55.2716 174.782 54.7276 174.678 54.1945L174.675 54.2ZM174.781 56.0928C171.824 56.3397 168.686 56.3914 165.828 57.1732C164.068 57.6776 162.429 58.5381 161.013 59.7015C160.796 59.9125 160.574 60.1207 160.361 60.3304C160.535 60.3293 160.71 60.3371 160.884 60.3537C162.194 59.3771 163.639 58.57 165.184 58.2542C167.774 57.7257 170.842 58.5459 173.397 58.9911C174.187 58.2161 174.675 57.1843 174.773 56.082L174.781 56.0928ZM173.135 59.2103C170.751 58.7892 168.002 58.1448 165.628 58.4787C164.397 58.6824 163.221 59.1355 162.171 59.8103C162.439 59.7139 162.715 59.6402 162.995 59.5899C164.958 59.2583 167.186 60.2161 168.917 61.0353C168.933 61.0416 168.947 61.0514 168.959 61.0639C168.971 61.0763 168.98 61.0912 168.985 61.1075C168.99 61.1238 168.992 61.141 168.99 61.158C168.988 61.1751 168.983 61.1916 168.974 61.2063C170.552 60.7913 172.06 60.1646 173.138 59.2049L173.135 59.2103ZM164.26 61.9554C163.324 61.2518 162.225 60.7952 161.066 60.6275C160.913 60.7175 160.754 60.8116 160.594 60.8948C160.033 61.3414 159.493 61.8057 158.991 62.2753C160.664 62.1249 162.369 62.0954 163.971 61.971L164.26 61.9554ZM156.879 62.5665C157.265 62.3357 157.642 62.0927 158.011 61.8375C158.362 61.466 158.716 61.1026 159.097 60.7596C158.108 61.0368 157.243 61.6438 156.645 62.4801C156.629 62.5027 156.605 62.5185 156.579 62.5241C156.552 62.5297 156.524 62.5248 156.501 62.5103L156.349 62.6723C156.528 62.6257 156.706 62.5954 156.882 62.5611L156.879 62.5665Z" fill="black"/>
<path d="M144.447 33.8902C149.333 34.758 151.654 40.5393 152.208 44.8076C153.247 52.7332 154.451 54.3724 154.346 57.6915C154.327 58.2932 152.743 60.5754 152.76 59.9561C152.792 58.0265 152.726 56.0967 152.562 54.1742C152.483 54.137 152.417 54.0759 152.375 53.9994C149.222 48.4115 141.661 47.0009 139.04 41.0872C137.275 37.1041 139.952 33.0921 144.447 33.8902ZM144.673 42.3717C145.511 42.9388 146.308 43.5632 147.06 44.2404C147.656 44.7755 148.208 45.3324 148.771 45.9219C148.627 45.2459 148.505 44.5605 148.417 43.8681L148.334 43.6537C146.885 39.974 145.156 35.7681 140.667 35.3733C140.432 35.5609 140.226 35.7819 140.055 36.0292C142.471 37.3425 143.278 39.9209 144.589 42.2076L144.673 42.3717ZM151.129 50.8014L151.058 50.6237C150.747 50.3419 150.45 50.0614 150.167 49.7823C150.189 49.8339 150.203 49.8882 150.222 49.9384C150.534 50.2161 150.835 50.5019 151.129 50.8014ZM152.175 50.4134C151.828 49.9688 151.478 49.5228 151.123 49.0808C151.503 50.0102 151.925 50.93 152.346 51.8566C152.295 51.376 152.238 50.8949 152.175 50.4134ZM152.056 51.8613C151.636 50.9727 151.205 50.0788 150.828 49.1508L151.668 51.3896C151.801 51.5441 151.929 51.7027 152.056 51.8613ZM150.826 50.0362L149.845 47.5301C149.678 47.3349 149.514 47.1411 149.346 46.9418C149.515 47.7015 149.723 48.4521 149.968 49.1907C150.246 49.482 150.534 49.7611 150.826 50.0362ZM149.56 46.811L149.061 45.5438C149.115 45.8424 149.165 46.1424 149.226 46.441L149.56 46.811ZM148.873 46.431C147.839 45.2784 146.7 44.2244 145.472 43.2825C145.331 43.1782 145.187 43.0794 145.042 42.9833C146.322 45.0603 147.822 46.9921 149.517 48.7449C149.267 47.9823 149.052 47.211 148.873 46.431ZM140.998 35.1512C144.148 35.5544 146.095 37.9306 147.419 40.7292C147.716 41.3628 148.001 42.0072 148.28 42.6557C148.042 40.1236 147.885 37.5057 146.084 35.6845C144.434 34.7634 142.417 34.3211 140.998 35.1512ZM146.836 36.1745C147.703 37.354 148.122 38.7885 148.337 40.3415C148.503 41.562 148.642 42.7513 148.807 43.927C149.306 45.1399 149.781 46.3678 150.245 47.5971C150.044 46.9965 149.888 46.3818 149.777 45.7581C149.335 43.2495 149.625 40.7325 148.822 38.2953C148.659 38.0445 148.491 37.7909 148.307 37.5564C147.888 37.0245 147.392 36.5587 146.836 36.1745ZM149.353 39.1986C149.745 40.9183 149.739 42.6701 149.896 44.4528C150.029 45.7627 150.337 47.0485 150.81 48.2762C151.251 48.8117 151.682 49.3526 152.109 49.8948L152.028 49.2703C151.568 45.9144 151.012 42.2423 149.353 39.1986ZM146.711 47.2682C146.077 46.2482 145.327 45.3048 144.477 44.4567C143.376 43.4053 142.051 42.7278 140.677 42.1239C141.48 43.1709 142.415 44.1103 143.457 44.9192C144.518 45.7534 145.623 46.5115 146.711 47.2682ZM140.392 41.7035C143.524 43.0749 145.422 44.8905 147.267 47.654C148.145 48.2713 149.014 48.9049 149.814 49.5821C149.784 49.5061 149.758 49.4288 149.732 49.3514C148.274 47.9019 146.952 46.3211 145.783 44.6289C145.38 44.0277 145.013 43.4037 144.683 42.7601C142.981 41.7453 140.864 41.09 139.475 39.7392C139.675 40.4386 139.984 41.1016 140.392 41.7035ZM139.443 37.4958C139.305 38.064 139.283 38.654 139.38 39.2301C140.516 40.5299 142.303 40.9456 143.753 41.7871C143.972 41.9169 144.185 42.0536 144.398 42.1903C143.219 39.9047 142.036 37.4209 139.921 36.278C139.698 36.6553 139.533 37.0634 139.429 37.4891L139.443 37.4958Z" fill="black"/>
<path d="M143.79 18.5911C147.054 16.4641 150.299 19.8981 151.85 22.4368C154.251 26.3737 155.14 30.6359 155.822 35.1415C155.833 35.2183 155.823 35.2967 155.793 35.3684C156.599 36.5576 157.217 37.8843 157.252 39.3142C157.266 39.9185 156.283 41.7607 156.271 41.1537C156.201 38.4202 153.909 34.3065 152.142 32.526C149.986 30.3512 147.474 28.8032 145.134 26.8895C142.857 25.0246 140.44 20.7673 143.79 18.5911ZM145.041 25.5875L145.509 26.0074C146.971 26.8105 148.389 27.6899 149.758 28.642C149.242 27.9329 148.725 27.2238 148.218 26.5161L147.777 25.8652C146.391 24.912 144.931 24.0706 143.412 23.349C143.402 23.3441 143.392 23.3374 143.385 23.329C143.378 23.3206 143.372 23.3108 143.368 23.3002C143.76 24.1707 144.331 24.9483 145.044 25.582L145.041 25.5875ZM153.429 32.5327L153.442 32.5055C153.262 32.1338 153.079 31.7608 152.907 31.3864C152.303 30.8816 151.686 30.3918 151.056 29.917C151.393 30.3739 151.738 30.824 152.073 31.2727C152.527 31.6647 152.976 32.0806 153.418 32.5205L153.429 32.5327ZM154.353 31.9549C154.333 31.95 154.315 31.9408 154.299 31.9278C154.09 31.6675 153.875 31.4209 153.645 31.1607C153.654 31.2869 153.656 31.4173 153.664 31.5436L153.788 31.7918C154.003 31.9773 154.214 32.167 154.426 32.358L154.353 31.9549ZM144.834 19.166C146.629 20.105 148.277 21.3028 149.724 22.7212C148.995 21.0675 147.921 19.7037 145.814 19.0199C145.479 19.0116 145.144 19.0568 144.823 19.1538L144.834 19.166ZM144.504 19.3039C144.003 19.5543 143.61 19.9785 143.398 20.4973C146.691 21.6809 149.286 24.4143 151.335 27.51C151.221 27.1748 151.099 26.8424 150.992 26.5004C150.649 25.4094 150.353 24.3318 149.971 23.3332C148.382 21.6904 146.532 20.3222 144.497 19.2835L144.504 19.3039ZM152.386 29.1916L152.665 29.6704C152.889 29.9007 153.096 30.1162 153.304 30.3452C153.106 28.4608 152.62 26.6435 151.446 25.0464C151.203 24.7183 150.936 24.3916 150.654 24.0677C151.26 25.7584 151.789 27.4819 152.375 29.1794L152.386 29.1916ZM153.256 31.3231L153.038 30.9053L153.195 31.2689L153.256 31.3231ZM153.172 30.6022L153.342 30.9413C153.339 30.8924 153.332 30.8449 153.327 30.7947C153.275 30.7215 153.222 30.651 153.163 30.5873L153.172 30.6022ZM154.502 32.7829L154.104 32.428C154.285 32.8037 154.463 33.1741 154.63 33.539L154.502 32.7829ZM153.689 32.194L153.694 32.4275C153.772 32.5917 153.845 32.7572 153.925 32.9227C153.935 32.942 153.94 32.9635 153.94 32.9853C153.939 33.0071 153.934 33.0285 153.924 33.0476C154.052 33.1831 154.176 33.3227 154.299 33.4623C154.097 33.0355 153.89 32.6077 153.679 32.1791L153.689 32.194ZM150.259 29.3362C149.075 28.4846 147.856 27.6834 146.594 26.942C148.085 28.1677 149.639 29.2751 151.13 30.4872C150.828 30.0886 150.534 29.7077 150.249 29.3213L150.259 29.3362ZM150.53 29.1998C151.251 29.7224 151.958 30.2672 152.65 30.8342C152.444 30.3648 152.242 29.894 152.05 29.4178C150.959 28.3273 149.788 27.3212 148.546 26.4081C149.196 27.326 149.855 28.2588 150.52 29.1849L150.53 29.1998ZM151.818 28.8235L151.759 28.6756C149.633 25.212 146.867 22.02 143.296 20.7487C143.258 20.8248 143.249 20.9253 143.227 21.0164C144.782 21.5507 145.853 22.6279 146.855 24.0204C147.254 24.579 147.65 25.143 148.046 25.7071C149.379 26.6397 150.636 27.6763 151.806 28.8072L151.818 28.8235ZM152.072 24.7341C151.168 22.9557 150.053 20.8995 148.352 19.7965C147.887 19.4984 147.377 19.2785 146.842 19.1452C148.306 19.8187 149.455 21.0285 150.055 22.5263C150.177 22.8248 150.292 23.1233 150.407 23.4218C150.852 23.8943 151.272 24.3893 151.666 24.9047C152.963 26.621 153.434 28.6312 153.607 30.7004C153.822 30.9498 154.035 31.2019 154.245 31.4594C153.828 29.1227 153.094 26.8549 152.063 24.7191L152.072 24.7341ZM143.109 21.8776C143.103 22.3366 143.188 22.7919 143.359 23.2174C143.356 23.1942 143.36 23.1709 143.37 23.1497C143.38 23.1285 143.395 23.1103 143.414 23.097C143.433 23.0836 143.455 23.0756 143.478 23.0738C143.502 23.072 143.525 23.0764 143.546 23.0866C144.882 23.727 146.171 24.4606 147.404 25.2821C146.283 23.6061 145.105 21.9764 143.163 21.2868C143.131 21.4774 143.11 21.6697 143.1 21.8627L143.109 21.8776Z" fill="black"/>
<path d="M160.254 41.259C161.474 39.0088 162.586 36.3108 164.347 34.4084C165.955 32.6843 170.381 30.0604 172.514 32.3697C174.833 34.904 172.676 39.6169 170.111 41.0403C166.7 42.9314 162.551 43.1646 159.193 45.3299C159.193 45.3299 159.164 45.3395 159.151 45.3463C158.454 46.6963 157.76 48.068 157.105 49.4492C156.834 49.993 155.947 48.4917 156.213 47.9452C157.453 45.3215 158.861 43.8233 160.254 41.259ZM160.487 43.4462C160.849 43.1738 161.209 42.8883 161.568 42.5896C161.755 42.2144 161.942 41.8392 162.129 41.464C161.763 41.6796 161.414 41.9247 161.087 42.1969C160.873 42.6039 160.673 43.0203 160.487 43.4462ZM161.241 43.1974L161.268 43.1838L161.277 43.1674C161.277 43.1674 161.252 43.1892 161.241 43.1974ZM161.789 40.9989C161.659 41.1988 161.539 41.4042 161.42 41.6095C161.72 41.397 162.034 41.2039 162.358 41.0316C162.541 40.6646 162.724 40.2975 162.925 39.9562C162.521 40.2754 162.142 40.6239 161.789 40.9989ZM163.233 39.3933C163.414 39.0697 163.6 38.7448 163.789 38.428C163.34 38.9071 162.918 39.4108 162.525 39.9367C162.756 39.7443 162.992 39.5632 163.233 39.3933ZM162.765 40.827C163.257 40.5944 163.763 40.3932 164.281 40.2248C165.212 39.389 166.148 38.5585 167.114 37.7742C165.805 38.1885 164.565 38.7968 163.435 39.5789C163.207 39.9882 162.982 40.4056 162.765 40.827ZM162.564 41.2294C162.41 41.5394 162.255 41.8494 162.101 42.1593C162.677 41.6828 163.226 41.1859 163.782 40.689C163.359 40.8398 162.946 41.0172 162.545 41.22L162.564 41.2294ZM166.705 33.6726C164.708 34.9617 163.68 37.0227 162.558 39.0363C162.215 39.6495 161.877 40.2654 161.539 40.8814C161.545 40.8672 161.552 40.8536 161.56 40.8406C162.365 39.5765 163.329 38.4211 164.428 37.4026C165.678 35.5204 167.181 33.8454 169.206 32.6282C168.313 32.8136 167.462 33.1671 166.699 33.6699L166.705 33.6726ZM169.742 32.5659C169.744 32.5863 169.74 32.6068 169.731 32.6251C169.722 32.6435 169.708 32.6588 169.69 32.6693C167.951 33.6749 166.448 35.0453 165.287 36.6864C167.214 35.1134 169.45 33.9633 171.848 33.3109C171.579 33.0303 171.248 32.8166 170.881 32.6868C170.514 32.5571 170.122 32.5147 169.736 32.5632L169.742 32.5659ZM172.296 34.016C172.219 33.8474 172.126 33.687 172.017 33.5373C169.262 34.2686 166.727 35.6646 164.633 37.6031C164.32 38.075 164.023 38.5618 163.736 39.0568C164.963 38.2948 166.292 37.7124 167.682 37.3275C169.114 36.1794 170.696 35.2341 172.384 34.5183C172.41 34.5087 172.439 34.5096 172.464 34.5209C172.423 34.3464 172.365 34.1764 172.291 34.0133L172.296 34.016ZM172.506 34.7353C172.498 34.7516 172.491 34.7652 172.467 34.7734C171.003 35.3856 169.621 36.1793 168.353 37.1359C169.685 36.812 171.039 36.5929 172.405 36.4806C172.563 35.9116 172.596 35.315 172.501 34.7326L172.506 34.7353ZM172.312 36.7673C170.785 36.8957 169.273 37.1645 167.795 37.5703C166.794 38.348 165.835 39.1866 164.873 40.0347C166.85 39.4655 168.981 39.1973 170.845 38.8197C170.869 38.8149 170.894 38.8161 170.917 38.8231C170.94 38.8302 170.961 38.8429 170.978 38.8601C170.995 38.8773 171.007 38.8985 171.014 38.9217C171.021 38.945 171.021 38.9695 171.016 38.9932C171.585 38.3394 172.023 37.5829 172.307 36.7646L172.312 36.7673ZM166.17 41.4075C167.205 41.0617 168.382 40.8133 169.366 40.3467C169.979 40.03 170.522 39.5949 170.966 39.0666L170.957 39.0856C168.934 39.4962 166.554 39.7662 164.431 40.4662C163.565 41.2463 162.696 42.0249 161.801 42.767L161.666 43.0389C163.127 42.4029 164.667 41.9011 166.175 41.4102L166.17 41.4075ZM160.058 43.7717C160.174 43.4904 160.296 43.2117 160.426 42.9371C160.279 43.2335 160.111 43.5231 159.955 43.8154L160.058 43.7717Z" fill="black"/>
<path d="M158.803 29.6649C159.204 25.8929 160.939 22.1546 163.03 19.0348C164.342 17.0818 166.777 13.7738 169.505 13.8506C173.202 13.9592 172.839 18.6328 171.236 20.7195C169.708 22.7042 167.301 23.9209 165.262 25.2874C163.781 26.2372 162.394 27.3256 161.118 28.5381C161.07 28.636 161.04 28.7434 161.006 28.8453C160.972 28.9472 160.858 28.9312 160.797 28.8634C159.824 29.8854 159.119 32.9832 158.498 34.3371C158.246 34.8904 157.274 32.5215 157.524 31.9709C157.88 31.1969 158.312 30.4603 158.814 29.7722C158.806 29.737 158.802 29.701 158.803 29.6649ZM170.326 15.3806C166.763 18.3516 163.92 22.0944 162.012 26.3253C163.592 24.5032 165.402 22.895 167.397 21.5415C168.783 19.8124 169.995 17.9501 171.015 15.982C170.831 15.7446 170.602 15.547 170.34 15.4009L170.326 15.3806ZM161.319 27.0493L161.453 26.9295C161.537 26.7609 161.602 26.5829 161.68 26.4144C161.56 26.64 161.441 26.8521 161.322 27.0643L161.319 27.0493ZM170.065 15.2535C169.721 15.1202 169.353 15.0605 168.984 15.078C167.987 16.4617 167.02 17.8613 166.081 19.2765C167.288 17.824 168.622 16.4826 170.067 15.2684L170.065 15.2535ZM162.805 25.8483C163.2 25.5541 163.603 25.264 164.014 24.9779C164.134 24.8948 164.257 24.8171 164.38 24.7326C165.031 24.1065 165.699 23.4858 166.311 22.8095C166.446 22.6598 166.577 22.5074 166.708 22.3591C165.3 23.4002 163.994 24.5736 162.808 25.8632L162.805 25.8483ZM160.083 28.2253C160.07 28.2082 160.063 28.188 160.061 28.1668C160.06 28.1457 160.064 28.1246 160.074 28.1059C162.2 24.1277 164.327 20.15 166.454 16.1727C165.311 17.1068 164.331 18.509 163.534 19.843C162.569 22.3825 161.46 24.8651 160.213 27.2785C160.119 27.6359 160.036 27.9919 159.962 28.3519C160 28.3369 160.038 28.2947 160.08 28.2512L160.083 28.2253ZM160.665 25.8C161.349 24.4025 161.987 22.9838 162.581 21.544C162.5 21.7071 162.422 21.8621 162.348 22.0116C161.691 23.2432 161.126 24.5218 160.657 25.8367L160.665 25.8ZM166.965 15.7791L160.594 27.7028L160.705 27.5953C163.106 23.2758 165.754 19.0985 168.636 15.0842C168.405 15.1194 168.178 15.1767 167.958 15.2555C167.603 15.4011 167.267 15.5893 166.957 15.8158L166.965 15.7791ZM171.472 18.1687C171.632 17.5012 171.535 16.7985 171.201 16.2002C170.315 17.8953 169.289 19.513 168.133 21.036C169.028 20.4637 169.979 19.9197 170.98 19.4001C171.202 19.0293 171.365 18.6263 171.464 18.2054L171.472 18.1687ZM168.644 21.851C169.421 21.289 170.112 20.6169 170.695 19.8557C169.631 20.4158 168.598 21.0342 167.601 21.708C167.462 21.8794 167.322 22.0509 167.18 22.2209C166.659 22.8305 166.103 23.4021 165.535 23.9574C166.581 23.3209 167.644 22.649 168.636 21.8877L168.644 21.851Z" fill="black"/>
<path d="M157.418 12.4514C157.213 9.15463 159.621 -3.31569 165.446 0.837749C167.695 2.43792 166.375 5.14054 164.918 6.7394C162.32 9.59284 157.47 11.9176 157.122 16.2626C157.075 16.867 156.156 16.6802 156.196 16.0826C156.326 14.8563 156.766 13.6828 157.476 12.6739C157.438 12.6058 157.418 12.5293 157.418 12.4514ZM161.609 2.10237C160.377 4.57392 159.25 7.07104 158.825 9.79882C159.069 9.50807 159.328 9.23055 159.602 8.96739C159.877 8.49692 160.141 8.02103 160.411 7.54785C160.411 7.54785 160.403 7.51664 160.412 7.49761C161.346 5.71484 161.911 3.76271 162.076 1.75778C161.913 1.86678 161.757 1.98254 161.609 2.10237ZM158.922 10.0987C158.864 10.1749 158.809 10.2524 158.753 10.3299L158.742 10.3992L158.922 10.0987ZM158.322 11.0995C158.383 10.9772 158.461 10.867 158.533 10.7501C158.514 10.7439 158.496 10.7347 158.479 10.723C158.436 10.81 158.375 10.8848 158.319 10.9827L158.322 11.0995ZM158.344 10.4313C158.383 10.3525 158.448 10.2899 158.499 10.2205C158.838 7.50379 159.882 5.04352 161.067 2.59924C160.941 2.7294 160.823 2.86657 160.713 3.01012C159.173 5.08718 158.467 7.81422 158.342 10.4341L158.344 10.4313ZM162.359 1.56973C162.269 2.8783 162.01 4.17011 161.59 5.41319C162.367 3.97744 163.115 2.5309 163.834 1.06268C163.307 1.11456 162.8 1.29115 162.355 1.5779L162.359 1.56973ZM164.127 1.07289C162.961 3.47232 161.708 5.82167 160.385 8.1359C160.414 8.0788 160.462 8.03524 160.505 7.9849C162.108 6.03807 164.214 4.66049 165.534 2.47392C165.51 2.35223 165.474 2.23317 165.427 2.11837C165.324 1.84319 165.148 1.60139 164.919 1.4187C164.689 1.23601 164.414 1.11931 164.123 1.08106L164.127 1.07289ZM165.59 2.89207C164.584 4.42747 163.224 5.54538 161.929 6.83833C161.634 7.13231 161.36 7.43712 161.089 7.75006C162.257 6.90687 163.539 6.18431 164.739 5.44834C165.214 4.72484 165.626 3.76926 165.586 2.90024L165.59 2.89207ZM162.152 7.92695C162.885 7.36731 163.578 6.7563 164.225 6.09857L164.274 6.04143C162.892 6.81304 161.574 7.69279 160.331 8.67243C159.74 9.45492 159.196 10.2719 158.701 11.119C159.768 9.97201 160.92 8.90766 162.148 7.93512L162.152 7.92695Z" fill="black"/>
<path d="M142.119 8.05549C143.625 6.46738 146.274 6.81732 148.008 7.74642C151.599 9.66548 152.864 14.0273 154.62 17.4048C155.406 18.0716 156.141 18.7968 156.819 19.5741C157.211 20.024 156.582 20.7289 156.19 20.2789C155.517 19.506 154.786 18.7862 154.003 18.1259C153.978 18.1078 153.956 18.0874 153.935 18.0649C152.567 16.929 151.068 15.9617 149.47 15.1836C147.518 14.2102 145.324 13.5849 143.539 12.311C142.084 11.2903 140.568 9.69258 142.119 8.05549ZM143.162 11.0367C145.532 11.8109 147.573 13.2635 149.836 14.2933C149.853 14.3014 149.861 14.3055 149.874 14.3122L149.888 14.319C150.069 14.4096 150.248 14.4988 150.43 14.5894C148.052 12.7247 145.583 11.049 142.637 10.242C142.764 10.5358 142.941 10.8048 143.162 11.0367ZM151.823 15.3957C152.197 15.623 152.559 15.8612 152.919 16.1089C152.815 16.0128 152.712 15.9206 152.612 15.8231C152.592 15.8224 152.572 15.8174 152.555 15.8085C152.537 15.7997 152.521 15.7871 152.509 15.7717L152.34 15.5521C151.212 14.4193 150.223 13.1721 149.036 12.102C147.216 10.4643 144.916 9.46011 142.477 9.23886C142.431 9.47735 142.443 9.72319 142.512 9.95579C146.101 10.893 148.996 13.0866 151.836 15.4025L151.823 15.3957ZM151.879 13.876C149.477 11.7343 147.758 9.24076 144.834 7.93268C144.588 7.95211 144.344 7.98896 144.102 8.04295C147.697 9.4446 150.186 12.3425 152.541 15.367L152.666 15.4903C152.414 14.9503 152.16 14.4131 151.893 13.8827L151.879 13.876ZM143.666 8.15798C143.214 8.28241 142.826 8.57466 142.581 8.97517C144.592 9.16329 146.519 9.87123 148.173 11.0297C148.607 11.3486 149.02 11.6952 149.409 12.0672C147.781 10.3964 145.972 8.97853 143.679 8.16473L143.666 8.15798ZM145.85 7.96033L145.718 7.9457C147.995 9.26063 149.577 11.3294 151.527 13.1842C151.063 12.2991 150.519 11.4592 149.9 10.6755C148.883 9.38765 147.545 8.24177 145.863 7.96709L145.85 7.96033ZM147.441 13.3602C146.228 12.6453 144.967 12.0164 143.666 11.4783C144.671 12.2677 146.124 12.8634 147.454 13.367L147.441 13.3602Z" fill="black"/>
</svg>
