<svg width="83" height="74" viewBox="0 0 83 74" fill="none" xmlns="http://www.w3.org/2000/svg">
<path d="M0.651634 59.5758C0.907253 59.7032 0.970822 59.7381 1.13135 59.8181C25.9086 72.1718 56.1447 62.0098 68.5317 37.1655C72.9803 28.2738 74.687 18.2621 73.4342 8.40716C73.1798 6.40494 72.8958 1.41813 72.8958 1.41813C76.1506 13.4811 74.859 26.3312 69.2673 37.5211C56.6796 62.7677 25.9502 73.0966 0.769064 60.5416C0.608967 60.4618 0.449476 60.3812 0.290587 60.2999C-0.408729 59.9421 0.334474 59.2517 0.651634 59.5758Z" fill="#C3937C"/>
<path d="M35.1875 49.5318C36.2752 49.6292 37.3462 49.968 37.8997 50.9641C38.3803 51.8213 38.4519 52.8395 38.3164 53.7961C38.0022 56.0268 36.6226 57.8336 34.988 59.3036C32.6786 61.3748 26.7101 63.6091 26.6405 63.5632C26.3204 64.1348 26.4124 64.7503 26.0444 65.2965C25.8833 65.5362 25.0526 65.2821 25.2136 65.0423C26.3983 63.3023 27.3253 61.3999 27.9656 59.3946C28.5567 57.5211 28.7163 55.5397 29.3482 53.6834C30.2325 51.1096 32.3694 49.2756 35.1875 49.5318ZM32.4167 50.5057C32.4249 50.5116 32.4317 50.5192 32.4365 50.5281C32.4412 50.5369 32.4439 50.5468 32.4443 50.5569C32.4447 50.567 32.4427 50.577 32.4386 50.5862C32.4345 50.5954 32.4283 50.6036 32.4205 50.61C30.3719 52.1584 30.0416 54.6164 29.6564 56.9734C29.8264 56.498 30.0129 56.031 30.2238 55.5697C31.195 53.4627 32.5638 51.5631 34.2545 49.9755C34.0993 49.9893 33.9414 50.0082 33.7855 50.0361C33.3094 50.1207 32.8487 50.2774 32.4193 50.5006L32.4167 50.5057ZM30.2119 61.2683C30.1122 61.3253 30.0109 61.3814 29.9078 61.4367C29.9959 61.407 30.0822 61.3748 30.1698 61.3433C30.1678 61.3343 30.1682 61.325 30.1709 61.3163C30.1735 61.3075 30.1784 61.2996 30.1851 61.2933L30.2119 61.2683ZM28.0399 62.2991C28.1002 62.2235 28.1565 62.1447 28.2086 62.0632C28.0917 62.1825 27.9766 62.3012 27.8584 62.4167C27.9127 62.3749 27.9779 62.337 28.0399 62.2991ZM28.3933 62.0065C28.3933 62.0065 28.3965 62.0001 28.3984 61.9962L28.3933 62.0065ZM28.539 62.0119C28.5901 61.983 28.6438 61.9554 28.6949 61.9296L28.576 61.96C28.5671 61.9715 28.553 61.9901 28.5409 62.0081L28.539 62.0119ZM28.4751 61.852L28.5077 61.8443C28.585 61.734 28.6617 61.625 28.7364 61.5135C28.6674 61.5879 28.599 61.6642 28.5332 61.7322C28.514 61.7739 28.4955 61.811 28.477 61.8482L28.4751 61.852ZM28.6923 61.8003C28.8732 61.7577 29.0457 61.7093 29.2208 61.659L29.2534 61.6416C29.7568 61.3863 30.2423 61.097 30.7065 60.7756C33.5035 57.8995 35.6161 54.4283 36.8861 50.6219C36.8427 50.5875 36.7992 50.5562 36.7532 50.5237C35.3511 52.8724 33.8127 55.137 32.1461 57.3058C31.217 58.5291 30.2751 59.7781 29.2451 60.9446C29.0757 61.2298 28.8904 61.5151 28.6955 61.7939L28.6923 61.8003ZM29.279 61.7728C28.9646 61.9361 28.6553 62.0923 28.3511 62.2703C28.3026 62.3357 28.2578 62.403 28.208 62.4677C28.2001 62.4768 28.1897 62.4833 28.1782 62.4865C28.1666 62.4898 28.1544 62.4895 28.143 62.4859C28.1316 62.4822 28.1215 62.4753 28.114 62.466C28.1064 62.4567 28.1018 62.4453 28.1006 62.4334C28.0401 62.5063 27.9752 62.5755 27.9064 62.6406C29.9397 61.763 32.0626 60.9877 33.8377 59.6774C32.4314 60.5982 30.8956 61.3028 29.2815 61.7677L29.279 61.7728ZM28.0067 62.0841L27.9747 62.0906C27.9639 62.1124 27.9536 62.1329 27.9428 62.1547C27.9677 62.1271 27.9907 62.1034 28.0131 62.0809L28.0067 62.0841ZM28.1709 61.918C28.2559 61.8307 28.3421 61.7441 28.4252 61.6544C28.6204 61.1933 28.7598 60.7105 28.8405 60.2165C28.6215 60.8101 28.3603 61.3874 28.0591 61.9438L28.1709 61.918ZM34.4264 49.97C34.4261 49.9762 34.4246 49.9822 34.4218 49.9877C34.4191 49.9932 34.4152 49.9981 34.4105 50.0021C32.3739 51.894 30.8051 54.2349 29.8289 56.8385C29.6845 57.2274 29.567 57.62 29.4615 58.0139C29.3823 58.4096 29.2916 58.7996 29.1836 59.1794C29.0699 59.702 28.9632 60.2264 28.8425 60.7535C28.7934 60.9696 28.7328 61.183 28.661 61.3927C28.8271 61.2131 28.9933 61.0303 29.1569 60.8399C30.201 59.1362 30.9984 57.2968 31.9607 55.5364C33.0431 53.5671 34.463 51.8236 35.8969 50.1095C35.4207 49.9786 34.9256 49.9303 34.4328 49.9668L34.4264 49.97ZM36.0285 50.1655C34.3869 52.1329 32.8323 54.1212 31.6527 56.4133C30.9844 57.7123 30.3601 59.0315 29.6355 60.2928C30.4023 59.395 31.1205 58.4442 31.8298 57.5145C33.5779 55.2617 35.1871 52.9043 36.6484 50.4554C36.4555 50.3351 36.2497 50.2368 36.0349 50.1623L36.0285 50.1655ZM36.9909 50.7062C35.7809 54.3079 33.8179 57.611 31.2331 60.3949C31.6082 60.1163 31.9737 59.8217 32.3437 59.5085C34.6812 57.5505 36.9209 55.3757 37.8921 52.41C37.8134 51.7498 37.495 51.1422 36.9973 50.703L36.9909 50.7062ZM37.9227 52.7069C37.0653 55.1116 35.3917 56.9991 33.5028 58.6911C32.6101 59.4861 31.6913 60.2985 30.695 60.9715C30.5945 61.075 30.4906 61.1768 30.3832 61.2769C32.1229 60.636 33.7443 59.7089 35.1803 58.5338C36.7701 56.9903 38.089 54.9276 37.9291 52.7037L37.9227 52.7069ZM27.5785 62.5043C27.6527 62.3813 27.7255 62.2576 27.7945 62.132C27.6431 62.1605 27.4916 62.189 27.3382 62.2149C27.1919 62.5084 27.1823 62.5628 27.0264 62.8595C27.228 62.7661 27.4159 62.6455 27.5849 62.5011L27.5785 62.5043ZM29.5879 54.3998C29.0391 56.3039 28.8308 58.2739 28.1797 60.1559C27.9545 60.8059 27.6965 61.4442 27.4066 62.0682C27.5632 62.0422 27.7191 62.0144 27.8757 61.982C28.9856 59.9 29.3318 57.7076 29.7873 55.3185C30.1323 53.5127 30.7457 51.796 32.2078 50.6176C30.876 51.4001 30.053 52.8043 29.5943 54.3966L29.5879 54.3998Z" fill="#C3937C"/>
<path d="M25.5248 65.0103C26.6515 65.5224 27.7557 66.0922 28.8472 66.6876C28.8786 66.667 28.9152 66.6558 28.9527 66.6554C32.3498 66.589 35.7648 65.709 39.1657 66.1086C41.6708 66.3975 45.0219 67.6715 45.4502 70.5221C45.8785 73.3726 43.2093 74.354 40.8666 73.89C37.7155 73.2646 35.2685 70.9388 32.5864 69.3407C30.2334 67.9371 26.8867 67.0094 24.3861 65.873C24.1279 65.7507 25.266 64.8924 25.5248 65.0103ZM36.0519 70.5582C35.5519 70.4584 35.0593 70.3245 34.5776 70.1575C35.5931 70.8639 36.613 71.5772 37.6803 72.1733C37.1486 71.6426 36.6085 71.0933 36.0538 70.5543L36.0519 70.5582ZM32.0802 68.5251C32.1313 68.5506 32.1786 68.5838 32.2266 68.6125C33.1175 69.0472 34.0541 69.3811 35.0192 69.608C34.63 69.2684 34.2325 68.9454 33.819 68.648C33.1746 68.6398 32.533 68.5644 31.9045 68.4231L32.0802 68.5251ZM33.0273 69.1093C33.4171 69.3613 33.805 69.6235 34.191 69.8896C34.6551 70.0837 35.1348 70.2383 35.625 70.3517C35.7151 70.3727 35.8065 70.391 35.8979 70.4094C35.6749 70.1974 35.448 69.9867 35.2179 69.7823C34.4736 69.6068 33.7417 69.382 33.0273 69.1093ZM31.3076 68.0775C31.3076 68.0775 31.3165 68.082 31.3217 68.0845C31.3574 68.1024 31.392 68.1196 31.4207 68.1483L31.5447 68.2197C32.2441 68.4232 32.9662 68.5392 33.6944 68.5651C33.6107 68.5057 33.5276 68.4483 33.4426 68.3915C32.5091 68.2939 31.5923 68.0756 30.7152 67.7421L31.3076 68.0775ZM33.9155 68.5665C34.1002 68.5674 34.2855 68.5638 34.4721 68.5544C34.5814 68.5465 34.6907 68.5354 34.8051 68.5268C34.4395 68.495 34.0746 68.4618 33.7117 68.4217C33.7794 68.4682 33.8503 68.518 33.9206 68.5691L33.9155 68.5665ZM29.6729 67.0704C30.7682 67.7542 31.9824 68.0619 33.2266 68.2454C32.3478 67.6644 31.3689 67.2512 30.3394 67.0267C30.1209 67.0458 29.8978 67.061 29.6767 67.0724L29.6729 67.0704ZM29.5719 67.0745L29.5477 67.0752L29.5668 67.0848C29.5689 67.0811 29.572 67.0782 29.5758 67.0764L29.5719 67.0745ZM31.9357 66.8721C33.0176 67.0067 34.0886 67.2047 35.1788 67.313C36.9266 67.4852 38.7887 67.0855 40.5441 66.8166C40.3697 66.7729 40.1978 66.7304 40.0291 66.6942C37.3835 66.1368 34.6459 66.5704 31.9396 66.874L31.9357 66.8721ZM40.8566 66.9036C39.1364 67.1532 37.3266 67.5438 35.5872 67.4766C34.1698 67.41 32.7678 67.0918 31.3478 66.9406L30.7446 66.9983C31.7342 67.2692 32.6706 67.7058 33.5142 68.2896C34.104 68.3645 34.7022 68.4163 35.2984 68.4655C36.3375 68.3019 37.365 68.0046 38.4296 67.9466C40.5755 67.8388 42.6352 68.5921 44.5989 69.3904C43.8442 68.0972 42.3079 67.3248 40.8541 66.9024L40.8566 66.9036ZM44.9524 70.2626C44.8912 70.0237 44.8044 69.7921 44.6935 69.5719C41.915 68.4586 39.4029 67.7902 36.3694 68.3979C36.1675 68.438 35.9687 68.4717 35.7694 68.5035C36.4704 68.5634 37.1689 68.6317 37.8501 68.7505C40.3707 69.1988 42.8031 70.0464 45.0559 71.2616C45.0708 70.9246 45.035 70.5875 44.9498 70.2614L44.9524 70.2626ZM45.0496 71.4024C42.5214 70.0311 39.7664 69.1274 36.9165 68.7346C36.379 68.6635 35.8352 68.6148 35.2933 68.5654C34.8738 68.6167 34.4518 68.6435 34.0293 68.6456C34.4613 68.9666 34.8786 69.3107 35.2857 69.6721C36.3184 69.9278 37.3696 70.1399 38.3908 70.4442C40.3825 71.0486 42.2904 71.9004 44.07 72.9798C44.344 72.8105 44.5749 72.5797 44.7445 72.3057C44.9141 72.0317 45.0177 71.7219 45.047 71.4011L45.0496 71.4024ZM43.9448 73.0582C41.7799 71.7612 39.4317 70.7987 36.9791 70.2028C36.4756 70.0798 35.9784 69.9695 35.4748 69.8464C35.6947 70.0456 35.9126 70.2487 36.1286 70.4556C36.6936 70.5361 37.2525 70.6544 37.8016 70.8097C39.2746 71.2865 40.3412 72.3576 41.3855 73.4542C41.3918 73.4607 41.3968 73.4684 41.4 73.4769C41.4032 73.4854 41.4045 73.4944 41.404 73.5035C42.305 73.5879 43.2418 73.4565 43.9422 73.0569L43.9448 73.0582ZM41.2327 73.4853C39.7629 71.9524 38.4106 71.0125 36.2845 70.607C36.8968 71.2002 37.4892 71.8076 38.0758 72.385C38.8543 72.8029 39.6789 73.1287 40.533 73.3556C40.7625 73.4128 40.9953 73.4557 41.2302 73.484L41.2327 73.4853Z" fill="#C3937C"/>
<path d="M47.2357 45.0132C48.77 44.0772 50.1292 44.2477 50.9326 45.9587C52.1002 48.4435 50.3437 51.1056 49.0382 53.1509C47.1404 56.1282 44.562 58.4094 41.7683 60.5208C41.733 60.5511 41.6875 60.5668 41.6411 60.5648C41.5947 60.5627 41.5508 60.5431 41.5184 60.5098C41.121 61.4317 41.3549 62.1884 40.4629 62.9822C40.2526 63.1702 39.0947 62.9993 39.3081 62.8081C42.3242 60.1131 41.6639 56.6076 42.4165 53.0529C43.0433 50.0995 44.5506 46.6507 47.2357 45.0132ZM43.398 51.2028C42.9678 53.8921 42.5015 56.5761 41.9989 59.2548C43.7658 57.3883 43.9177 54.6862 44.2058 52.2136C44.4824 49.8409 45.244 48.0029 46.5182 46.0395C45.7967 46.7739 45.1716 47.5974 44.658 48.49C44.1515 49.3515 43.7295 50.2601 43.398 51.2028ZM41.9005 59.8682C41.9759 59.7458 42.0526 59.624 42.1255 59.5003C42.1202 59.4954 42.1161 59.4895 42.1133 59.4829C42.1104 59.4763 42.109 59.4692 42.109 59.462C42.109 59.4548 42.1104 59.4477 42.1133 59.4411C42.1161 59.4345 42.1202 59.4285 42.1254 59.4235C42.167 59.3818 42.2053 59.3401 42.2469 59.2984C42.2884 59.2567 42.2807 59.2305 42.298 59.1959C42.1945 59.2787 42.0903 59.3596 41.9849 59.4399C41.9778 59.4539 41.9619 59.4636 41.9497 59.4751C41.9242 59.6096 41.9005 59.7434 41.8756 59.8766C41.8836 59.873 41.892 59.8702 41.9005 59.8682ZM42.5184 58.8338C42.5012 58.8684 42.4724 58.8973 42.4475 58.9281C42.4526 58.9178 42.4673 58.9107 42.4775 58.903C42.4878 58.8953 42.5076 58.8492 42.5216 58.8274L42.5184 58.8338ZM46.8293 45.7578C46.832 45.7658 46.8327 45.7742 46.8313 45.7825C46.83 45.7907 46.8267 45.7985 46.8217 45.8052C45.9776 47.0661 45.1578 48.3359 44.7527 49.8141C44.3751 51.1924 44.3055 52.6314 44.1317 54.0425C43.9982 55.1488 43.7881 56.2553 43.3842 57.2669C45.4051 53.4417 46.8792 49.3519 47.7629 45.1176C47.4283 45.2904 47.1159 45.5032 46.8325 45.7514L46.8293 45.7578ZM47.9067 45.0469C46.9208 49.8283 45.1845 54.4245 42.7625 58.6643C42.8041 58.629 42.8462 58.5956 42.8852 58.5654C43.5178 57.6679 44.1907 56.7857 44.8552 55.8945C45.5977 54.6463 46.1818 53.3104 46.5938 51.9178C47.3043 49.5326 47.6065 47.0574 48.7611 44.8248C48.467 44.8461 48.1789 44.9191 47.9099 45.0405L47.9067 45.0469ZM48.9796 44.8154C48.9592 44.8148 48.94 44.818 48.9196 44.8174C47.5937 47.3422 47.3708 50.1898 46.4418 52.8501C46.1728 53.6211 45.8482 54.3716 45.4706 55.0957C47.6636 52.1503 49.6687 49.1017 49.8596 45.3133C49.8605 45.3031 49.8637 45.2932 49.869 45.2843C49.8743 45.2755 49.8816 45.268 49.8902 45.2624C49.8989 45.2569 49.9087 45.2533 49.9189 45.2521C49.9291 45.2509 49.9394 45.2521 49.9491 45.2555C49.6954 44.986 49.3474 44.8251 48.9777 44.8064L48.9796 44.8154ZM49.9753 45.2798C49.9753 45.2798 49.9861 45.2932 49.9849 45.3054C49.7793 49.4273 47.4432 52.6789 45.0405 55.8621C44.6232 56.5721 44.158 57.2527 43.6482 57.8993C46.7632 55.0777 49.2195 51.6036 50.8419 47.7249C50.845 47.717 50.8498 47.7099 50.856 47.7041C50.8622 47.6983 50.8696 47.694 50.8777 47.6915C50.8773 47.6836 50.8775 47.6757 50.8783 47.6678C50.8604 46.9484 50.5728 45.8769 49.9734 45.2708L49.9753 45.2798ZM50.8662 47.9738C49.1324 52.037 46.4855 55.6459 43.1319 58.5188C43.0277 58.6413 42.9217 58.7612 42.813 58.8799C42.6795 59.0741 42.5466 59.2703 42.4169 59.4664C44.9052 57.5068 47.1564 55.3665 48.8439 52.6316C49.6938 51.2536 50.7813 49.6356 50.8707 47.968L50.8662 47.9738ZM41.7267 59.9992L41.7401 59.9339L41.7114 60.0107L41.7267 59.9992ZM42.4557 56.0183C42.6946 54.6855 42.921 53.3503 43.1348 52.0125C42.8957 52.8286 42.7237 53.6628 42.6205 54.5067C42.563 55.0125 42.5125 55.517 42.4601 56.0125L42.4557 56.0183Z" fill="#C3937C"/>
<path d="M38.7796 62.6645C39.7852 62.7521 40.779 62.9425 41.7454 63.2328C41.7791 63.1941 41.8252 63.1684 41.8758 63.1602C43.5572 62.8712 45.1913 62.3511 46.7317 61.6145C47.804 61.1187 48.8437 60.6786 50.0188 60.5012C52.5053 60.1232 56.0814 60.5397 57.6382 62.8232C59.016 64.8447 57.3553 67.8715 55.0727 68.2503C52.6725 68.6537 50.1444 67.1052 48.033 66.1805C45.0896 64.8953 41.4285 63.9196 38.1815 63.6689C37.8921 63.6445 38.4965 62.6402 38.7796 62.6645ZM45.3693 62.801C45.4767 62.8034 45.5834 62.8006 45.6889 62.8003C46.525 62.667 47.3746 62.641 48.2169 62.7231C50.5142 62.5595 52.7862 62.1355 54.9893 61.4593C53.8992 61.01 52.7282 60.79 51.5487 60.8128C51.5424 60.8236 51.5331 60.8323 51.5219 60.8378C50.2364 61.4568 48.8952 61.9519 47.5165 62.3163C46.4793 62.5848 45.4077 62.7049 44.3808 63.017L44.1597 63.086C44.0395 63.1253 43.9219 63.1691 43.8044 63.2161C43.8779 63.2127 43.9507 63.2106 44.0255 63.2111C44.4471 63.0711 44.8769 62.9572 45.3125 62.8703C45.3094 62.862 45.3085 62.8531 45.3098 62.8444C45.3111 62.8357 45.3145 62.8274 45.3198 62.8204C45.325 62.8133 45.332 62.8077 45.34 62.8039C45.348 62.8002 45.3567 62.7986 45.3655 62.7991L45.3693 62.801ZM43.1813 63.7071C44.1258 63.682 45.0793 63.6421 46.0308 63.6349C45.3908 63.4508 44.7293 63.3518 44.0632 63.3403C43.7466 63.4381 43.4352 63.5521 43.1302 63.6816L43.1813 63.7071ZM42.9711 63.6263C42.9749 63.6186 42.9781 63.6122 42.9813 63.6058C43.1884 63.5106 43.4005 63.4276 43.6146 63.3471L43.467 63.3583C43.3698 63.4027 43.267 63.4394 43.1794 63.4933C43.1679 63.4996 43.1549 63.5022 43.1419 63.501C43.1289 63.4997 43.1166 63.4946 43.1065 63.4864C43.0964 63.4781 43.089 63.4669 43.0853 63.4544C43.0816 63.4419 43.0816 63.4286 43.0855 63.4161C43.0452 63.4232 43.005 63.4271 42.966 63.4349C42.9528 63.4368 42.9395 63.4346 42.9276 63.4287C42.9157 63.4227 42.9059 63.4134 42.8995 63.4018C42.7832 63.427 42.6707 63.4477 42.5448 63.473L42.9711 63.6263ZM46.4531 62.2277C46.1477 62.3666 45.8416 62.4941 45.5323 62.6151C46.0416 62.5122 46.5554 62.4195 47.0653 62.2993C48.5063 61.95 49.9085 61.4552 51.2503 60.8224C50.9832 60.8332 50.7152 60.8554 50.4464 60.8888C48.9907 61.0687 47.7688 61.6276 46.4493 62.2258L46.4531 62.2277ZM55.1094 61.5096C55.1113 61.5225 55.1084 61.5357 55.1012 61.5465C55.094 61.5574 55.0831 61.5653 55.0705 61.5686C53.0453 62.1941 50.961 62.6072 48.8514 62.801C50.0496 62.9936 51.198 63.3533 52.4281 63.3282C53.8123 63.3015 55.3511 62.8526 56.6777 62.4644C56.4204 62.2391 56.1403 62.0415 55.8418 61.8748C55.5977 61.737 55.3536 61.6153 55.1056 61.5077L55.1094 61.5096ZM56.7812 62.5608C56.7812 62.5608 56.7812 62.5608 56.7767 62.5697C54.6852 63.1831 52.5183 63.6692 50.35 63.2362C49.4771 63.0553 48.592 62.9392 47.7018 62.8887C47.1439 62.9194 46.5848 62.9302 46.0231 62.9302C45.4826 62.9845 44.9475 63.0844 44.4236 63.2288C45.0848 63.2889 45.7368 63.4244 46.3669 63.6329C47.4592 63.619 48.5506 63.6938 49.6305 63.8567C52.356 64.3019 54.8636 64.9762 57.6542 64.8522C57.7743 63.9104 57.3973 63.1495 56.7774 62.5588L56.7812 62.5608ZM57.6255 65.0283C57.6332 65.0129 57.63 64.9937 57.6338 64.9764C55.1863 65.0843 52.9305 64.6636 50.5405 64.16C49.3172 63.9182 48.0737 63.7922 46.8264 63.7835C47.498 64.0144 48.1626 64.2786 48.8234 64.5056C51.4946 65.4246 54.2169 66.1483 57.03 66.4595C57.3186 66.0248 57.5191 65.5376 57.6204 65.0257L57.6255 65.0283ZM56.9412 66.5673C54.5491 66.2795 52.1925 65.752 49.9066 64.9929C48.817 64.6432 47.6834 64.1324 46.5286 63.7663C45.6001 63.7562 44.6697 63.7819 43.7418 63.8057C47.6757 64.2182 50.7643 67.2511 54.6503 67.8525C54.9161 67.8316 55.1789 67.7812 55.4337 67.7022C56.0439 67.4945 56.5721 67.0967 56.9412 66.5673ZM50.7566 66.8792C51.7669 67.3077 52.8961 67.7859 54.0272 67.857C50.4691 67.0623 47.5262 64.3773 43.8619 63.9456C44.8435 64.323 45.8072 64.7395 46.7447 65.1381C48.0879 65.715 49.4159 66.3163 50.7579 66.8862L50.7566 66.8792Z" fill="#C3937C"/>
<path d="M53.4124 55.4807C54.0642 55.2712 54.362 55.7109 55.0701 55.7279C55.0926 55.7076 55.1189 55.6919 55.1474 55.6817C58.8512 54.3953 62.2775 51.236 66.4095 51.536C69.2085 51.741 72.2683 54.2971 71.0121 57.3735C69.6614 60.6812 65.4182 59.9513 62.9093 58.7324C60.084 57.3573 56.4095 55.362 53.1581 56.41C52.8833 56.5034 53.1402 55.569 53.4124 55.4807ZM57.5393 56.0854C59.6111 56.091 61.6866 55.769 63.7373 56.1082C65.8711 56.4632 67.8579 57.3754 69.8044 58.2851C70.3302 57.7852 70.6699 57.1207 70.7673 56.4018C68.6384 55.1058 66.1913 54.4269 63.6976 54.4402L63.4593 54.4478C63.1091 54.5548 62.7576 54.6644 62.4074 54.7746C60.5552 55.3635 58.6435 55.743 56.7079 55.9061C56.9872 55.9573 57.2645 56.0188 57.5393 56.0854ZM56.1737 55.8189C58.5126 55.6889 60.6929 55.1343 62.9084 54.474C60.6047 54.6295 58.3119 55.2977 56.0708 55.8076L56.1686 55.8196L56.1737 55.8189ZM65.0963 52.0061C62.6246 52.2683 60.4653 53.5775 58.2671 54.7409C59.8218 54.5574 61.3374 54.1244 62.7556 53.4585C63.9263 52.9061 65.0733 52.3307 66.3105 51.9843C65.9068 51.9568 65.5014 51.9646 65.0989 52.0074L65.0963 52.0061ZM66.6856 52.0193C65.1813 52.3765 63.8388 53.1041 62.4361 53.7408C60.9926 54.3956 59.5822 54.7181 58.0268 54.9027C58.0194 54.9038 58.0118 54.9034 58.0046 54.9014C57.9973 54.8995 57.9905 54.896 57.9847 54.8913C57.5514 55.1201 57.1111 55.3374 56.6689 55.5394C58.878 55.0167 61.1447 54.4011 63.4094 54.3237L63.7264 54.2289C65.7176 53.6216 67.733 53.1704 69.8035 53.5178C69.0117 52.6446 67.873 52.176 66.6907 52.0218L66.6856 52.0193ZM70.3678 54.3192C70.2457 54.0882 70.1013 53.8699 69.9365 53.6673C67.8596 53.2719 65.8697 53.7198 63.8912 54.3143L64.1059 54.3126C66.4618 54.3718 68.7606 55.0432 70.7769 56.2609C70.834 55.5885 70.6936 54.9145 70.373 54.3218L70.3678 54.3192ZM69.6958 58.3749C67.7754 57.4767 65.8129 56.5798 63.7086 56.2298C61.8176 55.9159 59.9095 56.1678 58.0065 56.2047C58.2071 56.2599 58.404 56.3165 58.5982 56.3749C60.2331 56.1821 61.8894 56.3441 63.4547 56.85C65.0199 57.356 66.4572 58.1939 67.6688 59.3069C67.9517 59.2558 68.2297 59.1803 68.4996 59.081C68.9402 58.9235 69.3476 58.6849 69.7009 58.3775L69.6958 58.3749ZM65.4526 59.2228C64.2181 58.5024 62.8988 57.9382 61.5251 57.543C62.8179 58.1891 64.1113 58.9076 65.4578 59.2253L65.4526 59.2228ZM60.9429 57.2575C62.6667 57.6842 64.3146 58.373 65.829 59.3001C66.3823 59.4015 66.9484 59.4137 67.5059 59.336C66.3471 58.2899 64.9846 57.4954 63.5036 57.0023C62.0227 56.5093 60.4553 56.3284 58.8998 56.4709C59.1024 56.5351 59.3031 56.5999 59.4973 56.6648C59.9908 56.8342 60.4739 57.0323 60.9442 57.2581L60.9429 57.2575Z" fill="#C3937C"/>
<path d="M58.3583 35.271C61.602 34.7761 62.9787 38.5796 62.4816 41.1672C61.7112 45.1835 58.8606 48.5802 56.5391 51.8056C56.5177 51.8367 56.4874 51.8606 56.4522 51.8742C56.0855 52.9555 56.2683 53.2034 55.5232 54.0961C55.3417 54.316 54.2707 54.7933 54.4522 54.5734C55.901 52.8357 56.6251 50.6061 56.4732 48.35C56.3325 46.3597 55.4633 44.4862 55.0453 42.5528C54.47 39.837 54.9427 35.7907 58.3583 35.271ZM55.8099 37.716C55.7575 37.8211 55.7058 37.9249 55.6553 38.0261C55.6553 38.0261 55.6553 38.0261 55.6591 38.0376C55.6974 40.436 56.0586 42.8175 56.7331 45.1177C56.703 44.333 56.6595 43.5497 56.5962 42.7676C56.4523 41.0141 56.2139 39.2743 55.9058 37.543C55.8745 37.5994 55.8425 37.657 55.8106 37.7147L55.8099 37.716ZM56.8949 48.0546C56.9051 48.1557 56.9122 48.2568 56.9205 48.3586C57.0668 48.0651 57.2189 47.7601 57.3729 47.4512C57.3026 47.2338 57.2303 47.0265 57.1677 46.8385C57.071 46.5524 56.976 46.2661 56.8827 45.9795C56.898 46.6699 56.9023 47.3612 56.8955 48.0533L56.8949 48.0546ZM57.617 48.3346C57.406 48.7829 57.1724 49.2203 56.9173 49.6451C56.9071 49.7744 56.8943 49.9025 56.8835 50.0331C57.1212 49.4699 57.3653 48.91 57.6273 48.3589L57.617 48.3346ZM57.571 48.1357C57.5269 47.9617 57.4777 47.7915 57.4266 47.6252C57.2668 47.9616 57.0975 48.2852 56.9397 48.6018C56.9512 48.8603 56.948 49.1196 56.9359 49.3775C57.1653 48.9687 57.3787 48.5566 57.5716 48.1344L57.571 48.1357ZM56.9076 45.6895C57.0392 46.0976 57.2674 46.645 57.47 47.234C58.2968 45.4061 58.9044 43.2944 58.3286 41.4632C57.8198 39.8462 56.7308 38.516 56.4643 36.8165C56.295 36.9931 56.1418 37.1845 56.0067 37.3885C56.4956 40.0921 56.7848 42.8286 56.8718 45.5757C56.8845 45.6108 56.8954 45.6499 56.9082 45.6882L56.9076 45.6895ZM56.5742 36.7081C56.858 38.7698 58.4787 40.3779 58.6673 42.4577C58.8163 44.0793 58.2521 45.851 57.5281 47.4086C57.5812 47.5711 57.631 47.7336 57.6758 47.8967C58.3274 46.4115 58.7091 44.8222 58.8028 43.2038C58.9401 40.7392 58.3488 38.337 57.7493 35.9707C57.7471 35.9581 57.7491 35.945 57.7551 35.9336C57.3158 36.113 56.9151 36.3755 56.5748 36.7068L56.5742 36.7081ZM57.8432 35.9007C57.8494 35.9041 57.8549 35.9086 57.8592 35.9141C57.8636 35.9196 57.8669 35.9259 57.8688 35.9327C58.4696 38.3124 59.0736 40.737 58.9351 43.2137C58.8363 44.9029 58.4263 46.5598 57.7256 48.1008L57.7314 48.1276C57.8592 47.8713 57.987 47.615 58.1237 47.3632C58.8419 46.0507 59.702 44.7738 60.0681 43.3034C60.1684 42.4813 60.2227 41.6459 60.2533 40.8131C60.119 39.0756 59.5093 37.3571 58.9232 35.7351C58.9232 35.7351 58.9277 35.7262 58.9302 35.721C58.561 35.7131 58.1933 35.7727 57.8452 35.8969L57.8432 35.9007ZM58.7129 46.5752C58.3787 47.1655 58.072 47.7614 57.7819 48.3656C57.8427 48.6518 57.871 48.944 57.8663 49.2366C58.1864 48.7898 58.5027 48.341 58.812 47.8872C59.3872 46.6702 59.7764 45.3738 59.9665 44.0416C59.62 44.9165 59.202 45.7613 58.7167 46.5675L58.7129 46.5752ZM59.0555 35.7227C59.5419 37.0709 60.0455 38.4869 60.2782 39.9278C60.3024 38.6342 60.2832 37.3573 60.2984 36.1552C60.2999 36.143 60.3055 36.1317 60.3144 36.1231C59.9356 35.8869 59.5048 35.7468 59.0593 35.715L59.0555 35.7227ZM60.4179 36.1908C60.4027 37.6361 60.4302 39.1908 60.3754 40.7571C60.4405 41.4701 60.4095 42.1888 60.2834 42.8939C60.2553 43.0399 60.2221 43.1833 60.185 43.3249C60.0416 44.6707 59.72 45.9917 59.2286 47.2532C59.4433 46.925 59.6516 46.5936 59.8535 46.2591C59.8437 46.2536 59.8361 46.2448 59.832 46.2343C59.828 46.2238 59.8277 46.2122 59.8312 46.2015C60.6074 43.2587 61.3531 40.3101 61.4219 37.2498C61.4219 37.2498 61.4277 37.2382 61.4302 37.2331C61.2559 36.9671 61.0501 36.7232 60.8173 36.5067C60.6955 36.3907 60.5654 36.2836 60.4282 36.1863L60.4179 36.1908ZM61.78 42.1007C62.2573 40.5642 62.3582 38.7903 61.544 37.4051C61.4515 40.3304 60.7589 43.1598 60.0171 45.979C60.7553 44.7593 61.3499 43.4583 61.789 42.102L61.78 42.1007ZM57.6982 49.4552C57.7215 49.1711 57.708 48.8852 57.6579 48.6047C57.3563 49.2416 57.0714 49.8867 56.7921 50.5396C56.7787 50.6145 56.764 50.6856 56.7468 50.7618C57.071 50.325 57.3919 49.8882 57.7097 49.4514L57.6982 49.4552ZM56.7568 47.2177C56.7645 47.0711 56.767 46.9508 56.7683 46.9034C56.767 46.4643 56.758 46.0246 56.7459 45.5849C56.5631 45.0137 56.3931 44.4393 56.2512 43.8533C55.8186 42.0315 55.5786 40.1688 55.5352 38.2959C54.4343 41.1729 56.2039 44.3418 56.7683 47.2138L56.7568 47.2177Z" fill="#C3937C"/>
<path d="M63.1125 46.0758C63.8736 45.8712 63.9567 46.3767 64.7012 46.3494C64.6921 46.3168 64.6921 46.2823 64.7011 46.2496C64.7101 46.2169 64.7278 46.1872 64.7523 46.1637C66.8284 43.9778 69.6503 42.6581 72.6761 42.6098C74.638 42.5767 78.8256 43.1268 79.4021 45.5073C80.157 48.6183 75.4058 48.9904 73.4823 48.6938C69.6883 48.1063 66.5576 46.0413 62.5892 47.103C62.3112 47.1836 62.8384 46.1455 63.1125 46.0758ZM65.3913 46.3479C65.6043 46.2216 65.8191 46.1035 66.0355 45.9938L65.8974 46.0146C65.7402 46.045 65.5786 46.0812 65.415 46.1245C65.3409 46.1963 65.2693 46.2695 65.1971 46.3439L65.3913 46.3479ZM67.327 46.5593C67.6701 46.46 68.0043 46.3434 68.3334 46.2243C67.7406 45.9792 67.0973 45.8808 66.4579 45.9372L66.4361 45.9392C66.1639 46.0659 65.8949 46.2053 65.6303 46.3551C66.1999 46.385 66.7667 46.4533 67.327 46.5593ZM68.5648 46.1412C68.8581 46.033 69.1495 45.9287 69.4453 45.8346C68.8457 45.781 68.2427 45.7757 67.642 45.8187C67.755 45.8432 67.8665 45.8737 67.9762 45.9102C68.1737 45.9782 68.3692 46.0565 68.5622 46.1399L68.5648 46.1412ZM72.3579 43.0624C70.8684 43.1376 69.4111 43.5291 68.0828 44.2112C71.0607 43.8205 74.1735 43.9916 77.1571 43.9351C76.7961 43.7823 76.4229 43.657 76.0931 43.5502C74.8878 43.1645 73.6226 42.9992 72.3579 43.0624ZM78.2403 44.5824C77.9658 44.3501 77.6585 44.1597 77.3284 44.0173C77.3279 44.0313 77.322 44.0445 77.3118 44.0541C77.3016 44.0638 77.288 44.069 77.2741 44.0686C74.1441 44.1242 70.8729 43.9285 67.7595 44.3828C67.1788 44.7047 66.6284 45.0789 66.1153 45.5008C70.0644 43.2326 74.8112 44.1944 78.9184 45.7477C78.8347 45.2918 78.5949 44.8797 78.2403 44.5824ZM78.9293 45.8859C74.6719 44.2657 69.7072 43.2577 65.6687 45.9165C65.9418 45.8468 66.2194 45.796 66.4994 45.7643C68.4073 44.9008 70.5219 44.6051 72.5906 44.9127C74.6592 45.2203 76.5944 46.118 78.1651 47.4987C78.7101 47.0616 78.9747 46.4734 78.9293 45.8859ZM77.9305 47.681C77.9798 47.6495 78.0245 47.6142 78.0698 47.5808C76.5625 46.2611 74.7164 45.39 72.7394 45.0655C70.7623 44.741 68.7328 44.9761 66.8796 45.7442C66.909 45.7429 66.9391 45.7467 66.9678 45.7466C67.8934 45.6329 68.8291 45.6314 69.7546 45.7424C70.4541 45.5237 71.1914 45.4551 71.9184 45.5411C73.8745 45.8075 75.5399 46.9579 77.1037 48.088C77.3924 47.981 77.6695 47.8446 77.9305 47.681ZM76.9592 48.1568C75.2402 46.9157 73.339 45.6333 71.1337 45.6235C70.7313 45.6236 70.3304 45.6749 69.9406 45.7759C70.0218 45.7891 70.1029 45.796 70.1841 45.8125C71.9785 46.1567 73.4656 47.2006 74.8019 48.3933C74.8075 48.3983 74.812 48.4044 74.8152 48.4112C74.8184 48.418 74.8201 48.4254 74.8204 48.4329C75.5455 48.4745 76.2722 48.3786 76.9624 48.1504L76.9592 48.1568ZM74.6453 48.4224C73.2349 47.1768 71.6571 46.1164 69.7451 45.8704L69.6403 45.8598C69.3144 45.9565 68.9923 46.0743 68.6741 46.1973C69.6869 46.6463 70.6698 47.274 71.6073 47.8198C72.5951 48.1327 73.6153 48.3327 74.6485 48.416L74.6453 48.4224ZM71.0469 47.638C70.2417 47.1789 69.4281 46.7237 68.5904 46.3364C68.5443 46.3134 68.4996 46.3007 68.4574 46.2829C68.1577 46.3975 67.8631 46.5146 67.5551 46.6139C68.2127 46.7505 68.8621 46.9237 69.5004 47.1325C69.988 47.2812 70.5088 47.4593 71.0501 47.6315L71.0469 47.638Z" fill="#C3937C"/>
<path d="M67.7318 39.2085C68.2794 38.8047 68.4386 39.2824 69.0437 38.9745C69.052 38.9453 69.0656 38.9179 69.084 38.8938C70.2437 37.4299 71.5227 36.0648 72.9077 34.8126C73.8305 33.9925 74.849 33.233 76.0856 32.9967C77.8263 32.6645 80.8783 33.4662 81.1481 35.5816C81.4473 37.971 78.6337 38.5859 76.8629 38.3895C74.8531 38.1667 72.9788 38.1779 71.1947 38.6516C70.8014 38.8861 70.3624 39.0329 69.9077 39.0821C69.0704 39.4261 68.2786 39.8724 67.5504 40.4109C67.3235 40.5811 67.5024 39.3773 67.7318 39.2085ZM73.6529 36.3842C73.7309 36.3015 73.805 36.2136 73.8811 36.1283C73.4287 36.3214 72.9886 36.5423 72.5634 36.7899L72.5225 36.8239C72.8209 36.7406 73.1225 36.6766 73.4216 36.6209C73.5066 36.5433 73.5801 36.4599 73.6529 36.3842ZM76.053 33.4621C76.0083 33.4718 75.9642 33.4834 75.9201 33.495C75.921 33.5049 75.9191 33.5147 75.9147 33.5236C75.9103 33.5324 75.9036 33.5398 75.8952 33.545C74.2126 34.5095 72.9276 35.9762 71.4553 37.2071C71.633 37.1356 71.8189 37.0571 71.9998 36.9985C72.1602 36.8944 72.3206 36.7936 72.4848 36.6979C73.1772 36.1108 73.9275 35.5959 74.7239 35.1612C75.1776 34.6001 75.6172 34.0321 76.053 33.4621ZM75.0198 34.9935C76.2059 34.3856 77.4752 33.9572 78.7862 33.7223C77.9836 33.3816 77.0997 33.2791 76.2396 33.4271C75.8377 33.9516 75.4351 34.4773 75.0198 34.9935ZM70.9716 38.1996C71.2756 37.8443 71.5977 37.505 71.9365 37.183C71.4054 37.5389 70.904 37.9375 70.4374 38.3749C70.6138 38.3124 70.7927 38.2544 70.9716 38.1996ZM73.1168 36.3457C73.4337 36.1837 73.7494 36.0371 74.0791 35.907C74.221 35.7474 74.3622 35.5857 74.5002 35.4209C74.0203 35.7 73.5583 36.0089 73.1168 36.3457ZM72.2982 37.0273C71.9085 37.3753 71.5393 37.7459 71.1927 38.137C71.3781 38.0854 71.5627 38.0351 71.7449 37.9899C72.0465 37.7818 72.3615 37.5693 72.688 37.3784C72.8976 37.1789 73.0957 36.9769 73.2849 36.7799C72.951 36.8427 72.6212 36.9251 72.2969 37.0266L72.2982 37.0273ZM70.1313 38.4927C70.567 38.0635 71.0346 37.6681 71.5301 37.31C71.3627 37.3865 71.1978 37.4643 71.0355 37.5434C70.8336 37.7019 70.6272 37.8566 70.4157 38.0024C70.2502 38.1935 70.0853 38.3833 69.9236 38.5764L70.1313 38.4927ZM72.2579 36.0327C71.7806 36.5003 71.3211 36.9834 70.8745 37.4791L70.9735 37.4277C72.5416 36.203 73.8516 34.6543 75.5526 33.5982L75.5245 33.6066C74.2369 34.0671 73.2043 35.1076 72.2553 36.0378L72.2579 36.0327ZM78.9926 33.8108C77.529 34.0527 76.1156 34.5378 74.8108 35.2462C74.6543 35.4353 74.4977 35.6213 74.3367 35.8098C76.2915 35.0798 78.4025 34.8769 80.458 35.2215C80.4656 35.2253 80.4707 35.2279 80.4771 35.2311C80.2787 34.7726 79.9474 34.3845 79.5262 34.1169C79.3543 34.0048 79.1752 33.9043 78.99 33.816L78.9926 33.8108ZM80.502 35.2995C80.4983 35.3139 80.4892 35.3264 80.4767 35.3344C80.4641 35.3424 80.4489 35.3453 80.4343 35.3425C78.3259 34.9877 76.1595 35.216 74.1686 36.0029C73.9942 36.1991 73.8153 36.3915 73.6344 36.5814C75.7368 36.2663 77.946 36.6365 80.0363 37.2387C80.298 36.9995 80.482 36.6872 80.5646 36.3423C80.6472 35.9975 80.6245 35.636 80.4995 35.3046L80.502 35.2995ZM72.4337 37.8501C73.3209 37.7217 74.2193 37.692 75.1126 37.7616C76.4769 37.8386 77.9844 38.3038 79.2912 37.7281C79.5192 37.6285 79.732 37.497 79.9232 37.3375C77.8182 36.7392 75.5937 36.3806 73.483 36.7379C73.3405 36.8829 73.1954 37.0266 73.0497 37.1619C73.4242 36.9512 73.8281 36.7982 74.2479 36.708C75.3521 36.5001 76.5261 37.2951 77.3875 37.8718C77.4546 37.9164 77.3965 38.0363 77.3307 37.9859C76.204 37.2305 75.0147 36.5111 73.6466 37.0787C73.2457 37.2503 72.8582 37.4518 72.4874 37.6817C72.4126 37.7484 72.3347 37.8151 72.2548 37.8857C72.3117 37.8805 72.3692 37.8643 72.4312 37.8552L72.4337 37.8501Z" fill="#C3937C"/>
<path d="M63.8279 25.3186C64.8018 24.8441 65.913 24.9773 66.8154 25.5392C68.105 26.3422 68.6131 27.5829 68.8911 29.0192C69.6109 32.6967 67.6914 36.1177 66.3822 39.4285C66.3786 39.4374 66.3744 39.4459 66.3694 39.4541C66.4768 40.2245 66.8519 40.2115 66.944 40.9807C66.9778 41.2648 66.2551 42.0774 66.2187 41.7952C65.7296 37.6966 65.0693 33.8359 62.9808 30.2279C61.9959 28.5288 61.7038 26.3462 63.8279 25.3186ZM66.7253 25.9984C67.4207 28.0636 67.1971 30.2692 67.1186 32.4142C67.0746 33.6388 67.2248 35.197 66.8792 36.5016C66.8493 36.8131 66.8015 37.1227 66.7361 37.4288C66.7936 37.2974 66.8473 37.1738 66.9022 37.0443C67.2319 35.823 67.2574 34.5012 67.4765 33.2647C67.7333 31.8182 68.0816 30.3901 68.431 28.9626C68.1977 27.795 67.7037 26.6638 66.724 26.0009L66.7253 25.9984ZM68.4924 29.2684C68.1301 30.7504 67.7756 32.2361 67.5283 33.7402C67.3814 34.6366 67.3252 35.5591 67.1655 36.4395C68.0249 34.3958 68.7756 32.2819 68.5947 30.0875C68.5723 29.8187 68.5384 29.5442 68.4924 29.2684ZM66.4607 38.0835C66.5419 37.7607 66.6128 37.4361 66.6664 37.1108C66.646 37.1518 66.6249 37.1941 66.6025 37.2389C66.5828 37.5025 66.4961 37.7567 66.3508 37.9775C66.3418 37.9955 66.3335 38.0121 66.3252 38.0288C66.3205 38.0388 66.3128 38.0471 66.3032 38.0526C66.2936 38.0581 66.2826 38.0605 66.2716 38.0596C66.2603 38.0714 66.2483 38.0825 66.2358 38.093C66.2198 38.1698 66.2025 38.246 66.1859 38.321C66.2006 38.4131 66.2166 38.5059 66.2307 38.5993C66.3144 38.4282 66.3872 38.2565 66.4607 38.0835ZM66.1482 37.9389L66.1514 37.9325C66.1507 37.9348 66.1497 37.937 66.1482 37.9389ZM66.2147 37.652C66.2811 37.3331 66.345 37.0065 66.405 36.6748C66.3664 36.4119 66.301 36.1536 66.2101 35.904C66.1214 36.1638 66.0188 36.4187 65.9028 36.6676C65.979 37.0396 66.0487 37.413 66.1118 37.7879C66.1457 37.7488 66.1795 37.7033 66.2127 37.6559L66.2147 37.652ZM66.1392 35.7134C65.9019 35.1524 65.6085 34.6169 65.2636 34.1152C65.5001 34.8827 65.695 35.6632 65.8555 36.4488C65.9624 36.2102 66.0564 35.966 66.1372 35.7173L66.1392 35.7134ZM64.953 33.1762C65.0143 33.3444 65.0655 33.5139 65.1217 33.6828C65.541 34.2607 65.9013 34.8794 66.1973 35.5296C66.3101 35.1508 66.3921 34.7636 66.4426 34.3718C66.3979 34.2663 66.3468 34.164 66.2918 34.0565C65.7275 33.0087 64.9312 32.0741 64.0691 31.2362C64.4112 31.8611 64.706 32.5109 64.9511 33.1801L64.953 33.1762ZM66.2727 35.7112C66.3515 35.9101 66.416 36.1145 66.4657 36.3227C66.4817 36.2266 66.4977 36.1306 66.5156 36.0275C66.5666 35.4481 66.5947 34.9469 66.5922 34.8848C66.5896 34.8227 66.5864 34.8067 66.5845 34.7689C66.5826 34.7312 66.5538 34.6641 66.5359 34.6135C66.4755 34.9868 66.3869 35.355 66.2708 35.715L66.2727 35.7112ZM66.7098 35.5739C66.7021 35.7621 66.6919 35.9522 66.6747 36.1404C66.6574 36.3287 66.6594 36.568 66.6543 36.8215C66.6869 36.7305 66.7182 36.6389 66.745 36.5467C66.7798 36.1839 66.7753 35.8184 66.7315 35.4567C66.72 35.4958 66.7136 35.5374 66.7079 35.5777L66.7098 35.5739ZM63.3527 29.9813C63.5246 30.2766 63.6952 30.5745 63.8639 30.8763C64.8775 31.8105 65.8802 32.9137 66.4695 34.1387C66.4758 34.0779 66.4797 34.0158 66.4842 33.9556C66.3454 33.2363 66.0998 32.5422 65.7555 31.8962C64.9279 30.3139 63.7974 28.8621 62.6752 27.4801C62.6241 27.4162 62.7301 27.3475 62.7806 27.4095C64.2141 29.1627 65.9095 31.1681 66.5058 33.4096C66.5044 30.8071 65.1751 28.3105 63.426 26.2559C63.3736 26.1946 63.4809 26.1233 63.5308 26.1866C65.4135 28.4054 66.801 31.1085 66.6171 33.9163C66.6584 34.1563 66.6874 34.3983 66.704 34.6413C67.0534 31.38 66.7554 27.9192 64.52 25.6557C64.4625 25.5982 64.5443 25.5078 64.6037 25.5614C66.9516 27.9386 67.1978 31.596 66.7909 34.9919C66.8578 35.2766 66.8951 35.5676 66.9022 35.8602C67.152 34.399 66.9889 32.7032 67.0349 31.4684C67.1051 29.5832 67.2136 27.7172 66.5751 25.9123C66.5751 25.9123 66.5796 25.9033 66.5821 25.8982C66.439 25.8124 66.2895 25.7378 66.1348 25.6752C65.5739 25.4405 64.9477 25.4128 64.3674 25.5969C63.7871 25.781 63.2903 26.165 62.9653 26.6807C62.2438 27.8523 62.7353 28.9214 63.3508 29.9852L63.3527 29.9813Z" fill="#C3937C"/>
<path d="M71.5304 31.3368C73.2378 29.231 75.1874 27.2924 77.1159 25.3897C78.4744 24.0477 81.2937 22.1923 82.5566 24.7421C83.5958 26.8508 81.6494 28.9302 79.6735 29.3852C77.5858 29.8724 75.2885 29.439 73.2455 30.115C73.2182 30.1232 73.1896 30.1263 73.1612 30.1241C72.7177 30.6167 71.7247 32.269 71.3074 32.7826C71.1215 33.0051 71.3508 31.5593 71.5304 31.3368ZM75.9242 27.2134C75.4405 27.7098 74.9503 28.2063 74.4717 28.7086C74.6891 28.5886 74.925 28.5061 75.1696 28.4644C75.2303 28.4099 75.291 28.3554 75.3529 28.3014C75.8964 27.6707 76.4952 27.0899 77.1422 26.5661C77.6188 25.9781 78.0623 25.3607 78.5051 24.7414C78.334 24.8593 78.1703 24.9877 78.015 25.1259C77.2916 25.7862 76.6143 26.5141 75.9242 27.2134ZM74.3932 29.4135L74.4961 29.3992C74.5255 29.3594 74.5542 29.3177 74.5817 29.2818C74.5763 29.2729 74.5735 29.2627 74.5736 29.2523C74.5737 29.2419 74.5767 29.2317 74.5823 29.2229C74.5727 29.2307 74.5627 29.238 74.5523 29.2448C74.5044 29.2993 74.4513 29.3577 74.397 29.4154L74.3932 29.4135ZM79.5457 28.8734C78.6989 28.4752 77.5499 27.9855 76.5991 28.2731C76.4261 28.3277 76.2581 28.3971 76.0968 28.4803C76.6511 28.5896 77.1705 28.8315 77.6107 29.1855C78.2625 29.1307 78.9094 29.0263 79.5457 28.8734ZM75.677 28.5574C75.5941 28.5551 75.5111 28.557 75.4284 28.5631C75.3562 28.6247 75.2846 28.6882 75.2105 28.7472C75.1057 28.855 75.0085 28.9506 74.9101 29.0552C74.8673 29.1122 74.8219 29.1712 74.7817 29.2231C75.0511 28.9987 75.3332 28.7899 75.6265 28.5978C75.6456 28.5818 75.6616 28.569 75.6782 28.5549L75.677 28.5574ZM76.2424 27.6056C76.3715 27.4684 76.4987 27.3286 76.6252 27.1868C76.4126 27.3785 76.2073 27.5769 76.0092 27.7822C76.0865 27.7199 76.1613 27.666 76.2437 27.6031L76.2424 27.6056ZM78.7889 24.5661C78.3882 25.136 77.9831 25.7021 77.5581 26.2503C78.7533 25.3615 80.0825 24.6699 81.4951 24.2017C80.7468 23.7629 79.6713 24.038 78.7901 24.5635L78.7889 24.5661ZM81.63 24.2897C80.0317 24.8073 78.5405 25.6125 77.2297 26.6658C77.0578 26.8793 76.8795 27.0896 76.6974 27.2948C78.3785 26.208 80.3003 25.5525 82.2927 25.3866C82.2073 24.9537 81.9733 24.5648 81.6313 24.2871L81.63 24.2897ZM82.3311 25.5465L82.3221 25.5101C80.408 25.6677 78.5583 26.2817 76.9275 27.3007C77.1972 27.1581 77.4772 27.0361 77.7652 26.936C79.2209 26.4393 80.8658 26.4369 82.3873 26.3074C82.4001 26.0516 82.3816 25.7952 82.3323 25.544L82.3311 25.5465ZM82.381 26.4387C80.9872 26.555 79.5085 26.5794 78.1614 26.9479C77.3318 27.1857 76.5592 27.5913 75.8916 28.1396C75.7894 28.239 75.6846 28.3372 75.5843 28.436C75.6666 28.4355 75.749 28.4392 75.831 28.447C76.4482 27.9867 77.1294 27.6063 77.8579 27.4574C79.0785 27.2083 80.5246 27.5949 81.7286 27.8047C82.101 27.4395 82.331 26.9531 82.3771 26.4336L82.381 26.4387ZM81.6052 27.9081C80.4818 27.7096 79.1858 27.4058 78.0669 27.5632C77.487 27.6592 76.9325 27.8728 76.4374 28.1909C76.5638 28.1455 76.6938 28.1107 76.8259 28.087C77.7512 27.9307 78.8012 28.3822 79.6172 28.7682C79.6247 28.7712 79.6315 28.7758 79.637 28.7817C79.6425 28.7876 79.6467 28.7946 79.6493 28.8023C79.6518 28.81 79.6527 28.8181 79.6518 28.8261C79.6509 28.8341 79.6483 28.8419 79.6441 28.8488C80.3879 28.6533 81.0985 28.3579 81.6065 27.9055L81.6052 27.9081ZM77.4222 29.2019C76.9808 28.8703 76.4631 28.6551 75.9166 28.5761C75.8444 28.6185 75.7696 28.6628 75.6942 28.702C75.4297 28.9126 75.1753 29.1314 74.9389 29.3527C75.7275 29.2819 76.5307 29.2679 77.2861 29.2093L77.4222 29.2019ZM73.9433 29.49C74.1252 29.3812 74.3031 29.2667 74.4769 29.1464C74.6424 28.9713 74.8092 28.8 74.9887 28.6383C74.5227 28.7689 74.1148 29.0551 73.8327 29.4493C73.8254 29.4599 73.8143 29.4673 73.8017 29.47C73.7891 29.4727 73.7759 29.4703 73.765 29.4635L73.6934 29.5398C73.7778 29.5179 73.8615 29.5036 73.9446 29.4874L73.9433 29.49Z" fill="#C3937C"/>
<path d="M68.0834 15.9737C70.3865 16.3828 71.4806 19.1077 71.7415 21.1195C72.2311 24.8552 72.7986 25.6278 72.7495 27.1922C72.7406 27.4758 71.9936 28.5515 72.0019 28.2596C72.017 27.3501 71.9859 26.4405 71.9085 25.5344C71.8712 25.5168 71.8403 25.488 71.8203 25.452C70.3344 22.8182 66.7705 22.1533 65.5351 19.366C64.703 17.4886 65.9649 15.5976 68.0834 15.9737ZM68.1903 19.9714C68.585 20.2387 68.9608 20.533 69.315 20.8522C69.5962 21.1044 69.8563 21.3669 70.1215 21.6447C70.0538 21.3261 69.9963 21.003 69.9547 20.6767L69.9157 20.5757C69.2325 18.8413 68.4176 16.8589 66.3018 16.6728C66.1912 16.7612 66.0941 16.8654 66.0136 16.982C67.1524 17.6009 67.5327 18.8162 68.1507 19.894L68.1903 19.9714ZM71.2329 23.9446L71.1997 23.8609C71.0531 23.7281 70.9132 23.5959 70.7798 23.4643C70.7901 23.4886 70.7964 23.5142 70.8054 23.5379C70.9524 23.6687 71.0943 23.8035 71.2329 23.9446ZM71.7263 23.7618C71.5627 23.5522 71.3978 23.342 71.2303 23.1337C71.4093 23.5717 71.608 24.0053 71.8068 24.442C71.7825 24.2155 71.7557 23.9887 71.7263 23.7618ZM71.67 24.4442C71.4719 24.0254 71.2687 23.604 71.091 23.1666L71.4873 24.2219C71.5499 24.2947 71.61 24.3694 71.67 24.4442ZM71.0904 23.584L70.6277 22.4028C70.5491 22.3108 70.4717 22.2194 70.3925 22.1255C70.4724 22.4836 70.5703 22.8373 70.6859 23.1854C70.8169 23.3228 70.9524 23.4543 71.0904 23.584ZM70.4935 22.0638L70.2583 21.4665C70.2838 21.6073 70.3075 21.7487 70.3363 21.8894L70.4935 22.0638ZM70.1695 21.8847C69.6822 21.3415 69.1456 20.8447 68.5667 20.4007C68.5002 20.3516 68.4325 20.305 68.3641 20.2597C68.9671 21.2386 69.6742 22.1492 70.4731 22.9753C70.3555 22.6159 70.2543 22.2523 70.1695 21.8847ZM66.4577 16.5681C67.9428 16.7581 68.8605 17.8782 69.4843 19.1972C69.6243 19.4959 69.7585 19.7996 69.8901 20.1053C69.7782 18.9118 69.704 17.6779 68.8554 16.8195C68.0776 16.3853 67.1267 16.1768 66.4577 16.5681ZM69.2094 17.0504C69.6184 17.6064 69.8159 18.2825 69.9169 19.0145C69.9955 19.5898 70.0608 20.1503 70.1387 20.7045C70.3739 21.2762 70.5976 21.8549 70.8162 22.4343C70.7217 22.1512 70.648 21.8615 70.5957 21.5675C70.3873 20.3851 70.524 19.1988 70.1456 18.0501C70.0689 17.9318 69.9897 17.8123 69.9028 17.7018C69.7056 17.4511 69.4718 17.2315 69.2094 17.0504ZM70.3962 18.4758C70.5809 19.2864 70.5777 20.1121 70.6519 20.9523C70.7148 21.5697 70.8596 22.1758 71.0827 22.7544C71.2904 23.0068 71.4936 23.2617 71.6949 23.5173L71.6566 23.223C71.4399 21.6412 71.1778 19.9104 70.3962 18.4758ZM69.1509 22.2793C68.8517 21.7985 68.4983 21.3539 68.0977 20.9541C67.5788 20.4586 66.9544 20.1393 66.3064 19.8546C66.6853 20.3481 67.1258 20.7909 67.6171 21.1722C68.1169 21.5653 68.6377 21.9226 69.1509 22.2793ZM66.1722 19.6565C67.6484 20.3029 68.5431 21.1586 69.4129 22.4611C69.8263 22.7521 70.236 23.0507 70.613 23.3699C70.599 23.3341 70.5868 23.2977 70.5747 23.2612C69.8874 22.578 69.2642 21.8329 68.7131 21.0353C68.5235 20.7519 68.3505 20.4578 68.1948 20.1544C67.3928 19.6762 66.3946 19.3673 65.7402 18.7306C65.8344 19.0603 65.9802 19.3727 66.1722 19.6565ZM65.7248 17.6732C65.6598 17.941 65.6498 18.2191 65.6954 18.4907C66.231 19.1033 67.0732 19.2992 67.7564 19.6958C67.8599 19.7571 67.9602 19.8215 68.0606 19.8859C67.5045 18.8086 66.9472 17.6379 65.9503 17.0992C65.8453 17.2771 65.7672 17.4694 65.7184 17.67L65.7248 17.6732Z" fill="#C3937C"/>
<path d="M67.7737 8.76273C69.3125 7.76018 70.8417 9.37874 71.5729 10.5753C72.7047 12.431 73.1233 14.4399 73.4449 16.5635C73.4501 16.5997 73.4455 16.6367 73.4315 16.6705C73.8111 17.231 74.1025 17.8563 74.1192 18.5303C74.1256 18.8151 73.6623 19.6834 73.6566 19.3973C73.6239 18.1089 72.5432 16.17 71.7105 15.3308C70.6944 14.3057 69.5102 13.5761 68.4072 12.6741C67.3342 11.7951 66.1947 9.78842 67.7737 8.76273ZM68.3637 12.0604L68.5842 12.2583C69.2731 12.6368 69.9416 13.0513 70.587 13.5001C70.3435 13.1659 70.1 12.8316 69.861 12.4981L69.6533 12.1913C68.9999 11.742 68.3118 11.3454 67.5955 11.0053C67.5908 11.003 67.5865 10.9998 67.583 10.9959C67.5795 10.9919 67.5768 10.9873 67.5751 10.9823C67.7598 11.3926 68.029 11.7591 68.365 12.0578L68.3637 12.0604ZM72.3169 15.3339L72.3233 15.3211C72.2383 15.1459 72.152 14.9701 72.0709 14.7936C71.7863 14.5557 71.4955 14.3248 71.1986 14.101C71.3577 14.3164 71.52 14.5285 71.6779 14.7401C71.8922 14.9248 72.1035 15.1208 72.3118 15.3282L72.3169 15.3339ZM72.7527 15.0616C72.7434 15.0593 72.7346 15.0549 72.7272 15.0488C72.6288 14.9261 72.5271 14.8099 72.4191 14.6872C72.423 14.7467 72.4243 14.8082 72.4281 14.8677L72.4863 14.9847C72.5879 15.0722 72.6869 15.1616 72.7873 15.2516L72.7527 15.0616ZM68.2658 9.03368C69.112 9.47627 69.8886 10.0408 70.5709 10.7094C70.227 9.92992 69.7209 9.28713 68.7278 8.96481C68.5698 8.96091 68.4121 8.98222 68.2607 9.02793L68.2658 9.03368ZM68.1105 9.09867C67.8744 9.21671 67.6891 9.41663 67.5891 9.66116C69.1413 10.2191 70.3645 11.5074 71.3301 12.9665C71.2765 12.8086 71.2189 12.6519 71.1684 12.4907C71.0067 11.9764 70.8674 11.4685 70.6872 10.9978C69.9382 10.2236 69.0665 9.57864 68.1073 9.08907L68.1105 9.09867ZM71.8254 13.7591L71.9571 13.9848C72.0625 14.0934 72.1603 14.1949 72.2581 14.3029C72.1647 13.4147 71.9359 12.5581 71.3825 11.8053C71.2681 11.6507 71.1422 11.4967 71.0093 11.344C71.2949 12.1409 71.5442 12.9533 71.8203 13.7534L71.8254 13.7591ZM72.2357 14.7638L72.1329 14.5669L72.207 14.7382L72.2357 14.7638ZM72.1961 14.424L72.276 14.5838C72.2747 14.5608 72.2715 14.5384 72.269 14.5147C72.2447 14.4802 72.2198 14.447 72.1916 14.417L72.1961 14.424ZM72.8231 15.4518L72.6352 15.2846C72.7208 15.4617 72.8045 15.6362 72.8832 15.8082L72.8231 15.4518ZM72.4396 15.1743L72.4422 15.2843C72.4786 15.3617 72.5131 15.4397 72.5508 15.5177C72.5555 15.5268 72.5579 15.537 72.5578 15.5472C72.5577 15.5575 72.5551 15.5676 72.5502 15.5766C72.6109 15.6405 72.6691 15.7063 72.7272 15.7721C72.6318 15.5709 72.5344 15.3693 72.4351 15.1672L72.4396 15.1743ZM70.8228 13.8273C70.2649 13.4259 69.6904 13.0483 69.0954 12.6988C69.7984 13.2765 70.5308 13.7985 71.2337 14.3698C71.0912 14.1819 70.9525 14.0024 70.8183 13.8203L70.8228 13.8273ZM70.9506 13.763C71.2906 14.0093 71.6237 14.2661 71.9501 14.5334C71.8529 14.3121 71.7577 14.0902 71.667 13.8657C71.1531 13.3518 70.6011 12.8775 70.0156 12.4472C70.3217 12.8798 70.6323 13.3195 70.9461 13.756L70.9506 13.763ZM71.5577 13.5856L71.5302 13.5159C70.5281 11.8834 69.2244 10.3789 67.5412 9.77967C67.5233 9.81556 67.5188 9.86293 67.5086 9.90584C68.2415 10.1577 68.7464 10.6654 69.2187 11.3217C69.4066 11.585 69.5932 11.8509 69.7798 12.1167C70.408 12.5563 71.0006 13.0449 71.5519 13.578L71.5577 13.5856ZM71.6777 11.6581C71.2514 10.8199 70.7261 9.85073 69.9241 9.33084C69.7051 9.19038 69.4647 9.08671 69.2122 9.0239C69.9022 9.3413 70.4442 9.91155 70.7268 10.6175C70.7843 10.7582 70.8386 10.8989 70.8929 11.0396C71.1024 11.2623 71.3003 11.4956 71.486 11.7385C72.0976 12.5475 72.3194 13.495 72.4012 14.4703C72.5022 14.5878 72.6025 14.7067 72.7016 14.828C72.5054 13.7267 72.1594 12.6577 71.6732 11.6511L71.6777 11.6581ZM67.453 10.3118C67.4501 10.5281 67.4901 10.7427 67.5706 10.9433C67.5695 10.9323 67.5713 10.9213 67.5759 10.9113C67.5805 10.9014 67.5876 10.8928 67.5966 10.8865C67.6056 10.8802 67.6161 10.8764 67.6271 10.8756C67.638 10.8747 67.649 10.8768 67.6588 10.8816C68.2886 11.1834 68.8963 11.5292 69.4775 11.9164C68.949 11.1265 68.3937 10.3583 67.4785 10.0333C67.4635 10.1231 67.4534 10.2138 67.4485 10.3047L67.453 10.3118Z" fill="#C3937C"/>
<path d="M75.5341 19.4469C76.1092 18.3864 76.6331 17.1147 77.4632 16.218C78.221 15.4054 80.3074 14.1686 81.3127 15.2571C82.4055 16.4516 81.3889 18.673 80.1799 19.3439C78.5721 20.2352 76.6167 20.3451 75.0338 21.3657C75.0338 21.3657 75.0204 21.3702 75.014 21.3734C74.6856 22.0098 74.3584 22.6563 74.0498 23.3073C73.922 23.5636 73.504 22.856 73.6293 22.5984C74.2139 21.3618 74.8772 20.6556 75.5341 19.4469ZM75.644 20.4779C75.8144 20.3495 75.9842 20.2149 76.1533 20.0741C76.2415 19.8973 76.3297 19.7204 76.4179 19.5436C76.245 19.6452 76.0807 19.7607 75.9265 19.889C75.8255 20.0808 75.7314 20.2771 75.644 20.4779ZM75.9994 20.3606L76.0121 20.3542L76.016 20.3465C76.016 20.3465 76.0045 20.3567 75.9994 20.3606ZM76.2575 19.3244C76.1961 19.4186 76.1399 19.5154 76.0837 19.6122C76.2251 19.512 76.3728 19.421 76.5259 19.3398C76.6121 19.1668 76.6984 18.9938 76.793 18.8329C76.6027 18.9833 76.4237 19.1476 76.2575 19.3244ZM76.938 18.5676C77.0236 18.4151 77.1112 18.2619 77.2 18.1126C76.9885 18.3384 76.7897 18.5758 76.6044 18.8237C76.7135 18.733 76.8247 18.6476 76.938 18.5676ZM76.7176 19.2433C76.9495 19.1337 77.1881 19.0389 77.432 18.9595C77.871 18.5655 78.3119 18.1741 78.7675 17.8044C78.1504 17.9997 77.5658 18.2864 77.0332 18.6551C76.9259 18.848 76.8198 19.0447 76.7176 19.2433ZM76.623 19.433C76.5501 19.5791 76.4773 19.7252 76.4045 19.8713C76.676 19.6467 76.9348 19.4125 77.1968 19.1783C76.9975 19.2494 76.8029 19.333 76.6141 19.4286L76.623 19.433ZM78.5744 15.8712C77.6332 16.4788 77.1488 17.4502 76.6197 18.3993C76.4581 18.6883 76.299 18.9786 76.1399 19.2689C76.1425 19.2623 76.1457 19.2558 76.1495 19.2497C76.5291 18.6539 76.9836 18.1093 77.5016 17.6293C78.0907 16.7421 78.7987 15.9526 79.7534 15.3789C79.3323 15.4663 78.9313 15.6329 78.5719 15.8699L78.5744 15.8712ZM80.0058 15.3496C80.0069 15.3592 80.0052 15.3688 80.0009 15.3775C79.9966 15.3861 79.9899 15.3934 79.9816 15.3983C79.1617 15.8723 78.4537 16.5182 77.9061 17.2917C78.8147 16.5503 79.8685 16.0082 80.9989 15.7007C80.8719 15.5684 80.7158 15.4677 80.5429 15.4066C80.3701 15.3454 80.1853 15.3255 80.0033 15.3483L80.0058 15.3496ZM81.2098 16.0331C81.1736 15.9536 81.1295 15.878 81.0782 15.8074C79.7798 16.1521 78.585 16.8101 77.5981 17.7238C77.4505 17.9462 77.3105 18.1757 77.1751 18.409C77.7533 18.0498 78.3797 17.7753 79.0353 17.5939C79.7099 17.0527 80.4556 16.6072 81.2514 16.2698C81.2636 16.2653 81.2772 16.2657 81.2891 16.271C81.2696 16.1888 81.2422 16.1086 81.2073 16.0318L81.2098 16.0331ZM81.3089 16.3721C81.305 16.3798 81.3019 16.3862 81.2904 16.3901C80.6003 16.6786 79.9489 17.0527 79.3516 17.5036C79.9791 17.3509 80.6176 17.2476 81.261 17.1947C81.3358 16.9265 81.3513 16.6453 81.3063 16.3708L81.3089 16.3721ZM81.2176 17.3298C80.4979 17.3904 79.7851 17.5171 79.0883 17.7083C78.6167 18.0749 78.1643 18.4701 77.7112 18.8699C78.6429 18.6016 79.6475 18.4752 80.5262 18.2972C80.5373 18.295 80.5489 18.2955 80.5598 18.2988C80.5706 18.3022 80.5805 18.3081 80.5885 18.3163C80.5965 18.3244 80.6024 18.3343 80.6055 18.3453C80.6087 18.3562 80.6091 18.3678 80.6067 18.379C80.8745 18.0708 81.081 17.7143 81.215 17.3286L81.2176 17.3298ZM78.3222 19.517C78.8104 19.3539 79.3651 19.2369 79.829 19.0169C80.1176 18.8677 80.3739 18.6626 80.583 18.4136L80.5786 18.4226C79.6251 18.616 78.5036 18.7433 77.5029 19.0733C77.0946 19.4409 76.685 19.808 76.2633 20.1577L76.1994 20.2859C76.8882 19.9861 77.6142 19.7496 78.3248 19.5182L78.3222 19.517ZM75.4415 20.6313C75.4964 20.4987 75.5539 20.3673 75.6153 20.2379C75.5456 20.3776 75.4664 20.5141 75.3929 20.6519L75.4415 20.6313Z" fill="#C3937C"/>
<path d="M74.85 13.9822C75.0391 12.2043 75.8569 10.4423 76.8422 8.97183C77.4608 8.05132 78.6084 6.49213 79.8941 6.52833C81.6368 6.57953 81.4656 8.78238 80.7104 9.76592C79.9902 10.7014 78.8553 11.2748 77.8942 11.9189C77.1964 12.3666 76.5425 12.8796 75.9414 13.4511C75.9184 13.4973 75.9044 13.5479 75.8884 13.5959C75.8724 13.6439 75.8187 13.6364 75.79 13.6044C75.3312 14.0861 74.999 15.5462 74.7063 16.1844C74.5875 16.4452 74.1292 15.3286 74.2474 15.0691C74.415 14.7043 74.6186 14.3571 74.8551 14.0328C74.8514 14.0162 74.8497 13.9992 74.85 13.9822ZM80.2814 7.24947C78.602 8.64984 77.2618 10.4139 76.3625 12.4082C77.1072 11.5493 77.9604 10.7913 78.9006 10.1533C79.5541 9.33835 80.1254 8.46058 80.6061 7.53294C80.5195 7.42107 80.4113 7.32792 80.2878 7.25906L80.2814 7.24947ZM76.036 12.7494L76.0992 12.6929C76.1388 12.6135 76.1695 12.5296 76.2059 12.4501C76.1497 12.5565 76.0935 12.6565 76.0372 12.7564L76.036 12.7494ZM80.1581 7.18957C79.996 7.12676 79.8225 7.0986 79.6488 7.10686C79.1789 7.75907 78.7229 8.41871 78.2807 9.08579C78.8494 8.40117 79.4781 7.76891 80.1594 7.19662L80.1581 7.18957ZM76.7363 12.1833C76.9225 12.0446 77.1125 11.9079 77.3063 11.773C77.3626 11.7339 77.4207 11.6973 77.4789 11.6574C77.7856 11.3623 78.1006 11.0698 78.3888 10.751C78.4527 10.6805 78.514 10.6086 78.576 10.5387C77.9122 11.0294 77.2966 11.5825 76.7376 12.1903L76.7363 12.1833ZM75.4532 13.3037C75.4473 13.2956 75.4438 13.2861 75.4432 13.2761C75.4425 13.2661 75.4446 13.2562 75.4494 13.2474C76.4513 11.3723 77.4536 9.49747 78.4564 7.62283C77.9177 8.06311 77.4557 8.72403 77.08 9.35277C76.6251 10.5498 76.1025 11.7199 75.5145 12.8574C75.4704 13.0259 75.4315 13.1937 75.3963 13.3634C75.4142 13.3563 75.4321 13.3364 75.4519 13.3159L75.4532 13.3037ZM75.7279 12.1606C76.05 11.5019 76.3509 10.8332 76.6308 10.1545C76.5924 10.2314 76.556 10.3044 76.5209 10.3749C76.2112 10.9554 75.9448 11.5581 75.7241 12.1779L75.7279 12.1606ZM78.6973 7.43732L75.6941 13.0574L75.7465 13.0067C76.8782 10.9708 78.1263 9.00187 79.4845 7.10979C79.3757 7.12637 79.2687 7.1534 79.165 7.1905C78.9978 7.25915 78.8394 7.34784 78.6934 7.45461L78.6973 7.43732ZM80.8215 8.56363C80.8967 8.24899 80.851 7.91778 80.6936 7.6358C80.2763 8.43475 79.7926 9.19722 79.2476 9.91509C79.6694 9.64533 80.118 9.38895 80.5895 9.14404C80.6943 8.96927 80.7712 8.77928 80.8176 8.58091L80.8215 8.56363ZM79.4885 10.2992C79.8546 10.0344 80.1803 9.71753 80.4554 9.35876C79.9537 9.62275 79.4669 9.91422 78.9971 10.2318C78.9313 10.3126 78.8655 10.3934 78.7984 10.4736C78.553 10.7609 78.291 11.0303 78.0233 11.292C78.516 10.992 79.017 10.6754 79.4847 10.3165L79.4885 10.2992Z" fill="#C3937C"/>
<path d="M74.1971 5.86883C74.1005 4.31495 75.2358 -1.56278 77.9812 0.394892C79.0414 1.14911 78.419 2.42296 77.7321 3.17656C76.5078 4.5215 74.222 5.61723 74.0579 7.66518C74.0355 7.95006 73.6022 7.86205 73.6214 7.58037C73.6824 7.00234 73.89 6.44924 74.2246 5.97373C74.2069 5.9416 74.1974 5.90556 74.1971 5.86883ZM76.1727 0.990955C75.5919 2.15589 75.0609 3.33288 74.8603 4.61858C74.9754 4.48154 75.0976 4.35073 75.2265 4.2267C75.3562 4.00495 75.4808 3.78064 75.608 3.55762C75.608 3.55762 75.6041 3.5429 75.6086 3.53393C76.0486 2.69365 76.3152 1.77354 76.3926 0.828537C76.3159 0.879913 76.2424 0.934475 76.1727 0.990955ZM74.9064 4.75994C74.8789 4.79584 74.8527 4.83238 74.8265 4.86892L74.8214 4.90158L74.9064 4.75994ZM74.6233 5.23165C74.6521 5.17398 74.6891 5.12206 74.723 5.06694C74.7139 5.06402 74.7052 5.05971 74.6974 5.05419C74.677 5.0952 74.6482 5.13047 74.622 5.17661L74.6233 5.23165ZM74.6335 4.91671C74.652 4.87955 74.6827 4.85004 74.707 4.81734C74.8667 3.53685 75.3587 2.37723 75.9171 1.22515C75.8579 1.2865 75.8022 1.35115 75.7504 1.41881C75.0245 2.39781 74.6916 3.68317 74.6329 4.91799L74.6335 4.91671ZM76.5261 0.739904C76.4836 1.35668 76.3618 1.96556 76.1639 2.55147C76.53 1.87475 76.8827 1.19294 77.2214 0.500911C76.9732 0.525365 76.7342 0.608599 76.5242 0.743753L76.5261 0.739904ZM77.3594 0.505724C76.8099 1.63667 76.2195 2.744 75.5958 3.83478C75.6093 3.80787 75.6323 3.78734 75.6521 3.76361C76.408 2.846 77.4004 2.19669 78.0228 1.16608C78.0113 1.10873 77.9944 1.05261 77.9723 0.998495C77.9237 0.868796 77.8408 0.754824 77.7326 0.668714C77.6243 0.582605 77.4947 0.527603 77.3575 0.509572L77.3594 0.505724ZM78.049 1.36317C77.5748 2.08686 76.9339 2.61378 76.3237 3.22319C76.1844 3.36176 76.0553 3.50542 75.9275 3.65292C76.4783 3.2555 77.0822 2.91493 77.6477 2.56804C77.872 2.22702 78.0662 1.77662 78.0471 1.36702L78.049 1.36317ZM76.4285 3.7363C76.7741 3.47252 77.1006 3.18453 77.4055 2.87451L77.4285 2.84758C76.7775 3.21127 76.1562 3.62593 75.5703 4.08767C75.2917 4.45649 75.0352 4.84156 74.8022 5.24085C75.305 4.70021 75.8481 4.19854 76.4266 3.74015L76.4285 3.7363Z" fill="#C3937C"/>
<path d="M66.9862 3.79688C67.6961 3.04835 68.9448 3.21329 69.7622 3.65121C71.4544 4.55573 72.0507 6.6116 72.8783 8.20355C73.2489 8.51787 73.5954 8.85965 73.9149 9.22602C74.0996 9.43811 73.8031 9.77033 73.6184 9.55824C73.3013 9.19393 72.9567 8.85466 72.5876 8.54344C72.576 8.53491 72.5653 8.52529 72.5556 8.51471C71.911 7.97931 71.2045 7.52336 70.4512 7.15664C69.531 6.69782 68.497 6.40312 67.6554 5.80267C66.9697 5.32157 66.2552 4.5685 66.9862 3.79688ZM67.4777 5.20204C68.5947 5.56697 69.5572 6.25163 70.6237 6.73701C70.6314 6.74083 70.6352 6.74274 70.6416 6.74593L70.648 6.74911C70.7336 6.79181 70.818 6.83387 70.9036 6.87656C69.7827 5.99766 68.619 5.20782 67.2304 4.82749C67.2902 4.96594 67.3739 5.09273 67.4777 5.20204ZM71.5599 7.25661C71.7363 7.36375 71.9069 7.47602 72.0769 7.59278C72.0277 7.54744 71.9792 7.50403 71.9319 7.45804C71.9225 7.45771 71.9133 7.45537 71.905 7.45119C71.8966 7.44701 71.8892 7.4411 71.8833 7.43383L71.8041 7.33031C71.2724 6.79639 70.8058 6.20856 70.2466 5.70413C69.3888 4.93224 68.3044 4.45893 67.1549 4.35465C67.1334 4.46706 67.1391 4.58293 67.1716 4.69257C68.8631 5.13432 70.2275 6.16823 71.5663 7.25979L71.5599 7.25661ZM71.5867 6.5403C70.4543 5.53085 69.644 4.35555 68.2662 3.739C68.1501 3.74816 68.0348 3.76553 67.9211 3.79097C69.6152 4.45162 70.7885 5.81751 71.8986 7.24306L71.9574 7.30117C71.8386 7.04668 71.719 6.79348 71.5931 6.54349L71.5867 6.5403ZM67.7153 3.84519C67.5024 3.90384 67.3195 4.04159 67.2041 4.23036C68.152 4.31903 69.0601 4.65271 69.8395 5.19874C70.0441 5.34906 70.2388 5.5124 70.4224 5.68774C69.6549 4.90023 68.8024 4.23195 67.7217 3.84837L67.7153 3.84519ZM68.7448 3.75203L68.6828 3.74514C69.7558 4.36491 70.5016 5.34 71.4206 6.21423C71.2022 5.79704 70.9454 5.40119 70.6537 5.03179C70.1744 4.42478 69.5436 3.88468 68.7512 3.75522L68.7448 3.75203ZM69.4945 6.29721C68.923 5.96024 68.3285 5.66383 67.7154 5.41016C68.1889 5.78228 68.874 6.06304 69.5009 6.3004L69.4945 6.29721Z" fill="#C3937C"/>
</svg>
