<svg width="282" height="31" viewBox="0 0 282 31" fill="none" xmlns="http://www.w3.org/2000/svg">
<g filter="url(#filter0_dd_763_11126)">
<rect width="46.7683" height="30.1296" rx="5.37857" fill="white"/>
<rect x="-0.112054" y="-0.112054" width="46.9924" height="30.3537" rx="5.49062" stroke="#D6DCE5" stroke-width="0.224107"/>
<path d="M23.0983 10.1549L20.9169 20.352H18.2791L20.4608 10.1549H23.0983ZM34.1965 16.7392L35.5853 12.9099L36.3844 16.7392H34.1965ZM37.1396 20.352H39.5796L37.4504 10.1549H35.1983C34.6923 10.1549 34.2653 10.4493 34.0752 10.903L30.1177 20.352H32.8878L33.4377 18.8293H36.8221L37.1396 20.352ZM30.2552 17.0226C30.2665 14.3312 26.5333 14.1831 26.5591 12.9809C26.5668 12.6146 26.9157 12.226 27.6777 12.1262C28.0563 12.0769 29.0972 12.0391 30.279 12.5829L30.7419 10.4205C30.107 10.1901 29.2902 9.96837 28.2742 9.96837C25.667 9.96837 23.8319 11.3546 23.8164 13.3394C23.8 14.8073 25.1264 15.6264 26.126 16.1144C27.1536 16.6143 27.4989 16.9345 27.4944 17.3815C27.4876 18.066 26.6746 18.3675 25.9162 18.3794C24.5897 18.4004 23.82 18.0215 23.2064 17.7356L22.7284 19.9699C23.3446 20.253 24.4822 20.4989 25.6625 20.5115C28.4333 20.5115 30.2461 19.1424 30.2552 17.0226ZM19.329 10.1549L15.0552 20.352H12.2664L10.1633 12.214C10.0355 11.7128 9.92452 11.5295 9.53625 11.3181C8.90271 10.9744 7.8554 10.6513 6.93397 10.4512L6.9969 10.1549H11.4853C12.0572 10.1549 12.572 10.5358 12.7017 11.1945L13.8126 17.0955L16.5576 10.1549H19.329Z" fill="#1434CB"/>
</g>
<g filter="url(#filter1_dd_763_11126)">
<rect x="58.8079" width="46.7683" height="30.1296" rx="5.37857" fill="white"/>
<rect x="58.6959" y="-0.112054" width="46.9924" height="30.3537" rx="5.49062" stroke="#D6DCE5" stroke-width="0.224107"/>
<path d="M85.5517 8.87811H78.6658V21.2524H85.5517V8.87811Z" fill="#FF5F00"/>
<path d="M79.103 15.0652C79.102 13.8735 79.372 12.6971 79.8928 11.6252C80.4135 10.5533 81.1713 9.61387 82.1088 8.87811C80.9479 7.96558 79.5536 7.3981 78.0854 7.24051C76.6172 7.08293 75.1343 7.3416 73.8061 7.98697C72.478 8.63234 71.3582 9.63836 70.5748 10.8901C69.7914 12.1417 69.3759 13.5886 69.3759 15.0652C69.3759 16.5419 69.7914 17.9887 70.5748 19.2404C71.3582 20.4921 72.478 21.4981 73.8061 22.1435C75.1343 22.7889 76.6172 23.0475 78.0854 22.89C79.5536 22.7324 80.9479 22.1649 82.1088 21.2524C81.1713 20.5166 80.4135 19.5772 79.8928 18.5052C79.372 17.4333 79.102 16.257 79.103 15.0652Z" fill="#EB001B"/>
<path d="M94.8413 15.0652C94.8413 16.5419 94.4259 17.9887 93.6426 19.2404C92.8592 20.4921 91.7394 21.4981 90.4113 22.1435C89.0832 22.7889 87.6003 23.0475 86.1321 22.89C84.6639 22.7324 83.2697 22.1649 82.1088 21.2524C83.0455 20.5158 83.8027 19.5763 84.3233 18.5045C84.844 17.4328 85.1145 16.2568 85.1145 15.0652C85.1145 13.8737 84.844 12.6977 84.3233 11.6259C83.8027 10.5542 83.0455 9.61462 82.1088 8.87811C83.2697 7.96558 84.6639 7.39809 86.1321 7.24051C87.6003 7.08293 89.0832 7.34161 90.4113 7.98699C91.7394 8.63236 92.8592 9.63839 93.6426 10.8901C94.4259 12.1418 94.8413 13.5886 94.8413 15.0652Z" fill="#F79E1B"/>
<path d="M94.0905 19.9417V19.6884H94.1926V19.6368H93.9325V19.6884H94.0347V19.9417H94.0905ZM94.5956 19.9417V19.6363H94.5158L94.4241 19.8464L94.3324 19.6363H94.2526V19.9417H94.3089V19.7113L94.3949 19.91H94.4533L94.5393 19.7108V19.9417H94.5956Z" fill="#F79E1B"/>
</g>
<g filter="url(#filter2_dd_763_11126)">
<rect x="117.616" width="46.7683" height="30.1296" rx="5.37857" fill="white"/>
<rect x="117.504" y="-0.112054" width="46.9924" height="30.3537" rx="5.49062" stroke="#D6DCE5" stroke-width="0.224107"/>
<path fill-rule="evenodd" clip-rule="evenodd" d="M127.847 10.6817H125.15C124.966 10.6817 124.809 10.8157 124.78 10.9978L123.689 17.9113C123.668 18.0478 123.773 18.1707 123.912 18.1707H125.199C125.384 18.1707 125.541 18.0367 125.569 17.8542L125.863 15.9896C125.892 15.8069 126.049 15.673 126.233 15.673H127.087C128.863 15.673 129.888 14.8136 130.156 13.1106C130.276 12.3655 130.161 11.7801 129.812 11.37C129.429 10.9199 128.749 10.6817 127.847 10.6817ZM128.158 13.2067C128.01 14.1742 127.271 14.1742 126.556 14.1742H126.149L126.435 12.3673C126.452 12.2582 126.546 12.1778 126.657 12.1778H126.843C127.33 12.1778 127.789 12.1778 128.027 12.4553C128.168 12.6209 128.212 12.8668 128.158 13.2067ZM135.907 13.1757H134.615C134.505 13.1757 134.41 13.2562 134.393 13.3654L134.336 13.7265L134.246 13.5957C133.966 13.1899 133.343 13.0544 132.721 13.0544C131.294 13.0544 130.075 14.1349 129.838 15.6508C129.715 16.4068 129.89 17.1298 130.319 17.634C130.713 18.0976 131.276 18.2908 131.945 18.2908C133.095 18.2908 133.733 17.5516 133.733 17.5516L133.675 17.9104C133.653 18.0476 133.759 18.1706 133.897 18.1706H135.06C135.245 18.1706 135.401 18.0365 135.43 17.854L136.128 13.4351C136.15 13.2992 136.045 13.1757 135.907 13.1757ZM134.107 15.6885C133.982 16.4261 133.397 16.9213 132.65 16.9213C132.275 16.9213 131.975 16.801 131.783 16.5732C131.592 16.3469 131.52 16.0248 131.58 15.6661C131.697 14.9347 132.292 14.4236 133.027 14.4236C133.394 14.4236 133.692 14.5452 133.888 14.7751C134.085 15.0073 134.163 15.3313 134.107 15.6885ZM141.486 13.1755H142.784C142.965 13.1755 143.071 13.3793 142.968 13.5284L138.652 19.757C138.583 19.8579 138.467 19.9179 138.344 19.9179H137.048C136.866 19.9179 136.759 19.7125 136.865 19.5631L138.209 17.6665L136.78 13.4727C136.73 13.3269 136.838 13.1755 136.993 13.1755H138.268C138.434 13.1755 138.58 13.2843 138.628 13.4428L139.386 15.9757L141.176 13.3399C141.246 13.237 141.362 13.1755 141.486 13.1755Z" fill="#253B80"/>
<path fill-rule="evenodd" clip-rule="evenodd" d="M155.555 17.9107L156.661 10.8708C156.678 10.7615 156.773 10.681 156.883 10.6807H158.129C158.266 10.6807 158.372 10.804 158.35 10.9405L157.259 17.8536C157.231 18.036 157.074 18.1701 156.889 18.1701H155.776C155.639 18.1701 155.533 18.0472 155.555 17.9107ZM147.08 10.681H144.383C144.199 10.681 144.042 10.8151 144.013 10.9972L142.923 17.9107C142.901 18.0472 143.007 18.1701 143.144 18.1701H144.528C144.657 18.1701 144.767 18.0763 144.787 17.9486L145.096 15.9889C145.125 15.8063 145.282 15.6724 145.466 15.6724H146.319C148.096 15.6724 149.121 14.813 149.389 13.11C149.51 12.3649 149.394 11.7795 149.045 11.3694C148.662 10.9193 147.982 10.681 147.08 10.681ZM147.391 13.2061C147.244 14.1736 146.505 14.1736 145.789 14.1736H145.383L145.669 12.3667C145.686 12.2576 145.78 12.1772 145.89 12.1772H146.077C146.563 12.1772 147.023 12.1772 147.26 12.4547C147.402 12.6203 147.445 12.8662 147.391 13.2061ZM155.139 13.1751H153.849C153.738 13.1751 153.644 13.2555 153.627 13.3648L153.57 13.7259L153.48 13.5951C153.2 13.1893 152.577 13.0538 151.955 13.0538C150.528 13.0538 149.31 14.1343 149.072 15.6502C148.949 16.4062 149.124 17.1292 149.553 17.6334C149.947 18.097 150.51 18.2902 151.179 18.2902C152.329 18.2902 152.967 17.5509 152.967 17.5509L152.909 17.9098C152.887 18.047 152.993 18.1699 153.131 18.1699H154.294C154.478 18.1699 154.635 18.0358 154.664 17.8534L155.362 13.4345C155.384 13.2986 155.278 13.1751 155.139 13.1751ZM153.34 15.6879C153.216 16.4255 152.63 16.9206 151.883 16.9206C151.509 16.9206 151.208 16.8004 151.016 16.5726C150.825 16.3463 150.753 16.0242 150.813 15.6655C150.93 14.9341 151.525 14.4229 152.26 14.4229C152.627 14.4229 152.925 14.5446 153.121 14.7745C153.319 15.0067 153.397 15.3307 153.34 15.6879Z" fill="#179BD7"/>
</g>
<g filter="url(#filter3_dd_763_11126)">
<rect x="176.424" width="46.7683" height="30.1296" rx="5.37857" fill="white"/>
<rect x="176.312" y="-0.112054" width="46.9924" height="30.3537" rx="5.49062" stroke="#D6DCE5" stroke-width="0.224107"/>
<path d="M191.551 11.1181C191.863 10.7278 192.074 10.2038 192.018 9.66831C191.562 9.69102 191.004 9.96965 190.682 10.3602C190.392 10.6947 190.135 11.2406 190.202 11.7537C190.715 11.7982 191.227 11.4974 191.551 11.1181Z" fill="#000008"/>
<path d="M192.013 11.8539C191.268 11.8095 190.635 12.2765 190.279 12.2765C189.924 12.2765 189.379 11.8762 188.79 11.887C188.024 11.8983 187.312 12.3317 186.923 13.021C186.123 14.4 186.712 16.4455 187.49 17.5686C187.868 18.1243 188.323 18.7361 188.923 18.7141C189.49 18.6918 189.712 18.347 190.402 18.347C191.09 18.347 191.29 18.7141 191.89 18.703C192.513 18.6918 192.902 18.1471 193.28 17.5909C193.713 16.9575 193.89 16.3459 193.902 16.3123C193.89 16.3012 192.702 15.8451 192.691 14.4776C192.679 13.3325 193.624 12.7879 193.668 12.7541C193.135 11.9652 192.302 11.8762 192.013 11.8539Z" fill="#000008"/>
<path d="M198.496 10.3042C200.114 10.3042 201.241 11.4198 201.241 13.044C201.241 14.6739 200.091 15.7953 198.455 15.7953H196.664V18.6449H195.369V10.3042L198.496 10.3042ZM196.664 14.7086H198.149C199.276 14.7086 199.918 14.1018 199.918 13.0498C199.918 11.9979 199.276 11.3967 198.155 11.3967H196.664V14.7086Z" fill="#000008"/>
<path d="M201.58 16.9167C201.58 15.853 202.395 15.1999 203.84 15.119L205.504 15.0208V14.5526C205.504 13.8763 205.048 13.4717 204.285 13.4717C203.562 13.4717 203.111 13.8185 203.002 14.3619H201.822C201.892 13.2636 202.828 12.4544 204.331 12.4544C205.805 12.4544 206.747 13.2347 206.747 14.4543V18.6449H205.55V17.6449H205.522C205.169 18.3212 204.4 18.7489 203.603 18.7489C202.412 18.7489 201.58 18.009 201.58 16.9167ZM205.504 16.3676V15.8878L204.007 15.9803C203.262 16.0323 202.84 16.3618 202.84 16.882C202.84 17.4137 203.279 17.7605 203.949 17.7605C204.822 17.7605 205.504 17.1594 205.504 16.3676Z" fill="#000008"/>
<path d="M207.877 20.8818V19.8702C207.969 19.8933 208.177 19.8933 208.281 19.8933C208.859 19.8933 209.171 19.6506 209.362 19.0264C209.362 19.0148 209.472 18.6565 209.472 18.6507L207.275 12.5642H208.628L210.165 17.512H210.188L211.726 12.5642H213.044L210.766 18.9627C210.246 20.4367 209.645 20.9107 208.385 20.9107C208.281 20.9107 207.969 20.8991 207.877 20.8818Z" fill="#000008"/>
</g>
<g filter="url(#filter4_dd_763_11126)">
<rect x="235.232" width="46.7683" height="30.1296" rx="5.37857" fill="white"/>
<rect x="235.12" y="-0.112054" width="46.9924" height="30.3537" rx="5.49062" stroke="#D6DCE5" stroke-width="0.224107"/>
<path d="M257.6 18.6753H256.548V10.4901H259.336C260.043 10.4901 260.646 10.7257 261.139 11.1969C261.643 11.668 261.895 12.2433 261.895 12.9227C261.895 13.6185 261.643 14.1937 261.139 14.6594C260.651 15.1251 260.049 15.3552 259.336 15.3552H257.6V18.6753ZM257.6 11.4982V14.3526H259.358C259.775 14.3526 260.125 14.2102 260.399 13.9307C260.679 13.6513 260.821 13.3116 260.821 12.9281C260.821 12.5501 260.679 12.2159 260.399 11.9365C260.125 11.6461 259.78 11.5037 259.358 11.5037H257.6V11.4982Z" fill="#3C4043"/>
<path d="M264.645 12.8898C265.423 12.8898 266.037 13.098 266.486 13.5144C266.935 13.9307 267.16 14.5005 267.16 15.2237V18.6753H266.157V17.8973H266.113C265.681 18.5383 265.1 18.8561 264.377 18.8561C263.758 18.8561 263.243 18.6753 262.826 18.3082C262.41 17.9412 262.202 17.4864 262.202 16.9386C262.202 16.3578 262.421 15.8976 262.859 15.5579C263.297 15.2128 263.884 15.0429 264.612 15.0429C265.237 15.0429 265.752 15.158 266.152 15.3881V15.147C266.152 14.7799 266.009 14.4731 265.719 14.2156C265.429 13.9581 265.089 13.8321 264.7 13.8321C264.114 13.8321 263.648 14.0787 263.308 14.5772L262.382 13.9965C262.892 13.2569 263.648 12.8898 264.645 12.8898ZM263.286 16.955C263.286 17.2289 263.402 17.459 263.637 17.6398C263.867 17.8206 264.141 17.9138 264.453 17.9138C264.897 17.9138 265.292 17.7494 265.637 17.4207C265.982 17.092 266.157 16.7084 266.157 16.2647C265.829 16.0072 265.374 15.8757 264.788 15.8757C264.36 15.8757 264.004 15.9798 263.719 16.1825C263.429 16.3962 263.286 16.6537 263.286 16.955Z" fill="#3C4043"/>
<path d="M272.88 13.0706L269.373 21.1353H268.289L269.592 18.3138L267.28 13.0706H268.426L270.091 17.092H270.113L271.735 13.0706H272.88Z" fill="#3C4043"/>
<path d="M253.416 14.6923C253.416 14.3493 253.385 14.0211 253.328 13.7056H248.919V15.5135L251.458 15.5141C251.355 16.1157 251.024 16.6285 250.516 16.9703V18.1433H252.027C252.91 17.3265 253.416 16.1189 253.416 14.6923Z" fill="#4285F4"/>
<path d="M250.516 16.9704C250.095 17.2542 249.554 17.4202 248.92 17.4202C247.695 17.4202 246.656 16.5951 246.284 15.4829H244.725V16.6926C245.498 18.2256 247.085 19.2775 248.92 19.2775C250.187 19.2775 251.253 18.8605 252.028 18.1428L250.516 16.9704Z" fill="#34A853"/>
<path d="M246.138 14.5854C246.138 14.2732 246.19 13.9713 246.284 13.6875V12.4778H244.725C244.406 13.1117 244.226 13.8272 244.226 14.5854C244.226 15.3437 244.406 16.0592 244.725 16.6931L246.284 15.4834C246.19 15.1996 246.138 14.8977 246.138 14.5854Z" fill="#FABB05"/>
<path d="M248.92 11.7502C249.612 11.7502 250.231 11.9885 250.721 12.4542L252.06 11.1158C251.247 10.3581 250.186 9.89293 248.92 9.89293C247.086 9.89293 245.498 10.9448 244.725 12.4778L246.284 13.6875C246.656 12.5753 247.695 11.7502 248.92 11.7502Z" fill="#E94235"/>
</g>
<defs>
<filter id="filter0_dd_763_11126" x="-9.21876" y="-4.72181" width="65.2058" height="48.567" filterUnits="userSpaceOnUse" color-interpolation-filters="sRGB">
<feFlood flood-opacity="0" result="BackgroundImageFix"/>
<feColorMatrix in="SourceAlpha" type="matrix" values="0 0 0 0 0 0 0 0 0 0 0 0 0 0 0 0 0 0 127 0" result="hardAlpha"/>
<feOffset dy="0.448214"/>
<feGaussianBlur stdDeviation="2.24107"/>
<feColorMatrix type="matrix" values="0 0 0 0 0.717647 0 0 0 0 0.717647 0 0 0 0 0.717647 0 0 0 0.08 0"/>
<feBlend mode="normal" in2="BackgroundImageFix" result="effect1_dropShadow_763_11126"/>
<feColorMatrix in="SourceAlpha" type="matrix" values="0 0 0 0 0 0 0 0 0 0 0 0 0 0 0 0 0 0 127 0" result="hardAlpha"/>
<feOffset dy="4.48214"/>
<feGaussianBlur stdDeviation="4.48214"/>
<feColorMatrix type="matrix" values="0 0 0 0 0.717647 0 0 0 0 0.717647 0 0 0 0 0.717647 0 0 0 0.08 0"/>
<feBlend mode="normal" in2="effect1_dropShadow_763_11126" result="effect2_dropShadow_763_11126"/>
<feBlend mode="normal" in="SourceGraphic" in2="effect2_dropShadow_763_11126" result="shape"/>
</filter>
<filter id="filter1_dd_763_11126" x="49.5891" y="-4.72181" width="65.2058" height="48.567" filterUnits="userSpaceOnUse" color-interpolation-filters="sRGB">
<feFlood flood-opacity="0" result="BackgroundImageFix"/>
<feColorMatrix in="SourceAlpha" type="matrix" values="0 0 0 0 0 0 0 0 0 0 0 0 0 0 0 0 0 0 127 0" result="hardAlpha"/>
<feOffset dy="0.448214"/>
<feGaussianBlur stdDeviation="2.24107"/>
<feColorMatrix type="matrix" values="0 0 0 0 0.717647 0 0 0 0 0.717647 0 0 0 0 0.717647 0 0 0 0.08 0"/>
<feBlend mode="normal" in2="BackgroundImageFix" result="effect1_dropShadow_763_11126"/>
<feColorMatrix in="SourceAlpha" type="matrix" values="0 0 0 0 0 0 0 0 0 0 0 0 0 0 0 0 0 0 127 0" result="hardAlpha"/>
<feOffset dy="4.48214"/>
<feGaussianBlur stdDeviation="4.48214"/>
<feColorMatrix type="matrix" values="0 0 0 0 0.717647 0 0 0 0 0.717647 0 0 0 0 0.717647 0 0 0 0.08 0"/>
<feBlend mode="normal" in2="effect1_dropShadow_763_11126" result="effect2_dropShadow_763_11126"/>
<feBlend mode="normal" in="SourceGraphic" in2="effect2_dropShadow_763_11126" result="shape"/>
</filter>
<filter id="filter2_dd_763_11126" x="108.397" y="-4.72181" width="65.2058" height="48.567" filterUnits="userSpaceOnUse" color-interpolation-filters="sRGB">
<feFlood flood-opacity="0" result="BackgroundImageFix"/>
<feColorMatrix in="SourceAlpha" type="matrix" values="0 0 0 0 0 0 0 0 0 0 0 0 0 0 0 0 0 0 127 0" result="hardAlpha"/>
<feOffset dy="0.448214"/>
<feGaussianBlur stdDeviation="2.24107"/>
<feColorMatrix type="matrix" values="0 0 0 0 0.717647 0 0 0 0 0.717647 0 0 0 0 0.717647 0 0 0 0.08 0"/>
<feBlend mode="normal" in2="BackgroundImageFix" result="effect1_dropShadow_763_11126"/>
<feColorMatrix in="SourceAlpha" type="matrix" values="0 0 0 0 0 0 0 0 0 0 0 0 0 0 0 0 0 0 127 0" result="hardAlpha"/>
<feOffset dy="4.48214"/>
<feGaussianBlur stdDeviation="4.48214"/>
<feColorMatrix type="matrix" values="0 0 0 0 0.717647 0 0 0 0 0.717647 0 0 0 0 0.717647 0 0 0 0.08 0"/>
<feBlend mode="normal" in2="effect1_dropShadow_763_11126" result="effect2_dropShadow_763_11126"/>
<feBlend mode="normal" in="SourceGraphic" in2="effect2_dropShadow_763_11126" result="shape"/>
</filter>
<filter id="filter3_dd_763_11126" x="167.205" y="-4.72181" width="65.2058" height="48.567" filterUnits="userSpaceOnUse" color-interpolation-filters="sRGB">
<feFlood flood-opacity="0" result="BackgroundImageFix"/>
<feColorMatrix in="SourceAlpha" type="matrix" values="0 0 0 0 0 0 0 0 0 0 0 0 0 0 0 0 0 0 127 0" result="hardAlpha"/>
<feOffset dy="0.448214"/>
<feGaussianBlur stdDeviation="2.24107"/>
<feColorMatrix type="matrix" values="0 0 0 0 0.717647 0 0 0 0 0.717647 0 0 0 0 0.717647 0 0 0 0.08 0"/>
<feBlend mode="normal" in2="BackgroundImageFix" result="effect1_dropShadow_763_11126"/>
<feColorMatrix in="SourceAlpha" type="matrix" values="0 0 0 0 0 0 0 0 0 0 0 0 0 0 0 0 0 0 127 0" result="hardAlpha"/>
<feOffset dy="4.48214"/>
<feGaussianBlur stdDeviation="4.48214"/>
<feColorMatrix type="matrix" values="0 0 0 0 0.717647 0 0 0 0 0.717647 0 0 0 0 0.717647 0 0 0 0.08 0"/>
<feBlend mode="normal" in2="effect1_dropShadow_763_11126" result="effect2_dropShadow_763_11126"/>
<feBlend mode="normal" in="SourceGraphic" in2="effect2_dropShadow_763_11126" result="shape"/>
</filter>
<filter id="filter4_dd_763_11126" x="226.013" y="-4.72181" width="65.2058" height="48.567" filterUnits="userSpaceOnUse" color-interpolation-filters="sRGB">
<feFlood flood-opacity="0" result="BackgroundImageFix"/>
<feColorMatrix in="SourceAlpha" type="matrix" values="0 0 0 0 0 0 0 0 0 0 0 0 0 0 0 0 0 0 127 0" result="hardAlpha"/>
<feOffset dy="0.448214"/>
<feGaussianBlur stdDeviation="2.24107"/>
<feColorMatrix type="matrix" values="0 0 0 0 0.717647 0 0 0 0 0.717647 0 0 0 0 0.717647 0 0 0 0.08 0"/>
<feBlend mode="normal" in2="BackgroundImageFix" result="effect1_dropShadow_763_11126"/>
<feColorMatrix in="SourceAlpha" type="matrix" values="0 0 0 0 0 0 0 0 0 0 0 0 0 0 0 0 0 0 127 0" result="hardAlpha"/>
<feOffset dy="4.48214"/>
<feGaussianBlur stdDeviation="4.48214"/>
<feColorMatrix type="matrix" values="0 0 0 0 0.717647 0 0 0 0 0.717647 0 0 0 0 0.717647 0 0 0 0.08 0"/>
<feBlend mode="normal" in2="effect1_dropShadow_763_11126" result="effect2_dropShadow_763_11126"/>
<feBlend mode="normal" in="SourceGraphic" in2="effect2_dropShadow_763_11126" result="shape"/>
</filter>
</defs>
</svg>
