<svg width="114" height="109" viewBox="0 0 114 109" fill="none" xmlns="http://www.w3.org/2000/svg">
<path d="M22.2262 2.43917C23.5539 3.86171 24.8056 5.35309 25.9758 6.90685L25.9078 -2.85914e-05L27.5621 1.65432L27.6366 9.21736C28.748 10.8534 29.769 12.548 30.6951 14.2933C30.7486 14.3098 30.7984 14.3369 30.8415 14.3731C30.8845 14.4092 30.9199 14.4536 30.9454 14.5036C30.971 14.5535 30.9861 14.608 30.99 14.6636C30.9939 14.7192 30.9864 14.7748 30.968 14.8269C31.9596 16.7433 32.8366 18.7151 33.5944 20.7317C34.5147 20.9671 35.4141 21.2829 36.282 21.6754C40.4459 19.9963 44.234 23.1134 45.2776 27.1789C45.2925 27.2345 45.2916 27.2928 45.2749 27.3472C45.7161 27.4422 45.5436 28.1117 45.0982 28.0253C42.9678 27.5662 41.1283 28.1459 39.1647 26.8705C37.4944 25.7901 36.5065 24.0926 35.8777 22.2628C35.2205 21.9693 34.5445 21.7218 33.8547 21.522C34.7103 23.9141 35.3957 26.3608 35.9059 28.8434C35.9982 28.856 36.0858 28.8934 36.1594 28.9516L40.261 32.3394C40.6183 31.9899 41.0939 31.786 41.5978 31.7664C42.1018 31.7468 42.5991 31.9128 42.9956 32.2329C43.3921 32.553 43.6604 33.0051 43.7497 33.5036C43.839 34.0021 43.743 34.5125 43.48 34.9381C43.217 35.3637 42.8051 35.675 42.3224 35.8132C41.8397 35.9513 41.3196 35.9067 40.8606 35.6878C40.4015 35.4689 40.0353 35.0909 39.8312 34.6252C39.6272 34.1596 39.5994 33.6386 39.7533 33.1609L36.1696 30.2056C36.5016 32.0551 36.736 33.919 36.8721 35.7893C37.3321 35.8452 37.7626 36.0554 38.0928 36.3854C38.4231 36.7155 38.6336 37.1459 38.6897 37.6059C38.7459 38.0659 38.6443 38.5282 38.4018 38.9171C38.1593 39.3059 37.7901 39.5981 37.3549 39.7458C36.9197 39.8935 36.4443 39.8879 36.0067 39.7299C35.5691 39.5718 35.1953 39.2708 34.9466 38.8761C34.6979 38.4815 34.5891 38.0167 34.638 37.5579C34.6869 37.0992 34.8907 36.6737 35.2158 36.3514C35.413 36.1559 35.6487 36.0033 35.9085 35.9028C35.818 34.607 35.6823 33.3129 35.497 32.0335C34.5918 32.8864 33.6582 33.7081 32.6962 34.4986C32.9332 34.9418 33.0013 35.4532 32.8876 35.9363C32.774 36.4194 32.4864 36.8406 32.0793 37.1203C31.6723 37.4 31.1739 37.5189 30.6783 37.4544C30.1828 37.3899 29.7245 37.1466 29.3901 36.7704C29.0556 36.3941 28.8682 35.9111 28.8632 35.4126C28.8582 34.9141 29.036 34.4346 29.363 34.0648C29.69 33.695 30.1436 33.4605 30.6379 33.4056C31.1322 33.3508 31.6331 33.4793 32.0459 33.767C33.1698 32.8436 34.261 31.8832 35.3065 30.8726C34.4474 25.7495 32.8346 20.7674 30.5207 16.0894C29.724 18.4203 28.802 20.7043 27.7587 22.9317L27.9107 38.5779C30.2655 42.6872 32.2564 46.9895 33.8601 51.4346C33.9054 51.4508 33.9474 51.4753 33.9838 51.507L36.3418 53.6C36.3606 53.5879 36.3808 53.5779 36.4019 53.5703C40.2823 52.6935 43.0778 56.0489 43.1225 59.7097C43.1225 59.7097 43.1225 59.7097 43.1076 59.7246C43.1425 59.782 43.1594 59.8483 43.1561 59.9147C43.1528 59.9812 43.1294 60.0447 43.089 60.0969C43.0487 60.149 42.9932 60.1874 42.9299 60.207C42.8667 60.2266 42.7986 60.2264 42.7346 60.2065C40.9411 59.5414 38.7088 59.0317 37.2179 57.7588C36.0405 56.7566 35.8245 55.425 35.7132 53.9844L35.7281 53.9694L34.3195 52.7189C34.9049 54.4584 35.4171 56.2116 35.8561 57.9784C35.8784 58.0307 35.8907 58.0865 35.8923 58.1428C36.09 58.939 36.2691 59.7378 36.4295 60.5394C36.4649 60.5662 36.4965 60.5977 36.5232 60.6331C37.5498 61.9699 38.7018 63.2063 39.9631 64.3251C40.0058 64.2824 40.0464 64.2418 40.0913 64.1969C40.4502 63.8804 40.9134 63.7058 41.3965 63.7048C41.8797 63.7037 42.3505 63.8765 42.7231 64.1914C43.0958 64.5063 43.3454 64.9425 43.4265 65.4204C43.5077 65.8983 43.4149 66.386 43.1651 66.7947C42.9153 67.2033 42.5251 67.5057 42.0658 67.6466C41.6064 67.7875 41.1084 67.7576 40.6626 67.5623C40.2169 67.367 39.853 67.0193 39.6374 66.5827C39.4218 66.1461 39.3688 65.6496 39.4881 65.1837C38.5299 64.3403 37.6297 63.4329 36.7938 62.4681C37.0629 64.0764 37.2615 65.687 37.3896 67.2997C37.3889 67.3303 37.3849 67.3606 37.3775 67.3902C37.8588 67.4642 38.2996 67.7118 38.6162 68.0861C38.9329 68.4604 39.1033 68.9352 39.0951 69.4205C39.087 69.9057 38.9008 70.3676 38.572 70.7183C38.2431 71.069 37.7946 71.2842 37.3114 71.323C36.8283 71.3618 36.3442 71.2214 35.9511 70.9287C35.558 70.6359 35.2834 70.2111 35.1793 69.7348C35.0751 69.2586 35.1488 68.7641 35.3863 68.3454C35.6238 67.9266 36.0085 67.6127 36.4675 67.4632C36.4408 67.4088 36.4242 67.3501 36.4183 67.2901C36.2266 64.8777 35.8742 62.4776 35.3634 60.1059C34.9756 61.2755 34.4818 62.4055 33.8881 63.4819L33.9208 63.5146C34.2569 63.885 34.4489 64.3626 34.4608 64.858C34.4726 65.3533 34.3035 65.8325 33.9851 66.2056C33.6667 66.5788 33.2209 66.8203 32.7312 66.8851C32.2414 66.9499 31.7414 66.8334 31.3246 66.5574C30.9079 66.2815 30.603 65.865 30.4672 65.3861C30.3314 64.9071 30.3739 64.3985 30.5868 63.9555C30.7997 63.5125 31.1683 63.1654 31.6237 62.9794C32.0791 62.7934 32.5899 62.7812 33.0605 62.945C33.8788 61.4427 34.4991 59.8379 34.9062 58.1698C34.2957 55.7147 33.5448 53.294 32.6572 50.9199C31.6817 52.8123 30.5625 54.6252 29.3093 56.3428C29.297 56.3974 29.274 56.4489 29.2414 56.4942C29.2089 56.5394 29.1676 56.5776 29.1198 56.6064C28.7835 57.0736 28.4441 57.5378 28.1019 57.9992L28.3718 85.3979L48.8355 85.5973C51.4956 84.5794 54.2336 83.7679 57.0257 83.1701C55.4725 82.3606 53.9065 81.5726 52.3278 80.806L47.5933 81.9572C47.6754 82.4338 47.5831 82.9207 47.3333 83.3282C47.0835 83.7356 46.6931 84.0361 46.2339 84.1744C45.7748 84.3126 45.2779 84.2793 44.8347 84.0805C44.3916 83.8817 44.0321 83.5308 43.8225 83.0926C43.6128 82.6543 43.5672 82.1581 43.6939 81.6955C43.8206 81.2328 44.1112 80.8349 44.5121 80.5749C44.913 80.3149 45.3972 80.2105 45.8756 80.2808C46.3539 80.3511 46.7941 80.5914 47.1151 80.9575C47.1434 80.9859 47.1589 81.0227 47.1851 81.0532L50.9206 80.1425C50.4306 79.9132 49.9427 79.6775 49.4418 79.4416C49.0195 79.6854 48.5198 79.7653 48.0362 79.6664C47.5526 79.5674 47.118 79.2964 46.8138 78.9039C46.5097 78.5115 46.3566 78.0246 46.3834 77.5341C46.4101 77.0436 46.6148 76.5831 46.9591 76.2387C47.3035 75.8944 47.7639 75.6897 48.2544 75.663C48.7449 75.6363 49.2319 75.7893 49.6243 76.0935C50.0168 76.3976 50.2878 76.8322 50.3867 77.3158C50.4857 77.7995 50.4058 78.2991 50.162 78.7214C50.9223 79.0771 51.6812 79.4356 52.4387 79.797C52.516 79.7902 52.5942 79.8041 52.6651 79.8375C52.736 79.8708 52.7971 79.9223 52.842 79.9866C53.1955 80.1563 53.5425 80.3323 53.8938 80.5084C53.6421 79.5486 53.293 78.6151 52.8521 77.7228C52.3742 77.6237 51.9451 77.355 51.6447 76.9668C51.3444 76.5785 51.1932 76.0971 51.2193 75.6122C51.2454 75.1272 51.4471 74.6718 51.7867 74.3305C52.1263 73.9893 52.5808 73.7855 53.0656 73.7572C53.5503 73.7288 54.0324 73.8778 54.422 74.1763C54.8116 74.4749 55.0823 74.9028 55.1835 75.3802C55.2848 75.8577 55.2099 76.3524 54.9727 76.7721C54.7354 77.1918 54.352 77.508 53.8939 77.6618C54.3828 78.7179 54.7548 79.8224 55.0033 80.9553C55.0079 80.9883 55.0082 81.0217 55.0042 81.0546C57.7298 82.4181 60.4186 83.8518 63.0708 85.3555C63.0117 84.7713 62.9114 84.1912 62.7709 83.6195C61.3793 83.4461 59.8945 83.0085 59.2227 81.6357C58.9558 80.9803 58.8361 80.2767 58.8722 79.5755C58.8317 77.8723 58.7992 76.5447 58.0393 74.9812C58.0163 74.9363 58.0034 74.8871 58.0014 74.8372C57.9995 74.7872 58.0085 74.7376 58.0278 74.6919C58.0335 74.6455 58.0493 74.6012 58.0741 74.562C58.0989 74.5228 58.1321 74.4897 58.1714 74.465C58.2106 74.4403 58.255 74.4246 58.3013 74.419C58.3476 74.4134 58.3949 74.4181 58.4396 74.4326C61.3552 75.3009 68.0542 80.7774 63.4627 83.5206C63.6446 84.2473 63.7638 84.9872 63.819 85.7319L79.148 85.8829C80.7209 84.5552 82.4361 83.4042 84.2636 82.45C81.7466 80.9827 79.1423 79.6747 76.4663 78.5337C74.5157 79.1107 72.5286 79.5647 70.5166 79.893C70.5978 80.3705 70.5043 80.8578 70.2533 81.2653C70.0023 81.6727 69.6108 81.9728 69.1508 82.1104C68.6907 82.2479 68.1932 82.2136 67.7499 82.0137C67.3065 81.8138 66.9471 81.4619 66.7379 81.0228C66.5287 80.5836 66.4838 80.0867 66.6114 79.6236C66.739 79.1606 67.0305 78.7625 67.4323 78.5028C67.8341 78.243 68.3192 78.1391 68.798 78.2101C69.2769 78.2811 69.7174 78.5222 70.0384 78.8891C70.0603 78.9171 70.0808 78.9461 70.0997 78.9761C71.7539 78.7127 73.3915 78.3629 75.0058 77.928C73.7079 77.408 72.3974 76.9225 71.0636 76.4777C71.0636 76.4777 71.0483 76.4625 71.0418 76.4559C70.9307 76.742 70.7536 76.9967 70.5247 77.1997C70.1884 77.4992 69.7587 77.6745 69.305 77.6972C68.8513 77.7199 68.4002 77.5887 68.0246 77.3249C67.6491 77.0611 67.3711 76.6801 67.2354 76.2434C67.0998 75.8067 67.1146 75.3399 67.2774 74.9186C67.4401 74.4972 67.7413 74.1459 68.1324 73.9214C68.5234 73.6969 68.9813 73.6124 69.432 73.6815C69.8828 73.7506 70.3001 73.9694 70.6164 74.3023C70.9327 74.6353 71.1295 75.063 71.175 75.5163C71.2193 75.5168 71.2635 75.5222 71.3068 75.5327C71.9073 75.7343 72.5028 75.9423 73.0934 76.1567C72.6688 75.2217 72.1736 74.3192 71.6122 73.4573C71.2325 73.53 70.8367 73.4637 70.4964 73.2706C70.1561 73.0774 69.8938 72.7701 69.757 72.4043C69.6203 72.0385 69.6181 71.6384 69.7509 71.2765C69.8837 70.9145 70.1426 70.6146 70.4809 70.4311C70.8192 70.2476 71.2144 70.1926 71.5949 70.2761C71.9755 70.3596 72.3162 70.5761 72.5554 70.8863C72.7947 71.1964 72.9167 71.5799 72.8992 71.9672C72.8817 72.3544 72.726 72.7199 72.4602 72.9974C73.1944 74.1318 73.8212 75.331 74.3321 76.579C74.3321 76.579 74.3344 76.6027 74.3389 76.6157C75.0855 76.9007 75.8281 77.1987 76.5663 77.5096C76.6226 77.5102 76.6784 77.5228 76.7299 77.5463C76.7815 77.5699 76.8277 77.604 76.8655 77.6463C78.6659 78.418 80.4302 79.2605 82.1585 80.1739C81.7655 79.5169 81.4107 78.8381 81.0961 78.1412C81.0379 78.1436 80.9797 78.1335 80.9253 78.1115C78.881 77.187 76.9486 75.7803 76.4036 73.4786C75.7505 70.714 78.188 68.8302 78.3976 66.2274C78.4261 65.8284 79.0063 65.7974 79.0787 66.1347C82.7297 69.1404 86.1743 74.6281 82.0276 78.4871C82.4308 79.2994 82.8878 80.0848 83.3953 80.8379C84.0593 81.207 84.7148 81.5846 85.3661 81.9752C85.4689 81.9719 85.571 81.9986 85.66 82.0519C85.7491 82.1053 85.8212 82.1831 85.8676 82.2758C87.7638 83.4283 89.6061 84.6694 91.3947 85.9992L92.489 86.0121C92.4492 85.6945 92.4245 85.3791 92.3999 85.0681L92.3953 85.0379L92.3822 85.0248C90.8024 83.9323 89.3922 82.304 89.6657 80.2694C89.9591 78.0666 92.1481 76.8192 92.8773 74.8128C92.8998 74.7565 92.9357 74.7067 92.9819 74.6677C93.0281 74.6287 93.0833 74.6017 93.1428 74.5889C93.2022 74.5761 93.2641 74.578 93.3233 74.5943C93.3824 74.6107 93.4371 74.6411 93.4825 74.6828C93.549 74.6705 93.618 74.6789 93.6804 74.7069C93.7428 74.7349 93.7955 74.7811 93.8315 74.8394C94.9907 76.6184 96.0285 78.5667 95.7801 80.7375C95.6699 81.6298 95.3736 82.4853 94.9101 83.2491C94.4467 84.0129 93.8265 84.6679 93.0894 85.172C93.1051 85.4571 93.136 85.7444 93.1776 86.0254L100.777 86.1024C101.901 85.1768 103.091 84.3345 104.339 83.5821C104.876 83.2637 105.361 84.1167 104.829 84.4352C103.968 84.9492 103.137 85.5109 102.34 86.1177L112.141 86.2122L113.791 87.8621L100.344 87.7254C98.8018 89.085 97.3725 90.5622 95.963 92.0763C95.9866 92.1206 96.0004 92.1694 96.0033 92.2192C96.0293 92.6727 96.0834 93.1199 96.146 93.5673C100.074 94.6354 101.727 100.336 99.5068 103.476C99.4791 103.522 99.441 103.56 99.3957 103.587C99.375 103.651 99.3367 103.706 99.2851 103.748C99.2335 103.789 99.1708 103.815 99.1045 103.822C99.0381 103.828 98.9709 103.816 98.9105 103.786C98.8502 103.756 98.7993 103.71 98.764 103.652C97.6769 101.749 95.2338 100.866 94.4842 98.8212C93.9009 97.2249 94.5452 95.5953 95.3477 94.2436C95.367 94.2082 95.3932 94.1771 95.4248 94.1522C95.4564 94.1273 95.4928 94.1091 95.5319 94.0986C95.4563 93.6511 95.3957 93.1973 95.3566 92.7394C94.5367 93.6291 93.7188 94.521 92.8901 95.402C91.318 97.0766 89.6254 98.6337 87.8254 100.061C87.8134 100.13 87.7852 100.194 87.7431 100.248C86.3696 102.203 84.9338 104.11 83.4356 105.968C83.474 106.002 83.5104 106.039 83.5446 106.077C83.8258 106.391 83.9886 106.792 84.0037 107.209C84.0188 107.627 83.8854 108.033 83.6272 108.355C83.369 108.678 83.0028 108.896 82.5939 108.971C82.1849 109.046 81.7598 108.973 81.3942 108.765C81.0286 108.556 80.7463 108.226 80.5977 107.833C80.449 107.441 80.4437 107.011 80.5825 106.62C80.7213 106.229 80.9954 105.903 81.3558 105.7C81.7162 105.497 82.1396 105.43 82.5505 105.511C83.5171 104.309 84.4583 103.09 85.3741 101.854C83.3427 103.225 81.182 104.398 78.9211 105.356C79.0321 105.831 78.9668 106.326 78.7375 106.75C78.5081 107.173 78.1304 107.495 77.6753 107.655C77.2202 107.816 76.7191 107.803 76.2658 107.62C75.8126 107.437 75.4385 107.096 75.2137 106.662C74.9889 106.227 74.9289 105.728 75.045 105.259C75.1611 104.79 75.4453 104.383 75.8442 104.114C76.2431 103.845 76.7293 103.733 77.2116 103.799C77.6938 103.864 78.139 104.104 78.4635 104.471L78.4787 104.486C80.4169 103.664 82.2786 102.677 84.0437 101.537C82.9179 101.248 81.7679 101.073 80.6114 101.015C80.3217 101.412 79.8953 101.687 79.4118 101.788C78.9284 101.89 78.4211 101.811 77.985 101.566C77.5489 101.321 77.2138 100.927 77.0425 100.459C76.8711 99.99 76.8754 99.4782 77.0543 99.0192C77.2332 98.5603 77.5746 98.1855 78.0145 97.9652C78.4545 97.7449 78.9628 97.6942 79.4444 97.8224C79.926 97.9507 80.3477 98.2491 80.6307 98.662C80.9137 99.0748 81.0385 99.5736 80.9818 100.065C82.3558 100.155 83.7181 100.402 85.0421 100.8C85.0595 100.808 85.0762 100.818 85.0921 100.829C87.5629 99.0919 89.8595 97.1223 91.9512 94.9461C91.4284 94.8977 90.9035 94.8559 90.3788 94.8269C90.3576 94.8567 90.3316 94.8827 90.3019 94.9039C90.2965 94.9578 90.2769 95.009 90.245 95.0522C89.2824 96.3549 87.5637 97.8078 85.8008 97.6221C85.0661 97.5004 84.3751 97.1792 83.8039 96.6938C82.6082 95.8144 81.6405 95.069 80.1485 94.7737C79.7268 94.6897 79.8761 94.0739 80.2692 94.1037C81.8189 92.5759 83.7531 91.3086 86.0351 91.3894C86.9174 91.4032 87.7823 91.6688 88.528 92.1548C89.2738 92.6409 89.8694 93.3271 90.2446 94.1329C91.022 94.1751 91.7995 94.2302 92.5772 94.3069C92.8144 94.0697 93.0407 93.8172 93.267 93.5691C94.1083 92.6537 94.941 91.7382 95.7869 90.8444C94.5436 89.7336 93.2727 88.6722 91.9656 87.6558L78.6678 87.527C75.8853 89.8736 73.2324 92.4654 70.2243 94.4709C70.2365 94.5261 70.2348 94.5832 70.2194 94.6371C69.8224 95.9534 69.307 97.229 68.6793 98.4484C68.709 98.4692 68.7348 98.495 68.7556 98.5247C69.8392 100.288 70.1214 101.775 68.8694 103.503C67.3278 105.628 64.7161 107.137 62.3566 108.163C62.2879 108.193 62.211 108.201 62.1366 108.186C62.0622 108.17 61.9941 108.132 61.9417 108.076C61.8894 108.021 61.8554 107.95 61.8445 107.875C61.8336 107.8 61.8464 107.724 61.8811 107.657C62.1 105.337 61.6304 103.021 62.881 100.934C63.4322 100.023 64.1864 99.2535 65.0862 98.6846C65.986 98.1157 67.0077 97.762 68.0737 97.6503C68.145 97.6434 68.2172 97.6576 68.2813 97.6912C68.6975 96.8287 69.0571 95.939 69.3578 95.0278C66.27 96.9246 62.99 98.497 59.5692 99.7205C59.5561 99.785 59.5295 99.8458 59.4911 99.8988C58.0483 101.885 56.3822 103.698 54.5244 105.301C54.4919 105.326 54.4566 105.347 54.4192 105.363C54.6849 105.786 54.7876 106.289 54.7078 106.776C54.628 107.263 54.3713 107.7 53.9865 108.005C53.6016 108.309 53.1156 108.458 52.6209 108.425C52.1262 108.392 51.6574 108.178 51.3038 107.825C50.9502 107.471 50.7364 107.002 50.7032 106.507C50.67 106.013 50.8197 105.527 51.1238 105.142C51.4279 104.757 51.8651 104.5 52.3522 104.421C52.8393 104.341 53.3422 104.443 53.7653 104.709C53.784 104.676 53.8069 104.646 53.8335 104.619C55.3496 103.305 56.7343 101.848 57.9689 100.266C56.2809 100.818 54.5668 101.288 52.8269 101.676C52.8952 102.154 52.7899 102.638 52.5303 103.038C52.2707 103.438 51.8739 103.729 51.4124 103.858C50.9509 103.986 50.4552 103.944 50.0159 103.738C49.5765 103.532 49.2227 103.177 49.0188 102.736C48.815 102.296 48.7746 101.8 48.9052 101.339C49.0358 100.878 49.3287 100.483 49.7303 100.225C50.132 99.9676 50.6158 99.8646 51.0935 99.9351C51.5713 100.006 52.0111 100.245 52.3329 100.61C52.3731 100.658 52.4097 100.708 52.4423 100.762C53.5643 100.512 54.6773 100.231 55.7748 99.914C53.9738 99.1877 52.1206 98.6051 50.2327 98.1717C50.1079 98.5955 49.8451 98.9631 49.4855 99.2168C49.1259 99.4704 48.6899 99.5959 48.2458 99.5734C47.8018 99.5509 47.375 99.3817 47.0322 99.0924C46.6894 98.8032 46.4502 98.4102 46.352 97.9751C46.2538 97.54 46.3023 97.0875 46.4897 96.6885C46.6771 96.2895 46.993 95.9667 47.3877 95.7707C47.7824 95.5747 48.2336 95.5165 48.6705 95.6054C49.1074 95.6943 49.5053 95.9251 49.8017 96.2618C50.0323 96.5251 50.191 96.8429 50.2619 97.1836C52.6325 97.718 54.9506 98.4787 57.1839 99.4552C57.1935 99.4631 57.2023 99.4719 57.2101 99.4814C60.0705 98.5754 62.8451 97.4296 65.5048 96.056C64.7443 95.425 63.9282 94.865 63.0669 94.3832C63.0436 94.4576 62.9925 94.5197 62.924 94.5566C61.4325 95.4203 59.7689 96.3341 57.9589 95.9688C55.7488 95.5197 54.5099 93.3147 52.7819 92.074C52.7136 92.0568 52.6514 92.0204 52.6027 91.969C52.5541 91.9176 52.521 91.8536 52.5076 91.7846C52.4941 91.7156 52.5009 91.6445 52.527 91.58C52.553 91.5155 52.5974 91.4603 52.6546 91.421C54.7 90.047 56.6407 88.9956 59.1738 89.5968C61.3651 90.1083 63.2735 91.2645 63.1437 93.6393C64.2167 94.218 65.2264 94.9096 66.1552 95.702C67.4176 95.0281 68.6601 94.3087 69.8675 93.5286C70.6288 93.0332 71.3616 92.4966 72.0834 91.9361C69.6478 90.3554 67.1847 88.834 64.6941 87.3721L47.4269 87.2021C45.4538 88.0272 43.5278 88.9507 41.6487 89.9724C41.4596 90.4928 41.2683 91.0111 41.0662 91.527C41.1357 91.5115 41.2087 91.5171 41.2758 91.5431C41.3429 91.5691 41.4012 91.6144 41.4432 91.6732C44.6127 95.9754 39.6558 98.8618 36.2705 100.272C35.9072 100.422 35.5898 99.9591 35.8185 99.7347C35.6428 98.1101 35.4939 96.3669 36.2736 94.8854C37.0532 93.404 38.6833 92.3798 40.1717 91.6412C40.2075 91.6268 40.2451 91.617 40.2836 91.6121C40.4289 91.2445 40.5807 90.8791 40.7086 90.4984C37.8569 92.1134 35.1158 93.9124 32.5022 95.8842C32.5299 95.9679 32.5315 96.0575 32.5069 96.1411C32.1495 97.3934 31.6931 98.6135 31.1422 99.7901C31.5649 99.9301 31.9322 100.205 32.1867 100.572C32.4413 100.94 32.5687 101.378 32.5493 101.82C32.5298 102.262 32.3645 102.682 32.0791 103.015C31.7938 103.348 31.4044 103.575 30.9717 103.661C30.5391 103.746 30.0874 103.685 29.6873 103.488C29.2871 103.291 28.9609 102.968 28.7595 102.57C28.5582 102.171 28.4929 101.72 28.574 101.287C28.6552 100.853 28.878 100.461 29.2079 100.172C29.4684 99.943 29.7876 99.7895 30.1316 99.7284C30.1357 99.6726 30.149 99.618 30.171 99.5669C30.5978 98.6788 30.9672 97.7633 31.277 96.8261C30.1862 97.6757 29.12 98.5515 28.0786 99.4535C28.28 99.8982 28.3134 100.398 28.1725 100.859C28.0315 101.32 27.726 101.71 27.3134 101.956C26.9007 102.202 26.4094 102.287 25.9318 102.195C25.4543 102.103 25.0234 101.84 24.7204 101.456C24.4173 101.071 24.2629 100.593 24.2862 100.109C24.3095 99.6255 24.5089 99.1706 24.8469 98.83C25.1849 98.4894 25.6382 98.2865 26.1214 98.2595C26.6047 98.2325 27.0847 98.3833 27.471 98.6835C29.3586 97.0619 31.3202 95.51 33.3518 94.0495C30.9724 92.4096 28.1778 92.6583 25.5041 93.1262C25.5783 93.6038 25.4785 94.0887 25.223 94.4922C24.9675 94.8958 24.5734 95.1909 24.1128 95.3237C23.6522 95.4564 23.1559 95.4179 22.7148 95.2151C22.2736 95.0124 21.9171 94.659 21.7105 94.2196C21.5039 93.7802 21.461 93.2842 21.5897 92.8224C21.7183 92.3605 22.0099 91.9638 22.4111 91.7047C22.8123 91.4455 23.2962 91.3414 23.7743 91.4114C24.2524 91.4813 24.6928 91.7206 25.0148 92.0855C25.0471 92.125 25.077 92.1664 25.1045 92.2094C28.0883 91.6798 31.2493 91.3829 33.8965 93.2563C33.9827 93.3201 34.0458 93.4103 34.076 93.5128C37.5318 91.0725 41.202 88.9457 45.0439 87.157L26.7665 86.977L26.5022 60.1351C25.3371 61.7056 24.2068 63.3023 23.1852 64.9692C21.702 67.4694 20.6433 70.2039 20.0513 73.0639C20.3408 74.6965 20.8638 76.2834 21.6042 77.7754C22.081 77.7141 22.5675 77.8268 22.9746 78.0929C23.3818 78.359 23.6825 78.7608 23.8219 79.225C23.9612 79.6892 23.93 80.1847 23.7338 80.6211C23.5376 81.0575 23.1896 81.4057 22.7532 81.6021C22.3169 81.7985 21.8214 81.83 21.3571 81.6908C20.8929 81.5516 20.491 81.2511 20.2247 80.844C19.9584 80.437 19.8455 79.9506 19.9067 79.4737C19.9678 78.9968 20.1989 78.5612 20.5578 78.2464C20.6005 78.2037 20.6585 78.1762 20.7078 78.14C20.2712 77.2519 19.9078 76.3309 19.621 75.3862C19.2519 77.9232 19.017 80.4804 18.9173 83.0473C19.3335 83.3046 19.6446 83.703 19.7922 84.1678C19.9399 84.6326 19.9141 85.132 19.7195 85.5724C19.525 86.0128 19.1751 86.364 18.7355 86.5602C18.2959 86.7564 17.7966 86.7841 17.3313 86.6381C16.8659 86.4922 16.4664 86.1826 16.2076 85.7673C15.9488 85.3521 15.8485 84.8597 15.9254 84.3824C16.0023 83.9051 16.2512 83.4757 16.6254 83.1745C16.9996 82.8734 17.4735 82.7212 17.9583 82.7465C18.0469 81.0014 18.1527 79.2522 18.332 77.5209C17.1049 78.8403 15.766 80.0509 14.3297 81.1396C14.5894 81.5668 14.6856 82.0712 14.6003 82.5577C14.515 83.0442 14.254 83.4791 13.8666 83.7805C13.4791 84.0819 12.992 84.2289 12.497 84.1939C12.002 84.1588 11.5334 83.9441 11.1794 83.5902C10.8255 83.2363 10.6108 82.7677 10.5758 82.2727C10.5407 81.7777 10.6877 81.2905 10.9891 80.903C11.2905 80.5156 11.7255 80.2546 12.212 80.1693C12.6984 80.084 13.2028 80.1803 13.63 80.44C15.4115 79.1069 17.0366 77.5784 18.4756 75.8821C18.4948 75.8629 18.5098 75.8479 18.529 75.8287C18.9858 72.4643 19.7994 69.1789 21.403 66.1192C21.5344 65.8702 21.6744 65.6212 21.8122 65.3744C21.0845 65.6952 20.3801 66.0494 19.699 66.437C19.6772 66.4521 19.6533 66.4642 19.6282 66.473C19.5961 66.505 19.5488 66.5218 19.5102 66.543C19.541 67.4042 19.37 68.2567 19.0107 69.0323C18.6515 69.8079 18.114 70.485 17.4413 71.0095C15.3362 72.6787 12.8167 72.369 10.3306 72.815C10.2567 72.8287 10.1799 72.8186 10.1112 72.7862C10.0425 72.7538 9.98546 72.7006 9.94815 72.6344C9.91084 72.5681 9.89524 72.4922 9.90356 72.4174C9.91189 72.3426 9.9437 72.2729 9.99447 72.2181C9.99671 72.1626 10.0141 72.1091 10.0447 72.0632C11.7285 69.4727 15.5043 62.1354 19.5539 65.7277C20.471 65.224 21.4178 64.775 22.3895 64.383C23.6255 62.3406 25.0439 60.4208 26.4754 58.5141L26.4614 57.0939C25.9644 58.345 24.9904 59.1534 23.6048 59.5886C21.4232 60.275 19.6599 59.1743 17.4979 59.4443C17.4256 59.4542 17.3517 59.4418 17.2858 59.4088C17.22 59.3757 17.1653 59.3236 17.1292 59.2594C17.0737 59.2396 17.0238 59.2064 16.984 59.1627C16.9442 59.119 16.9157 59.0663 16.9012 59.0093C16.8867 58.9523 16.8866 58.8929 16.901 58.8365C16.9153 58.78 16.9436 58.7283 16.9833 58.6861C18.2712 57.3197 19.5041 55.847 20.8836 54.5721C21.6942 53.8269 22.6146 53.277 23.7661 53.3941C24.7907 53.5504 25.7366 54.0554 26.4434 54.8233L26.2719 37.6316C25.1102 35.6749 23.8888 33.7853 22.6076 31.9626C21.6078 33.4419 20.5515 34.879 19.4387 36.2737C19.6041 37.294 19.8322 38.3257 20.0042 39.3482C21.6233 40.4972 23.0272 42.3498 22.868 44.3834C22.8012 45.2698 22.3522 45.9106 21.7735 46.5459C20.6506 47.7866 19.3494 48.9004 18.1436 50.0626C18.0894 50.1134 18.0199 50.1451 17.9455 50.1532C17.8711 50.1612 17.7956 50.1452 17.73 50.1074C17.6645 50.0696 17.6123 50.012 17.5813 49.943C17.5503 49.8741 17.5419 49.7975 17.5575 49.7244C17.7575 48.3344 16.8033 47.4272 16.3449 46.2465C16.0362 45.471 15.9342 44.6322 16.049 43.8134C16.2984 41.9619 17.2525 40.2913 18.7138 39.1477C18.7584 39.1109 18.8117 39.0861 18.8689 39.0753C18.926 39.0646 18.9853 39.0683 19.0412 39.0862C19.0653 39.0517 19.0961 39.0225 19.1318 39.0003C19.1675 38.978 19.2075 38.9632 19.2493 38.9566C19.1241 38.3015 18.986 37.6462 18.8653 36.9997C16.0582 40.4214 12.922 43.5576 9.50031 46.3646C9.5517 46.4647 9.56289 46.58 9.53154 46.6865C9.09402 48.0836 8.77107 49.5159 8.56585 50.9697C8.91574 51.0617 9.23648 51.2451 9.49479 51.5011C9.82317 51.8255 10.0363 52.2479 10.1005 52.7017C10.1648 53.1555 10.0764 53.6147 9.84947 54.007C9.62253 54.3992 9.26991 54.7022 8.84725 54.868C8.4246 55.0337 7.95597 55.0529 7.51537 54.9225C7.07476 54.7921 6.68727 54.5194 6.41403 54.1477C6.14079 53.7759 5.99738 53.3261 6.00643 52.8693C6.01548 52.4126 6.17649 51.9748 6.46402 51.6252C6.75156 51.2755 7.14926 51.0339 7.59435 50.9385C7.74594 49.7056 7.99739 48.4891 8.34626 47.3007C6.9349 48.4069 5.48423 49.4652 3.97684 50.4626C4.11692 50.9397 4.07892 51.4482 3.86998 51.8924C3.66104 52.3366 3.29555 52.686 2.84217 52.8749C2.3888 53.0639 1.87876 53.0794 1.40787 52.9186C0.93697 52.7577 0.537633 52.4316 0.284898 52.0014C0.0321622 51.5713 -0.0565807 51.0667 0.035339 50.5825C0.12726 50.0983 0.393522 49.6679 0.784092 49.372C1.17466 49.0762 1.66265 48.9352 2.15639 48.9758C2.65013 49.0163 3.11564 49.2355 3.46543 49.5921L3.48722 49.6139C5.79949 48.078 8.01292 46.4002 10.1152 44.5902C8.47657 44.7553 6.83126 44.8967 5.18335 44.9927C5.08431 45.2269 4.94143 45.4393 4.76222 45.6187C4.43478 45.9529 4.00062 46.1626 3.53192 46.2131C3.06322 46.2636 2.58819 46.1519 2.18574 45.8965C1.78329 45.641 1.47766 45.2573 1.31965 44.8089C1.16163 44.3606 1.16072 43.8747 1.31709 43.432C1.47347 42.9893 1.77771 42.6165 2.17924 42.3754C2.58077 42.1343 3.05543 42.0395 3.52435 42.1067C3.99326 42.174 4.42822 42.3993 4.75692 42.7451C5.08561 43.091 5.28827 43.5366 5.33122 44.0079C7.3386 43.8895 9.339 43.7185 11.3324 43.495C14.5626 40.572 17.4969 37.3384 20.0945 33.8392C19.5984 33.8646 19.1067 33.9029 18.6128 33.939C18.6031 33.9789 18.5882 34.0172 18.5686 34.053C17.6205 35.5155 16.219 36.7513 14.4371 37.0467C12.2394 37.4135 10.1252 35.9618 8.01461 35.5396C7.6167 35.458 7.71008 34.859 8.09637 34.8563C10.9708 34.8328 11.5898 31.9383 14.081 31.3478C15.8035 30.9331 17.3156 31.9537 18.5139 33.0964C18.5528 33.1342 18.5828 33.1803 18.6015 33.231C19.2485 33.1827 19.8977 33.1438 20.5492 33.1142C20.5705 33.1147 20.5917 33.1186 20.6119 33.1257C22.6951 30.2413 24.5442 27.1925 26.1421 24.0078L26.129 22.6825C25.8543 22.8352 25.5708 22.9792 25.2699 23.1057C25.3185 23.1441 25.3547 23.1961 25.3738 23.2548C25.3928 23.3135 25.3939 23.3762 25.3767 23.4348C24.0575 29.2921 18.3757 26.0766 14.2806 26.4139C14.2158 26.4191 14.1506 26.4033 14.0946 26.3689C14.0386 26.3813 13.9848 26.3959 13.9266 26.4061C13.4914 26.4795 13.3035 25.8086 13.7364 25.7244C16.4554 25.2505 17.2284 22.0014 19.825 21.1529C20.7205 20.8616 21.6767 20.789 22.6146 20.9412C23.5524 21.0935 24.4449 21.4661 25.2183 22.0283C25.26 22.0561 25.2955 22.0923 25.3224 22.1347C25.3492 22.177 25.3668 22.2244 25.3739 22.2737C25.6252 22.1488 25.8677 22.011 26.108 21.8666L25.9762 8.48449C24.6115 6.59002 23.1259 4.78457 21.5289 3.07975C21.1126 2.65912 21.7921 1.9752 22.2262 2.43917ZM41.1409 27.0216C42.2771 27.3414 43.4236 27.1671 44.5769 27.2562C43.6697 23.8912 40.6486 21.071 37.1431 22.1091C38.4319 22.7993 39.6233 23.6614 40.684 24.6712C40.7399 24.7384 40.7692 24.8237 40.766 24.9102C40.7628 24.9967 40.7273 25.0783 40.6667 25.139C40.606 25.1996 40.5244 25.235 40.4379 25.2382C40.3514 25.2414 40.2662 25.2122 40.1989 25.1563C39.1827 24.1887 38.0401 23.364 36.8036 22.7057C37.6194 24.6755 39.0048 26.4157 41.1409 27.0216ZM39.1422 58.1144C40.1981 58.6018 41.3305 58.9776 42.4242 59.3661C42.2443 56.4378 40.1199 53.7321 37.0078 54.1763L39.3157 56.2277C39.6554 56.5289 39.1659 57.014 38.8285 56.715L36.5206 54.6635C36.6101 55.4157 36.9011 56.1336 37.3626 56.7412C37.8242 57.3487 38.4391 57.8232 39.1422 58.1144ZM78.9637 66.9516C78.5932 68.5558 77.5134 69.8012 77.1021 71.4288C76.4016 74.1477 78.4949 76.1128 80.6988 77.2481C80.1425 75.8378 79.743 74.3732 79.5077 72.8811C79.4386 72.4445 80.1147 72.2742 80.1858 72.7044C80.4615 74.4659 80.9743 76.1866 81.7102 77.8192C85.1209 74.3868 82.105 69.6997 78.9637 66.9516ZM95.1015 80.1999C95.1446 78.4393 94.2896 76.8705 93.3515 75.4109C92.8783 76.4465 92.1438 77.2551 91.4362 78.1632C89.7547 80.3286 90.2491 82.5326 92.3282 84.1502C92.2532 82.9568 92.2407 81.7615 92.2908 80.5693C92.3058 80.1184 93.0052 80.1297 92.9858 80.5762C92.9364 81.6937 92.9323 82.8094 92.9951 83.9323L93.0119 84.3166C93.6345 83.823 94.1427 83.2009 94.5029 82.4912C94.8631 81.7816 95.0671 81.0006 95.1015 80.1999ZM96.4579 100.248C97.4485 101.127 98.3486 101.797 99.0735 102.863C100.698 100.145 99.467 95.4948 96.2876 94.3585C96.5322 95.6984 96.9379 97.0068 97.4957 98.2552C97.6767 98.6627 97.078 99.0043 96.8926 98.5924C96.3802 97.4497 95.9852 96.2598 95.7138 95.0414C94.7434 96.8706 94.666 98.6525 96.4579 100.248ZM85.0928 92.1354C83.5043 92.355 82.1922 93.2313 81.0523 94.2927C82.0429 94.6304 82.9668 95.1457 83.778 95.813C84.7589 96.5759 85.589 97.1581 86.8715 96.7693C87.9429 96.3893 88.8726 95.7005 89.5454 94.7885C87.9239 94.7186 86.2987 94.7091 84.6764 94.7838C84.2234 94.8009 84.223 94.1081 84.6696 94.0887C86.2638 94.0159 87.8588 94.0252 89.4587 94.0949C88.5953 92.5562 86.8406 91.8829 85.0928 92.1354ZM63.0866 102.088C62.4252 103.739 62.689 105.537 62.5851 107.267C65.8079 105.788 70.3769 102.963 68.2953 99.1157C67.4035 100.704 66.3201 102.174 65.0687 103.493C65.0041 103.558 64.916 103.594 64.8237 103.593C64.7314 103.592 64.6425 103.554 64.5766 103.488C64.5107 103.422 64.4732 103.334 64.4723 103.241C64.4714 103.149 64.5071 103.061 64.5718 102.996C65.8897 101.606 67.013 100.043 67.9122 98.348C65.7512 98.7174 63.9272 100.001 63.0866 102.088ZM60.9165 91.0147C59.9517 90.4549 58.8687 90.1381 57.7629 90.0922C56.1246 90.061 54.7556 90.8633 53.4476 91.7267C54.5309 92.5963 55.3772 93.7204 56.5138 94.5194C58.5588 95.9617 60.523 95.1092 62.4181 94.0336C61.27 93.4582 60.0601 93.0203 58.814 92.7291C58.3771 92.6255 58.5474 91.9539 58.9908 92.051C60.1856 92.3351 61.3483 92.7482 62.4582 93.283C62.4307 92.2425 61.9625 91.6033 60.9208 91.019L60.9165 91.0147ZM36.7969 95.4345C36.2222 96.6806 36.3245 98.0866 36.4673 99.4347C39.4586 98.1304 43.575 95.7883 40.8469 92.0471C40.2845 93.4552 39.6831 94.8457 39.0297 96.214C38.8373 96.6157 38.2274 96.2665 38.4219 95.8627C38.94 94.7822 39.4235 93.6885 39.8831 92.5794C38.6316 93.2641 37.4035 94.1304 36.8013 95.4388L36.7969 95.4345ZM62.394 77.5577C61.4056 76.5926 60.235 75.835 58.9535 75.3311C59.3052 76.166 59.5181 77.0504 59.5836 77.9488C59.632 78.7068 59.4886 79.4866 59.5911 80.243C59.8283 81.9805 61.0413 82.6507 62.5824 82.8839C62.3889 82.2594 62.1469 81.6502 61.8587 81.0617C61.6584 80.6605 62.255 80.3211 62.4575 80.7245C62.7869 81.3937 63.0608 82.0879 63.2765 82.8001C65.0802 81.4323 63.7861 78.8858 62.394 77.5577ZM98.8896 87.7067L93.6642 87.6574C93.6657 87.6923 93.6594 87.7269 93.6458 87.7587C94.5943 88.5248 95.5258 89.3139 96.4402 90.1257C97.2264 89.309 98.047 88.4883 98.8918 87.7089L98.8896 87.7067ZM89.7197 85.9783C88.2693 84.9439 86.7813 83.9617 85.2556 83.0316C83.6246 83.8174 82.0839 84.7737 80.6587 85.8848L89.7197 85.9783ZM72.7997 91.2547C72.8189 91.2718 72.837 91.29 72.8542 91.3092C74.3486 90.0894 75.7859 88.7741 77.2452 87.4936L66.6108 87.391C68.7022 88.6389 70.7673 89.929 72.8062 91.2612L72.7997 91.2547ZM61.7814 85.7075C60.6617 85.0836 59.5341 84.4674 58.3986 83.8592C56.1224 84.2964 53.8797 84.8806 51.6845 85.6081L61.7814 85.7075ZM10.9141 72.0265C14.36 71.5058 18.6853 71.3218 18.8345 66.9659C17.4169 67.8485 16.0931 68.8715 14.8827 70.0196C14.8165 70.0742 14.7318 70.1018 14.6452 70.0969C14.5586 70.0919 14.4764 70.0549 14.4145 69.9931C14.3526 69.9312 14.3156 69.8489 14.3107 69.7623C14.3058 69.6757 14.3333 69.591 14.3879 69.5248C15.7691 68.2134 17.2953 67.063 18.9382 66.095C15.6583 63.5246 12.4755 69.493 10.9078 72.0372L10.9141 72.0265ZM19.2216 39.6556C17.404 41.1463 16.0885 43.6606 17.0464 46.0289C17.48 47.1123 18.1207 47.9581 18.2521 49.0299C19.4051 47.9902 20.7327 46.9285 21.5839 45.6981C22.8756 43.8353 21.7431 41.7027 20.1628 40.3361C20.3397 41.8593 20.2941 43.3653 19.5984 44.8239C19.406 45.2256 18.7982 44.8786 18.9907 44.4769C19.7118 42.9668 19.6615 41.3692 19.4083 39.7653L19.2216 39.6556ZM14.2527 32.1221C12.9801 32.4181 12.3514 33.4479 11.4401 34.272C10.931 34.7492 10.3229 35.109 9.65707 35.327C10.9264 35.8014 12.1883 36.3879 13.4513 36.4327C15.2475 36.4979 16.7539 35.4012 17.7503 34.0126C16.6355 34.1116 15.523 34.2345 14.4153 34.3962C13.98 34.461 13.7985 33.7794 14.2252 33.7145C15.3832 33.5475 16.5444 33.4122 17.7088 33.3086C16.7138 32.4247 15.6179 31.8075 14.2548 32.1242L14.2527 32.1221ZM17.7225 23.5213C16.9926 24.3515 16.3856 25.1764 15.5604 25.7532C19.1134 26.0364 23.5656 27.9924 24.6834 23.3827C23.4199 23.876 22.1044 24.2313 20.7595 24.4426C20.3221 24.5138 20.1342 23.8429 20.5694 23.7609C22.0172 23.5402 23.4293 23.1439 24.7748 22.5807C22.409 20.9971 19.5793 21.4116 17.7247 23.5235L17.7225 23.5213ZM22.8887 54.1494C22.0518 54.4196 21.3721 55.0863 20.7803 55.6955C19.806 56.7003 18.8579 57.7312 17.9033 58.7512C18.7797 58.7923 19.6518 58.9172 20.5076 59.1244C22.6307 59.5078 25.0343 58.7869 25.8409 56.764C24.5607 57.0452 23.3061 57.4254 22.0883 57.9011C21.6732 58.0503 21.4917 57.3773 21.8981 57.2194C23.2515 56.6892 24.6545 56.289 26.0883 56.024C26.132 55.9714 26.1925 55.9355 26.26 55.9221C26.2112 54.698 23.6072 53.9191 22.8909 54.1516L22.8887 54.1494ZM28.0941 55.8841C28.1998 55.8873 28.3036 55.9013 28.4094 55.9088C29.7739 54.0645 30.9769 52.1046 32.0055 50.0502C32.0289 49.9977 32.0631 49.9509 32.1058 49.9127C32.1485 49.8744 32.1989 49.8457 32.2537 49.8282C31.0135 46.6638 29.5738 43.578 27.9435 40.5897L28.0941 55.8841ZM23.1842 31.1201C24.245 32.6226 25.2703 34.1737 26.2601 35.7733L26.167 26.1015C25.2444 27.8204 24.2509 29.494 23.1864 31.1223L23.1842 31.1201ZM27.7508 20.5943C28.5569 18.7332 29.2813 16.8318 29.9241 14.89C29.2218 13.558 28.4658 12.2592 27.6563 10.9937L27.7508 20.5943Z" fill="#C3937C"/>
<path d="M19.1897 45.8598C19.2556 45.9257 19.2931 46.0146 19.294 46.1069C19.2949 46.1992 19.2591 46.2873 19.1945 46.3519C19.1299 46.4165 19.0418 46.4523 18.9495 46.4514C18.8572 46.4505 18.7683 46.413 18.7024 46.3471C18.6365 46.2812 18.599 46.1923 18.5981 46.1C18.5972 46.0077 18.633 45.9196 18.6976 45.855C18.7622 45.7904 18.8503 45.7546 18.9426 45.7555C19.0349 45.7564 19.1238 45.7939 19.1897 45.8598Z" fill="#C3937C"/>
<path d="M12.8459 34.5964C12.79 34.5292 12.7608 34.4439 12.764 34.3574C12.7672 34.2709 12.8026 34.1893 12.8632 34.1286C12.9239 34.0679 13.0055 34.0326 13.092 34.0294C13.1785 34.0261 13.2638 34.0554 13.3311 34.1113C13.387 34.1786 13.4162 34.2638 13.413 34.3503C13.4098 34.4368 13.3744 34.5184 13.3137 34.5791C13.2531 34.6398 13.1715 34.6751 13.0849 34.6784C12.9984 34.6816 12.9132 34.6524 12.8459 34.5964Z" fill="#C3937C"/>
<path d="M19.0039 24.7942C18.5845 24.939 18.4052 24.2639 18.8138 24.1125L19.373 23.9195C19.7924 23.7747 19.9739 24.4477 19.5653 24.599L19.0039 24.7942Z" fill="#C3937C"/>
<path d="M41.6142 25.3235L42.1426 25.7237C42.2206 25.772 42.2781 25.8478 42.3034 25.9357C42.3287 26.0236 42.3199 26.1172 42.2789 26.1977C42.2566 26.2371 42.2267 26.2717 42.1908 26.2993C42.1549 26.3269 42.1139 26.3471 42.0699 26.3587C42.0259 26.3703 41.9799 26.3731 41.9345 26.3668C41.8891 26.3606 41.8452 26.3455 41.8053 26.3225L41.277 25.9266C41.1992 25.8774 41.1423 25.8011 41.1174 25.7129C41.0926 25.6247 41.1016 25.5311 41.1428 25.4505C41.188 25.3716 41.2626 25.3142 41.3507 25.2904C41.4388 25.2667 41.5334 25.2786 41.6142 25.3235Z" fill="#C3937C"/>
<path d="M13.5034 70.6535L13.3773 70.7796C13.3112 70.8342 13.2265 70.8617 13.1399 70.8568C13.0533 70.8519 12.971 70.8149 12.9091 70.753C12.8472 70.6911 12.8102 70.6089 12.8053 70.5223C12.8004 70.4357 12.8279 70.351 12.8826 70.2848L13.0087 70.1587C13.0748 70.1041 13.1595 70.0765 13.2461 70.0814C13.3327 70.0863 13.415 70.1234 13.4769 70.1852C13.5388 70.2471 13.5758 70.3294 13.5807 70.416C13.5856 70.5026 13.5581 70.5873 13.5034 70.6535Z" fill="#C3937C"/>
<path d="M21.0193 58.0717C20.8772 58.0721 20.7381 58.1078 20.6145 58.1756C20.5751 58.1979 20.5315 58.2121 20.4862 58.2174C20.4409 58.2227 20.3948 58.219 20.3506 58.2066C20.3064 58.1941 20.2649 58.1731 20.2285 58.1448C20.1921 58.1164 20.1615 58.0813 20.1384 58.0414C20.1153 58.0015 20.1003 57.9576 20.0941 57.9122C20.0879 57.8668 20.0906 57.8208 20.1022 57.7768C20.1138 57.7328 20.134 57.6917 20.1616 57.6559C20.1893 57.62 20.2238 57.5901 20.2633 57.5678C20.4925 57.4421 20.751 57.3771 21.0146 57.3788C21.4722 57.3877 21.4682 58.0718 21.0193 58.0717Z" fill="#C3937C"/>
<path d="M40.0329 56.7311L40.4022 56.9808C40.7759 57.2305 40.4321 57.8228 40.065 57.5796L39.6935 57.3321C39.322 57.0802 39.657 56.4792 40.0329 56.7311Z" fill="#C3937C"/>
<path d="M38.4789 97.0737C38.394 97.2196 38.307 97.3633 38.2221 97.5093C38.1998 97.5487 38.1698 97.5832 38.134 97.6109C38.0981 97.6385 38.057 97.6587 38.0131 97.6703C37.9691 97.6819 37.9231 97.6847 37.8777 97.6785C37.8323 97.6722 37.7884 97.6572 37.7485 97.6341C37.7086 97.611 37.6735 97.5804 37.6452 97.544C37.6168 97.5076 37.5958 97.4661 37.5834 97.4219C37.5709 97.3777 37.5672 97.3316 37.5725 97.2863C37.5778 97.2411 37.592 97.1974 37.6143 97.158C37.7014 97.0142 37.7863 96.8683 37.8734 96.7246C37.9223 96.6538 37.9963 96.6044 38.0808 96.5861C38.1654 96.5678 38.2543 96.5819 38.3302 96.6256C38.4061 96.6694 38.4634 96.7396 38.4909 96.8225C38.5184 96.9054 38.5142 96.995 38.4789 97.0737Z" fill="#C3937C"/>
<path d="M64.5574 104.418C64.4726 104.564 64.3855 104.708 64.2984 104.856C64.2495 104.926 64.1755 104.976 64.091 104.994C64.0064 105.013 63.9175 104.998 63.8416 104.955C63.7658 104.911 63.7084 104.841 63.6809 104.758C63.6534 104.675 63.6576 104.585 63.6929 104.507C63.7778 104.361 63.8627 104.215 63.9497 104.071C63.9978 103.999 64.0718 103.948 64.1569 103.928C64.242 103.909 64.332 103.922 64.4088 103.966C64.4856 104.01 64.5436 104.081 64.5711 104.165C64.5987 104.248 64.5938 104.339 64.5574 104.418Z" fill="#C3937C"/>
<path d="M58.0136 92.5656L57.079 92.332C56.642 92.2241 56.8123 91.5524 57.2557 91.6538L58.1904 91.8875C58.6189 92.004 58.4485 92.6756 58.0136 92.5656Z" fill="#C3937C"/>
<path d="M61.3685 79.9517L60.8436 79.243C60.5745 78.8799 61.1799 78.5449 61.4445 78.9036L61.9716 79.6145C62.2278 79.9861 61.6247 80.3233 61.3685 79.9517Z" fill="#C3937C"/>
<path d="M83.2851 94.6448C83.1961 94.6392 83.1118 94.5997 83.0498 94.5345C82.9878 94.4692 82.9528 94.3831 82.9519 94.294C82.951 94.2048 82.9844 94.1194 83.0451 94.0554C83.1058 93.9913 83.1893 93.9535 83.2783 93.9497L83.4941 93.9519C83.5804 93.9611 83.6608 94.0022 83.7195 94.0671C83.7782 94.1319 83.811 94.2158 83.8116 94.3024C83.8122 94.389 83.7805 94.4721 83.7226 94.5354C83.6648 94.5987 83.585 94.6376 83.4988 94.6447L83.2851 94.6448Z" fill="#C3937C"/>
<path d="M98.3662 99.4248L98.738 99.9249C99.0049 100.286 98.4039 100.621 98.137 100.264L97.7674 99.7621C97.4919 99.4054 98.0951 99.0682 98.3662 99.4248Z" fill="#C3937C"/>
<path d="M79.2184 71.1344L79.1582 70.2791C79.1343 69.8278 79.8229 69.8411 79.8532 70.286L79.9113 71.1434C79.9307 71.586 79.24 71.5748 79.2184 71.1344Z" fill="#C3937C"/>
<path d="M92.6405 79.4829L92.6876 78.564C92.7047 78.111 93.4063 78.1244 93.3826 78.5709L93.3356 79.4898C93.3097 79.9341 92.6169 79.9294 92.6405 79.4829Z" fill="#C3937C"/>
</svg>
