<svg width="17" height="15" viewBox="0 0 17 15" fill="none" xmlns="http://www.w3.org/2000/svg">
<path fill-rule="evenodd" clip-rule="evenodd" d="M7.16704 1.15106e-07L7.20028 2.35154e-07H9.29865L9.33188 1.15106e-07C10.4317 -5.64717e-06 11.3033 -1.0209e-05 12.0058 0.0573885C12.7242 0.116085 13.3321 0.238548 13.8871 0.52136C14.7872 0.97996 15.519 1.71173 15.9776 2.61178C16.2604 3.16683 16.3828 3.7747 16.4415 4.49311C16.4989 5.19562 16.4989 6.06717 16.4989 7.16695V7.16702V7.20028V7.79981V7.83306V7.83313C16.4989 8.93291 16.4989 9.80447 16.4415 10.507C16.3828 11.2254 16.2604 11.8333 15.9776 12.3883C15.519 13.2884 14.7872 14.0201 13.8871 14.4787C13.3321 14.7615 12.7242 14.884 12.0058 14.9427C11.3033 15.0001 10.4317 15.0001 9.33193 15.0001H9.33191H9.3319H9.29864H7.20027H7.16702H7.16701H7.16699C6.06719 15.0001 5.19562 15.0001 4.49311 14.9427C3.7747 14.884 3.16683 14.7615 2.61178 14.4787C1.71173 14.0201 0.97996 13.2884 0.52136 12.3883C0.238547 11.8333 0.116085 11.2254 0.0573885 10.507C-1.0209e-05 9.80445 -5.64717e-06 8.93286 1.15106e-07 7.83304L2.35154e-07 7.79981V7.20027L1.15106e-07 7.16704C-5.64717e-06 6.06722 -1.0209e-05 5.19563 0.0573885 4.49311C0.116085 3.7747 0.238548 3.16683 0.52136 2.61178C0.97996 1.71173 1.71173 0.97996 2.61178 0.52136C3.16683 0.238547 3.7747 0.116085 4.49311 0.0573885C5.19563 -1.0209e-05 6.06722 -5.64717e-06 7.16704 1.15106e-07ZM4.61611 1.56292C3.99112 1.61398 3.60417 1.71104 3.29756 1.86727C2.68173 2.18105 2.18105 2.68173 1.86727 3.29756C1.80049 3.42862 1.74452 3.57436 1.69833 3.74709H14.8006C14.7544 3.57436 14.6984 3.42862 14.6317 3.29756C14.3179 2.68173 13.8172 2.18105 13.2014 1.86727C12.8948 1.71104 12.5078 1.61398 11.8828 1.56292C11.249 1.51113 10.4391 1.51055 9.29865 1.51055H7.20028C6.05983 1.51055 5.24992 1.51113 4.61611 1.56292ZM1.51055 7.20027C1.51055 6.41172 1.51083 5.78119 1.52812 5.25764H14.9708C14.9881 5.78119 14.9884 6.41172 14.9884 7.20028V7.79981C14.9884 8.94025 14.9878 9.75016 14.936 10.384C14.8849 11.009 14.7879 11.3959 14.6317 11.7025C14.3179 12.3184 13.8172 12.819 13.2014 13.1328C12.8948 13.289 12.5078 13.3861 11.8828 13.4372C11.249 13.4889 10.4391 13.4895 9.29864 13.4895H7.20027C6.05983 13.4895 5.24992 13.4889 4.61611 13.4372C3.99112 13.3861 3.60417 13.289 3.29756 13.1328C2.68173 12.819 2.18105 12.3184 1.86727 11.7025C1.71104 11.3959 1.61398 11.009 1.56292 10.384C1.51113 9.75016 1.51055 8.94025 1.51055 7.79981V7.20027ZM3.75286 6.74477C3.33573 6.74477 2.99758 7.08292 2.99758 7.50004C2.99758 7.91717 3.33573 8.25532 3.75286 8.25532H6.75053C7.16766 8.25532 7.50581 7.91717 7.50581 7.50004C7.50581 7.08292 7.16766 6.74477 6.75053 6.74477H3.75286Z" fill="white"/>
</svg>
