<svg width="158" height="290" viewBox="0 0 158 290" fill="none" xmlns="http://www.w3.org/2000/svg">
<path d="M124.601 133.639C129.005 203.253 82.8888 264.619 17.8353 281.916L17.6947 279.694C81.5434 262.502 126.749 202.186 122.421 133.777C119.52 87.9121 94.9941 48.4659 59.401 24.7334C35.7802 6.94949 0.000174091 4.87111e-05 0.000174091 4.87111e-05C66.7149 8.96092 120.196 64.0174 124.601 133.639Z" fill="#C3937C"/>
<path d="M23.2851 276.932C35.8579 274.264 47.9338 261.981 52.3993 250.168C55.1699 242.83 55.347 234.75 55.3551 226.998C55.3438 219.425 54.894 211.859 54.0082 204.339C53.8727 203.174 55.6871 203.063 55.8223 204.224C56.8506 212.919 57.2889 221.675 57.1341 230.43C56.9902 237.795 56.4293 245.344 53.5377 252.204C48.5696 263.888 36.5628 275.96 23.8923 278.647C22.7619 278.888 22.1506 277.173 23.3015 276.931L23.2851 276.932Z" fill="#C3937C"/>
<path d="M21.9848 277.158C20.2614 261.706 21.4138 245.529 27.8164 231.181C33.1899 219.129 42.5194 209.552 54.0191 203.21C55.0387 202.651 56.061 204.155 55.0338 204.722C43.764 210.922 34.704 220.198 29.4424 232C23.1696 246.056 22.1122 261.91 23.799 277.043C23.9303 278.208 22.1119 278.319 21.9848 277.158Z" fill="#C3937C"/>
<path d="M23.6301 276.33C42.8036 263.615 53.6873 241.413 55.2698 218.811C55.3259 218.005 56.6011 217.903 56.5421 218.73C54.9267 241.787 43.9206 264.4 24.3399 277.388C24.1994 277.482 24.0273 277.517 23.8614 277.484C23.6955 277.451 23.5494 277.354 23.4552 277.213C23.3611 277.073 23.3267 276.901 23.3595 276.735C23.3923 276.57 23.4896 276.424 23.6301 276.33Z" fill="#C3937C"/>
<path d="M22.5862 275.852L40.6273 242.828C43.5409 237.489 46.5171 232.163 49.3635 226.805C52.5342 220.841 55.3906 214.337 53.6701 207.464C53.4704 206.653 54.6774 206.256 54.8801 207.05C57.7755 218.62 49.0543 230.06 43.8141 239.658L23.7269 276.427C23.3354 277.143 22.1952 276.577 22.5903 275.852L22.5862 275.852Z" fill="#C3937C"/>
<path d="M23.2049 274.883C19.8867 259.626 25.9768 242.943 34.1868 230.197C37.2563 225.434 40.9122 221.016 44.3051 216.479C47.4924 212.21 50.5286 207.506 54.3027 203.719C54.8803 203.143 55.8398 203.98 55.2587 204.564C51.8873 207.943 49.1429 212.114 46.3055 215.92C43.2201 220.042 39.9688 224.081 37.0041 228.286C27.9929 241.07 20.9758 258.668 24.4108 274.469C24.5845 275.261 23.3791 275.683 23.2008 274.883L23.2049 274.883Z" fill="#C3937C"/>
<path d="M22.0741 274.53C23.8965 261.975 28.3702 249.313 35.3757 238.697C42.3813 228.082 52.202 218.062 54.0981 204.913C54.2145 204.083 55.4643 204.362 55.3507 205.172C53.5886 217.312 45.1472 226.923 38.3314 236.629C30.4238 248.01 25.2859 261.078 23.327 274.793C23.2093 275.603 21.9605 275.34 22.0744 274.535L22.0741 274.53Z" fill="#C3937C"/>
<path d="M33.6415 277.792C47.6441 282.719 62.1665 286.026 76.924 287.646C84.7374 288.498 92.7162 288.772 99.9349 285.174C106.303 282 111.357 276.827 116.268 271.791C117.085 270.957 118.455 272.154 117.634 272.993C112.727 278.021 107.667 283.178 101.377 286.478C94.868 289.891 87.7684 290.357 80.5714 289.803C64.3102 288.56 48.2018 284.783 32.8405 279.394C31.7404 279.007 32.5648 277.382 33.6605 277.766L33.6415 277.792Z" fill="#C3937C"/>
<path d="M116.837 272.771C101.881 270.86 86.9827 267.579 71.8861 267.028C59.0448 266.56 43.7066 269.029 35.2964 279.782C34.572 280.709 33.2182 279.502 33.9305 278.58C42.0052 268.255 56.4722 265.109 68.9325 265.156C85.1311 265.214 101.183 268.945 117.194 270.991C118.353 271.14 117.98 272.921 116.821 272.772L116.837 272.771Z" fill="#C3937C"/>
<path d="M36.3774 277.915C60.471 281.808 84.0026 279.879 106.528 270.183C107.282 269.86 107.692 271.065 106.942 271.392C84.2246 281.174 60.4124 283.096 36.1186 279.166C35.311 279.036 35.57 277.789 36.3774 277.915Z" fill="#C3937C"/>
<path d="M34.9734 278.391C51.4638 280.847 68.0247 283.961 84.7698 283.865C90.2896 283.872 95.7531 282.756 100.827 280.585C105.851 278.513 111.425 276.074 115.43 272.288C116.021 271.728 116.985 272.569 116.386 273.129C112.762 276.553 107.961 278.829 103.448 280.843C98.2981 283.141 93.1737 284.93 87.5095 285.091C69.7765 285.596 52.1864 282.238 34.7185 279.638C33.8867 279.518 34.1704 278.269 34.9813 278.386L34.9734 278.391Z" fill="#C3937C"/>
<path d="M37.3319 277.501C58.2188 272.59 79.8161 268.095 101.39 269.159C102.217 269.197 102.297 270.468 101.471 270.43C80.0081 269.371 58.5232 273.818 37.746 278.705C36.9337 278.893 36.5362 277.691 37.3316 277.497L37.3319 277.501Z" fill="#C3937C"/>
<path d="M76.0697 251.54C95.5081 252.652 121.989 249.265 133.731 231.516C134.366 230.549 136.005 231.372 135.357 232.331C123.212 250.69 96.4088 254.514 76.1851 253.364C75.0312 253.297 74.8998 251.482 76.0702 251.548L76.0697 251.54Z" fill="#C3937C"/>
<path d="M133.805 232.882C123.422 231.885 112.945 233.117 103.077 236.495C93.2086 239.873 84.1765 245.318 76.5857 252.466C75.7379 253.265 74.3682 252.067 75.2199 251.264C83.0339 243.888 92.34 238.272 102.511 234.794C112.681 231.315 123.48 230.056 134.179 231.1C135.344 231.216 134.966 232.998 133.805 232.882Z" fill="#C3937C"/>
<path d="M78.6946 250.04C97.8703 248.695 117.844 245.962 132.101 231.746C132.683 231.17 133.643 232.007 133.057 232.588C118.552 247.053 98.3034 249.94 78.775 251.311C78.6062 251.322 78.4402 251.265 78.3133 251.153C78.1865 251.042 78.1092 250.884 78.0986 250.716C78.0879 250.547 78.1447 250.381 78.2565 250.254C78.3682 250.128 78.5258 250.05 78.6946 250.04Z" fill="#C3937C"/>
<path d="M79.6028 249.155C93.5204 244.582 106.994 238.756 119.859 231.751C120.576 231.36 121.289 232.414 120.568 232.805C107.613 239.87 94.0432 245.743 80.0248 250.355C79.2459 250.614 78.8277 249.41 79.6064 249.146L79.6028 249.155Z" fill="#C3937C"/>
<path d="M79.7324 249.184C87.9698 248.465 96.1106 246.349 103.986 243.887C111.967 241.393 121.298 238.675 126.717 231.91C127.233 231.268 128.185 232.113 127.673 232.751C122.327 239.433 113.327 242.242 105.455 244.765C97.1593 247.422 88.5297 249.693 79.829 250.45C79.0094 250.522 78.9303 249.271 79.7488 249.183L79.7324 249.184Z" fill="#C3937C"/>
<path d="M66.9949 254.135C76.9625 245.896 84.099 234.748 87.4036 222.253C89.0843 215.861 89.5206 209.403 89.281 202.815C89.038 196.108 88.6013 189.466 90.4959 182.937C90.8376 181.824 92.6116 182.181 92.2791 183.31C89.9727 191.211 91.2282 199.267 91.183 207.346C91.1479 213.627 90.153 219.867 88.2327 225.848C84.4831 237.51 77.461 247.851 68.0011 255.644C67.0963 256.389 66.0899 254.876 66.9826 254.136L66.9949 254.135Z" fill="#C3937C"/>
<path d="M66.7745 253.778C65.2067 240.33 63.616 226.129 68.146 213.056C72.3041 201.073 80.2444 190.641 90.1946 182.865C91.1172 182.14 92.1279 183.657 91.209 184.374C81.31 192.114 73.2399 202.772 69.4626 214.846C65.5381 227.395 67.0982 240.852 68.5887 253.664C68.7242 254.828 66.9098 254.939 66.7745 253.778Z" fill="#C3937C"/>
<path d="M67.1167 252.283C76.2079 231.709 85.885 209.517 86.6233 186.73C86.6494 185.905 87.9217 185.825 87.8956 186.65C87.1483 209.684 77.4424 232.071 68.2531 252.853C67.9214 253.603 66.785 253.032 67.1167 252.283Z" fill="#C3937C"/>
<path d="M67.8866 253.638C74.3886 247.114 77.768 236.958 80.8554 228.439C84.1049 219.485 86.7563 210.327 89.2029 201.124C89.4127 200.337 90.6609 200.591 90.4557 201.386C87.9787 210.694 85.2843 219.954 81.9959 229.009C78.8624 237.646 75.4647 247.84 68.8466 254.483C68.2731 255.059 67.3136 254.222 67.8907 253.638L67.8866 253.638Z" fill="#C3937C"/>
<path d="M67.102 250.226C69.1264 229.267 79.7239 210.097 83.1768 189.377C83.3112 188.57 84.5597 188.829 84.4294 189.636C80.9767 210.359 70.3792 229.53 68.3546 250.484C68.2793 251.312 67.0295 251.033 67.102 250.226Z" fill="#C3937C"/>
<path d="M66.1958 236.813C70.0259 224.336 72.677 211.526 75.5732 198.812C75.7535 198.014 77.0017 198.269 76.8258 199.07C73.9216 211.789 71.2785 224.595 67.4484 237.072C67.2091 237.848 65.9598 237.578 66.1958 236.813Z" fill="#C3937C"/>
<path d="M102.638 220.095C113.291 220.759 124.314 218.926 134.317 215.247C144.385 211.547 150.326 202.086 155.401 193.194C155.98 192.181 157.61 192.992 157.027 194.013C152.119 202.614 146.37 211.919 136.97 216.141C126.66 220.774 113.964 222.61 102.753 221.912C101.598 221.837 101.471 220.021 102.638 220.095Z" fill="#C3937C"/>
<path d="M101.76 220.159C106.039 215.36 108.867 209.459 113.398 204.87C116.515 201.743 120.143 199.169 124.126 197.259C134.121 192.407 145.479 191.64 156.38 192.506C157.543 192.597 157.166 194.379 156.01 194.287C145.209 193.431 133.797 194.264 124.021 199.324C120.012 201.375 116.416 204.147 113.412 207.5C109.565 211.823 106.957 217.043 103.109 221.362C102.34 222.234 100.962 221.037 101.744 220.16L101.76 220.159Z" fill="#C3937C"/>
<path d="M117.711 183.018C128.131 176.929 139.301 170.397 145.74 159.814C152.605 148.536 152.348 134.836 151.162 122.149C151.051 120.983 152.869 120.868 152.98 122.034C154.193 135.019 154.375 149.091 147.37 160.629C140.753 171.52 129.447 178.262 118.729 184.526C117.72 185.117 116.698 183.609 117.711 183.018Z" fill="#C3937C"/>
<path d="M117.2 183.219C121.568 159.692 133.186 137.312 151.247 121.403C152.117 120.64 153.491 121.833 152.617 122.605C134.763 138.328 123.298 160.336 118.976 183.601C118.764 184.751 116.965 184.383 117.193 183.228L117.2 183.219Z" fill="#C3937C"/>
<path d="M107.781 205.646C113.508 192.728 114.372 175.178 107.887 162.373C105.53 157.681 101.984 153.74 98.9883 149.446C95.1713 143.882 92.3524 137.697 90.6575 131.168C90.3597 130.043 92.0765 129.432 92.3795 130.574C94.2853 137.751 97.5371 144.502 101.962 150.468C105.295 155.004 108.82 159.33 110.877 164.629C115.922 177.603 115.011 193.823 109.403 206.466C108.927 207.533 107.301 206.718 107.773 205.647L107.781 205.646Z" fill="#C3937C"/>
<path d="M107.124 207.569C103.995 205.4 102.074 201.15 100.428 197.87C97.1834 191.29 94.5426 184.43 92.5382 177.374C88.2548 162.689 85.2502 145.746 90.1007 130.833C90.4431 129.733 92.2458 130.088 91.8839 131.206C87.1294 145.812 90.0659 162.398 94.2601 176.779C96.1112 183.27 98.4893 189.598 101.371 195.702C103.028 199.163 105.031 203.922 108.319 206.201C109.28 206.869 108.068 208.226 107.116 207.565L107.124 207.569Z" fill="#C3937C"/>
<path d="M123.343 137.013C143.732 116.864 140.323 86.2463 131.915 61.4649C131.54 60.3525 133.262 59.7619 133.637 60.8703C142.249 86.2604 145.547 117.622 124.709 138.215C123.879 139.037 122.509 137.839 123.343 137.013Z" fill="#C3937C"/>
<path d="M123.3 137.567C120.793 122.247 119.94 106.67 119.627 91.1656C119.392 79.7773 121.906 67.2724 131.908 60.3124C132.871 59.6422 133.886 61.1506 132.922 61.8208C121.8 69.564 121.148 83.4907 121.59 95.6891C122.096 109.678 122.853 123.602 125.118 137.456C125.307 138.613 123.488 138.72 123.3 137.571L123.3 137.567Z" fill="#C3937C"/>
<path d="M121.576 152.265C99.5989 145.809 94.264 121.278 91.9873 101.444C91.8518 100.279 93.6703 100.168 93.8015 101.329C95.9729 120.215 100.862 144.276 121.949 150.476C123.063 150.817 122.705 152.585 121.575 152.253L121.576 152.265Z" fill="#C3937C"/>
<path d="M121.23 151.361C119.219 138.521 115.629 125.22 106.717 115.344C102.254 110.403 96.2898 106.857 92.3574 101.433C91.6708 100.48 93.1811 99.4707 93.8675 100.419C98.0685 106.246 104.639 109.997 109.245 115.501C117.63 125.522 121.052 138.586 123.044 151.234C123.224 152.387 121.409 152.494 121.229 151.348L121.23 151.361Z" fill="#C3937C"/>
<path d="M109.73 82.5295C111.604 75.6802 113.548 68.6248 113.251 61.46C113.05 56.5904 111.602 52.8454 109.439 48.6226C105.701 41.3133 101.347 34.3146 97.8951 26.839C97.4156 25.7743 99.1302 25.1924 99.6171 26.2443C103.36 34.3355 108.201 41.8837 112.1 49.8992C117.268 60.5226 114.492 72.0107 111.513 82.9025C111.209 84.0249 109.423 83.6646 109.73 82.5295Z" fill="#C3937C"/>
<path d="M109.085 82.5578C99.6712 65.562 95.6807 46.0979 97.6478 26.7721C97.768 25.6118 99.5515 25.9889 99.431 27.145C97.5311 45.9909 101.425 64.9669 110.595 81.5442C111.158 82.5625 109.653 83.5839 109.085 82.5578Z" fill="#C3937C"/>
<path d="M114.21 96.4774C100.719 93.56 79.5542 91.2105 75.9532 74.6095C75.7084 73.4764 77.4255 72.8696 77.6752 74.0147C81.1143 89.8809 101.648 91.8999 114.584 94.696C115.724 94.9449 115.359 96.7258 114.21 96.4774Z" fill="#C3937C"/>
<path d="M113.78 95.7431C105.718 83.8538 91.6248 75.6517 77.174 75.2115C76.0139 75.1779 75.8866 73.3623 77.059 73.3952C92.1666 73.8596 106.842 82.2719 115.29 94.7295C115.949 95.7005 114.439 96.7141 113.78 95.7431Z" fill="#C3937C"/>
<path d="M94.999 60.2683C82.2617 61.0428 69.589 57.9434 58.6512 51.3787C57.6531 50.7791 58.4606 49.1472 59.4712 49.7502C70.1196 56.1682 82.4696 59.2015 94.8838 58.4478C96.0536 58.3738 96.1687 60.1943 94.9987 60.2642L94.999 60.2683Z" fill="#C3937C"/>
<path d="M93.8687 58.8823C85.7297 47.9982 71.4399 44.7609 59.2891 50.7784C58.2381 51.2977 57.6592 49.5724 58.694 49.0582C64.8647 45.9635 71.9319 45.1489 78.6454 46.7583C85.3589 48.3677 91.2859 52.2974 95.3778 57.8524C96.0803 58.7959 94.5659 59.8057 93.868 58.8701L93.8687 58.8823Z" fill="#C3937C"/>
<path d="M82.3929 41.3056C83.7445 29.4506 79.5255 16.8901 71.0698 8.42608C70.2429 7.60152 71.442 6.23301 72.2733 7.06135C81.2216 16.0171 85.6201 29.1345 84.1761 41.6787C84.0435 42.8397 82.26 42.4626 82.3929 41.3056Z" fill="#C3937C"/>
<path d="M81.6849 41.7747C77.5864 37.2156 74.4933 31.8463 72.6066 26.0155C70.7199 20.1846 70.0817 14.0224 70.7333 7.92885C70.8536 6.76858 72.6371 7.14562 72.5165 8.30178C71.9105 14.0805 72.5201 19.9218 74.3062 25.4512C76.0923 30.9804 79.0156 36.0757 82.8884 40.41C83.6602 41.2751 82.4613 42.6477 81.6849 41.7747Z" fill="#C3937C"/>
<path d="M65.8026 30.236C55.7813 31.8085 44.9577 30.5996 36.8284 24.1032C35.9125 23.3708 37.1091 22.0272 38.0318 22.7386C45.7836 28.9337 56.1684 29.9151 65.6877 28.4196C66.8425 28.2395 66.9533 30.0561 65.8026 30.236Z" fill="#C3937C"/>
<path d="M65.1842 29.777C57.8861 23.652 47.4634 20.9645 38.3085 24.1166C37.1995 24.4997 36.6085 22.7792 37.7137 22.4005C47.4851 19.0283 58.5939 21.8782 66.3874 28.4082C67.2889 29.1744 66.0844 30.5227 65.184 29.7728L65.1842 29.777Z" fill="#C3937C"/>
<path d="M103.955 219.683C121.113 211.851 137.844 203.118 154.078 193.52C154.781 193.105 155.495 194.159 154.788 194.574C138.457 204.22 121.626 212.996 104.368 220.867C103.623 221.206 103.213 220.001 103.954 219.658L103.955 219.683Z" fill="#C3937C"/>
<path d="M103.539 220.146C112.242 217.467 121.03 214.968 129.626 211.966C137.629 209.171 148.446 205.588 152.686 197.63C153.052 196.907 154.213 197.476 153.826 198.2C149.951 205.473 141.011 209.027 133.713 211.823C124.005 215.549 113.884 218.285 103.953 221.346C103.169 221.589 102.751 220.385 103.539 220.137L103.539 220.146Z" fill="#C3937C"/>
<path d="M107.374 219.137C120.822 219.237 133.105 212.96 145.308 208.092C146.072 207.789 146.486 208.993 145.727 209.301C133.407 214.217 121.023 220.517 107.455 220.412C106.63 220.407 106.55 219.136 107.374 219.145L107.374 219.137Z" fill="#C3937C"/>
<path d="M104.101 218.595C118.142 207.885 133.511 199.033 149.824 192.262C150.579 191.947 150.993 193.155 150.239 193.471C134.035 200.207 118.771 209.008 104.827 219.656C104.174 220.154 103.465 219.096 104.117 218.598L104.101 218.595Z" fill="#C3937C"/>
<path d="M106.655 215.585C114.457 206.752 123.875 199.488 134.402 194.181C135.125 193.818 135.843 194.872 135.112 195.239C124.677 200.49 115.342 207.682 107.607 216.43C107.551 216.493 107.484 216.544 107.408 216.581C107.333 216.618 107.251 216.639 107.167 216.644C107.084 216.649 107 216.638 106.921 216.611C106.841 216.583 106.768 216.541 106.705 216.485C106.643 216.43 106.591 216.362 106.555 216.287C106.518 216.212 106.496 216.13 106.491 216.047C106.486 215.963 106.498 215.879 106.525 215.8C106.552 215.721 106.595 215.648 106.651 215.585L106.655 215.585Z" fill="#C3937C"/>
<path d="M118.033 181.001C124.383 172.214 130.777 163.453 137.075 154.623C143.078 146.208 150.882 136.67 151.684 125.969C151.743 125.142 152.993 125.422 152.937 126.232C152.178 136.382 145.255 145.243 139.59 153.275C132.833 162.874 125.866 172.33 118.997 181.846C118.515 182.51 117.563 181.661 118.037 181.001L118.033 181.001Z" fill="#C3937C"/>
<path d="M120.907 176.666C125.833 170.055 131.414 163.958 137.565 158.466C143.936 152.798 151.116 146.819 151.978 137.716C152.053 136.888 153.303 137.167 153.231 137.979C152.461 146.075 146.686 152.105 140.887 157.235C133.862 163.443 127.475 170.022 121.866 177.507C121.376 178.163 120.42 177.318 120.911 176.666L120.907 176.666Z" fill="#C3937C"/>
<path d="M119.056 179.986L136.56 166.08C141.848 161.875 147.384 157.726 149.949 151.236C150.247 150.472 151.387 151.046 151.085 151.806C148.798 157.599 144.169 161.617 139.415 165.421C132.884 170.647 126.318 175.829 119.77 181.036C119.126 181.546 118.42 180.487 119.056 179.977L119.056 179.986Z" fill="#C3937C"/>
<path d="M119.81 176.793C128.497 157.776 140.039 140.312 151.595 122.941C152.043 122.266 153.188 122.84 152.732 123.515C141.18 140.886 129.646 158.345 120.951 177.367C120.611 178.113 119.47 177.539 119.81 176.793Z" fill="#C3937C"/>
<path d="M106.759 205.896C106.79 195.129 103.973 184.591 99.8405 174.705C96.0698 165.714 91.1561 157.285 88.3089 147.911C88.0698 147.127 89.2755 146.709 89.519 147.497C92.4849 157.251 97.6946 165.994 101.512 175.402C105.421 185.076 108.081 195.335 108.052 205.814C108.05 206.637 106.778 206.718 106.779 205.894L106.759 205.896Z" fill="#C3937C"/>
<path d="M107.519 205.675C107.965 192.132 104.501 178.741 100.067 166.033C96.2696 155.13 91.355 144.276 90.9436 132.562C90.9163 131.74 92.1887 131.66 92.2159 132.481C92.6561 144.91 98.2229 156.303 102.057 167.921C106.068 180.062 109.206 192.724 108.784 205.595C108.757 206.42 107.485 206.5 107.511 205.675L107.519 205.675Z" fill="#C3937C"/>
<path d="M108.467 203.593C109.295 185.675 104.874 168.418 100.414 151.208C100.212 150.418 101.417 149.996 101.624 150.79C106.111 168.101 110.577 185.478 109.744 203.513C109.71 204.338 108.437 204.419 108.471 203.593L108.467 203.593Z" fill="#C3937C"/>
<path d="M110.834 198.537C110.223 184.834 109.003 171.211 105.348 157.939C105.13 157.155 106.335 156.733 106.558 157.525C110.24 170.902 111.492 184.638 112.111 198.456C112.163 199.276 110.878 199.357 110.838 198.536L110.834 198.537Z" fill="#C3937C"/>
<path d="M106.099 205.559C102.653 192.13 98.4768 179.336 91.348 167.355C90.9286 166.653 91.9838 165.94 92.4032 166.642C99.5829 178.71 103.832 191.611 107.304 205.141C107.507 205.931 106.305 206.353 106.095 205.559L106.099 205.559Z" fill="#C3937C"/>
<path d="M120.334 150.286C110.132 137.529 102.395 122.986 97.5193 107.401C97.2761 106.618 98.4779 106.204 98.7293 106.987C103.574 122.465 111.259 136.908 121.393 149.576C121.908 150.219 120.844 150.924 120.338 150.285L120.334 150.286Z" fill="#C3937C"/>
<path d="M120.253 150.447C114.749 139.361 110.352 127.76 107.126 115.813C106.907 115.024 108.112 114.606 108.335 115.395C111.529 127.239 115.877 138.741 121.317 149.738C121.68 150.46 120.625 151.177 120.262 150.447L120.253 150.447Z" fill="#C3937C"/>
<path d="M120.815 149.168C116.204 140.634 113.676 130.897 111.503 121.501C111.321 120.709 112.523 120.288 112.713 121.082C114.858 130.357 117.324 140.036 121.863 148.46C122.25 149.176 121.195 149.889 120.803 149.169L120.815 149.168Z" fill="#C3937C"/>
<path d="M119.891 151.298C109.421 140.433 100.556 127.912 94.4596 114.078C94.1279 113.33 95.3382 112.919 95.6697 113.664C101.686 127.28 110.446 139.632 120.754 150.342C121.318 150.927 120.48 151.886 119.911 151.296L119.891 151.298Z" fill="#C3937C"/>
<path d="M123.339 135.065C126.209 122.904 130.012 110.919 131.841 98.5315C133.62 86.4601 132.894 74.2096 131.828 62.1042C131.776 61.2842 133.007 61.2063 133.096 62.024C134.137 73.7935 134.863 85.7187 133.278 97.4691C131.542 110.341 127.562 122.732 124.592 135.324C124.403 136.122 123.155 135.867 123.339 135.065Z" fill="#C3937C"/>
<path d="M124.008 133.586C126.424 124.356 130.711 115.782 133.43 106.644C136.294 97.083 137.21 87.0459 136.124 77.1258C136.031 76.3084 137.304 76.2279 137.397 77.0454C138.444 86.6455 137.642 96.3573 135.036 105.657C132.347 115.254 127.794 124.192 125.281 133.835C125.075 134.622 123.823 134.372 124.028 133.577L124.008 133.586Z" fill="#C3937C"/>
<path d="M123.461 135.815C127.076 129.688 130.28 123.329 133.053 116.778C136.045 109.805 138.647 102.667 138.68 94.9827C138.685 94.1591 139.958 94.0786 139.952 94.9022C139.918 101.989 137.804 108.623 135.128 115.12C132.141 122.456 128.622 129.565 124.598 136.39C124.18 137.087 123.036 136.521 123.457 135.816L123.461 135.815Z" fill="#C3937C"/>
<path d="M129.49 110.936C131.099 94.9687 131.185 78.8854 129.748 62.9026C129.696 62.0825 130.927 62.0046 131.02 62.8221C132.452 78.9207 132.353 95.119 130.722 111.199C130.643 112.028 129.393 111.749 129.469 110.937L129.49 110.936Z" fill="#C3937C"/>
<path d="M126.34 122.966C125.714 112.224 125.528 101.463 125.585 90.7065C125.632 81.8034 125.262 72.5643 128.484 64.1024C128.774 63.339 129.911 63.9134 129.621 64.6768C126.186 73.6955 126.861 83.8456 126.847 93.3271C126.836 103.183 127.039 113.042 127.613 122.886C127.623 123.054 127.567 123.22 127.455 123.347C127.343 123.474 127.185 123.551 127.017 123.562C126.848 123.572 126.682 123.515 126.555 123.404C126.428 123.292 126.351 123.135 126.34 122.966Z" fill="#C3937C"/>
<path d="M124.073 130.054C123.113 109.799 120.417 89.2591 124.515 69.17C124.532 69.0878 124.565 69.0097 124.612 68.9403C124.66 68.8709 124.72 68.8114 124.79 68.7653C124.86 68.7192 124.939 68.6874 125.021 68.6716C125.104 68.6558 125.189 68.6564 125.271 68.6734C125.353 68.6904 125.431 68.7233 125.501 68.7704C125.57 68.8175 125.63 68.8779 125.676 68.948C125.722 69.0181 125.754 69.0965 125.77 69.1789C125.785 69.2613 125.785 69.346 125.768 69.4282C121.675 89.4059 124.397 109.833 125.349 129.969C125.401 130.789 124.117 130.871 124.077 130.05L124.073 130.054Z" fill="#C3937C"/>
<path d="M109.269 80.846C108.013 64.7676 105.555 48.9711 101.322 33.3857C101.106 32.5761 102.313 32.1786 102.531 32.9675C106.792 48.6541 109.278 64.5723 110.546 80.7653C110.598 81.5853 109.337 81.665 109.273 80.8458L109.269 80.846Z" fill="#C3937C"/>
<path d="M109.642 79.2458C111.652 66.7316 109.195 54.7923 106.348 42.6225C106.165 41.8107 107.368 41.4094 107.558 42.2083C110.456 54.5932 112.94 66.7695 110.89 79.5044C110.76 80.3154 109.516 80.0524 109.638 79.246L109.642 79.2458Z" fill="#C3937C"/>
<path d="M109.033 79.6466C103.388 63.1254 99.6775 45.9591 98.9424 28.4769C98.8905 27.6569 100.179 27.5754 100.215 28.3964C100.943 45.772 104.629 62.7999 110.238 79.2205C110.293 79.3807 110.282 79.5563 110.207 79.7084C110.132 79.8606 110 79.977 109.84 80.0319C109.679 80.0868 109.504 80.0758 109.351 80.0013C109.199 79.9268 109.083 79.7948 109.028 79.6345L109.033 79.6466Z" fill="#C3937C"/>
<path d="M109.926 75.7246C111.588 67.9296 112.253 59.609 110.839 51.7245C110.697 50.9101 111.969 50.8296 112.111 51.644C113.539 59.6141 112.852 68.1049 111.179 75.9912C111.162 76.0733 111.129 76.1513 111.081 76.2206C111.034 76.2899 110.973 76.3493 110.903 76.3952C110.761 76.4879 110.587 76.5205 110.421 76.4858C110.255 76.4509 110.11 76.3516 110.017 76.2096C109.924 76.0677 109.891 75.8947 109.926 75.7287L109.926 75.7246Z" fill="#C3937C"/>
<path d="M112.216 94.7346C108.224 90.2448 101.68 87.1225 96.569 84.0414C91.6291 81.0606 85.4601 76.2393 79.6162 75.5798C78.7862 75.4882 79.0658 74.2397 79.875 74.3285C85.9597 75.0179 92.024 79.813 97.1395 82.898C102.388 86.061 108.929 89.1505 113.074 93.7706C113.616 94.3785 112.762 95.3382 112.233 94.7295L112.216 94.7346Z" fill="#C3937C"/>
<path d="M112.08 94.8499C100.155 89.5199 84.2022 87.5569 77.364 74.7627C76.9807 74.046 78.0359 73.3329 78.4194 74.0537C85.1487 86.6242 100.903 88.4598 112.654 93.7061C113.401 94.0417 112.83 95.1812 112.079 94.8458L112.08 94.8499Z" fill="#C3937C"/>
<path d="M110.984 93.1577C105.229 90.7183 99.5384 88.1184 94.0331 85.124C88.7952 82.2526 84.3266 78.711 79.7861 74.8775C79.1549 74.3452 80.0013 73.3942 80.6282 73.9226C85.4151 77.9381 90.1297 81.5919 95.653 84.544C100.826 87.3042 106.172 89.7324 111.571 92.0173C112.325 92.3401 111.75 93.4756 110.996 93.1569L110.984 93.1577Z" fill="#C3937C"/>
<path d="M82.3059 40.451C77.6048 31.2801 73.5179 22.0456 71.0268 11.9815C70.8326 11.1911 72.0383 10.7731 72.2369 11.5674C74.6799 21.5233 78.6857 30.6477 83.3449 39.743C83.7161 40.4647 82.6612 41.1819 82.2894 40.452L82.3059 40.451Z" fill="#C3937C"/>
<path d="M81.7174 38.7714C79.1653 28.681 75.8484 18.7993 71.7952 9.21182C71.4756 8.45811 72.6859 8.04807 73.0053 8.79766C77.0565 18.3858 80.3734 28.2675 82.9275 38.3574C83.1299 39.1473 81.9242 39.5652 81.7174 38.7714Z" fill="#C3937C"/>
<path d="M93.1429 58.6772C82.9221 54.8026 72.3932 51.7933 61.6674 49.6812C60.8664 49.526 61.1254 48.2787 61.9302 48.4295C72.7603 50.5684 83.3908 53.6139 93.7093 57.534C94.4735 57.8232 93.8983 58.9587 93.1341 58.6695L93.1429 58.6772Z" fill="#C3937C"/>
<path d="M91.6948 57.2825C84.6221 52.5718 76.9514 50.3936 68.7898 48.4029C67.9944 48.2063 68.2493 46.9593 69.0486 47.1516C77.34 49.1753 85.0764 51.3492 92.2817 56.138C92.9573 56.5893 92.3826 57.733 91.7109 57.2774L91.6948 57.2825Z" fill="#C3937C"/>
<path d="M92.5107 58.6514C81.8971 56.9187 69.8147 55.7442 59.9281 51.1744C59.1839 50.8098 59.756 49.691 60.503 50.0348C64.4375 51.8442 68.8511 52.8247 73.0997 53.7374C79.6258 55.1482 86.2032 56.3293 92.7902 57.4028C93.6228 57.5354 93.3389 58.7801 92.5315 58.6542L92.5107 58.6514Z" fill="#C3937C"/>
<path d="M63.2935 29.9831C55.1684 27.4632 46.8393 25.7547 38.5423 23.9043C37.7439 23.7243 38.0029 22.477 38.8052 22.6527C47.0981 24.5034 55.4313 26.2115 63.5522 28.7318C64.33 28.9748 64.0589 30.227 63.2935 29.9831Z" fill="#C3937C"/>
<path d="M63.9381 29.1644C57.4921 26.6082 50.6746 25.1499 44.2284 22.5897C43.4675 22.2879 44.0427 21.1523 44.8035 21.4541C51.2495 24.0102 58.067 25.4685 64.5132 28.0288C65.2741 28.3306 64.6992 29.4703 63.9384 29.1685L63.9381 29.1644Z" fill="#C3937C"/>
<path d="M55.7555 30.1634C51.1739 28.0903 46.4664 26.6344 41.4066 26.8392C40.5844 26.8707 40.504 25.5996 41.3262 25.5681C46.6086 25.3657 51.5578 26.864 56.3265 29.0282C57.0733 29.3679 56.5023 30.5031 55.7555 30.1634Z" fill="#C3937C"/>
</svg>
