<svg width="102" height="50" viewBox="0 0 102 50" fill="none" xmlns="http://www.w3.org/2000/svg">
<path d="M48.8503 39.573C72.9756 39.573 93.1506 22.5377 97.7006 -3.02794e-05L96.9304 -3.02118e-05C92.3904 22.1249 72.5578 38.8275 48.8503 38.8275C32.9553 38.8275 18.8038 31.3214 9.83459 19.7058C3.18016 12.0411 2.63452e-05 -2.1703e-05 2.63452e-05 -2.1703e-05C4.54999 22.5377 24.7222 39.573 48.8503 39.573Z" fill="black"/>
<path d="M96.0992 1.96423C95.4527 6.30554 91.4768 10.6848 87.4967 12.4609C85.0242 13.5631 82.2391 13.7975 79.5634 13.9674C76.9492 14.1268 74.3278 14.1366 71.7125 13.9969C71.3075 13.9759 71.3089 14.5964 71.7125 14.6175C74.7365 14.7804 77.7682 14.741 80.7868 14.4996C83.3261 14.2918 85.9194 13.938 88.2242 12.8049C92.149 10.8603 96.0538 6.50914 96.7046 2.13413C96.7628 1.74381 96.1575 1.57251 96.0992 1.96986L96.0992 1.96423Z" fill="black"/>
<path d="M96.1489 1.51634C90.7776 1.26221 85.2187 2.00354 80.4059 4.49432C76.3632 6.58494 73.2613 9.9701 71.323 14.025C71.1525 14.3844 71.6939 14.7003 71.8673 14.3381C73.7614 10.3646 76.7654 7.07777 80.7242 5.03068C85.439 2.59044 90.8884 1.8884 96.1489 2.13692C96.5539 2.15657 96.5524 1.53459 96.1489 1.51634Z" fill="black"/>
<path d="M95.8988 2.09478C91.9286 8.9016 84.5026 13.0885 76.7356 14.1148C76.4585 14.1513 76.4514 14.588 76.7356 14.5501C84.6589 13.5027 92.2242 9.26524 96.2797 2.31381C96.309 2.26391 96.3172 2.20452 96.3023 2.1487C96.2873 2.09288 96.2506 2.04519 96.2001 2.01614C96.1496 1.9871 96.0895 1.97907 96.033 1.99381C95.9765 2.00856 95.9282 2.04488 95.8988 2.09478Z" fill="black"/>
<path d="M95.7113 1.7494L84.7059 8.60816C82.9268 9.71595 81.1534 10.8448 79.3658 11.9301C77.3765 13.139 75.1938 14.2524 72.7839 13.8144C72.4997 13.7638 72.3889 14.1836 72.6674 14.2356C76.7243 14.9727 80.4827 11.7546 83.6814 9.76228L95.9344 2.12567C96.1731 1.97684 95.9529 1.60055 95.7113 1.75078L95.7113 1.7494Z" fill="black"/>
<path d="M95.3901 1.98108C90.0515 1.17937 84.4259 3.61398 80.2056 6.68603C78.6283 7.83454 77.1832 9.17541 75.6912 10.4292C74.2872 11.6072 72.7298 12.7431 71.5049 14.1106C71.3188 14.3198 71.6286 14.6287 71.8176 14.4181C72.9103 13.1966 74.2901 12.1716 75.5419 11.1228C76.8976 9.98273 78.2205 8.7879 79.6073 7.68712C83.8234 4.34128 89.7446 1.57109 95.2736 2.40089C95.5507 2.443 95.67 2.02319 95.3901 1.97967L95.3901 1.98108Z" fill="black"/>
<path d="M95.2438 1.6034C90.9496 2.49497 86.6768 4.29215 83.1655 6.90789C79.6543 9.52363 76.4102 13.0857 71.9128 14.0152C71.6286 14.0727 71.7523 14.4926 72.0294 14.4364C76.1815 13.5743 79.3147 10.491 82.5161 7.95952C86.2719 5.01995 90.6706 2.98767 95.3618 2.02461C95.6389 1.96705 95.5209 1.54724 95.2452 1.6034L95.2438 1.6034Z" fill="black"/>
<path d="M96.6221 5.47434C98.6288 10.139 100.087 15.0158 100.969 20.009C101.434 22.6528 101.702 25.3655 100.618 27.9026C99.6616 30.1406 97.9863 31.9743 96.355 33.7561C96.085 34.0523 96.5284 34.4932 96.7998 34.1955C98.4282 32.4152 100.098 30.5801 101.1 28.3659C102.136 26.0745 102.141 23.6455 101.793 21.2053C101.009 15.6916 99.3533 10.2846 97.1579 5.16686C97.0001 4.8004 96.4573 5.11631 96.6136 5.48136L96.6221 5.47434Z" fill="black"/>
<path d="M96.7059 33.9287C95.7198 28.8742 94.2618 23.8688 93.7418 18.737C93.2998 14.3718 93.8171 9.09258 97.3454 5.99525C97.6495 5.72848 97.2033 5.29323 96.9006 5.55579C93.513 8.52956 92.7428 13.5266 93.0313 17.771C93.405 23.2889 95.0434 28.6776 96.0992 34.0888C96.1759 34.4805 96.7827 34.3149 96.7059 33.9231L96.7059 33.9287Z" fill="black"/>
<path d="M96.7243 6.40383C98.5943 14.529 98.4423 22.5883 95.5876 30.472C95.4924 30.736 95.9172 30.8497 96.0139 30.5871C98.8942 22.636 99.0377 14.4813 97.1506 6.28871C97.0881 6.01632 96.6632 6.13144 96.7243 6.40383Z" fill="black"/>
<path d="M96.858 5.91521C98.0659 11.4808 99.5025 17.0563 99.835 22.7638C99.958 24.6443 99.6921 26.5299 99.0534 28.3055C98.4481 30.062 97.7277 32.0136 96.5085 33.4598C96.328 33.6732 96.6392 33.9835 96.8197 33.7673C97.9223 32.4587 98.603 30.7739 99.1998 29.1929C99.8804 27.3887 100.386 25.6042 100.318 23.6708C100.105 17.6179 98.5618 11.6971 97.2829 5.80148C97.2232 5.52068 96.7983 5.64423 96.8566 5.91802L96.858 5.91521Z" fill="black"/>
<path d="M96.6023 6.73797C95.3632 13.9604 94.2832 21.4159 95.1216 28.7436C95.1529 29.0244 95.5934 29.0244 95.5621 28.7436C94.728 21.4538 95.7937 14.0376 97.0271 6.85311C97.074 6.5723 96.6506 6.46278 96.6008 6.73797L96.6023 6.73797Z" fill="black"/>
<path d="M88.4871 20.4962C89.2956 27.0953 88.7045 36.1907 82.8344 40.5741C82.5147 40.8114 82.8344 41.352 83.1513 41.1105C89.2231 36.5768 89.9578 27.362 89.1194 20.4962C89.0711 20.1045 88.4416 20.0989 88.4899 20.4962L88.4871 20.4962Z" fill="black"/>
<path d="M83.3076 40.5699C82.7369 37.0537 82.9333 33.4575 83.8837 30.0224C84.8341 26.5873 86.5164 23.3925 88.8181 20.6521C89.0753 20.346 88.632 19.9051 88.3734 20.2126C85.9981 23.034 84.2626 26.3258 83.2841 29.8661C82.3055 33.4064 82.1067 37.1129 82.7008 40.7356C82.7662 41.1301 83.3729 40.963 83.3076 40.5699Z" fill="black"/>
<path d="M88.0266 21.4229C87.9812 27.9854 87.4739 34.8498 82.8785 40.0139C82.6923 40.2245 83.0021 40.5334 83.1896 40.3214C87.8661 35.0674 88.4203 28.1062 88.4672 21.4229C88.4672 21.3652 88.4439 21.3098 88.4026 21.269C88.3613 21.2282 88.3053 21.2053 88.2469 21.2053C88.1885 21.2053 88.1325 21.2282 88.0912 21.269C88.0499 21.3098 88.0266 21.3652 88.0266 21.4229Z" fill="black"/>
<path d="M87.741 21.7514C86.4663 26.592 84.7499 31.3083 82.6127 35.8425C82.4933 36.0952 82.8727 36.3156 82.9921 36.0615C85.1476 31.4953 86.8788 26.7451 88.1644 21.8694C88.2369 21.5984 87.812 21.4819 87.7381 21.7528L87.741 21.7514Z" fill="black"/>
<path d="M87.7538 21.795C87.6856 24.6171 87.1328 27.4364 86.455 30.1729C85.7687 32.9459 85.034 36.1836 82.8173 38.176C82.607 38.3655 82.9196 38.6716 83.1285 38.4835C85.3182 36.5178 86.0912 33.391 86.7903 30.6545C87.5264 27.7706 88.1218 24.7814 88.1929 21.8006C88.2 21.5198 87.7666 21.5198 87.7538 21.8006L87.7538 21.795Z" fill="black"/>
<path d="M89.1847 17.3484C86.5586 20.9221 82.8662 23.5939 78.6254 24.9892C76.4556 25.6996 74.2361 25.9875 71.9568 26.0478C69.6364 26.1096 67.3344 26.104 65.1219 26.8903C64.7454 27.0307 64.9073 27.6274 65.2896 27.4898C67.9667 26.5336 70.7745 26.7878 73.5625 26.5982C75.7298 26.4509 77.8617 25.9774 79.8844 25.1942C83.8279 23.6653 87.2442 21.0498 89.7275 17.6587C89.9648 17.3343 89.4206 17.024 89.1847 17.3442L89.1847 17.3484Z" fill="black"/>
<path d="M89.0568 17.281C84.3804 17.0367 79.4439 16.8008 75.0303 18.626C70.9848 20.3011 67.5574 23.2313 65.0906 26.7892C64.8604 27.1191 65.4061 27.4308 65.6335 27.1023C68.0889 23.5627 71.5916 20.5833 75.6769 19.036C79.9228 17.4284 84.602 17.6699 89.0568 17.9015C89.4618 17.9226 89.4603 17.302 89.0568 17.281Z" fill="black"/>
<path d="M88.5481 17.4298C81.645 20.9708 74.1962 24.7463 66.3467 25.489C66.0626 25.5157 66.0626 25.951 66.3467 25.9243C74.2815 25.1731 81.797 21.3836 88.7697 17.8047C89.0212 17.6755 88.7996 17.3006 88.5481 17.4298Z" fill="black"/>
<path d="M89.0327 17.6629C86.9225 20.0189 83.4909 21.3892 80.6177 22.6248C77.5981 23.9249 74.4947 25.0257 71.3714 26.0577C71.1042 26.1461 71.2194 26.5659 71.4893 26.4789C74.6482 25.4343 77.7857 24.3167 80.8394 23.0011C83.7524 21.7473 87.1968 20.3699 89.3453 17.9718C89.5314 17.764 89.2217 17.4551 89.0327 17.6643L89.0327 17.6629Z" fill="black"/>
<path d="M87.8376 17.4691C80.6475 18.6106 74.2616 22.6346 67.1851 24.2577C66.9095 24.3209 67.026 24.7407 67.3017 24.6789C74.3795 23.0558 80.7654 19.0318 87.9541 17.8903C88.2383 17.8468 88.1147 17.427 87.8376 17.4691Z" fill="black"/>
<path d="M83.1882 17.4495C78.9651 19.0234 74.6013 20.2028 70.2758 21.4636C70.0044 21.5422 70.1195 21.9621 70.3924 21.8848C74.7192 20.6212 79.0816 19.4446 83.3047 17.8707C83.5676 17.7724 83.4469 17.3526 83.1882 17.4495Z" fill="black"/>
<path d="M78.2134 30.2263C78.6752 33.8417 78.283 37.6368 77.2314 41.1245C76.1742 44.6346 73.0382 46.8628 70.0797 48.7836C69.7429 49.0026 70.0584 49.5403 70.398 49.3199C73.2598 47.4624 76.3462 45.3029 77.5981 42.009C78.9721 38.3964 79.3288 34.0312 78.8428 30.2263C78.7917 29.8345 78.1622 29.8303 78.2134 30.2263Z" fill="black"/>
<path d="M78.2161 29.9258C76.6531 31.4871 74.6779 32.578 73.193 34.2208C72.1816 35.3502 71.3724 36.6417 70.8001 38.0398C69.3436 41.5499 69.3266 45.4363 69.8637 49.1318C69.9205 49.5263 70.5273 49.3592 70.4704 48.9675C69.939 45.3057 69.9773 41.3997 71.5106 37.9598C72.131 36.5496 73.0092 35.2645 74.101 34.1688C75.5092 32.7648 77.2542 31.7637 78.6609 30.3596C78.9451 30.0788 78.5018 29.6352 78.2161 29.9202L78.2161 29.9258Z" fill="black"/>
<path d="M65.7443 36.1612C63.87 39.8426 61.8593 43.7894 58.3467 46.2113C54.6038 48.7934 49.8691 49.0012 45.4641 48.8706C45.0591 48.858 45.0591 49.48 45.4641 49.4926C49.9728 49.626 54.834 49.3845 58.6635 46.7491C62.2785 44.2597 64.3588 40.2624 66.2871 36.4757C66.4689 36.1191 65.9262 35.8032 65.7443 36.1612Z" fill="black"/>
<path d="M65.8026 35.9829C57.7769 37.978 50.3054 42.419 45.2084 48.9155C44.964 49.2287 45.4059 49.6709 45.6531 49.3564C50.6905 42.9343 58.0369 38.5537 65.9731 36.5796C66.3653 36.4827 66.199 35.8776 65.8054 35.9801L65.8026 35.9829Z" fill="black"/>
<path d="M73.3381 32.2902C69.0041 34.5198 62.9649 35.1924 58.4036 33.259C56.7325 32.557 55.2945 31.4337 53.7471 30.5057C51.7432 29.3251 49.5468 28.4979 47.2561 28.0612C46.861 27.984 46.6877 28.5821 47.0884 28.6608C49.6075 29.1554 52.0088 30.1178 54.1649 31.4969C55.8033 32.5345 57.3734 33.6423 59.2477 34.2292C63.836 35.6684 69.4148 35.0085 73.6564 32.8252C74.0145 32.6398 73.6976 32.1035 73.3381 32.2874L73.3381 32.2902Z" fill="black"/>
<path d="M73.9875 32.0249C73.1704 31.0055 71.6613 30.4425 70.4933 29.9525C68.1513 28.9888 65.7257 28.2369 63.2463 27.706C58.0839 26.5631 52.1698 25.9046 47.1282 27.8787C46.7559 28.0191 46.9179 28.6257 47.2959 28.4782C52.2338 26.5435 58.0228 27.1865 63.0787 28.3055C65.3594 28.7963 67.5959 29.4702 69.7657 30.3203C70.9963 30.8104 72.683 31.3902 73.5413 32.4615C73.7928 32.7746 74.2347 32.3323 73.9861 32.022L73.9875 32.0249Z" fill="black"/>
<path d="M49.9872 39.0718C43.4777 46.4528 32.8346 45.9516 24.097 43.6209C23.7048 43.517 23.5386 44.1165 23.9293 44.2204C32.8815 46.6073 43.7789 47.0552 50.4319 39.5112C50.6977 39.2108 50.2543 38.7699 49.9872 39.0718Z" fill="black"/>
<path d="M50.1775 39.0451C44.8346 38.5214 39.4392 38.5663 34.0807 38.7938C30.1446 38.9595 25.8831 40.0855 23.699 43.6434C23.4887 43.9859 24.0315 44.299 24.2419 43.9565C26.6717 39.9999 31.4647 39.4775 35.685 39.3652C40.5248 39.236 45.3476 39.1939 50.1789 39.6671C50.5825 39.7064 50.5796 39.0844 50.1789 39.0451L50.1775 39.0451Z" fill="black"/>
<path d="M55.2135 38.1409C52.5051 30.7921 43.921 29.5032 37.025 29.155C36.62 29.1339 36.6214 29.7559 37.025 29.7756C43.5913 30.1084 52.0035 31.2555 54.6039 38.3066C54.746 38.6787 55.3485 38.5186 55.2092 38.1409L55.2135 38.1409Z" fill="black"/>
<path d="M54.8937 38.0426C50.4176 37.634 45.7483 36.6975 42.1447 33.874C40.3415 32.4601 38.9873 30.5043 37.0292 29.2814C36.6853 29.068 36.3699 29.6043 36.7123 29.8177C38.8154 31.1235 40.2534 33.2815 42.2541 34.7319C45.8961 37.3729 50.4802 38.2574 54.8894 38.6632C55.2916 38.6997 55.2887 38.0791 54.8894 38.0426L54.8937 38.0426Z" fill="black"/>
<path d="M30.8836 35.608C28.5603 36.3942 26.1673 37.2086 23.6877 37.2619C22.0025 37.2984 20.6781 36.8857 19.1733 36.2398C16.5687 35.1236 14.0578 33.7911 11.402 32.776C11.024 32.6356 10.8606 33.2323 11.2343 33.3756C14.109 34.4763 16.8202 35.9632 19.6721 37.1187C23.4519 38.6505 27.3567 37.4571 31.0512 36.2075C31.4321 36.0797 31.2687 35.4788 30.8836 35.608Z" fill="black"/>
<path d="M30.8792 35.3876C24.8071 32.5465 18.0014 31.6064 11.3735 32.6932C10.9756 32.7592 11.1447 33.3587 11.5412 33.2927C18.0048 32.2392 24.64 33.157 30.5624 35.9239C30.9261 36.0938 31.2458 35.5589 30.8792 35.3876Z" fill="black"/>
<path d="M35.7959 36.8337C34.4943 32.3001 33.2211 25.1394 27.4121 24.2703C27.0157 24.2113 26.8437 24.8095 27.2444 24.8698C32.7962 25.6996 33.9415 32.6525 35.1891 36.9994C35.3 37.3827 35.9067 37.2198 35.7959 36.8337Z" fill="black"/>
<path d="M35.533 36.7032C31.2531 34.2124 28.1141 29.5874 27.6466 24.6733C27.6097 24.2787 26.9802 24.2745 27.0171 24.6733C27.5074 29.8107 30.7316 34.6294 35.2162 37.2395C35.5657 37.4431 35.8826 36.9067 35.533 36.7032Z" fill="black"/>
<path d="M22.8778 31.0687C22.867 26.7122 21.5204 22.4612 19.0156 18.876C18.7868 18.5488 18.2411 18.8591 18.4713 19.1905C20.9192 22.6802 22.2359 26.8227 22.2469 31.0687C22.2469 31.4689 22.8778 31.4689 22.8764 31.0687L22.8778 31.0687Z" fill="black"/>
<path d="M22.3747 30.7135C18.44 28.175 17.0105 23.3759 18.8223 19.1062C18.9786 18.737 18.3704 18.5769 18.2155 18.9406C17.2821 21.1097 17.1552 23.5352 17.8573 25.788C18.5595 28.0407 20.0454 29.9754 22.0522 31.2498C22.3932 31.4689 22.7087 30.9311 22.3705 30.7135L22.3747 30.7135Z" fill="black"/>
<path d="M16.057 27.1823C11.9945 27.8984 7.56673 26.7316 4.46047 24.0331C4.15781 23.7691 3.71161 24.2072 4.01569 24.4725C7.30241 27.3283 11.9263 28.5442 16.2247 27.7818C16.6226 27.7116 16.4535 27.1121 16.057 27.1823Z" fill="black"/>
<path d="M16.2035 26.931C14.5403 25.6328 12.6194 24.6947 10.5655 24.1775C8.51161 23.6604 6.37064 23.5758 4.2815 23.9291C3.88363 23.9951 4.05272 24.5947 4.44917 24.5287C6.43063 24.1976 8.46023 24.2794 10.4078 24.7688C12.3554 25.2582 14.178 26.1443 15.7587 27.3705C16.0742 27.6148 16.5218 27.1767 16.2035 26.931Z" fill="black"/>
<path d="M11.8737 21.7683C12.1977 18.32 11.5441 14.6582 9.12414 12.0285C8.85131 11.7322 8.41368 12.1689 8.6794 12.4679C10.9871 14.9755 11.5526 18.4927 11.2443 21.7683C11.2073 22.1657 11.8368 22.1643 11.8737 21.7683Z" fill="black"/>
<path d="M11.7018 21.5675C9.42824 19.2129 8.27298 15.7197 9.16108 12.5325C9.26908 12.1464 8.66231 11.9821 8.55574 12.3668C7.60511 15.7688 8.83141 19.4923 11.2556 22.007C11.5398 22.2976 11.9789 21.8581 11.7004 21.5675L11.7018 21.5675Z" fill="black"/>
<path d="M78.0997 30.684C75.7709 36.6987 73.1218 42.5876 70.1635 48.3258C70.0356 48.5743 70.415 48.7948 70.5429 48.5449C73.5157 42.7726 76.1776 36.8491 78.5174 30.7991C78.6183 30.538 78.1935 30.4242 78.0912 30.684L78.0997 30.684Z" fill="black"/>
<path d="M78.2503 30.5324C77.5157 33.5553 76.845 36.6035 75.9967 39.5969C75.2066 42.3839 74.2062 46.1468 71.5519 47.7628C71.3103 47.9032 71.532 48.2865 71.7735 48.1391C74.1991 46.662 75.2308 43.5395 76.0365 40.9925C77.1107 37.6045 77.834 34.0972 78.6738 30.6475C78.7406 30.3751 78.3157 30.2586 78.2475 30.5324L78.2503 30.5324Z" fill="black"/>
<path d="M77.986 31.8606C78.3142 36.4406 76.4158 40.7609 75.002 45.0235C74.9139 45.2903 75.3387 45.4054 75.4283 45.1401C76.8563 40.8367 78.7605 36.4813 78.4279 31.8606C78.408 31.5798 77.9675 31.5798 77.9889 31.8606L77.986 31.8606Z" fill="black"/>
<path d="M77.7273 30.757C74.337 35.772 71.6174 41.1992 69.6363 46.9035C69.5439 47.1675 69.9702 47.2826 70.0626 47.0187C72.034 41.3525 74.7387 35.9622 78.1095 30.9816C78.2673 30.7486 77.8865 30.5295 77.7287 30.7626L77.7273 30.757Z" fill="black"/>
<path d="M76.7441 31.6921C73.8657 34.5409 71.5638 37.9062 69.9618 41.6075C69.8524 41.8616 70.2318 42.0835 70.3427 41.8265C71.9273 38.1581 74.2061 34.8223 77.0568 31.9982C77.0772 31.9779 77.0934 31.9539 77.1044 31.9274C77.1154 31.9009 77.1211 31.8726 77.121 31.844C77.1209 31.8153 77.1152 31.787 77.104 31.7606C77.0929 31.7342 77.0766 31.7102 77.0561 31.69C77.0355 31.6698 77.0112 31.6538 76.9844 31.6429C76.9576 31.632 76.9289 31.6265 76.9 31.6265C76.871 31.6266 76.8423 31.6323 76.8156 31.6433C76.7888 31.6543 76.7646 31.6704 76.7441 31.6907L76.7441 31.6921Z" fill="black"/>
<path d="M65.0552 36.3142C62.1606 38.6674 59.2761 41.0346 56.3659 43.371C53.5922 45.5978 50.4703 48.462 46.7942 48.9661C46.51 49.004 46.6337 49.4238 46.9122 49.3873C50.3992 48.9099 53.3065 46.3602 55.9552 44.2569C59.1212 41.7479 62.2331 39.1701 65.3678 36.6245C65.5866 36.4462 65.2726 36.1401 65.0552 36.3156L65.0552 36.3142Z" fill="black"/>
<path d="M63.6214 37.3869C61.447 39.2078 59.4642 41.2409 57.703 43.4552C55.8856 45.748 53.9787 48.323 50.8554 48.813C50.5712 48.8566 50.6948 49.2764 50.9733 49.2343C53.7513 48.7976 55.7066 46.6999 57.3506 44.6135C59.34 42.0862 61.4715 39.7682 63.9326 37.6958C64.1486 37.5147 63.8359 37.2072 63.6214 37.3883L63.6214 37.3869Z" fill="black"/>
<path d="M64.7269 36.6849L60.3091 42.9484C58.9734 44.841 57.6618 46.8165 55.4778 47.8302C55.2206 47.9482 55.4436 48.3245 55.6994 48.2051C57.649 47.3009 58.935 45.6371 60.1442 43.9354C61.8053 41.5977 63.4509 39.2487 65.1049 36.9053C65.2669 36.6751 64.886 36.4575 64.724 36.6849L64.7269 36.6849Z" fill="black"/>
<path d="M63.6413 37.0106C57.2668 40.3803 51.4905 44.6894 45.7469 49.0012C45.5238 49.1683 45.7469 49.546 45.97 49.3761C51.7136 45.0657 57.4884 40.7594 63.8643 37.3869C64.1144 37.2549 63.8914 36.8787 63.6413 37.0106Z" fill="black"/>
<path d="M73.4019 31.9364C69.6861 32.1793 65.9873 31.4464 62.4846 30.2516C59.2987 29.1606 56.282 27.6681 52.9839 26.9001C52.7083 26.8355 52.5903 27.2553 52.8674 27.3213C56.2991 28.1216 59.4309 29.7082 62.7617 30.8062C66.1862 31.9294 69.7855 32.6146 73.4019 32.3787C73.6861 32.3604 73.6861 31.9252 73.4019 31.9434L73.4019 31.9364Z" fill="black"/>
<path d="M73.3422 32.2004C68.6772 32.644 63.9794 31.7525 59.4962 30.5155C55.6497 29.4569 51.796 28.0163 47.7434 28.1286C47.4592 28.1371 47.4592 28.5723 47.7434 28.5639C52.0432 28.4459 56.0973 30.0971 60.1911 31.1529C64.4697 32.2579 68.9088 33.054 73.3422 32.6328C73.6264 32.6061 73.6264 32.1709 73.3422 32.1976L73.3422 32.2004Z" fill="black"/>
<path d="M72.6445 32.5682C66.4775 33.2366 60.4241 32.1021 54.3864 30.9536C54.1093 30.9016 53.99 31.3214 54.2685 31.3748C60.3417 32.5303 66.4377 33.6774 72.6445 33.0049C72.9287 32.9754 72.9287 32.5401 72.6445 32.5696L72.6445 32.5682Z" fill="black"/>
<path d="M70.9507 33.4837C66.2075 33.5707 61.4785 33.4486 56.8177 32.4896C56.5421 32.432 56.4227 32.8518 56.7012 32.9108C61.3989 33.8768 66.1677 34.0074 70.9507 33.9203C71.2349 33.9203 71.2349 33.4809 70.9507 33.4851L70.9507 33.4837Z" fill="black"/>
<path d="M73.2712 31.7188C68.5607 30.8342 64.0533 29.6871 59.762 27.5165C59.5105 27.3887 59.2874 27.7636 59.5389 27.8914C63.8615 30.0775 68.4072 31.247 73.1532 32.1386C73.4303 32.1906 73.5497 31.7721 73.2712 31.7174L73.2712 31.7188Z" fill="black"/>
<path d="M54.503 37.7604C49.8768 34.5594 44.6881 32.2368 39.202 30.9115C38.9263 30.8455 38.8098 31.2639 39.0855 31.3327C44.5341 32.6495 49.6871 34.9568 54.2813 38.1367C54.5144 38.2981 54.7346 37.9205 54.503 37.7618L54.503 37.7604Z" fill="black"/>
<path d="M54.557 37.7295C50.6102 36.0931 46.5099 34.845 42.3153 34.0032C42.0383 33.9456 41.9203 34.3654 42.1974 34.4244C46.3554 35.2572 50.4209 36.4907 54.3354 38.1072C54.5926 38.2153 54.8171 37.8404 54.557 37.7323L54.557 37.7295Z" fill="black"/>
<path d="M54.1279 37.9485C51.0813 36.5613 47.6652 35.9099 44.3743 35.3721C44.0972 35.3272 43.9778 35.7456 44.2563 35.7933C47.5047 36.3241 50.8994 36.9559 53.9062 38.3206C54.162 38.4372 54.3851 38.0623 54.1279 37.9443L54.1279 37.9485Z" fill="black"/>
<path d="M54.8427 37.5877C50.8639 34.2545 46.3481 31.504 41.4401 29.725C41.1743 29.6282 41.0592 30.0494 41.3235 30.1463C46.1548 31.9027 50.6096 34.6209 54.5315 37.9022C54.746 38.0819 55.0586 37.7758 54.8427 37.5947L54.8427 37.5877Z" fill="black"/>
<path d="M49.315 39.1125C45.1799 40.3523 41.1259 41.9065 36.89 42.7967C32.762 43.663 28.5176 43.6798 24.3158 43.5774C24.0316 43.5774 24.0316 43.9986 24.3158 44.0112C28.4011 44.1123 32.5332 44.1025 36.5546 43.3092C40.9596 42.4401 45.1501 40.817 49.4315 39.5337C49.7029 39.4523 49.5878 39.0325 49.315 39.1125Z" fill="black"/>
<path d="M48.8191 39.3722C45.6858 40.3944 42.8197 42.0399 39.7249 43.1632C36.4872 44.345 33.0426 44.8735 29.5947 44.7175C29.3105 44.7034 29.3105 45.1387 29.5947 45.1527C32.9313 45.3025 36.2662 44.8202 39.4194 43.7318C42.6734 42.6086 45.6589 40.8647 48.9328 39.8005C49.1999 39.7134 49.0862 39.2922 48.8162 39.3793L48.8191 39.3722Z" fill="black"/>
<path d="M49.5765 39.1378C47.5405 40.5014 45.4152 41.7303 43.2148 42.8164C40.873 43.9859 38.4659 45.0263 35.8143 45.2032C35.5301 45.2229 35.5301 45.6582 35.8143 45.6385C38.2598 45.4742 40.5036 44.6107 42.6876 43.5591C45.1548 42.3832 47.5318 41.0308 49.7995 39.5126C50.0312 39.3554 49.8109 38.9777 49.5765 39.1364L49.5765 39.1378Z" fill="black"/>
<path d="M41.1202 41.7282C35.6439 42.6206 30.0942 42.9967 24.5459 42.8515C24.2617 42.8515 24.2617 43.2727 24.5459 43.2867C30.1341 43.4277 35.7232 43.0446 41.2381 42.1424C41.5223 42.0975 41.3987 41.6777 41.1202 41.7212L41.1202 41.7282Z" fill="black"/>
<path d="M45.2041 40.3958C41.4826 40.4141 37.7639 40.5825 34.0523 40.8339C30.9802 41.0417 27.783 41.1147 24.9325 42.3952C24.6753 42.5103 24.8984 42.8852 25.1556 42.77C28.1936 41.4053 31.712 41.4165 34.9845 41.2073C38.3863 40.9911 41.7938 40.8479 45.2041 40.8311C45.2625 40.8311 45.3186 40.8081 45.3599 40.7673C45.4012 40.7265 45.4244 40.6711 45.4244 40.6134C45.4244 40.5557 45.4012 40.5004 45.3599 40.4595C45.3186 40.4187 45.2625 40.3958 45.2041 40.3958Z" fill="black"/>
<path d="M47.6013 39.4705C40.5888 39.58 33.4399 39.1041 26.595 40.9336C26.567 40.9411 26.5408 40.9541 26.5179 40.9716C26.4949 40.9892 26.4757 41.011 26.4613 41.0359C26.447 41.0608 26.4377 41.0883 26.434 41.1168C26.4304 41.1452 26.4325 41.1741 26.4401 41.2017C26.4478 41.2294 26.4608 41.2553 26.4786 41.2779C26.4964 41.3006 26.5185 41.3196 26.5437 41.3338C26.5689 41.348 26.5967 41.3572 26.6255 41.3608C26.6543 41.3644 26.6835 41.3623 26.7115 41.3548C33.518 39.5295 40.6285 40.0167 47.5998 39.9072C47.884 39.9072 47.884 39.4677 47.5998 39.4719L47.6013 39.4705Z" fill="black"/>
<path d="M30.2924 35.4873C24.7151 35.4058 19.2088 34.9088 13.7366 33.8024C13.4524 33.7462 13.3416 34.166 13.6187 34.2236C19.1264 35.337 24.6753 35.8411 30.2924 35.9239C30.5766 35.9239 30.5766 35.4929 30.2924 35.4887L30.2924 35.4873Z" fill="black"/>
<path d="M29.7482 35.6487C25.4724 36.6035 21.2976 36.0236 17.0347 35.3159C16.7505 35.271 16.6382 35.6894 16.9182 35.7372C21.2564 36.4574 25.5137 37.0415 29.8647 36.0685C30.1418 36.0067 30.0238 35.5883 29.7482 35.6473L29.7482 35.6487Z" fill="black"/>
<path d="M29.8732 35.4325C24.0472 33.8656 18.0408 32.9712 11.9903 33.0975C11.7061 33.0975 11.7061 33.5384 11.9903 33.5328C18.0038 33.4065 23.962 34.2952 29.7524 35.8523C29.809 35.8676 29.8693 35.86 29.9202 35.8313C29.9711 35.8026 30.0084 35.7551 30.0238 35.6992C30.0393 35.6434 30.0316 35.5838 30.0026 35.5335C29.9736 35.4832 29.9255 35.4463 29.8689 35.4311L29.8732 35.4325Z" fill="black"/>
<path d="M28.5389 35.8214C25.8846 36.5557 23.027 36.9615 20.2746 36.6498C19.9904 36.6189 19.9904 37.0542 20.2746 37.0851C23.0568 37.3996 25.9727 36.9826 28.6583 36.2426C28.6863 36.235 28.7125 36.222 28.7354 36.2043C28.7583 36.1866 28.7774 36.1647 28.7917 36.1397C28.8207 36.0893 28.8281 36.0296 28.8125 35.9738C28.7968 35.9179 28.7594 35.8705 28.7083 35.8419C28.6573 35.8133 28.5969 35.806 28.5404 35.8214L28.5389 35.8214Z" fill="black"/>
<path d="M35.1508 36.1921C33.5138 34.9284 32.2932 32.7662 31.118 31.0912C29.9813 29.4723 28.1823 27.4744 27.8271 25.4975C27.7773 25.2166 27.3525 25.3388 27.4008 25.6126C27.7717 27.6709 29.5592 29.6338 30.7358 31.3102C31.9422 33.0302 33.1515 35.1924 34.8368 36.5052C35.0584 36.6765 35.371 36.3648 35.1494 36.1977L35.1508 36.1921Z" fill="black"/>
<path d="M35.1876 36.143C33.0874 32.1948 32.0614 26.8018 27.4958 24.7477C27.2401 24.6326 27.017 25.0075 27.2742 25.1226C31.7602 27.1444 32.7378 32.4728 34.8053 36.3634C34.9375 36.6105 35.3183 36.3915 35.1862 36.143L35.1876 36.143Z" fill="black"/>
<path d="M34.5795 35.806C33.6119 33.8979 32.5902 32.015 31.4363 30.2038C30.3308 28.4811 29.0108 27.0349 27.5884 25.5705C27.3908 25.3669 27.0811 25.6758 27.2771 25.878C28.7677 27.4224 30.1319 28.95 31.2715 30.7683C32.3372 32.4714 33.2922 34.2405 34.1987 36.0306C34.3266 36.2805 34.706 36.0601 34.5795 35.8102L34.5795 35.806Z" fill="black"/>
<path d="M15.7601 27.1711C12.4919 25.767 9.2151 24.5736 5.68681 23.9418C5.40972 23.8926 5.29177 24.3125 5.57028 24.363C9.06019 24.9808 12.2972 26.1489 15.5384 27.5404C15.7956 27.6513 16.0202 27.2764 15.7601 27.1655L15.7601 27.1711Z" fill="black"/>
<path d="M15.1675 27.0068C11.6288 26.3547 8.14543 25.4376 4.74754 24.2633C4.4804 24.1706 4.36529 24.5918 4.63101 24.6845C8.0291 25.8582 11.5125 26.7753 15.051 27.428C15.3281 27.48 15.446 27.0601 15.1675 27.0068Z" fill="black"/>
<path d="M22.2881 30.4706C20.7274 27.0717 19.4588 23.5492 18.4955 19.9402C18.4244 19.6707 17.9996 19.7858 18.0692 20.0568C19.044 23.7006 20.3274 27.257 21.9058 30.6882C22.0223 30.9423 22.4017 30.7219 22.2852 30.4678L22.2881 30.4706Z" fill="black"/>
<path d="M21.775 30.0072C19.9945 27.699 19.0752 25.1324 18.2098 22.3945C18.1246 22.1277 17.6997 22.2415 17.7835 22.5097C18.6631 25.2911 19.5825 27.8801 21.3928 30.2319C21.5633 30.4523 21.9455 30.2319 21.7736 30.0129L21.775 30.0072Z" fill="black"/>
<path d="M22.2653 30.2558C21.4355 26.6768 20.7662 22.5855 18.9729 19.3154C18.8309 19.0697 18.4571 19.2888 18.5921 19.5359C19.3026 20.8374 19.7374 22.3201 20.1453 23.748C20.7747 25.9411 21.3261 28.1567 21.8405 30.3779C21.9044 30.6587 22.3279 30.5352 22.2668 30.2628L22.2653 30.2558Z" fill="black"/>
<path d="M11.7317 20.9189C10.6844 18.2048 9.91281 15.4038 9.09291 12.6167C9.01333 12.3486 8.58846 12.4637 8.66661 12.7333C9.48652 15.5189 10.2581 18.3214 11.3054 21.034C11.4063 21.2937 11.8326 21.1744 11.7317 20.9189Z" fill="black"/>
<path d="M11.4631 21.1562C10.44 19.015 9.78782 16.7236 8.76329 14.5824C8.64251 14.3297 8.26309 14.5501 8.38387 14.8028C9.40697 16.944 10.0592 19.2354 11.0837 21.3766C11.2045 21.6293 11.5853 21.4089 11.4646 21.1562L11.4631 21.1562Z" fill="black"/>
<path d="M11.6293 18.3467C10.8137 16.8303 10.2083 15.2577 10.1685 13.5294C10.1614 13.2486 9.72092 13.2486 9.72802 13.5294C9.77349 15.3336 10.3987 16.9875 11.2499 18.5657C11.3835 18.8128 11.7629 18.5938 11.6293 18.3467Z" fill="black"/>
</svg>
