<svg width="110" height="106" viewBox="0 0 110 106" fill="none" xmlns="http://www.w3.org/2000/svg">
<path d="M87.982 102.767C86.708 101.4 85.5084 99.9656 84.3884 98.47L84.3884 105.167L82.7998 103.579L82.7998 96.2452C81.7377 94.6692 80.7637 93.0356 79.8822 91.3518C79.8305 91.3364 79.7825 91.3106 79.7411 91.2759C79.6997 91.2413 79.6658 91.1985 79.6415 91.1503C79.6172 91.1021 79.603 91.0495 79.5998 90.9956C79.5966 90.9417 79.6043 90.8877 79.6227 90.837C78.6794 88.988 77.8477 87.0842 77.1321 85.1357C76.2418 84.9163 75.3726 84.6186 74.5347 84.2462C70.4806 85.9143 66.8368 82.9276 65.8635 78.995C65.8496 78.9412 65.8511 78.8847 65.8677 78.8317C65.4408 78.7438 65.6145 78.0929 66.0456 78.1724C68.1072 78.5973 69.8967 78.0176 71.7887 79.2357C73.3982 80.2675 74.3401 81.9042 74.9324 83.6728C75.5669 83.951 76.2201 84.1846 76.8872 84.3718C76.0803 82.0601 75.4389 79.694 74.9679 77.2913C74.8785 77.2799 74.7939 77.2445 74.7231 77.1888L70.7778 73.9426C70.428 74.2849 69.9648 74.4871 69.4759 74.511C68.987 74.5348 68.5063 74.3786 68.1248 74.0719C67.7433 73.7653 67.4875 73.3294 67.4057 72.8468C67.3239 72.3642 67.4218 71.8684 67.6809 71.4531C67.94 71.0379 68.3424 70.732 68.8118 70.5934C69.2813 70.4548 69.7852 70.4931 70.2284 70.701C70.6715 70.9089 71.023 71.2721 71.2164 71.7217C71.4099 72.1713 71.4318 72.6763 71.278 73.1409L74.7252 75.9727C74.4209 74.1823 74.2113 72.377 74.0973 70.5645C73.6517 70.5147 73.2362 70.315 72.9191 69.998C72.6019 69.6811 72.4019 69.2658 72.3519 68.8202C72.3018 68.3746 72.4047 67.9253 72.6436 67.5459C72.8826 67.1665 73.2434 66.8795 73.6668 66.7322C74.0903 66.5848 74.5512 66.5857 74.9741 66.7348C75.397 66.8838 75.7566 67.1722 75.994 67.5526C76.2315 67.9329 76.3325 68.3826 76.2807 68.828C76.2289 69.2734 76.0272 69.6879 75.7088 70.0036C75.5157 70.195 75.2857 70.3453 75.0328 70.4452C75.1082 71.701 75.2275 72.9547 75.3949 74.1937C76.2809 73.3579 77.1942 72.5521 78.1346 71.7763C77.909 71.3488 77.8479 70.8534 77.9627 70.3839C78.0775 69.9143 78.3604 69.5031 78.7579 69.2279C79.1553 68.9528 79.6398 68.8328 80.1197 68.8906C80.5996 68.9484 81.0418 69.18 81.3625 69.5416C81.6833 69.9033 81.8604 70.3699 81.8605 70.8533C81.8606 71.3367 81.6835 71.8034 81.3629 72.1652C81.0422 72.5269 80.6002 72.7586 80.1203 72.8166C79.6403 72.8745 79.1558 72.7546 78.7583 72.4796C77.6595 73.3858 76.5921 74.3277 75.5686 75.3176C76.3528 80.2777 77.8693 85.0939 80.0685 89.6084C80.8634 87.3403 81.7794 85.1165 82.8124 82.9465L82.8145 67.7746C80.5701 63.812 78.6804 59.6587 77.1676 55.3633C77.1239 55.348 77.0834 55.3246 77.0484 55.2942L74.7817 53.2871C74.7633 53.299 74.7436 53.3088 74.7231 53.3164C70.9515 54.2038 68.2725 50.9764 68.2642 47.4268C68.2642 47.4268 68.2642 47.4268 68.2788 47.4121C68.2455 47.3568 68.2297 47.2927 68.2336 47.2282C68.2374 47.1637 68.2607 47.1019 68.3003 47.051C68.34 47 68.3942 46.9622 68.4557 46.9426C68.5172 46.923 68.5833 46.9225 68.6451 46.9412C70.3781 47.5691 72.538 48.0421 73.9717 49.2623C75.104 50.223 75.3007 51.5122 75.3949 52.9082L75.3803 52.9229L76.7344 54.1222C76.1833 52.4408 75.7033 50.7455 75.2944 49.0363C75.2733 48.9858 75.2619 48.9318 75.2609 48.8772C75.0768 48.107 74.9107 47.334 74.7628 46.5582C74.7287 46.5326 74.6985 46.5023 74.6728 46.4682C73.69 45.1816 72.5847 43.9935 71.3722 42.9206C71.3304 42.9625 71.2906 43.0022 71.2467 43.0462C70.8956 43.3565 70.4447 43.5303 69.9761 43.5359C69.5076 43.5415 69.0527 43.3785 68.6943 43.0767C68.3359 42.7748 68.098 42.3542 68.0239 41.8915C67.9498 41.4289 68.0444 40.955 68.2906 40.5563C68.5367 40.1576 68.918 39.8606 69.3648 39.7196C69.8116 39.5786 70.2943 39.6028 70.7247 39.788C71.1552 39.9731 71.5047 40.3068 71.7096 40.7282C71.9146 41.1495 71.9612 41.6305 71.8411 42.0834C72.7622 42.8923 73.6266 43.7636 74.4279 44.6913C74.1824 43.1341 74.0052 41.5741 73.8963 40.0114C73.8973 39.9817 73.9015 39.9522 73.9089 39.9235C73.4429 39.8563 73.0178 39.6204 72.7143 39.2604C72.4108 38.9005 72.25 38.4416 72.2626 37.971C72.2751 37.5003 72.4601 37.0506 72.7823 36.7074C73.1046 36.3641 73.5417 36.1511 74.0106 36.1089C74.4795 36.0667 74.9476 36.1981 75.326 36.4783C75.7044 36.7585 75.9667 37.1679 76.0631 37.6287C76.1596 38.0896 76.0834 38.5698 75.8491 38.9781C75.6148 39.3865 75.2386 39.6946 74.7921 39.8439C74.8175 39.8965 74.8331 39.9532 74.8382 40.0114C75.001 42.3491 75.3199 44.6732 75.7926 46.9684C76.1798 45.8304 76.6695 44.7299 77.2556 43.6804L77.2242 43.649C76.9017 43.293 76.7201 42.8316 76.7133 42.3513C76.7066 41.8711 76.8752 41.4048 77.1875 41.0399C77.4998 40.6749 77.9345 40.4364 78.41 40.3689C78.8856 40.3014 79.3694 40.4096 79.7709 40.6733C80.1725 40.9369 80.4641 41.3378 80.5912 41.801C80.7184 42.2642 80.6723 42.7579 80.4616 43.1896C80.2509 43.6212 79.8901 43.9612 79.4467 44.146C79.0033 44.3307 78.5078 44.3475 78.053 44.1931C77.2451 45.6579 76.6282 47.2201 76.2174 48.8416C76.7861 51.2167 77.4912 53.5571 78.3293 55.851C79.2933 54.0064 80.396 52.2376 81.6278 50.5599C81.6402 50.5068 81.6631 50.4567 81.695 50.4125C81.727 50.3683 81.7675 50.3309 81.814 50.3025C82.1447 49.8462 82.4782 49.3928 82.8145 48.9421L78.3293 28.115L62.9711 22.3761C60.3817 23.3886 57.7186 24.2017 55.0052 24.8081C56.5038 25.5783 58.0149 26.3276 59.5386 27.0559L64.141 25.8943C64.0659 25.4329 64.1601 24.9598 64.4063 24.5623C64.6524 24.1648 65.0339 23.8696 65.4805 23.7311C65.927 23.5927 66.4086 23.6203 66.8365 23.8088C67.2643 23.9974 67.6096 24.3342 67.8087 24.7572C68.0078 25.1802 68.0474 25.661 67.92 26.1108C67.7927 26.5607 67.5071 26.9494 67.1158 27.2054C66.7246 27.4613 66.254 27.5672 65.7908 27.5036C65.3276 27.44 64.903 27.2111 64.5952 26.8592C64.568 26.832 64.5533 26.7964 64.5282 26.7671L60.8969 27.6859C61.3699 27.9036 61.8409 28.1275 62.3243 28.3515C62.7362 28.111 63.2215 28.0288 63.6896 28.1201C64.1577 28.2115 64.5765 28.4702 64.8677 28.8478C65.159 29.2255 65.3027 29.6963 65.2721 30.1722C65.2415 30.6481 65.0386 31.0966 64.7014 31.4339C64.3642 31.7711 63.9157 31.974 63.4397 32.0046C62.9638 32.0352 62.493 31.8915 62.1154 31.6002C61.7377 31.309 61.479 30.8902 61.3877 30.4221C61.2963 29.954 61.3786 29.4687 61.619 29.0568C60.8851 28.7191 60.1525 28.3787 59.4214 28.0355C59.3464 28.0428 59.2707 28.03 59.2023 27.9984C59.1338 27.9667 59.0751 27.9174 59.0321 27.8554C58.6909 27.6943 58.3561 27.5269 58.017 27.3594C58.252 28.2879 58.5816 29.1898 59.0007 30.051C59.4632 30.1425 59.8768 30.3989 60.1643 30.7726C60.4519 31.1462 60.5939 31.6116 60.564 32.0822C60.534 32.5527 60.3341 32.9963 60.0015 33.3305C59.6689 33.6647 59.2262 33.8666 58.7558 33.8988C58.2854 33.9309 57.8193 33.7911 57.4444 33.5052C57.0694 33.2194 56.811 32.8071 56.7173 32.345C56.6237 31.8829 56.7011 31.4025 56.9351 30.9932C57.1692 30.5839 57.544 30.2736 57.9898 30.12C57.5258 29.1005 57.1755 28.0329 56.9454 26.9366C56.9412 26.9047 56.9412 26.8723 56.9454 26.8404C54.3153 25.5441 51.7214 24.1795 49.1638 22.7465C49.2155 23.3125 49.3071 23.8741 49.438 24.4272C50.7858 24.5821 52.2216 24.9923 52.86 26.3171C53.1126 26.9502 53.222 27.6314 53.1802 28.3117C53.2032 29.9631 53.222 31.2502 53.9441 32.7593C53.9659 32.8026 53.978 32.8501 53.9794 32.8986C53.9809 32.947 53.9717 32.9952 53.9525 33.0397C53.9465 33.0847 53.9307 33.1278 53.9063 33.1661C53.8819 33.2043 53.8494 33.2367 53.8111 33.2611C53.7728 33.2854 53.7296 33.3011 53.6846 33.3069C53.6396 33.3128 53.5939 33.3087 53.5506 33.2951C50.7314 32.4809 44.2872 27.2338 48.7661 24.5297C48.5967 23.8267 48.4881 23.1103 48.4417 22.3886L33.5775 22.3886C32.0394 23.6912 30.365 24.8238 28.5836 25.7667C31.0105 27.1655 33.5237 28.4091 36.1079 29.4901C38.005 28.9119 39.9364 28.4527 41.8907 28.115C41.8166 27.6527 41.9119 27.1793 42.1592 26.7817C42.4065 26.3842 42.7891 26.0894 43.2365 25.9517C43.6839 25.8139 44.1661 25.8424 44.5942 26.032C45.0222 26.2216 45.3674 26.5594 45.566 26.9833C45.7647 27.4073 45.8036 27.8887 45.6754 28.339C45.5472 28.7892 45.2607 29.1781 44.8685 29.4338C44.4764 29.6895 44.0051 29.795 43.5413 29.7307C43.0776 29.6664 42.6527 29.4368 42.3449 29.084C42.324 29.0571 42.3044 29.0291 42.2863 29.0003C40.6796 29.2715 39.0882 29.6264 37.5185 30.0635C38.7722 30.5554 40.0384 31.0137 41.3277 31.4323C41.3277 31.4323 41.3424 31.447 41.3486 31.4533C41.4591 31.1748 41.6333 30.926 41.8572 30.727C42.1862 30.4334 42.6046 30.2593 43.0448 30.2329C43.485 30.2066 43.9212 30.3295 44.2829 30.5817C44.6446 30.834 44.9105 31.2008 45.0379 31.623C45.1652 32.0452 45.1465 32.498 44.9846 32.9082C44.8227 33.3184 44.5273 33.662 44.1459 33.8834C43.7646 34.1048 43.3197 34.1912 42.8832 34.1284C42.4467 34.0657 42.0442 33.8576 41.7406 33.5377C41.4371 33.2178 41.2503 32.8049 41.2105 32.3658C41.1675 32.3657 41.1247 32.3608 41.0828 32.3511C40.5024 32.1614 39.9268 31.9653 39.3561 31.763C39.759 32.6658 40.2306 33.5362 40.7668 34.3667C41.1357 34.2926 41.519 34.353 41.8471 34.5371C42.1753 34.7212 42.4267 35.0167 42.5558 35.3701C42.685 35.7236 42.6833 36.1116 42.551 36.4639C42.4188 36.8161 42.1648 37.1095 41.835 37.2906C41.5052 37.4718 41.1215 37.5289 40.7532 37.4516C40.3849 37.3742 40.0566 37.1676 39.8275 36.8691C39.5985 36.5705 39.4839 36.1998 39.5045 35.8241C39.5252 35.4484 39.6797 35.0925 39.9401 34.8208C39.2388 33.7277 38.6425 32.5707 38.1589 31.3653C38.1589 31.3653 38.1569 31.3423 38.1527 31.3298C37.4313 31.0605 36.7141 30.7786 36.0011 30.4842C35.9465 30.4841 35.8926 30.4725 35.8428 30.4501C35.793 30.4278 35.7486 30.3952 35.7123 30.3544C33.9737 29.6233 32.2707 28.8231 30.6034 27.9538C30.9783 28.5873 31.3158 29.2421 31.6143 29.9149C31.6707 29.912 31.7271 29.9213 31.7796 29.9421C33.7533 30.8191 35.6139 32.1649 36.1204 34.3918C36.7274 37.0666 34.3455 38.9167 34.1174 41.443C34.086 41.8302 33.523 41.8658 33.4561 41.5393C29.9441 38.6593 26.656 33.3704 30.7143 29.5884C30.331 28.8045 29.8953 28.0472 29.4103 27.3217C28.7699 26.9701 28.1378 26.6101 27.5099 26.2376C27.4102 26.2418 27.3114 26.2169 27.2256 26.166C27.1398 26.1151 27.0706 26.0403 27.0265 25.9508C25.1986 24.8513 23.4238 23.6653 21.702 22.3928L20.6408 22.3907C20.6764 22.6984 20.6973 23.004 20.7183 23.3054L20.7224 23.3346L20.735 23.3472C22.2566 24.3916 23.6087 25.9571 23.324 27.9329C23.0185 30.0719 20.8836 31.3026 20.1573 33.2553C20.135 33.3101 20.0997 33.3587 20.0545 33.397C20.0093 33.4352 19.9555 33.462 19.8977 33.4749C19.84 33.4879 19.78 33.4867 19.7227 33.4714C19.6655 33.4561 19.6128 33.4272 19.5692 33.3871C19.5046 33.3997 19.4377 33.3922 19.3775 33.3657C19.3172 33.3391 19.2666 33.2947 19.2323 33.2386C18.1251 31.5244 17.1372 29.6449 17.3988 27.5373C17.5142 26.671 17.8098 25.8385 18.2665 25.0934C18.7232 24.3482 19.331 23.7071 20.0506 23.2111C20.038 22.9349 20.0109 22.6565 19.9732 22.3844L12.6038 22.3823C11.5053 23.2907 10.3428 24.1189 9.12534 24.8604C8.6021 25.1744 8.13954 24.3518 8.6586 24.0379C9.49841 23.5311 10.3096 22.9785 11.0886 22.3824L1.58435 22.3844L1.11119e-05 20.8001L13.0392 20.8042C14.5482 19.471 15.9484 18.0248 17.3298 16.543C17.3073 16.5002 17.2944 16.453 17.2921 16.4048C17.2711 15.9653 17.223 15.5321 17.1665 15.0988C13.3678 14.1005 11.819 8.58761 14.0019 5.52141C14.0293 5.47717 14.0665 5.43991 14.1108 5.41258C14.1314 5.35113 14.1691 5.29683 14.2195 5.25609C14.27 5.21535 14.331 5.18988 14.3954 5.18263C14.4598 5.17537 14.5249 5.18662 14.5831 5.21512C14.6414 5.24363 14.6903 5.28819 14.724 5.34352C15.76 7.17905 18.1209 8.01203 18.8283 9.98778C19.3788 11.5303 18.7383 13.1168 17.9472 14.4353C17.9282 14.4699 17.9025 14.5002 17.8715 14.5247C17.8406 14.5491 17.8051 14.5671 17.7672 14.5777C17.8362 15.0109 17.8906 15.4504 17.9241 15.8941C18.7278 15.0235 19.5295 14.1507 20.3415 13.2884C21.8822 11.6495 23.5384 10.1232 25.2977 8.72153C25.31 8.6552 25.338 8.59277 25.3793 8.53944C26.7299 6.63066 28.1406 4.76792 29.6113 2.95123C29.5743 2.91847 29.5394 2.88352 29.5066 2.84658C29.2368 2.54502 29.0829 2.15747 29.0722 1.75299C29.0615 1.3485 29.1948 0.953409 29.4483 0.638023C29.7017 0.322631 30.0589 0.107438 30.4562 0.030862C30.8536 -0.0457135 31.2651 0.0212489 31.6177 0.21984C31.9702 0.41843 32.2408 0.735765 32.3812 1.11525C32.5216 1.49473 32.5227 1.91173 32.3844 2.29195C32.246 2.67218 31.9771 2.99093 31.6256 3.1914C31.2742 3.39187 30.8629 3.46104 30.4652 3.38658C29.5164 4.56143 28.592 5.75232 27.692 6.95926C29.6752 5.61047 31.7818 4.45276 33.9835 3.50169C33.8803 3.04233 33.9484 2.56115 34.1749 2.14842C34.4013 1.73569 34.7707 1.41982 35.2135 1.26008C35.6564 1.10034 36.1423 1.1077 36.5801 1.28082C37.0179 1.45395 37.3775 1.78091 37.5913 2.20033C37.8051 2.61976 37.8585 3.10285 37.7415 3.55885C37.6244 4.01485 37.3449 4.41241 36.9555 4.67697C36.5661 4.94153 36.0935 5.05489 35.6264 4.99572C35.1594 4.93655 34.73 4.70893 34.4188 4.35563L34.4042 4.34096C32.5167 5.15698 30.7019 6.1316 28.9792 7.25437C30.0683 7.52387 31.1818 7.68236 32.3028 7.72739C32.5875 7.33978 33.0037 7.0692 33.4735 6.96633C33.9433 6.86347 34.4345 6.93538 34.8551 7.16857C35.2757 7.40175 35.5969 7.78024 35.7586 8.23319C35.9202 8.68613 35.9112 9.18246 35.7333 9.62927C35.5554 10.0761 35.2208 10.4427 34.792 10.6606C34.3633 10.8784 33.8698 10.9325 33.404 10.8128C32.9383 10.693 32.5321 10.4075 32.2616 10.0099C31.9911 9.61227 31.8748 9.12971 31.9345 8.6525C30.6029 8.57844 29.2841 8.35233 28.0039 7.97856C27.9872 7.97075 27.971 7.96162 27.9557 7.95132C25.543 9.65916 23.297 11.5912 21.2478 13.7216C21.7543 13.7635 22.2629 13.7991 22.7715 13.8221C22.7923 13.793 22.8177 13.7676 22.8468 13.7468C22.8525 13.6945 22.872 13.6446 22.9033 13.6024C23.8494 12.3298 25.53 10.9045 27.2378 11.0677C27.9491 11.1787 28.6162 11.4836 29.1655 11.9489C30.3166 12.7903 31.248 13.504 32.6921 13.776C33.1002 13.8535 32.9495 14.4521 32.5686 14.427C31.0512 15.9234 29.1634 17.1708 26.9511 17.1143C26.0956 17.1093 25.2594 16.8601 24.5408 16.3958C23.8222 15.9316 23.2512 15.2718 22.8949 14.4939C22.1415 14.4605 21.388 14.4144 20.6345 14.3474C20.4022 14.5798 20.1804 14.8267 19.9585 15.0695C19.1339 15.9653 18.3176 16.8611 17.4888 17.736C18.6839 18.8013 19.9062 19.8185 21.1641 20.7917L34.0588 20.7896C36.7797 18.4873 39.3771 15.9486 42.3135 13.9749C42.3022 13.9215 42.3043 13.8661 42.3198 13.8137C42.7174 12.5334 43.2294 11.2914 43.8497 10.1029C43.8212 10.083 43.7964 10.0582 43.7765 10.0296C42.7425 8.33015 42.483 6.89021 43.7137 5.20328C45.229 3.12705 47.7761 1.63895 50.0742 0.621767C50.1411 0.591598 50.2158 0.583074 50.2877 0.597398C50.3597 0.611718 50.4254 0.648162 50.4757 0.701647C50.5259 0.755132 50.5582 0.822985 50.5681 0.895721C50.5779 0.968452 50.5647 1.04244 50.5305 1.10734C50.2961 3.35937 50.7293 5.60097 49.4966 7.63742C48.9533 8.52609 48.2145 9.27916 47.3365 9.83948C46.4585 10.3998 45.4643 10.7526 44.4295 10.871C44.3603 10.8784 44.2904 10.8653 44.2285 10.8333C43.8166 11.6738 43.4594 12.54 43.1591 13.4266C46.1717 11.5576 49.3676 10.0014 52.6967 8.78225C52.71 8.71954 52.7364 8.66035 52.7741 8.60854C54.1922 6.66826 55.8254 4.89469 57.6424 3.3217C57.6741 3.29752 57.7085 3.27718 57.745 3.26103C57.4913 2.85328 57.3965 2.36649 57.4785 1.89335C57.5606 1.42021 57.8137 0.993732 58.1898 0.695182C58.5659 0.396632 59.0387 0.246819 59.5181 0.274288C59.9975 0.301753 60.4501 0.504612 60.7897 0.844164C61.1293 1.18372 61.3321 1.63628 61.3595 2.1157C61.387 2.59511 61.2372 3.06788 60.9386 3.44399C60.6401 3.8201 60.2136 4.07325 59.7405 4.15529C59.2673 4.23734 58.7806 4.14256 58.3728 3.88892C58.3544 3.92101 58.3319 3.95051 58.3058 3.97679C56.823 5.26537 55.4662 6.69224 54.2538 8.23806C55.8961 7.68691 57.5628 7.21461 59.254 6.82114C59.1922 6.35824 59.2989 5.8886 59.5545 5.49777C59.8101 5.10694 60.1977 4.82097 60.6465 4.69197C61.0953 4.56297 61.5755 4.59954 61.9997 4.79499C62.4238 4.99044 62.7635 5.33174 62.957 5.75675C63.1505 6.18177 63.1849 6.66219 63.0538 7.11041C62.9228 7.55863 62.635 7.94486 62.243 8.19866C61.851 8.45247 61.3809 8.55694 60.9183 8.49311C60.4556 8.42927 60.0314 8.20137 59.7228 7.8509C59.6842 7.80478 59.6492 7.75578 59.6181 7.70436C58.5277 7.95761 57.4456 8.24017 56.3782 8.5583C58.1179 9.24546 59.9095 9.79275 61.7362 10.195C61.8613 9.78283 62.1197 9.42386 62.4709 9.17441C62.822 8.92496 63.246 8.79917 63.6764 8.81675C64.1068 8.83433 64.5192 8.99429 64.8488 9.27154C65.1784 9.54879 65.4067 9.92765 65.4978 10.3487C65.5888 10.7696 65.5375 11.209 65.352 11.5977C65.1664 11.9864 64.857 12.3024 64.4723 12.4963C64.0877 12.6902 63.6496 12.7509 63.2267 12.6688C62.8039 12.5868 62.4202 12.3667 62.136 12.0431C61.9149 11.79 61.764 11.4832 61.6985 11.1536C59.4046 10.6579 57.1639 9.94236 55.0073 9.01667C54.9982 9.00916 54.9897 9.00072 54.9822 8.99153C52.1996 9.89744 49.4979 11.0351 46.9055 12.3926C47.6369 12.9973 48.4231 13.5326 49.2538 13.9916C49.277 13.9192 49.3272 13.8585 49.394 13.8221C50.8486 12.9702 52.4707 12.0682 54.2225 12.4052C56.3615 12.8196 57.5419 14.9461 59.2058 16.1328C59.2719 16.1488 59.3319 16.1836 59.3786 16.2329C59.4253 16.2822 59.4567 16.344 59.4691 16.4108C59.4815 16.4776 59.4743 16.5466 59.4484 16.6094C59.4224 16.6722 59.3789 16.7262 59.323 16.7648C57.3263 18.1169 55.4343 19.155 52.9834 18.5961C50.8632 18.121 49.0235 17.0181 49.1721 14.7137C48.1371 14.1628 47.1645 13.5018 46.2713 12.7422C45.0406 13.4077 43.8288 14.1172 42.6505 14.8853C41.9075 15.373 41.1916 15.9004 40.4863 16.4509C42.8332 17.9606 45.2074 19.4124 47.6087 20.8064L64.3524 20.8064C66.2738 19.9873 68.1504 19.0734 69.9825 18.0645C70.1708 17.558 70.3613 17.0536 70.5622 16.5513C70.4947 16.5671 70.424 16.5624 70.3591 16.5378C70.2943 16.5132 70.2382 16.4698 70.1981 16.4132C67.1654 12.2712 72.0001 9.42477 75.2965 8.02458C75.6502 7.87598 75.9537 8.32178 75.7298 8.54154C75.8846 10.1155 76.0123 11.8045 75.2421 13.2486C74.4719 14.6928 72.8813 15.7016 71.4308 16.432C71.3959 16.4464 71.3594 16.4562 71.322 16.4613C71.1776 16.8192 71.0269 17.175 70.8992 17.5455C73.6801 15.952 76.3556 14.1812 78.909 12.244C78.883 12.1631 78.8822 12.0763 78.9069 11.995C79.2655 10.7771 79.7197 9.58953 80.2652 8.44319C79.8566 8.31146 79.5031 8.04819 79.2597 7.69446C79.0164 7.34074 78.897 6.91645 78.9201 6.48774C78.9432 6.05903 79.1075 5.65 79.3874 5.32447C79.6673 4.99893 80.0471 4.77518 80.4675 4.6881C80.8879 4.60102 81.3253 4.65552 81.7115 4.84309C82.0977 5.03066 82.411 5.34075 82.6024 5.72501C82.7939 6.10927 82.8529 6.54611 82.7701 6.96738C82.6873 7.38865 82.4674 7.77068 82.1447 8.05389C81.8899 8.27898 81.5789 8.43086 81.2447 8.49342C81.2402 8.54757 81.2268 8.60062 81.205 8.6504C80.7826 9.51574 80.4156 10.407 80.1062 11.3189C81.1722 10.4845 82.2145 9.62501 83.2331 8.74038C83.042 8.31105 83.0144 7.82669 83.1554 7.37842C83.2965 6.93015 83.5965 6.54886 83.9991 6.30635C84.4016 6.06383 84.8789 5.97678 85.3411 6.06157C85.8033 6.14635 86.2187 6.39715 86.5089 6.76675C86.7992 7.13635 86.9443 7.59928 86.9171 8.06843C86.8899 8.53759 86.6922 8.98062 86.3611 9.31418C86.0301 9.64774 85.5886 9.84883 85.1196 9.8796C84.6507 9.91038 84.1867 9.76873 83.8149 9.4813C81.9689 11.072 80.0518 12.5956 78.0676 14.0314C80.3594 15.599 83.0719 15.3311 85.6693 14.8519C85.6019 14.3894 85.7033 13.9182 85.955 13.5244C86.2066 13.1307 86.5916 12.8407 87.0396 12.7075C87.4875 12.5744 87.9684 12.607 88.3943 12.7994C88.8201 12.9918 89.1625 13.3311 89.3587 13.7553C89.5548 14.1794 89.5917 14.66 89.4625 15.1091C89.3334 15.5582 89.0468 15.9458 88.6553 16.2009C88.2637 16.456 87.7934 16.5616 87.3304 16.4984C86.8674 16.4351 86.4427 16.2073 86.1339 15.8565C86.103 15.8185 86.0743 15.7786 86.0481 15.7372C83.1493 16.2793 80.081 16.5974 77.5318 14.8058C77.4488 14.7448 77.3884 14.6579 77.3602 14.5588C73.9854 16.9583 70.4059 19.0559 66.6631 20.8273L84.3863 20.8273L84.3863 46.8554C85.5311 45.3213 86.6425 43.762 87.6492 42.1358C89.1115 39.6969 90.1642 37.035 90.7657 34.2557C90.5005 32.6752 90.0085 31.1413 89.3048 29.7015C88.8417 29.7655 88.3711 29.6609 87.9788 29.4067C87.5865 29.1525 87.2987 28.7657 87.1679 28.3169C87.0372 27.8681 87.0723 27.3872 87.2667 26.9621C87.4611 26.537 87.802 26.196 88.227 26.0014C88.652 25.8068 89.1329 25.7715 89.5817 25.9021C90.0306 26.0326 90.4175 26.3202 90.6719 26.7124C90.9262 27.1046 91.031 27.5752 90.9672 28.0383C90.9033 28.5013 90.6751 28.926 90.324 29.2347C90.2822 29.2766 90.2257 29.3038 90.1775 29.3394C90.5924 30.1964 90.9361 31.0861 91.2052 31.9995C91.5873 29.5357 91.8395 27.0535 91.9607 24.5632C91.5596 24.3177 91.2617 23.9343 91.123 23.485C90.9842 23.0356 91.014 22.551 91.2069 22.1221C91.3998 21.6931 91.7424 21.3492 92.1706 21.1548C92.5989 20.9603 93.0833 20.9287 93.5332 21.0658C93.9831 21.2029 94.3675 21.4993 94.6145 21.8996C94.8615 22.2998 94.9541 22.7763 94.875 23.2399C94.7959 23.7035 94.5504 24.1224 94.1846 24.418C93.8188 24.7136 93.3578 24.8657 92.8879 24.8458C92.7854 26.539 92.6661 28.2364 92.4756 29.917C93.6782 28.6258 94.9882 27.439 96.3915 26.3694C96.1438 25.9576 96.0552 25.4694 96.1426 24.9968C96.23 24.5243 96.4872 24.1 96.8658 23.804C97.2445 23.508 97.7183 23.3607 98.198 23.39C98.6777 23.4193 99.1301 23.623 99.47 23.9629C99.8098 24.3027 100.014 24.7551 100.043 25.2348C100.072 25.7145 99.9248 26.1884 99.6289 26.567C99.3329 26.9456 98.9086 27.2028 98.436 27.2902C97.9634 27.3776 97.4752 27.289 97.0634 27.0413C95.323 28.351 93.7324 29.8489 92.3207 31.5077C92.3019 31.5265 92.2872 31.5411 92.2684 31.56C91.7933 34.8271 90.9729 38.021 89.3885 41.0035C89.2587 41.2462 89.1206 41.489 88.9845 41.7297C89.6934 41.4116 90.3799 41.0614 91.044 40.6791C91.0654 40.6642 91.0886 40.6522 91.1131 40.6435C91.1445 40.6121 91.1905 40.5953 91.2282 40.5744C91.2065 39.7395 91.3805 38.9112 91.7363 38.1556C92.0921 37.4 92.6198 36.7382 93.2772 36.2231C95.3346 34.5843 97.775 34.8606 100.19 34.4043C100.262 34.3903 100.336 34.3993 100.403 34.4301C100.469 34.4609 100.524 34.5119 100.559 34.5758C100.595 34.6397 100.609 34.7132 100.601 34.7858C100.592 34.8584 100.56 34.9263 100.511 34.9799C100.508 35.0338 100.49 35.0859 100.46 35.1306C98.8026 37.6589 95.0709 44.8106 91.178 41.3655C90.2838 41.8627 89.3613 42.3072 88.4152 42.6967C87.1971 44.6892 85.8032 46.5645 84.3967 48.4272L84.3967 49.8044C84.8907 48.5863 85.843 47.793 87.1909 47.3577C89.3131 46.6712 91.0126 47.7219 93.1119 47.4393C93.182 47.4291 93.2536 47.4404 93.3172 47.4718C93.3807 47.5032 93.4332 47.5532 93.4677 47.6151C93.5213 47.6338 93.5693 47.6656 93.6075 47.7075C93.6457 47.7495 93.6728 47.8004 93.6863 47.8555C93.6998 47.9106 93.6994 47.9682 93.6849 48.0231C93.6705 48.078 93.6426 48.1284 93.6037 48.1698C92.3416 49.5072 91.1319 50.9472 89.782 52.1966C88.9887 52.9271 88.0908 53.4692 86.9753 53.3666C85.9832 53.2248 85.0707 52.7441 84.3926 52.0062L84.3947 68.6767C85.5025 70.5631 86.669 72.384 87.8941 74.1393C88.8778 72.6951 89.9159 71.2915 91.0084 69.9282C90.8577 68.9404 90.6463 67.942 90.4894 66.952C88.9301 65.8532 87.5864 64.07 87.7601 62.0964C87.8334 61.2362 88.275 60.6104 88.8422 59.9888C89.9431 58.7748 91.2156 57.6823 92.3961 56.5437C92.4491 56.4939 92.5168 56.4625 92.589 56.454C92.6613 56.4454 92.7344 56.4603 92.7976 56.4963C92.8608 56.5324 92.9108 56.5877 92.9402 56.6543C92.9697 56.7208 92.977 56.795 92.9612 56.8661C92.754 58.216 93.6707 59.0867 94.1039 60.2273C94.3959 60.9764 94.4868 61.7889 94.3676 62.584C94.1081 64.382 93.1669 66.0112 91.7389 67.1341C91.6953 67.1702 91.6433 67.1949 91.5878 67.2059C91.5322 67.2168 91.4748 67.2138 91.4208 67.1969C91.3971 67.2306 91.3669 67.2592 91.3321 67.2811C91.2972 67.3031 91.2583 67.3178 91.2177 67.3246C91.3328 67.9588 91.4605 68.5929 91.5714 69.2187C94.3263 65.8736 97.3977 62.8023 100.743 60.0474C100.694 59.9508 100.684 59.8391 100.716 59.7355C101.153 58.3765 101.48 56.9843 101.693 55.5726C101.355 55.4867 101.045 55.3118 100.797 55.0661C100.482 54.7546 100.279 54.347 100.221 53.9075C100.163 53.4681 100.253 53.0219 100.477 52.6393C100.701 52.2567 101.046 51.9596 101.457 51.7948C101.869 51.63 102.323 51.6069 102.75 51.7292C103.176 51.8515 103.549 52.1121 103.81 52.4701C104.072 52.828 104.206 53.2628 104.193 53.7059C104.18 54.1489 104.02 54.575 103.738 54.9168C103.455 55.2586 103.067 55.4967 102.635 55.5935C102.476 56.7906 102.221 57.9728 101.871 59.1285C103.25 58.0423 104.667 57.0021 106.138 56.0205C106.007 55.5591 106.049 55.0657 106.256 54.6329C106.463 54.2001 106.82 53.8578 107.262 53.6702C107.703 53.4826 108.198 53.4627 108.653 53.6142C109.108 53.7657 109.493 54.0781 109.734 54.4929C109.975 54.9076 110.056 55.3961 109.962 55.8665C109.868 56.337 109.606 56.757 109.224 57.0476C108.843 57.3383 108.368 57.4796 107.89 57.445C107.411 57.4104 106.962 57.2023 106.626 56.8598L106.605 56.8388C104.348 58.3505 102.186 59.9986 100.13 61.7741C101.72 61.5982 103.317 61.4455 104.916 61.3366C105.014 61.1086 105.155 60.9012 105.331 60.7255C105.651 60.3983 106.074 60.1908 106.529 60.1373C106.984 60.0838 107.444 60.1876 107.832 60.4315C108.22 60.6754 108.512 61.0446 108.661 61.4779C108.81 61.9112 108.807 62.3824 108.651 62.8132C108.495 63.244 108.196 63.6085 107.805 63.8461C107.413 64.0838 106.952 64.1802 106.498 64.1195C106.043 64.0587 105.624 63.8444 105.308 63.5122C104.993 63.1799 104.801 62.7497 104.763 62.2931C102.816 62.427 100.874 62.6119 98.9387 62.8477C95.7782 65.7133 92.9017 68.8772 90.3492 72.2954C90.8305 72.2661 91.3077 72.2242 91.787 72.1845C91.7969 72.1458 91.8116 72.1085 91.831 72.0735C92.7644 70.6461 94.1353 69.4343 95.8662 69.1308C98.001 68.7541 100.037 70.1417 102.08 70.531C102.465 70.6064 102.369 71.1882 101.994 71.1945C99.2066 71.2447 98.5787 74.0577 96.1571 74.6541C94.4827 75.0727 93.0261 74.0974 91.8749 73.0007C91.8375 72.9644 91.8089 72.92 91.7912 72.871C91.1633 72.924 90.5333 72.9679 89.9013 73.0028C89.8806 73.0026 89.8601 72.999 89.8406 72.9924C87.7928 75.8095 85.9705 78.7837 84.3905 81.8874L84.3905 83.1725C84.6584 83.0218 84.9347 82.8795 85.2277 82.754C85.1809 82.7172 85.1463 82.6671 85.1283 82.6104C85.1104 82.5536 85.11 82.4928 85.1272 82.4358C86.4625 76.7429 91.9419 79.8071 95.9164 79.4408C95.9794 79.4352 96.0424 79.4498 96.0964 79.4826C96.1508 79.4701 96.2032 79.4554 96.2597 79.445C96.6825 79.3696 96.8583 80.0184 96.4376 80.1042C93.7963 80.5898 93.0156 83.7481 90.4894 84.5957C89.6182 84.8868 88.6901 84.9663 87.7821 84.8277C86.874 84.689 86.0121 84.3362 85.2674 83.7983C85.2272 83.7718 85.1931 83.737 85.1675 83.6962C85.1419 83.6554 85.1253 83.6096 85.1188 83.5618C84.8739 83.6853 84.6374 83.8213 84.403 83.9637L84.403 96.9401C85.7084 98.7642 87.1319 100.501 88.6643 102.139C89.0641 102.543 88.3985 103.213 87.982 102.767ZM69.8737 79.108C68.7749 78.8087 67.6614 78.9887 66.5438 78.9133C67.3914 82.1679 70.2943 84.8741 73.7038 83.8339C72.4605 83.1768 71.3133 82.3522 70.2943 81.383C70.2408 81.3183 70.2132 81.2359 70.2172 81.152C70.2211 81.0681 70.2562 80.9886 70.3156 80.9292C70.375 80.8698 70.4545 80.8347 70.5384 80.8308C70.6223 80.8268 70.7047 80.8543 70.7695 80.9079C71.7456 81.8366 72.8459 82.6255 74.0387 83.2521C73.2664 81.3496 71.9394 79.6752 69.8737 79.108ZM72.109 48.9358C71.0897 48.4733 69.9951 48.1195 68.9381 47.7533C69.0846 50.5913 71.119 53.195 74.1412 52.7345L71.9227 50.7671C71.5962 50.4783 72.0755 50.0032 72.3999 50.2899L74.6184 52.2573C74.5388 51.5288 74.2635 50.8353 73.8217 50.2505C73.3799 49.6658 72.788 49.2115 72.109 48.9358ZM33.5753 40.746C33.95 39.1867 35.009 37.9686 35.4234 36.3864C36.1288 33.7429 34.1174 31.8572 31.991 30.7772C32.5171 32.1396 32.8905 33.5562 33.1045 35.0008C33.1672 35.4236 32.51 35.5952 32.4451 35.1787C32.1946 33.4731 31.7137 31.8093 31.0157 30.233C27.6753 33.5943 30.5552 38.111 33.5753 40.746ZM18.0518 28.0522C17.9932 29.76 18.8074 31.2733 19.7032 32.6797C20.172 31.6709 20.892 30.8798 21.5869 29.9924C23.2382 27.8764 22.7799 25.7437 20.779 24.1949C20.8404 25.3514 20.8411 26.5105 20.7811 27.6671C20.7623 28.1045 20.0841 28.1003 20.1071 27.6671C20.1657 26.5829 20.1804 25.5009 20.1302 24.4125L20.1176 24.04C19.5091 24.5246 19.0103 25.1328 18.6542 25.8244C18.2981 26.516 18.0928 27.2754 18.0518 28.0522ZM16.9279 8.62317C15.9756 7.7797 15.1091 7.13925 14.4163 6.1116C12.8152 8.76339 13.9643 13.2612 17.0368 14.3328C16.8123 13.0358 16.4314 11.7708 15.9024 10.5655C15.7308 10.172 16.3147 9.83501 16.4905 10.2327C16.9765 11.3359 17.3482 12.4861 17.5998 13.6651C18.5583 11.8819 18.6504 10.1531 16.9279 8.62317ZM27.872 16.3818C29.4146 16.1537 30.6954 15.2914 31.811 14.2512C30.8535 13.9331 29.9626 13.4422 29.1822 12.8028C28.2383 12.0724 27.4388 11.5156 26.1914 11.9049C25.1487 12.2837 24.2404 12.9606 23.5794 13.8514C25.1512 13.9037 26.7272 13.8974 28.3011 13.8095C28.7406 13.7886 28.7343 14.4605 28.3011 14.4835C26.7544 14.5693 25.2077 14.5756 23.6568 14.5233C24.4793 16.0072 26.1747 16.6435 27.872 16.3818ZM49.3082 6.51976C49.9654 4.91236 49.7268 3.17101 49.844 1.49245C46.7045 2.95753 42.2465 5.74119 44.2286 9.45202C45.1085 7.90361 46.1733 6.46776 47.3994 5.17606C47.4627 5.11278 47.5485 5.07725 47.638 5.07725C47.7275 5.07725 47.8133 5.11281 47.8766 5.17609C47.9399 5.23937 47.9754 5.32516 47.9754 5.41465C47.9754 5.50414 47.9399 5.58998 47.8766 5.65326C46.5852 7.01394 45.4809 8.54058 44.5927 10.1929C46.692 9.81408 48.4731 8.55202 49.3082 6.51976ZM51.3069 17.2378C52.2372 17.7715 53.2845 18.0683 54.3564 18.1022C55.945 18.1169 57.2803 17.3257 58.557 16.476C57.5147 15.643 56.7047 14.5609 55.6101 13.797C53.6406 12.4177 51.7276 13.2633 49.8796 14.3244C50.9875 14.8715 52.1566 15.2846 53.3623 15.5551C53.785 15.6514 53.6134 16.3044 53.1843 16.2144C52.0284 15.9503 50.9048 15.5608 49.8335 15.0527C49.8502 16.0616 50.2982 16.6769 51.3028 17.2337L51.3069 17.2378ZM74.7398 12.7212C75.3091 11.5073 75.2233 10.1447 75.0977 8.83874C72.1843 10.1322 68.17 12.4429 70.7799 16.0449C71.3387 14.674 71.9352 13.3198 72.5819 11.9866C72.7724 11.5952 73.3606 11.928 73.168 12.3215C72.6552 13.3742 72.1759 14.4395 71.7197 15.5195C72.9399 14.8435 74.1391 13.9916 74.7356 12.717L74.7398 12.7212ZM49.7456 30.3021C50.6949 31.2287 51.8229 31.9522 53.0609 32.4286C52.7278 31.6223 52.5297 30.7667 52.4748 29.8961C52.4351 29.1614 52.5816 28.4038 52.4895 27.6712C52.276 25.9885 51.106 25.3502 49.6137 25.1388C49.7955 25.7425 50.0243 26.3311 50.2982 26.899C50.4886 27.2862 49.9068 27.621 49.7142 27.2317C49.4012 26.5859 49.1422 25.9153 48.9398 25.2267C47.1776 26.5704 48.4082 29.0275 49.7456 30.3021ZM14.4499 20.8085L19.5169 20.8063C19.5158 20.7725 19.5223 20.739 19.5357 20.708C18.6232 19.974 17.7274 19.2178 16.8484 18.4392C16.0781 19.2387 15.2745 20.0424 14.4478 20.8064L14.4499 20.8085ZM23.3261 22.397C24.7228 23.3863 26.1565 24.3246 27.6272 25.2121C29.2164 24.4344 30.7197 23.4923 32.1124 22.4012L23.3261 22.397ZM39.7852 17.1185C39.7668 17.1021 39.7493 17.0846 39.7329 17.0662C38.272 18.2634 36.8655 19.5527 35.4381 20.8084L45.7501 20.8063C43.7339 19.6161 41.7435 18.3848 39.7789 17.1123L39.7852 17.1185ZM50.4175 22.3928C51.4974 22.9872 52.5851 23.5739 53.6804 24.153C55.892 23.7072 58.0725 23.1193 60.2083 22.3928L50.4175 22.3928ZM99.6168 35.1745C96.2701 35.7124 92.0737 35.9322 91.8875 40.1579C93.2707 39.2883 94.5642 38.2837 95.749 37.1587C95.8137 37.1051 95.8961 37.0776 95.98 37.0815C96.064 37.0854 96.1434 37.1205 96.2028 37.18C96.2622 37.2394 96.2974 37.3188 96.3013 37.4028C96.3052 37.4867 96.2777 37.5691 96.2241 37.6338C94.8721 38.9188 93.3811 40.0489 91.7786 41.0034C94.9348 43.4648 98.0785 37.6463 99.6231 35.1641L99.6168 35.1745ZM91.2512 66.6465C93.0281 65.1835 94.3279 62.7326 93.4216 60.445C93.0114 59.3985 92.3982 58.5844 92.281 57.5463C91.1529 58.5655 89.8552 59.6078 89.018 60.8092C87.7476 62.628 88.8255 64.6854 90.345 65.9956C90.188 64.52 90.2466 63.0591 90.9352 61.638C91.1256 61.2466 91.7117 61.5773 91.5212 61.9687C90.8075 63.4401 90.841 64.9889 91.0712 66.5418L91.2512 66.6465ZM95.9981 73.9049C97.235 73.6056 97.8545 72.601 98.7461 71.7931C99.2444 71.3254 99.8376 70.9706 100.485 70.7529C99.2589 70.305 98.0408 69.7482 96.8164 69.7168C95.0751 69.6708 93.6037 70.7487 92.6242 72.1049C93.7063 71.9982 94.7862 71.8684 95.862 71.701C96.2848 71.634 96.4543 72.2933 96.0399 72.3603C94.9153 72.5333 93.7879 72.6756 92.6577 72.7872C93.6142 73.6349 94.6711 74.223 95.996 73.9028L95.9981 73.9049ZM92.551 82.2788C93.2667 81.4668 93.8632 80.661 94.669 80.0938C91.2261 79.8531 86.9272 77.9987 85.799 82.4798C87.0291 81.9893 88.3083 81.6321 89.6145 81.4144C90.0394 81.3412 90.2152 81.99 89.7924 82.0737C88.3862 82.3015 87.013 82.6993 85.7028 83.2583C87.982 84.7716 90.7301 84.3425 92.5489 82.2767L92.551 82.2788ZM87.8334 52.6257C88.6476 52.3557 89.3131 51.7027 89.8929 51.1062C90.8473 50.1225 91.7766 49.1137 92.7121 48.1154C91.8626 48.0839 91.018 47.9711 90.1901 47.7784C88.1348 47.4268 85.797 48.1488 84.9953 50.1183C86.2396 49.8334 87.4599 49.4527 88.6455 48.9798C89.0494 48.8312 89.219 49.4821 88.8234 49.639C87.5058 50.1662 86.1414 50.5677 84.7484 50.8383C84.7055 50.8898 84.6465 50.9252 84.5809 50.9388C84.6165 52.1255 87.1344 52.8559 87.8313 52.6236L87.8334 52.6257ZM82.8019 50.9932C82.6994 50.9911 82.5989 50.9785 82.4963 50.9722C81.1555 52.7738 79.9701 54.686 78.953 56.6882C78.9298 56.7393 78.8962 56.785 78.8544 56.8225C78.8126 56.8599 78.7635 56.8883 78.7102 56.9058C79.8826 59.9627 81.2493 62.9415 82.8019 65.8239L82.8019 50.9932ZM87.3269 74.9618C86.3125 73.5149 85.333 72.0205 84.3884 70.4787L84.3863 79.8573C85.2974 78.1815 86.2769 76.549 87.3248 74.9597L87.3269 74.9618ZM82.7977 85.2132C81.9982 87.0257 81.2775 88.8766 80.6357 90.7658C81.304 92.0509 82.0247 93.3032 82.7977 94.5227L82.7977 85.2132Z" fill="#C3937C"/>
<path d="M91.3415 60.6295C91.2782 60.5662 91.2426 60.4804 91.2426 60.3909C91.2426 60.3014 91.2782 60.2156 91.3414 60.1523C91.4047 60.089 91.4905 60.0534 91.58 60.0534C91.6695 60.0534 91.7554 60.089 91.8187 60.1523C91.8819 60.2156 91.9175 60.3014 91.9175 60.3909C91.9175 60.4804 91.8819 60.5662 91.8186 60.6295C91.7553 60.6927 91.6695 60.7283 91.58 60.7283C91.4905 60.7283 91.4047 60.6928 91.3415 60.6295Z" fill="#C3937C"/>
<path d="M97.3859 71.4919C97.4395 71.5566 97.467 71.639 97.4631 71.7229C97.4592 71.8068 97.4241 71.8863 97.3647 71.9457C97.3052 72.0051 97.2258 72.0402 97.1418 72.0441C97.0579 72.0481 96.9755 72.0206 96.9108 71.967C96.8572 71.9022 96.8297 71.8199 96.8336 71.7359C96.8376 71.652 96.8727 71.5726 96.9321 71.5131C96.9915 71.4537 97.071 71.4186 97.1549 71.4147C97.2388 71.4108 97.3212 71.4383 97.3859 71.4919Z" fill="#C3937C"/>
<path d="M91.3204 81.0567C91.7285 80.9122 91.896 81.5652 91.4983 81.7159L90.9541 81.9085C90.546 82.0529 90.3764 81.402 90.7741 81.2513L91.3204 81.0567Z" fill="#C3937C"/>
<path d="M69.3985 80.7593L68.8899 80.3763C68.8147 80.3302 68.7597 80.2572 68.736 80.1722C68.7123 80.0872 68.7217 79.9963 68.7623 79.9179C68.7842 79.8794 68.8136 79.8457 68.8486 79.8185C68.8837 79.7914 68.9237 79.7714 68.9665 79.7597C69.0092 79.7481 69.0539 79.745 69.0978 79.7506C69.1418 79.7561 69.1842 79.7704 69.2227 79.7923L69.7313 80.1712C69.8062 80.2182 69.8607 80.2916 69.884 80.3769C69.9072 80.4622 69.8976 80.5531 69.8569 80.6316C69.8123 80.7086 69.7394 80.765 69.6537 80.7889C69.5681 80.8127 69.4765 80.8021 69.3985 80.7593Z" fill="#C3937C"/>
<path d="M97.0926 36.5308L97.2161 36.4073C97.2808 36.3537 97.3632 36.3262 97.4472 36.3301C97.5311 36.3341 97.6105 36.3692 97.67 36.4286C97.7294 36.488 97.7645 36.5675 97.7684 36.6514C97.7724 36.7353 97.7448 36.8177 97.6912 36.8824L97.5678 37.0059C97.503 37.0595 97.4207 37.087 97.3367 37.0831C97.2528 37.0792 97.1733 37.044 97.1139 36.9846C97.0545 36.9252 97.0194 36.8458 97.0155 36.7618C97.0115 36.6779 97.039 36.5955 97.0926 36.5308Z" fill="#C3937C"/>
<path d="M89.6838 48.8042C89.8216 48.8024 89.9568 48.7665 90.0773 48.6995C90.1158 48.6775 90.1582 48.6633 90.2022 48.6577C90.2461 48.6521 90.2908 48.6553 90.3335 48.6669C90.3763 48.6786 90.4163 48.6986 90.4513 48.7257C90.4864 48.7528 90.5158 48.7866 90.5377 48.8251C90.5597 48.8636 90.5739 48.906 90.5795 48.95C90.5851 48.9939 90.582 49.0386 90.5703 49.0813C90.5586 49.1241 90.5387 49.1641 90.5115 49.1992C90.4844 49.2342 90.4506 49.2635 90.4121 49.2855C90.1886 49.4096 89.9373 49.4751 89.6817 49.476C89.238 49.4718 89.2485 48.8083 89.6838 48.8042Z" fill="#C3937C"/>
<path d="M71.232 50.2858L70.8762 50.0472C70.5162 49.8086 70.8553 49.2309 71.209 49.4632L71.5669 49.6997C71.9248 49.9404 71.5941 50.5265 71.232 50.2858Z" fill="#C3937C"/>
<path d="M73.1243 11.1476C73.208 11.0052 73.2938 10.865 73.3776 10.7227C73.3995 10.6842 73.4289 10.6505 73.4639 10.6234C73.499 10.5962 73.539 10.5762 73.5818 10.5646C73.6245 10.5529 73.6692 10.5498 73.7131 10.5554C73.7571 10.561 73.7995 10.5752 73.838 10.5972C73.8765 10.6191 73.9102 10.6485 73.9374 10.6835C73.9645 10.7185 73.9845 10.7586 73.9961 10.8013C74.0078 10.8441 74.0109 10.8888 74.0054 10.9327C73.9998 10.9767 73.9856 11.0191 73.9636 11.0576C73.8778 11.1978 73.794 11.3401 73.7082 11.4803C73.6601 11.5495 73.5878 11.5981 73.5057 11.6166C73.4235 11.6352 73.3374 11.6224 73.2643 11.5807C73.1911 11.539 73.1362 11.4715 73.1103 11.3913C73.0844 11.3112 73.0894 11.2242 73.1243 11.1476Z" fill="#C3937C"/>
<path d="M47.9041 4.27431C47.9878 4.132 48.0736 3.99178 48.1594 3.84737C48.2076 3.77826 48.2798 3.72964 48.3619 3.71107C48.4441 3.6925 48.5302 3.70531 48.6034 3.74701C48.6765 3.78871 48.7314 3.85626 48.7573 3.9364C48.7832 4.01654 48.7783 4.1035 48.7433 4.18013C48.6596 4.32246 48.5759 4.46476 48.4901 4.60499C48.4428 4.67565 48.3705 4.72587 48.2878 4.74554C48.2051 4.76522 48.1179 4.7529 48.0439 4.71111C47.9698 4.66932 47.9143 4.60115 47.8884 4.52016C47.8624 4.43917 47.868 4.35135 47.9041 4.27431Z" fill="#C3937C"/>
<path d="M54.1369 15.706L55.0411 15.9237C55.4638 16.0241 55.2922 16.6772 54.8632 16.583L53.959 16.3653C53.5446 16.2565 53.7162 15.6035 54.1369 15.706Z" fill="#C3937C"/>
<path d="M50.7629 27.9707L51.2653 28.653C51.5227 29.0025 50.9325 29.3332 50.6792 28.9879L50.1748 28.3035C49.93 27.9456 50.5181 27.6128 50.7629 27.9707Z" fill="#C3937C"/>
<path d="M29.649 13.9311C29.7353 13.9356 29.8166 13.9731 29.8761 14.0358C29.9357 14.0985 29.9688 14.1816 29.9688 14.268C29.9688 14.3545 29.9357 14.4376 29.8762 14.5003C29.8167 14.563 29.7354 14.6005 29.649 14.605L29.4397 14.605C29.3562 14.5968 29.2786 14.5577 29.2223 14.4954C29.166 14.4331 29.1349 14.3521 29.1352 14.2681C29.1354 14.1841 29.167 14.1033 29.2237 14.0413C29.2804 13.9794 29.3582 13.9408 29.4418 13.9331L29.649 13.9311Z" fill="#C3937C"/>
<path d="M15.0694 9.43949L14.7136 8.95811C14.4582 8.61068 15.0443 8.28001 15.2996 8.62326L15.6533 9.10673C15.9171 9.44998 15.3289 9.78274 15.0694 9.43949Z" fill="#C3937C"/>
<path d="M33.3683 36.6921L33.4186 37.5209C33.4374 37.9583 32.7697 37.952 32.7446 37.5209L32.6964 36.69C32.6818 36.2609 33.3516 36.2651 33.3683 36.6921Z" fill="#C3937C"/>
<path d="M20.4315 28.724L20.3771 29.6156C20.3562 30.0551 19.676 30.0489 19.7032 29.6156L19.7576 28.724C19.7869 28.2928 20.4588 28.2908 20.4315 28.724Z" fill="#C3937C"/>
</svg>
