<svg width="22" height="22" viewBox="0 0 22 22" fill="none" xmlns="http://www.w3.org/2000/svg">
<path d="M11.487 0.0185625C12.6867 0 13.8795 0.011 15.0709 0C15.1431 1.40319 15.6478 2.8325 16.6749 3.82456C17.6999 4.84138 19.1499 5.30681 20.5606 5.46425V9.15544C19.2386 9.11213 17.9103 8.83712 16.7106 8.26787C16.1881 8.03137 15.7014 7.72681 15.2249 7.41538C15.2188 10.0939 15.2359 12.7689 15.2078 15.4364C15.1363 16.7179 14.7134 17.9932 13.9682 19.0492C12.7692 20.8072 10.6881 21.9532 8.55069 21.989C7.23963 22.0639 5.92994 21.7064 4.81276 21.0478C2.96132 19.9561 1.65851 17.9575 1.46876 15.8125C1.44676 15.3539 1.43919 14.8961 1.45776 14.4485C1.62276 12.7043 2.48557 11.0358 3.82482 9.90069C5.34282 8.57862 7.46926 7.94887 9.46026 8.3215C9.47882 9.67931 9.42451 11.0358 9.42451 12.3936C8.51494 12.0993 7.45207 12.1818 6.65732 12.7339C6.07707 13.1099 5.63638 13.6861 5.40676 14.3378C5.21701 14.8026 5.27132 15.3189 5.28232 15.8125C5.50026 17.3167 6.94676 18.5811 8.49088 18.4443C9.51457 18.4332 10.4956 17.8393 11.0291 16.9696C11.2017 16.665 11.3949 16.3536 11.4052 15.9954C11.4953 14.3557 11.4595 12.7229 11.4705 11.0832C11.4781 7.38788 11.4595 3.70287 11.4877 0.01925L11.487 0.0185625Z" fill="black"/>
</svg>
