<svg width="12" height="10" viewBox="0 0 12 10" fill="none" xmlns="http://www.w3.org/2000/svg">
<path d="M12.0001 1.12501C11.5501 1.32501 11.0751 1.45001 10.5751 1.52501C11.0751 1.22501 11.4751 0.750007 11.6501 0.175002C11.1751 0.450004 10.6501 0.650006 10.0751 0.775007C9.62508 0.300003 8.97508 0 8.27507 0C6.92506 0 5.82505 1.10001 5.82505 2.45002C5.82505 2.65002 5.85005 2.82503 5.90005 3.00003C3.87503 2.90003 2.05002 1.92502 0.825007 0.425004C0.625005 0.800007 0.500004 1.20001 0.500004 1.65001C0.500004 2.50002 0.925008 3.25003 1.60001 3.70003C1.20001 3.67503 0.825007 3.57503 0.475004 3.40003V3.42503C0.475004 4.62504 1.32501 5.62505 2.45002 5.85005C2.25002 5.90005 2.02502 5.92505 1.80002 5.92505C1.65001 5.92505 1.47501 5.90005 1.32501 5.87505C1.65001 6.85006 2.55002 7.57507 3.62503 7.57507C2.77502 8.22507 1.72502 8.62508 0.575005 8.62508C0.375003 8.62508 0.175002 8.62508 0 8.60008C1.10001 9.30008 2.37502 9.70009 3.77503 9.70009C8.30007 9.70009 10.7751 5.95005 10.7751 2.70002C10.7751 2.60002 10.7751 2.47502 10.7751 2.37502C11.2501 2.05002 11.6751 1.62501 12.0001 1.12501Z" fill="white"/>
</svg>
