<svg width="45" height="36" viewBox="0 0 45 36" fill="none" xmlns="http://www.w3.org/2000/svg">
<path d="M16.4162 2.97627H28.5835V24.8389H16.4162V2.97627Z" fill="#FF5F00"/>
<path d="M8.18934 35.84V33.5225C8.18934 32.634 7.64846 32.0547 6.72135 32.0547C6.25788 32.0547 5.75571 32.2092 5.40802 32.7114C5.13775 32.2865 4.75153 32.0547 4.17211 32.0547C3.78571 32.0547 3.39967 32.1705 3.09051 32.5954V32.132H2.27936V35.84H3.09051V33.7928C3.09051 33.1363 3.4382 32.8272 3.97909 32.8272C4.51962 32.8272 4.79024 33.1749 4.79024 33.7928V35.84H5.60139V33.7928C5.60139 33.1363 5.98744 32.8272 6.48962 32.8272C7.0305 32.8272 7.30077 33.1749 7.30077 33.7928V35.84H8.18934ZM20.202 32.132H18.8888V31.0118H18.0777V32.132H17.3438V32.8657H18.0775V34.5654C18.0775 35.4153 18.4252 35.9173 19.3523 35.9173C19.7 35.9173 20.086 35.8015 20.3566 35.647L20.1247 34.9517C19.893 35.1061 19.6227 35.1448 19.4295 35.1448C19.0433 35.1448 18.8888 34.9131 18.8888 34.5267V32.8657H20.202V32.132ZM27.0776 32.0545C26.6141 32.0545 26.3052 32.2865 26.112 32.5954V32.132H25.3008V35.84H26.112V33.7543C26.112 33.1363 26.3822 32.7886 26.8844 32.7886C27.0389 32.7886 27.2321 32.8273 27.3866 32.8659L27.6183 32.0934C27.4638 32.0547 27.2321 32.0547 27.0776 32.0547V32.0545ZM16.6871 32.4409C16.3007 32.1705 15.76 32.0547 15.1806 32.0547C14.2536 32.0547 13.6357 32.5182 13.6357 33.2521C13.6357 33.8702 14.0992 34.2177 14.9103 34.3337L15.2965 34.3724C15.7215 34.4495 15.9532 34.5654 15.9532 34.7586C15.9532 35.0289 15.6442 35.2221 15.1033 35.2221C14.5626 35.2221 14.1377 35.0289 13.8672 34.8359L13.481 35.4538C13.906 35.7628 14.4854 35.9173 15.0646 35.9173C16.1462 35.9173 16.7643 35.4153 16.7643 34.7199C16.7643 34.0633 16.2622 33.7156 15.4895 33.5998L15.1033 33.5611C14.7556 33.5224 14.4854 33.4453 14.4854 33.2136C14.4854 32.9431 14.7556 32.7886 15.1806 32.7886C15.6442 32.7886 16.1077 32.9817 16.3394 33.0976L16.6871 32.4409ZM38.2407 32.0547C37.7771 32.0547 37.4681 32.2865 37.2749 32.5954V32.132H36.4638V35.84H37.2749V33.7543C37.2749 33.1363 37.5454 32.7886 38.0474 32.7886C38.202 32.7886 38.3952 32.8273 38.5497 32.8659L38.7814 32.0934C38.627 32.0547 38.3952 32.0547 38.2407 32.0547ZM27.8888 33.986C27.8888 35.1061 28.6612 35.9173 29.8588 35.9173C30.3995 35.9173 30.7857 35.8015 31.1719 35.4925L30.7857 34.8359C30.4767 35.0676 30.1677 35.1834 29.82 35.1834C29.1634 35.1834 28.6999 34.7199 28.6999 33.986C28.6999 33.2908 29.1634 32.8272 29.82 32.7886C30.1677 32.7886 30.4767 32.9044 30.7857 33.1363L31.1719 32.4797C30.7857 32.1705 30.3995 32.0547 29.8588 32.0547C28.6612 32.0547 27.8888 32.8659 27.8888 33.986ZM35.3823 33.986V32.132H34.5712V32.5954C34.3007 32.2479 33.9145 32.0547 33.4123 32.0547C32.3695 32.0547 31.5583 32.8659 31.5583 33.986C31.5583 35.1061 32.3695 35.9173 33.4123 35.9173C33.9531 35.9173 34.3395 35.7243 34.5712 35.3766V35.84H35.3823V33.986ZM32.408 33.986C32.408 33.3293 32.8329 32.7886 33.5281 32.7886C34.1848 32.7886 34.6484 33.2908 34.6484 33.986C34.6484 34.6427 34.1848 35.1834 33.5281 35.1834C32.8329 35.1447 32.408 34.6427 32.408 33.986ZM22.7129 32.0547C21.6313 32.0547 20.8586 32.8272 20.8586 33.986C20.8586 35.1448 21.6311 35.9173 22.7514 35.9173C23.2921 35.9173 23.833 35.7628 24.2579 35.4153L23.8715 34.8359C23.5625 35.0676 23.1763 35.2221 22.7901 35.2221C22.2879 35.2221 21.7858 34.9904 21.6698 34.3335H24.4124V34.0247C24.4511 32.8272 23.7557 32.0547 22.7127 32.0547H22.7129ZM22.7129 32.7499C23.2149 32.7499 23.5627 33.0591 23.6398 33.6385H21.7085C21.7858 33.1363 22.1334 32.7499 22.7129 32.7499ZM42.8372 33.986V30.6642H42.0261V32.5954C41.7556 32.2479 41.3694 32.0547 40.8672 32.0547C39.8243 32.0547 39.0132 32.8659 39.0132 33.986C39.0132 35.1061 39.8243 35.9173 40.8672 35.9173C41.4081 35.9173 41.7943 35.7243 42.0261 35.3766V35.84H42.8372V33.986ZM39.863 33.986C39.863 33.3293 40.2878 32.7886 40.9832 32.7886C41.6398 32.7886 42.1033 33.2908 42.1033 33.986C42.1033 34.6427 41.6398 35.1834 40.9832 35.1834C40.2878 35.1447 39.863 34.6427 39.863 33.986ZM12.7471 33.986V32.132H11.936V32.5954C11.6655 32.2479 11.2793 32.0547 10.7771 32.0547C9.73423 32.0547 8.92308 32.8659 8.92308 33.986C8.92308 35.1061 9.73423 35.9173 10.7771 35.9173C11.318 35.9173 11.7042 35.7243 11.936 35.3766V35.84H12.7471V33.986ZM9.73423 33.986C9.73423 33.3293 10.1592 32.7886 10.8544 32.7886C11.511 32.7886 11.9747 33.2908 11.9747 33.986C11.9747 34.6427 11.511 35.1834 10.8544 35.1834C10.1592 35.1447 9.73423 34.6427 9.73423 33.986Z" fill="white"/>
<path d="M17.1889 13.9056C17.1889 9.46357 19.2747 5.52359 22.4806 2.97417C20.1245 1.12013 17.1504 0 13.9057 0C6.21878 0 0 6.21878 0 13.9056C0 21.5922 6.21878 27.8111 13.9056 27.8111C17.1502 27.8111 20.1243 26.691 22.4806 24.8368C19.2747 22.3261 17.1889 18.3476 17.1889 13.9056Z" fill="#EB001B"/>
<path d="M44.9997 13.9056C44.9997 21.5922 38.7809 27.8111 31.0941 27.8111C27.8495 27.8111 24.8753 26.691 22.5191 24.8368C25.7637 22.2875 27.811 18.3476 27.811 13.9056C27.811 9.46357 25.725 5.52359 22.5191 2.97417C24.8752 1.12013 27.8495 0 31.0941 0C38.7809 0 44.9998 6.25749 44.9998 13.9056H44.9997Z" fill="#F79E1B"/>
</svg>
