<svg width="22" height="22" viewBox="0 0 22 22" fill="none" xmlns="http://www.w3.org/2000/svg">
<path d="M18.6541 8.17935L18.3184 7.9926C18.2663 7.9636 18.2407 7.94905 18.2155 7.93397C17.9651 7.78401 17.7541 7.57683 17.6002 7.32896C17.5847 7.30402 17.5701 7.27786 17.5402 7.22617C17.5104 7.17454 17.4953 7.14838 17.4814 7.12248C17.3433 6.86461 17.2686 6.57722 17.2641 6.28472C17.2637 6.25532 17.2638 6.22527 17.2648 6.16554L17.2713 5.77572C17.2818 5.1519 17.2871 4.83902 17.1994 4.55823C17.1216 4.30882 16.9913 4.0791 16.8173 3.88415C16.6207 3.66378 16.3485 3.50656 15.8035 3.19253L15.3509 2.93169C14.8075 2.61853 14.5356 2.4619 14.2471 2.40219C13.9919 2.34936 13.7285 2.35181 13.4742 2.4089C13.1871 2.47334 12.9187 2.63405 12.3822 2.9553L12.3792 2.95675L12.0548 3.15096C12.0035 3.18167 11.9776 3.19715 11.9519 3.21144C11.6968 3.35326 11.412 3.43168 11.1203 3.44105C11.0909 3.44199 11.061 3.44199 11.0012 3.44199C10.9418 3.44199 10.9106 3.44199 10.8812 3.44105C10.5889 3.43164 10.3035 3.35279 10.0481 3.21038C10.0223 3.19603 9.99683 3.18043 9.94544 3.14958L9.61904 2.95362C9.07887 2.62933 8.80838 2.46695 8.51975 2.40219C8.2644 2.34489 8.00009 2.34331 7.74391 2.39682C7.45466 2.45723 7.18279 2.61503 6.63903 2.93061L6.63662 2.93169L6.18959 3.19113L6.18464 3.19416C5.64579 3.50691 5.37571 3.66366 5.18072 3.88313C5.00769 4.07788 4.87836 4.30724 4.80095 4.556C4.71345 4.83717 4.71811 5.15071 4.72865 5.77747L4.7352 6.16674C4.7362 6.22569 4.73792 6.25498 4.73749 6.28398C4.73315 6.57707 4.65745 6.86504 4.51893 7.12338C4.50523 7.14893 4.49047 7.17448 4.461 7.22551C4.4315 7.27658 4.41721 7.30197 4.40191 7.32662C4.24725 7.57581 4.03529 7.78421 3.78339 7.93441C3.75847 7.94927 3.73221 7.96356 3.68061 7.99215L3.34918 8.17582C2.79774 8.48141 2.52209 8.63434 2.32151 8.85197C2.14407 9.0445 2.01002 9.27286 1.9282 9.52157C1.83571 9.80271 1.83578 10.118 1.83722 10.7484L1.83839 11.2637C1.83981 11.8899 1.84176 12.2028 1.93446 12.4821C2.01647 12.7291 2.14954 12.9561 2.32599 13.1475C2.52543 13.3638 2.79834 13.5158 3.3456 13.8202L3.67408 14.003C3.72998 14.0341 3.75811 14.0494 3.78507 14.0657C4.03469 14.216 4.24498 14.4238 4.39833 14.6716C4.4149 14.6983 4.4308 14.7261 4.4626 14.7817C4.49401 14.8365 4.51008 14.864 4.52461 14.8915C4.65906 15.146 4.73104 15.4289 4.73595 15.7167C4.73648 15.7478 4.73603 15.7792 4.73496 15.8425L4.72865 16.216C4.71804 16.8449 4.71341 17.1597 4.80143 17.4417C4.87929 17.6911 5.00944 17.9208 5.18341 18.1158C5.38006 18.3361 5.65267 18.4933 6.19765 18.8073L6.65021 19.0681C7.19366 19.3812 7.46528 19.5377 7.7538 19.5974C8.00904 19.6502 8.27259 19.6482 8.52691 19.5911C8.81436 19.5266 9.08369 19.3653 9.62172 19.0431L9.94606 18.8489C9.99737 18.8182 10.0234 18.8028 10.0491 18.7885C10.3042 18.6467 10.5886 18.5678 10.8803 18.5585C10.9097 18.5575 10.9396 18.5575 10.9995 18.5575C11.0594 18.5575 11.0893 18.5575 11.1187 18.5585C11.4111 18.5679 11.6973 18.647 11.9528 18.7894C11.9753 18.8019 11.9978 18.8155 12.0373 18.8392L12.3821 19.0462C12.9224 19.3706 13.1923 19.5325 13.4809 19.5972C13.7363 19.6545 14.0008 19.6568 14.257 19.6033C14.5461 19.5429 14.8186 19.3848 15.362 19.0694L15.8158 18.8061C16.355 18.4931 16.6253 18.3362 16.8204 18.1167C16.9934 17.9219 17.1229 17.6926 17.2003 17.4439C17.2872 17.1648 17.282 16.8536 17.2716 16.2359L17.2648 15.8331C17.2638 15.7741 17.2637 15.7448 17.2641 15.7158C17.2685 15.4227 17.3429 15.1345 17.4814 14.8762C17.4951 14.8507 17.51 14.8249 17.5394 14.7741C17.5689 14.723 17.5841 14.6975 17.5994 14.6729C17.7541 14.4237 17.9663 14.2151 18.2182 14.0649C18.2428 14.0502 18.2681 14.0362 18.3185 14.0083L18.3202 14.0075L18.6516 13.8238C19.2031 13.5182 19.4793 13.3651 19.6798 13.1475C19.8573 12.955 19.9912 12.7269 20.073 12.4782C20.1649 12.1987 20.1642 11.8853 20.1628 11.2622L20.1616 10.7359C20.1602 10.1096 20.1594 9.79678 20.0667 9.51754C19.9847 9.2705 19.8509 9.04348 19.6744 8.85211C19.4752 8.63602 19.2019 8.48398 18.6557 8.18013L18.6541 8.17935Z" stroke="#C3937C" stroke-width="1.5" stroke-linecap="round" stroke-linejoin="round"/>
<path d="M7.33364 11C7.33364 13.025 8.97526 14.6666 11.0003 14.6666C13.0253 14.6666 14.667 13.025 14.667 11C14.667 8.97492 13.0253 7.3333 11.0003 7.3333C8.97526 7.3333 7.33364 8.97492 7.33364 11Z" stroke="#C3937C" stroke-width="1.5" stroke-linecap="round" stroke-linejoin="round"/>
</svg>
